<svg width="55" height="55" viewBox="0 0 55 55" fill="none" xmlns="http://www.w3.org/2000/svg">
<g clip-path="url(#clip0_100_9036)">
<path d="M26.8299 33.35H23.4472C19.5338 33.35 16.3509 36.534 16.3509 40.4463V45.0622C16.3509 46.4286 17.4616 47.5394 18.828 47.5394H31.4501C32.8165 47.5394 33.9272 46.4286 33.9272 45.0622V40.4463C33.9272 36.534 30.7433 33.35 26.8299 33.35ZM32.2063 45.0633C32.2063 45.4801 31.8669 45.8195 31.4501 45.8195H29.0524V41.7343C29.0524 41.2595 28.6679 40.8738 28.192 40.8738C27.7161 40.8738 27.3315 41.2584 27.3315 41.7343V45.8195H22.9466V41.7343C22.9466 41.2595 22.562 40.8738 22.0861 40.8738C21.6103 40.8738 21.2257 41.2584 21.2257 41.7343V45.8195H18.828C18.4112 45.8195 18.0718 45.4801 18.0718 45.0633V40.4474C18.0718 37.4825 20.4834 35.0709 23.4482 35.0709H26.831C29.7958 35.0709 32.2074 37.4825 32.2074 40.4474V45.0633H32.2063ZM19.7551 27.4235C19.7551 30.3927 22.1699 32.8086 25.1369 32.8086C28.1061 32.8086 30.522 30.3927 30.522 27.4235C30.522 24.4555 28.1061 22.0417 25.1369 22.0417C22.1699 22.0417 19.7551 24.4555 19.7551 27.4235ZM28.8021 27.4235C28.8021 29.4442 27.1586 31.0877 25.1369 31.0877C23.1174 31.0877 21.4749 29.4442 21.4749 27.4235C21.4749 25.404 23.1174 23.7615 25.1369 23.7615C27.1575 23.7615 28.8021 25.404 28.8021 27.4235ZM9.04404 35.2084H6.16621C2.76523 35.2084 -0.00195312 37.9756 -0.00195312 41.3766V45.305C-0.00195312 46.5382 1.00137 47.5415 2.23457 47.5415H12.9746C14.2078 47.5415 15.2111 46.5382 15.2111 45.305V41.3766C15.2122 37.9745 12.445 35.2084 9.04404 35.2084ZM13.4913 45.3039C13.4913 45.5886 13.2593 45.8195 12.9757 45.8195H11.0646V42.4712C11.0646 41.9964 10.6801 41.6108 10.2042 41.6108C9.72832 41.6108 9.34375 41.9953 9.34375 42.4712V45.8195H5.86973V42.4712C5.86973 41.9964 5.48516 41.6108 5.00928 41.6108C4.5334 41.6108 4.14883 41.9953 4.14883 42.4712V45.8195H2.23564C1.95098 45.8195 1.72002 45.5875 1.72002 45.3039V41.3755C1.72002 38.9231 3.71484 36.9282 6.16728 36.9282H9.04512C11.4976 36.9282 13.4924 38.9231 13.4924 41.3755V45.3039H13.4913ZM7.60674 35.0043C10.2031 35.0043 12.3161 32.8902 12.3161 30.2917C12.3161 27.6953 10.2031 25.5823 7.60674 25.5823C5.0082 25.5823 2.89414 27.6953 2.89414 30.2917C2.89521 32.8902 5.00928 35.0043 7.60674 35.0043ZM7.60674 27.3032C9.25459 27.3032 10.5952 28.6439 10.5952 30.2917C10.5952 31.9417 9.25459 33.2834 7.60674 33.2834C5.95674 33.2834 4.61504 31.9417 4.61504 30.2917C4.61504 28.6439 5.95781 27.3032 7.60674 27.3032ZM46.9758 31.4927H43.0871C38.6635 31.4927 35.0648 35.0924 35.0648 39.5182V44.8227C35.0648 46.3212 36.2841 47.5404 37.7826 47.5404H52.2835C53.782 47.5404 55.0013 46.3212 55.0013 44.8227V39.5182C55.0013 35.0935 51.4016 31.4927 46.9758 31.4927ZM53.2814 44.8227C53.2814 45.3727 52.8346 45.8195 52.2846 45.8195H49.3992V40.9974C49.3992 40.5226 49.0146 40.1369 48.5388 40.1369C48.0629 40.1369 47.6783 40.5215 47.6783 40.9974V45.8195H42.3856V40.9974C42.3856 40.5226 42.0011 40.1369 41.5252 40.1369C41.0493 40.1369 40.6647 40.5215 40.6647 40.9974V45.8195H37.7826C37.2326 45.8195 36.7857 45.3727 36.7857 44.8227V39.5182C36.7857 36.042 39.6131 33.2136 43.0871 33.2136H46.9758C50.4519 33.2136 53.2804 36.042 53.2804 39.5182V44.8227H53.2814ZM38.975 24.5554C38.975 27.8962 41.6928 30.614 45.0336 30.614C48.3744 30.614 51.0922 27.8962 51.0922 24.5554C51.0922 21.2146 48.3744 18.4968 45.0336 18.4968C41.6928 18.4968 38.975 21.2146 38.975 24.5554ZM45.0336 20.2177C47.4259 20.2177 49.3713 22.1631 49.3713 24.5554C49.3713 26.9477 47.4259 28.8931 45.0336 28.8931C42.6413 28.8931 40.6959 26.9477 40.6959 24.5554C40.6959 22.1631 42.6413 20.2177 45.0336 20.2177ZM2.91885 20.4379C2.8082 19.976 3.09287 19.5119 3.55479 19.4002L38.2843 11.0621L34.8478 9.06515C34.4375 8.82667 34.2978 8.30031 34.5363 7.88888C34.7748 7.47853 35.3012 7.33888 35.7126 7.57736L41.0053 10.6528C41.4156 10.8913 41.5553 11.4177 41.3168 11.8291L38.2413 17.1239C38.0812 17.3989 37.7934 17.5526 37.4969 17.5526C37.3497 17.5526 37.2015 17.515 37.0661 17.4365C36.6547 17.1981 36.5161 16.6717 36.7546 16.2603L38.8214 12.7025L3.95547 21.0738C3.88779 21.09 3.82012 21.0975 3.75352 21.0975C3.36572 21.0975 3.01338 20.8321 2.91885 20.4379Z" fill="#C8DEB8"/>
</g>
<defs>
<clipPath id="clip0_100_9036">
<rect width="55" height="55" fill="white"/>
</clipPath>
</defs>
</svg>
