<svg width="10" height="20" viewBox="0 0 10 20" fill="none" xmlns="http://www.w3.org/2000/svg">
<g id="Group">
<path id="Vector" d="M8.70659 18.4378L8.71476 18.3885C8.84219 18.4096 8.93633 18.5199 8.93606 18.6493M8.70659 18.4378L0.450214 18.1133L0.450214 18.1134M8.70659 18.4378L8.71504 18.3885L8.71498 18.3885C8.71071 18.3878 8.52416 18.3558 8.30002 18.2704C8.07314 18.184 7.81602 18.0459 7.66601 17.8374L7.66594 17.8373C7.63163 17.7898 7.32675 17.3499 7.32675 16.8056V16.8047V16.7362C7.32675 16.2542 7.32694 15.4557 7.40714 15.0056L7.40715 15.0056C7.41313 14.9718 7.43346 14.93 7.47035 14.8801C7.50679 14.8307 7.55679 14.7768 7.61734 14.7191C7.73852 14.6035 7.89696 14.4771 8.06243 14.345L8.06269 14.3448L8.0627 14.3448L8.06874 14.3399C8.72163 13.8185 9.6364 13.088 9.68136 11.8884C9.7201 10.8573 9.30891 9.40029 8.91406 8.38302M8.70659 18.4378C8.81003 18.4549 8.88628 18.5444 8.88606 18.6492M8.93606 18.6493L8.88606 18.6492M8.93606 18.6493V18.6492H8.88606M8.93606 18.6493V18.7858C8.93606 18.9319 8.8177 19.05 8.67189 19.05H1.38776C0.872152 19.05 0.452839 18.6316 0.450226 18.117M8.88606 18.6492V18.7858C8.88606 18.9043 8.79011 19 8.67189 19H1.38776C0.898582 19 0.500857 18.6021 0.500214 18.1133L0.5 18.1122V8.15305C0.5 7.24926 0.941601 6.8194 1.36856 6.40379L1.36891 6.40345L1.36918 6.40319C1.78822 5.99528 2.18407 5.60995 2.18407 4.72624V1.21418C2.18407 1.09595 2.28002 1 2.39824 1H4.03626C4.15449 1 4.25044 1.09595 4.25044 1.21418V4.72624C4.25044 5.61014 4.64645 5.99566 5.06559 6.40345C5.49266 6.81895 5.9345 7.24901 5.9345 8.15305V8.21442H5.9845M0.450226 18.117C0.450729 18.1223 0.451942 18.1264 0.452448 18.1279C0.45184 18.126 0.450224 18.1204 0.450214 18.1134M0.450226 18.117C0.450085 18.1155 0.45 18.1139 0.45 18.1122V8.15305C0.45 7.69202 0.5629 7.34963 0.731458 7.06936C0.898552 6.79153 1.11954 6.57641 1.33175 6.36984L1.33404 6.36762C1.54431 6.16293 1.7431 5.96908 1.89055 5.71799C2.03712 5.4684 2.13407 5.15995 2.13407 4.72624V1.21418C2.13407 1.06834 2.2524 0.95 2.39824 0.95H4.03626C4.1821 0.95 4.30044 1.06834 4.30044 1.21418V4.72624C4.30044 5.15995 4.39739 5.46845 4.54395 5.71807C4.6914 5.96918 4.89019 6.16304 5.10046 6.36761L5.10214 6.36925C5.31454 6.5759 5.53579 6.79116 5.70305 7.06928C5.8716 7.34958 5.9845 7.69202 5.9845 8.15305V8.21442M0.450226 18.117C0.450219 18.1158 0.450216 18.1146 0.450214 18.1134M0.450214 18.1134L5.9845 8.21442M5.9845 8.21442H8.66782C8.77663 8.21442 8.87467 8.28123 8.91406 8.38302M5.9845 8.21442V8.26442V8.21442ZM8.91406 8.38302L8.86743 8.40107L8.91404 8.38298C8.91405 8.38299 8.91406 8.38301 8.91406 8.38302ZM5.97949 18.2049C6.16149 18.1189 6.34251 17.9996 6.45916 17.8378C6.49387 17.7892 6.79679 17.3517 6.7986 16.8095C6.79847 16.808 6.79839 16.8065 6.79839 16.8049V16.8048L6.79861 16.7366L6.79861 16.7364L6.7986 16.731C6.79817 16.2478 6.79747 15.4534 6.71778 15.0058C6.71176 14.972 6.69138 14.9302 6.65449 14.8802C6.61803 14.8309 6.56804 14.777 6.50752 14.7192C6.38633 14.6036 6.22789 14.477 6.06245 14.345L6.06238 14.3449L6.05356 14.3379C6.03088 14.3197 6.00782 14.3012 5.9845 14.2825V18.1125L5.97949 18.2049ZM5.97949 18.2049C5.98231 18.1767 5.98388 18.1481 5.98406 18.1192C5.98407 18.1173 5.98408 18.1154 5.98408 18.1135C5.98408 18.1222 5.98179 18.1293 5.97954 18.1342C5.97861 18.1362 5.9776 18.138 5.97687 18.1392L5.97617 18.1403L5.97595 18.1406L5.97587 18.1408L5.97949 18.2049ZM9.15329 11.8688V11.8689C9.13853 12.2647 8.99875 12.6001 8.79603 12.894C8.42087 13.3763 7.78473 13.696 7.06278 13.696C6.3404 13.696 5.70427 13.3765 5.32912 12.8941C5.1266 12.6001 4.98682 12.2644 4.97206 11.8689C4.95806 11.4963 5.01322 11.0171 5.12637 10.483H8.9992C9.11233 11.0171 9.1673 11.4965 9.15329 11.8688ZM1.70277 6.74641L1.70278 6.7464C2.1089 6.35106 2.57485 5.89731 2.65125 4.99063H3.78367C3.85988 5.89732 4.32604 6.35127 4.73216 6.74641L4.73217 6.74642C4.93144 6.94021 5.11146 7.11575 5.24282 7.33143C5.37311 7.54535 5.45637 7.80048 5.45637 8.15327V8.21464C5.34769 8.21512 5.25082 8.2819 5.21116 8.38303L5.2111 8.38318C5.10767 8.64952 5.00413 8.9464 4.90734 9.25639H0.978566V8.15327C0.978566 7.80049 1.06187 7.54535 1.19219 7.33144C1.32358 7.11575 1.5036 6.94021 1.70277 6.74641ZM7.63612 18.5216H6.48915C6.63765 18.4223 6.77803 18.2989 6.88791 18.1462L6.88796 18.1461C6.91624 18.1066 6.98644 18.0039 7.0627 17.8535C7.13873 18.0038 7.20895 18.1065 7.23742 18.1461L7.23745 18.1462C7.34733 18.2989 7.4877 18.4223 7.63612 18.5216ZM0.452463 18.128C0.452559 18.1283 0.452627 18.1285 0.452658 18.1285L0.452675 18.1286C0.452686 18.1286 0.452604 18.1284 0.452463 18.128ZM7.40021 14.2041C7.26754 14.318 7.15123 14.4294 7.06275 14.5441C6.97438 14.4297 6.85852 14.3185 6.72618 14.2049C6.83641 14.2177 6.94872 14.2244 7.06278 14.2244C7.17728 14.2244 7.28987 14.2173 7.40021 14.2041ZM1.86302 11.2536H4.47141C4.45249 11.4407 4.4417 11.6223 4.44348 11.7931H1.86302C1.71721 11.7931 1.59884 11.9112 1.59884 12.0573C1.59884 12.2034 1.71721 12.3214 1.86302 12.3214H4.50167C4.64666 12.9584 5.04057 13.444 5.45594 13.8319V14.3306H0.97878V9.78474H4.75351C4.66957 10.098 4.59857 10.4154 4.54475 10.7252H1.86302C1.71721 10.7252 1.59884 10.8433 1.59884 10.9894C1.59884 11.1355 1.71721 11.2536 1.86302 11.2536ZM8.48537 8.74278C8.63817 9.15256 8.76849 9.56235 8.87228 9.9546H5.25271C5.35682 9.56231 5.48679 9.15252 5.63956 8.74278H8.48537ZM2.66242 1.47835H3.77208V4.46206H2.66242V1.47835ZM5.45615 18.1078C5.45601 18.1093 5.45594 18.1109 5.45594 18.1125C5.45594 18.3382 5.2721 18.5219 5.04632 18.5219H1.38797C1.16222 18.5219 0.978566 18.3382 0.978566 18.1125V18.1124V18.1124V18.1124V18.1124V18.1124V18.1124V18.1123V18.1123V18.1123V18.1123V18.1123V18.1123V18.1123V18.1122V18.1122V18.1122V18.1122V18.1122V18.1122V18.1122V18.1121V18.1121V18.1121V18.1121V18.1121V18.1121V18.112V18.112V14.859H5.45615V18.1078Z" fill="#00625B" stroke="#00625B" stroke-width="0.1"/>
<path id="Vector_2" d="M2.32648 13.3905H4.10714C4.25295 13.3905 4.37132 13.2724 4.37132 13.1263C4.37132 12.9802 4.25295 12.8621 4.10714 12.8621H2.32648C2.18067 12.8621 2.0623 12.9802 2.0623 13.1263C2.0623 13.2724 2.18067 13.3905 2.32648 13.3905Z" fill="#00625B" stroke="black" stroke-width="0.1"/>
</g>
</svg>
