<svg width="10" height="19" viewBox="0 0 10 19" fill="none" xmlns="http://www.w3.org/2000/svg">
<path d="M4.03613 0.700195C4.18187 0.700195 4.30061 0.818169 4.30078 0.963867V4.47656C4.30083 4.90997 4.39749 5.21826 4.54395 5.46777C4.69136 5.71883 4.89038 5.91267 5.10059 6.11719C5.3135 6.32434 5.53543 6.54048 5.70312 6.81934C5.87166 7.09962 5.98438 7.44233 5.98438 7.90332V7.96484H8.66797C8.77666 7.9649 8.87464 8.03117 8.91406 8.13281C9.30892 9.15008 9.72038 10.6075 9.68164 11.6387C9.63644 12.8418 8.71573 13.573 8.0625 14.0947C7.89701 14.2268 7.7384 14.3532 7.61719 14.4688C7.55675 14.5264 7.50713 14.5806 7.4707 14.6299C7.43382 14.6798 7.41321 14.7221 7.40723 14.7559C7.32706 15.206 7.32715 16.0044 7.32715 16.4863V16.5557L7.33984 16.7539C7.3985 17.2028 7.63535 17.5444 7.66602 17.5869C7.81599 17.7954 8.07297 17.9341 8.2998 18.0205C8.52249 18.1053 8.70827 18.1375 8.71484 18.1387L8.76074 18.1504C8.86419 18.1874 8.93676 18.2861 8.93652 18.3994V18.5361C8.93636 18.6821 8.81758 18.7998 8.67188 18.7998H1.3877C0.903218 18.7998 0.503675 18.4306 0.455078 17.959L0.450195 17.8633V7.90332C0.450195 7.44229 0.562888 7.0996 0.731445 6.81934C0.899137 6.54051 1.12108 6.32443 1.33398 6.11719C1.54419 5.91257 1.74322 5.71879 1.89062 5.46777C2.03709 5.21828 2.13374 4.90999 2.13379 4.47656V0.963867C2.13396 0.818169 2.2527 0.700195 2.39844 0.700195H4.03613ZM0.978516 17.8623L0.987305 17.9453C1.02572 18.1314 1.19046 18.2714 1.3877 18.2715H5.0459C5.27169 18.2715 5.45605 18.088 5.45605 17.8623V14.6094H0.978516V17.8623ZM7.0625 17.6006C6.9858 17.7522 6.91612 17.8568 6.8877 17.8965C6.77789 18.049 6.6376 18.1722 6.48926 18.2715H7.63574C7.4875 18.1722 7.34709 18.049 7.2373 17.8965C7.20868 17.8566 7.13899 17.7522 7.0625 17.6006ZM5.98438 17.8633L5.97949 17.9521C6.16107 17.8663 6.34256 17.7493 6.45898 17.5879L6.52637 17.4834C6.60983 17.3424 6.74284 17.0761 6.78516 16.7549L6.79883 16.5557V16.4863C6.7984 16.0036 6.79775 15.2051 6.71777 14.7559C6.71175 14.7221 6.69119 14.6798 6.6543 14.6299C6.61786 14.5806 6.56821 14.5264 6.50781 14.4688C6.38663 14.3531 6.22791 14.2267 6.0625 14.0947C6.03678 14.0741 6.01095 14.0526 5.98438 14.0312V17.8633ZM7.4043 13.9502C7.29253 13.9637 7.17855 13.9746 7.0625 13.9746C6.94723 13.9746 6.834 13.9653 6.72266 13.9521C6.85701 14.0673 6.97324 14.1809 7.0625 14.2969C7.1521 14.1803 7.26915 14.066 7.4043 13.9502ZM0.978516 14.0811H5.45605V13.5811C5.04089 13.1933 4.64891 12.7079 4.50391 12.0713H1.86328C1.71759 12.0713 1.59882 11.9535 1.59863 11.8076C1.59863 11.6615 1.71747 11.543 1.86328 11.543H4.44531C4.44354 11.3723 4.45375 11.1909 4.47266 11.0039H1.86328C1.71747 11.0039 1.59863 10.8853 1.59863 10.7393C1.5987 10.5932 1.71752 10.4756 1.86328 10.4756H4.5459C4.59972 10.1657 4.67093 9.84849 4.75488 9.53516H0.978516V14.0811ZM5.12695 10.2334C5.01385 10.7675 4.95768 11.2467 4.97168 11.6191C4.98647 12.014 5.1262 12.349 5.32812 12.6426C5.70311 13.1256 6.33968 13.4462 7.0625 13.4463C7.785 13.4463 8.42183 13.1255 8.79688 12.6426C8.99903 12.349 9.13853 12.0142 9.15332 11.6191C9.16732 11.2469 9.11211 10.7674 8.99902 10.2334H5.12695ZM5.63965 8.49316C5.48691 8.90286 5.358 9.31284 5.25391 9.70508H8.87109C8.76733 9.31288 8.63812 8.90289 8.48535 8.49316H5.63965ZM2.65039 4.74023C2.57409 5.64688 2.10921 6.10078 1.70312 6.49609C1.50407 6.68978 1.32376 6.86553 1.19238 7.08105C1.06207 7.29497 0.978516 7.55054 0.978516 7.90332V9.00684H4.9082C5.005 8.69679 5.1075 8.39919 5.21094 8.13281C5.25059 8.03185 5.34754 7.96545 5.45605 7.96484V7.90332C5.45605 7.55054 5.37345 7.29497 5.24316 7.08105C5.11181 6.86543 4.93165 6.68984 4.73242 6.49609C4.32627 6.10092 3.86129 5.64708 3.78516 4.74023H2.65039ZM2.66211 4.21191H3.77246V1.22852H2.66211V4.21191Z" fill="white" stroke="white" stroke-width="0.1"/>
<path d="M4.10791 12.6118C4.25349 12.612 4.37142 12.7296 4.37158 12.8755C4.37158 13.0215 4.25359 13.14 4.10791 13.1401H2.32666C2.18099 13.14 2.06299 13.0215 2.06299 12.8755C2.06315 12.7296 2.1811 12.612 2.32666 12.6118H4.10791Z" fill="white" stroke="black" stroke-width="0.1"/>
</svg>
