<svg width="12" height="18" viewBox="0 0 12 18" fill="none" xmlns="http://www.w3.org/2000/svg">
<g id="Group 1851">
<path id="Vector" d="M6.43971 0.275906C6.3322 0.105147 6.14405 0 5.94167 0C5.7385 0 5.55114 0.105143 5.44364 0.275906C4.8863 1.16132 0 9.02017 0 12.0591C0 15.3353 2.66576 18 5.94169 18C9.21763 18 11.8826 15.3351 11.8826 12.0591C11.8826 9.02017 6.99707 1.16132 6.43971 0.275906ZM5.94167 16.8221C3.31477 16.8221 1.17784 14.686 1.17784 12.0591C1.17784 10.0005 4.26009 4.48724 5.94167 1.71078C7.62317 4.48644 10.7039 9.99969 10.7039 12.0591C10.7039 14.6854 8.56777 16.8221 5.94167 16.8221Z" fill="#00625B"/>
<g id="O2">
<path d="M6.61632 10.7917C6.61632 11.1721 6.54421 11.4957 6.40001 11.7626C6.25694 12.0294 6.06165 12.2332 5.81412 12.374C5.56772 12.5137 5.29067 12.5835 4.98296 12.5835C4.67298 12.5835 4.3948 12.5131 4.1484 12.3723C3.90201 12.2315 3.70728 12.0277 3.56421 11.7609C3.42114 11.494 3.34961 11.171 3.34961 10.7917C3.34961 10.4114 3.42114 10.0878 3.56421 9.82093C3.70728 9.5541 3.90201 9.35086 4.1484 9.21119C4.3948 9.0704 4.67298 9 4.98296 9C5.29067 9 5.56772 9.0704 5.81412 9.21119C6.06165 9.35086 6.25694 9.5541 6.40001 9.82093C6.54421 10.0878 6.61632 10.4114 6.61632 10.7917ZM5.86862 10.7917C5.86862 10.5454 5.83172 10.3376 5.75791 10.1684C5.68524 9.9992 5.58248 9.87089 5.44964 9.78346C5.31679 9.69603 5.16123 9.65232 4.98296 9.65232C4.8047 9.65232 4.64914 9.69603 4.51629 9.78346C4.38344 9.87089 4.28012 9.9992 4.20631 10.1684C4.13364 10.3376 4.09731 10.5454 4.09731 10.7917C4.09731 11.0381 4.13364 11.2459 4.20631 11.4151C4.28012 11.5843 4.38344 11.7126 4.51629 11.8C4.64914 11.8875 4.8047 11.9312 4.98296 11.9312C5.16123 11.9312 5.31679 11.8875 5.44964 11.8C5.58248 11.7126 5.68524 11.5843 5.75791 11.4151C5.83172 11.2459 5.86862 11.0381 5.86862 10.7917Z" fill="#00625B"/>
<path d="M7.06894 13.1353V12.7589L7.89839 12.0964C7.96197 12.0442 8.01704 11.997 8.0636 11.955C8.11015 11.913 8.14648 11.8704 8.1726 11.8273C8.19872 11.7841 8.21177 11.7364 8.21177 11.6842C8.21177 11.6025 8.17828 11.5394 8.11129 11.4952C8.04429 11.4509 7.96311 11.4287 7.86773 11.4287C7.76554 11.4287 7.68322 11.4537 7.62077 11.5037C7.55945 11.5525 7.5288 11.6235 7.5288 11.7166H7.02636C7.02636 11.4986 7.10584 11.3277 7.2648 11.2039C7.42377 11.079 7.62701 11.0166 7.87454 11.0166C8.04373 11.0166 8.19077 11.0461 8.31567 11.1051C8.44057 11.163 8.53708 11.242 8.60521 11.3419C8.67447 11.4418 8.7091 11.5536 8.7091 11.6774C8.7091 11.7773 8.6881 11.8704 8.64609 11.9567C8.60521 12.0419 8.54162 12.1259 8.45533 12.2088C8.37017 12.2906 8.26003 12.3763 8.12491 12.466L7.82174 12.6908V12.7095H8.73295V13.1353H7.06894Z" fill="#00625B"/>
</g>
</g>
</svg>
