<svg width="9" height="12" viewBox="0 0 9 12" fill="none" xmlns="http://www.w3.org/2000/svg">
<g id="Layer 2">
<path id="Vector" d="M4.32709 0.128222C4.29533 0.0882342 4.25494 0.0559346 4.20895 0.0337328C4.16296 0.011531 4.11255 0 4.06148 0C4.01041 0 3.96 0.011531 3.91401 0.0337328C3.86802 0.0559346 3.82764 0.0882342 3.79587 0.128222C3.65369 0.325406 0.313076 4.9832 0.0468269 7.37775C-0.042112 7.97038 -0.00406355 8.57515 0.15845 9.15196C0.320964 9.72877 0.60423 10.2644 0.989471 10.7235C1.38163 11.1419 1.85844 11.472 2.38814 11.6918C2.91784 11.9115 3.48828 12.0159 4.06148 11.998C4.63463 12.0159 5.20501 11.9115 5.73467 11.6918C6.26432 11.4721 6.74111 11.142 7.13328 10.7237C7.51851 10.2647 7.80177 9.72897 7.96428 9.15217C8.12679 8.57536 8.16485 7.9706 8.07592 7.37797C7.80989 4.98341 4.46928 0.325406 4.32709 0.128222ZM6.64513 10.2869C6.31402 10.6361 5.91241 10.9109 5.46696 11.093C5.02151 11.2751 4.54241 11.3604 4.06148 11.3432C3.58049 11.3604 3.10133 11.2751 2.65581 11.093C2.21029 10.9109 1.80859 10.6361 1.4774 10.2869C1.15158 9.89767 0.913339 9.44288 0.778832 8.95343C0.644325 8.46397 0.616707 7.9513 0.697852 7.45023C0.903561 5.5982 3.25911 2.05252 4.06148 0.890098C4.86386 2.05252 7.2194 5.5982 7.42533 7.45002C7.5064 7.95117 7.47868 8.4639 7.34406 8.9534C7.20944 9.44289 6.97107 9.89769 6.64513 10.2869Z" fill="#00625B"/>
<path id="Vector_2" d="M4.93506 5.66783H4.38934V5.12211C4.38934 5.03527 4.35484 4.95199 4.29344 4.89058C4.23203 4.82918 4.14875 4.79468 4.06191 4.79468C3.97507 4.79468 3.89179 4.82918 3.83038 4.89058C3.76898 4.95199 3.73448 5.03527 3.73448 5.12211V5.66783H3.18876C3.10192 5.66783 3.01864 5.70232 2.95723 5.76373C2.89583 5.82514 2.86133 5.90842 2.86133 5.99526C2.86133 6.0821 2.89583 6.16538 2.95723 6.22679C3.01864 6.28819 3.10192 6.32269 3.18876 6.32269H3.73448V6.86841C3.73448 6.95525 3.76898 7.03853 3.83038 7.09994C3.89179 7.16134 3.97507 7.19584 4.06191 7.19584C4.14875 7.19584 4.23203 7.16134 4.29344 7.09994C4.35484 7.03853 4.38934 6.95525 4.38934 6.86841V6.32269H4.93506C5.0219 6.32269 5.10518 6.28819 5.16659 6.22679C5.22799 6.16538 5.26249 6.0821 5.26249 5.99526C5.26249 5.90842 5.22799 5.82514 5.16659 5.76373C5.10518 5.70232 5.0219 5.66783 4.93506 5.66783Z" fill="#00625B"/>
<path id="Vector_3" d="M4.93506 8.50549H3.18876C3.10192 8.50549 3.01864 8.53999 2.95723 8.6014C2.89583 8.6628 2.86133 8.74608 2.86133 8.83292C2.86133 8.91976 2.89583 9.00305 2.95723 9.06445C3.01864 9.12586 3.10192 9.16036 3.18876 9.16036H4.93506C5.0219 9.16036 5.10518 9.12586 5.16659 9.06445C5.22799 9.00305 5.26249 8.91976 5.26249 8.83292C5.26249 8.74608 5.22799 8.6628 5.16659 8.6014C5.10518 8.53999 5.0219 8.50549 4.93506 8.50549Z" fill="#00625B"/>
</g>
</svg>
