<svg width="168" height="235" viewBox="0 0 168 235" fill="none" xmlns="http://www.w3.org/2000/svg">
<path d="M97.5737 114.61C97.3064 111.389 97.5215 99.9664 97.5215 95.7417C97.5215 91.5169 95.6178 77.8777 95.194 74.3375C94.7702 70.7973 94.0335 56.102 93.3424 48.4413C92.6513 40.7807 88.2701 37.1818 81.5548 35.8648C75.485 34.6717 73.4313 30.8773 73.0987 28.641C75.5827 26.6134 77.2127 23.7317 77.656 20.5501L77.7473 19.8981C77.982 19.7481 78.2689 19.4482 78.6274 18.9462C81.3527 15.1452 80.1596 11.7811 78.9208 12.6352L78.8491 12.7395C78.9469 12.1527 78.9991 11.5594 78.9991 10.9466C78.9991 4.90281 74.1028 0 68.0525 0C62.0022 0 57.1059 4.89629 57.1059 10.9466C57.1059 11.5594 57.1581 12.1527 57.2559 12.7395L57.1842 12.6352C55.9389 11.7811 54.7458 15.1452 57.4776 18.9462C57.8361 19.4417 58.123 19.7416 58.3577 19.8981L58.449 20.5501C58.8923 23.7252 60.5223 26.6134 63.0063 28.641C62.6738 30.8773 60.6201 34.6717 54.5502 35.8648C47.8349 37.1883 43.4537 40.7807 42.7626 48.4413C42.0781 56.102 41.3348 70.7973 40.911 74.3375C40.4872 77.8777 38.5835 91.5169 38.5835 95.7417C38.5835 99.9664 38.7921 111.389 38.5313 114.61C38.264 117.837 37.5273 120.953 37.7359 124.174C37.9446 127.395 39.744 132.897 42.2802 133.738C43.3885 134.006 42.2802 131.574 41.8564 130.883C41.4326 130.198 40.3764 128.399 40.4286 127.127C40.4807 125.856 40.4807 124.8 41.2761 124.539C42.0715 124.278 42.3845 125.543 42.3845 126.971C42.3845 128.399 42.4366 129.507 43.0169 129.507C43.5971 129.507 43.9166 128.079 43.8644 126.971C43.8123 125.863 43.9166 123.587 43.8123 121.684C43.708 119.78 42.5996 117.511 42.7039 115.555C42.7496 114.668 43.4733 108.651 44.712 102.287C46.1985 94.6529 48.2587 86.3403 48.5195 83.3152C48.5195 78.3993 50.684 64.4472 51.4794 64.4472C52.2748 64.4472 53.9635 71.3385 53.9635 80.7464C53.9635 91.5821 45.7682 95.5526 45.7682 107.705C45.7682 137.018 53.8005 151.518 54.2047 158.82C54.2047 161.297 54.3872 164.577 54.5111 166.154C54.635 169.734 52.5682 174.35 52.5682 178.724C52.5682 190.929 60.8874 209.928 60.8874 219.642C60.8874 222.009 61.2525 223.404 60.3984 225.105C59.5508 226.807 53.1746 231.416 53.9635 232.877C53.9635 233.666 63.9842 235.485 65.073 234.878C66.1683 234.272 65.9206 230.08 66.1683 228.743C66.4095 227.407 67.0159 224.434 67.0159 222.25C67.0159 220.066 66.4682 213.872 66.4682 211.87C66.4682 210.743 66.7225 198.238 66.5921 187.102C66.4878 178.444 66.0053 170.64 65.9271 169.499C65.7445 168.404 65.7445 163.546 65.9858 162.334C66.227 161.121 67.0159 153.773 67.0159 150.377C67.0159 146.98 67.6809 125.119 66.7094 117.954C66.7094 117.954 66.7681 117.165 68.046 117.165C69.3238 117.165 69.3825 117.954 69.3825 117.954C68.4111 125.119 69.0761 146.973 69.0761 150.377C69.0761 153.78 69.865 161.121 70.1062 162.334C70.3474 163.546 70.3474 168.404 70.1649 169.499C70.0866 170.64 69.5977 178.451 69.4999 187.102C69.3695 198.238 69.6238 210.743 69.6238 211.87C69.6238 213.872 69.0761 220.066 69.0761 222.25C69.0761 224.434 69.6824 227.413 69.9237 228.743C70.1649 230.08 69.9237 234.266 71.019 234.878C72.1143 235.485 82.1285 233.666 82.1285 232.877C82.9174 231.423 76.5411 226.807 75.6936 225.105C74.846 223.404 75.2111 222.009 75.2111 219.642C75.2111 209.928 83.5303 190.923 83.5303 178.724C83.5303 174.356 81.4635 169.74 81.5874 166.154C81.7113 164.577 81.8938 161.297 81.8938 158.82C82.298 151.518 90.3303 137.018 90.3303 107.705C90.3303 95.5461 82.135 91.5821 82.135 80.7464C82.135 71.3385 83.8236 64.4472 84.619 64.4472C85.4144 64.4472 87.579 78.3993 87.579 83.3152C87.8398 86.3403 89.9 94.6594 91.3865 102.287C92.6252 108.651 93.3489 114.662 93.3946 115.555C93.4989 117.511 92.3905 119.786 92.2862 121.684C92.1819 123.587 92.2862 125.856 92.234 126.971C92.1819 128.086 92.5014 129.507 93.0816 129.507C93.6619 129.507 93.714 128.399 93.714 126.971C93.714 125.543 94.0335 124.278 94.8224 124.539C95.6178 124.806 95.6178 125.863 95.6699 127.127C95.7221 128.392 94.6659 130.192 94.2421 130.883C93.8183 131.567 92.71 133.999 93.8183 133.738C96.3545 132.891 98.1539 127.395 98.3626 124.174C98.5712 120.947 97.8345 117.83 97.5672 114.61H97.5737Z" fill="#4DAEA6"/>
<path d="M167.049 117L165.138 115.703L164.97 118.006L167.049 117ZM98.5343 112.199L100.091 112.313L100.12 111.914L98.5634 111.801L98.5343 112.199ZM103.205 112.54L106.318 112.768L106.347 112.369L103.234 112.141L103.205 112.54ZM109.432 112.995L112.546 113.222L112.575 112.823L109.461 112.596L109.432 112.995ZM115.659 113.449L118.773 113.677L118.802 113.278L115.688 113.051L115.659 113.449ZM121.887 113.904L125 114.131L125.029 113.732L121.916 113.505L121.887 113.904ZM128.114 114.359L131.227 114.586L131.257 114.187L128.143 113.96L128.114 114.359ZM134.341 114.813L137.455 115.04L137.484 114.641L134.37 114.414L134.341 114.813ZM140.568 115.268L143.682 115.495L143.711 115.096L140.597 114.869L140.568 115.268ZM146.796 115.722L149.909 115.949L149.938 115.551L146.825 115.323L146.796 115.722ZM153.023 116.177L156.137 116.404L156.166 116.005L153.052 115.778L153.023 116.177ZM159.25 116.631L162.364 116.859L162.393 116.46L159.279 116.232L159.25 116.631Z" fill="#00625B"/>
<path d="M2.70176 138.7L4.99161 138.4L3.58703 136.567L2.70176 138.7ZM37.4272 111.841L36.1826 112.795L36.4259 113.112L37.6705 112.159L37.4272 111.841ZM33.6936 114.702L31.2045 116.609L31.4478 116.927L33.9369 115.019L33.6936 114.702ZM28.7154 118.516L26.2263 120.423L26.4696 120.741L28.9587 118.834L28.7154 118.516ZM23.7373 122.331L21.2482 124.238L21.4915 124.555L23.9805 122.648L23.7373 122.331ZM18.7591 126.145L16.27 128.052L16.5133 128.369L19.0024 126.462L18.7591 126.145ZM13.781 129.959L11.2919 131.866L11.5352 132.184L14.0242 130.277L13.781 129.959ZM8.80281 133.773L6.31373 135.681L6.55701 135.998L9.04609 134.091L8.80281 133.773Z" fill="#00625B"/>
<path d="M-8.31749e-05 97.6598L1.96068 98.8799L2.03697 96.5718L-8.31749e-05 97.6598ZM40.5554 98.8001L39.1073 98.7522L39.094 99.152L40.5422 99.1999L40.5554 98.8001ZM36.2109 98.6565L33.3146 98.5608L33.3013 98.9606L36.1977 99.0563L36.2109 98.6565ZM30.4182 98.4651L27.5219 98.3693L27.5086 98.7691L30.405 98.8648L30.4182 98.4651ZM24.6255 98.2736L21.7292 98.1779L21.7159 98.5777L24.6123 98.6734L24.6255 98.2736ZM18.8328 98.0822L15.9365 97.9864L15.9232 98.3862L18.8196 98.4819L18.8328 98.0822ZM13.0401 97.8907L10.1438 97.795L10.1305 98.1947L13.0269 98.2905L13.0401 97.8907ZM7.2474 97.6992L4.35105 97.6035L4.33784 98.0033L7.23419 98.099L7.2474 97.6992Z" fill="#00625B"/>
<path d="M96.5488 99L162.049 117" stroke="#00625B" stroke-width="0.4" stroke-dasharray="3 3"/>
<path d="M134.971 1L134.971 233" stroke="#00625B" stroke-linecap="round" stroke-dasharray="8 8"/>
<line x1="123.471" y1="0.5" x2="146.471" y2="0.5" stroke="#00625B" stroke-linecap="round"/>
<line x1="123.471" y1="233.5" x2="146.471" y2="233.5" stroke="#00625B" stroke-linecap="round"/>
<g filter="url(#filter0_d_2365_12289)">
<path d="M89.4828 106C95.971 106.945 100.049 108.313 100.049 109.835C100.049 112.688 85.7219 115 68.0488 115C50.3757 115 36.0488 112.688 36.0488 109.835C36.0488 108.373 39.812 107.053 45.8601 106.114" stroke="#00625B" stroke-width="0.591888" stroke-linecap="round"/>
</g>
<g filter="url(#filter1_d_2365_12289)">
<path d="M86.8035 96C92.4807 96.8402 96.0488 98.0563 96.0488 99.409C96.0488 101.945 83.5128 104 68.0488 104C52.5849 104 40.0488 101.945 40.0488 99.409C40.0488 98.1095 43.3416 96.9361 48.6337 96.1009" stroke="#00625B" stroke-width="0.571429" stroke-linecap="round"/>
</g>
<defs>
<filter id="filter0_d_2365_12289" x="34.5692" y="105.704" width="66.9593" height="11.9593" filterUnits="userSpaceOnUse" color-interpolation-filters="sRGB">
<feFlood flood-opacity="0" result="BackgroundImageFix"/>
<feColorMatrix in="SourceAlpha" type="matrix" values="0 0 0 0 0 0 0 0 0 0 0 0 0 0 0 0 0 0 127 0" result="hardAlpha"/>
<feOffset dy="1.18378"/>
<feGaussianBlur stdDeviation="0.591888"/>
<feComposite in2="hardAlpha" operator="out"/>
<feColorMatrix type="matrix" values="0 0 0 0 0 0 0 0 0 0.243137 0 0 0 0 0.223529 0 0 0 0.3 0"/>
<feBlend mode="normal" in2="BackgroundImageFix" result="effect1_dropShadow_2365_12289"/>
<feBlend mode="normal" in="SourceGraphic" in2="effect1_dropShadow_2365_12289" result="shape"/>
</filter>
<filter id="filter1_d_2365_12289" x="38.6198" y="95.7139" width="58.858" height="10.858" filterUnits="userSpaceOnUse" color-interpolation-filters="sRGB">
<feFlood flood-opacity="0" result="BackgroundImageFix"/>
<feColorMatrix in="SourceAlpha" type="matrix" values="0 0 0 0 0 0 0 0 0 0 0 0 0 0 0 0 0 0 127 0" result="hardAlpha"/>
<feOffset dy="1.14286"/>
<feGaussianBlur stdDeviation="0.571429"/>
<feComposite in2="hardAlpha" operator="out"/>
<feColorMatrix type="matrix" values="0 0 0 0 0 0 0 0 0 0.243137 0 0 0 0 0.223529 0 0 0 0.3 0"/>
<feBlend mode="normal" in2="BackgroundImageFix" result="effect1_dropShadow_2365_12289"/>
<feBlend mode="normal" in="SourceGraphic" in2="effect1_dropShadow_2365_12289" result="shape"/>
</filter>
</defs>
</svg>
