<svg width="44" height="49" viewBox="0 0 44 49" fill="none" xmlns="http://www.w3.org/2000/svg">
<path d="M41.5671 26.974C41.7723 26.6874 41.9469 26.38 42.0881 26.057C43.3761 23.024 41.4881 19.474 41.0071 18.645C41.1931 17.596 41.8281 12.845 38.4541 11.115C37.6436 10.6965 36.7739 10.4041 35.8751 10.248C36.7121 6.77904 35.2071 4.34804 33.3851 3.53904C32.9399 3.34317 32.462 3.23194 31.9761 3.21104C31.9466 3.15831 31.9076 3.11151 31.8611 3.07304C28.5151 0.387038 25.0991 -0.640962 22.9391 0.399038C22.3381 0.683017 21.8422 1.14954 21.5221 1.73204C21.202 1.14954 20.706 0.683017 20.1051 0.399038C17.9421 -0.637962 14.5271 0.390038 11.1831 3.07604C11.1365 3.11451 11.0975 3.1613 11.0681 3.21404C10.5822 3.23579 10.1046 3.34698 9.65909 3.54204C7.83709 4.35104 6.33209 6.78204 7.16909 10.251C6.2703 10.4071 5.40061 10.6995 4.59009 11.118C1.21609 12.846 1.85109 17.599 2.03709 18.648C1.55209 19.477 -0.331913 23.027 0.956087 26.06C1.0973 26.383 1.27192 26.6904 1.47709 26.977C0.802838 27.6576 0.333894 28.5142 0.123963 29.4489C-0.0859675 30.3836 -0.0283953 31.3585 0.290086 32.262C0.750526 33.9613 1.8651 35.4092 3.39009 36.289C3.19535 37.3389 3.24304 38.4193 3.52952 39.4479C3.816 40.4765 4.3337 41.426 5.04309 42.224C5.95015 43.3711 7.27124 44.1162 8.72209 44.299C9.159 45.4647 9.94703 46.4659 10.9774 47.1645C12.0077 47.8631 13.2295 48.2246 14.4741 48.199C14.8382 48.1982 15.202 48.1742 15.5631 48.127C19.0971 47.675 20.7831 45.848 21.5181 44.268C22.2531 45.848 23.9391 47.675 27.4731 48.127C27.8342 48.1741 28.1979 48.1982 28.5621 48.199C29.808 48.2264 31.0317 47.8658 32.0637 47.1671C33.0956 46.4683 33.8848 45.4661 34.3221 44.299C35.7729 44.1162 37.094 43.3711 38.0011 42.224C38.7105 41.426 39.2282 40.4765 39.5146 39.4479C39.8011 38.4193 39.8488 37.3389 39.6541 36.289C41.1791 35.4092 42.2936 33.9613 42.7541 32.262C43.0732 31.3581 43.1311 30.3826 42.9211 29.4473C42.7112 28.512 42.2419 27.6548 41.5671 26.974ZM15.4401 47.129C14.203 47.3881 12.9137 47.1754 11.8254 46.5326C10.7372 45.8898 9.92844 44.8635 9.55809 43.655C9.52596 43.5403 9.45439 43.4406 9.35598 43.3735C9.25756 43.3063 9.13862 43.2761 9.02009 43.288C8.39127 43.2501 7.77812 43.0765 7.22279 42.779C6.66746 42.4816 6.18313 42.0675 5.80309 41.565C5.14697 40.8278 4.682 39.9407 4.44905 38.9817C4.21609 38.0227 4.22229 37.0211 4.46709 36.065C4.4845 35.9965 4.48719 35.9251 4.47498 35.8555C4.46277 35.7859 4.43594 35.7196 4.39625 35.6611C4.35656 35.6026 4.30492 35.5532 4.24473 35.5161C4.18455 35.4791 4.11718 35.4552 4.04709 35.446C3.30109 35.346 1.83809 33.946 1.24709 31.976C0.992417 31.2582 0.939898 30.4842 1.09527 29.7386C1.25064 28.993 1.60792 28.3044 2.12809 27.748C3.41871 28.8978 5.01398 29.6503 6.72209 29.915C6.78746 29.9311 6.85541 29.9338 6.92186 29.923C6.98831 29.9121 7.05188 29.888 7.10877 29.852C7.16566 29.816 7.2147 29.7689 7.25294 29.7135C7.29118 29.6581 7.31784 29.5955 7.33131 29.5296C7.34479 29.4636 7.3448 29.3956 7.33136 29.3296C7.31791 29.2637 7.29129 29.2011 7.25307 29.1457C7.21486 29.0902 7.16584 29.0431 7.10897 29.0071C7.05209 28.9711 6.98853 28.9469 6.92209 28.936C4.26609 28.391 2.56909 27.292 1.87809 25.67C0.644087 22.77 2.96309 19.044 2.98809 19.007C3.05789 18.8964 3.08158 18.7629 3.05409 18.635C3.04409 18.584 2.00909 13.561 5.04609 12.005C7.32009 10.842 9.58709 10.841 11.2701 12.005C12.0478 12.5679 12.6586 13.3309 13.0375 14.213C13.4164 15.0952 13.5493 16.0634 13.4221 17.015C13.4075 17.1476 13.4462 17.2806 13.5296 17.3847C13.6131 17.4888 13.7345 17.5555 13.8671 17.57C13.9997 17.5846 14.1327 17.5459 14.2367 17.4625C14.3408 17.379 14.4075 17.2576 14.4221 17.125C14.5698 15.9935 14.4081 14.843 13.9542 13.796C13.5002 12.7491 12.771 11.8447 11.8441 11.179C10.7685 10.4498 9.48629 10.0872 8.18809 10.145C7.41709 7.16204 8.60209 5.10604 10.0711 4.45304C11.7501 3.70704 13.7181 4.63304 15.0871 6.81704C15.1211 6.87444 15.1662 6.92445 15.2199 6.96413C15.2735 7.00381 15.3346 7.03235 15.3994 7.04808C15.4642 7.06381 15.5316 7.0664 15.5974 7.05571C15.6633 7.04501 15.7263 7.02124 15.7828 6.9858C15.8394 6.95037 15.8882 6.90397 15.9265 6.84936C15.9649 6.79475 15.9919 6.73302 16.006 6.6678C16.0201 6.60259 16.021 6.53522 16.0086 6.46966C15.9963 6.40409 15.9709 6.34166 15.9341 6.28604C15.1784 4.91538 13.9358 3.8783 12.4521 3.38004C15.2341 1.33004 18.0221 0.499038 19.6721 1.29904C20.1231 1.55231 20.4908 1.93118 20.7305 2.38957C20.9702 2.84797 21.0715 3.36613 21.0221 3.88104V14.671C20.7332 14.2568 20.3729 13.8972 19.9581 13.609C19.5338 13.3079 19.0403 13.1187 18.5234 13.0589C18.0066 12.9991 17.483 13.0707 17.0011 13.267C16.9402 13.2917 16.8847 13.328 16.8378 13.3741C16.7909 13.4202 16.7536 13.475 16.7279 13.5355C16.7022 13.596 16.6887 13.661 16.6882 13.7267C16.6876 13.7924 16.7 13.8576 16.7246 13.9185C16.7492 13.9795 16.7856 14.035 16.8317 14.0818C16.8777 14.1287 16.9326 14.166 16.9931 14.1917C17.0536 14.2174 17.1185 14.2309 17.1842 14.2315C17.25 14.232 17.3152 14.2197 17.3761 14.195C17.7062 14.0605 18.0651 14.0122 18.419 14.0547C18.773 14.0973 19.1102 14.2292 19.3991 14.438C19.9237 14.8471 20.3442 15.3745 20.6262 15.977C20.9083 16.5795 21.0439 17.2401 21.0221 17.905V36.213C20.6577 35.7086 20.2195 35.262 19.7221 34.888C19.2304 34.4692 18.6499 34.1676 18.0245 34.0059C17.3991 33.8443 16.7452 33.8269 16.1121 33.955C16.0477 33.9721 15.9873 34.0019 15.9345 34.0427C15.8818 34.0834 15.8377 34.1343 15.8049 34.1923C15.7721 34.2504 15.7513 34.3144 15.7436 34.3806C15.7359 34.4468 15.7415 34.5139 15.7601 34.5779C15.7787 34.6419 15.8099 34.7015 15.8519 34.7533C15.8939 34.8051 15.9458 34.8479 16.0046 34.8793C16.0634 34.9107 16.1279 34.9301 16.1942 34.9362C16.2606 34.9423 16.3275 34.9352 16.3911 34.915C16.8751 34.8352 17.3707 34.8629 17.8427 34.9963C18.3147 35.1298 18.7516 35.3656 19.1221 35.687C19.6766 36.0772 20.1356 36.5878 20.4646 37.1807C20.7937 37.7735 20.9843 38.4331 21.0221 39.11V42.283C21.0221 42.324 20.8701 46.435 15.4401 47.129ZM41.7971 31.972C41.2061 33.944 39.7431 35.344 38.9971 35.442C38.927 35.4512 38.8596 35.4751 38.7994 35.5121C38.7393 35.5492 38.6876 35.5986 38.6479 35.6571C38.6082 35.7156 38.5814 35.7819 38.5692 35.8515C38.557 35.9211 38.5597 35.9925 38.5771 36.061C38.8219 37.0171 38.8281 38.0187 38.5951 38.9777C38.3622 39.9367 37.8972 40.8238 37.2411 41.561C36.863 42.0663 36.3789 42.4826 35.8228 42.781C35.2667 43.0793 34.6521 43.2524 34.0221 43.288C33.9034 43.2749 33.7838 43.3046 33.6851 43.3719C33.5865 43.4393 33.5151 43.5397 33.4841 43.655C33.1145 44.864 32.306 45.8909 31.2174 46.5338C30.1289 47.1767 28.8393 47.389 27.6021 47.129C22.1721 46.435 22.0201 42.329 22.0201 42.283V13.313C21.9969 12.9994 22.043 12.6845 22.1552 12.3907C22.2674 12.0969 22.4428 11.8314 22.6691 11.613C23.3896 11.1064 24.2689 10.877 25.1451 10.967C25.2769 10.9819 25.4092 10.9438 25.5129 10.8611C25.6166 10.7784 25.6832 10.6579 25.6981 10.526C25.7129 10.3942 25.6748 10.2619 25.5921 10.1582C25.5094 10.0545 25.3889 9.98789 25.2571 9.97304C24.1059 9.85153 22.9509 10.1659 22.0201 10.854V3.88004C21.9711 3.36509 22.0728 2.84699 22.3128 2.38877C22.5528 1.93055 22.9209 1.55196 23.3721 1.29904C25.0271 0.499038 27.8091 1.33104 30.5981 3.38104C29.1169 3.88053 27.8766 4.91703 27.1221 6.28604C27.0852 6.34166 27.0599 6.40409 27.0476 6.46966C27.0352 6.53522 27.0361 6.60259 27.0502 6.6678C27.0643 6.73302 27.0913 6.79475 27.1296 6.84936C27.1679 6.90397 27.2168 6.95037 27.2733 6.9858C27.3299 7.02124 27.3929 7.04501 27.4588 7.05571C27.5246 7.0664 27.592 7.06381 27.6568 7.04808C27.7216 7.03235 27.7827 7.00381 27.8363 6.96413C27.8899 6.92445 27.9351 6.87444 27.9691 6.81704C29.3381 4.63404 31.3041 3.70704 32.9851 4.45304C34.4541 5.10604 35.6391 7.16204 34.8681 10.145C33.5699 10.0872 32.2877 10.4498 31.2121 11.179C30.2852 11.8447 29.556 12.7491 29.102 13.796C28.6481 14.843 28.4864 15.9935 28.6341 17.125C28.6487 17.257 28.7151 17.3777 28.8187 17.4607C28.9223 17.5437 29.0546 17.5821 29.1866 17.5675C29.3185 17.5529 29.4393 17.4865 29.5223 17.3829C29.6052 17.2793 29.6437 17.147 29.6291 17.015C29.5001 16.0631 29.6315 15.0939 30.0094 14.2107C30.3873 13.3274 30.9975 12.5631 31.7751 11.999C33.4571 10.837 35.7261 10.838 37.9991 11.999C41.0361 13.555 39.9991 18.578 39.9911 18.629C39.9636 18.7569 39.9873 18.8904 40.0571 19.001C40.0821 19.038 42.4011 22.763 41.1671 25.664C40.4761 27.286 38.7791 28.385 36.1231 28.93C36.0566 28.9409 35.9931 28.9651 35.9362 29.0011C35.8793 29.0371 35.8303 29.0842 35.7921 29.1397C35.7539 29.1951 35.7273 29.2577 35.7138 29.3236C35.7004 29.3896 35.7004 29.4576 35.7139 29.5236C35.7273 29.5895 35.754 29.6521 35.7922 29.7075C35.8305 29.7629 35.8795 29.81 35.9364 29.846C35.9933 29.882 36.0569 29.9061 36.1233 29.917C36.1898 29.9278 36.2577 29.9251 36.3231 29.909C38.0309 29.6428 39.6255 28.8889 40.9151 27.738C41.4365 28.2949 41.7947 28.9844 41.9502 29.7313C42.1058 30.4781 42.0528 31.2533 41.7971 31.972ZM35.3031 26.43C35.3005 26.5609 35.2466 26.6855 35.1532 26.7771C35.0597 26.8688 34.934 26.9201 34.8031 26.92H34.7931C34.1367 26.9513 33.481 26.8439 32.8689 26.6049C32.2567 26.3659 31.7017 26.0007 31.2401 25.533C30.6218 24.8147 30.2623 23.9098 30.2191 22.963C28.6217 22.7124 27.1253 22.0227 25.8971 20.971C25.8453 20.9307 25.8019 20.8805 25.7695 20.8233C25.7371 20.7662 25.7163 20.7032 25.7082 20.6381C25.7001 20.5729 25.705 20.5067 25.7224 20.4434C25.7399 20.3801 25.7697 20.3208 25.8101 20.269C25.8505 20.2172 25.9007 20.1739 25.9578 20.1415C26.0149 20.1091 26.0779 20.0882 26.1431 20.0801C26.2083 20.0721 26.2744 20.0769 26.3377 20.0944C26.401 20.1119 26.4603 20.1417 26.5121 20.182C28.6931 21.882 30.6491 22.402 32.3281 21.722C34.4281 20.87 35.6711 18.235 35.9781 16C35.9847 15.9331 36.0048 15.8682 36.0371 15.8093C36.0694 15.7503 36.1133 15.6985 36.1661 15.6568C36.2189 15.6152 36.2795 15.5846 36.3444 15.567C36.4093 15.5494 36.4771 15.545 36.5437 15.5541C36.6103 15.5633 36.6744 15.5858 36.7321 15.6203C36.7898 15.6547 36.84 15.7005 36.8796 15.7548C36.9192 15.8092 36.9475 15.8709 36.9627 15.9364C36.9779 16.0019 36.9797 16.0698 36.9681 16.136C36.6481 18.471 35.3391 21.578 32.7051 22.648C32.2314 22.8373 31.731 22.951 31.2221 22.985C31.2682 23.68 31.5375 24.3415 31.9901 24.871C32.3623 25.2319 32.8054 25.5115 33.2914 25.6921C33.7774 25.8726 34.2955 25.9503 34.8131 25.92C34.8788 25.9213 34.9435 25.9356 35.0037 25.9619C35.0639 25.9882 35.1182 26.0262 35.1637 26.0735C35.2092 26.1209 35.245 26.1767 35.2689 26.2379C35.2928 26.2991 35.3044 26.3644 35.3031 26.43ZM34.4681 35.693C34.4665 35.8246 34.4131 35.9502 34.3195 36.0427C34.2259 36.1352 34.0997 36.187 33.9681 36.187H33.9601C32.2976 36.2071 30.6945 36.8086 29.4291 37.887C28.9566 38.3817 28.5899 38.9675 28.3515 39.6087C28.113 40.2498 28.0077 40.9328 28.0421 41.616C28.0421 41.7486 27.9894 41.8758 27.8956 41.9696C27.8019 42.0634 27.6747 42.116 27.5421 42.116C27.4095 42.116 27.2823 42.0634 27.1885 41.9696C27.0948 41.8758 27.0421 41.7486 27.0421 41.616C27.0053 40.799 27.1363 39.9831 27.4269 39.2186C27.7176 38.4541 28.1618 37.7573 28.7321 37.171C29.4134 36.517 30.229 36.0192 31.1221 35.712C31.2941 34.087 30.881 32.4539 29.9571 31.106C29.4247 30.4861 28.7671 29.9858 28.0275 29.6382C27.2879 29.2905 26.4832 29.1034 25.6661 29.089C25.534 29.0781 25.4117 29.0152 25.3261 28.9141C25.2404 28.813 25.1983 28.6821 25.2091 28.55C25.2242 28.4197 25.2882 28.2999 25.3883 28.2151C25.4884 28.1302 25.617 28.0866 25.7481 28.093C26.7041 28.1152 27.6445 28.3407 28.5066 28.7545C29.3687 29.1683 30.1328 29.761 30.7481 30.493C31.7669 31.9218 32.2595 33.6592 32.1421 35.41C32.7441 35.272 33.3586 35.1959 33.9761 35.183C34.0419 35.1841 34.1069 35.1981 34.1673 35.2243C34.2277 35.2505 34.2823 35.2884 34.328 35.3358C34.3737 35.3832 34.4097 35.4392 34.4337 35.5005C34.4577 35.5618 34.4694 35.6272 34.4681 35.693ZM7.16809 17.228C7.15626 17.1617 7.15796 17.0937 7.17309 17.028C7.18822 16.9623 7.21647 16.9004 7.25613 16.8459C7.2958 16.7915 7.34606 16.7456 7.40391 16.711C7.46176 16.6765 7.526 16.6539 7.59277 16.6448C7.65953 16.6357 7.72745 16.6402 7.79244 16.658C7.85742 16.6758 7.91815 16.7066 7.97095 16.7485C8.02375 16.7903 8.06755 16.8424 8.09971 16.9016C8.13187 16.9608 8.15172 17.026 8.15809 17.093C8.46509 19.327 9.71309 21.963 11.8091 22.814C13.4871 23.495 15.4421 22.978 17.6241 21.275C17.6756 21.2324 17.7351 21.2005 17.7992 21.1813C17.8632 21.1621 17.9305 21.1559 17.997 21.1631C18.0635 21.1703 18.1278 21.1908 18.1862 21.2234C18.2447 21.2559 18.296 21.2998 18.3371 21.3525C18.3783 21.4053 18.4084 21.4657 18.4258 21.5303C18.4432 21.5949 18.4474 21.6623 18.4383 21.7285C18.4291 21.7948 18.4068 21.8585 18.3726 21.916C18.3384 21.9734 18.293 22.0234 18.2391 22.063C17.0123 23.114 15.5178 23.8036 13.9221 24.055C13.8784 25.0017 13.5189 25.9065 12.9011 26.625C12.439 27.0927 11.8836 27.4579 11.2712 27.6971C10.6587 27.9362 10.0028 28.0438 9.34609 28.013H9.33709C9.20448 28.0144 9.07677 27.963 8.98207 27.8701C8.88736 27.7773 8.83341 27.6506 8.83209 27.518C8.83076 27.3854 8.88217 27.2577 8.975 27.163C9.06783 27.0683 9.19448 27.0144 9.32709 27.013C9.84639 27.0435 10.3663 26.9653 10.8537 26.7832C11.341 26.6012 11.7849 26.3195 12.1571 25.956C12.6077 25.4289 12.8757 24.7701 12.9211 24.078C12.4119 24.0435 11.9112 23.9298 11.4371 23.741C8.79709 22.671 7.48809 19.564 7.16809 17.228ZM10.8341 36.805C11.7264 37.1116 12.5413 37.6088 13.2221 38.262C13.7925 38.8482 14.2368 39.5451 14.5276 40.3095C14.8185 41.074 14.9496 41.8899 14.9131 42.707C14.9131 42.8396 14.8604 42.9668 14.7666 43.0606C14.6729 43.1544 14.5457 43.207 14.4131 43.207C14.2805 43.207 14.1533 43.1544 14.0595 43.0606C13.9658 42.9668 13.9131 42.8396 13.9131 42.707C13.947 42.0236 13.8411 41.3403 13.6019 40.6992C13.3628 40.058 12.9953 39.4724 12.5221 38.978C11.2566 37.8997 9.6536 37.2982 7.99109 37.278H7.98209C7.84948 37.2791 7.72188 37.2274 7.62736 37.1344C7.53284 37.0414 7.47915 36.9146 7.47809 36.782C7.47703 36.6494 7.52869 36.5218 7.62171 36.4273C7.71472 36.3328 7.84148 36.2791 7.97409 36.278C8.59215 36.2919 9.20726 36.3679 9.81009 36.505C9.69187 34.7541 10.1845 33.0164 11.2041 31.588C11.8191 30.8557 12.5832 30.2629 13.4454 29.849C14.3075 29.4352 15.248 29.2099 16.2041 29.188C16.2697 29.1825 16.3359 29.19 16.3986 29.21C16.4614 29.2301 16.5196 29.2623 16.5699 29.3048C16.6203 29.3473 16.6617 29.3993 16.692 29.4579C16.7222 29.5164 16.7406 29.5804 16.7461 29.646C16.7516 29.7117 16.7441 29.7778 16.7241 29.8406C16.7041 29.9033 16.6719 29.9616 16.6293 30.0119C16.5868 30.0622 16.5348 30.1037 16.4762 30.1339C16.4177 30.1641 16.3537 30.1825 16.2881 30.188C15.4717 30.2013 14.6674 30.3874 13.9281 30.734C13.1888 31.0806 12.5314 31.5799 11.9991 32.199C11.0748 33.5467 10.6617 35.18 10.8341 36.805Z" fill="#00625B"/>
</svg>
