<svg width="24" height="24" viewBox="0 0 24 24" fill="none" xmlns="http://www.w3.org/2000/svg">
<g id="Calorie">
<path id="Vector" d="M21 12C21 13.2555 20.7458 14.4677 20.2477 15.6046C20.1935 15.7257 20.074 15.7994 19.9503 15.7994C19.9071 15.7994 19.8614 15.7909 19.8199 15.7714C19.6547 15.7003 19.581 15.5071 19.653 15.3419C20.1155 14.2898 20.3493 13.1648 20.3493 12C20.3493 7.39592 16.604 3.65062 12 3.65062C9.58644 3.65062 7.33297 4.67226 5.74811 6.4699H7.66263C7.84222 6.4699 7.98793 6.61561 7.98793 6.7952C7.98793 6.97479 7.84222 7.1205 7.66263 7.1205H5.06023C4.88063 7.1205 4.73492 6.97479 4.73492 6.7952V4.19279C4.73492 4.0132 4.88063 3.86749 5.06023 3.86749C5.23982 3.86749 5.38553 4.0132 5.38553 4.19279V5.90147C7.08828 4.05217 9.46024 3 12 3C16.9617 3 21 7.0383 21 12ZM18.9397 16.8795H16.3373C16.1577 16.8795 16.012 17.0252 16.012 17.2048C16.012 17.3844 16.1577 17.5301 16.3373 17.5301H18.2518C16.6668 19.3278 14.4135 20.3494 12 20.3494C7.39591 20.3494 3.65061 16.6041 3.65061 12C3.65061 10.8335 3.88441 9.7101 4.34866 8.65548C4.41982 8.49029 4.34612 8.29969 4.18177 8.22597C4.01658 8.15481 3.82598 8.22851 3.75227 8.39286C3.25415 9.52972 3 10.742 3 12C3 16.9617 7.03828 21 12 21C14.5397 21 16.9116 19.9478 18.6144 18.0985V19.8072C18.6144 19.9868 18.7601 20.1325 18.9397 20.1325C19.1193 20.1325 19.265 19.9868 19.265 19.8072V17.2048C19.265 17.0252 19.1193 16.8795 18.9397 16.8795ZM10.7792 5.99712C10.7513 5.86666 10.8055 5.7328 10.9156 5.65911C11.0266 5.58541 11.1715 5.58795 11.2824 5.66335C13.1868 6.98827 13.0174 9.00267 12.7488 10.0855C12.6819 10.3523 12.6234 10.8225 12.9631 10.9834C13.2063 11.0961 13.5595 11.0182 13.7069 10.8183C13.9018 10.5539 14.0712 10.2151 14.1729 9.88809C14.2101 9.77118 14.3075 9.68393 14.4287 9.66445C14.5498 9.64497 14.6718 9.69241 14.743 9.78814C16.5643 12.2043 16.4542 14.5677 15.7426 15.9732C15.1089 17.2244 13.9424 17.9665 12.6149 17.9665H12.5734C12.4523 17.964 12.3439 17.897 12.2871 17.7911C12.2329 17.6853 12.2397 17.5548 12.3091 17.4574C12.8903 16.6204 12.6954 14.966 11.6323 14.0137C10.6259 14.9617 10.3311 16.3323 10.9054 17.4988C10.9596 17.6098 10.9469 17.7394 10.8732 17.8368C10.7995 17.9342 10.6758 17.9825 10.5564 17.9605C8.50464 17.5937 7.61589 16.4687 7.23226 15.5877C6.69263 14.3518 6.82901 12.7921 7.58382 11.6171C7.98537 10.9928 8.52923 10.487 9.05444 9.99909C10.2108 8.92239 11.2104 7.99633 10.7792 5.99712ZM9.4975 10.4735C8.97737 10.9547 8.48686 11.4104 8.13106 11.9653C7.49148 12.9632 7.37456 14.2814 7.82949 15.3241C8.11328 15.9747 8.73593 16.7854 10.0955 17.1827C9.72024 15.8231 10.2167 14.3092 11.4188 13.3307C11.4798 13.2833 11.5509 13.257 11.6246 13.257C11.6915 13.257 11.761 13.2791 11.8178 13.3197C13.141 14.2956 13.5332 16.0585 13.1215 17.2648C13.9864 17.1047 14.726 16.5362 15.1623 15.6755C15.7392 14.5344 15.8502 12.6563 14.5591 10.657C14.4634 10.8502 14.3507 11.034 14.2296 11.1992C13.9001 11.6456 13.208 11.8125 12.6853 11.5677C12.4794 11.472 11.8305 11.067 12.1168 9.92424C12.3506 8.98308 12.4006 7.73605 11.5289 6.74063C11.5967 8.52556 10.5318 9.51415 9.49749 10.4731L9.4975 10.4735Z" fill="#00625B"/>
</g>
</svg>
