<svg width="15" height="15" viewBox="0 0 15 15" fill="none" xmlns="http://www.w3.org/2000/svg">
<path d="M13.8489 1.15036C13.1096 0.4138 12.1086 0.000671387 11.0647 0.000671387C10.0208 0.000671387 9.01974 0.413817 8.2806 1.15036L1.15348 8.27747C0.158468 9.27248 -0.229891 10.7222 0.134367 12.0808C0.498625 13.4395 1.55993 14.5007 2.9185 14.865C4.27707 15.2292 5.7268 14.8409 6.72187 13.8458L13.849 6.71874C14.5862 5.97951 15 4.97853 15 3.93461C15 2.89072 14.5861 1.8895 13.8489 1.15036ZM6.34943 13.4708C3.02826 16.5296 -1.517 11.9843 1.52837 8.64978L4.9032 5.27495L9.72426 10.096L6.34943 13.4708ZM13.4685 6.33842L10.0937 9.71325L5.28597 4.89218L8.6608 1.51736C9.52189 0.656267 10.7774 0.320121 11.9539 0.63484C13.1303 0.950211 14.0491 1.86889 14.3643 3.04529C14.679 4.22176 14.3429 5.47733 13.4818 6.33835L13.4685 6.33842Z" fill="#00625B"/>
<path d="M5.33187 12.2628C3.55344 13.926 1.07323 11.4459 2.73647 9.66736C2.84093 9.56223 2.84026 9.39282 2.73513 9.28837C2.63001 9.18392 2.46059 9.18459 2.35615 9.28971C1.43011 10.2158 1.43011 11.717 2.35615 12.6429C3.28219 13.5689 4.78339 13.569 5.70938 12.6429C5.76027 12.5927 5.78839 12.5244 5.78839 12.4528C5.78839 12.3811 5.76027 12.3128 5.70938 12.2626C5.60492 12.1588 5.43618 12.1588 5.33173 12.2626L5.33187 12.2628Z" fill="#00625B"/>
<path d="M11.0315 1.6056C10.4021 1.60359 9.79882 1.85335 9.35489 2.2993C9.304 2.34952 9.27588 2.41782 9.27588 2.48947C9.27588 2.56112 9.304 2.62942 9.35489 2.67964C9.45935 2.78343 9.62809 2.78343 9.73254 2.67964C10.4497 1.96988 11.6041 1.96854 12.3225 2.67696C12.3727 2.72718 12.4416 2.7553 12.5126 2.75463C12.6218 2.7553 12.7195 2.68968 12.7617 2.58925C12.8032 2.48881 12.7798 2.37297 12.7028 2.29664C12.2595 1.85338 11.6583 1.60492 11.0315 1.6056Z" fill="#00625B"/>
</svg>
