<svg width="24" height="24" viewBox="0 0 24 24" fill="none" xmlns="http://www.w3.org/2000/svg">
<mask id="path-1-outside-1_501_1353" maskUnits="userSpaceOnUse" x="4" y="2" width="15" height="20" fill="black">
<rect fill="white" x="4" y="2" width="15" height="20"/>
<path fill-rule="evenodd" clip-rule="evenodd" d="M5.49147 8.15042V10.9979H5.18366C5.08228 10.9979 5 11.0802 5 11.1816C5 14.4808 7.67919 17.16 10.9792 17.16H11.1724V17.96C11.1724 18.0614 11.2547 18.1437 11.356 18.1437H11.7432V20.3476C11.7432 20.7076 12.0356 21 12.3956 21H13.3315C13.6915 21 13.9839 20.7076 13.9839 20.3476V17.9601C13.9839 17.8029 14.1117 17.6751 14.2689 17.6751H15.2048C15.362 17.6751 15.4898 17.8029 15.4898 17.9601V20.0582C15.4898 20.1603 15.5721 20.2419 15.6735 20.2419C15.7749 20.2419 15.8572 20.1603 15.8572 20.0582V17.9601C15.8572 17.6002 15.5648 17.3078 15.2048 17.3078H14.2689C13.9089 17.3078 13.6165 17.6002 13.6165 17.9601V20.3476C13.6165 20.5048 13.4887 20.6327 13.3315 20.6327H12.3955C12.2383 20.6327 12.1105 20.5048 12.1105 20.3476V18.1437H12.4977C12.599 18.1437 12.6813 18.0614 12.6813 17.96V17.16H12.8745C16.1745 17.16 18.8537 14.4808 18.8537 11.1816C18.8537 11.0802 18.7714 10.9979 18.67 10.9979H18.3622V8.15042C18.6039 8.11001 18.7883 7.89918 18.7883 7.64572V6.09858C18.7883 5.81648 18.5584 5.58653 18.2755 5.58653H17.6188C17.3359 5.58653 17.1067 5.81648 17.1067 6.09858V7.64572C17.1067 7.92856 17.3359 8.15777 17.6188 8.15777H17.9949V10.9979H17.5284C17.427 10.9979 17.3448 11.0802 17.3448 11.1816C17.3448 13.6485 15.3415 15.6512 12.8744 15.6512H10.9791C8.51223 15.6512 6.50876 13.6487 6.50876 11.1816C6.50876 11.0802 6.42648 10.9979 6.32511 10.9979H5.85861V8.15777H6.23474C6.51757 8.15777 6.74679 7.92856 6.74679 7.64572V6.09858C6.74679 5.81648 6.51757 5.58653 6.23474 5.58653H5.57798C5.29514 5.58653 5.06519 5.81648 5.06519 6.09858V7.64572C5.06519 7.89918 5.24959 8.11002 5.49128 8.15042H5.49147ZM17.7084 11.3652H18.4835C18.3865 14.3773 15.9107 16.7926 12.8746 16.7926H12.4977C12.3963 16.7926 12.3141 16.8749 12.3141 16.9763V17.7763H11.5398V16.9763C11.5398 16.8749 11.4575 16.7926 11.3561 16.7926H10.9792C7.9429 16.7926 5.4672 14.3771 5.37035 11.3652H6.14539C6.24236 13.9496 8.37058 16.0184 10.9792 16.0184H12.8746C15.4832 16.0184 17.6116 13.9496 17.7084 11.3652ZM9.63475 3.82132C9.09919 3.82794 8.69148 4.04759 8.45787 4.3767C8.33298 4.55228 8.25658 4.76019 8.23674 4.98718C7.77244 5.23255 7.52047 5.63293 7.49623 6.05828C7.48962 6.18831 7.50358 6.32274 7.54104 6.45572C7.20606 6.80394 7.03855 7.19183 7.04444 7.56647C7.04737 7.76556 7.09807 7.96245 7.20165 8.15051C6.60072 9.01885 6.58457 10.106 7.33609 10.8489C7.32213 10.9282 7.31551 11.009 7.31551 11.0906C7.31625 11.7055 7.72029 12.3578 8.41378 12.6451C9.14034 13.9351 11.1951 14.2245 11.9269 12.8868C12.6585 14.2245 14.7132 13.9351 15.4399 12.6451C16.1334 12.3578 16.5375 11.7055 16.5382 11.0906C16.5382 11.009 16.5316 10.9282 16.5176 10.8489C17.2692 10.1062 17.253 9.01817 16.6521 8.15051C16.7556 7.96245 16.8063 7.76556 16.8093 7.56647C16.8152 7.19181 16.6477 6.80392 16.3127 6.45572C16.3501 6.32275 16.3641 6.18831 16.3568 6.05828C16.3332 5.63293 16.0813 5.23255 15.617 4.98718C15.5971 4.76019 15.5207 4.55228 15.3958 4.3767C15.1622 4.04759 14.7545 3.82793 14.219 3.82132C13.7606 3.03013 12.7181 2.71497 11.9268 3.30634C11.1356 2.71497 10.0933 3.03011 9.63475 3.82132ZM14.3804 4.19966C14.4238 4.34658 14.4487 4.5038 14.4517 4.66982C14.4539 4.7712 14.3738 4.85568 14.2724 4.85715C14.171 4.85936 14.0866 4.77928 14.0851 4.6779C14.0623 3.61121 12.9104 2.98824 12.1104 3.62885V4.71097C12.1104 4.81234 12.0281 4.89462 11.9267 4.89462C11.8254 4.89462 11.7431 4.81234 11.7431 4.71097V3.62885C10.9431 2.98826 9.79114 3.61122 9.76839 4.6779C9.76692 4.77928 9.68243 4.85936 9.58105 4.85715C9.47968 4.85568 9.3996 4.7712 9.40181 4.66982C9.40474 4.5038 9.42972 4.34657 9.47306 4.19966C9.15424 4.23859 8.90667 4.37964 8.75753 4.58974C8.57093 4.852 8.54449 5.21418 8.70684 5.59325C8.74725 5.68581 8.7039 5.79453 8.6106 5.8342C8.51804 5.8746 8.40932 5.83126 8.36965 5.73796C8.32043 5.62409 8.28517 5.5117 8.2624 5.40222C8.01776 5.5778 7.87744 5.81875 7.86349 6.07883C7.85688 6.19563 7.87524 6.31538 7.92006 6.43292C7.92153 6.43806 7.92373 6.44247 7.9252 6.44761C8.01115 6.66581 8.18526 6.87738 8.44825 7.05663C8.53273 7.11319 8.55404 7.2278 8.49747 7.31155C8.44017 7.3953 8.3263 7.41734 8.24255 7.36004C8.00526 7.19915 7.82822 7.0155 7.70626 6.82228C7.51157 7.05883 7.408 7.31155 7.41167 7.56132C7.41608 7.86986 7.58798 8.16445 7.92885 8.40909C8.01113 8.46786 8.03023 8.5832 7.97146 8.66548C7.91195 8.74776 7.79735 8.76686 7.71507 8.70735C7.60781 8.63095 7.51452 8.54941 7.43444 8.46565C7.03846 9.11139 7.00835 9.87981 7.47264 10.4535C7.5483 10.3132 7.65189 10.1839 7.78633 10.0708C7.86347 10.0054 7.97953 10.0149 8.04492 10.0928C8.11031 10.1699 8.10076 10.286 8.02288 10.3514C7.70919 10.6158 7.62544 11.0052 7.71948 11.3718C7.86787 11.9507 8.4519 12.4693 9.29966 12.4245C9.40104 12.4187 9.48773 12.4965 9.49286 12.5979C9.49801 12.6993 9.42087 12.786 9.31949 12.7911C9.19681 12.7977 9.07854 12.7948 8.9654 12.7823C9.75881 13.6462 11.3749 13.6918 11.7431 12.3628V11.8199C11.7431 11.7185 11.8254 11.6363 11.9268 11.6363C12.0282 11.6363 12.1105 11.7185 12.1105 11.8199V12.3628C12.4785 13.6918 14.0947 13.6462 14.8882 12.7823C14.7751 12.7948 14.6568 12.7977 14.5341 12.7911C14.4327 12.786 14.3556 12.6993 14.3607 12.5979C14.3659 12.4965 14.4525 12.4187 14.5539 12.4245C15.4017 12.4693 15.9857 11.9507 16.1341 11.3718C16.2281 11.0052 16.1444 10.6159 15.8307 10.3514C15.7528 10.286 15.7433 10.1699 15.8087 10.0928C15.874 10.0149 15.9901 10.0054 16.0673 10.0708C16.2017 10.1839 16.3053 10.3132 16.3809 10.4535C16.8452 9.87976 16.8151 9.11134 16.4191 8.46565C16.3391 8.5494 16.2458 8.63094 16.1385 8.70735C16.0562 8.76686 15.9416 8.74776 15.8821 8.66548C15.8234 8.5832 15.8425 8.46786 15.9247 8.40909C16.2656 8.16445 16.4375 7.86986 16.4419 7.56132C16.4456 7.31155 16.342 7.05883 16.1473 6.82228C16.0254 7.01548 15.8483 7.19914 15.611 7.36004C15.5273 7.41734 15.4134 7.3953 15.3561 7.31155C15.2995 7.2278 15.3209 7.1132 15.4053 7.05663C15.6683 6.87738 15.8424 6.66581 15.9284 6.44761C15.9299 6.44247 15.9321 6.43806 15.9335 6.43292C15.9783 6.31538 15.9967 6.19564 15.9901 6.07883C15.9761 5.81877 15.8358 5.5778 15.5912 5.40222C15.5684 5.51168 15.5332 5.62408 15.4839 5.73796C15.4443 5.83126 15.3355 5.8746 15.243 5.8342C15.1497 5.79453 15.1063 5.6858 15.1467 5.59325C15.3091 5.21418 15.2827 4.852 15.0961 4.58974C14.9469 4.37964 14.6992 4.23859 14.3804 4.19966ZM11.0033 11.8355C10.6889 11.7782 10.4795 11.477 10.5368 11.1619C10.5941 10.8474 10.8961 10.6388 11.2105 10.6961C11.3096 10.7137 11.4059 10.6476 11.4235 10.5477C11.4419 10.4478 11.3758 10.3523 11.2758 10.3347C10.7616 10.2406 10.2687 10.5822 10.1754 11.0965C10.0821 11.6107 10.4237 12.1037 10.9379 12.197C11.0371 12.2153 11.1333 12.1485 11.1509 12.0493C11.1693 11.9494 11.1032 11.8539 11.0033 11.8355ZM13.914 11.2361C14.1851 10.9451 14.2527 10.5022 14.0506 10.1348C13.7987 9.67716 13.2227 9.50967 12.765 9.76164C12.6762 9.81012 12.6438 9.92179 12.6931 10.0107C12.7415 10.0996 12.8532 10.1319 12.9421 10.0834C13.2227 9.92913 13.5746 10.032 13.7289 10.3119C13.8523 10.5367 13.8112 10.8077 13.6451 10.9863C13.5761 11.0604 13.5805 11.1765 13.6547 11.2456C13.7281 11.3146 13.8449 11.3103 13.914 11.2361ZM9.51063 9.95266C9.35929 9.83438 9.26892 9.64411 9.28876 9.43914C9.31889 9.12105 9.60173 8.88743 9.91982 8.91756C10.0212 8.92711 10.1108 8.85291 10.1204 8.75226C10.1299 8.65089 10.0557 8.56127 9.95508 8.55171C9.43496 8.50249 8.97213 8.88449 8.92292 9.40463C8.89059 9.73961 9.03825 10.0504 9.28583 10.2428C9.3659 10.3045 9.48125 10.2899 9.54369 10.2098C9.60539 10.1297 9.59144 10.0144 9.51063 9.95266ZM12.0098 8.72803C11.7292 8.57375 11.6271 8.22186 11.7814 7.94123C11.86 7.79725 11.9915 7.70028 12.1384 7.66133C12.2368 7.63489 12.2949 7.53424 12.2684 7.4358C12.242 7.3381 12.1413 7.28006 12.0436 7.30651C11.8034 7.37116 11.5889 7.5291 11.4596 7.76419C11.2076 8.22186 11.3751 8.79782 11.8328 9.04979C11.9217 9.09901 12.0333 9.06595 12.0818 8.97779C12.1311 8.8889 12.0987 8.77724 12.0098 8.72803ZM14.1602 8.77284C14.4989 8.73904 14.8074 8.5238 14.944 8.1866C15.1402 7.70248 14.9066 7.15003 14.4225 6.95388C14.3284 6.91568 14.2212 6.96123 14.1837 7.05526C14.1455 7.14929 14.1911 7.25655 14.2844 7.29401C14.5811 7.41449 14.7237 7.75242 14.6039 8.04847C14.5202 8.25492 14.3306 8.38714 14.1235 8.40772C14.0228 8.418 13.9494 8.50763 13.9589 8.60827C13.9692 8.70965 14.0595 8.78312 14.1602 8.77284ZM6.3797 6.09873V7.64587C6.3797 7.72595 6.31505 7.79059 6.23498 7.79059H5.57821C5.49814 7.79059 5.43276 7.72595 5.43276 7.64587V6.09873C5.43276 6.01938 5.49814 5.954 5.57821 5.954H6.23498C6.31505 5.954 6.3797 6.01939 6.3797 6.09873ZM18.421 6.09873V7.64587C18.421 7.72595 18.3556 7.79059 18.2756 7.79059H17.6188C17.5387 7.79059 17.4741 7.72595 17.4741 7.64587V6.09873C17.4741 6.01938 17.5387 5.954 17.6188 5.954H18.2756C18.3556 5.954 18.421 6.01939 18.421 6.09873ZM10.2975 7.3094C10.0169 7.15586 9.91328 6.80397 10.0668 6.52334C10.166 6.34189 10.3474 6.23462 10.5399 6.22287C10.6406 6.21626 10.7177 6.12884 10.7111 6.02818C10.7052 5.9268 10.6178 5.84967 10.5164 5.85628C10.2027 5.87611 9.90591 6.0517 9.74429 6.34702C9.49379 6.80616 9.66275 7.38138 10.1212 7.63189C10.2108 7.68037 10.3224 7.64731 10.3709 7.55842C10.4194 7.46953 10.3864 7.35788 10.2975 7.3094ZM13.4711 6.78413C13.9295 6.53363 14.0985 5.95841 13.848 5.5C13.6878 5.20615 13.394 5.03057 13.0825 5.00926C12.9811 5.00191 12.8937 5.07832 12.8863 5.17969C12.8797 5.28034 12.9561 5.36849 13.0568 5.37511C13.2478 5.38907 13.4278 5.49559 13.5255 5.67559C13.679 5.95622 13.5754 6.30884 13.2948 6.46165C13.2059 6.51013 13.1736 6.6218 13.2221 6.71068C13.2705 6.79958 13.3822 6.83262 13.4711 6.78413Z"/>
</mask>
<path fill-rule="evenodd" clip-rule="evenodd" d="M5.49147 8.15042V10.9979H5.18366C5.08228 10.9979 5 11.0802 5 11.1816C5 14.4808 7.67919 17.16 10.9792 17.16H11.1724V17.96C11.1724 18.0614 11.2547 18.1437 11.356 18.1437H11.7432V20.3476C11.7432 20.7076 12.0356 21 12.3956 21H13.3315C13.6915 21 13.9839 20.7076 13.9839 20.3476V17.9601C13.9839 17.8029 14.1117 17.6751 14.2689 17.6751H15.2048C15.362 17.6751 15.4898 17.8029 15.4898 17.9601V20.0582C15.4898 20.1603 15.5721 20.2419 15.6735 20.2419C15.7749 20.2419 15.8572 20.1603 15.8572 20.0582V17.9601C15.8572 17.6002 15.5648 17.3078 15.2048 17.3078H14.2689C13.9089 17.3078 13.6165 17.6002 13.6165 17.9601V20.3476C13.6165 20.5048 13.4887 20.6327 13.3315 20.6327H12.3955C12.2383 20.6327 12.1105 20.5048 12.1105 20.3476V18.1437H12.4977C12.599 18.1437 12.6813 18.0614 12.6813 17.96V17.16H12.8745C16.1745 17.16 18.8537 14.4808 18.8537 11.1816C18.8537 11.0802 18.7714 10.9979 18.67 10.9979H18.3622V8.15042C18.6039 8.11001 18.7883 7.89918 18.7883 7.64572V6.09858C18.7883 5.81648 18.5584 5.58653 18.2755 5.58653H17.6188C17.3359 5.58653 17.1067 5.81648 17.1067 6.09858V7.64572C17.1067 7.92856 17.3359 8.15777 17.6188 8.15777H17.9949V10.9979H17.5284C17.427 10.9979 17.3448 11.0802 17.3448 11.1816C17.3448 13.6485 15.3415 15.6512 12.8744 15.6512H10.9791C8.51223 15.6512 6.50876 13.6487 6.50876 11.1816C6.50876 11.0802 6.42648 10.9979 6.32511 10.9979H5.85861V8.15777H6.23474C6.51757 8.15777 6.74679 7.92856 6.74679 7.64572V6.09858C6.74679 5.81648 6.51757 5.58653 6.23474 5.58653H5.57798C5.29514 5.58653 5.06519 5.81648 5.06519 6.09858V7.64572C5.06519 7.89918 5.24959 8.11002 5.49128 8.15042H5.49147ZM17.7084 11.3652H18.4835C18.3865 14.3773 15.9107 16.7926 12.8746 16.7926H12.4977C12.3963 16.7926 12.3141 16.8749 12.3141 16.9763V17.7763H11.5398V16.9763C11.5398 16.8749 11.4575 16.7926 11.3561 16.7926H10.9792C7.9429 16.7926 5.4672 14.3771 5.37035 11.3652H6.14539C6.24236 13.9496 8.37058 16.0184 10.9792 16.0184H12.8746C15.4832 16.0184 17.6116 13.9496 17.7084 11.3652ZM9.63475 3.82132C9.09919 3.82794 8.69148 4.04759 8.45787 4.3767C8.33298 4.55228 8.25658 4.76019 8.23674 4.98718C7.77244 5.23255 7.52047 5.63293 7.49623 6.05828C7.48962 6.18831 7.50358 6.32274 7.54104 6.45572C7.20606 6.80394 7.03855 7.19183 7.04444 7.56647C7.04737 7.76556 7.09807 7.96245 7.20165 8.15051C6.60072 9.01885 6.58457 10.106 7.33609 10.8489C7.32213 10.9282 7.31551 11.009 7.31551 11.0906C7.31625 11.7055 7.72029 12.3578 8.41378 12.6451C9.14034 13.9351 11.1951 14.2245 11.9269 12.8868C12.6585 14.2245 14.7132 13.9351 15.4399 12.6451C16.1334 12.3578 16.5375 11.7055 16.5382 11.0906C16.5382 11.009 16.5316 10.9282 16.5176 10.8489C17.2692 10.1062 17.253 9.01817 16.6521 8.15051C16.7556 7.96245 16.8063 7.76556 16.8093 7.56647C16.8152 7.19181 16.6477 6.80392 16.3127 6.45572C16.3501 6.32275 16.3641 6.18831 16.3568 6.05828C16.3332 5.63293 16.0813 5.23255 15.617 4.98718C15.5971 4.76019 15.5207 4.55228 15.3958 4.3767C15.1622 4.04759 14.7545 3.82793 14.219 3.82132C13.7606 3.03013 12.7181 2.71497 11.9268 3.30634C11.1356 2.71497 10.0933 3.03011 9.63475 3.82132ZM14.3804 4.19966C14.4238 4.34658 14.4487 4.5038 14.4517 4.66982C14.4539 4.7712 14.3738 4.85568 14.2724 4.85715C14.171 4.85936 14.0866 4.77928 14.0851 4.6779C14.0623 3.61121 12.9104 2.98824 12.1104 3.62885V4.71097C12.1104 4.81234 12.0281 4.89462 11.9267 4.89462C11.8254 4.89462 11.7431 4.81234 11.7431 4.71097V3.62885C10.9431 2.98826 9.79114 3.61122 9.76839 4.6779C9.76692 4.77928 9.68243 4.85936 9.58105 4.85715C9.47968 4.85568 9.3996 4.7712 9.40181 4.66982C9.40474 4.5038 9.42972 4.34657 9.47306 4.19966C9.15424 4.23859 8.90667 4.37964 8.75753 4.58974C8.57093 4.852 8.54449 5.21418 8.70684 5.59325C8.74725 5.68581 8.7039 5.79453 8.6106 5.8342C8.51804 5.8746 8.40932 5.83126 8.36965 5.73796C8.32043 5.62409 8.28517 5.5117 8.2624 5.40222C8.01776 5.5778 7.87744 5.81875 7.86349 6.07883C7.85688 6.19563 7.87524 6.31538 7.92006 6.43292C7.92153 6.43806 7.92373 6.44247 7.9252 6.44761C8.01115 6.66581 8.18526 6.87738 8.44825 7.05663C8.53273 7.11319 8.55404 7.2278 8.49747 7.31155C8.44017 7.3953 8.3263 7.41734 8.24255 7.36004C8.00526 7.19915 7.82822 7.0155 7.70626 6.82228C7.51157 7.05883 7.408 7.31155 7.41167 7.56132C7.41608 7.86986 7.58798 8.16445 7.92885 8.40909C8.01113 8.46786 8.03023 8.5832 7.97146 8.66548C7.91195 8.74776 7.79735 8.76686 7.71507 8.70735C7.60781 8.63095 7.51452 8.54941 7.43444 8.46565C7.03846 9.11139 7.00835 9.87981 7.47264 10.4535C7.5483 10.3132 7.65189 10.1839 7.78633 10.0708C7.86347 10.0054 7.97953 10.0149 8.04492 10.0928C8.11031 10.1699 8.10076 10.286 8.02288 10.3514C7.70919 10.6158 7.62544 11.0052 7.71948 11.3718C7.86787 11.9507 8.4519 12.4693 9.29966 12.4245C9.40104 12.4187 9.48773 12.4965 9.49286 12.5979C9.49801 12.6993 9.42087 12.786 9.31949 12.7911C9.19681 12.7977 9.07854 12.7948 8.9654 12.7823C9.75881 13.6462 11.3749 13.6918 11.7431 12.3628V11.8199C11.7431 11.7185 11.8254 11.6363 11.9268 11.6363C12.0282 11.6363 12.1105 11.7185 12.1105 11.8199V12.3628C12.4785 13.6918 14.0947 13.6462 14.8882 12.7823C14.7751 12.7948 14.6568 12.7977 14.5341 12.7911C14.4327 12.786 14.3556 12.6993 14.3607 12.5979C14.3659 12.4965 14.4525 12.4187 14.5539 12.4245C15.4017 12.4693 15.9857 11.9507 16.1341 11.3718C16.2281 11.0052 16.1444 10.6159 15.8307 10.3514C15.7528 10.286 15.7433 10.1699 15.8087 10.0928C15.874 10.0149 15.9901 10.0054 16.0673 10.0708C16.2017 10.1839 16.3053 10.3132 16.3809 10.4535C16.8452 9.87976 16.8151 9.11134 16.4191 8.46565C16.3391 8.5494 16.2458 8.63094 16.1385 8.70735C16.0562 8.76686 15.9416 8.74776 15.8821 8.66548C15.8234 8.5832 15.8425 8.46786 15.9247 8.40909C16.2656 8.16445 16.4375 7.86986 16.4419 7.56132C16.4456 7.31155 16.342 7.05883 16.1473 6.82228C16.0254 7.01548 15.8483 7.19914 15.611 7.36004C15.5273 7.41734 15.4134 7.3953 15.3561 7.31155C15.2995 7.2278 15.3209 7.1132 15.4053 7.05663C15.6683 6.87738 15.8424 6.66581 15.9284 6.44761C15.9299 6.44247 15.9321 6.43806 15.9335 6.43292C15.9783 6.31538 15.9967 6.19564 15.9901 6.07883C15.9761 5.81877 15.8358 5.5778 15.5912 5.40222C15.5684 5.51168 15.5332 5.62408 15.4839 5.73796C15.4443 5.83126 15.3355 5.8746 15.243 5.8342C15.1497 5.79453 15.1063 5.6858 15.1467 5.59325C15.3091 5.21418 15.2827 4.852 15.0961 4.58974C14.9469 4.37964 14.6992 4.23859 14.3804 4.19966ZM11.0033 11.8355C10.6889 11.7782 10.4795 11.477 10.5368 11.1619C10.5941 10.8474 10.8961 10.6388 11.2105 10.6961C11.3096 10.7137 11.4059 10.6476 11.4235 10.5477C11.4419 10.4478 11.3758 10.3523 11.2758 10.3347C10.7616 10.2406 10.2687 10.5822 10.1754 11.0965C10.0821 11.6107 10.4237 12.1037 10.9379 12.197C11.0371 12.2153 11.1333 12.1485 11.1509 12.0493C11.1693 11.9494 11.1032 11.8539 11.0033 11.8355ZM13.914 11.2361C14.1851 10.9451 14.2527 10.5022 14.0506 10.1348C13.7987 9.67716 13.2227 9.50967 12.765 9.76164C12.6762 9.81012 12.6438 9.92179 12.6931 10.0107C12.7415 10.0996 12.8532 10.1319 12.9421 10.0834C13.2227 9.92913 13.5746 10.032 13.7289 10.3119C13.8523 10.5367 13.8112 10.8077 13.6451 10.9863C13.5761 11.0604 13.5805 11.1765 13.6547 11.2456C13.7281 11.3146 13.8449 11.3103 13.914 11.2361ZM9.51063 9.95266C9.35929 9.83438 9.26892 9.64411 9.28876 9.43914C9.31889 9.12105 9.60173 8.88743 9.91982 8.91756C10.0212 8.92711 10.1108 8.85291 10.1204 8.75226C10.1299 8.65089 10.0557 8.56127 9.95508 8.55171C9.43496 8.50249 8.97213 8.88449 8.92292 9.40463C8.89059 9.73961 9.03825 10.0504 9.28583 10.2428C9.3659 10.3045 9.48125 10.2899 9.54369 10.2098C9.60539 10.1297 9.59144 10.0144 9.51063 9.95266ZM12.0098 8.72803C11.7292 8.57375 11.6271 8.22186 11.7814 7.94123C11.86 7.79725 11.9915 7.70028 12.1384 7.66133C12.2368 7.63489 12.2949 7.53424 12.2684 7.4358C12.242 7.3381 12.1413 7.28006 12.0436 7.30651C11.8034 7.37116 11.5889 7.5291 11.4596 7.76419C11.2076 8.22186 11.3751 8.79782 11.8328 9.04979C11.9217 9.09901 12.0333 9.06595 12.0818 8.97779C12.1311 8.8889 12.0987 8.77724 12.0098 8.72803ZM14.1602 8.77284C14.4989 8.73904 14.8074 8.5238 14.944 8.1866C15.1402 7.70248 14.9066 7.15003 14.4225 6.95388C14.3284 6.91568 14.2212 6.96123 14.1837 7.05526C14.1455 7.14929 14.1911 7.25655 14.2844 7.29401C14.5811 7.41449 14.7237 7.75242 14.6039 8.04847C14.5202 8.25492 14.3306 8.38714 14.1235 8.40772C14.0228 8.418 13.9494 8.50763 13.9589 8.60827C13.9692 8.70965 14.0595 8.78312 14.1602 8.77284ZM6.3797 6.09873V7.64587C6.3797 7.72595 6.31505 7.79059 6.23498 7.79059H5.57821C5.49814 7.79059 5.43276 7.72595 5.43276 7.64587V6.09873C5.43276 6.01938 5.49814 5.954 5.57821 5.954H6.23498C6.31505 5.954 6.3797 6.01939 6.3797 6.09873ZM18.421 6.09873V7.64587C18.421 7.72595 18.3556 7.79059 18.2756 7.79059H17.6188C17.5387 7.79059 17.4741 7.72595 17.4741 7.64587V6.09873C17.4741 6.01938 17.5387 5.954 17.6188 5.954H18.2756C18.3556 5.954 18.421 6.01939 18.421 6.09873ZM10.2975 7.3094C10.0169 7.15586 9.91328 6.80397 10.0668 6.52334C10.166 6.34189 10.3474 6.23462 10.5399 6.22287C10.6406 6.21626 10.7177 6.12884 10.7111 6.02818C10.7052 5.9268 10.6178 5.84967 10.5164 5.85628C10.2027 5.87611 9.90591 6.0517 9.74429 6.34702C9.49379 6.80616 9.66275 7.38138 10.1212 7.63189C10.2108 7.68037 10.3224 7.64731 10.3709 7.55842C10.4194 7.46953 10.3864 7.35788 10.2975 7.3094ZM13.4711 6.78413C13.9295 6.53363 14.0985 5.95841 13.848 5.5C13.6878 5.20615 13.394 5.03057 13.0825 5.00926C12.9811 5.00191 12.8937 5.07832 12.8863 5.17969C12.8797 5.28034 12.9561 5.36849 13.0568 5.37511C13.2478 5.38907 13.4278 5.49559 13.5255 5.67559C13.679 5.95622 13.5754 6.30884 13.2948 6.46165C13.2059 6.51013 13.1736 6.6218 13.2221 6.71068C13.2705 6.79958 13.3822 6.83262 13.4711 6.78413Z" fill="#00625B"/>
<path fill-rule="evenodd" clip-rule="evenodd" d="M5.49147 8.15042V10.9979H5.18366C5.08228 10.9979 5 11.0802 5 11.1816C5 14.4808 7.67919 17.16 10.9792 17.16H11.1724V17.96C11.1724 18.0614 11.2547 18.1437 11.356 18.1437H11.7432V20.3476C11.7432 20.7076 12.0356 21 12.3956 21H13.3315C13.6915 21 13.9839 20.7076 13.9839 20.3476V17.9601C13.9839 17.8029 14.1117 17.6751 14.2689 17.6751H15.2048C15.362 17.6751 15.4898 17.8029 15.4898 17.9601V20.0582C15.4898 20.1603 15.5721 20.2419 15.6735 20.2419C15.7749 20.2419 15.8572 20.1603 15.8572 20.0582V17.9601C15.8572 17.6002 15.5648 17.3078 15.2048 17.3078H14.2689C13.9089 17.3078 13.6165 17.6002 13.6165 17.9601V20.3476C13.6165 20.5048 13.4887 20.6327 13.3315 20.6327H12.3955C12.2383 20.6327 12.1105 20.5048 12.1105 20.3476V18.1437H12.4977C12.599 18.1437 12.6813 18.0614 12.6813 17.96V17.16H12.8745C16.1745 17.16 18.8537 14.4808 18.8537 11.1816C18.8537 11.0802 18.7714 10.9979 18.67 10.9979H18.3622V8.15042C18.6039 8.11001 18.7883 7.89918 18.7883 7.64572V6.09858C18.7883 5.81648 18.5584 5.58653 18.2755 5.58653H17.6188C17.3359 5.58653 17.1067 5.81648 17.1067 6.09858V7.64572C17.1067 7.92856 17.3359 8.15777 17.6188 8.15777H17.9949V10.9979H17.5284C17.427 10.9979 17.3448 11.0802 17.3448 11.1816C17.3448 13.6485 15.3415 15.6512 12.8744 15.6512H10.9791C8.51223 15.6512 6.50876 13.6487 6.50876 11.1816C6.50876 11.0802 6.42648 10.9979 6.32511 10.9979H5.85861V8.15777H6.23474C6.51757 8.15777 6.74679 7.92856 6.74679 7.64572V6.09858C6.74679 5.81648 6.51757 5.58653 6.23474 5.58653H5.57798C5.29514 5.58653 5.06519 5.81648 5.06519 6.09858V7.64572C5.06519 7.89918 5.24959 8.11002 5.49128 8.15042H5.49147ZM17.7084 11.3652H18.4835C18.3865 14.3773 15.9107 16.7926 12.8746 16.7926H12.4977C12.3963 16.7926 12.3141 16.8749 12.3141 16.9763V17.7763H11.5398V16.9763C11.5398 16.8749 11.4575 16.7926 11.3561 16.7926H10.9792C7.9429 16.7926 5.4672 14.3771 5.37035 11.3652H6.14539C6.24236 13.9496 8.37058 16.0184 10.9792 16.0184H12.8746C15.4832 16.0184 17.6116 13.9496 17.7084 11.3652ZM9.63475 3.82132C9.09919 3.82794 8.69148 4.04759 8.45787 4.3767C8.33298 4.55228 8.25658 4.76019 8.23674 4.98718C7.77244 5.23255 7.52047 5.63293 7.49623 6.05828C7.48962 6.18831 7.50358 6.32274 7.54104 6.45572C7.20606 6.80394 7.03855 7.19183 7.04444 7.56647C7.04737 7.76556 7.09807 7.96245 7.20165 8.15051C6.60072 9.01885 6.58457 10.106 7.33609 10.8489C7.32213 10.9282 7.31551 11.009 7.31551 11.0906C7.31625 11.7055 7.72029 12.3578 8.41378 12.6451C9.14034 13.9351 11.1951 14.2245 11.9269 12.8868C12.6585 14.2245 14.7132 13.9351 15.4399 12.6451C16.1334 12.3578 16.5375 11.7055 16.5382 11.0906C16.5382 11.009 16.5316 10.9282 16.5176 10.8489C17.2692 10.1062 17.253 9.01817 16.6521 8.15051C16.7556 7.96245 16.8063 7.76556 16.8093 7.56647C16.8152 7.19181 16.6477 6.80392 16.3127 6.45572C16.3501 6.32275 16.3641 6.18831 16.3568 6.05828C16.3332 5.63293 16.0813 5.23255 15.617 4.98718C15.5971 4.76019 15.5207 4.55228 15.3958 4.3767C15.1622 4.04759 14.7545 3.82793 14.219 3.82132C13.7606 3.03013 12.7181 2.71497 11.9268 3.30634C11.1356 2.71497 10.0933 3.03011 9.63475 3.82132ZM14.3804 4.19966C14.4238 4.34658 14.4487 4.5038 14.4517 4.66982C14.4539 4.7712 14.3738 4.85568 14.2724 4.85715C14.171 4.85936 14.0866 4.77928 14.0851 4.6779C14.0623 3.61121 12.9104 2.98824 12.1104 3.62885V4.71097C12.1104 4.81234 12.0281 4.89462 11.9267 4.89462C11.8254 4.89462 11.7431 4.81234 11.7431 4.71097V3.62885C10.9431 2.98826 9.79114 3.61122 9.76839 4.6779C9.76692 4.77928 9.68243 4.85936 9.58105 4.85715C9.47968 4.85568 9.3996 4.7712 9.40181 4.66982C9.40474 4.5038 9.42972 4.34657 9.47306 4.19966C9.15424 4.23859 8.90667 4.37964 8.75753 4.58974C8.57093 4.852 8.54449 5.21418 8.70684 5.59325C8.74725 5.68581 8.7039 5.79453 8.6106 5.8342C8.51804 5.8746 8.40932 5.83126 8.36965 5.73796C8.32043 5.62409 8.28517 5.5117 8.2624 5.40222C8.01776 5.5778 7.87744 5.81875 7.86349 6.07883C7.85688 6.19563 7.87524 6.31538 7.92006 6.43292C7.92153 6.43806 7.92373 6.44247 7.9252 6.44761C8.01115 6.66581 8.18526 6.87738 8.44825 7.05663C8.53273 7.11319 8.55404 7.2278 8.49747 7.31155C8.44017 7.3953 8.3263 7.41734 8.24255 7.36004C8.00526 7.19915 7.82822 7.0155 7.70626 6.82228C7.51157 7.05883 7.408 7.31155 7.41167 7.56132C7.41608 7.86986 7.58798 8.16445 7.92885 8.40909C8.01113 8.46786 8.03023 8.5832 7.97146 8.66548C7.91195 8.74776 7.79735 8.76686 7.71507 8.70735C7.60781 8.63095 7.51452 8.54941 7.43444 8.46565C7.03846 9.11139 7.00835 9.87981 7.47264 10.4535C7.5483 10.3132 7.65189 10.1839 7.78633 10.0708C7.86347 10.0054 7.97953 10.0149 8.04492 10.0928C8.11031 10.1699 8.10076 10.286 8.02288 10.3514C7.70919 10.6158 7.62544 11.0052 7.71948 11.3718C7.86787 11.9507 8.4519 12.4693 9.29966 12.4245C9.40104 12.4187 9.48773 12.4965 9.49286 12.5979C9.49801 12.6993 9.42087 12.786 9.31949 12.7911C9.19681 12.7977 9.07854 12.7948 8.9654 12.7823C9.75881 13.6462 11.3749 13.6918 11.7431 12.3628V11.8199C11.7431 11.7185 11.8254 11.6363 11.9268 11.6363C12.0282 11.6363 12.1105 11.7185 12.1105 11.8199V12.3628C12.4785 13.6918 14.0947 13.6462 14.8882 12.7823C14.7751 12.7948 14.6568 12.7977 14.5341 12.7911C14.4327 12.786 14.3556 12.6993 14.3607 12.5979C14.3659 12.4965 14.4525 12.4187 14.5539 12.4245C15.4017 12.4693 15.9857 11.9507 16.1341 11.3718C16.2281 11.0052 16.1444 10.6159 15.8307 10.3514C15.7528 10.286 15.7433 10.1699 15.8087 10.0928C15.874 10.0149 15.9901 10.0054 16.0673 10.0708C16.2017 10.1839 16.3053 10.3132 16.3809 10.4535C16.8452 9.87976 16.8151 9.11134 16.4191 8.46565C16.3391 8.5494 16.2458 8.63094 16.1385 8.70735C16.0562 8.76686 15.9416 8.74776 15.8821 8.66548C15.8234 8.5832 15.8425 8.46786 15.9247 8.40909C16.2656 8.16445 16.4375 7.86986 16.4419 7.56132C16.4456 7.31155 16.342 7.05883 16.1473 6.82228C16.0254 7.01548 15.8483 7.19914 15.611 7.36004C15.5273 7.41734 15.4134 7.3953 15.3561 7.31155C15.2995 7.2278 15.3209 7.1132 15.4053 7.05663C15.6683 6.87738 15.8424 6.66581 15.9284 6.44761C15.9299 6.44247 15.9321 6.43806 15.9335 6.43292C15.9783 6.31538 15.9967 6.19564 15.9901 6.07883C15.9761 5.81877 15.8358 5.5778 15.5912 5.40222C15.5684 5.51168 15.5332 5.62408 15.4839 5.73796C15.4443 5.83126 15.3355 5.8746 15.243 5.8342C15.1497 5.79453 15.1063 5.6858 15.1467 5.59325C15.3091 5.21418 15.2827 4.852 15.0961 4.58974C14.9469 4.37964 14.6992 4.23859 14.3804 4.19966ZM11.0033 11.8355C10.6889 11.7782 10.4795 11.477 10.5368 11.1619C10.5941 10.8474 10.8961 10.6388 11.2105 10.6961C11.3096 10.7137 11.4059 10.6476 11.4235 10.5477C11.4419 10.4478 11.3758 10.3523 11.2758 10.3347C10.7616 10.2406 10.2687 10.5822 10.1754 11.0965C10.0821 11.6107 10.4237 12.1037 10.9379 12.197C11.0371 12.2153 11.1333 12.1485 11.1509 12.0493C11.1693 11.9494 11.1032 11.8539 11.0033 11.8355ZM13.914 11.2361C14.1851 10.9451 14.2527 10.5022 14.0506 10.1348C13.7987 9.67716 13.2227 9.50967 12.765 9.76164C12.6762 9.81012 12.6438 9.92179 12.6931 10.0107C12.7415 10.0996 12.8532 10.1319 12.9421 10.0834C13.2227 9.92913 13.5746 10.032 13.7289 10.3119C13.8523 10.5367 13.8112 10.8077 13.6451 10.9863C13.5761 11.0604 13.5805 11.1765 13.6547 11.2456C13.7281 11.3146 13.8449 11.3103 13.914 11.2361ZM9.51063 9.95266C9.35929 9.83438 9.26892 9.64411 9.28876 9.43914C9.31889 9.12105 9.60173 8.88743 9.91982 8.91756C10.0212 8.92711 10.1108 8.85291 10.1204 8.75226C10.1299 8.65089 10.0557 8.56127 9.95508 8.55171C9.43496 8.50249 8.97213 8.88449 8.92292 9.40463C8.89059 9.73961 9.03825 10.0504 9.28583 10.2428C9.3659 10.3045 9.48125 10.2899 9.54369 10.2098C9.60539 10.1297 9.59144 10.0144 9.51063 9.95266ZM12.0098 8.72803C11.7292 8.57375 11.6271 8.22186 11.7814 7.94123C11.86 7.79725 11.9915 7.70028 12.1384 7.66133C12.2368 7.63489 12.2949 7.53424 12.2684 7.4358C12.242 7.3381 12.1413 7.28006 12.0436 7.30651C11.8034 7.37116 11.5889 7.5291 11.4596 7.76419C11.2076 8.22186 11.3751 8.79782 11.8328 9.04979C11.9217 9.09901 12.0333 9.06595 12.0818 8.97779C12.1311 8.8889 12.0987 8.77724 12.0098 8.72803ZM14.1602 8.77284C14.4989 8.73904 14.8074 8.5238 14.944 8.1866C15.1402 7.70248 14.9066 7.15003 14.4225 6.95388C14.3284 6.91568 14.2212 6.96123 14.1837 7.05526C14.1455 7.14929 14.1911 7.25655 14.2844 7.29401C14.5811 7.41449 14.7237 7.75242 14.6039 8.04847C14.5202 8.25492 14.3306 8.38714 14.1235 8.40772C14.0228 8.418 13.9494 8.50763 13.9589 8.60827C13.9692 8.70965 14.0595 8.78312 14.1602 8.77284ZM6.3797 6.09873V7.64587C6.3797 7.72595 6.31505 7.79059 6.23498 7.79059H5.57821C5.49814 7.79059 5.43276 7.72595 5.43276 7.64587V6.09873C5.43276 6.01938 5.49814 5.954 5.57821 5.954H6.23498C6.31505 5.954 6.3797 6.01939 6.3797 6.09873ZM18.421 6.09873V7.64587C18.421 7.72595 18.3556 7.79059 18.2756 7.79059H17.6188C17.5387 7.79059 17.4741 7.72595 17.4741 7.64587V6.09873C17.4741 6.01938 17.5387 5.954 17.6188 5.954H18.2756C18.3556 5.954 18.421 6.01939 18.421 6.09873ZM10.2975 7.3094C10.0169 7.15586 9.91328 6.80397 10.0668 6.52334C10.166 6.34189 10.3474 6.23462 10.5399 6.22287C10.6406 6.21626 10.7177 6.12884 10.7111 6.02818C10.7052 5.9268 10.6178 5.84967 10.5164 5.85628C10.2027 5.87611 9.90591 6.0517 9.74429 6.34702C9.49379 6.80616 9.66275 7.38138 10.1212 7.63189C10.2108 7.68037 10.3224 7.64731 10.3709 7.55842C10.4194 7.46953 10.3864 7.35788 10.2975 7.3094ZM13.4711 6.78413C13.9295 6.53363 14.0985 5.95841 13.848 5.5C13.6878 5.20615 13.394 5.03057 13.0825 5.00926C12.9811 5.00191 12.8937 5.07832 12.8863 5.17969C12.8797 5.28034 12.9561 5.36849 13.0568 5.37511C13.2478 5.38907 13.4278 5.49559 13.5255 5.67559C13.679 5.95622 13.5754 6.30884 13.2948 6.46165C13.2059 6.51013 13.1736 6.6218 13.2221 6.71068C13.2705 6.79958 13.3822 6.83262 13.4711 6.78413Z" stroke="#00625B" stroke-width="0.2" mask="url(#path-1-outside-1_501_1353)"/>
</svg>
