<svg width="25" height="25" viewBox="0 0 25 25" fill="none" xmlns="http://www.w3.org/2000/svg">
<mask id="path-1-outside-1_20_96" maskUnits="userSpaceOnUse" x="4.5" y="2.5" width="15" height="20" fill="black">
<rect fill="white" x="4.5" y="2.5" width="15" height="20"/>
<path fill-rule="evenodd" clip-rule="evenodd" d="M5.99147 8.65042V11.4979H5.68366C5.58228 11.4979 5.5 11.5802 5.5 11.6816C5.5 14.9808 8.17919 17.66 11.4792 17.66H11.6724V18.46C11.6724 18.5614 11.7547 18.6437 11.856 18.6437H12.2432V20.8476C12.2432 21.2076 12.5356 21.5 12.8956 21.5H13.8315C14.1915 21.5 14.4839 21.2076 14.4839 20.8476V18.4601C14.4839 18.3029 14.6117 18.1751 14.7689 18.1751H15.7048C15.862 18.1751 15.9898 18.3029 15.9898 18.4601V20.5582C15.9898 20.6603 16.0721 20.7419 16.1735 20.7419C16.2749 20.7419 16.3572 20.6603 16.3572 20.5582V18.4601C16.3572 18.1002 16.0648 17.8078 15.7048 17.8078H14.7689C14.4089 17.8078 14.1165 18.1002 14.1165 18.4601V20.8476C14.1165 21.0048 13.9887 21.1327 13.8315 21.1327H12.8955C12.7383 21.1327 12.6105 21.0048 12.6105 20.8476V18.6437H12.9977C13.099 18.6437 13.1813 18.5614 13.1813 18.46V17.66H13.3745C16.6745 17.66 19.3537 14.9808 19.3537 11.6816C19.3537 11.5802 19.2714 11.4979 19.17 11.4979H18.8622V8.65042C19.1039 8.61001 19.2883 8.39918 19.2883 8.14572V6.59858C19.2883 6.31648 19.0584 6.08653 18.7755 6.08653H18.1188C17.8359 6.08653 17.6067 6.31648 17.6067 6.59858V8.14572C17.6067 8.42856 17.8359 8.65777 18.1188 8.65777H18.4949V11.4979H18.0284C17.927 11.4979 17.8448 11.5802 17.8448 11.6816C17.8448 14.1485 15.8415 16.1512 13.3744 16.1512H11.4791C9.01223 16.1512 7.00876 14.1487 7.00876 11.6816C7.00876 11.5802 6.92648 11.4979 6.82511 11.4979H6.35861V8.65777H6.73474C7.01757 8.65777 7.24679 8.42856 7.24679 8.14572V6.59858C7.24679 6.31648 7.01757 6.08653 6.73474 6.08653H6.07798C5.79514 6.08653 5.56519 6.31648 5.56519 6.59858V8.14572C5.56519 8.39918 5.74959 8.61002 5.99128 8.65042H5.99147ZM18.2084 11.8652H18.9835C18.8865 14.8773 16.4107 17.2926 13.3746 17.2926H12.9977C12.8963 17.2926 12.8141 17.3749 12.8141 17.4763V18.2763H12.0398V17.4763C12.0398 17.3749 11.9575 17.2926 11.8561 17.2926H11.4792C8.4429 17.2926 5.9672 14.8771 5.87035 11.8652H6.64539C6.74236 14.4496 8.87058 16.5184 11.4792 16.5184H13.3746C15.9832 16.5184 18.1116 14.4496 18.2084 11.8652ZM10.1347 4.32132C9.59919 4.32794 9.19148 4.54759 8.95787 4.8767C8.83298 5.05228 8.75658 5.26019 8.73674 5.48718C8.27244 5.73255 8.02047 6.13293 7.99623 6.55828C7.98962 6.68831 8.00358 6.82274 8.04104 6.95572C7.70606 7.30394 7.53855 7.69183 7.54444 8.06647C7.54737 8.26556 7.59807 8.46245 7.70165 8.65051C7.10072 9.51885 7.08457 10.606 7.83609 11.3489C7.82213 11.4282 7.81551 11.509 7.81551 11.5906C7.81625 12.2055 8.22029 12.8578 8.91378 13.1451C9.64034 14.4351 11.6951 14.7245 12.4269 13.3868C13.1585 14.7245 15.2132 14.4351 15.9399 13.1451C16.6334 12.8578 17.0375 12.2055 17.0382 11.5906C17.0382 11.509 17.0316 11.4282 17.0176 11.3489C17.7692 10.6062 17.753 9.51817 17.1521 8.65051C17.2556 8.46245 17.3063 8.26556 17.3093 8.06647C17.3152 7.69181 17.1477 7.30392 16.8127 6.95572C16.8501 6.82275 16.8641 6.68831 16.8568 6.55828C16.8332 6.13293 16.5813 5.73255 16.117 5.48718C16.0971 5.26019 16.0207 5.05228 15.8958 4.8767C15.6622 4.54759 15.2545 4.32793 14.719 4.32132C14.2606 3.53013 13.2181 3.21497 12.4268 3.80634C11.6356 3.21497 10.5933 3.53011 10.1347 4.32132ZM14.8804 4.69966C14.9238 4.84658 14.9487 5.0038 14.9517 5.16982C14.9539 5.2712 14.8738 5.35568 14.7724 5.35715C14.671 5.35936 14.5866 5.27928 14.5851 5.1779C14.5623 4.11121 13.4104 3.48824 12.6104 4.12885V5.21097C12.6104 5.31234 12.5281 5.39462 12.4267 5.39462C12.3254 5.39462 12.2431 5.31234 12.2431 5.21097V4.12885C11.4431 3.48826 10.2911 4.11122 10.2684 5.1779C10.2669 5.27928 10.1824 5.35936 10.0811 5.35715C9.97968 5.35568 9.8996 5.2712 9.90181 5.16982C9.90474 5.0038 9.92972 4.84657 9.97306 4.69966C9.65424 4.73859 9.40667 4.87964 9.25753 5.08974C9.07093 5.352 9.04449 5.71418 9.20684 6.09325C9.24725 6.18581 9.2039 6.29453 9.1106 6.3342C9.01804 6.3746 8.90932 6.33126 8.86965 6.23796C8.82043 6.12409 8.78517 6.0117 8.7624 5.90222C8.51776 6.0778 8.37744 6.31875 8.36349 6.57883C8.35688 6.69563 8.37524 6.81538 8.42006 6.93292C8.42153 6.93806 8.42373 6.94247 8.4252 6.94761C8.51115 7.16581 8.68526 7.37738 8.94825 7.55663C9.03273 7.61319 9.05404 7.7278 8.99747 7.81155C8.94017 7.8953 8.8263 7.91734 8.74255 7.86004C8.50526 7.69915 8.32822 7.5155 8.20626 7.32228C8.01157 7.55883 7.908 7.81155 7.91167 8.06132C7.91608 8.36986 8.08798 8.66445 8.42885 8.90909C8.51113 8.96786 8.53023 9.0832 8.47146 9.16548C8.41195 9.24776 8.29735 9.26686 8.21507 9.20735C8.10781 9.13095 8.01452 9.04941 7.93444 8.96565C7.53846 9.61139 7.50835 10.3798 7.97264 10.9535C8.0483 10.8132 8.15189 10.6839 8.28633 10.5708C8.36347 10.5054 8.47953 10.5149 8.54492 10.5928C8.61031 10.6699 8.60076 10.786 8.52288 10.8514C8.20919 11.1158 8.12544 11.5052 8.21948 11.8718C8.36787 12.4507 8.9519 12.9693 9.79966 12.9245C9.90104 12.9187 9.98773 12.9965 9.99286 13.0979C9.99801 13.1993 9.92087 13.286 9.81949 13.2911C9.69681 13.2977 9.57854 13.2948 9.4654 13.2823C10.2588 14.1462 11.8749 14.1918 12.2431 12.8628V12.3199C12.2431 12.2185 12.3254 12.1363 12.4268 12.1363C12.5282 12.1363 12.6105 12.2185 12.6105 12.3199V12.8628C12.9785 14.1918 14.5947 14.1462 15.3882 13.2823C15.2751 13.2948 15.1568 13.2977 15.0341 13.2911C14.9327 13.286 14.8556 13.1993 14.8607 13.0979C14.8659 12.9965 14.9525 12.9187 15.0539 12.9245C15.9017 12.9693 16.4857 12.4507 16.6341 11.8718C16.7281 11.5052 16.6444 11.1159 16.3307 10.8514C16.2528 10.786 16.2433 10.6699 16.3087 10.5928C16.374 10.5149 16.4901 10.5054 16.5673 10.5708C16.7017 10.6839 16.8053 10.8132 16.8809 10.9535C17.3452 10.3798 17.3151 9.61134 16.9191 8.96565C16.8391 9.0494 16.7458 9.13094 16.6385 9.20735C16.5562 9.26686 16.4416 9.24776 16.3821 9.16548C16.3234 9.0832 16.3425 8.96786 16.4247 8.90909C16.7656 8.66445 16.9375 8.36986 16.9419 8.06132C16.9456 7.81155 16.842 7.55883 16.6473 7.32228C16.5254 7.51548 16.3483 7.69914 16.111 7.86004C16.0273 7.91734 15.9134 7.8953 15.8561 7.81155C15.7995 7.7278 15.8209 7.6132 15.9053 7.55663C16.1683 7.37738 16.3424 7.16581 16.4284 6.94761C16.4299 6.94247 16.4321 6.93806 16.4335 6.93292C16.4783 6.81538 16.4967 6.69564 16.4901 6.57883C16.4761 6.31877 16.3358 6.0778 16.0912 5.90222C16.0684 6.01168 16.0332 6.12408 15.9839 6.23796C15.9443 6.33126 15.8355 6.3746 15.743 6.3342C15.6497 6.29453 15.6063 6.1858 15.6467 6.09325C15.8091 5.71418 15.7827 5.352 15.5961 5.08974C15.4469 4.87964 15.1992 4.73859 14.8804 4.69966ZM11.5033 12.3355C11.1889 12.2782 10.9795 11.977 11.0368 11.6619C11.0941 11.3474 11.3961 11.1388 11.7105 11.1961C11.8096 11.2137 11.9059 11.1476 11.9235 11.0477C11.9419 10.9478 11.8758 10.8523 11.7758 10.8347C11.2616 10.7406 10.7687 11.0822 10.6754 11.5965C10.5821 12.1107 10.9237 12.6037 11.4379 12.697C11.5371 12.7153 11.6333 12.6485 11.6509 12.5493C11.6693 12.4494 11.6032 12.3539 11.5033 12.3355ZM14.414 11.7361C14.6851 11.4451 14.7527 11.0022 14.5506 10.6348C14.2987 10.1772 13.7227 10.0097 13.265 10.2616C13.1762 10.3101 13.1438 10.4218 13.1931 10.5107C13.2415 10.5996 13.3532 10.6319 13.4421 10.5834C13.7227 10.4291 14.0746 10.532 14.2289 10.8119C14.3523 11.0367 14.3112 11.3077 14.1451 11.4863C14.0761 11.5604 14.0805 11.6765 14.1547 11.7456C14.2281 11.8146 14.3449 11.8103 14.414 11.7361ZM10.0106 10.4527C9.85929 10.3344 9.76892 10.1441 9.78876 9.93914C9.81889 9.62105 10.1017 9.38743 10.4198 9.41756C10.5212 9.42711 10.6108 9.35291 10.6204 9.25226C10.6299 9.15089 10.5557 9.06127 10.4551 9.05171C9.93496 9.00249 9.47213 9.38449 9.42292 9.90463C9.39059 10.2396 9.53825 10.5504 9.78583 10.7428C9.8659 10.8045 9.98125 10.7899 10.0437 10.7098C10.1054 10.6297 10.0914 10.5144 10.0106 10.4527ZM12.5098 9.22803C12.2292 9.07375 12.1271 8.72186 12.2814 8.44123C12.36 8.29725 12.4915 8.20028 12.6384 8.16133C12.7368 8.13489 12.7949 8.03424 12.7684 7.9358C12.742 7.8381 12.6413 7.78006 12.5436 7.80651C12.3034 7.87116 12.0889 8.0291 11.9596 8.26419C11.7076 8.72186 11.8751 9.29782 12.3328 9.54979C12.4217 9.59901 12.5333 9.56595 12.5818 9.47779C12.6311 9.3889 12.5987 9.27724 12.5098 9.22803ZM14.6602 9.27284C14.9989 9.23904 15.3074 9.0238 15.444 8.6866C15.6402 8.20248 15.4066 7.65003 14.9225 7.45388C14.8284 7.41568 14.7212 7.46123 14.6837 7.55526C14.6455 7.64929 14.6911 7.75655 14.7844 7.79401C15.0811 7.91449 15.2237 8.25242 15.1039 8.54847C15.0202 8.75492 14.8306 8.88714 14.6235 8.90772C14.5228 8.918 14.4494 9.00763 14.4589 9.10827C14.4692 9.20965 14.5595 9.28312 14.6602 9.27284ZM6.8797 6.59873V8.14587C6.8797 8.22595 6.81505 8.29059 6.73498 8.29059H6.07821C5.99814 8.29059 5.93276 8.22595 5.93276 8.14587V6.59873C5.93276 6.51938 5.99814 6.454 6.07821 6.454H6.73498C6.81505 6.454 6.8797 6.51939 6.8797 6.59873ZM18.921 6.59873V8.14587C18.921 8.22595 18.8556 8.29059 18.7756 8.29059H18.1188C18.0387 8.29059 17.9741 8.22595 17.9741 8.14587V6.59873C17.9741 6.51938 18.0387 6.454 18.1188 6.454H18.7756C18.8556 6.454 18.921 6.51939 18.921 6.59873ZM10.7975 7.8094C10.5169 7.65586 10.4133 7.30397 10.5668 7.02334C10.666 6.84189 10.8474 6.73462 11.0399 6.72287C11.1406 6.71626 11.2177 6.62884 11.2111 6.52818C11.2052 6.4268 11.1178 6.34967 11.0164 6.35628C10.7027 6.37611 10.4059 6.5517 10.2443 6.84702C9.99379 7.30616 10.1627 7.88138 10.6212 8.13189C10.7108 8.18037 10.8224 8.14731 10.8709 8.05842C10.9194 7.96953 10.8864 7.85788 10.7975 7.8094ZM13.9711 7.28413C14.4295 7.03363 14.5985 6.45841 14.348 6C14.1878 5.70615 13.894 5.53057 13.5825 5.50926C13.4811 5.50191 13.3937 5.57832 13.3863 5.67969C13.3797 5.78034 13.4561 5.86849 13.5568 5.87511C13.7478 5.88907 13.9278 5.99559 14.0255 6.17559C14.179 6.45622 14.0754 6.80884 13.7948 6.96165C13.7059 7.01013 13.6736 7.1218 13.7221 7.21068C13.7705 7.29958 13.8822 7.33262 13.9711 7.28413Z"/>
</mask>
<path fill-rule="evenodd" clip-rule="evenodd" d="M5.99147 8.65042V11.4979H5.68366C5.58228 11.4979 5.5 11.5802 5.5 11.6816C5.5 14.9808 8.17919 17.66 11.4792 17.66H11.6724V18.46C11.6724 18.5614 11.7547 18.6437 11.856 18.6437H12.2432V20.8476C12.2432 21.2076 12.5356 21.5 12.8956 21.5H13.8315C14.1915 21.5 14.4839 21.2076 14.4839 20.8476V18.4601C14.4839 18.3029 14.6117 18.1751 14.7689 18.1751H15.7048C15.862 18.1751 15.9898 18.3029 15.9898 18.4601V20.5582C15.9898 20.6603 16.0721 20.7419 16.1735 20.7419C16.2749 20.7419 16.3572 20.6603 16.3572 20.5582V18.4601C16.3572 18.1002 16.0648 17.8078 15.7048 17.8078H14.7689C14.4089 17.8078 14.1165 18.1002 14.1165 18.4601V20.8476C14.1165 21.0048 13.9887 21.1327 13.8315 21.1327H12.8955C12.7383 21.1327 12.6105 21.0048 12.6105 20.8476V18.6437H12.9977C13.099 18.6437 13.1813 18.5614 13.1813 18.46V17.66H13.3745C16.6745 17.66 19.3537 14.9808 19.3537 11.6816C19.3537 11.5802 19.2714 11.4979 19.17 11.4979H18.8622V8.65042C19.1039 8.61001 19.2883 8.39918 19.2883 8.14572V6.59858C19.2883 6.31648 19.0584 6.08653 18.7755 6.08653H18.1188C17.8359 6.08653 17.6067 6.31648 17.6067 6.59858V8.14572C17.6067 8.42856 17.8359 8.65777 18.1188 8.65777H18.4949V11.4979H18.0284C17.927 11.4979 17.8448 11.5802 17.8448 11.6816C17.8448 14.1485 15.8415 16.1512 13.3744 16.1512H11.4791C9.01223 16.1512 7.00876 14.1487 7.00876 11.6816C7.00876 11.5802 6.92648 11.4979 6.82511 11.4979H6.35861V8.65777H6.73474C7.01757 8.65777 7.24679 8.42856 7.24679 8.14572V6.59858C7.24679 6.31648 7.01757 6.08653 6.73474 6.08653H6.07798C5.79514 6.08653 5.56519 6.31648 5.56519 6.59858V8.14572C5.56519 8.39918 5.74959 8.61002 5.99128 8.65042H5.99147ZM18.2084 11.8652H18.9835C18.8865 14.8773 16.4107 17.2926 13.3746 17.2926H12.9977C12.8963 17.2926 12.8141 17.3749 12.8141 17.4763V18.2763H12.0398V17.4763C12.0398 17.3749 11.9575 17.2926 11.8561 17.2926H11.4792C8.4429 17.2926 5.9672 14.8771 5.87035 11.8652H6.64539C6.74236 14.4496 8.87058 16.5184 11.4792 16.5184H13.3746C15.9832 16.5184 18.1116 14.4496 18.2084 11.8652ZM10.1347 4.32132C9.59919 4.32794 9.19148 4.54759 8.95787 4.8767C8.83298 5.05228 8.75658 5.26019 8.73674 5.48718C8.27244 5.73255 8.02047 6.13293 7.99623 6.55828C7.98962 6.68831 8.00358 6.82274 8.04104 6.95572C7.70606 7.30394 7.53855 7.69183 7.54444 8.06647C7.54737 8.26556 7.59807 8.46245 7.70165 8.65051C7.10072 9.51885 7.08457 10.606 7.83609 11.3489C7.82213 11.4282 7.81551 11.509 7.81551 11.5906C7.81625 12.2055 8.22029 12.8578 8.91378 13.1451C9.64034 14.4351 11.6951 14.7245 12.4269 13.3868C13.1585 14.7245 15.2132 14.4351 15.9399 13.1451C16.6334 12.8578 17.0375 12.2055 17.0382 11.5906C17.0382 11.509 17.0316 11.4282 17.0176 11.3489C17.7692 10.6062 17.753 9.51817 17.1521 8.65051C17.2556 8.46245 17.3063 8.26556 17.3093 8.06647C17.3152 7.69181 17.1477 7.30392 16.8127 6.95572C16.8501 6.82275 16.8641 6.68831 16.8568 6.55828C16.8332 6.13293 16.5813 5.73255 16.117 5.48718C16.0971 5.26019 16.0207 5.05228 15.8958 4.8767C15.6622 4.54759 15.2545 4.32793 14.719 4.32132C14.2606 3.53013 13.2181 3.21497 12.4268 3.80634C11.6356 3.21497 10.5933 3.53011 10.1347 4.32132ZM14.8804 4.69966C14.9238 4.84658 14.9487 5.0038 14.9517 5.16982C14.9539 5.2712 14.8738 5.35568 14.7724 5.35715C14.671 5.35936 14.5866 5.27928 14.5851 5.1779C14.5623 4.11121 13.4104 3.48824 12.6104 4.12885V5.21097C12.6104 5.31234 12.5281 5.39462 12.4267 5.39462C12.3254 5.39462 12.2431 5.31234 12.2431 5.21097V4.12885C11.4431 3.48826 10.2911 4.11122 10.2684 5.1779C10.2669 5.27928 10.1824 5.35936 10.0811 5.35715C9.97968 5.35568 9.8996 5.2712 9.90181 5.16982C9.90474 5.0038 9.92972 4.84657 9.97306 4.69966C9.65424 4.73859 9.40667 4.87964 9.25753 5.08974C9.07093 5.352 9.04449 5.71418 9.20684 6.09325C9.24725 6.18581 9.2039 6.29453 9.1106 6.3342C9.01804 6.3746 8.90932 6.33126 8.86965 6.23796C8.82043 6.12409 8.78517 6.0117 8.7624 5.90222C8.51776 6.0778 8.37744 6.31875 8.36349 6.57883C8.35688 6.69563 8.37524 6.81538 8.42006 6.93292C8.42153 6.93806 8.42373 6.94247 8.4252 6.94761C8.51115 7.16581 8.68526 7.37738 8.94825 7.55663C9.03273 7.61319 9.05404 7.7278 8.99747 7.81155C8.94017 7.8953 8.8263 7.91734 8.74255 7.86004C8.50526 7.69915 8.32822 7.5155 8.20626 7.32228C8.01157 7.55883 7.908 7.81155 7.91167 8.06132C7.91608 8.36986 8.08798 8.66445 8.42885 8.90909C8.51113 8.96786 8.53023 9.0832 8.47146 9.16548C8.41195 9.24776 8.29735 9.26686 8.21507 9.20735C8.10781 9.13095 8.01452 9.04941 7.93444 8.96565C7.53846 9.61139 7.50835 10.3798 7.97264 10.9535C8.0483 10.8132 8.15189 10.6839 8.28633 10.5708C8.36347 10.5054 8.47953 10.5149 8.54492 10.5928C8.61031 10.6699 8.60076 10.786 8.52288 10.8514C8.20919 11.1158 8.12544 11.5052 8.21948 11.8718C8.36787 12.4507 8.9519 12.9693 9.79966 12.9245C9.90104 12.9187 9.98773 12.9965 9.99286 13.0979C9.99801 13.1993 9.92087 13.286 9.81949 13.2911C9.69681 13.2977 9.57854 13.2948 9.4654 13.2823C10.2588 14.1462 11.8749 14.1918 12.2431 12.8628V12.3199C12.2431 12.2185 12.3254 12.1363 12.4268 12.1363C12.5282 12.1363 12.6105 12.2185 12.6105 12.3199V12.8628C12.9785 14.1918 14.5947 14.1462 15.3882 13.2823C15.2751 13.2948 15.1568 13.2977 15.0341 13.2911C14.9327 13.286 14.8556 13.1993 14.8607 13.0979C14.8659 12.9965 14.9525 12.9187 15.0539 12.9245C15.9017 12.9693 16.4857 12.4507 16.6341 11.8718C16.7281 11.5052 16.6444 11.1159 16.3307 10.8514C16.2528 10.786 16.2433 10.6699 16.3087 10.5928C16.374 10.5149 16.4901 10.5054 16.5673 10.5708C16.7017 10.6839 16.8053 10.8132 16.8809 10.9535C17.3452 10.3798 17.3151 9.61134 16.9191 8.96565C16.8391 9.0494 16.7458 9.13094 16.6385 9.20735C16.5562 9.26686 16.4416 9.24776 16.3821 9.16548C16.3234 9.0832 16.3425 8.96786 16.4247 8.90909C16.7656 8.66445 16.9375 8.36986 16.9419 8.06132C16.9456 7.81155 16.842 7.55883 16.6473 7.32228C16.5254 7.51548 16.3483 7.69914 16.111 7.86004C16.0273 7.91734 15.9134 7.8953 15.8561 7.81155C15.7995 7.7278 15.8209 7.6132 15.9053 7.55663C16.1683 7.37738 16.3424 7.16581 16.4284 6.94761C16.4299 6.94247 16.4321 6.93806 16.4335 6.93292C16.4783 6.81538 16.4967 6.69564 16.4901 6.57883C16.4761 6.31877 16.3358 6.0778 16.0912 5.90222C16.0684 6.01168 16.0332 6.12408 15.9839 6.23796C15.9443 6.33126 15.8355 6.3746 15.743 6.3342C15.6497 6.29453 15.6063 6.1858 15.6467 6.09325C15.8091 5.71418 15.7827 5.352 15.5961 5.08974C15.4469 4.87964 15.1992 4.73859 14.8804 4.69966ZM11.5033 12.3355C11.1889 12.2782 10.9795 11.977 11.0368 11.6619C11.0941 11.3474 11.3961 11.1388 11.7105 11.1961C11.8096 11.2137 11.9059 11.1476 11.9235 11.0477C11.9419 10.9478 11.8758 10.8523 11.7758 10.8347C11.2616 10.7406 10.7687 11.0822 10.6754 11.5965C10.5821 12.1107 10.9237 12.6037 11.4379 12.697C11.5371 12.7153 11.6333 12.6485 11.6509 12.5493C11.6693 12.4494 11.6032 12.3539 11.5033 12.3355ZM14.414 11.7361C14.6851 11.4451 14.7527 11.0022 14.5506 10.6348C14.2987 10.1772 13.7227 10.0097 13.265 10.2616C13.1762 10.3101 13.1438 10.4218 13.1931 10.5107C13.2415 10.5996 13.3532 10.6319 13.4421 10.5834C13.7227 10.4291 14.0746 10.532 14.2289 10.8119C14.3523 11.0367 14.3112 11.3077 14.1451 11.4863C14.0761 11.5604 14.0805 11.6765 14.1547 11.7456C14.2281 11.8146 14.3449 11.8103 14.414 11.7361ZM10.0106 10.4527C9.85929 10.3344 9.76892 10.1441 9.78876 9.93914C9.81889 9.62105 10.1017 9.38743 10.4198 9.41756C10.5212 9.42711 10.6108 9.35291 10.6204 9.25226C10.6299 9.15089 10.5557 9.06127 10.4551 9.05171C9.93496 9.00249 9.47213 9.38449 9.42292 9.90463C9.39059 10.2396 9.53825 10.5504 9.78583 10.7428C9.8659 10.8045 9.98125 10.7899 10.0437 10.7098C10.1054 10.6297 10.0914 10.5144 10.0106 10.4527ZM12.5098 9.22803C12.2292 9.07375 12.1271 8.72186 12.2814 8.44123C12.36 8.29725 12.4915 8.20028 12.6384 8.16133C12.7368 8.13489 12.7949 8.03424 12.7684 7.9358C12.742 7.8381 12.6413 7.78006 12.5436 7.80651C12.3034 7.87116 12.0889 8.0291 11.9596 8.26419C11.7076 8.72186 11.8751 9.29782 12.3328 9.54979C12.4217 9.59901 12.5333 9.56595 12.5818 9.47779C12.6311 9.3889 12.5987 9.27724 12.5098 9.22803ZM14.6602 9.27284C14.9989 9.23904 15.3074 9.0238 15.444 8.6866C15.6402 8.20248 15.4066 7.65003 14.9225 7.45388C14.8284 7.41568 14.7212 7.46123 14.6837 7.55526C14.6455 7.64929 14.6911 7.75655 14.7844 7.79401C15.0811 7.91449 15.2237 8.25242 15.1039 8.54847C15.0202 8.75492 14.8306 8.88714 14.6235 8.90772C14.5228 8.918 14.4494 9.00763 14.4589 9.10827C14.4692 9.20965 14.5595 9.28312 14.6602 9.27284ZM6.8797 6.59873V8.14587C6.8797 8.22595 6.81505 8.29059 6.73498 8.29059H6.07821C5.99814 8.29059 5.93276 8.22595 5.93276 8.14587V6.59873C5.93276 6.51938 5.99814 6.454 6.07821 6.454H6.73498C6.81505 6.454 6.8797 6.51939 6.8797 6.59873ZM18.921 6.59873V8.14587C18.921 8.22595 18.8556 8.29059 18.7756 8.29059H18.1188C18.0387 8.29059 17.9741 8.22595 17.9741 8.14587V6.59873C17.9741 6.51938 18.0387 6.454 18.1188 6.454H18.7756C18.8556 6.454 18.921 6.51939 18.921 6.59873ZM10.7975 7.8094C10.5169 7.65586 10.4133 7.30397 10.5668 7.02334C10.666 6.84189 10.8474 6.73462 11.0399 6.72287C11.1406 6.71626 11.2177 6.62884 11.2111 6.52818C11.2052 6.4268 11.1178 6.34967 11.0164 6.35628C10.7027 6.37611 10.4059 6.5517 10.2443 6.84702C9.99379 7.30616 10.1627 7.88138 10.6212 8.13189C10.7108 8.18037 10.8224 8.14731 10.8709 8.05842C10.9194 7.96953 10.8864 7.85788 10.7975 7.8094ZM13.9711 7.28413C14.4295 7.03363 14.5985 6.45841 14.348 6C14.1878 5.70615 13.894 5.53057 13.5825 5.50926C13.4811 5.50191 13.3937 5.57832 13.3863 5.67969C13.3797 5.78034 13.4561 5.86849 13.5568 5.87511C13.7478 5.88907 13.9278 5.99559 14.0255 6.17559C14.179 6.45622 14.0754 6.80884 13.7948 6.96165C13.7059 7.01013 13.6736 7.1218 13.7221 7.21068C13.7705 7.29958 13.8822 7.33262 13.9711 7.28413Z" fill="#00625B"/>
<path fill-rule="evenodd" clip-rule="evenodd" d="M5.99147 8.65042V11.4979H5.68366C5.58228 11.4979 5.5 11.5802 5.5 11.6816C5.5 14.9808 8.17919 17.66 11.4792 17.66H11.6724V18.46C11.6724 18.5614 11.7547 18.6437 11.856 18.6437H12.2432V20.8476C12.2432 21.2076 12.5356 21.5 12.8956 21.5H13.8315C14.1915 21.5 14.4839 21.2076 14.4839 20.8476V18.4601C14.4839 18.3029 14.6117 18.1751 14.7689 18.1751H15.7048C15.862 18.1751 15.9898 18.3029 15.9898 18.4601V20.5582C15.9898 20.6603 16.0721 20.7419 16.1735 20.7419C16.2749 20.7419 16.3572 20.6603 16.3572 20.5582V18.4601C16.3572 18.1002 16.0648 17.8078 15.7048 17.8078H14.7689C14.4089 17.8078 14.1165 18.1002 14.1165 18.4601V20.8476C14.1165 21.0048 13.9887 21.1327 13.8315 21.1327H12.8955C12.7383 21.1327 12.6105 21.0048 12.6105 20.8476V18.6437H12.9977C13.099 18.6437 13.1813 18.5614 13.1813 18.46V17.66H13.3745C16.6745 17.66 19.3537 14.9808 19.3537 11.6816C19.3537 11.5802 19.2714 11.4979 19.17 11.4979H18.8622V8.65042C19.1039 8.61001 19.2883 8.39918 19.2883 8.14572V6.59858C19.2883 6.31648 19.0584 6.08653 18.7755 6.08653H18.1188C17.8359 6.08653 17.6067 6.31648 17.6067 6.59858V8.14572C17.6067 8.42856 17.8359 8.65777 18.1188 8.65777H18.4949V11.4979H18.0284C17.927 11.4979 17.8448 11.5802 17.8448 11.6816C17.8448 14.1485 15.8415 16.1512 13.3744 16.1512H11.4791C9.01223 16.1512 7.00876 14.1487 7.00876 11.6816C7.00876 11.5802 6.92648 11.4979 6.82511 11.4979H6.35861V8.65777H6.73474C7.01757 8.65777 7.24679 8.42856 7.24679 8.14572V6.59858C7.24679 6.31648 7.01757 6.08653 6.73474 6.08653H6.07798C5.79514 6.08653 5.56519 6.31648 5.56519 6.59858V8.14572C5.56519 8.39918 5.74959 8.61002 5.99128 8.65042H5.99147ZM18.2084 11.8652H18.9835C18.8865 14.8773 16.4107 17.2926 13.3746 17.2926H12.9977C12.8963 17.2926 12.8141 17.3749 12.8141 17.4763V18.2763H12.0398V17.4763C12.0398 17.3749 11.9575 17.2926 11.8561 17.2926H11.4792C8.4429 17.2926 5.9672 14.8771 5.87035 11.8652H6.64539C6.74236 14.4496 8.87058 16.5184 11.4792 16.5184H13.3746C15.9832 16.5184 18.1116 14.4496 18.2084 11.8652ZM10.1347 4.32132C9.59919 4.32794 9.19148 4.54759 8.95787 4.8767C8.83298 5.05228 8.75658 5.26019 8.73674 5.48718C8.27244 5.73255 8.02047 6.13293 7.99623 6.55828C7.98962 6.68831 8.00358 6.82274 8.04104 6.95572C7.70606 7.30394 7.53855 7.69183 7.54444 8.06647C7.54737 8.26556 7.59807 8.46245 7.70165 8.65051C7.10072 9.51885 7.08457 10.606 7.83609 11.3489C7.82213 11.4282 7.81551 11.509 7.81551 11.5906C7.81625 12.2055 8.22029 12.8578 8.91378 13.1451C9.64034 14.4351 11.6951 14.7245 12.4269 13.3868C13.1585 14.7245 15.2132 14.4351 15.9399 13.1451C16.6334 12.8578 17.0375 12.2055 17.0382 11.5906C17.0382 11.509 17.0316 11.4282 17.0176 11.3489C17.7692 10.6062 17.753 9.51817 17.1521 8.65051C17.2556 8.46245 17.3063 8.26556 17.3093 8.06647C17.3152 7.69181 17.1477 7.30392 16.8127 6.95572C16.8501 6.82275 16.8641 6.68831 16.8568 6.55828C16.8332 6.13293 16.5813 5.73255 16.117 5.48718C16.0971 5.26019 16.0207 5.05228 15.8958 4.8767C15.6622 4.54759 15.2545 4.32793 14.719 4.32132C14.2606 3.53013 13.2181 3.21497 12.4268 3.80634C11.6356 3.21497 10.5933 3.53011 10.1347 4.32132ZM14.8804 4.69966C14.9238 4.84658 14.9487 5.0038 14.9517 5.16982C14.9539 5.2712 14.8738 5.35568 14.7724 5.35715C14.671 5.35936 14.5866 5.27928 14.5851 5.1779C14.5623 4.11121 13.4104 3.48824 12.6104 4.12885V5.21097C12.6104 5.31234 12.5281 5.39462 12.4267 5.39462C12.3254 5.39462 12.2431 5.31234 12.2431 5.21097V4.12885C11.4431 3.48826 10.2911 4.11122 10.2684 5.1779C10.2669 5.27928 10.1824 5.35936 10.0811 5.35715C9.97968 5.35568 9.8996 5.2712 9.90181 5.16982C9.90474 5.0038 9.92972 4.84657 9.97306 4.69966C9.65424 4.73859 9.40667 4.87964 9.25753 5.08974C9.07093 5.352 9.04449 5.71418 9.20684 6.09325C9.24725 6.18581 9.2039 6.29453 9.1106 6.3342C9.01804 6.3746 8.90932 6.33126 8.86965 6.23796C8.82043 6.12409 8.78517 6.0117 8.7624 5.90222C8.51776 6.0778 8.37744 6.31875 8.36349 6.57883C8.35688 6.69563 8.37524 6.81538 8.42006 6.93292C8.42153 6.93806 8.42373 6.94247 8.4252 6.94761C8.51115 7.16581 8.68526 7.37738 8.94825 7.55663C9.03273 7.61319 9.05404 7.7278 8.99747 7.81155C8.94017 7.8953 8.8263 7.91734 8.74255 7.86004C8.50526 7.69915 8.32822 7.5155 8.20626 7.32228C8.01157 7.55883 7.908 7.81155 7.91167 8.06132C7.91608 8.36986 8.08798 8.66445 8.42885 8.90909C8.51113 8.96786 8.53023 9.0832 8.47146 9.16548C8.41195 9.24776 8.29735 9.26686 8.21507 9.20735C8.10781 9.13095 8.01452 9.04941 7.93444 8.96565C7.53846 9.61139 7.50835 10.3798 7.97264 10.9535C8.0483 10.8132 8.15189 10.6839 8.28633 10.5708C8.36347 10.5054 8.47953 10.5149 8.54492 10.5928C8.61031 10.6699 8.60076 10.786 8.52288 10.8514C8.20919 11.1158 8.12544 11.5052 8.21948 11.8718C8.36787 12.4507 8.9519 12.9693 9.79966 12.9245C9.90104 12.9187 9.98773 12.9965 9.99286 13.0979C9.99801 13.1993 9.92087 13.286 9.81949 13.2911C9.69681 13.2977 9.57854 13.2948 9.4654 13.2823C10.2588 14.1462 11.8749 14.1918 12.2431 12.8628V12.3199C12.2431 12.2185 12.3254 12.1363 12.4268 12.1363C12.5282 12.1363 12.6105 12.2185 12.6105 12.3199V12.8628C12.9785 14.1918 14.5947 14.1462 15.3882 13.2823C15.2751 13.2948 15.1568 13.2977 15.0341 13.2911C14.9327 13.286 14.8556 13.1993 14.8607 13.0979C14.8659 12.9965 14.9525 12.9187 15.0539 12.9245C15.9017 12.9693 16.4857 12.4507 16.6341 11.8718C16.7281 11.5052 16.6444 11.1159 16.3307 10.8514C16.2528 10.786 16.2433 10.6699 16.3087 10.5928C16.374 10.5149 16.4901 10.5054 16.5673 10.5708C16.7017 10.6839 16.8053 10.8132 16.8809 10.9535C17.3452 10.3798 17.3151 9.61134 16.9191 8.96565C16.8391 9.0494 16.7458 9.13094 16.6385 9.20735C16.5562 9.26686 16.4416 9.24776 16.3821 9.16548C16.3234 9.0832 16.3425 8.96786 16.4247 8.90909C16.7656 8.66445 16.9375 8.36986 16.9419 8.06132C16.9456 7.81155 16.842 7.55883 16.6473 7.32228C16.5254 7.51548 16.3483 7.69914 16.111 7.86004C16.0273 7.91734 15.9134 7.8953 15.8561 7.81155C15.7995 7.7278 15.8209 7.6132 15.9053 7.55663C16.1683 7.37738 16.3424 7.16581 16.4284 6.94761C16.4299 6.94247 16.4321 6.93806 16.4335 6.93292C16.4783 6.81538 16.4967 6.69564 16.4901 6.57883C16.4761 6.31877 16.3358 6.0778 16.0912 5.90222C16.0684 6.01168 16.0332 6.12408 15.9839 6.23796C15.9443 6.33126 15.8355 6.3746 15.743 6.3342C15.6497 6.29453 15.6063 6.1858 15.6467 6.09325C15.8091 5.71418 15.7827 5.352 15.5961 5.08974C15.4469 4.87964 15.1992 4.73859 14.8804 4.69966ZM11.5033 12.3355C11.1889 12.2782 10.9795 11.977 11.0368 11.6619C11.0941 11.3474 11.3961 11.1388 11.7105 11.1961C11.8096 11.2137 11.9059 11.1476 11.9235 11.0477C11.9419 10.9478 11.8758 10.8523 11.7758 10.8347C11.2616 10.7406 10.7687 11.0822 10.6754 11.5965C10.5821 12.1107 10.9237 12.6037 11.4379 12.697C11.5371 12.7153 11.6333 12.6485 11.6509 12.5493C11.6693 12.4494 11.6032 12.3539 11.5033 12.3355ZM14.414 11.7361C14.6851 11.4451 14.7527 11.0022 14.5506 10.6348C14.2987 10.1772 13.7227 10.0097 13.265 10.2616C13.1762 10.3101 13.1438 10.4218 13.1931 10.5107C13.2415 10.5996 13.3532 10.6319 13.4421 10.5834C13.7227 10.4291 14.0746 10.532 14.2289 10.8119C14.3523 11.0367 14.3112 11.3077 14.1451 11.4863C14.0761 11.5604 14.0805 11.6765 14.1547 11.7456C14.2281 11.8146 14.3449 11.8103 14.414 11.7361ZM10.0106 10.4527C9.85929 10.3344 9.76892 10.1441 9.78876 9.93914C9.81889 9.62105 10.1017 9.38743 10.4198 9.41756C10.5212 9.42711 10.6108 9.35291 10.6204 9.25226C10.6299 9.15089 10.5557 9.06127 10.4551 9.05171C9.93496 9.00249 9.47213 9.38449 9.42292 9.90463C9.39059 10.2396 9.53825 10.5504 9.78583 10.7428C9.8659 10.8045 9.98125 10.7899 10.0437 10.7098C10.1054 10.6297 10.0914 10.5144 10.0106 10.4527ZM12.5098 9.22803C12.2292 9.07375 12.1271 8.72186 12.2814 8.44123C12.36 8.29725 12.4915 8.20028 12.6384 8.16133C12.7368 8.13489 12.7949 8.03424 12.7684 7.9358C12.742 7.8381 12.6413 7.78006 12.5436 7.80651C12.3034 7.87116 12.0889 8.0291 11.9596 8.26419C11.7076 8.72186 11.8751 9.29782 12.3328 9.54979C12.4217 9.59901 12.5333 9.56595 12.5818 9.47779C12.6311 9.3889 12.5987 9.27724 12.5098 9.22803ZM14.6602 9.27284C14.9989 9.23904 15.3074 9.0238 15.444 8.6866C15.6402 8.20248 15.4066 7.65003 14.9225 7.45388C14.8284 7.41568 14.7212 7.46123 14.6837 7.55526C14.6455 7.64929 14.6911 7.75655 14.7844 7.79401C15.0811 7.91449 15.2237 8.25242 15.1039 8.54847C15.0202 8.75492 14.8306 8.88714 14.6235 8.90772C14.5228 8.918 14.4494 9.00763 14.4589 9.10827C14.4692 9.20965 14.5595 9.28312 14.6602 9.27284ZM6.8797 6.59873V8.14587C6.8797 8.22595 6.81505 8.29059 6.73498 8.29059H6.07821C5.99814 8.29059 5.93276 8.22595 5.93276 8.14587V6.59873C5.93276 6.51938 5.99814 6.454 6.07821 6.454H6.73498C6.81505 6.454 6.8797 6.51939 6.8797 6.59873ZM18.921 6.59873V8.14587C18.921 8.22595 18.8556 8.29059 18.7756 8.29059H18.1188C18.0387 8.29059 17.9741 8.22595 17.9741 8.14587V6.59873C17.9741 6.51938 18.0387 6.454 18.1188 6.454H18.7756C18.8556 6.454 18.921 6.51939 18.921 6.59873ZM10.7975 7.8094C10.5169 7.65586 10.4133 7.30397 10.5668 7.02334C10.666 6.84189 10.8474 6.73462 11.0399 6.72287C11.1406 6.71626 11.2177 6.62884 11.2111 6.52818C11.2052 6.4268 11.1178 6.34967 11.0164 6.35628C10.7027 6.37611 10.4059 6.5517 10.2443 6.84702C9.99379 7.30616 10.1627 7.88138 10.6212 8.13189C10.7108 8.18037 10.8224 8.14731 10.8709 8.05842C10.9194 7.96953 10.8864 7.85788 10.7975 7.8094ZM13.9711 7.28413C14.4295 7.03363 14.5985 6.45841 14.348 6C14.1878 5.70615 13.894 5.53057 13.5825 5.50926C13.4811 5.50191 13.3937 5.57832 13.3863 5.67969C13.3797 5.78034 13.4561 5.86849 13.5568 5.87511C13.7478 5.88907 13.9278 5.99559 14.0255 6.17559C14.179 6.45622 14.0754 6.80884 13.7948 6.96165C13.7059 7.01013 13.6736 7.1218 13.7221 7.21068C13.7705 7.29958 13.8822 7.33262 13.9711 7.28413Z" stroke="#00625B" stroke-width="0.05" mask="url(#path-1-outside-1_20_96)"/>
</svg>
