<svg width="77" height="22" viewBox="0 0 77 22" fill="none" xmlns="http://www.w3.org/2000/svg">
<g clip-path="url(#clip0_928_2662)">
<path d="M46.8392 5.5921C50.3817 6.06275 49.6659 1.30891 51.9885 0.0222819C53.8377 0.414954 49.7356 6.1825 49.9054 7.26026C52.4091 6.69771 52.9883 9.65529 54.9155 10.3237C54.1636 8.73905 56.2968 4.08825 57.7617 6.50555C58.4746 7.68357 58.249 8.35473 57.7032 9.48819C59.285 9.54111 60.9949 9.42971 62.5545 9.5968C62.7884 9.62187 64.7518 9.71377 64.1085 10.3237C62.755 10.5576 61.3542 10.7108 59.9924 10.8027C59.4688 10.8389 57.4498 10.6077 57.3272 10.6634C56.7424 10.9224 56.8816 11.8498 55.9153 11.7273C55.7872 11.7106 53.5564 10.9642 53.4423 10.9001C52.54 10.3849 50.8996 7.27419 49.613 9.0621C49.1619 9.68871 49.3234 11.5073 48.3682 11.3736C46.8337 11.1564 48.7664 6.94557 48.5102 6.71164C44.5751 6.31061 46.1709 12.4597 42.8011 13.9496C42.2998 12.6463 40.395 13.3926 39.178 12.8273C38.4232 12.8914 38.2645 14.0387 37.7131 14.5094C34.7277 17.0576 34.2347 10.073 36.5211 7.95092C38.3453 6.25491 39.5094 8.59424 38.7602 10.3292C36.5713 7.77269 36.3178 11.5518 36.5379 13.3926C38.0696 12.9833 38.3091 11.989 37.9303 10.6105C39.164 10.2234 39.1724 11.3931 39.7962 11.666C40.3782 11.9194 42.6981 12.184 43.2244 11.8665C43.7508 11.549 44.8982 7.27976 44.6113 6.99013L42.1355 7.02355L41.6872 8.38258C39.7879 5.68401 44.2743 6.19643 45.0207 5.31361C45.7281 4.47814 45.3911 0.281279 46.4243 0.0306366C48.1844 -0.395455 46.3853 5.15487 46.8392 5.60046V5.5921Z" fill="black"/>
<path d="M74.9111 14.5873C76.2367 14.5205 78.0636 14.6152 76.22 15.8962L63.1337 16.456C50.6824 16.9795 38.4065 19.5667 26.0861 20.9035C25.6099 20.9564 22.4128 21.1569 22.2234 21.1179C21.9226 21.0594 21.711 20.689 21.4965 20.4857C21.3991 20.0569 21.8252 19.8647 22.1956 19.7979C27.2028 18.9039 32.419 18.7145 37.4736 18.0879C50.0781 16.5228 62.1924 15.225 74.9083 14.5845L74.9111 14.5873Z" fill="black"/>
<path d="M32.3549 15.0607C31.7979 15.1359 31.901 15.1109 31.7311 14.7154C31.0906 13.2171 31.9372 11.8024 32.0792 10.3264C30.6923 11.4376 29.6452 11.2565 28.1803 10.4461C27.2585 11.1563 26.7461 13.8326 25.7825 14.1946C25.582 14.2698 25.0696 14.3701 25.1253 14.0164L25.1058 13.4204C23.7802 13.4761 22.7665 13.4037 21.9171 12.2842C20.9785 13.167 20.8003 14.8463 19.3967 15.0023C17.5642 13.0417 19.5777 7.23792 22.4907 8.36581C23.0561 9.17065 21.7193 12.1227 24.4151 12.0252C26.4314 11.9528 25.8911 10.6996 26.3841 9.78333C26.5094 9.5494 27.9352 7.58325 28.0717 7.55819C29.1383 7.61945 28.8598 9.0509 29.4085 9.52433C30.1353 10.1036 31.3273 9.47142 31.9455 8.94229C32.639 8.3491 32.9954 6.73385 33.8894 6.99285C34.9477 7.29919 33.6471 8.89216 33.5357 9.41851C33.402 10.0563 33.5886 10.7497 33.4605 11.2928C33.1765 12.4958 32.6028 13.8242 32.3577 15.0663L32.3549 15.0607ZM20.1069 12.5543C21.1484 12.5098 21.271 10.5436 21.4937 9.77219C20.4995 10.6077 19.8033 11.0672 20.1069 12.5543Z" fill="black"/>
<path d="M15.6513 3.08292L15.927 1.69325C13.1448 2.02186 12.8079 3.94345 13.2117 6.5C13.7241 9.73328 17.7204 13.0863 13.2117 15.5454C10.4741 17.0381 5.1605 17.7343 2.21963 16.6594C-0.721231 15.5844 -0.877186 11.6465 2.28369 11.5797C-0.807564 14.8436 3.32524 16.2667 6.28004 16.1581C7.82009 16.0996 12.9248 14.7851 13.894 13.5876C14.8631 12.3901 12.8886 9.63024 12.4542 8.37425C11.6521 6.04049 11.265 2.23073 13.8745 0.893976C17.0827 -0.749122 19.9957 1.77401 15.6513 3.0857V3.08292Z" fill="black"/>
</g>
<defs>
<clipPath id="clip0_928_2662">
<rect width="77" height="21.1235" fill="white"/>
</clipPath>
</defs>
</svg>
