<svg width="14" height="20" viewBox="0 0 14 20" fill="none" xmlns="http://www.w3.org/2000/svg">
<path d="M6.19336 0.950195C8.75122 0.653618 11.1153 2.1198 11.6816 4.38086L11.6826 4.38477C11.869 5.29405 12.0163 6.27566 11.8203 7.2793C11.789 7.43968 11.6325 7.54264 11.4736 7.51172C11.3141 7.48082 11.2082 7.32731 11.2393 7.16699C11.4142 6.27131 11.2803 5.36774 11.1055 4.5127V4.51367C10.6168 2.56345 8.53823 1.26957 6.26074 1.53516C5.13239 1.66649 3.95914 2.221 3.06055 3.33301C2.16181 4.44528 1.5324 6.12145 1.50488 8.50293V8.50391C1.41806 12.5685 4.34937 16.0835 7.11523 17.626C8.81203 18.5728 10.3834 18.7435 11.335 18.1367C12.2062 17.5802 12.6132 16.365 12.4678 14.5762V14.5752C12.4549 14.4128 12.5772 14.2734 12.7383 14.2598L12.7979 14.2607C12.9341 14.2774 13.0445 14.3875 13.0566 14.5293L13.083 14.9824C13.1555 17.1681 12.3712 18.1752 11.6523 18.6328L11.6514 18.6338C11.1439 18.9435 10.5571 19.1005 9.96191 19.0859H9.96094L9.95996 19.0869V19.0859C9.02349 19.0855 7.9468 18.7646 6.82617 18.1396C3.91681 16.5177 0.821693 12.8099 0.914062 8.49414L0.927734 8.02637C1.03089 5.72584 1.69165 4.06081 2.62793 2.92188C3.62669 1.70706 4.93413 1.0965 6.19336 0.950195ZM7.44531 2.30566V2.30664C8.66072 2.33925 9.56456 3.07096 9.93262 4.29883C10.3464 5.67772 9.9724 7.70215 8.48242 8.83984L8.33496 8.94727C8.20164 9.03866 8.01759 9.00596 7.9248 8.87305C7.83086 8.73921 7.86473 8.55571 7.99805 8.46289L8.19336 8.31543C8.5924 7.99004 8.9096 7.57773 9.12598 7.11133C7.95187 7.33948 7.03648 7.69418 6.40332 8.15527C5.74323 8.63606 5.39233 9.22873 5.36426 9.91309C5.33188 10.7159 5.76532 11.6092 6.47949 12.3691C7.19212 13.1273 8.17374 13.7413 9.21387 13.9922L9.21484 13.9932C9.61747 14.094 10.0429 13.9542 10.3047 13.6348L10.3057 13.6328C10.5864 13.3033 10.6546 12.8437 10.4824 12.4482C10.298 12.0906 10.2363 11.6853 10.3008 11.291H10.2949L10.3193 11.1836C10.4232 10.7309 10.4544 10.353 10.4199 10.0742C10.3893 9.8269 10.3101 9.67693 10.2051 9.60645L10.1582 9.58105C10.0083 9.51728 9.75142 9.55894 9.43555 9.75684C9.16436 9.9268 8.86567 10.2032 8.58398 10.5869L8.46387 10.7578C8.37406 10.8918 8.19128 10.9297 8.05566 10.8398C7.96213 10.7783 7.91634 10.6729 7.92578 10.5684H7.88086L7.97168 10.4316L8.11035 10.2334C8.44128 9.78358 8.81339 9.43501 9.18262 9.21777C9.60277 8.97059 10.0324 8.88658 10.3906 9.03906C10.5734 9.11672 10.7962 9.2857 10.9229 9.64258C11.0482 9.9958 11.0771 10.5261 10.8936 11.3242C10.8277 11.6216 10.8715 11.9333 11.0186 12.2012L11.0225 12.208L11.0674 12.3223C11.2731 12.8971 11.1579 13.5426 10.7568 14.0127L10.7559 14.0117C10.4428 14.3915 9.97564 14.6124 9.48242 14.6133C9.34494 14.6133 9.20794 14.5977 9.07422 14.5645V14.5635C7.89049 14.2778 6.798 13.5927 6.01074 12.7402C5.2245 11.8888 4.73415 10.861 4.77344 9.88965C4.79403 9.38006 4.97303 8.67727 5.64453 8.02344C6.30791 7.37758 7.44448 6.78635 9.3623 6.4668C9.54449 5.81246 9.5464 5.12036 9.36621 4.46484V4.46387C9.0716 3.48587 8.37076 2.92052 7.44141 2.89453C6.56439 2.91496 5.81017 3.18987 5.20605 3.69141C4.60084 4.19398 4.14127 4.92925 3.86133 5.87793C3.42586 7.35519 3.49232 9.2791 4.05176 11.0918C4.61123 12.9044 5.65966 14.5945 7.17578 15.6113L7.2207 15.6484C7.2481 15.6758 7.27023 15.7077 7.28516 15.7432L7.30176 15.7988L7.30273 15.7998C7.31763 15.8763 7.30057 15.955 7.25684 16.0195C7.21285 16.0852 7.14542 16.1306 7.06836 16.1455H7.06738C6.99119 16.1591 6.91194 16.1438 6.84668 16.1006V16.0996C5.19025 14.9885 4.06504 13.1966 3.47266 11.2842C2.88041 9.37219 2.81688 7.33027 3.29395 5.71191C3.60888 4.64303 4.13422 3.8021 4.83887 3.22266C5.54411 2.64279 6.42441 2.32925 7.44141 2.30664L7.44531 2.30566Z" fill="#00625B" stroke="#00635B" stroke-width="0.175"/>
</svg>
