<svg width="18" height="10" viewBox="0 0 18 10" fill="none" xmlns="http://www.w3.org/2000/svg">
<path d="M9.00026 7.04252C10.3432 7.04252 11.4366 5.94915 11.4366 4.60622C11.4366 3.26329 10.3432 2.16992 9.00026 2.16992C7.65733 2.16992 6.56396 3.26329 6.56396 4.60622C6.56396 5.94915 7.65733 7.04252 9.00026 7.04252ZM9.00026 2.83345C9.97672 2.83345 10.773 3.62796 10.773 4.6062C10.773 5.58531 9.97849 6.37895 9.00026 6.37895C8.02115 6.37895 7.22751 5.58443 7.22751 4.6062C7.22751 3.62709 8.02203 2.83345 9.00026 2.83345Z" fill="#00625B"/>
<path d="M8.10459 5.50117C7.38036 4.26806 8.6627 2.98748 9.89579 3.70997C9.72704 3.40586 9.37635 3.19493 9.00018 3.16505C7.71961 3.03497 6.98398 4.79366 8.10456 5.50032L8.10459 5.50117Z" fill="#00625B"/>
<path d="M8.65803 9.56281C8.77053 9.56984 8.88567 9.57599 8.99992 9.57599C9.11506 9.57599 9.22931 9.5716 9.34181 9.56281C11.9583 9.47931 14.5528 8.4422 16.5463 6.44881L18 4.99774L16.5463 3.54668C12.3838 -0.615819 5.61356 -0.615819 1.45107 3.54668L0 4.99774L1.45107 6.44881C3.44443 8.44218 6.03904 9.47933 8.65556 9.56281H8.65803ZM16.0785 4.01431L17.062 4.99781L16.0785 5.98131C14.9623 7.09751 13.644 7.89381 12.2421 8.37103C13.2994 7.45785 13.9726 6.10956 13.9726 4.60678C13.9726 3.68217 13.723 2.8024 13.2572 2.03504C14.2785 2.51404 15.2374 3.17322 16.0785 4.01697L16.0785 4.01431ZM12.0346 1.55957C12.8537 2.37168 13.3055 3.44745 13.3055 4.60584C13.3055 6.92086 11.4668 8.81131 9.17472 8.90378H8.82404C6.53107 8.8115 4.69327 6.92185 4.69327 4.60584C4.69327 3.44921 5.1459 2.37166 5.96416 1.55957C7.93554 0.936431 10.0634 0.936431 12.0346 1.55957ZM1.92109 4.01431C2.76484 3.17057 3.72109 2.51138 4.74236 2.03238C4.27655 2.79702 4.02693 3.67945 4.02693 4.60413C4.02693 6.10706 4.6993 7.45713 5.7575 8.36837C4.35563 7.89113 3.03725 7.09483 1.92103 5.97865L0.937529 4.99516L1.92103 4.01166L1.92109 4.01431Z" fill="#00625B"/>
</svg>
