<svg width="56" height="47" viewBox="0 0 56 47" fill="none" xmlns="http://www.w3.org/2000/svg">
<path d="M45.0096 26.4357C44.969 26.4357 44.9284 26.4338 44.886 26.4283C44.3827 26.3601 44.0268 25.8973 44.0951 25.3921C44.1983 24.6196 44.2499 23.8305 44.2499 23.0469C44.2499 13.3893 36.3919 5.53125 26.7343 5.53125C19.7686 5.53125 13.4648 9.65572 10.6752 16.0406C10.4724 16.5071 9.93221 16.7247 9.46206 16.5163C8.99559 16.3135 8.78171 15.7696 8.98637 15.3031C12.0691 8.2471 19.0348 3.6875 26.7343 3.6875C37.4096 3.6875 46.0937 12.3716 46.0937 23.0469C46.0937 23.9134 46.0365 24.7837 45.9222 25.6355C45.8595 26.0983 45.4631 26.4357 45.0096 26.4357Z" fill="#C8DEB8"/>
<path d="M26.7343 42.4063C19.02 42.4063 12.0488 37.8356 8.97161 30.7593C8.7688 30.2928 8.98267 29.7489 9.44914 29.5461C9.91561 29.3415 10.4577 29.5572 10.6623 30.0237C13.4464 36.4252 19.7557 40.5625 26.7343 40.5625C31.4912 40.5625 35.9401 38.6874 39.2663 35.2839C39.6221 34.9207 40.2047 34.9151 40.5698 35.2691C40.933 35.625 40.9404 36.2094 40.5845 36.5745C36.9099 40.3339 31.9908 42.4063 26.7343 42.4063Z" fill="#C8DEB8"/>
<path d="M10.1406 31.3438C7.55569 31.3438 5.53125 27.6987 5.53125 23.0469C5.53125 18.3951 7.55569 14.75 10.1406 14.75C12.7256 14.75 14.75 18.3951 14.75 23.0469C14.75 27.6987 12.7256 31.3438 10.1406 31.3438ZM10.1406 16.5938C8.83525 16.5938 7.375 19.3538 7.375 23.0469C7.375 26.7399 8.83525 29.5 10.1406 29.5C11.446 29.5 12.9062 26.7399 12.9062 23.0469C12.9062 19.3538 11.446 16.5938 10.1406 16.5938Z" fill="#C8DEB8"/>
<path d="M26.7344 46.0938C19.3926 46.0938 12.4269 42.5353 8.10144 36.5726C7.15191 35.2654 5.47962 33.5415 4.13369 32.1568L3.32981 31.3253C1.18184 29.087 0 26.1462 0 23.0469C0 19.9475 1.18184 17.0068 3.32981 14.7666L4.13369 13.9351C5.47778 12.5504 7.15191 10.8265 8.10144 9.51744C12.4269 3.55844 19.3926 0 26.7344 0C39.4433 0 49.7812 10.3379 49.7812 23.0469C49.7812 23.9005 49.7296 24.7763 49.6264 25.6503C49.5047 26.6828 50.244 28.6592 51.542 29.9572L55.0433 33.4585C55.4028 33.8181 55.4028 34.4025 55.0433 34.7621C54.6838 35.1216 54.0993 35.1216 53.7398 34.7621L50.2385 31.2608C48.6418 29.6641 47.5909 27.1584 47.7955 25.4345C47.8896 24.6325 47.9375 23.8286 47.9375 23.0469C47.9375 11.3557 38.4256 1.84375 26.7344 1.84375C19.9807 1.84375 13.5737 5.11825 9.59303 10.6016C8.56422 12.0176 6.84031 13.7931 5.45566 15.2183L4.65916 16.0425C2.84306 17.9378 1.84375 20.4251 1.84375 23.0469C1.84375 25.6687 2.84306 28.1559 4.65916 30.0494L5.45566 30.8736C6.84031 32.2988 8.56422 34.0743 9.59303 35.4903C13.5737 40.9755 19.9807 44.25 26.7344 44.25C31.8582 44.25 36.8049 42.397 40.6621 39.0303C42.3067 37.5978 45.2143 36.6611 47.5909 37.6512L54.7446 40.6326C55.2148 40.828 55.436 41.3682 55.2406 41.8384C55.0452 42.3085 54.5068 42.5335 54.0348 42.3343L46.881 39.353C45.4466 38.7556 43.247 39.2239 41.8734 40.4205C37.6807 44.0785 32.3043 46.0938 26.7344 46.0938Z" fill="#C8DEB8"/>
<path d="M54.3905 38.7191C54.2337 38.7191 54.077 38.6804 53.9295 38.5956L47.2349 34.7329C44.1318 32.9427 41.864 30.0664 40.8481 26.6315L37.6824 15.9341C37.5386 15.4455 37.817 14.9329 38.3037 14.7873C38.7923 14.6398 39.3049 14.9218 39.4506 15.4086L42.6163 26.1079C43.4976 29.0874 45.4649 31.582 48.1567 33.1363L54.8514 36.9989C55.2921 37.2533 55.4432 37.8175 55.1888 38.2582C55.0173 38.5532 54.7076 38.7191 54.3905 38.7191Z" fill="#C8DEB8"/>
<path d="M54.3905 38.7178C54.2337 38.7178 54.077 38.6791 53.9295 38.5943L47.7935 35.0561C44.8103 33.3359 41.2242 32.9727 37.9571 34.0586L29.6363 36.8261C29.155 36.9847 28.6314 36.7247 28.471 36.2416C28.3106 35.7586 28.5724 35.2368 29.0555 35.0764L37.3763 32.3089C41.1431 31.057 45.2786 31.4755 48.7154 33.4594L54.8514 36.9976C55.292 37.252 55.4432 37.8162 55.1888 38.2569C55.0173 38.5519 54.7076 38.7178 54.3905 38.7178Z" fill="#C8DEB8"/>
<path d="M39.8654 20.9831C39.8156 20.9831 39.764 20.9794 39.7124 20.9702L36.4157 20.4226C35.9142 20.3396 35.5731 19.8639 35.658 19.3624C35.7428 18.8609 36.2111 18.5125 36.7181 18.6047L40.0147 19.1522C40.5162 19.2352 40.8573 19.7109 40.7725 20.2124C40.6988 20.6641 40.3079 20.9831 39.8654 20.9831Z" fill="#C8DEB8"/>
<path d="M33.219 35.5861C33.0512 35.5861 32.8798 35.54 32.7267 35.4441L28.9304 33.0454C28.5008 32.7725 28.3718 32.2028 28.6428 31.7732C28.9157 31.3436 29.4854 31.2146 29.915 31.4856L33.7113 33.8843C34.1409 34.1572 34.2699 34.7269 33.9989 35.1565C33.8238 35.4349 33.5251 35.5861 33.219 35.5861Z" fill="#C8DEB8"/>
</svg>
