<svg width="15" height="12" viewBox="0 0 15 12" fill="none" xmlns="http://www.w3.org/2000/svg">
<path d="M8 6C8.27614 6 8.5 5.77614 8.5 5.5C8.5 5.22386 8.27614 5 8 5C7.72386 5 7.5 5.22386 7.5 5.5C7.5 5.77614 7.72386 6 8 6Z" stroke="#00635B" stroke-linecap="round" stroke-linejoin="round"/>
<path d="M7.5 9C9.15685 9 10.5 7.65685 10.5 6C10.5 4.34315 9.15685 3 7.5 3C5.84315 3 4.5 4.34315 4.5 6C4.5 7.65685 5.84315 9 7.5 9Z" stroke="#00635B" stroke-linecap="round" stroke-linejoin="round"/>
<path d="M0.5 6C0.5 6 3 1 7.5 1C12 1 14.5 6 14.5 6C14.5 6 12 11 7.5 11C3 11 0.5 6 0.5 6Z" stroke="#00635B" stroke-linecap="round" stroke-linejoin="round"/>
</svg>
