<svg width="16" height="24" viewBox="0 0 16 24" fill="none" xmlns="http://www.w3.org/2000/svg">
<g id="PMX Icons/Food/toeat">
<path id="Vector" fill-rule="evenodd" clip-rule="evenodd" d="M4.375 19.3125C4.375 19.6224 4.12244 19.875 3.8125 19.875C3.50256 19.875 3.25 19.6224 3.25 19.3125V14.0992L3.8125 13.7747L4.375 14.0992V19.3125ZM5.5 7.5C5.5 8.27006 5.20694 9.1875 3.8125 9.1875C2.41806 9.1875 2.125 8.27006 2.125 7.5V3H1V7.5C1 8.72794 1.60638 10.0279 3.25 10.2692V12.8004L2.125 13.4501V19.3125C2.125 20.2429 2.88213 21 3.8125 21C4.74288 21 5.5 20.2429 5.5 19.3125V13.4501L4.375 12.8004V10.2692C6.01862 10.0279 6.625 8.72794 6.625 7.5V3H5.5V7.5ZM3.25 7.5H4.375V3H3.25V7.5ZM12.25 19.3125C12.25 19.6224 11.9974 19.875 11.6875 19.875C11.3776 19.875 11.125 19.6224 11.125 19.3125V14.0992L11.6875 13.7747L12.25 14.0992V19.3125ZM10 7.5C10 5.43956 10.9996 4.125 11.6875 4.125C12.3754 4.125 13.375 5.43956 13.375 7.5C13.375 8.27006 13.0819 9.1875 11.6875 9.1875C10.2931 9.1875 10 8.27006 10 7.5ZM14.5 7.5C14.5 5.01881 13.2383 3 11.6875 3C10.1367 3 8.875 5.01881 8.875 7.5C8.875 8.72794 9.48137 10.0279 11.125 10.2692V12.8004L10 13.4501V19.3125C10 20.2429 10.7571 21 11.6875 21C12.6179 21 13.375 20.2429 13.375 19.3125V13.4501L12.25 12.8004V10.2692C13.8936 10.0279 14.5 8.72794 14.5 7.5Z" fill="#00625B"/>
</g>
</svg>
