<svg width="24" height="24" viewBox="0 0 24 24" fill="none" xmlns="http://www.w3.org/2000/svg">
<path d="M12.1426 3.22314C15.545 3.22314 18.3349 5.98991 18.335 9.41553C18.335 12.5766 15.931 15.1734 12.8672 15.5562V17.353H14.7529C15.1398 17.353 15.4775 17.6676 15.4775 18.0786C15.4773 18.4653 15.1637 18.8032 14.7529 18.8032H12.8672V20.5981C12.8671 20.986 12.5305 21.3227 12.1426 21.3228C11.7557 21.3228 11.4181 21.009 11.418 20.5981V18.8032H9.50977C9.123 18.8032 8.78443 18.4894 8.78418 18.0786C8.78418 17.6917 9.09878 17.353 9.50977 17.353H11.3945V15.5562C8.33168 15.1954 5.9502 12.5757 5.9502 9.41553C5.95025 5.98995 8.74019 3.2232 12.1426 3.22314ZM12.1426 4.6958C9.53802 4.69586 7.42291 6.81097 7.42285 9.41553C7.42285 12.0201 9.53798 14.1352 12.1426 14.1353C14.7471 14.1353 16.8623 11.9976 16.8623 9.41553C16.8623 6.81093 14.7472 4.6958 12.1426 4.6958Z" fill="#00625B" stroke="#00625B" stroke-width="0.1"/>
</svg>
