<svg width="16" height="16" viewBox="0 0 16 16" fill="none" xmlns="http://www.w3.org/2000/svg">
<path d="M6.43179 15.8741C4.78457 15.8741 3.13735 15.2557 1.88423 14.0218C0.669563 12.8259 0 11.2362 0 9.54445C0 7.85274 0.669544 6.26295 1.88423 5.06707C3.09892 3.87118 4.71356 3.21191 6.43179 3.21191C8.15002 3.21191 9.76472 3.87113 10.9794 5.06707C12.194 6.26301 12.8636 7.85274 12.8636 9.54445C12.8636 11.2362 12.194 12.8259 10.9794 14.0218C9.72616 15.2557 8.07892 15.8741 6.43179 15.8741ZM6.43179 4.37856C5.03047 4.37856 3.71205 4.91528 2.72268 5.89244C1.73019 6.8667 1.18507 8.16474 1.18507 9.54432C1.18507 10.9239 1.73019 12.2221 2.72268 13.1962C4.76988 15.2088 8.09693 15.2088 10.1441 13.1962C11.1337 12.2219 11.6817 10.9239 11.6817 9.54432C11.6817 8.16474 11.1366 6.86655 10.1441 5.89244C9.15164 4.91834 7.83299 4.37856 6.43179 4.37856Z" fill="#00635B"/>
<path d="M10.5622 6.06137C10.4111 6.06137 10.26 6.00303 10.1445 5.88927C9.91342 5.66174 9.91342 5.29131 10.1445 5.06378L14.9884 0.297599C15.2195 0.0700711 15.5958 0.0700711 15.8269 0.297599C16.058 0.525127 16.058 0.895561 15.8269 1.12309L10.9801 5.89225C10.8646 6.00601 10.7133 6.06137 10.5622 6.06137Z" fill="#00635B"/>
<path d="M15.4058 5.46347C15.0799 5.46347 14.8133 5.20096 14.8133 4.88009V1.29225H11.1692C10.8433 1.29225 10.5767 1.02974 10.5767 0.70887C10.5767 0.388001 10.8433 0.125488 11.1692 0.125488H15.4058C15.7317 0.125488 15.9983 0.388001 15.9983 0.70887V4.88009C15.9983 5.20387 15.7317 5.46347 15.4058 5.46347Z" fill="#00635B"/>
</svg>
