<svg width="21" height="18" viewBox="0 0 21 18" fill="none" xmlns="http://www.w3.org/2000/svg">
<path fill-rule="evenodd" clip-rule="evenodd" d="M13.0835 5.16332V2.41013C13.0835 2.26263 13.0226 2.12912 12.9251 2.03204C12.8276 1.93497 12.6926 1.87427 12.5454 1.87427H10.5514C10.5524 1.88828 10.5524 1.90321 10.5524 1.91722V2.32893H12.4423C12.5436 2.32893 12.6261 2.41108 12.6261 2.5119V5.20248C12.7761 5.18194 12.9289 5.16793 13.0835 5.16233L13.0835 5.16332ZM17.156 14.3841L17.3004 15.2673C17.3191 15.3802 17.3754 15.4745 17.4541 15.5529L17.4551 15.5539C17.5572 15.6556 17.6988 15.7331 17.8497 15.7882L18.2425 15.9329C18.3381 15.9674 18.3869 16.0729 18.3522 16.1681C18.3325 16.2204 18.2922 16.2587 18.2425 16.2774L17.8497 16.4221C17.6997 16.4771 17.5572 16.5546 17.4541 16.6573C17.3754 16.7367 17.3182 16.831 17.3004 16.943L17.1551 17.8439C17.1391 17.9438 17.0454 18.0119 16.9451 17.996C16.8635 17.983 16.8035 17.9186 16.7923 17.8411L16.6479 16.943C16.6301 16.8319 16.5738 16.7367 16.4941 16.6583C16.391 16.5556 16.2485 16.4781 16.0995 16.423L15.7067 16.2783C15.611 16.2437 15.5623 16.1383 15.597 16.043C15.6167 15.9908 15.657 15.9525 15.7067 15.9338L16.0995 15.7891C16.2495 15.734 16.391 15.6565 16.4941 15.5538L16.5026 15.5454C16.5776 15.468 16.6301 15.3765 16.6479 15.2682L16.7932 14.3813C16.8091 14.2814 16.9038 14.2142 17.0041 14.2301C17.0857 14.2431 17.1457 14.3075 17.156 14.385V14.3841ZM17.1954 15.8134L17.1944 15.8125C17.0969 15.7154 17.0201 15.6015 16.9741 15.4689C16.9301 15.5968 16.8569 15.707 16.7641 15.8022L16.7538 15.8134C16.6273 15.9394 16.466 16.0356 16.2954 16.1056C16.466 16.1766 16.6282 16.2727 16.7548 16.3988C16.8523 16.4958 16.9282 16.6097 16.9741 16.7423C17.0201 16.6097 17.0969 16.4959 17.1944 16.3988H17.1954C17.3219 16.2727 17.4832 16.1766 17.6538 16.1056C17.4841 16.0356 17.3238 15.9394 17.1963 15.8134L17.1954 15.8134ZM19.7295 8.14128L19.8213 8.70329C19.8307 8.76024 19.8598 8.80878 19.901 8.84986C19.9592 8.90774 20.0407 8.95162 20.1288 8.98429L20.3791 9.07671C20.4748 9.11125 20.5235 9.21675 20.4888 9.31197C20.4691 9.36425 20.4288 9.40253 20.3791 9.4212L20.1288 9.51362C20.0416 9.54536 19.9601 9.59017 19.901 9.64805C19.8598 9.68913 19.8307 9.73768 19.8213 9.79276L19.7285 10.3669C19.7126 10.4668 19.6188 10.5349 19.5185 10.5191C19.437 10.506 19.377 10.4416 19.3657 10.3641L19.2739 9.79275C19.2645 9.73674 19.2354 9.68819 19.1951 9.64805L19.1942 9.64712C19.136 9.58924 19.0545 9.54536 18.9664 9.51268L18.7161 9.42026C18.6204 9.38572 18.5717 9.28022 18.6064 9.185C18.6261 9.13272 18.6664 9.09445 18.7161 9.07578L18.9664 8.98335C19.0545 8.95161 19.136 8.9068 19.1932 8.84985L19.1942 8.84892C19.2345 8.80878 19.2635 8.76023 19.2729 8.70328L19.3657 8.13847C19.3817 8.03858 19.4764 7.97137 19.5767 7.98724C19.6582 8.00031 19.7182 8.06472 19.7285 8.14127L19.7295 8.14128ZM19.6413 9.10659C19.6067 9.07205 19.5748 9.03377 19.5485 8.99176C19.5223 9.03284 19.4904 9.07111 19.4557 9.10659L19.4548 9.10752C19.3995 9.1626 19.3357 9.20835 19.2682 9.24756C19.3367 9.28583 19.4004 9.33251 19.4548 9.38666L19.4557 9.38759C19.4904 9.42307 19.5223 9.46041 19.5485 9.50148C19.5748 9.45947 19.6067 9.42213 19.6413 9.38665C19.6957 9.33251 19.7604 9.28583 19.8288 9.24662C19.7604 9.20834 19.6976 9.16167 19.6423 9.10752L19.6413 9.10659ZM15.314 1.41129L15.4228 2.07318C15.4349 2.14693 15.4724 2.21041 15.5259 2.26269C15.5981 2.33457 15.6984 2.38872 15.8053 2.42793L16.0996 2.53622C16.1953 2.57076 16.244 2.67626 16.2093 2.77148C16.1896 2.82376 16.1493 2.86204 16.0996 2.88071L15.8053 2.989C15.6984 3.02821 15.5981 3.08329 15.5259 3.15517C15.4724 3.20839 15.4349 3.27094 15.4237 3.34375L15.315 4.01964C15.299 4.11954 15.2053 4.18769 15.105 4.17182C15.0234 4.15875 14.9634 4.09433 14.9522 4.01684L14.8434 3.34375C14.8312 3.27 14.7937 3.20745 14.7412 3.15517L14.7403 3.15423C14.669 3.08235 14.5678 3.0282 14.4609 2.98899L14.1665 2.8807C14.0709 2.84616 14.0222 2.74067 14.0568 2.64544C14.0765 2.59316 14.1168 2.55489 14.1665 2.53622L14.4609 2.42792C14.5678 2.38872 14.6681 2.33363 14.7403 2.26175L14.7487 2.25428C14.7975 2.20294 14.8322 2.14319 14.8434 2.07224L14.9522 1.4066C14.9681 1.30671 15.0628 1.23949 15.1631 1.25536C15.2446 1.26843 15.3046 1.33285 15.315 1.41033L15.314 1.41129ZM15.2653 2.52129C15.2128 2.46901 15.1678 2.41019 15.1321 2.34484C15.0993 2.40552 15.0581 2.46061 15.0103 2.51008L15 2.52129C14.924 2.59691 14.8322 2.65945 14.7337 2.70893C14.8312 2.75841 14.9231 2.82003 15 2.89565L15.0009 2.89658C15.0534 2.94886 15.0984 3.00767 15.134 3.07302C15.1687 3.00767 15.2137 2.94886 15.2662 2.89658C15.3421 2.82096 15.434 2.75841 15.5334 2.70893C15.435 2.65945 15.344 2.59784 15.2681 2.52222L15.2671 2.52129L15.2653 2.52129ZM18.1414 6.29019L16.9639 6.3322L16.6564 6.63839C17.4158 7.45713 17.8808 8.55219 17.8808 9.75461C17.8808 11.0233 17.3642 12.1715 16.5289 13.0025C15.7349 13.7932 14.6512 14.2974 13.4512 14.345V17.0982C13.4512 17.3456 13.3491 17.5706 13.1859 17.7339L13.185 17.7349C13.02 17.8982 12.7941 18 12.5456 18L1.40655 17.9991C1.15718 17.9991 0.930309 17.8973 0.766249 17.7339C0.602189 17.5705 0.5 17.3446 0.5 17.0963L0.500937 2.41048C0.500937 2.16308 0.602184 1.93809 0.766251 1.77472L0.767188 1.77378C0.932184 1.61041 1.15811 1.50865 1.40656 1.50865H3.51869C3.54963 1.45917 3.58619 1.41436 3.62744 1.37328L3.62838 1.37235C3.769 1.23231 3.96305 1.14549 4.17585 1.14549H5.6552C5.69551 0.852342 5.83332 0.590025 6.033 0.390227L6.03394 0.389294C6.2758 0.148438 6.60954 0 6.9761 0C7.34358 0 7.67734 0.148436 7.91827 0.389294L7.91921 0.390227C8.11983 0.59001 8.25669 0.853274 8.29701 1.14549H9.77635C9.98916 1.14549 10.1832 1.23231 10.3238 1.37235L10.3248 1.37328C10.366 1.41436 10.4026 1.45917 10.4335 1.50865H12.5457C12.795 1.50865 13.0219 1.6104 13.186 1.77378C13.35 1.93716 13.4522 2.16308 13.4522 2.41141V5.1646C14.5875 5.20941 15.6168 5.66218 16.3969 6.38009L16.7016 6.07669C16.7054 5.68646 16.7325 5.27662 16.7457 4.88825C16.7475 4.84064 16.7672 4.79677 16.7991 4.76596L18.8606 2.71211C18.9328 2.64023 19.049 2.64023 19.1212 2.71211C19.1625 2.75319 19.1803 2.8092 19.1737 2.86241L19.1362 3.91173L20.204 3.87439C20.3052 3.87066 20.3905 3.95001 20.3943 4.05083C20.3962 4.10311 20.3755 4.15166 20.3409 4.1862L18.2794 6.24005C18.2419 6.27739 18.1912 6.29606 18.1416 6.29326L18.1414 6.29019ZM17.0745 5.96157L18.0692 5.9261L19.7501 4.25222C19.4838 4.26156 19.2035 4.28023 18.9391 4.28023C18.8379 4.2765 18.7591 4.19154 18.762 4.09072L18.7901 3.29626L17.1083 4.97013L17.0726 5.96064L17.0745 5.96157ZM16.3958 6.89701L15.8136 7.47676C16.3583 8.08076 16.6901 8.87897 16.6901 9.75371C16.6901 10.6947 16.3067 11.5471 15.687 12.1642C15.0674 12.7813 14.2115 13.1631 13.2665 13.1631C12.3215 13.1631 11.4656 12.7813 10.8459 12.1642C10.2262 11.5471 9.84277 10.6948 9.84277 9.75371C9.84277 8.81265 10.2262 7.96033 10.8459 7.34323C11.4655 6.72616 12.3215 6.34432 13.2665 6.34432C14.1449 6.34432 14.9473 6.6748 15.5529 7.21719L16.1351 6.63744C15.3795 5.94754 14.3727 5.52558 13.2665 5.52558C12.0946 5.52558 11.0334 5.9989 10.2646 6.76442C9.85684 7.17051 9.53059 7.65971 9.31591 8.20303L9.31404 8.20677C9.12467 8.68568 9.0206 9.20661 9.0206 9.75276C9.0206 10.9197 9.49591 11.9765 10.2646 12.7421C11.0202 13.4945 12.059 13.965 13.2084 13.98H13.2665C14.4384 13.98 15.4996 13.5066 16.2684 12.7411C17.0371 11.9756 17.5124 10.9188 17.5124 9.75182C17.5124 8.65115 17.0887 7.64757 16.3959 6.89515L16.3958 6.89701ZM15.5539 7.73628L14.9708 8.31696C15.3008 8.70439 15.5005 9.20665 15.5005 9.75464C15.5005 10.3689 15.2502 10.9244 14.8461 11.3268C14.4421 11.7291 13.8843 11.9784 13.2674 11.9784C12.6506 11.9784 12.0928 11.7291 11.6887 11.3268C11.2847 10.9244 11.0343 10.368 11.0343 9.75464C11.0343 9.14036 11.2847 8.58489 11.6887 8.18252C12.0928 7.78016 12.6515 7.53089 13.2674 7.53089C13.8177 7.53089 14.3221 7.7288 14.7111 8.05834L15.2942 7.47767C14.7552 7.00155 14.0455 6.71215 13.2684 6.71215C12.4246 6.71215 11.6615 7.05291 11.1084 7.60371C10.5553 8.15452 10.2131 8.91537 10.2131 9.75464C10.2131 10.5948 10.5553 11.3548 11.1084 11.9056C11.6615 12.4564 12.4256 12.7971 13.2684 12.7971C14.1121 12.7971 14.8752 12.4564 15.4283 11.9056C15.9814 11.3548 16.3236 10.5939 16.3236 9.75464C16.3236 8.98071 16.033 8.27401 15.5549 7.73721L15.5539 7.73628ZM14.7093 8.57648L14.1224 9.15996C14.2405 9.32799 14.309 9.53245 14.309 9.75277C14.309 10.0394 14.1918 10.2989 14.0034 10.4866L13.9921 10.4968C13.8046 10.6779 13.5487 10.79 13.2665 10.79C12.9787 10.79 12.719 10.6733 12.5297 10.4856L12.5287 10.4847C12.3403 10.2971 12.2231 10.0375 12.2231 9.75093C12.2231 9.46433 12.3403 9.20574 12.5287 9.01715V9.01621C12.7172 8.82857 12.9778 8.71188 13.2656 8.71188C13.4868 8.71188 13.6921 8.78096 13.8609 8.89766L14.4477 8.31325C14.1262 8.04998 13.7146 7.89222 13.2656 7.89222C12.7509 7.89222 12.2841 8.1004 11.9465 8.43648C11.609 8.77255 11.4 9.23655 11.4 9.75C11.4 10.2625 11.6091 10.7274 11.9465 11.0635C12.284 11.3996 12.75 11.6078 13.2656 11.6078C13.7802 11.6078 14.2471 11.3996 14.5846 11.0635C14.9221 10.7275 15.1312 10.2635 15.1312 9.75C15.1312 9.30282 14.9727 8.893 14.7084 8.57277L14.7093 8.57648ZM13.8562 9.42602L13.3968 9.88348C13.3246 9.95536 13.2084 9.95536 13.1362 9.88348C13.064 9.81159 13.064 9.69583 13.1362 9.62396L13.5956 9.1665C13.4981 9.11236 13.3865 9.08155 13.2665 9.08155C13.0799 9.08155 12.9112 9.15717 12.7893 9.27853C12.6675 9.39989 12.5915 9.56793 12.5915 9.75372C12.5915 9.93951 12.6675 10.1075 12.7884 10.2289C12.9103 10.3503 13.079 10.425 13.2656 10.425C13.4474 10.425 13.6134 10.3531 13.7343 10.2373L13.7427 10.2289C13.8646 10.1075 13.9405 9.93951 13.9405 9.75372C13.9405 9.63515 13.9096 9.52313 13.8552 9.42603L13.8562 9.42602ZM12.2578 5.26972C11.3887 5.46296 10.6125 5.89987 10.005 6.50483C9.59064 6.91747 9.25503 7.40757 9.02159 7.95278H5.68231C5.58106 7.95278 5.49857 8.03494 5.49857 8.13576C5.49857 8.23658 5.58106 8.31874 5.68231 8.31874H8.88287C8.73381 8.76964 8.65319 9.25229 8.65319 9.75269C8.65319 10.1896 8.71412 10.6116 8.8285 11.0121H5.68242C5.58117 11.0121 5.49867 11.0942 5.49867 11.195C5.49867 11.2959 5.58117 11.378 5.68242 11.378H8.95137C9.18481 11.9923 9.54761 12.544 10.0051 13.0006C10.6126 13.6055 11.3888 14.0424 12.2578 14.2357V16.8096L1.69427 16.8105V2.69591H3.39955V3.13843L3.40048 3.1487L3.40798 3.22339L3.42298 3.29807L3.44548 3.37276L3.47923 3.44837L3.51204 3.50719L3.52142 3.52213L3.52704 3.52959L3.53173 3.53706L3.58798 3.61175L3.62829 3.65189C3.76891 3.79192 3.96296 3.87875 4.17576 3.87875H9.80818L9.81849 3.87781L9.88412 3.87128L9.94974 3.85821C10.0932 3.8246 10.2225 3.75178 10.3229 3.65096C10.4344 3.53986 10.5132 3.39423 10.5404 3.23179L10.5441 3.21312L10.5516 3.13843V2.69685H12.2569V5.27079L12.2578 5.26972ZM13.0837 14.344V17.0972C13.0837 17.2447 13.0237 17.3791 12.9262 17.4753L12.9252 17.4762C12.8277 17.5733 12.6937 17.633 12.5456 17.633L1.40649 17.6321C1.25837 17.6321 1.12431 17.5714 1.02682 17.4743C0.929337 17.3772 0.868388 17.2428 0.868388 17.0963V2.41044C0.868388 2.26294 0.928387 2.1285 1.02588 2.03235L1.02682 2.03142C1.12338 1.93526 1.25838 1.87458 1.40649 1.87458H3.40051C3.39957 1.88858 3.39957 1.90352 3.39957 1.91753V2.32924H1.50962C1.40837 2.32924 1.32587 2.41139 1.32587 2.51221V16.9937C1.32587 17.0945 1.40837 17.1767 1.50962 17.1767H12.4416C12.5428 17.1767 12.6253 17.0945 12.6253 16.9937V14.3031C12.7753 14.3237 12.9281 14.3377 13.0828 14.3433L13.0837 14.344ZM3.4652 14.836L3.64238 15.1161C3.69675 15.201 3.81019 15.2272 3.8955 15.173C3.92081 15.1571 3.9405 15.1366 3.95456 15.1133L4.32955 14.5008C4.38205 14.415 4.35487 14.302 4.26862 14.2497C4.18237 14.1974 4.06893 14.2245 4.01643 14.3104L3.79519 14.6717L3.7755 14.6409C3.72113 14.5559 3.60769 14.5298 3.52238 14.5839C3.43707 14.6381 3.41083 14.751 3.4652 14.836ZM3.4652 11.7757L3.64238 12.0558C3.69675 12.1417 3.81019 12.1669 3.8955 12.1127C3.92081 12.0968 3.9405 12.0763 3.95456 12.053L4.32955 11.4406C4.38205 11.3547 4.35487 11.2417 4.26862 11.1894C4.18237 11.1371 4.06893 11.1642 4.01643 11.2501L3.79519 11.6114L3.7755 11.5806C3.72113 11.4947 3.60769 11.4695 3.52238 11.5236C3.43706 11.5778 3.41083 11.6907 3.4652 11.7757ZM3.4652 8.7154L3.64238 8.99548C3.69675 9.08043 3.81019 9.10657 3.8955 9.05243C3.92081 9.03656 3.9405 9.01602 3.95456 8.99268L4.32955 8.38026C4.38205 8.29437 4.35487 8.18141 4.26862 8.12913C4.18237 8.07685 4.06893 8.10392 4.01643 8.18981L3.79519 8.5511L3.7755 8.52029C3.72113 8.43533 3.60769 8.40919 3.52238 8.46334C3.43707 8.51749 3.41083 8.63045 3.4652 8.7154ZM3.4652 5.65607L3.64238 5.93614C3.69675 6.02203 3.81019 6.04724 3.8955 5.99309C3.92081 5.97722 3.9405 5.95668 3.95456 5.93334L4.32955 5.32093C4.38205 5.23504 4.35487 5.12208 4.26862 5.06979C4.18237 5.01751 4.06893 5.04459 4.01643 5.13048L3.79519 5.49176L3.7755 5.46095C3.72113 5.37507 3.60769 5.34986 3.52238 5.40401C3.43707 5.45815 3.41083 5.57111 3.4652 5.65607ZM5.68327 15.352H8.34096C8.44221 15.352 8.52471 15.2698 8.52471 15.169C8.52471 15.0682 8.44221 14.986 8.34096 14.986H5.68327C5.58202 14.986 5.49952 15.0682 5.49952 15.169C5.49952 15.2698 5.58202 15.352 5.68327 15.352ZM5.68327 14.439H10.9996C11.1009 14.439 11.1834 14.3568 11.1834 14.256C11.1834 14.1552 11.1009 14.073 10.9996 14.073H5.68327C5.58202 14.073 5.49952 14.1552 5.49952 14.256C5.49952 14.3568 5.58202 14.439 5.68327 14.439ZM5.68327 12.2918H8.34096C8.44221 12.2918 8.52471 12.2096 8.52471 12.1088C8.52471 12.008 8.44221 11.9258 8.34096 11.9258H5.68327C5.58202 11.9258 5.49952 12.008 5.49952 12.1088C5.49952 12.2096 5.58202 12.2918 5.68327 12.2918ZM5.68327 9.23146H8.34096C8.44221 9.23146 8.52471 9.14931 8.52471 9.04848C8.52471 8.94766 8.44221 8.86551 8.34096 8.86551H5.68327C5.58202 8.86551 5.49952 8.94766 5.49952 9.04848C5.49952 9.14931 5.58202 9.23146 5.68327 9.23146ZM5.68327 6.17213H8.34096C8.44221 6.17213 8.52471 6.08997 8.52471 5.98915C8.52471 5.88832 8.44221 5.80617 8.34096 5.80617H5.68327C5.58202 5.80617 5.49952 5.88832 5.49952 5.98915C5.49952 6.08997 5.58202 6.17213 5.68327 6.17213ZM5.68327 5.2591C5.58202 5.2591 5.49952 5.17695 5.49952 5.07613C5.49952 4.9753 5.58202 4.89315 5.68327 4.89315H10.9996C11.1009 4.89315 11.1834 4.9753 11.1834 5.07613C11.1834 5.17695 11.1009 5.2591 10.9996 5.2591H5.68327ZM3.43801 13.5892C3.26082 13.5892 3.0977 13.6592 2.9777 13.774L2.96551 13.7852C2.84458 13.9056 2.76864 14.0727 2.76864 14.2557V15.1688C2.76864 15.3527 2.84364 15.5188 2.96551 15.6393C3.08645 15.7597 3.25425 15.8353 3.43801 15.8353H4.35486C4.53954 15.8353 4.7064 15.7607 4.82736 15.6393C4.94923 15.5179 5.02423 15.3518 5.02423 15.1688V14.2557C5.02423 14.0737 4.94923 13.9066 4.82736 13.7852L4.82642 13.7843C4.70455 13.6639 4.53769 13.5882 4.35392 13.5882H3.43707L3.43801 13.5892ZM4.35486 13.9561H3.43801C3.35832 13.9561 3.28614 13.9869 3.23364 14.0364L3.22614 14.0448C3.17177 14.0989 3.13708 14.1745 3.13708 14.2567V15.1697C3.13708 15.2518 3.17083 15.3275 3.22614 15.3816C3.28051 15.4358 3.35645 15.4703 3.43895 15.4703H4.35579C4.43829 15.4703 4.51423 15.4367 4.5686 15.3816H4.56954C4.62391 15.3275 4.65766 15.2528 4.65766 15.1697V14.2567C4.65766 14.1736 4.62391 14.0989 4.56954 14.0448L4.5686 14.0438C4.51423 13.9897 4.43923 13.9561 4.35579 13.9561H4.35486ZM3.43801 10.5289C3.26082 10.5289 3.0977 10.5989 2.9777 10.7138L2.96551 10.725C2.84458 10.8454 2.76864 11.0125 2.76864 11.1955V12.1085C2.76864 12.2924 2.84364 12.4586 2.96551 12.579C3.08645 12.6995 3.25425 12.7751 3.43801 12.7751H4.35486C4.53954 12.7751 4.7064 12.7004 4.82736 12.579C4.94923 12.4577 5.02423 12.2915 5.02423 12.1085V11.1955C5.02423 11.0135 4.94923 10.8464 4.82736 10.725L4.82642 10.724C4.70455 10.6036 4.53769 10.528 4.35392 10.528H3.43707L3.43801 10.5289ZM4.35486 10.8958H3.43801C3.35832 10.8958 3.28614 10.9266 3.23364 10.9761L3.22614 10.9845C3.17177 11.0387 3.13708 11.1143 3.13708 11.1964V12.1095C3.13708 12.1916 3.17083 12.2672 3.22614 12.3214C3.28051 12.3755 3.35645 12.4101 3.43895 12.4101H4.35579C4.43829 12.4101 4.51423 12.3764 4.5686 12.3214H4.56954C4.62391 12.2672 4.65766 12.1925 4.65766 12.1095V11.1964C4.65766 11.1133 4.62391 11.0387 4.56954 10.9845L4.5686 10.9836C4.51423 10.9294 4.43923 10.8958 4.35579 10.8958H4.35486ZM3.43801 7.46964C3.26082 7.46964 3.0977 7.53965 2.9777 7.65448L2.96551 7.66568C2.84458 7.78612 2.76864 7.95322 2.76864 8.13621V9.04923C2.76864 9.23314 2.84364 9.39931 2.96551 9.51976C3.08645 9.64019 3.25425 9.71581 3.43801 9.71581H4.35486C4.53954 9.71581 4.7064 9.64112 4.82736 9.51976C4.94923 9.3984 5.02423 9.23223 5.02423 9.04923V8.13621C5.02423 7.95417 4.94923 7.78707 4.82736 7.66568L4.82642 7.66475C4.70455 7.54432 4.53769 7.4687 4.35392 7.4687H3.43707L3.43801 7.46964ZM4.35486 7.83558H3.43801C3.35832 7.83558 3.28614 7.86639 3.23364 7.91587L3.22614 7.92427C3.17177 7.97842 3.13708 8.05403 3.13708 8.13619V9.04921C3.13708 9.13136 3.17083 9.20605 3.22614 9.26113C3.28051 9.31527 3.35645 9.34982 3.43895 9.34982H4.35579C4.43829 9.34982 4.51423 9.31621 4.5686 9.26113H4.56954C4.62391 9.20698 4.65766 9.1323 4.65766 9.04921V8.13619C4.65766 8.0531 4.62391 7.97842 4.56954 7.92427L4.5686 7.92334C4.51423 7.86919 4.43923 7.83558 4.35579 7.83558H4.35486ZM3.43801 4.40939C3.25332 4.40939 3.08646 4.48408 2.96551 4.60544C2.84364 4.7268 2.76864 4.89297 2.76864 5.07597V5.98899C2.76864 6.1729 2.84364 6.33906 2.96551 6.45952C3.08644 6.57995 3.25424 6.65556 3.43801 6.65556H4.35486C4.53954 6.65556 4.7064 6.58088 4.82736 6.45952C4.94923 6.33815 5.02423 6.17198 5.02423 5.98899V5.07597C5.02423 4.89952 4.95391 4.73708 4.8386 4.61758L4.82735 4.60545C4.70642 4.48501 4.53862 4.41033 4.35485 4.41033H3.43801L3.43801 4.40939ZM4.35486 4.77534H3.43801C3.35551 4.77534 3.28051 4.80894 3.2252 4.86309H3.22426C3.16989 4.91724 3.13614 4.99192 3.13614 5.07501V5.98803C3.13614 6.07019 3.16989 6.14487 3.2252 6.19995C3.27957 6.2541 3.35551 6.28771 3.43801 6.28771H4.35485C4.43735 6.28771 4.51329 6.2541 4.56766 6.19995H4.5686C4.62297 6.1458 4.65672 6.07112 4.65672 5.98803V5.07501C4.65672 4.99566 4.62578 4.92378 4.5761 4.8715L4.56766 4.86403C4.51329 4.80988 4.43735 4.77627 4.35485 4.77627L4.35486 4.77534ZM6.02733 1.14481H7.92383C7.88633 0.952497 7.79258 0.780731 7.65945 0.648162L7.65851 0.647229C7.48415 0.473587 7.24321 0.366222 6.97508 0.366222C6.7079 0.366222 6.46603 0.473582 6.29259 0.647229L6.29165 0.648162C6.15853 0.780729 6.0639 0.952495 6.02733 1.14481ZM3.77551 1.83751V1.84217L3.77457 1.84497V3.13515L3.7877 3.2005L3.8177 3.27518L3.82051 3.27985L3.82426 3.28919L3.82988 3.29852L3.8777 3.362L3.8927 3.37694C3.96675 3.45069 4.06894 3.4955 4.1805 3.4955H9.81555L9.86711 3.48523C9.94211 3.46749 10.0096 3.42922 10.063 3.37601C10.1127 3.32653 10.1502 3.26491 10.169 3.19583L10.1727 3.18182L10.1746 3.17249L10.1784 3.15195L10.183 3.12861V1.88325C10.1821 1.86178 10.1793 1.84124 10.1755 1.82163V1.78056L10.1727 1.77122V1.77029L10.168 1.75815V1.75628C10.1662 1.75162 10.1643 1.74695 10.1624 1.74228V1.74135C10.1418 1.69467 10.1127 1.65359 10.078 1.61905C10.004 1.5453 9.9018 1.50049 9.79025 1.50049H4.18879C4.07629 1.50049 3.97505 1.54623 3.90099 1.61905C3.84568 1.67506 3.80537 1.74601 3.78943 1.8263L3.77551 1.83751Z" fill="#00635B"/>
</svg>
