<svg width="24" height="24" viewBox="0 0 24 24" fill="none" xmlns="http://www.w3.org/2000/svg">
<g id="Goals">
<path id="Vector" d="M21.05 5.82557C21.05 5.40605 20.715 5.06411 20.2981 5.05298L20.2918 5.04664H20.2711H19.441L19.7425 4.74506C19.879 4.60855 19.879 4.38792 19.7425 4.25142C19.606 4.11494 19.3854 4.11491 19.2489 4.25143L18.9473 4.553V3.72287C18.9473 3.29633 18.601 2.95 18.1744 2.95C17.9691 2.95 17.7704 3.03335 17.6262 3.17762L16.3244 4.47939C16.0026 4.80115 15.8807 5.26985 16.0057 5.70728L16.4026 7.10072L16.0914 7.41194C14.6947 6.13327 12.8371 5.3526 10.7987 5.3526C6.46985 5.3526 2.95 8.87245 2.95 13.2013C2.95 17.5301 6.46985 21.05 10.7987 21.05C15.1276 21.05 18.6474 17.5301 18.6474 13.2013C18.6474 11.1627 17.8667 9.3053 16.5881 7.90863L16.8993 7.59741L18.2928 7.9943L18.2931 7.99439C18.4054 8.0256 18.5209 8.0412 18.6364 8.0412C18.9644 8.0412 19.2831 7.91312 19.5206 7.67562L20.8224 6.37385C20.9667 6.22959 21.05 6.03093 21.05 5.82557ZM18.2474 5.24991L16.9693 6.52798L16.6777 5.50884C16.6228 5.31652 16.6777 5.11032 16.818 4.97003L18.1197 3.66825L18.1197 3.66826L18.1205 3.6675C18.1365 3.65081 18.1657 3.64532 18.1977 3.65851C18.2298 3.67173 18.2474 3.69664 18.2474 3.71988V5.24991ZM11.047 13.4407L11.5922 12.8955C11.6227 12.9737 11.6418 13.057 11.6471 13.1455L11.6456 13.1455V13.1953C11.6456 13.6626 11.263 14.0452 10.7957 14.0452C10.3284 14.0452 9.94586 13.6626 9.94586 13.1953C9.94586 12.728 10.3284 12.3455 10.7957 12.3455C10.9007 12.3455 11.0005 12.3658 11.0952 12.4023L10.5504 12.947C10.4139 13.0835 10.4139 13.3042 10.5504 13.4407C10.6205 13.5108 10.7086 13.5423 10.7987 13.5423C10.8899 13.5423 10.9771 13.5071 11.0461 13.4416L11.047 13.4407ZM14.5967 9.88489C15.3692 10.7711 15.8418 11.9283 15.8418 13.1922C15.8418 15.9752 13.5756 18.2413 10.7928 18.2413C8.00997 18.2413 5.74371 15.975 5.74371 13.1922C5.74371 10.4094 8.00997 8.14318 10.7928 8.14318C12.0596 8.14318 13.2141 8.61584 14.1001 9.38828L13.111 10.3774C12.4811 9.85839 11.6749 9.54295 10.7957 9.54295C8.78233 9.54295 7.14626 11.1791 7.14626 13.1924C7.14626 15.2056 8.78237 16.8418 10.7957 16.8418C12.809 16.8418 14.4451 15.2056 14.4451 13.1924C14.4451 12.3117 14.1315 11.5042 13.608 10.8736L14.5967 9.88489ZM18.4824 7.31333L18.4822 7.31329L17.4631 7.02171L18.7412 5.74363H20.2712C20.3118 5.74363 20.3442 5.77744 20.3442 5.81661C20.3442 5.83869 20.336 5.85655 20.3252 5.86597L20.3082 5.88088L20.3082 5.88587L19.021 7.17303C18.8807 7.31332 18.6716 7.36817 18.4824 7.31333ZM17.9444 13.1953C17.9444 17.1361 14.7364 20.3442 10.7956 20.3442C6.85486 20.3442 3.64681 17.1361 3.64681 13.1953C3.64681 9.2546 6.85486 6.04654 10.7956 6.04654C12.6415 6.04654 14.324 6.75 15.5945 7.90286L14.6 8.89731C13.5849 7.99929 12.2554 7.44631 10.7956 7.44631C7.62454 7.44631 5.04648 10.0242 5.04648 13.1955C5.04648 16.3667 7.62435 18.9446 10.7956 18.9446C13.9669 18.9446 16.5448 16.3667 16.5448 13.1955C16.5448 11.7357 15.9948 10.4062 15.0938 9.39103L16.0882 8.39663C17.2411 9.66718 17.9444 11.3495 17.9444 13.1953ZM12.6166 10.8778L11.6136 11.8808C11.376 11.733 11.0944 11.6456 10.7957 11.6456C9.94023 11.6456 9.24595 12.3399 9.24595 13.1953C9.24595 14.0508 9.94023 14.7451 10.7957 14.7451C11.6512 14.7451 12.3455 14.0508 12.3455 13.1953C12.3455 12.8937 12.258 12.6148 12.1103 12.3774L13.1133 11.3744C13.5084 11.8753 13.7452 12.5102 13.7452 13.1953C13.7452 14.8205 12.4208 16.1448 10.7957 16.1448C9.17057 16.1448 7.84618 14.8205 7.84618 13.1953C7.84618 11.5702 9.17057 10.2458 10.7957 10.2458C11.4837 10.2458 12.1159 10.4826 12.6166 10.8778Z" fill="#00625B" stroke="#00625B" stroke-width="0.1"/>
</g>
</svg>
