<svg width="48" height="48" viewBox="0 0 48 48" fill="none" xmlns="http://www.w3.org/2000/svg">
<path d="M30.4686 26.8125H8.43741C4.3125 26.8125 0.9375 23.4375 0.9375 19.3125C0.9375 15.3484 4.05459 12.0774 7.95872 11.8283M7.95872 11.8125H26.7186M8.43741 19.3125H34.6874C38.8124 19.3125 42.1873 22.6875 42.1873 26.8124C42.1873 27.343 42.1311 27.8611 42.0249 28.3613M30.301 34.3124H15.9375" stroke="#C8DEB8" stroke-width="1.875" stroke-miterlimit="2.6131" stroke-linecap="round" stroke-linejoin="round"/>
<path d="M38.625 44.625C43.2849 44.625 47.0625 40.8474 47.0625 36.1875C47.0625 31.5276 43.2849 27.75 38.625 27.75C33.9651 27.75 30.1875 31.5276 30.1875 36.1875C30.1875 40.8474 33.9651 44.625 38.625 44.625Z" stroke="#C8DEB8" stroke-width="1.875" stroke-miterlimit="2.6131" stroke-linecap="round" stroke-linejoin="round"/>
<path d="M42.6309 38.623H42.6323" stroke="#C8DEB8" stroke-width="1.875" stroke-miterlimit="2.6131" stroke-linecap="round" stroke-linejoin="round"/>
<path d="M42.2905 34.5322H42.292" stroke="#C8DEB8" stroke-width="1.875" stroke-miterlimit="2.6131" stroke-linecap="round" stroke-linejoin="round"/>
<path d="M38.1221 39.877H38.1237" stroke="#C8DEB8" stroke-width="1.875" stroke-miterlimit="2.6131" stroke-linecap="round" stroke-linejoin="round"/>
<path d="M36.4781 36.344C37.5121 36.2868 38.304 35.4023 38.2468 34.3683C38.1896 33.3343 37.3051 32.5425 36.2711 32.5996C35.2371 32.6568 34.4453 33.5413 34.5024 34.5753C34.5596 35.6093 35.4441 36.4012 36.4781 36.344Z" stroke="#C8DEB8" stroke-width="1.875" stroke-miterlimit="2.6131" stroke-linecap="round" stroke-linejoin="round"/>
<path d="M13.1224 26.8125C10.0298 26.8139 7.5 29.3446 7.5 32.4375C7.5 35.5312 10.0313 38.0625 13.125 38.0625C15.06 38.0625 16.6432 39.6459 16.6432 41.5807V44.625" stroke="#C8DEB8" stroke-width="1.875" stroke-miterlimit="2.6131" stroke-linecap="round" stroke-linejoin="round"/>
<path d="M19.4561 34.3125C21.391 34.3126 22.9739 35.8959 22.9739 37.8307V44.625" stroke="#C8DEB8" stroke-width="1.875" stroke-miterlimit="2.6131" stroke-linecap="round" stroke-linejoin="round"/>
<path d="M29.5311 19.3124C32.6248 19.3123 35.1558 16.7812 35.1558 13.6874C35.1558 10.5937 32.6246 8.06241 29.5308 8.06241C27.5958 8.06241 26.0127 6.47906 26.0127 4.54425V3.375" stroke="#C8DEB8" stroke-width="1.875" stroke-miterlimit="2.6131" stroke-linecap="round" stroke-linejoin="round"/>
<path d="M23.2005 11.8124C21.2657 11.8123 19.6826 10.2291 19.6826 8.29425V3.375" stroke="#C8DEB8" stroke-width="1.875" stroke-miterlimit="2.6131" stroke-linecap="round" stroke-linejoin="round"/>
</svg>
