<svg width="27" height="18" viewBox="0 0 27 18" fill="none" xmlns="http://www.w3.org/2000/svg">
<g clip-path="url(#clip0_928_8947)">
<path d="M17.3398 0.0170898H17.3535L17.3516 0.0200195C17.4437 0.0695062 17.504 0.133598 17.5342 0.203613C17.5644 0.273647 17.5642 0.347788 17.5391 0.414551C17.4888 0.547877 17.3411 0.648358 17.1445 0.64209V0.643066L2.46191 0.64209C2.36858 0.652948 2.27358 0.704106 2.17969 0.782715C2.08579 0.861362 1.99473 0.96594 1.91113 1.08057C1.74401 1.30974 1.6071 1.57551 1.53027 1.74365C1.05391 2.78898 0.786878 4.17762 0.667969 5.59033C0.549103 7.00264 0.578434 8.43728 0.693359 9.57373C0.75446 10.1783 0.878643 11.034 1.08691 11.854C1.29543 12.6749 1.58757 13.4559 1.9834 13.9155C2.00291 13.9384 2.07328 14.011 2.14355 14.0776C2.17855 14.1108 2.21328 14.1428 2.24121 14.1655C2.2548 14.1766 2.26641 14.1851 2.27539 14.1909L2.27734 14.1919C2.30256 14.1595 2.30973 14.1169 2.30859 14.0649C2.30794 14.0358 2.3047 14.0061 2.30273 13.9751C2.30082 13.9449 2.30024 13.9136 2.30371 13.8843C2.32219 13.7267 2.43285 13.5748 2.60645 13.5601H2.61035C3.21152 13.5955 3.8441 13.5696 4.47656 13.5474C5.10854 13.5252 5.7408 13.5062 6.33789 13.5562C6.43633 13.5643 6.52013 13.58 6.58203 13.6245C6.64559 13.6703 6.68201 13.7435 6.69531 13.856C6.74949 14.305 6.72888 14.8069 6.70508 15.3091C6.68124 15.8121 6.65415 16.3155 6.69531 16.771L6.69629 16.7769L6.69434 16.7759C6.68548 16.8497 6.66294 16.9129 6.62207 16.9624C6.58093 17.0121 6.52365 17.0471 6.45117 17.0669L6.44434 17.0688V17.0679L2.60449 17.0757L2.60352 17.0767V17.0757C2.51866 17.0804 2.44715 17.0306 2.39648 16.9663C2.34539 16.9015 2.31123 16.8181 2.30273 16.7476V16.7446L2.29785 14.8901C2.29664 14.8881 2.29432 14.8843 2.28906 14.8794C2.2818 14.8727 2.27107 14.8651 2.25781 14.8569C2.2314 14.8407 2.19635 14.8234 2.1582 14.8062C2.11992 14.7888 2.07963 14.7724 2.04297 14.7563C2.00696 14.7406 1.97382 14.7249 1.95117 14.7114C1.70589 14.5664 1.49063 14.3259 1.30273 14.0327C1.11475 13.7393 0.953279 13.3916 0.816406 13.0298C0.542686 12.3062 0.366145 11.5238 0.272461 11.0015C-0.0227823 9.35604 -0.088301 7.48386 0.03125 5.81689C0.0843456 5.07793 0.216097 4.02388 0.463867 3.01807C0.711337 2.01356 1.07628 1.05217 1.59961 0.501465C1.84124 0.24752 2.08617 0.0570086 2.45508 0.00927734L2.45801 0.00830078L17.3398 0.0170898ZM2.96387 14.1655C2.96068 14.1755 2.95574 14.1846 2.95117 14.1919C2.94666 14.1991 2.94122 14.2074 2.93848 14.2114C2.93786 14.2123 2.93692 14.2128 2.93652 14.2134V16.4224C2.93652 16.4394 2.94247 16.4461 2.94824 16.4497C2.95618 16.4546 2.96967 16.4572 2.9873 16.4565C3.00424 16.4559 3.02227 16.4522 3.03711 16.4487C3.04435 16.447 3.05052 16.4452 3.05566 16.4438C3.05797 16.4433 3.06053 16.4433 3.0625 16.4429C3.0636 16.4426 3.06833 16.4409 3.07227 16.4409H6.0625L6.0918 16.4116V14.2437V14.2427V14.2417C6.09043 14.2391 6.08796 14.2348 6.08496 14.23C6.07902 14.2205 6.07098 14.2085 6.0625 14.1968C6.054 14.185 6.04478 14.1737 6.03809 14.1655C6.03658 14.1637 6.03536 14.162 6.03418 14.1606H2.96387C2.96352 14.162 2.96427 14.1642 2.96387 14.1655Z" fill="#00625B" stroke="#00625B" stroke-width="0.05"/>
<path d="M13.4771 1.75586V1.75684C13.7013 1.77948 13.8902 1.90973 14.0474 2.09961C14.2044 2.28938 14.3315 2.54042 14.4341 2.80859C14.6393 3.34533 14.7467 3.95714 14.7905 4.30273C14.9079 5.22953 14.9085 6.20509 14.7935 7.13184C14.7505 7.47743 14.6433 8.09819 14.438 8.64258C14.3354 8.91462 14.2081 9.16953 14.0503 9.36133C13.8924 9.55328 13.7022 9.68392 13.4761 9.7041H3.70947C3.46791 9.68256 3.26812 9.53625 3.104 9.32227C2.94 9.10841 2.80973 8.82457 2.70654 8.52246C2.50005 7.91768 2.40075 7.23233 2.36279 6.86914C2.29914 6.25809 2.28689 5.4916 2.35205 4.73633C2.41721 3.98136 2.55926 3.23524 2.80518 2.66602C2.965 2.29524 3.19116 1.90766 3.60791 1.77441V1.76465H3.63232L13.4741 1.75586H13.4771ZM10.0054 2.37891L7.69189 4.65527L7.68799 4.65918L7.67432 4.6377L7.68701 4.65918C7.53563 4.75058 7.38875 4.74987 7.29248 4.67383C7.19619 4.59753 7.16061 4.45348 7.21436 4.28125L7.21826 4.26855L7.22021 4.27051L9.07373 2.41699L9.05518 2.36133H3.771C3.76419 2.36136 3.75414 2.36441 3.74072 2.37207C3.7276 2.37958 3.71276 2.39072 3.69678 2.40527C3.66448 2.43476 3.62914 2.47599 3.59521 2.52051C3.5274 2.60951 3.46649 2.71025 3.44287 2.75488C3.0942 3.41727 2.9264 4.56441 2.9292 5.7168C2.93204 6.86915 3.10469 8.01997 3.43311 8.6875C3.51577 8.85514 3.59609 9.00402 3.75537 9.09277L7.56201 9.08496C8.92289 7.75448 10.233 6.35724 11.6274 5.06348L11.6343 5.05664L11.644 5.08203L11.6353 5.05859C11.8116 4.99091 11.9559 5.05733 12.022 5.17676C12.0871 5.2948 12.0735 5.46029 11.9468 5.58789C10.8892 6.65135 9.81119 7.68481 8.77002 8.7627C8.74342 8.79019 8.70897 8.81663 8.67432 8.84277C8.63904 8.86939 8.60304 8.89603 8.5708 8.9248C8.51219 8.97713 8.47322 9.03253 8.47217 9.09961H13.4136C13.4423 9.09961 13.4789 9.07857 13.521 9.03711C13.5621 8.99656 13.6045 8.94024 13.644 8.87891C13.7231 8.75637 13.7906 8.61716 13.8188 8.55176C14.1085 7.87981 14.2531 6.83557 14.2583 5.78711C14.2635 4.73879 14.129 3.69043 13.8618 3.00977C13.8264 2.9199 13.7534 2.76165 13.6646 2.62305C13.6202 2.55388 13.5727 2.49004 13.5239 2.44238C13.4746 2.39426 13.4267 2.36538 13.3833 2.35938L10.0054 2.37891Z" fill="#00625B" stroke="#00625B" stroke-width="0.05"/>
<path d="M3.39258 10.7588C4.48253 10.7425 5.62185 10.7282 6.71582 10.79C6.74213 10.7915 6.76993 10.7895 6.7998 10.7861C6.82904 10.7829 6.86111 10.7784 6.89355 10.7764C6.95973 10.7723 7.03201 10.7771 7.10742 10.8203C7.24289 10.8977 7.27348 11.037 7.23047 11.1562C7.18771 11.2746 7.07182 11.375 6.91504 11.3828C6.40187 11.4085 5.85552 11.3825 5.31152 11.3604C4.76693 11.3382 4.22397 11.3203 3.71484 11.3633C3.6386 11.3696 3.56869 11.3775 3.52051 11.4238V11.9844L3.5498 12.0137H23.4307C23.4347 12.012 23.4421 12.0067 23.4502 11.9912C23.4585 11.9751 23.4655 11.9522 23.4717 11.9238C23.4842 11.8663 23.4906 11.7906 23.4922 11.7139C23.4938 11.6374 23.4909 11.5607 23.4844 11.501C23.4811 11.4712 23.4771 11.4461 23.4727 11.4277C23.4704 11.4185 23.4678 11.4111 23.4658 11.4062C23.4635 11.4008 23.4632 11.4009 23.4648 11.4023C23.4455 11.386 23.417 11.3767 23.3799 11.373C23.343 11.3694 23.3003 11.3709 23.2549 11.374C23.2103 11.3771 23.1626 11.382 23.1182 11.3818C23.0763 11.3817 23.0352 11.3757 22.999 11.3623L11.0684 11.3516H11.0586L11.0596 11.3496C10.9287 11.302 10.8686 11.1768 10.873 11.0586C10.8775 10.9404 10.9472 10.8225 11.0811 10.793C11.1247 10.7833 11.173 10.7836 11.2158 10.7822C11.26 10.7808 11.3005 10.7776 11.3369 10.7627L11.3467 10.7588V10.7607C15.255 10.7922 19.2033 10.706 23.1182 10.791C23.1951 10.7927 23.2902 10.7838 23.3887 10.7754C23.4859 10.7671 23.5865 10.7595 23.6719 10.7666C23.7595 10.774 23.8562 10.781 23.9336 10.8145C23.973 10.8315 24.0086 10.8563 24.0361 10.8916C24.0636 10.9269 24.0822 10.9716 24.0898 11.0283C24.1032 11.1282 24.111 11.4282 24.1113 11.7236C24.1115 11.8718 24.1103 12.0197 24.1064 12.1416C24.1026 12.2625 24.0968 12.3605 24.0879 12.4072C24.0727 12.4859 24.017 12.5486 23.9502 12.5898C23.8838 12.6307 23.8029 12.6514 23.7295 12.6465H3.24805C3.13846 12.6462 3.05153 12.6075 2.99121 12.541C2.93128 12.4749 2.89909 12.3829 2.89453 12.2793C2.88111 11.9633 2.88422 11.4998 2.89062 11.1816C2.89426 11.0083 2.93794 10.9002 3.02734 10.8369C3.1144 10.7754 3.23956 10.7611 3.39258 10.7588Z" fill="#00625B" stroke="#00625B" stroke-width="0.05"/>
<path d="M23.0176 -0.000976562C23.5642 -0.0262999 24.1103 -0.0468292 24.5967 0.0175781C25.0706 0.080327 25.4477 0.475537 25.7354 0.944336C26.0236 1.41413 26.226 1.96497 26.3486 2.35254C26.8094 3.80841 27.0416 5.76319 27.0225 7.70996C27.0034 9.65653 26.7331 11.5983 26.1875 13.0293C25.9161 13.7415 25.5435 14.4571 24.8467 14.8398L24.8213 16.8389V16.8496L24.8193 16.8486C24.7788 16.9356 24.7245 17.0247 24.6162 17.0547L24.6094 17.0566V17.0557L20.6689 17.0674L20.6699 17.0684H20.6299V17.043L20.6084 17.0537C20.5971 17.0293 20.5809 17.0071 20.5635 16.9854C20.5549 16.9746 20.5462 16.9639 20.5371 16.9531C20.528 16.9423 20.5186 16.9313 20.5098 16.9199C20.4739 16.8735 20.4432 16.8196 20.4521 16.7422C20.4831 16.2873 20.4638 15.8073 20.4463 15.3271C20.4288 14.8474 20.413 14.3673 20.4521 13.915V13.9141C20.4616 13.8065 20.4865 13.7212 20.5391 13.6602C20.5924 13.5983 20.6712 13.5654 20.7812 13.5566C21.3858 13.5093 22.0215 13.5268 22.6572 13.5479C23.2934 13.5689 23.9298 13.5939 24.5381 13.5605L24.542 13.5596V13.5605C24.6576 13.5701 24.7711 13.6556 24.8154 13.7598C24.8456 13.8302 24.8408 13.8969 24.8408 13.9512C24.8408 13.996 24.8448 14.0324 24.8652 14.0664C25.3745 13.5542 25.6578 12.778 25.8525 12.084C26.2423 10.6912 26.4444 8.79067 26.4033 6.90332C26.3622 5.01559 26.0776 3.14417 25.4951 1.80859C25.3032 1.36768 25.0434 0.87355 24.6084 0.65625C24.1143 0.633321 23.6179 0.640177 23.1211 0.644531C22.6225 0.648901 22.123 0.651646 21.627 0.620117C21.612 0.619356 21.5947 0.624018 21.5693 0.630859C21.5457 0.637238 21.5168 0.644548 21.4854 0.642578H21.4844C21.2663 0.626717 21.1453 0.483162 21.1328 0.333984C21.1267 0.259983 21.1477 0.184682 21.1963 0.125C21.2451 0.0652656 21.3204 0.0218479 21.4209 0.00976562H21.4268L21.8066 0.03125C22.1953 0.040475 22.6067 0.0180571 23.0176 -0.000976562ZM21.0869 14.1904V16.4277L24.2129 16.4414V14.1914L24.1826 14.1611H21.1162L21.0869 14.1904Z" fill="#00625B" stroke="#00625B" stroke-width="0.05"/>
<path d="M19.1895 4.00977C19.6673 3.95034 20.0786 4.01781 20.3809 4.22852C20.6843 4.44013 20.8731 4.79297 20.9111 5.29297C20.931 5.55375 20.9454 5.99904 20.9375 6.43848C20.9296 6.877 20.8998 7.31331 20.833 7.55371C20.6683 8.1464 20.0174 8.42794 19.3975 8.39258C18.7764 8.35708 18.1687 8.00291 18.0938 7.30762C18.0388 6.79595 18.0455 5.63512 18.0928 5.11621C18.1487 4.50136 18.5815 4.08522 19.1865 4.00977L19.1895 4.00879V4.00977ZM19.2871 4.72656L19.2822 4.72852C19.1602 4.7509 19.065 4.82671 18.9971 4.92773C18.929 5.02895 18.8887 5.15454 18.876 5.27148C18.8302 5.69124 18.8273 6.70677 18.876 7.12305C18.8844 7.1945 18.9204 7.32218 18.9521 7.38574C19.0602 7.60493 19.3162 7.7005 19.5605 7.67578C19.8047 7.65099 20.0264 7.50764 20.0703 7.26367C20.1092 7.04565 20.128 6.68276 20.1318 6.31641C20.1357 5.95052 20.1246 5.58229 20.1055 5.35352C20.0836 5.09343 20.005 4.91497 19.8721 4.8125C19.7398 4.71056 19.5476 4.67933 19.2871 4.72656Z" fill="#00625B" stroke="#00625B" stroke-width="0.05"/>
<path d="M8.46094 14.2637C11.904 14.2876 15.359 14.3104 18.8047 14.2871C18.8452 14.2868 18.89 14.2823 18.9385 14.2773C18.9864 14.2725 19.038 14.2681 19.0889 14.2676C19.1904 14.2666 19.295 14.2837 19.3789 14.3604H19.3799C19.4636 14.437 19.4878 14.5508 19.4648 14.6514C19.4419 14.7519 19.3711 14.8427 19.2598 14.8721L19.2529 14.874V14.873L7.92285 14.875H7.91406L7.90723 14.8691C7.82716 14.8047 7.76393 14.7344 7.74023 14.6543C7.71605 14.5722 7.73486 14.4851 7.80762 14.3906C7.88519 14.2899 8.00532 14.2807 8.12109 14.2832C8.18111 14.2845 8.23801 14.2886 8.2959 14.2881C8.35272 14.2876 8.40552 14.282 8.45215 14.2646L8.46191 14.2617L8.46094 14.2637Z" fill="#00625B" stroke="#00625B" stroke-width="0.05"/>
<path d="M21.5674 5.68311C21.7788 5.45787 22.1299 5.38571 22.4443 5.4458C22.7588 5.50599 23.0457 5.70068 23.124 6.01904C23.1768 6.23473 23.1581 6.41141 23.0879 6.56885C23.0179 6.72547 22.8971 6.86179 22.751 6.99854L22.7461 7.00342L22.7451 7.00146C22.6318 7.10693 22.4999 7.19574 22.373 7.27979C22.2439 7.36534 22.121 7.44681 22.0264 7.54053C21.993 7.57358 21.9352 7.64988 21.9082 7.72021C21.8946 7.7558 21.8903 7.7862 21.8965 7.80713C21.9018 7.82482 21.9169 7.84102 21.9551 7.84814H21.9541C22.0883 7.87305 22.2809 7.8574 22.4756 7.84424C22.5719 7.83773 22.6685 7.83163 22.7568 7.83252C22.8449 7.83341 22.9267 7.84113 22.9932 7.86182C23.089 7.8918 23.139 7.97087 23.1504 8.05615C23.1616 8.14047 23.1363 8.23366 23.0791 8.29932L23.0713 8.30811H21.416L21.4092 8.30322C21.3656 8.27209 21.3424 8.21057 21.3301 8.14209C21.3175 8.0717 21.3147 7.98618 21.3203 7.90088C21.3259 7.81557 21.3396 7.72837 21.3574 7.65283C21.3751 7.57798 21.3976 7.5119 21.4238 7.47021C21.4851 7.37243 21.5927 7.27359 21.7158 7.17432C21.8389 7.07508 21.982 6.97193 22.1152 6.86963C22.2494 6.76663 22.3745 6.66311 22.4658 6.55908C22.5574 6.45472 22.612 6.35377 22.6113 6.25537C22.6108 6.19799 22.5763 6.12069 22.5234 6.05322C22.4705 5.98565 22.4043 5.93403 22.3467 5.92236C22.2984 5.91259 22.2261 5.91529 22.1562 5.93018C22.1211 5.93768 22.0879 5.948 22.0596 5.96045L21.9912 6.00439C21.9605 6.03508 21.943 6.07651 21.9307 6.12451C21.9245 6.14837 21.9201 6.17324 21.915 6.19873C21.91 6.22399 21.9043 6.24989 21.8975 6.2749C21.8837 6.32489 21.8627 6.37464 21.8203 6.41064C21.7776 6.44678 21.7168 6.46667 21.6299 6.46533C21.5343 6.46391 21.4679 6.42487 21.4287 6.36182C21.3906 6.30046 21.38 6.21928 21.3857 6.13623C21.3973 5.9704 21.476 5.78059 21.5674 5.68311Z" fill="#00625B" stroke="#00625B" stroke-width="0.05"/>
<path d="M4.47803 4.24121C4.56548 4.25356 4.65394 4.27707 4.72607 4.31934C4.80003 4.36278 4.86098 4.42933 4.87842 4.52441L4.88037 4.53711H4.87939L4.88135 6.89551L4.86963 6.98047C4.84533 7.05826 4.78583 7.11407 4.71533 7.15137C4.62391 7.19971 4.50588 7.22295 4.39014 7.23047C4.27312 7.23806 4.15126 7.23065 4.04834 7.21387C3.99689 7.20546 3.94875 7.19374 3.90771 7.18066C3.86806 7.16801 3.82903 7.15232 3.80029 7.13086C3.68621 7.0449 3.66113 6.90257 3.68896 6.78516C3.71675 6.66844 3.80195 6.55263 3.93604 6.52344C3.97284 6.51537 4.01165 6.51601 4.04248 6.5166C4.07657 6.51725 4.10201 6.51773 4.12549 6.51562C4.14808 6.51357 4.15876 6.50944 4.16357 6.50586C4.16634 6.50377 4.17096 6.49705 4.17529 6.47559L4.17334 4.98242C3.93696 5.00383 3.75944 4.86383 3.70166 4.69531C3.67118 4.60607 3.67343 4.50579 3.72412 4.41992C3.77535 4.33314 3.869 4.27367 3.99854 4.25195V4.25098C4.1077 4.23268 4.30222 4.21644 4.47803 4.24121Z" fill="#00625B" stroke="#00625B" stroke-width="0.15"/>
</g>
<defs>
<clipPath id="clip0_928_8947">
<rect width="27" height="17.052" fill="white"/>
</clipPath>
</defs>
</svg>
