<svg width="27" height="18" viewBox="0 0 27 18" fill="none" xmlns="http://www.w3.org/2000/svg">
<g clip-path="url(#clip0_1801_135)">
<path d="M17.3398 0.0167236H17.3535L17.3516 0.0196533C17.4437 0.06914 17.504 0.133232 17.5342 0.203247C17.5644 0.273281 17.5642 0.347421 17.5391 0.414185C17.4888 0.547511 17.3411 0.647992 17.1445 0.641724V0.6427L2.46191 0.641724C2.36858 0.652582 2.27358 0.70374 2.17969 0.782349C2.08579 0.860996 1.99473 0.965574 1.91113 1.0802C1.74401 1.30938 1.6071 1.57515 1.53027 1.74329C1.05391 2.78861 0.786878 4.17725 0.667969 5.58997C0.549103 7.00227 0.578434 8.43691 0.693359 9.57336C0.75446 10.1779 0.878643 11.0336 1.08691 11.8536C1.29543 12.6745 1.58757 13.4555 1.9834 13.9152C2.00291 13.938 2.07328 14.0106 2.14355 14.0773C2.17855 14.1104 2.21328 14.1424 2.24121 14.1652C2.2548 14.1762 2.26641 14.1848 2.27539 14.1906L2.27734 14.1915C2.30256 14.1591 2.30973 14.1165 2.30859 14.0646C2.30794 14.0354 2.3047 14.0057 2.30273 13.9747C2.30082 13.9446 2.30024 13.9133 2.30371 13.8839C2.32219 13.7263 2.43285 13.5745 2.60645 13.5597H2.61035C3.21152 13.5951 3.8441 13.5692 4.47656 13.547C5.10854 13.5248 5.7408 13.5059 6.33789 13.5558C6.43633 13.564 6.52013 13.5796 6.58203 13.6241C6.64559 13.6699 6.68201 13.7431 6.69531 13.8556C6.74949 14.3046 6.72888 14.8066 6.70508 15.3087C6.68124 15.8118 6.65415 16.3151 6.69531 16.7706L6.69629 16.7765L6.69434 16.7755C6.68548 16.8494 6.66294 16.9125 6.62207 16.962C6.58093 17.0117 6.52365 17.0468 6.45117 17.0665L6.44434 17.0685V17.0675L2.60449 17.0753L2.60352 17.0763V17.0753C2.51866 17.08 2.44715 17.0302 2.39648 16.9659C2.34539 16.9011 2.31123 16.8177 2.30273 16.7472V16.7443L2.29785 14.8898C2.29664 14.8877 2.29432 14.8839 2.28906 14.879C2.2818 14.8723 2.27107 14.8647 2.25781 14.8566C2.2314 14.8403 2.19635 14.8231 2.1582 14.8058C2.11992 14.7885 2.07963 14.772 2.04297 14.756C2.00696 14.7402 1.97382 14.7245 1.95117 14.7111C1.70589 14.566 1.49063 14.3255 1.30273 14.0323C1.11475 13.739 0.953279 13.3913 0.816406 13.0294C0.542686 12.3058 0.366145 11.5234 0.272461 11.0011C-0.0227823 9.35567 -0.088301 7.48349 0.03125 5.81653C0.0843456 5.07757 0.216097 4.02352 0.463867 3.0177C0.711337 2.01319 1.07628 1.05181 1.59961 0.501099C1.84124 0.247153 2.08617 0.0566424 2.45508 0.00891113L2.45801 0.00793457L17.3398 0.0167236ZM2.96387 14.1652C2.96068 14.1752 2.95574 14.1842 2.95117 14.1915C2.94666 14.1987 2.94122 14.2071 2.93848 14.2111C2.93786 14.212 2.93692 14.2124 2.93652 14.213V16.422C2.93652 16.4391 2.94247 16.4458 2.94824 16.4493C2.95618 16.4542 2.96967 16.4568 2.9873 16.4562C3.00424 16.4555 3.02227 16.4518 3.03711 16.4484C3.04435 16.4467 3.05052 16.4448 3.05566 16.4435C3.05797 16.4429 3.06053 16.443 3.0625 16.4425C3.0636 16.4423 3.06833 16.4406 3.07227 16.4406H6.0625L6.0918 16.4113V14.2433V14.2423V14.2413C6.09043 14.2387 6.08796 14.2344 6.08496 14.2296C6.07902 14.2202 6.07098 14.2082 6.0625 14.1964C6.054 14.1846 6.04478 14.1733 6.03809 14.1652C6.03658 14.1633 6.03536 14.1616 6.03418 14.1603H2.96387C2.96352 14.1617 2.96427 14.1639 2.96387 14.1652Z" fill="#00625B" stroke="#00625B" stroke-width="0.05"/>
<path d="M13.4771 1.75549V1.75647C13.7013 1.77911 13.8902 1.90937 14.0474 2.09924C14.2044 2.28902 14.3315 2.54005 14.4341 2.80823C14.6393 3.34496 14.7467 3.95677 14.7905 4.30237C14.9079 5.22916 14.9085 6.20472 14.7935 7.13147C14.7505 7.47707 14.6433 8.09783 14.438 8.64221C14.3354 8.91426 14.2081 9.16916 14.0503 9.36096C13.8924 9.55291 13.7022 9.68355 13.4761 9.70374H3.70947C3.46791 9.68219 3.26812 9.53589 3.104 9.3219C2.94 9.10804 2.80973 8.8242 2.70654 8.52209C2.50005 7.91732 2.40075 7.23196 2.36279 6.86877C2.29914 6.25772 2.28689 5.49124 2.35205 4.73596C2.41721 3.981 2.55926 3.23487 2.80518 2.66565C2.965 2.29488 3.19116 1.90729 3.60791 1.77405V1.76428H3.63232L13.4741 1.75549H13.4771ZM10.0054 2.37854L7.69189 4.65491L7.68799 4.65881L7.67432 4.63733L7.68701 4.65881C7.53563 4.75021 7.38875 4.7495 7.29248 4.67346C7.19619 4.59717 7.16061 4.45311 7.21436 4.28088L7.21826 4.26819L7.22021 4.27014L9.07373 2.41663L9.05518 2.36096H3.771C3.76419 2.361 3.75414 2.36404 3.74072 2.3717C3.7276 2.37921 3.71276 2.39035 3.69678 2.40491C3.66448 2.43439 3.62914 2.47563 3.59521 2.52014C3.5274 2.60915 3.46649 2.70988 3.44287 2.75452C3.0942 3.41691 2.9264 4.56404 2.9292 5.71643C2.93204 6.86878 3.10469 8.0196 3.43311 8.68713C3.51577 8.85477 3.59609 9.00366 3.75537 9.09241L7.56201 9.08459C8.92289 7.75412 10.233 6.35687 11.6274 5.06311L11.6343 5.05627L11.644 5.08167L11.6353 5.05823C11.8116 4.99055 11.9559 5.05696 12.022 5.17639C12.0871 5.29444 12.0735 5.45992 11.9468 5.58752C10.8892 6.65098 9.81119 7.68445 8.77002 8.76233C8.74342 8.78983 8.70897 8.81626 8.67432 8.84241C8.63904 8.86902 8.60304 8.89567 8.5708 8.92444C8.51219 8.97677 8.47322 9.03217 8.47217 9.09924H13.4136C13.4423 9.09924 13.4789 9.07821 13.521 9.03674C13.5621 8.9962 13.6045 8.93988 13.644 8.87854C13.7231 8.756 13.7906 8.61679 13.8188 8.55139C14.1085 7.87944 14.2531 6.8352 14.2583 5.78674C14.2635 4.73842 14.129 3.69007 13.8618 3.0094C13.8264 2.91953 13.7534 2.76128 13.6646 2.62268C13.6202 2.55351 13.5727 2.48968 13.5239 2.44202C13.4746 2.39389 13.4267 2.36501 13.3833 2.35901L10.0054 2.37854Z" fill="#00625B" stroke="#00625B" stroke-width="0.05"/>
<path d="M3.39258 10.7584C4.48253 10.7421 5.62185 10.7279 6.71582 10.7897C6.74213 10.7911 6.76993 10.7891 6.7998 10.7858C6.82904 10.7825 6.86111 10.778 6.89355 10.776C6.95973 10.7719 7.03201 10.7767 7.10742 10.8199C7.24289 10.8973 7.27348 11.0366 7.23047 11.1559C7.18771 11.2743 7.07182 11.3746 6.91504 11.3824C6.40187 11.4081 5.85552 11.3821 5.31152 11.36C4.76693 11.3378 4.22397 11.32 3.71484 11.3629C3.6386 11.3692 3.56869 11.3771 3.52051 11.4235V11.984L3.5498 12.0133H23.4307C23.4347 12.0117 23.4421 12.0063 23.4502 11.9908C23.4585 11.9748 23.4655 11.9519 23.4717 11.9235C23.4842 11.866 23.4906 11.7902 23.4922 11.7135C23.4938 11.637 23.4909 11.5603 23.4844 11.5006C23.4811 11.4709 23.4771 11.4458 23.4727 11.4274C23.4704 11.4181 23.4678 11.4107 23.4658 11.4059C23.4635 11.4004 23.4632 11.4005 23.4648 11.402C23.4455 11.3856 23.417 11.3764 23.3799 11.3727C23.343 11.369 23.3003 11.3706 23.2549 11.3737C23.2103 11.3767 23.1626 11.3816 23.1182 11.3815C23.0763 11.3813 23.0352 11.3754 22.999 11.3619L11.0684 11.3512H11.0586L11.0596 11.3492C10.9287 11.3016 10.8686 11.1764 10.873 11.0582C10.8775 10.94 10.9472 10.8222 11.0811 10.7926C11.1247 10.783 11.173 10.7832 11.2158 10.7819C11.26 10.7805 11.3005 10.7773 11.3369 10.7623L11.3467 10.7584V10.7604C15.255 10.7918 19.2033 10.7056 23.1182 10.7906C23.1951 10.7924 23.2902 10.7834 23.3887 10.775C23.4859 10.7668 23.5865 10.7591 23.6719 10.7662C23.7595 10.7737 23.8562 10.7807 23.9336 10.8141C23.973 10.8311 24.0086 10.856 24.0361 10.8912C24.0636 10.9265 24.0822 10.9712 24.0898 11.028C24.1032 11.1278 24.111 11.4279 24.1113 11.7233C24.1115 11.8714 24.1103 12.0194 24.1064 12.1412C24.1026 12.2622 24.0968 12.3602 24.0879 12.4069C24.0727 12.4855 24.017 12.5482 23.9502 12.5895C23.8838 12.6304 23.8029 12.651 23.7295 12.6461H3.24805C3.13846 12.6458 3.05153 12.6072 2.99121 12.5406C2.93128 12.4745 2.89909 12.3825 2.89453 12.2789C2.88111 11.9629 2.88422 11.4994 2.89062 11.1813C2.89426 11.008 2.93794 10.8998 3.02734 10.8365C3.1144 10.775 3.23956 10.7607 3.39258 10.7584Z" fill="#00625B" stroke="#00625B" stroke-width="0.05"/>
<path d="M23.0176 -0.00134277C23.5642 -0.0266661 24.1103 -0.0471955 24.5967 0.0172119C25.0706 0.0799608 25.4477 0.475171 25.7354 0.94397C26.0236 1.41377 26.226 1.96461 26.3486 2.35217C26.8094 3.80804 27.0416 5.76282 27.0225 7.70959C27.0034 9.65617 26.7331 11.5979 26.1875 13.0289C25.9161 13.7411 25.5435 14.4568 24.8467 14.8395L24.8213 16.8385V16.8492L24.8193 16.8483C24.7788 16.9352 24.7245 17.0243 24.6162 17.0543L24.6094 17.0563V17.0553L20.6689 17.067L20.6699 17.068H20.6299V17.0426L20.6084 17.0533C20.5971 17.0289 20.5809 17.0067 20.5635 16.985C20.5549 16.9743 20.5462 16.9635 20.5371 16.9528C20.528 16.942 20.5186 16.931 20.5098 16.9196C20.4739 16.8732 20.4432 16.8192 20.4521 16.7418C20.4831 16.2869 20.4638 15.807 20.4463 15.3268C20.4288 14.847 20.413 14.367 20.4521 13.9147V13.9137C20.4616 13.8061 20.4865 13.7208 20.5391 13.6598C20.5924 13.5979 20.6712 13.565 20.7812 13.5563C21.3858 13.509 22.0215 13.5264 22.6572 13.5475C23.2934 13.5685 23.9298 13.5936 24.5381 13.5602L24.542 13.5592V13.5602C24.6576 13.5698 24.7711 13.6552 24.8154 13.7594C24.8456 13.8298 24.8408 13.8966 24.8408 13.9508C24.8408 13.9956 24.8448 14.0321 24.8652 14.066C25.3745 13.5538 25.6578 12.7776 25.8525 12.0836C26.2423 10.6908 26.4444 8.79031 26.4033 6.90295C26.3622 5.01522 26.0776 3.1438 25.4951 1.80823C25.3032 1.36731 25.0434 0.873184 24.6084 0.655884C24.1143 0.632955 23.6179 0.639811 23.1211 0.644165C22.6225 0.648535 22.123 0.65128 21.627 0.619751C21.612 0.61899 21.5947 0.623652 21.5693 0.630493C21.5457 0.636872 21.5168 0.644182 21.4854 0.642212H21.4844C21.2663 0.62635 21.1453 0.482796 21.1328 0.333618C21.1267 0.259617 21.1477 0.184316 21.1963 0.124634C21.2451 0.0648994 21.3204 0.0214817 21.4209 0.00939941H21.4268L21.8066 0.0308838C22.1953 0.0401087 22.6067 0.0176909 23.0176 -0.00134277ZM21.0869 14.1901V16.4274L24.2129 16.441V14.191L24.1826 14.1608H21.1162L21.0869 14.1901Z" fill="#00625B" stroke="#00625B" stroke-width="0.05"/>
<path d="M19.1895 4.0094C19.6673 3.94997 20.0786 4.01744 20.3809 4.22815C20.6843 4.43976 20.8731 4.7926 20.9111 5.2926C20.931 5.55338 20.9454 5.99868 20.9375 6.43811C20.9296 6.87664 20.8998 7.31294 20.833 7.55334C20.6683 8.14604 20.0174 8.42758 19.3975 8.39221C18.7764 8.35671 18.1687 8.00255 18.0938 7.30725C18.0388 6.79559 18.0455 5.63475 18.0928 5.11584C18.1487 4.50099 18.5815 4.08485 19.1865 4.0094L19.1895 4.00842V4.0094ZM19.2871 4.7262L19.2822 4.72815C19.1602 4.75053 19.065 4.82634 18.9971 4.92737C18.929 5.02859 18.8887 5.15417 18.876 5.27112C18.8302 5.69087 18.8273 6.7064 18.876 7.12268C18.8844 7.19414 18.9204 7.32181 18.9521 7.38538C19.0602 7.60456 19.3162 7.70014 19.5605 7.67542C19.8047 7.65062 20.0264 7.50728 20.0703 7.26331C20.1092 7.04528 20.128 6.68239 20.1318 6.31604C20.1357 5.95015 20.1246 5.58192 20.1055 5.35315C20.0836 5.09306 20.005 4.9146 19.8721 4.81213C19.7398 4.7102 19.5476 4.67897 19.2871 4.7262Z" fill="#00625B" stroke="#00625B" stroke-width="0.05"/>
<path d="M8.46094 14.2633C11.904 14.2872 15.359 14.31 18.8047 14.2867C18.8452 14.2865 18.89 14.2819 18.9385 14.277C18.9864 14.2721 19.038 14.2677 19.0889 14.2672C19.1904 14.2662 19.295 14.2833 19.3789 14.36H19.3799C19.4636 14.4366 19.4878 14.5504 19.4648 14.651C19.4419 14.7515 19.3711 14.8423 19.2598 14.8717L19.2529 14.8737V14.8727L7.92285 14.8746H7.91406L7.90723 14.8688C7.82716 14.8044 7.76393 14.734 7.74023 14.6539C7.71605 14.5718 7.73486 14.4847 7.80762 14.3903C7.88519 14.2896 8.00532 14.2803 8.12109 14.2828C8.18111 14.2842 8.23801 14.2882 8.2959 14.2877C8.35272 14.2872 8.40552 14.2816 8.45215 14.2643L8.46191 14.2614L8.46094 14.2633Z" fill="#00625B" stroke="#00625B" stroke-width="0.05"/>
<path d="M21.5674 5.68274C21.7788 5.45751 22.1299 5.38534 22.4443 5.44543C22.7588 5.50563 23.0457 5.70032 23.124 6.01868C23.1768 6.23436 23.1581 6.41104 23.0879 6.56848C23.0179 6.72511 22.8971 6.86143 22.751 6.99817L22.7461 7.00305L22.7451 7.0011C22.6318 7.10657 22.4999 7.19537 22.373 7.27942C22.2439 7.36497 22.121 7.44644 22.0264 7.54016C21.993 7.57322 21.9352 7.64952 21.9082 7.71985C21.8946 7.75544 21.8903 7.78584 21.8965 7.80676C21.9018 7.82446 21.9169 7.84065 21.9551 7.84778H21.9541C22.0883 7.87269 22.2809 7.85703 22.4756 7.84387C22.5719 7.83736 22.6685 7.83126 22.7568 7.83215C22.8449 7.83305 22.9267 7.84076 22.9932 7.86145C23.089 7.89143 23.139 7.9705 23.1504 8.05579C23.1616 8.14011 23.1363 8.23329 23.0791 8.29895L23.0713 8.30774H21.416L21.4092 8.30286C21.3656 8.27173 21.3424 8.2102 21.3301 8.14172C21.3175 8.07133 21.3147 7.98581 21.3203 7.90051C21.3259 7.8152 21.3396 7.72801 21.3574 7.65247C21.3751 7.57761 21.3976 7.51153 21.4238 7.46985C21.4851 7.37206 21.5927 7.27323 21.7158 7.17395C21.8389 7.07471 21.982 6.97156 22.1152 6.86926C22.2494 6.76627 22.3745 6.66275 22.4658 6.55872C22.5574 6.45435 22.612 6.3534 22.6113 6.255C22.6108 6.19763 22.5763 6.12032 22.5234 6.05286C22.4705 5.98528 22.4043 5.93367 22.3467 5.922C22.2984 5.91223 22.2261 5.91493 22.1562 5.92981C22.1211 5.93732 22.0879 5.94763 22.0596 5.96008L21.9912 6.00403C21.9605 6.03471 21.943 6.07614 21.9307 6.12415C21.9245 6.148 21.9201 6.17288 21.915 6.19836C21.91 6.22363 21.9043 6.24953 21.8975 6.27454C21.8837 6.32452 21.8627 6.37427 21.8203 6.41028C21.7776 6.44642 21.7168 6.46631 21.6299 6.46497C21.5343 6.46354 21.4679 6.42451 21.4287 6.36145C21.3906 6.3001 21.38 6.21892 21.3857 6.13586C21.3973 5.97003 21.476 5.78022 21.5674 5.68274Z" fill="#00625B" stroke="#00625B" stroke-width="0.05"/>
<path d="M4.47803 4.24084C4.56548 4.2532 4.65394 4.27671 4.72607 4.31897C4.80003 4.36241 4.86098 4.42897 4.87842 4.52405L4.88037 4.53674H4.87939L4.88135 6.89514L4.86963 6.9801C4.84533 7.05789 4.78583 7.1137 4.71533 7.151C4.62391 7.19935 4.50588 7.22258 4.39014 7.2301C4.27312 7.23769 4.15126 7.23028 4.04834 7.2135C3.99689 7.2051 3.94875 7.19338 3.90771 7.1803C3.86806 7.16764 3.82903 7.15196 3.80029 7.13049C3.68621 7.04454 3.66113 6.90221 3.68896 6.78479C3.71675 6.66807 3.80195 6.55227 3.93604 6.52307C3.97284 6.515 4.01165 6.51564 4.04248 6.51624C4.07657 6.51689 4.10201 6.51737 4.12549 6.51526C4.14808 6.5132 4.15876 6.50907 4.16357 6.50549C4.16634 6.5034 4.17096 6.49668 4.17529 6.47522L4.17334 4.98206C3.93696 5.00346 3.75944 4.86347 3.70166 4.69495C3.67118 4.6057 3.67343 4.50543 3.72412 4.41956C3.77535 4.33277 3.869 4.2733 3.99854 4.25159V4.25061C4.1077 4.23231 4.30222 4.21607 4.47803 4.24084Z" fill="#00625B" stroke="#00625B" stroke-width="0.15"/>
</g>
<defs>
<clipPath id="clip0_1801_135">
<rect width="27" height="17.052" fill="white" transform="translate(0 -0.000366211)"/>
</clipPath>
</defs>
</svg>
