<svg width="48" height="48" viewBox="0 0 48 48" fill="none" xmlns="http://www.w3.org/2000/svg">
<path d="M46 17.0001C46 10.7001 41.79 4.00012 34 4.00012C30.087 4.16812 26.439 6.02512 24 9.09012C21.704 5.85612 17.967 3.95312 14 4.00012C6.21003 4.00012 2.00003 10.7001 2.00003 17.0001V17.3601C2.00003 20.7501 1.84003 31.0601 23.49 43.8601C23.799 44.0391 24.181 44.0391 24.49 43.8601C46.16 31.0601 46 20.7501 46 17.3601V17.0001ZM24 41.8401C13.72 35.6901 8.72003 30.2601 6.29003 26.0001H14C14.266 26.0021 14.521 25.8971 14.71 25.7101L19.01 21.4101V34.0001C18.999 34.4801 19.331 34.8991 19.8 35.0001H20C20.393 34.9991 20.749 34.7681 20.91 34.4101L27 20.7001V31.0001C27.005 31.5521 27.458 31.9961 28.01 31.9901C28.299 31.9871 28.572 31.8591 28.76 31.6401L33.47 26.0001H41.72C39.28 30.2601 34.28 35.6901 24 41.8401ZM42.72 24.0001H33C32.703 24.0001 32.42 24.1311 32.23 24.3601L29 28.2401V16.0001C28.997 15.4481 28.548 15.0021 27.995 15.0051C27.605 15.0071 27.251 15.2351 27.09 15.5901L21 29.3001V19.0001C20.998 18.4481 20.548 18.0021 19.996 18.0041C19.736 18.0051 19.486 18.1081 19.3 18.2901L13.59 24.0001H5.28003C4.35803 21.9221 3.92003 19.6621 4.00003 17.3901V17.0001C4.00003 11.6701 7.50003 6.00012 14 6.00012C17.818 5.92612 21.345 8.03312 23.09 11.4301C23.125 11.5021 23.303 12.0001 24 12.0001C24.377 11.9991 24.721 11.7861 24.89 11.4501C26.75 7.73012 31.42 6.00012 34 6.00012C40.5 6.00012 44 11.6701 44 17.0001V17.3901C44.08 19.6621 43.642 21.9221 42.72 24.0001Z" fill="#C8DEB8"/>
<path d="M14 9C10.31 9 6 11.62 6 19C6 19.552 6.448 20 7 20C7.552 20 8 19.552 8 19C8 11.57 12.59 11 14 11C14.552 11 15 10.552 15 10C15 9.448 14.552 9 14 9Z" fill="#C8DEB8"/>
</svg>
