<svg width="52" height="52" viewBox="0 0 52 52" fill="none" xmlns="http://www.w3.org/2000/svg">
<g clip-path="url(#clip0_100_4747)">
<path d="M33.956 19.6326C36.2473 13.4576 35.9548 10.5738 35.4575 8.14929C35.0059 5.96697 33.9425 3.95824 32.3917 2.35779C31.6027 1.58553 30.6671 0.978942 29.6401 0.573725C28.6131 0.168507 27.5154 -0.0271436 26.4117 -0.00170957H25.5883C24.4846 -0.0271436 23.3869 0.168507 22.3599 0.573725C21.3329 0.978942 20.3974 1.58553 19.6083 2.35779C18.0594 3.95815 16.9966 5.96539 16.5436 8.14604C16.0474 10.5749 15.7549 13.463 18.0462 19.6294C18.5052 20.8043 19.0267 21.954 19.6083 23.0733C19.6763 23.2074 19.7801 23.32 19.9083 23.3986C20.0364 23.4772 20.1838 23.5187 20.3342 23.5185C20.4615 23.5189 20.587 23.4888 20.7003 23.4308C20.8925 23.3334 21.0382 23.1637 21.1055 22.9589C21.1727 22.7542 21.1559 22.5312 21.0589 22.3388C20.5037 21.2749 20.0057 20.1821 19.5672 19.065C17.4243 13.2951 17.6843 10.667 18.1339 8.46779C18.3543 7.45956 18.7153 6.48732 19.2064 5.57962C19.2118 5.82554 19.2259 6.05846 19.2465 6.27512C19.5943 9.89129 20.7523 12.9582 23.3783 17.2168C23.5268 17.4562 23.6849 17.7065 23.8518 17.9621C23.9712 18.1382 24.155 18.2604 24.3636 18.3025C24.5722 18.3445 24.7889 18.303 24.9673 18.187C25.1457 18.0709 25.2714 17.8895 25.3174 17.6818C25.3634 17.474 25.3261 17.2565 25.2135 17.076C25.0532 16.83 24.9026 16.5906 24.7607 16.362C22.2463 12.2865 21.1857 9.51104 20.8607 6.12129C20.7992 5.19915 20.8278 4.2732 20.9463 3.35662C22.2162 2.20833 23.8766 1.58832 25.5883 1.62329H26.4117C28.1234 1.58832 29.7839 2.20833 31.0538 3.35662C31.1705 4.27371 31.1981 5.19996 31.1361 6.12237C30.8111 9.50996 29.7538 12.2855 27.2361 16.362C26.7453 17.1594 26.1235 18.0878 25.3489 19.1787L21.0817 24.8521C15.665 31.741 9.25384 39.0893 9.18992 39.163C9.09154 39.2755 9.02614 39.4131 9.00091 39.5605C8.97568 39.7078 8.9916 39.8593 9.04692 39.9982L13.6143 51.4815C13.669 51.6196 13.7606 51.74 13.879 51.8296C13.9974 51.9191 14.1382 51.9745 14.2859 51.9896C14.3137 51.9912 14.3416 51.9912 14.3693 51.9896C14.5038 51.9897 14.6361 51.9564 14.7545 51.8927C14.8729 51.829 14.9736 51.7368 15.0475 51.6245C15.1103 51.5292 21.3731 42.0251 26.7031 33.145L30.9833 25.7372C32.1064 23.7694 33.0994 21.7302 33.956 19.6326ZM25.3034 32.3304C21.1597 39.2323 16.4428 46.522 14.547 49.4319L10.7402 39.8574C12.1193 38.266 17.6237 31.883 22.3654 25.8499L22.3752 25.8369L26.663 20.1407C27.4712 19 28.1125 18.0423 28.6217 17.2157C31.2477 12.9604 32.4058 9.89346 32.7535 6.27404C32.7741 6.05737 32.7882 5.82446 32.7936 5.57854C33.2847 6.48624 33.6457 7.45848 33.8661 8.46671C34.3157 10.6648 34.5757 13.293 32.4318 19.0628C31.608 21.0821 30.6538 23.0456 29.575 24.941L25.3034 32.3304Z" fill="#C8DEB8"/>
<path d="M42.8002 39.1518C42.7525 39.0998 38.0638 33.9193 32.9202 27.4399C32.8537 27.3564 32.7715 27.2867 32.6781 27.2349C32.5847 27.1831 32.4821 27.1502 32.376 27.1381C32.2699 27.1259 32.1625 27.1348 32.0599 27.1642C31.9572 27.1936 31.8614 27.243 31.7778 27.3094C31.6942 27.3758 31.6245 27.4581 31.5727 27.5514C31.5209 27.6448 31.488 27.7475 31.4759 27.8535C31.4638 27.9596 31.4727 28.0671 31.5021 28.1697C31.5315 28.2723 31.5808 28.3682 31.6472 28.4518C36.0272 33.9659 40.0832 38.5528 41.2564 39.8658L37.4474 49.4457C35.83 46.9974 32.1391 41.3413 28.2716 34.9377C28.1602 34.7531 27.9801 34.6203 27.7709 34.5685C27.5616 34.5167 27.3403 34.5501 27.1557 34.6614C26.9711 34.7728 26.8383 34.9529 26.7865 35.1621C26.7347 35.3714 26.7682 35.5927 26.8795 35.7773C32.047 44.3356 36.9079 51.5679 36.9545 51.6394C37.0288 51.7498 37.1292 51.8403 37.2467 51.9028C37.3642 51.9653 37.4952 51.998 37.6283 51.998C37.6572 51.9996 37.6861 51.9996 37.715 51.998C37.862 51.982 38.0019 51.9262 38.1197 51.8367C38.2375 51.7472 38.3286 51.6273 38.3834 51.4899L42.9507 40.0066C43.009 39.8645 43.0258 39.7087 42.9991 39.5574C42.9725 39.4061 42.9035 39.2655 42.8002 39.1518Z" fill="#C8DEB8"/>
<path d="M30.1754 6.29181C30.2211 6.19498 30.2471 6.09007 30.2521 5.98312C30.2571 5.87617 30.241 5.76929 30.2045 5.66862C30.1681 5.56794 30.1121 5.47547 30.0398 5.3965C29.9675 5.31753 29.8803 5.25364 29.7832 5.20848C28.5991 4.6524 27.3084 4.36003 26.0002 4.35156C24.6264 4.36645 23.2736 4.69004 22.0417 5.2984C21.8767 5.379 21.7439 5.51319 21.6651 5.67904C21.5862 5.84488 21.5659 6.03258 21.6076 6.21144C21.6492 6.3903 21.7503 6.54975 21.8943 6.66372C22.0383 6.77769 22.2167 6.83945 22.4003 6.8389C22.5218 6.83826 22.6415 6.80972 22.7502 6.75548C23.7349 6.27082 24.8157 6.01292 25.9131 6.00074C27.0106 5.98855 28.0968 6.22239 29.092 6.68506C29.1889 6.73115 29.2939 6.75753 29.401 6.76268C29.5081 6.76783 29.6152 6.75164 29.716 6.71505C29.8168 6.67846 29.9093 6.6222 29.9882 6.54954C30.067 6.47688 30.1307 6.38928 30.1754 6.29181Z" fill="#C8DEB8"/>
</g>
<defs>
<clipPath id="clip0_100_4747">
<rect width="52" height="52" fill="white"/>
</clipPath>
</defs>
</svg>
