<svg width="24" height="24" viewBox="0 0 24 24" fill="none" xmlns="http://www.w3.org/2000/svg">
<path d="M17.2705 9.49407C16.8294 8.9763 16.3116 8.5736 15.7555 8.26677C16.1774 8.19006 16.6568 8.11336 16.676 8.11336C16.6952 8.11336 16.7335 8.11336 16.7527 8.09418C16.8869 8.05583 17.1362 7.90242 17.1362 7.38465C17.1362 7.11618 17.0979 6.771 16.9828 6.445C16.7719 5.81217 16.3692 5.12182 15.8897 5.2177C15.7555 5.23688 14.2981 5.37111 12.7448 6.04229C12.227 5.69711 11.6709 5.42864 11.1723 5.27523L11.4216 4.48899C11.4791 4.3164 11.46 4.06711 11.0764 3.74111C10.8463 3.54934 10.5395 3.37675 10.1943 3.24252C9.50395 2.97404 8.64101 2.83981 8.43007 3.31922L7.47124 5.67794L6.97265 6.98194C6.87676 7.25041 6.76171 7.53806 6.64665 7.88324C6.58912 8.07501 6.51241 8.26677 6.4357 8.49689C5.74535 10.4337 5.97547 11.7953 6.4357 13.0417C6.4357 13.291 6.4357 13.5595 6.45488 13.8471C6.51241 15.458 7.73971 16.877 8.73689 17.7783C10.8271 19.6385 13.9337 21 16.0048 21C16.1199 21 16.2157 21 16.3116 20.9808C17.1746 20.9233 17.8458 20.3288 18.306 19.2741C19.4374 16.6086 18.8813 11.3925 17.2705 9.49407ZM16.3883 6.63676C16.5034 6.98194 16.5226 7.23124 16.5226 7.40383C16.4267 7.26959 16.2925 7.05865 16.1774 6.71347C16.0623 6.36829 16.0432 6.119 16.0432 5.94641C16.1582 6.06147 16.2733 6.29159 16.3883 6.63676ZM9.98337 3.79864C10.3285 3.93287 10.5778 4.08628 10.7121 4.20134C10.5203 4.18217 10.2518 4.14381 9.88748 3.9904C9.54231 3.85617 9.29301 3.70275 9.15877 3.58769C9.35054 3.60687 9.63819 3.6644 9.98337 3.79864ZM7.03018 8.70783C7.10688 8.49689 7.18359 8.28595 7.24112 8.09418C7.35618 7.749 7.47124 7.46136 7.56712 7.21206L8.06571 5.90806L8.79442 4.08628C9.02454 4.25887 9.33136 4.43146 9.67654 4.5657C10.0217 4.69993 10.3861 4.79582 10.6737 4.81499C10.6737 4.81499 10.6737 4.81499 10.6929 4.81499L10.482 5.48617C10.4053 5.69711 10.3669 5.92723 10.3669 6.15735V6.445C10.3669 6.61759 10.5011 6.75182 10.6737 6.75182C10.8463 6.75182 10.9805 6.61759 10.9805 6.445V6.15735C10.9805 6.04229 10.9997 5.94641 11.0189 5.83135C11.3833 5.94641 11.7476 6.119 12.112 6.32994C11.575 6.61759 11.0381 6.96277 10.5778 7.40383C10.0792 7.46136 9.63819 7.55724 9.23548 7.6723C7.81642 8.09418 6.97265 9.07219 6.62747 10.7981C6.62747 10.1844 6.74253 9.49407 7.03018 8.70783ZM17.7499 19.044C17.4047 19.8878 16.9061 20.3288 16.2925 20.3863C14.4131 20.5206 11.2107 19.1399 9.15877 17.3181C8.2383 16.4935 7.12606 15.2279 7.08771 13.828C6.91512 9.57078 8.16159 8.6503 9.40807 8.28595C9.58066 8.24759 9.75325 8.19006 9.92584 8.15171C9.90666 8.17089 9.88748 8.20924 9.86831 8.22842C9.86831 8.22842 9.75325 8.36265 9.38889 8.36265C9.2163 8.36265 9.08207 8.47771 9.06289 8.6503C9.06289 8.82289 9.17795 8.95713 9.35054 8.9763C10.0409 8.99548 10.3094 8.66948 10.3861 8.5736C11.6901 6.71347 14.3556 6.09982 15.4679 5.90806C15.4487 6.21488 15.5254 6.57924 15.6213 6.88606C15.7172 7.15453 15.8322 7.40383 15.9473 7.61477C15.0843 7.749 13.3968 8.19006 12.764 9.64748C12.7448 9.66666 12.6297 10.031 12.5147 10.5104C12.4763 10.683 12.227 10.8748 12.0161 11.0474C11.7284 11.2775 11.4408 11.5076 11.2874 11.8336C11.2107 11.987 11.2874 12.1788 11.4408 12.2363C11.4791 12.2555 11.5367 12.2747 11.575 12.2747C11.6901 12.2747 11.8051 12.2171 11.8627 12.1021C11.9586 11.9103 12.1695 11.7377 12.3804 11.546C12.3804 11.6994 12.3804 11.8528 12.3996 12.0062C12.4188 12.1788 12.4763 12.3322 12.5722 12.4856C12.6681 13.0993 12.0353 14.6142 11.4983 15.1512C11.3833 15.2662 11.3833 15.4772 11.4983 15.5922C11.5558 15.6497 11.6325 15.6881 11.7093 15.6881C11.786 15.6881 11.8627 15.6497 11.9394 15.5922C11.9969 15.5347 12.0353 15.4772 12.0928 15.4196C12.0928 15.4388 12.0928 15.458 12.0928 15.4772C12.0928 15.6497 12.227 15.784 12.3996 15.784C12.5722 15.784 12.7064 15.6497 12.7064 15.4772C12.7064 15.3237 12.6681 15.1703 12.6297 15.0169C12.5914 14.9019 12.553 14.7101 12.5722 14.6526C12.8215 14.1731 13.0324 13.6362 13.1283 13.1376C13.1858 13.1951 13.2626 13.2527 13.3393 13.3102C13.7803 13.6937 14.2022 14.0581 14.183 14.5183C14.1639 14.8443 14.1255 15.2279 14.068 15.5922C13.9337 16.4935 13.7995 17.4332 14.2597 17.9893C14.3173 18.066 14.4131 18.1043 14.509 18.1043C14.5666 18.1043 14.6433 18.0852 14.7008 18.0468C14.835 17.9318 14.8542 17.74 14.7583 17.6058C14.4707 17.2414 14.5857 16.4552 14.7008 15.6689C14.7583 15.2854 14.8159 14.8827 14.8159 14.5183C14.8159 14.4608 14.8159 14.4224 14.7967 14.3649C15.0076 14.5183 15.2186 14.6717 15.4295 14.8443C15.4487 14.8827 15.4295 14.9786 15.4295 15.0553C15.4103 15.1512 15.4103 15.247 15.4103 15.3621C15.4295 15.5155 15.5637 15.6497 15.7172 15.6497H15.7363C15.9089 15.6306 16.024 15.4963 16.024 15.3237C16.0623 15.3621 16.1199 15.4004 16.1582 15.4388C16.2157 15.4772 16.2733 15.4963 16.3308 15.4963C16.4267 15.4963 16.5226 15.458 16.5801 15.3621C16.676 15.2279 16.6568 15.0361 16.5034 14.9402C16.2349 14.7484 16.024 14.5759 15.8322 14.4033C15.4103 14.0581 15.0268 13.7513 14.3748 13.4444C14.183 13.2143 13.9529 13.0226 13.742 12.8308C13.3776 12.524 13.0516 12.2171 13.0133 11.9103C12.9749 11.5268 13.0324 11.0474 13.1283 10.6447C13.1475 10.5488 13.1667 10.4529 13.205 10.3762C13.2626 10.4145 13.3201 10.4337 13.3776 10.4337C13.4543 10.4337 13.5119 10.4145 13.5694 10.357C13.7036 10.242 13.7228 10.0502 13.6077 9.91595C13.531 9.82007 13.4735 9.62831 13.4927 9.58995C13.8379 9.05301 14.394 8.70783 14.9309 8.49689C15.6596 8.80371 16.3116 9.24478 16.8486 9.85843C18.2293 11.5843 18.747 16.6277 17.7499 19.044Z" fill="#00625B"/>
</svg>
