<svg width="25" height="24" viewBox="0 0 25 24" fill="none" xmlns="http://www.w3.org/2000/svg">
<path d="M17.7705 9.49407C17.3294 8.9763 16.8116 8.5736 16.2555 8.26677C16.6774 8.19006 17.1568 8.11336 17.176 8.11336C17.1952 8.11336 17.2335 8.11336 17.2527 8.09418C17.3869 8.05583 17.6362 7.90242 17.6362 7.38465C17.6362 7.11618 17.5979 6.771 17.4828 6.445C17.2719 5.81217 16.8692 5.12182 16.3897 5.2177C16.2555 5.23688 14.7981 5.37111 13.2448 6.04229C12.727 5.69711 12.1709 5.42864 11.6723 5.27523L11.9216 4.48899C11.9791 4.3164 11.96 4.06711 11.5764 3.74111C11.3463 3.54934 11.0395 3.37675 10.6943 3.24252C10.004 2.97404 9.14101 2.83981 8.93007 3.31922L7.97124 5.67794L7.47265 6.98194C7.37676 7.25041 7.26171 7.53806 7.14665 7.88324C7.08912 8.07501 7.01241 8.26677 6.9357 8.49689C6.24535 10.4337 6.47547 11.7953 6.9357 13.0417C6.9357 13.291 6.9357 13.5595 6.95488 13.8471C7.01241 15.458 8.23971 16.877 9.23689 17.7783C11.3271 19.6385 14.4337 21 16.5048 21C16.6199 21 16.7157 21 16.8116 20.9808C17.6746 20.9233 18.3458 20.3288 18.806 19.2741C19.9374 16.6086 19.3813 11.3925 17.7705 9.49407ZM16.8883 6.63676C17.0034 6.98194 17.0226 7.23124 17.0226 7.40383C16.9267 7.26959 16.7925 7.05865 16.6774 6.71347C16.5623 6.36829 16.5432 6.119 16.5432 5.94641C16.6582 6.06147 16.7733 6.29159 16.8883 6.63676ZM10.4834 3.79864C10.8285 3.93287 11.0778 4.08628 11.2121 4.20134C11.0203 4.18217 10.7518 4.14381 10.3875 3.9904C10.0423 3.85617 9.79301 3.70275 9.65877 3.58769C9.85054 3.60687 10.1382 3.6644 10.4834 3.79864ZM7.53018 8.70783C7.60688 8.49689 7.68359 8.28595 7.74112 8.09418C7.85618 7.749 7.97124 7.46136 8.06712 7.21206L8.56571 5.90806L9.29442 4.08628C9.52454 4.25887 9.83136 4.43146 10.1765 4.5657C10.5217 4.69993 10.8861 4.79582 11.1737 4.81499C11.1737 4.81499 11.1737 4.81499 11.1929 4.81499L10.982 5.48617C10.9053 5.69711 10.8669 5.92723 10.8669 6.15735V6.445C10.8669 6.61759 11.0011 6.75182 11.1737 6.75182C11.3463 6.75182 11.4805 6.61759 11.4805 6.445V6.15735C11.4805 6.04229 11.4997 5.94641 11.5189 5.83135C11.8833 5.94641 12.2476 6.119 12.612 6.32994C12.075 6.61759 11.5381 6.96277 11.0778 7.40383C10.5792 7.46136 10.1382 7.55724 9.73548 7.6723C8.31642 8.09418 7.47265 9.07219 7.12747 10.7981C7.12747 10.1844 7.24253 9.49407 7.53018 8.70783ZM18.2499 19.044C17.9047 19.8878 17.4061 20.3288 16.7925 20.3863C14.9131 20.5206 11.7107 19.1399 9.65877 17.3181C8.7383 16.4935 7.62606 15.2279 7.58771 13.828C7.41512 9.57078 8.66159 8.6503 9.90807 8.28595C10.0807 8.24759 10.2532 8.19006 10.4258 8.15171C10.4067 8.17089 10.3875 8.20924 10.3683 8.22842C10.3683 8.22842 10.2532 8.36265 9.88889 8.36265C9.7163 8.36265 9.58207 8.47771 9.56289 8.6503C9.56289 8.82289 9.67795 8.95713 9.85054 8.9763C10.5409 8.99548 10.8094 8.66948 10.8861 8.5736C12.1901 6.71347 14.8556 6.09982 15.9679 5.90806C15.9487 6.21488 16.0254 6.57924 16.1213 6.88606C16.2172 7.15453 16.3322 7.40383 16.4473 7.61477C15.5843 7.749 13.8968 8.19006 13.264 9.64748C13.2448 9.66666 13.1297 10.031 13.0147 10.5104C12.9763 10.683 12.727 10.8748 12.5161 11.0474C12.2284 11.2775 11.9408 11.5076 11.7874 11.8336C11.7107 11.987 11.7874 12.1788 11.9408 12.2363C11.9791 12.2555 12.0367 12.2747 12.075 12.2747C12.1901 12.2747 12.3051 12.2171 12.3627 12.1021C12.4586 11.9103 12.6695 11.7377 12.8804 11.546C12.8804 11.6994 12.8804 11.8528 12.8996 12.0062C12.9188 12.1788 12.9763 12.3322 13.0722 12.4856C13.1681 13.0993 12.5353 14.6142 11.9983 15.1512C11.8833 15.2662 11.8833 15.4772 11.9983 15.5922C12.0558 15.6497 12.1325 15.6881 12.2093 15.6881C12.286 15.6881 12.3627 15.6497 12.4394 15.5922C12.4969 15.5347 12.5353 15.4772 12.5928 15.4196C12.5928 15.4388 12.5928 15.458 12.5928 15.4772C12.5928 15.6497 12.727 15.784 12.8996 15.784C13.0722 15.784 13.2064 15.6497 13.2064 15.4772C13.2064 15.3237 13.1681 15.1703 13.1297 15.0169C13.0914 14.9019 13.053 14.7101 13.0722 14.6526C13.3215 14.1731 13.5324 13.6362 13.6283 13.1376C13.6858 13.1951 13.7626 13.2527 13.8393 13.3102C14.2803 13.6937 14.7022 14.0581 14.683 14.5183C14.6639 14.8443 14.6255 15.2279 14.568 15.5922C14.4337 16.4935 14.2995 17.4332 14.7597 17.9893C14.8173 18.066 14.9131 18.1043 15.009 18.1043C15.0666 18.1043 15.1433 18.0852 15.2008 18.0468C15.335 17.9318 15.3542 17.74 15.2583 17.6058C14.9707 17.2414 15.0857 16.4552 15.2008 15.6689C15.2583 15.2854 15.3159 14.8827 15.3159 14.5183C15.3159 14.4608 15.3159 14.4224 15.2967 14.3649C15.5076 14.5183 15.7186 14.6717 15.9295 14.8443C15.9487 14.8827 15.9295 14.9786 15.9295 15.0553C15.9103 15.1512 15.9103 15.247 15.9103 15.3621C15.9295 15.5155 16.0637 15.6497 16.2172 15.6497H16.2363C16.4089 15.6306 16.524 15.4963 16.524 15.3237C16.5623 15.3621 16.6199 15.4004 16.6582 15.4388C16.7157 15.4772 16.7733 15.4963 16.8308 15.4963C16.9267 15.4963 17.0226 15.458 17.0801 15.3621C17.176 15.2279 17.1568 15.0361 17.0034 14.9402C16.7349 14.7484 16.524 14.5759 16.3322 14.4033C15.9103 14.0581 15.5268 13.7513 14.8748 13.4444C14.683 13.2143 14.4529 13.0226 14.242 12.8308C13.8776 12.524 13.5516 12.2171 13.5133 11.9103C13.4749 11.5268 13.5324 11.0474 13.6283 10.6447C13.6475 10.5488 13.6667 10.4529 13.705 10.3762C13.7626 10.4145 13.8201 10.4337 13.8776 10.4337C13.9543 10.4337 14.0119 10.4145 14.0694 10.357C14.2036 10.242 14.2228 10.0502 14.1077 9.91595C14.031 9.82007 13.9735 9.62831 13.9927 9.58995C14.3379 9.05301 14.894 8.70783 15.4309 8.49689C16.1596 8.80371 16.8116 9.24478 17.3486 9.85843C18.7293 11.5843 19.247 16.6277 18.2499 19.044Z" fill="#00625B"/>
</svg>
