<svg width="46" height="46" viewBox="0 0 46 46" fill="none" xmlns="http://www.w3.org/2000/svg">
<g clip-path="url(#clip0_100_8319)">
<path d="M35.2834 21.7854C37.375 20.9323 39.1428 19.5863 40.1026 18.767C40.1625 18.7713 40.2268 18.7913 40.2858 18.7913C40.7831 18.7913 41.2343 18.6377 41.5945 18.3391C41.5954 18.3383 41.5954 18.3383 41.5962 18.3374C42.0102 17.9929 42.2567 17.4912 42.3105 16.8889C42.3999 15.8909 41.9425 14.6872 41.0894 13.6692C40.9228 13.4696 40.7475 13.2882 40.5678 13.1207L42.0883 10.4329C42.5153 10.3401 42.8607 10.124 43.0837 9.79507C43.8041 8.74669 42.9891 7.10297 41.0963 5.79597C39.5455 4.73024 37.4921 4.14531 36.6425 5.37246C36.4967 5.58682 36.3118 6.00166 36.4238 6.58659C34.0051 10.2906 29.776 15.2522 28.725 16.4689C28.0611 16.6164 27.4267 16.7397 26.8348 16.8438C28.101 15.3164 28.9047 13.4557 29.086 11.4015C29.3803 7.96475 27.9526 4.62176 25.2692 2.45906C25.2458 2.43996 25.2206 2.42261 25.1954 2.40525C23.4441 1.27182 21.5799 0.532409 19.6698 0.20783C18.7733 0.0385971 17.7978 -0.028228 16.7616 0.0108257C7.12834 0.449094 -0.253663 11.1055 0.303502 23.7685C0.858932 36.1788 8.83543 46.0013 18.2205 46.0004C18.4114 46.0004 18.6014 45.9969 18.7941 45.9883C19.1126 45.9726 26.6448 45.57 29.1294 40.8306C29.9244 39.3144 30.3679 37.9059 30.4842 36.526C30.7628 33.2819 29.533 30.1108 27.3061 27.9429C33.9044 28.3612 38.3582 30.9517 38.3582 44.8522C38.3582 45.3322 38.7462 45.7201 39.2261 45.7201H44.8585C45.3384 45.7201 45.7264 45.3322 45.7264 44.8522C45.7264 31.265 40.7718 24.921 35.2834 21.7854ZM25.8923 18.7583C28.7858 18.3279 33.2275 17.401 36.1799 15.5438C36.3917 16.0506 36.6972 16.5566 37.0894 17.0269C37.434 17.4331 37.8237 17.7776 38.2281 18.0562C36.9723 19.023 35.0448 20.2562 33.0209 20.6728C30.4911 19.6097 27.9761 19.095 25.8923 18.7583ZM40.4845 17.0044C40.4107 17.0643 40.2354 17.0703 40.0228 17.0174C39.6219 16.9245 38.9892 16.5826 38.4173 15.9109C37.8202 15.1932 37.5963 14.4919 37.5859 14.0806C37.5824 13.8922 37.6232 13.7438 37.69 13.6874C37.736 13.6492 37.8098 13.6301 37.9061 13.6301C38.3027 13.6301 39.0751 13.9686 39.7581 14.7853C40.4238 15.5776 40.6164 16.3318 40.5808 16.7362C40.5696 16.8638 40.5348 16.9618 40.4845 17.0044ZM40.1122 7.22447C41 7.83891 41.4175 8.43774 41.5537 8.74843C41.1745 8.73107 40.4515 8.51151 39.6245 7.94045C38.8026 7.37114 38.3409 6.78186 38.1821 6.42344C38.5275 6.4434 39.2322 6.62131 40.1122 7.22447ZM37.381 8.27892C37.7291 8.66078 38.1534 9.03309 38.6386 9.36895C39.1654 9.73258 39.706 10.0103 40.225 10.2021L39.1142 12.1652C38.1708 11.7712 37.2387 11.8007 36.5731 12.3579C36.2016 12.672 35.9682 13.1172 35.8857 13.6388C34.7766 14.4885 33.2674 15.1576 31.6723 15.6748C33.2995 13.723 35.6453 10.8148 37.381 8.27892ZM28.7545 36.3793C28.6565 37.5405 28.2867 38.6991 27.5916 40.0243C25.5643 43.8924 18.7811 44.2508 18.7151 44.2543C10.0444 44.6101 2.5608 35.3986 2.03662 23.6912C1.52111 11.9847 8.16197 2.13968 16.8336 1.74568C17.7284 1.71443 18.5771 1.76824 19.3626 1.91664C21.0419 2.2013 22.6726 2.84786 24.2148 3.83895C26.4261 5.63976 27.6003 8.40823 27.3573 11.2513C27.0882 14.2888 25.1946 16.8456 22.2872 18.1569C19.1369 17.3498 18.0764 13.815 17.7266 11.7C17.6911 11.2531 17.317 10.9016 16.8614 10.9016C16.4396 10.9016 16.0873 11.2036 16.01 11.6028C16.0048 11.628 16.0005 11.6532 15.9979 11.6783C15.6212 13.4192 14.1268 14.6776 12.3407 14.7471C12.0109 14.7601 11.7158 14.9588 11.5822 15.2608C11.4477 15.5629 11.4954 15.9152 11.708 16.1695C12.2886 16.8681 12.6089 17.7533 12.6089 18.6611C12.6089 19.9186 12.0022 21.1015 10.986 21.8253C10.7881 21.9659 10.6588 22.1829 10.6284 22.4224C10.598 22.6628 10.6701 22.9058 10.8263 23.0915C11.4164 23.7919 11.7419 24.6841 11.7419 25.6049C11.7419 26.9231 11.0867 28.1416 9.98881 28.8637C9.64253 29.091 9.50541 29.5328 9.66249 29.9164C9.81958 30.3008 10.2249 30.5213 10.6328 30.4406C10.8393 30.3998 11.0728 30.3789 11.3071 30.3789C13.3014 30.3789 14.9677 31.8708 15.1829 33.8486C15.2272 34.2539 15.5483 34.5742 15.9536 34.6176C16.3493 34.6558 16.7399 34.4171 16.8692 34.0292C17.7909 31.2633 19.8381 27.9819 24.3319 27.8795C27.28 29.5015 29.0539 32.8853 28.7545 36.3793ZM40.0879 43.9852C39.8536 27.4942 32.9064 26.1334 24.5419 26.1334C19.9501 26.1334 17.4533 28.8489 16.128 31.351C15.3374 30.0466 14.0348 29.0997 12.5091 28.7699C13.1322 27.8509 13.4767 26.7539 13.4767 25.6049C13.4767 24.5695 13.1912 23.5567 12.6609 22.6802C13.7275 21.6344 14.3446 20.1851 14.3446 18.662C14.3446 17.8254 14.1563 17.0018 13.8022 16.2537C14.9165 15.923 15.8903 15.2591 16.601 14.3635C17.396 16.7206 18.9955 19.2894 22.2109 19.9291C22.7715 20.041 23.4398 20.1417 24.1905 20.2536C31.0162 21.2708 43.6426 23.154 43.9846 43.9861L40.0879 43.9852Z" fill="#C8DEB8"/>
<path d="M17.382 40.096C16.1357 40.096 14.9051 39.8496 13.8203 39.3827L13.1338 40.976C14.433 41.5367 15.9023 41.8318 17.3828 41.8318C22.4077 41.8318 26.4953 38.4844 26.4953 34.3682H24.7596C24.7588 37.5263 21.4487 40.096 17.382 40.096Z" fill="#C8DEB8"/>
</g>
<defs>
<clipPath id="clip0_100_8319">
<rect width="46" height="46" fill="white"/>
</clipPath>
</defs>
</svg>
