<svg width="24" height="24" viewBox="0 0 24 24" fill="none" xmlns="http://www.w3.org/2000/svg">
<mask id="path-1-outside-1_662_1812" maskUnits="userSpaceOnUse" x="5" y="2" width="15" height="20" fill="black">
<rect fill="white" x="5" y="2" width="15" height="20"/>
<path fill-rule="evenodd" clip-rule="evenodd" d="M15.5687 6.90982C15.0797 6.90982 14.6365 6.71184 14.3163 6.39083C13.996 6.07058 13.7973 5.62734 13.7973 5.13836C13.7973 4.64938 13.9953 4.20611 14.3163 3.88588C14.6365 3.56563 15.0798 3.36689 15.5687 3.36689C16.0577 3.36689 16.501 3.56488 16.8212 3.88588C17.1415 4.20613 17.3402 4.64938 17.3402 5.13836C17.3402 5.62734 17.1422 6.0706 16.8212 6.39083C16.501 6.71184 16.0577 6.90982 15.5687 6.90982ZM13.006 7.65232H9.99255C9.89131 7.65232 9.80881 7.73482 9.80881 7.83607V7.96806H9.49082C9.22308 7.96806 8.97932 8.07756 8.80308 8.25381C8.62685 8.43007 8.51733 8.67381 8.51733 8.94155C8.51733 9.20929 8.62683 9.45305 8.80308 9.62929C8.97933 9.80553 9.22308 9.91504 9.49082 9.91504H9.80881V10.0043C9.80881 10.1055 9.89131 10.188 9.99255 10.188L12.3056 10.1888V14.829C12.3056 15.1665 12.1676 15.4725 11.9448 15.6952C11.7221 15.918 11.4161 16.056 11.0786 16.056H9.43908V15.7432C9.43908 15.642 9.35658 15.5595 9.25533 15.5595H8.6621C8.57135 15.333 8.4356 15.129 8.26536 14.9595C7.94061 14.6347 7.49287 14.4345 6.99786 14.4345C6.50285 14.4345 6.05437 14.6355 5.73037 14.9595C5.40563 15.2842 5.20537 15.732 5.20537 16.227C5.20537 16.722 5.40637 17.1705 5.73037 17.4945C6.05512 17.8192 6.50285 18.0195 6.99786 18.0195C7.49287 18.0195 7.94136 17.8185 8.26536 17.4945C8.43485 17.325 8.57059 17.121 8.6621 16.8945H9.25533C9.35658 16.8945 9.43908 16.812 9.43908 16.7107V16.4227H11.0786C11.5173 16.4227 11.9156 16.2435 12.2043 15.9547C12.4931 15.666 12.6723 15.2677 12.6723 14.829L12.6731 10.1888H13.0053C13.1066 10.1888 13.1891 10.1063 13.1891 10.005V9.91579H13.3031V19.815C13.3031 20.1413 13.4366 20.4375 13.6511 20.652C13.8663 20.8665 14.1626 21 14.4888 21C14.815 21 15.1113 20.8665 15.3258 20.652C15.388 20.5898 15.4428 20.5215 15.49 20.4473C15.5373 20.5215 15.592 20.5905 15.6543 20.652C15.868 20.8665 16.1643 21 16.4905 21C16.8168 21 17.113 20.8665 17.3275 20.652C17.542 20.4375 17.6755 20.1413 17.6755 19.815L17.6748 14.8208C18.0198 14.7833 18.3303 14.6265 18.5635 14.3933C18.8328 14.124 19 13.7528 19 13.344V10.2945C19 9.65479 18.7382 9.07279 18.3168 8.6513C17.8953 8.2298 17.3133 7.96805 16.6735 7.96805H13.1891V7.83606C13.1899 7.73481 13.1072 7.65232 13.006 7.65232ZM9.80881 8.33556V9.54905H9.49083C9.32433 9.54905 9.17284 9.4808 9.06257 9.37055C8.95233 9.2603 8.88408 9.1088 8.88408 8.9423C8.88408 8.7758 8.95233 8.62431 9.06257 8.51404C9.17282 8.4038 9.32433 8.33555 9.49083 8.33555L9.80881 8.33556ZM13.1897 9.54905V8.33556H16.6735C17.212 8.33556 17.7017 8.55605 18.0572 8.91081C18.412 9.26631 18.6325 9.75529 18.6325 10.2945V13.344C18.6325 13.6515 18.5065 13.9313 18.304 14.1338C18.1375 14.3003 17.9185 14.415 17.6755 14.451V10.521C17.6755 10.4198 17.593 10.3373 17.4918 10.3373C17.3905 10.3373 17.308 10.4198 17.308 10.521V19.8156C17.308 20.0399 17.2158 20.2446 17.068 20.3924C16.9195 20.5409 16.7155 20.6324 16.4913 20.6324C16.267 20.6324 16.0623 20.5401 15.9145 20.3924C15.766 20.2439 15.6745 20.0399 15.6745 19.8156L15.6738 15.4446C15.6738 15.3434 15.5913 15.2609 15.49 15.2609C15.3888 15.2609 15.3063 15.3434 15.3063 15.4446V19.8156C15.3063 20.0399 15.214 20.2446 15.0663 20.3924C14.9178 20.5409 14.7138 20.6324 14.4895 20.6324C14.2653 20.6324 14.0605 20.5401 13.9128 20.3924C13.7643 20.2439 13.6728 20.0399 13.6728 19.8156L13.6721 9.73267C13.6721 9.63142 13.5896 9.54892 13.4883 9.54892L13.1897 9.54905ZM10.1763 8.01982H12.8222V9.82205H10.1771V8.15182L10.1763 8.01982ZM6.18927 16.4107H6.99927C7.10052 16.4107 7.18302 16.3282 7.18302 16.227C7.18302 16.1257 7.10052 16.0432 6.99927 16.0432H6.18927C6.22452 15.888 6.30327 15.7485 6.41203 15.6397C6.56202 15.4897 6.76978 15.3967 6.99927 15.3967C7.22877 15.3967 7.43576 15.4897 7.58652 15.6397C7.73651 15.7897 7.82951 15.9975 7.82951 16.2269C7.82951 16.4564 7.73651 16.6634 7.58652 16.8142C7.43652 16.9642 7.22877 17.0572 6.99927 17.0572C6.76978 17.0572 6.56278 16.9642 6.41203 16.8142C6.30328 16.7054 6.22453 16.5667 6.18927 16.4107ZM7.846 17.0737C7.62925 17.2904 7.33001 17.4247 6.99925 17.4247C6.6685 17.4247 6.36927 17.2904 6.1525 17.0737C5.93576 16.8569 5.80151 16.5577 5.80151 16.2269C5.80151 15.8962 5.93576 15.597 6.1525 15.3802C6.36925 15.1634 6.6685 15.0292 6.99925 15.0292C7.33001 15.0292 7.62924 15.1634 7.846 15.3802C8.06275 15.5969 8.19699 15.8962 8.19699 16.2269C8.19624 16.5577 8.06274 16.8569 7.846 17.0737ZM8.42424 16.2269C8.42424 16.6207 8.26449 16.9769 8.00649 17.2349C7.74849 17.4929 7.39225 17.6527 6.9985 17.6527C6.60475 17.6527 6.24852 17.4929 5.99051 17.2349C5.73251 16.9769 5.57277 16.6207 5.57277 16.2269C5.57277 15.8332 5.73251 15.477 5.99051 15.219C6.24852 14.9609 6.60475 14.8012 6.9985 14.8012C7.39225 14.8012 7.74848 14.9609 8.00649 15.219C8.2645 15.477 8.42424 15.8332 8.42424 16.2269ZM8.76623 16.5269C8.78273 16.4294 8.79098 16.3289 8.79098 16.2269C8.79098 16.1249 8.78273 16.0244 8.76623 15.9269H9.07223V16.5277L8.76623 16.5269ZM14.0567 6.65095C14.4437 7.03794 14.9785 7.27719 15.5687 7.27719C16.1589 7.27719 16.6937 7.03794 17.0807 6.65095C17.4677 6.26396 17.7069 5.72921 17.7069 5.13897C17.7069 4.54873 17.4677 4.01398 17.0807 3.62699C16.6944 3.23925 16.1597 3 15.5687 3C14.9785 3 14.4437 3.23925 14.0567 3.62624C13.6697 4.01323 13.4305 4.54798 13.4305 5.13822C13.4305 5.72921 13.6697 6.26396 14.0567 6.65095Z"/>
</mask>
<path fill-rule="evenodd" clip-rule="evenodd" d="M15.5687 6.90982C15.0797 6.90982 14.6365 6.71184 14.3163 6.39083C13.996 6.07058 13.7973 5.62734 13.7973 5.13836C13.7973 4.64938 13.9953 4.20611 14.3163 3.88588C14.6365 3.56563 15.0798 3.36689 15.5687 3.36689C16.0577 3.36689 16.501 3.56488 16.8212 3.88588C17.1415 4.20613 17.3402 4.64938 17.3402 5.13836C17.3402 5.62734 17.1422 6.0706 16.8212 6.39083C16.501 6.71184 16.0577 6.90982 15.5687 6.90982ZM13.006 7.65232H9.99255C9.89131 7.65232 9.80881 7.73482 9.80881 7.83607V7.96806H9.49082C9.22308 7.96806 8.97932 8.07756 8.80308 8.25381C8.62685 8.43007 8.51733 8.67381 8.51733 8.94155C8.51733 9.20929 8.62683 9.45305 8.80308 9.62929C8.97933 9.80553 9.22308 9.91504 9.49082 9.91504H9.80881V10.0043C9.80881 10.1055 9.89131 10.188 9.99255 10.188L12.3056 10.1888V14.829C12.3056 15.1665 12.1676 15.4725 11.9448 15.6952C11.7221 15.918 11.4161 16.056 11.0786 16.056H9.43908V15.7432C9.43908 15.642 9.35658 15.5595 9.25533 15.5595H8.6621C8.57135 15.333 8.4356 15.129 8.26536 14.9595C7.94061 14.6347 7.49287 14.4345 6.99786 14.4345C6.50285 14.4345 6.05437 14.6355 5.73037 14.9595C5.40563 15.2842 5.20537 15.732 5.20537 16.227C5.20537 16.722 5.40637 17.1705 5.73037 17.4945C6.05512 17.8192 6.50285 18.0195 6.99786 18.0195C7.49287 18.0195 7.94136 17.8185 8.26536 17.4945C8.43485 17.325 8.57059 17.121 8.6621 16.8945H9.25533C9.35658 16.8945 9.43908 16.812 9.43908 16.7107V16.4227H11.0786C11.5173 16.4227 11.9156 16.2435 12.2043 15.9547C12.4931 15.666 12.6723 15.2677 12.6723 14.829L12.6731 10.1888H13.0053C13.1066 10.1888 13.1891 10.1063 13.1891 10.005V9.91579H13.3031V19.815C13.3031 20.1413 13.4366 20.4375 13.6511 20.652C13.8663 20.8665 14.1626 21 14.4888 21C14.815 21 15.1113 20.8665 15.3258 20.652C15.388 20.5898 15.4428 20.5215 15.49 20.4473C15.5373 20.5215 15.592 20.5905 15.6543 20.652C15.868 20.8665 16.1643 21 16.4905 21C16.8168 21 17.113 20.8665 17.3275 20.652C17.542 20.4375 17.6755 20.1413 17.6755 19.815L17.6748 14.8208C18.0198 14.7833 18.3303 14.6265 18.5635 14.3933C18.8328 14.124 19 13.7528 19 13.344V10.2945C19 9.65479 18.7382 9.07279 18.3168 8.6513C17.8953 8.2298 17.3133 7.96805 16.6735 7.96805H13.1891V7.83606C13.1899 7.73481 13.1072 7.65232 13.006 7.65232ZM9.80881 8.33556V9.54905H9.49083C9.32433 9.54905 9.17284 9.4808 9.06257 9.37055C8.95233 9.2603 8.88408 9.1088 8.88408 8.9423C8.88408 8.7758 8.95233 8.62431 9.06257 8.51404C9.17282 8.4038 9.32433 8.33555 9.49083 8.33555L9.80881 8.33556ZM13.1897 9.54905V8.33556H16.6735C17.212 8.33556 17.7017 8.55605 18.0572 8.91081C18.412 9.26631 18.6325 9.75529 18.6325 10.2945V13.344C18.6325 13.6515 18.5065 13.9313 18.304 14.1338C18.1375 14.3003 17.9185 14.415 17.6755 14.451V10.521C17.6755 10.4198 17.593 10.3373 17.4918 10.3373C17.3905 10.3373 17.308 10.4198 17.308 10.521V19.8156C17.308 20.0399 17.2158 20.2446 17.068 20.3924C16.9195 20.5409 16.7155 20.6324 16.4913 20.6324C16.267 20.6324 16.0623 20.5401 15.9145 20.3924C15.766 20.2439 15.6745 20.0399 15.6745 19.8156L15.6738 15.4446C15.6738 15.3434 15.5913 15.2609 15.49 15.2609C15.3888 15.2609 15.3063 15.3434 15.3063 15.4446V19.8156C15.3063 20.0399 15.214 20.2446 15.0663 20.3924C14.9178 20.5409 14.7138 20.6324 14.4895 20.6324C14.2653 20.6324 14.0605 20.5401 13.9128 20.3924C13.7643 20.2439 13.6728 20.0399 13.6728 19.8156L13.6721 9.73267C13.6721 9.63142 13.5896 9.54892 13.4883 9.54892L13.1897 9.54905ZM10.1763 8.01982H12.8222V9.82205H10.1771V8.15182L10.1763 8.01982ZM6.18927 16.4107H6.99927C7.10052 16.4107 7.18302 16.3282 7.18302 16.227C7.18302 16.1257 7.10052 16.0432 6.99927 16.0432H6.18927C6.22452 15.888 6.30327 15.7485 6.41203 15.6397C6.56202 15.4897 6.76978 15.3967 6.99927 15.3967C7.22877 15.3967 7.43576 15.4897 7.58652 15.6397C7.73651 15.7897 7.82951 15.9975 7.82951 16.2269C7.82951 16.4564 7.73651 16.6634 7.58652 16.8142C7.43652 16.9642 7.22877 17.0572 6.99927 17.0572C6.76978 17.0572 6.56278 16.9642 6.41203 16.8142C6.30328 16.7054 6.22453 16.5667 6.18927 16.4107ZM7.846 17.0737C7.62925 17.2904 7.33001 17.4247 6.99925 17.4247C6.6685 17.4247 6.36927 17.2904 6.1525 17.0737C5.93576 16.8569 5.80151 16.5577 5.80151 16.2269C5.80151 15.8962 5.93576 15.597 6.1525 15.3802C6.36925 15.1634 6.6685 15.0292 6.99925 15.0292C7.33001 15.0292 7.62924 15.1634 7.846 15.3802C8.06275 15.5969 8.19699 15.8962 8.19699 16.2269C8.19624 16.5577 8.06274 16.8569 7.846 17.0737ZM8.42424 16.2269C8.42424 16.6207 8.26449 16.9769 8.00649 17.2349C7.74849 17.4929 7.39225 17.6527 6.9985 17.6527C6.60475 17.6527 6.24852 17.4929 5.99051 17.2349C5.73251 16.9769 5.57277 16.6207 5.57277 16.2269C5.57277 15.8332 5.73251 15.477 5.99051 15.219C6.24852 14.9609 6.60475 14.8012 6.9985 14.8012C7.39225 14.8012 7.74848 14.9609 8.00649 15.219C8.2645 15.477 8.42424 15.8332 8.42424 16.2269ZM8.76623 16.5269C8.78273 16.4294 8.79098 16.3289 8.79098 16.2269C8.79098 16.1249 8.78273 16.0244 8.76623 15.9269H9.07223V16.5277L8.76623 16.5269ZM14.0567 6.65095C14.4437 7.03794 14.9785 7.27719 15.5687 7.27719C16.1589 7.27719 16.6937 7.03794 17.0807 6.65095C17.4677 6.26396 17.7069 5.72921 17.7069 5.13897C17.7069 4.54873 17.4677 4.01398 17.0807 3.62699C16.6944 3.23925 16.1597 3 15.5687 3C14.9785 3 14.4437 3.23925 14.0567 3.62624C13.6697 4.01323 13.4305 4.54798 13.4305 5.13822C13.4305 5.72921 13.6697 6.26396 14.0567 6.65095Z" fill="#00625B"/>
<path fill-rule="evenodd" clip-rule="evenodd" d="M15.5687 6.90982C15.0797 6.90982 14.6365 6.71184 14.3163 6.39083C13.996 6.07058 13.7973 5.62734 13.7973 5.13836C13.7973 4.64938 13.9953 4.20611 14.3163 3.88588C14.6365 3.56563 15.0798 3.36689 15.5687 3.36689C16.0577 3.36689 16.501 3.56488 16.8212 3.88588C17.1415 4.20613 17.3402 4.64938 17.3402 5.13836C17.3402 5.62734 17.1422 6.0706 16.8212 6.39083C16.501 6.71184 16.0577 6.90982 15.5687 6.90982ZM13.006 7.65232H9.99255C9.89131 7.65232 9.80881 7.73482 9.80881 7.83607V7.96806H9.49082C9.22308 7.96806 8.97932 8.07756 8.80308 8.25381C8.62685 8.43007 8.51733 8.67381 8.51733 8.94155C8.51733 9.20929 8.62683 9.45305 8.80308 9.62929C8.97933 9.80553 9.22308 9.91504 9.49082 9.91504H9.80881V10.0043C9.80881 10.1055 9.89131 10.188 9.99255 10.188L12.3056 10.1888V14.829C12.3056 15.1665 12.1676 15.4725 11.9448 15.6952C11.7221 15.918 11.4161 16.056 11.0786 16.056H9.43908V15.7432C9.43908 15.642 9.35658 15.5595 9.25533 15.5595H8.6621C8.57135 15.333 8.4356 15.129 8.26536 14.9595C7.94061 14.6347 7.49287 14.4345 6.99786 14.4345C6.50285 14.4345 6.05437 14.6355 5.73037 14.9595C5.40563 15.2842 5.20537 15.732 5.20537 16.227C5.20537 16.722 5.40637 17.1705 5.73037 17.4945C6.05512 17.8192 6.50285 18.0195 6.99786 18.0195C7.49287 18.0195 7.94136 17.8185 8.26536 17.4945C8.43485 17.325 8.57059 17.121 8.6621 16.8945H9.25533C9.35658 16.8945 9.43908 16.812 9.43908 16.7107V16.4227H11.0786C11.5173 16.4227 11.9156 16.2435 12.2043 15.9547C12.4931 15.666 12.6723 15.2677 12.6723 14.829L12.6731 10.1888H13.0053C13.1066 10.1888 13.1891 10.1063 13.1891 10.005V9.91579H13.3031V19.815C13.3031 20.1413 13.4366 20.4375 13.6511 20.652C13.8663 20.8665 14.1626 21 14.4888 21C14.815 21 15.1113 20.8665 15.3258 20.652C15.388 20.5898 15.4428 20.5215 15.49 20.4473C15.5373 20.5215 15.592 20.5905 15.6543 20.652C15.868 20.8665 16.1643 21 16.4905 21C16.8168 21 17.113 20.8665 17.3275 20.652C17.542 20.4375 17.6755 20.1413 17.6755 19.815L17.6748 14.8208C18.0198 14.7833 18.3303 14.6265 18.5635 14.3933C18.8328 14.124 19 13.7528 19 13.344V10.2945C19 9.65479 18.7382 9.07279 18.3168 8.6513C17.8953 8.2298 17.3133 7.96805 16.6735 7.96805H13.1891V7.83606C13.1899 7.73481 13.1072 7.65232 13.006 7.65232ZM9.80881 8.33556V9.54905H9.49083C9.32433 9.54905 9.17284 9.4808 9.06257 9.37055C8.95233 9.2603 8.88408 9.1088 8.88408 8.9423C8.88408 8.7758 8.95233 8.62431 9.06257 8.51404C9.17282 8.4038 9.32433 8.33555 9.49083 8.33555L9.80881 8.33556ZM13.1897 9.54905V8.33556H16.6735C17.212 8.33556 17.7017 8.55605 18.0572 8.91081C18.412 9.26631 18.6325 9.75529 18.6325 10.2945V13.344C18.6325 13.6515 18.5065 13.9313 18.304 14.1338C18.1375 14.3003 17.9185 14.415 17.6755 14.451V10.521C17.6755 10.4198 17.593 10.3373 17.4918 10.3373C17.3905 10.3373 17.308 10.4198 17.308 10.521V19.8156C17.308 20.0399 17.2158 20.2446 17.068 20.3924C16.9195 20.5409 16.7155 20.6324 16.4913 20.6324C16.267 20.6324 16.0623 20.5401 15.9145 20.3924C15.766 20.2439 15.6745 20.0399 15.6745 19.8156L15.6738 15.4446C15.6738 15.3434 15.5913 15.2609 15.49 15.2609C15.3888 15.2609 15.3063 15.3434 15.3063 15.4446V19.8156C15.3063 20.0399 15.214 20.2446 15.0663 20.3924C14.9178 20.5409 14.7138 20.6324 14.4895 20.6324C14.2653 20.6324 14.0605 20.5401 13.9128 20.3924C13.7643 20.2439 13.6728 20.0399 13.6728 19.8156L13.6721 9.73267C13.6721 9.63142 13.5896 9.54892 13.4883 9.54892L13.1897 9.54905ZM10.1763 8.01982H12.8222V9.82205H10.1771V8.15182L10.1763 8.01982ZM6.18927 16.4107H6.99927C7.10052 16.4107 7.18302 16.3282 7.18302 16.227C7.18302 16.1257 7.10052 16.0432 6.99927 16.0432H6.18927C6.22452 15.888 6.30327 15.7485 6.41203 15.6397C6.56202 15.4897 6.76978 15.3967 6.99927 15.3967C7.22877 15.3967 7.43576 15.4897 7.58652 15.6397C7.73651 15.7897 7.82951 15.9975 7.82951 16.2269C7.82951 16.4564 7.73651 16.6634 7.58652 16.8142C7.43652 16.9642 7.22877 17.0572 6.99927 17.0572C6.76978 17.0572 6.56278 16.9642 6.41203 16.8142C6.30328 16.7054 6.22453 16.5667 6.18927 16.4107ZM7.846 17.0737C7.62925 17.2904 7.33001 17.4247 6.99925 17.4247C6.6685 17.4247 6.36927 17.2904 6.1525 17.0737C5.93576 16.8569 5.80151 16.5577 5.80151 16.2269C5.80151 15.8962 5.93576 15.597 6.1525 15.3802C6.36925 15.1634 6.6685 15.0292 6.99925 15.0292C7.33001 15.0292 7.62924 15.1634 7.846 15.3802C8.06275 15.5969 8.19699 15.8962 8.19699 16.2269C8.19624 16.5577 8.06274 16.8569 7.846 17.0737ZM8.42424 16.2269C8.42424 16.6207 8.26449 16.9769 8.00649 17.2349C7.74849 17.4929 7.39225 17.6527 6.9985 17.6527C6.60475 17.6527 6.24852 17.4929 5.99051 17.2349C5.73251 16.9769 5.57277 16.6207 5.57277 16.2269C5.57277 15.8332 5.73251 15.477 5.99051 15.219C6.24852 14.9609 6.60475 14.8012 6.9985 14.8012C7.39225 14.8012 7.74848 14.9609 8.00649 15.219C8.2645 15.477 8.42424 15.8332 8.42424 16.2269ZM8.76623 16.5269C8.78273 16.4294 8.79098 16.3289 8.79098 16.2269C8.79098 16.1249 8.78273 16.0244 8.76623 15.9269H9.07223V16.5277L8.76623 16.5269ZM14.0567 6.65095C14.4437 7.03794 14.9785 7.27719 15.5687 7.27719C16.1589 7.27719 16.6937 7.03794 17.0807 6.65095C17.4677 6.26396 17.7069 5.72921 17.7069 5.13897C17.7069 4.54873 17.4677 4.01398 17.0807 3.62699C16.6944 3.23925 16.1597 3 15.5687 3C14.9785 3 14.4437 3.23925 14.0567 3.62624C13.6697 4.01323 13.4305 4.54798 13.4305 5.13822C13.4305 5.72921 13.6697 6.26396 14.0567 6.65095Z" stroke="black" stroke-width="0.1" mask="url(#path-1-outside-1_662_1812)"/>
</svg>
