<svg width="21" height="22" viewBox="0 0 21 22" fill="none" xmlns="http://www.w3.org/2000/svg">
<path d="M10.1183 5.86035H10.2919C10.6738 5.86035 10.9516 6.17285 10.9516 6.52007V7.00618C10.9516 7.31868 10.7433 7.56174 10.4655 7.66591L10.0835 7.8048C9.90993 8.88118 9.28493 9.9923 8.34742 10.652C7.93075 10.9645 7.40992 11.1034 6.9238 11.1034C6.43769 11.1034 5.95157 10.9645 5.50018 10.652C4.56267 10.027 3.93767 8.91591 3.76406 7.8048L3.38211 7.66591C3.10433 7.59646 2.896 7.31868 2.896 7.00618V6.52007C2.896 6.13813 3.2085 5.86035 3.55572 5.86035H3.72933" stroke="#00635B" stroke-width="0.7" stroke-miterlimit="10" stroke-linecap="round" stroke-linejoin="round"/>
<path d="M3.27735 5.96512V5.20124C3.27735 4.26374 2.93013 3.32624 2.33984 2.63179C2.33984 2.63179 6.05515 -1.01404 8.90239 1.69429C8.90239 1.69429 12.3746 2.07624 10.7774 5.96512" stroke="#00635B" stroke-width="0.7" stroke-miterlimit="10" stroke-linecap="round" stroke-linejoin="round"/>
<path d="M3.79883 5.861L4.45856 5.99989C4.45856 5.99989 4.59744 4.12489 6.47246 4.2985C7.79191 4.40267 8.59053 3.56934 8.59053 3.56934C8.59053 3.56934 9.70165 4.50684 9.35442 6.06934L10.1183 5.861" stroke="#00635B" stroke-width="0.7" stroke-miterlimit="10" stroke-linecap="round" stroke-linejoin="round"/>
<path d="M5.84717 10.792V11.5906C5.84717 12.2156 6.33328 12.7017 6.95829 12.7017C7.27079 12.7017 7.54857 12.5628 7.7569 12.3892C7.96524 12.1809 8.06941 11.9031 8.06941 11.5906V10.792" stroke="#00635B" stroke-width="0.7" stroke-miterlimit="10" stroke-linecap="round" stroke-linejoin="round"/>
<path d="M5.84726 11.5898L1.68056 13.0482C0.986114 13.2912 0.5 13.951 0.5 14.7148V21.3468H10.9862H13.4515V19.9926" stroke="#00635B" stroke-width="0.7" stroke-miterlimit="10" stroke-linecap="round" stroke-linejoin="round"/>
<path d="M8.06934 11.5898L12.2708 13.0482C12.9652 13.2912 13.4513 13.951 13.4513 14.7148V16.1732" stroke="#00635B" stroke-width="0.7" stroke-miterlimit="10" stroke-linecap="round" stroke-linejoin="round"/>
<path d="M2.93066 15.4092V21.3467" stroke="#00635B" stroke-width="0.7" stroke-miterlimit="10" stroke-linecap="round" stroke-linejoin="round"/>
<path d="M10.9512 15.4092V21.3467" stroke="#00635B" stroke-width="0.7" stroke-miterlimit="10" stroke-linecap="round" stroke-linejoin="round"/>
<path d="M13.8336 19.9923H10.9863V16.1729H13.8336C14.2155 16.1729 14.528 16.4854 14.528 16.8673V19.2631C14.528 19.6798 14.2155 19.9923 13.8336 19.9923Z" stroke="#00635B" stroke-width="0.7" stroke-miterlimit="10" stroke-linecap="round" stroke-linejoin="round"/>
<path d="M16.9237 9.08984V16.5551C16.9237 17.3885 16.2292 18.0829 15.3959 18.0829H14.5278" stroke="#00635B" stroke-width="0.7" stroke-miterlimit="10" stroke-linecap="round" stroke-linejoin="round"/>
<path d="M16.9236 7.8393C18.8988 7.8393 20.5 6.2381 20.5 4.26291C20.5 2.28773 18.8988 0.686523 16.9236 0.686523C14.9484 0.686523 13.3472 2.28773 13.3472 4.26291C13.3472 6.2381 14.9484 7.8393 16.9236 7.8393Z" stroke="#00635B" stroke-width="0.7" stroke-miterlimit="10" stroke-linecap="round" stroke-linejoin="round"/>
<path d="M16.9233 3.53342V2.76953" stroke="#00635B" stroke-width="0.7" stroke-miterlimit="10" stroke-linecap="round" stroke-linejoin="round"/>
<path d="M16.9233 0.652344V1.48568" stroke="#00635B" stroke-width="0.7" stroke-miterlimit="10" stroke-linecap="round" stroke-linejoin="round"/>
<path d="M16.9233 7.04199V7.8406" stroke="#00635B" stroke-width="0.7" stroke-miterlimit="10" stroke-linecap="round" stroke-linejoin="round"/>
<path d="M20.4998 4.26367H19.7012" stroke="#00635B" stroke-width="0.7" stroke-miterlimit="10" stroke-linecap="round" stroke-linejoin="round"/>
<path d="M14.1458 4.26367H13.3125" stroke="#00635B" stroke-width="0.7" stroke-miterlimit="10" stroke-linecap="round" stroke-linejoin="round"/>
<path d="M19.4584 1.72852L18.8682 2.28407" stroke="#00635B" stroke-width="0.7" stroke-miterlimit="10" stroke-linecap="round" stroke-linejoin="round"/>
<path d="M14.9442 6.20801L14.3887 6.79829" stroke="#00635B" stroke-width="0.7" stroke-miterlimit="10" stroke-linecap="round" stroke-linejoin="round"/>
<path d="M19.4584 6.79829L18.8682 6.20801" stroke="#00635B" stroke-width="0.7" stroke-miterlimit="10" stroke-linecap="round" stroke-linejoin="round"/>
<path d="M14.9442 2.28407L14.3887 1.72852" stroke="#00635B" stroke-width="0.7" stroke-miterlimit="10" stroke-linecap="round" stroke-linejoin="round"/>
<path d="M16.9239 4.95823C17.3075 4.95823 17.6184 4.64731 17.6184 4.26378C17.6184 3.88025 17.3075 3.56934 16.9239 3.56934C16.5404 3.56934 16.2295 3.88025 16.2295 4.26378C16.2295 4.64731 16.5404 4.95823 16.9239 4.95823Z" stroke="#00635B" stroke-width="0.7" stroke-miterlimit="10" stroke-linecap="round" stroke-linejoin="round"/>
<path d="M18.4168 7.52734V8.29123C18.4168 8.74262 18.0348 9.12457 17.5835 9.12457H16.9237H16.264C15.8126 9.12457 15.4307 8.74262 15.4307 8.29123V7.52734" stroke="#00635B" stroke-width="0.7" stroke-miterlimit="10" stroke-linecap="round" stroke-linejoin="round"/>
</svg>
