<svg width="21" height="20" viewBox="0 0 21 20" fill="none" xmlns="http://www.w3.org/2000/svg">
<path d="M8.93469 16.7184H8.66637V16.7026C8.66637 15.5418 6.24409 15.1976 4.29817 14.9201C3.62236 14.8243 3.03824 14.741 2.6774 14.6393C2.58574 14.6135 2.48825 14.6468 2.42325 14.726C2.40909 14.7435 2.39575 14.7626 2.38325 14.7835C1.97493 14.7393 1.5908 14.9951 1.48162 15.4026C1.42329 15.6201 1.45329 15.8467 1.56579 16.0417C1.57662 16.0601 1.58828 16.0776 1.59995 16.0942L1.36329 16.0934V13.9793C1.36329 13.9068 1.30413 13.8476 1.23163 13.8476H0.631661C0.559165 13.8476 0.5 13.9068 0.5 13.9793V19.8675C0.5 19.94 0.559163 19.9992 0.631661 19.9992H1.23163C1.30413 19.9992 1.36329 19.94 1.36329 19.8675V19.3492H8.03965V19.8675C8.03965 19.94 8.09881 19.9992 8.17131 19.9992H8.77128C8.84378 19.9992 8.90294 19.94 8.90294 19.8675V19.3492H9.44792C9.52041 19.3492 9.57958 19.2901 9.57958 19.2176V17.3626C9.57875 17.0076 9.29049 16.7184 8.93469 16.7184ZM1.09999 19.7359H0.763345V14.1111H1.10082L1.09999 19.7359ZM2.62324 14.8977C3.00155 15.0018 3.58569 15.0852 4.26066 15.181C5.91059 15.416 8.40296 15.7701 8.40296 16.7026V17.6084C8.40296 17.6367 8.37963 17.6609 8.3513 17.6609C7.24718 17.6851 3.79579 17.6709 3.30238 17.5101C2.9024 17.3792 2.69908 16.9434 2.59907 16.6009C2.39575 15.9043 2.47242 15.0977 2.62324 14.8977ZM1.73578 15.4702C1.80411 15.2143 2.03076 15.046 2.28325 15.0418C2.20492 15.346 2.19159 15.7793 2.24742 16.1968C2.21325 16.1943 2.17909 16.1885 2.14575 16.1793C1.9966 16.1393 1.87159 16.0435 1.79411 15.9093C1.71662 15.7752 1.69578 15.6193 1.73578 15.4702ZM1.8891 16.3568C1.94826 16.3893 2.01076 16.4151 2.07659 16.4326C2.14742 16.4518 2.21992 16.4609 2.29241 16.4618C2.30824 16.5343 2.32574 16.6059 2.34574 16.6743C2.34991 16.6893 2.35491 16.7034 2.35908 16.7176L1.36328 16.7184V16.3568L1.8891 16.3568ZM8.6397 19.7359H8.30222V19.3484H8.6397V19.7359ZM9.31551 19.0859H1.36347V16.9818H2.45675C2.63341 17.3868 2.89424 17.6542 3.22088 17.7609C3.65334 17.9026 5.81403 17.9334 7.23155 17.9334C7.74069 17.9334 8.15484 17.9292 8.35732 17.9251C8.52815 17.9209 8.66647 17.7792 8.66647 17.6092V16.9818H8.93479C9.14478 16.9818 9.31561 17.1526 9.31561 17.3626L9.31551 19.0859ZM14.4286 6.60885C13.9528 6.13303 13.2645 5.86054 12.5379 5.86054H12.5204C11.7763 5.86471 11.0638 6.15303 10.4997 6.67385C9.93552 6.15303 9.22304 5.8647 8.47891 5.86054H8.46141C7.73479 5.86054 7.04648 6.13303 6.57067 6.60885C6.07154 7.10799 5.84987 7.78714 5.94486 8.52213C6.05569 9.37377 6.56399 10.2579 7.45645 11.1503L10.4063 14.1002C10.4321 14.126 10.4654 14.1385 10.4996 14.1385C10.5329 14.1385 10.5671 14.126 10.5929 14.1002L13.5428 11.1503C14.4352 10.2578 14.9444 9.37371 15.0543 8.52213C15.1493 7.78716 14.9278 7.10801 14.4286 6.60885ZM13.3562 10.9637L10.4996 13.8212L7.64214 10.9637C5.77806 9.09958 5.96222 7.58802 6.75553 6.79466C7.17635 6.37383 7.80047 6.12884 8.46294 6.12884C9.1304 6.12884 9.83454 6.37801 10.4062 6.94966C10.4578 7.00132 10.5412 7.00132 10.592 6.94966C11.7303 5.81137 13.3976 5.95136 14.2417 6.79467C15.0359 7.58882 15.22 9.10051 13.356 10.9637L13.3562 10.9637ZM13.3712 9.60707C13.3712 9.67956 13.312 9.73873 13.2395 9.73873H12.4671C12.4121 9.73873 12.3621 9.70456 12.3437 9.65207L12.2438 9.37958L12.0571 10.8304C12.0488 10.8937 11.9963 10.942 11.9329 10.9454C11.8688 10.9479 11.8121 10.9054 11.7988 10.8429L11.5488 9.73874H11.0571C10.9921 9.73874 10.9371 9.69124 10.9271 9.62791L10.788 8.74627L10.3588 11.4788C10.3488 11.5429 10.2938 11.5896 10.2288 11.5896C10.1639 11.5896 10.1089 11.5421 10.0989 11.4779L9.83054 9.738H9.3464C9.28474 9.738 9.23141 9.69551 9.21807 9.63551L9.10891 9.15303L8.94809 10.4013C8.94059 10.4613 8.89226 10.5088 8.83226 10.5155C8.77143 10.5222 8.71476 10.4872 8.69393 10.4297L8.44061 9.73718L7.75981 9.73885C7.68732 9.73885 7.62815 9.67969 7.62815 9.60719C7.62815 9.53469 7.68732 9.47552 7.75981 9.47552H8.53228C8.58727 9.47552 8.63727 9.50969 8.6556 9.56219L8.7556 9.83467L8.94225 8.38388C8.95059 8.32055 9.00309 8.27221 9.06641 8.26888C9.13058 8.26638 9.18724 8.30888 9.20058 8.37138L9.45057 9.47552H9.94221C10.0072 9.47552 10.0622 9.52301 10.0722 9.58718L10.2289 10.603L10.6563 7.87965C10.6663 7.81549 10.7213 7.76882 10.7863 7.76882C10.8513 7.76882 10.9063 7.81632 10.9163 7.87965L11.168 9.47544H11.6521C11.7138 9.47544 11.7671 9.51794 11.7805 9.57794L11.8896 10.0604L12.0504 8.81211C12.0579 8.75212 12.1063 8.70462 12.1663 8.69795C12.2271 8.69129 12.2838 8.72628 12.3046 8.78378L12.5579 9.47626H13.2387C13.312 9.47543 13.3712 9.53374 13.3712 9.60707ZM15.4453 14.786C15.1345 15.6243 15.5836 16.9009 16.1619 17.3984C16.3336 17.5459 16.5119 17.6209 16.6835 17.6209C16.7835 17.6209 16.8819 17.5951 16.9744 17.5442C17.0552 17.4992 17.1494 17.4976 17.2327 17.5392C17.5002 17.6726 17.801 17.6059 18.0801 17.3517C18.6493 16.8317 19.0659 15.5926 18.7484 14.7743C18.6193 14.4418 18.3143 14.046 17.5927 14.046C17.4593 14.046 17.3285 14.0735 17.2027 14.1277C17.1935 14.1318 17.1852 14.1352 17.176 14.1377C17.0644 13.8393 17.076 13.5894 17.211 13.3585C17.2477 13.296 17.2269 13.2152 17.1635 13.1785C17.101 13.1419 17.0202 13.1627 16.9835 13.226C16.8302 13.4877 16.7977 13.7719 16.8835 14.0885C16.7919 14.0602 16.6969 14.046 16.6019 14.046C15.8736 14.0444 15.5711 14.4477 15.4453 14.786ZM17.5926 14.3077C18.0525 14.3077 18.3592 14.496 18.5034 14.8685C18.7717 15.561 18.3975 16.7051 17.9034 17.156C17.7051 17.3368 17.5192 17.386 17.3509 17.3026C17.1893 17.2218 17.0059 17.226 16.8476 17.3135C16.6943 17.3985 16.5218 17.3601 16.3343 17.1985C15.8327 16.7668 15.4294 15.5877 15.6927 14.8777C15.8327 14.4994 16.1385 14.3077 16.6026 14.3077C16.6993 14.3077 16.7951 14.3277 16.8876 14.3677C16.9368 14.3894 16.9876 14.4027 17.0384 14.4086C17.0568 14.4177 17.0768 14.4227 17.0976 14.4227C17.1159 14.4227 17.1334 14.4185 17.1518 14.411C17.1534 14.4102 17.1551 14.4094 17.1568 14.4086C17.2076 14.4027 17.2584 14.3894 17.3076 14.3677C17.3993 14.3277 17.4951 14.3077 17.5926 14.3077ZM16.7351 14.5952C16.7351 14.6677 16.676 14.7268 16.6035 14.7268C16.4476 14.7268 16.3251 14.771 16.2385 14.8585C16.096 15.0018 16.0677 15.236 16.0693 15.4068C16.0702 15.4793 16.011 15.5385 15.9385 15.5393H15.9377C15.8652 15.5393 15.8068 15.481 15.806 15.4085C15.8035 15.091 15.8885 14.8368 16.0518 14.6727C16.1893 14.5343 16.3751 14.4635 16.6035 14.4635C16.676 14.4635 16.7351 14.5227 16.7351 14.5952ZM20.3891 15.901L20.1425 15.7126C20.0617 15.651 19.96 15.6351 19.865 15.671C19.7692 15.706 19.7025 15.7826 19.68 15.8826L19.5258 16.5809C19.2409 16.6151 18.9892 16.8193 18.8517 17.1351C18.6092 17.6926 18.0417 18.1592 17.4384 18.2967C17.0768 18.3792 16.781 18.4825 16.5527 18.6075C16.5535 18.5892 16.5543 18.57 16.5543 18.5517C16.5543 17.7801 15.9468 17.1476 15.1852 17.1059C15.1944 17.0384 15.2094 16.9709 15.2311 16.9026C15.2536 16.8334 15.2161 16.7593 15.1469 16.7368C15.0777 16.7143 15.0036 16.7518 14.9811 16.8209C14.9777 16.8309 14.9761 16.8401 14.9727 16.8501C14.9627 16.8376 14.9536 16.8251 14.9444 16.8101C15.0261 16.5226 14.9627 16.2793 14.7619 16.1043C14.6386 15.9976 14.5044 15.9493 14.3861 15.9068C14.3003 15.876 14.2186 15.8468 14.1503 15.7985C14.1194 15.7768 14.0803 15.7693 14.0436 15.7785C14.0069 15.7876 13.9753 15.8118 13.9578 15.846C13.817 16.116 13.8486 16.4451 14.0386 16.6834C14.2061 16.8943 14.4702 17.0009 14.7336 16.9693C14.7744 17.0309 14.8252 17.0818 14.8852 17.1209C14.1911 17.2276 13.6586 17.8284 13.6586 18.5517C13.6586 19.35 14.3078 20 15.1069 20C15.4602 20 15.796 19.8733 16.0602 19.6417L16.0727 19.6433C16.1944 19.8458 16.4885 20 16.9968 20C17.3676 20 17.8518 19.9175 18.4651 19.7125C19.1225 19.4917 19.6675 19.0442 20.0408 18.4175C20.495 17.6559 20.4033 17.1084 20.145 16.8184L20.4625 16.2601C20.5316 16.1368 20.5008 15.986 20.3891 15.901ZM14.7002 16.7076C14.5277 16.7268 14.3553 16.6568 14.2453 16.5184C14.1494 16.3976 14.1144 16.2418 14.1461 16.0951C14.1969 16.1176 14.2478 16.1359 14.2978 16.1543C14.4036 16.1926 14.5044 16.2284 14.5903 16.3026C14.7052 16.4018 14.7411 16.5351 14.7002 16.7076ZM13.922 18.5509C13.922 17.9601 14.3561 17.4692 14.9219 17.3809C14.9244 17.4076 14.9277 17.4351 14.9327 17.4617C14.8802 17.4534 14.8252 17.4784 14.7986 17.5276C14.7636 17.5909 14.7861 17.6709 14.8494 17.7067C14.9361 17.755 15.0252 17.7792 15.1152 17.7792C15.1969 17.7792 15.2786 17.7592 15.3585 17.72C15.4235 17.6875 15.4502 17.6092 15.4177 17.5442C15.3852 17.4792 15.3069 17.4526 15.2419 17.4851C15.2302 17.4909 15.2194 17.4959 15.2085 17.4992C15.1977 17.4567 15.1902 17.4134 15.1852 17.3709C15.8018 17.4117 16.2918 17.9259 16.2918 18.5525C16.2918 18.6392 16.2818 18.725 16.2635 18.8084C16.2218 18.8458 16.1843 18.8842 16.1527 18.9233L15.8393 18.9542C15.6952 18.9683 15.5952 19.1067 15.5952 19.29C15.5952 19.4108 15.641 19.5117 15.7135 19.5692C15.5319 19.6775 15.3235 19.7367 15.1069 19.7367C14.4536 19.7358 13.922 19.2042 13.922 18.5509ZM20.2333 16.1292L19.8658 16.7758C19.8342 16.8308 19.8475 16.9008 19.8967 16.9416C20.1175 17.125 20.2291 17.5866 19.815 18.2808C19.4742 18.8524 18.9792 19.2607 18.3817 19.4607C17.0093 19.9215 16.3743 19.719 16.2818 19.4715C16.2643 19.424 16.221 19.3907 16.171 19.3865L15.8727 19.3582C15.8668 19.3482 15.8577 19.324 15.8577 19.2874C15.8577 19.2499 15.8677 19.2249 15.8743 19.2149L16.2352 19.1791C16.2735 19.1749 16.3077 19.1549 16.3302 19.1232C16.4926 18.8907 16.9068 18.6882 17.4976 18.5541C18.1784 18.3991 18.8192 17.8716 19.0934 17.2408C19.2059 16.9816 19.4058 16.8316 19.6275 16.84C19.6917 16.8425 19.7467 16.7991 19.7608 16.7366L19.9367 15.94C19.9392 15.9283 19.9442 15.9225 19.955 15.9192C19.9658 15.915 19.9733 15.9167 19.9825 15.9233L20.2291 16.1116C20.2358 16.115 20.2375 16.1225 20.2333 16.1292ZM2.40082 5.48206C2.48165 5.56289 2.58831 5.60372 2.69497 5.60372C2.80163 5.60372 2.90746 5.56289 2.98912 5.48206L3.38578 5.0854C3.54743 4.92374 3.54743 4.65958 3.38578 4.49792L2.89914 4.01128L4.5124 2.398L4.99903 2.88464C5.07986 2.96547 5.18652 3.0063 5.29318 3.0063C5.39984 3.0063 5.50567 2.96547 5.58733 2.88464L5.98398 2.48798C6.14564 2.32632 6.14564 2.06216 5.98398 1.9005L4.20491 0.121402C4.04326 -0.040259 3.7791 -0.040259 3.61744 0.121402L3.22079 0.518061C3.05913 0.679722 3.05913 0.943882 3.22079 1.10554L3.70742 1.59218L2.09417 3.20546L1.60754 2.71882C1.44588 2.55716 1.18173 2.55716 1.02007 2.71882L0.623419 3.11548C0.46176 3.27714 0.46176 3.5413 0.623419 3.70296L2.40082 5.48206ZM3.40493 0.703975L3.80158 0.307316C3.86075 0.248152 3.95741 0.248152 4.01657 0.307316L5.79564 2.08642C5.8548 2.14558 5.8548 2.24224 5.79564 2.30141L5.39899 2.69806C5.33983 2.75723 5.24316 2.75723 5.184 2.69806L3.40577 0.919797C3.34493 0.859799 3.34493 0.763135 3.40493 0.703975ZM3.89156 1.77812L4.32572 2.21228L2.71247 3.82556L2.27831 3.3914L3.89156 1.77812ZM0.807559 3.30139L1.20421 2.90474C1.23421 2.87474 1.27254 2.86057 1.31171 2.86057C1.35087 2.86057 1.39004 2.87557 1.4192 2.90474L3.19827 4.68384C3.25743 4.743 3.25743 4.83966 3.19827 4.89883L2.80162 5.29548C2.74246 5.35465 2.64579 5.35465 2.58663 5.29548L0.807563 3.51639C0.7484 3.45722 0.748396 3.36056 0.807559 3.30139ZM13.762 0.481433C13.762 0.484766 13.762 0.487266 13.7628 0.490599L13.7645 0.505599C13.7653 0.508932 13.7653 0.513099 13.7662 0.516432L14.2761 4.21295C14.2853 4.27795 14.3411 4.32628 14.407 4.32628H16.3569C16.4227 4.32628 16.4785 4.27795 16.4877 4.21295L16.9985 0.516432C16.9993 0.513932 16.9993 0.510599 16.9993 0.508099L17.0018 0.491433C17.0027 0.488099 17.0018 0.484766 17.0027 0.481433C17.0027 0.478933 17.0035 0.476433 17.0035 0.473933C17.0035 0.472267 17.0027 0.471433 17.0027 0.4706C17.0027 0.4656 17.0018 0.459767 17.001 0.454767C16.9602 0.0147814 15.5461 0.00144847 15.3827 0.00144847C15.2194 0.00144847 13.8028 0.0147814 13.7645 0.455599C13.7637 0.460599 13.7628 0.464765 13.7628 0.469765C13.7628 0.471432 13.762 0.472265 13.762 0.473932C13.7612 0.475598 13.762 0.4781 13.762 0.481433ZM16.2419 4.06297H14.5211L14.067 0.772197C14.5028 0.938024 15.2644 0.945524 15.3819 0.945524C15.4994 0.945524 16.2602 0.938858 16.6969 0.772197L16.2419 4.06297ZM15.3819 0.2632C16.1519 0.2632 16.6094 0.391529 16.7219 0.47236C16.6085 0.554024 16.1519 0.682354 15.3819 0.682354C14.612 0.682354 14.1545 0.554026 14.042 0.473194C14.1545 0.391531 14.6112 0.2632 15.3819 0.2632ZM17.2593 0.481518C17.2593 0.484852 17.2593 0.487351 17.2602 0.490685L17.2618 0.505684C17.2627 0.509018 17.2627 0.513184 17.2635 0.516517L17.7735 4.21304C17.7826 4.27804 17.8385 4.32637 17.9043 4.32637H19.8542C19.92 4.32637 19.9759 4.27804 19.985 4.21304L20.495 0.516517C20.4958 0.514017 20.4958 0.510684 20.4958 0.508184L20.4983 0.491518C20.4992 0.488185 20.4983 0.484852 20.4992 0.481518C20.4992 0.479018 20.5 0.476518 20.5 0.474018C20.5 0.472352 20.4992 0.471519 20.4992 0.470685C20.4992 0.465685 20.4983 0.459852 20.4975 0.454852C20.4567 0.0148667 19.0426 0.00153381 18.8793 0.00153381C18.7159 0.00153381 17.2993 0.0148667 17.261 0.455684C17.2602 0.460684 17.2593 0.464851 17.2593 0.46985C17.2593 0.471517 17.2585 0.472351 17.2585 0.474017C17.2585 0.475684 17.2585 0.478185 17.2593 0.481518ZM19.7392 4.06306H18.0185L17.5643 0.772282C18.0002 0.938109 18.7618 0.94561 18.8793 0.94561C18.9968 0.94561 19.7576 0.938943 20.1942 0.772282L19.7392 4.06306ZM18.8784 0.263285C19.6484 0.263285 20.1059 0.391614 20.2183 0.472445C20.1059 0.554109 19.6492 0.681606 18.8784 0.681606C18.1085 0.681606 17.651 0.553277 17.5385 0.472445C17.6518 0.391614 18.1085 0.263285 18.8784 0.263285ZM10.6314 14.7712V19.8678C10.6314 19.9403 10.5722 19.9994 10.4997 19.9994C10.4272 19.9994 10.368 19.9403 10.368 19.8678V14.7712C10.368 14.6987 10.4272 14.6395 10.4997 14.6395C10.5722 14.6395 10.6314 14.6987 10.6314 14.7712ZM20.3676 10.1313H15.1621C15.0896 10.1313 15.0305 10.0722 15.0305 9.99967C15.0305 9.92718 15.0896 9.86801 15.1621 9.86801H20.3676C20.4401 9.86801 20.4993 9.92718 20.4993 9.99967C20.4993 10.0722 20.4401 10.1313 20.3676 10.1313ZM10.3681 5.64658V0.131663C10.3681 0.0591661 10.4273 0 10.4998 0C10.5723 0 10.6314 0.0591639 10.6314 0.131663V5.64658C10.6314 5.71907 10.5723 5.77824 10.4998 5.77824C10.4273 5.77824 10.3681 5.71908 10.3681 5.64658ZM0.631866 9.86809H5.83737C5.90986 9.86809 5.96903 9.92726 5.96903 9.99975C5.96903 10.0723 5.90986 10.1314 5.83737 10.1314H0.631866C0.55937 10.1314 0.500205 10.0723 0.500205 9.99975C0.500205 9.92726 0.559368 9.86809 0.631866 9.86809Z" fill="#00635B"/>
</svg>
