<svg width="52" height="52" viewBox="0 0 52 52" fill="none" xmlns="http://www.w3.org/2000/svg">
<g clip-path="url(#clip0_100_13391)">
<path d="M29.2198 32.7629C29.1345 32.7629 29.0492 32.7425 28.9679 32.7019C28.6937 32.5638 28.586 32.2286 28.7242 31.9544C31.0664 27.3491 34.2455 24.1028 38.4464 22.033C44.1346 19.2296 45.0649 18.4292 46.5762 16.2272C46.7509 15.9753 47.0962 15.9103 47.3481 16.083C47.6 16.2557 47.665 16.603 47.4924 16.855C45.7657 19.3678 44.4879 20.2921 38.9382 23.0284C34.9607 24.9887 31.9441 28.0744 29.7158 32.4562C29.6162 32.6533 29.4209 32.7629 29.2198 32.7629Z" fill="#C8DEB8"/>
<path d="M6.32317 34.4181C6.11596 34.4181 5.91689 34.3023 5.82141 34.1012C5.20183 32.8051 3.33701 28.1675 5.33387 22.9286C7.62123 16.9236 13.1631 14.8539 14.25 14.5002C14.5425 14.4048 14.8554 14.5653 14.9509 14.8557C15.0463 15.1483 14.8859 15.4611 14.5954 15.5566C13.5918 15.8837 8.48071 17.7932 6.37401 23.325C4.53556 28.1516 6.25619 32.4278 6.82702 33.6224C6.95906 33.8986 6.84124 34.2318 6.56496 34.3638C6.48371 34.4024 6.40245 34.4187 6.32323 34.4187L6.32317 34.4181Z" fill="#C8DEB8"/>
<path d="M51.9652 16.8436C51.7539 15.4014 50.661 14.2719 49.9785 13.8656C48.3899 12.9189 45.4789 11.8098 37.0544 11.5213C37.158 11.2166 37.1783 10.8855 37.1072 10.5666C36.9041 9.6565 36.0245 9.06131 35.1083 9.20958C34.4663 9.31318 32.634 9.58132 30.7428 9.57726C31.6163 6.90799 33.1459 5.47179 34.0235 4.8339C34.7874 4.2773 35.09 3.26769 34.7569 2.37587C34.3181 1.09813 32.6239 0.576057 31.5452 1.39065C28.9734 3.24736 27.3097 5.90244 26.4647 9.09768C26.0909 9.03471 25.7191 8.96767 25.3514 8.90063C24.4902 5.79457 22.8386 3.20461 20.3237 1.39226C19.245 0.577664 17.5508 1.09973 17.112 2.37748C16.7789 3.26925 17.0795 4.27886 17.8433 4.83551C18.668 5.43476 19.7833 6.51145 20.6223 8.30518C20.0312 8.59974 19.6675 9.28837 19.7813 9.93437C15.627 9.71701 7.68613 10.4504 2.98339 18.2186C-2.5665 27.3865 1.03931 38.557 2.57914 43.3268C2.99354 44.438 3.27386 46.4267 4.47038 46.4166C5.32559 46.3699 5.74812 45.0759 5.95333 43.9931C7.04219 44.9011 8.41745 45.409 9.8577 45.409C13.5102 45.4374 16.4232 42.1161 15.9136 38.5002C17.4636 38.0411 17.3478 38.0127 18.2761 37.4378C18.3127 37.6958 18.394 37.9497 18.5199 38.1833C18.1157 43.3858 15.552 46.2034 14.4591 47.1785C13.7826 47.7819 13.547 48.7224 13.8619 49.5715C14.3149 50.9082 16.0842 51.4405 17.2036 50.5751C18.5179 49.5898 19.5702 48.5111 20.4132 46.9896C20.5554 48.9601 21.7824 50.8026 23.9377 50.9935C24.6487 51.0951 24.7929 49.9676 24.0738 49.8905C20.9211 49.793 21.3985 44.7652 21.7092 43.9464C22.2557 42.2522 22.666 40.2208 22.7717 37.9233C23.0317 37.584 23.2531 37.2407 23.438 36.8994C23.5334 36.9441 23.631 36.9847 23.7285 37.0253C24.0982 43.8447 25.4816 47.5562 29.321 50.575C30.4423 51.4384 32.2097 50.9082 32.6627 49.5715C32.9776 48.7204 32.7419 47.7819 32.0655 47.1765C31.2488 46.4472 29.7029 44.7814 28.7563 41.9599C29.9833 43.0366 32.4108 44.0056 34.4502 43.4713C34.7509 43.4063 34.9418 43.1117 34.8768 42.8111C34.8118 42.5104 34.5173 42.3195 34.2166 42.3845C31.0192 43.0711 28.673 40.4323 28.2242 39.8818C28.082 39.1058 27.9885 38.2648 27.9601 37.3567C29.4654 36.9951 31.5394 35.9692 33.2682 33.1781C36.6891 27.6526 40.7661 25.808 44.3638 24.1808C46.7528 23.1001 49.0076 22.0803 50.779 20.1505C51.7358 19.1124 52.1359 17.9975 51.9652 16.8436ZM30.0766 4.27526C30.7084 3.50939 31.4194 2.84311 32.1893 2.29463C32.7032 1.90663 33.5077 2.15649 33.7169 2.76388C33.8754 3.18845 33.7332 3.6699 33.3716 3.93195C32.3498 4.67545 30.5398 6.3737 29.5911 9.5328C28.9045 9.48405 28.2545 9.37639 27.5679 9.27482C28.0879 7.34702 28.9289 5.66679 30.0766 4.27526ZM18.4953 3.93398C18.1337 3.6699 17.9915 3.19048 18.1499 2.76591C18.3592 2.1585 19.1636 1.90868 19.6776 2.29666C21.8288 3.84462 23.2935 6.0446 24.1203 8.66718C23.2671 8.5006 22.4728 8.33403 21.7862 8.1837C20.8335 5.96541 19.4825 4.65107 18.4953 3.93398ZM9.85998 44.2981C8.48879 44.2981 7.18665 43.7354 6.24407 42.7481C7.02414 40.087 9.58374 38.4192 12.3853 38.7706C13.2649 38.8803 14.0998 38.8356 14.827 38.7259C15.1845 41.6633 12.8177 44.3184 9.85998 44.2981ZM16.905 36.9832C16.712 37.0726 14.7415 37.9481 12.5212 37.6698C9.2506 37.2066 5.92706 39.3924 5.12671 42.6041C4.92154 43.3476 4.75699 44.5827 4.41774 45.1739C4.16787 44.796 3.86114 43.6604 3.63362 42.986C2.14052 38.3605 -1.35759 27.5267 3.9302 18.7958C8.7264 10.8755 17.1689 10.7694 20.6834 11.1147C23.2084 11.6287 23.4644 14.1476 21.8454 16.7561C19.7611 20.7154 19.8261 23.4231 19.8952 26.2916C19.9399 27.5978 19.8769 29.1519 19.9988 30.4641C20.4335 33.5316 19.6068 35.6547 16.905 36.9832ZM18.5687 47.7658C17.9633 48.5011 17.2828 49.1451 16.5495 49.6793C16.001 50.1039 15.1275 49.8459 14.904 49.1878C14.7496 48.7693 14.8654 48.3061 15.1986 48.0075C16.3281 46.9999 18.8937 44.1986 19.5356 39.1528C20.1654 39.4615 20.9576 39.4412 21.5711 39.102C21.1811 43.0348 19.8383 46.228 18.5687 47.7658ZM23.0622 26.7508C23.1678 28.1688 23.1008 29.4526 23.2044 30.8116C23.4177 33.4952 23.308 35.9267 21.3253 37.9113C20.8764 38.409 20.0171 38.3643 19.6108 37.832C19.2573 37.3912 19.2837 36.7432 19.6717 36.3268C21.3761 34.5005 21.2522 32.5971 21.1079 30.391C20.9881 29.0848 21.0531 27.547 21.0064 26.2632C20.9393 23.4294 20.8804 20.9795 22.8245 17.2805C24.8457 14.1399 24.1246 10.768 21.2054 10.1216C20.6163 9.95907 20.9109 9.09772 21.4533 9.24604C23.3811 9.66451 26.2047 10.2333 28.7136 10.5624C31.2732 10.8976 34.3893 10.4486 35.2833 10.3023C35.6225 10.2475 35.9455 10.4689 36.0207 10.8061C36.1121 11.1698 35.8358 11.5679 35.4621 11.5984C32.4922 11.9234 30.5095 13.0183 30.4201 13.0671C22.5181 17.6195 22.8327 22.8969 23.0625 26.7504L23.0622 26.7508ZM31.3283 48.0096C31.6614 48.3083 31.7792 48.7714 31.6228 49.1899C31.3994 49.8501 30.5279 50.106 29.9774 49.6815C26.4854 46.935 25.2746 43.622 24.848 37.3851C24.9821 37.4582 26.2558 37.6187 26.8551 37.5354C27.0907 43.583 30.0383 46.8598 31.3283 48.0096ZM49.9603 19.4032C48.3413 21.1664 46.2855 22.0948 43.9065 23.1714C40.1647 24.8636 35.9228 26.7813 32.3236 32.5951C29.3029 37.4726 25.2927 36.3573 25.1242 36.3065C24.6915 36.2049 24.273 36.0688 23.8911 35.888C24.5086 34.1715 24.4091 32.4407 24.3136 30.7465C24.21 29.3753 24.2771 28.0935 24.1714 26.6817C23.948 22.9195 23.6676 18.2372 30.9705 14.0342C30.9887 14.0241 32.8516 13.0023 35.5838 12.7037C35.7321 12.6874 35.8743 12.6509 36.0124 12.598C45.0664 12.8256 47.9958 13.9713 49.4118 14.8163C50.7688 15.6269 51.5875 17.8755 49.9603 19.4032Z" fill="#C8DEB8"/>
</g>
<defs>
<clipPath id="clip0_100_13391">
<rect width="52" height="52" fill="white"/>
</clipPath>
</defs>
</svg>
