<svg width="158" height="309" viewBox="0 0 158 309" fill="none" xmlns="http://www.w3.org/2000/svg">
<path d="M78.7475 153.036C78.7475 150.431 78.3416 146.296 78.3416 138.658C78.5227 132.724 75.6434 120.907 75.6434 118.302C75.3748 110.439 72.3643 101.813 72.2706 99.8772C72.4955 96.823 71.8646 91.4765 71.4149 88.2412C69.6598 81.2334 64.4071 77.0549 58.3861 76.3304C52.3651 75.6121 46.2504 70.172 46.2504 69.004V64.5195L47.1124 63.9386C48.5864 62.9455 49.4983 61.3154 49.5795 59.5416L49.7044 56.7747C52.3651 55.6254 51.447 49.8418 50.0167 50.0416L50.0604 49.0423C50.0854 48.7363 50.1041 48.4302 50.1041 48.1179C50.1041 42.2531 45.351 37.5 39.4862 37.5C33.6214 37.5 28.8683 42.2531 28.8683 48.1179C28.8683 48.4302 28.887 48.7363 28.912 49.0423L28.9557 50.0416C27.5192 49.8418 26.6073 55.6254 29.268 56.7747L29.3929 59.5416C29.4741 61.3154 30.3923 62.9455 31.86 63.9386L32.722 64.5195V69.004C32.722 70.172 26.6135 75.6121 20.5863 76.3304C14.5653 77.0487 9.3063 81.2271 7.55746 88.2412C7.10776 91.4765 6.47693 96.823 6.70178 99.8772C6.61434 101.807 3.60385 110.439 3.32903 118.302C3.32903 120.907 0.455948 132.724 0.630831 138.658C0.630831 146.296 0.224851 150.431 0.224851 153.036C0.224851 155.64 0 163.191 0 164.628C0 166.064 5.48385 174.065 6.92039 174.602C8.35693 175.14 6.42697 172.672 6.10843 171.323C5.78989 169.974 4.08478 164.447 4.44704 163.953C4.8093 163.46 5.12159 162.56 5.79614 164.041C6.47069 165.521 7.90723 168.488 8.80663 168.357C9.70603 168.219 8.35693 164.222 8.35693 163.591C8.35693 162.96 8.1758 156.983 7.05155 154.691C7.09527 153.791 7.05155 153.254 7.05155 151.992C7.05155 150.731 9.74976 142.33 11.0489 139.095C12.3543 135.859 13.566 127.278 13.8345 122.737C14.1031 118.196 15.4522 114.199 16.1268 112.175C16.8013 110.152 17.3384 108.403 17.7881 108.265C18.9124 108.534 19.6244 125.298 19.7806 132.012C19.9367 138.733 17.0137 154.622 16.9325 164.428C16.8513 174.234 18.9873 184.271 19.9367 189.886C20.8861 195.501 21.3608 203.639 21.3608 207.993C21.3608 212.346 19.462 216.137 20.0179 223.332C20.5738 230.528 24.8397 241.989 25.9452 247.448C27.0507 252.9 28.8683 260.177 28.556 261.913C28.2374 263.649 23.1034 267.447 23.0222 269.027C22.941 270.607 26.5823 270.688 28.2374 271.082C29.8988 271.475 35.1141 273.693 36.2196 271.638C37.3251 269.583 36.5382 266.579 36.2196 265.073C35.9011 263.574 34.8768 247.441 34.8768 243.175C34.8768 238.91 35.8261 227.917 35.8261 224.438C35.8261 220.959 33.6151 211.078 34.1647 207.362C34.7206 203.646 35.9823 203.171 36.3008 199.298C36.6194 195.426 38.5118 161.349 39.4612 160.087C40.4106 161.355 42.3093 195.426 42.6216 199.298C42.9401 203.171 44.2018 203.646 44.7577 207.362C45.3136 211.078 43.0963 220.959 43.0963 224.438C43.0963 227.917 44.0457 238.903 44.0457 243.175C44.0457 247.448 43.0151 263.574 42.7028 265.073C42.3843 266.579 41.5973 269.577 42.7028 271.638C43.8083 273.693 49.0298 271.482 50.685 271.082C52.3464 270.688 55.9815 270.607 55.9003 269.027C55.8191 267.447 50.685 263.649 50.3664 261.913C50.0479 260.177 51.8717 252.9 52.9772 247.448C54.0827 241.995 58.3549 230.528 58.9045 223.332C59.4604 216.137 57.5617 212.346 57.5617 207.993C57.5617 203.639 58.0363 195.501 58.9857 189.886C59.9351 184.271 62.0711 174.234 61.99 164.428C61.9088 154.622 58.9857 138.733 59.1418 132.012C59.298 125.292 60.01 108.534 61.1343 108.265C61.584 108.403 62.1211 110.152 62.7957 112.175C63.4702 114.199 64.8193 118.196 65.0879 122.737C65.3565 127.278 66.5682 135.859 67.8735 139.095C69.1789 142.33 71.8709 150.731 71.8709 151.992C71.8709 153.254 71.8271 153.791 71.8709 154.691C70.7466 156.983 70.5655 162.96 70.5655 163.591C70.5655 164.222 69.2164 168.219 70.1158 168.357C71.0152 168.494 72.4517 165.527 73.1263 164.041C73.8008 162.56 74.1131 163.454 74.4754 163.953C74.8376 164.447 73.1263 169.974 72.814 171.323C72.5017 172.672 70.5655 175.146 72.002 174.602C73.4386 174.065 78.9224 166.064 78.9224 164.628C78.9224 163.191 78.6976 155.64 78.6976 153.036H78.7475Z" fill="white"/>
<path d="M78.7475 153.036C78.7475 150.431 78.3416 146.296 78.3416 138.658C78.5227 132.724 75.6434 120.907 75.6434 118.302C75.3748 110.439 72.3643 101.813 72.2706 99.8772C72.4955 96.823 71.8646 91.4765 71.4149 88.2412C69.6598 81.2334 64.4071 77.0549 58.3861 76.3304C52.3651 75.6121 46.2504 70.172 46.2504 69.004V64.5195L47.1124 63.9386C48.5864 62.9455 49.4983 61.3154 49.5795 59.5416L49.7044 56.7747C52.3651 55.6254 51.447 49.8418 50.0167 50.0416L50.0604 49.0423C50.0854 48.7363 50.1041 48.4302 50.1041 48.1179C50.1041 42.2531 45.351 37.5 39.4862 37.5C33.6214 37.5 28.8683 42.2531 28.8683 48.1179C28.8683 48.4302 28.887 48.7363 28.912 49.0423L28.9557 50.0416C27.5192 49.8418 26.6073 55.6254 29.268 56.7747L29.3929 59.5416C29.4741 61.3154 30.3923 62.9455 31.86 63.9386L32.722 64.5195V69.004C32.722 70.172 26.6135 75.6121 20.5863 76.3304C14.5653 77.0487 9.3063 81.2271 7.55746 88.2412C7.10776 91.4765 6.47693 96.823 6.70178 99.8772C6.61434 101.807 3.60385 110.439 3.32903 118.302C3.32903 120.907 0.455948 132.724 0.630831 138.658C0.630831 146.296 0.224851 150.431 0.224851 153.036C0.224851 155.64 0 163.191 0 164.628C0 166.064 5.48385 174.065 6.92039 174.602C8.35693 175.14 6.42697 172.672 6.10843 171.323C5.78989 169.974 4.08478 164.447 4.44704 163.953C4.8093 163.46 5.12159 162.56 5.79614 164.041C6.47069 165.521 7.90723 168.488 8.80663 168.357C9.70603 168.219 8.35693 164.222 8.35693 163.591C8.35693 162.96 8.1758 156.983 7.05155 154.691C7.09527 153.791 7.05155 153.254 7.05155 151.992C7.05155 150.731 9.74976 142.33 11.0489 139.095C12.3543 135.859 13.566 127.278 13.8345 122.737C14.1031 118.196 15.4522 114.199 16.1268 112.175C16.8013 110.152 17.3384 108.403 17.7881 108.265C18.9124 108.534 19.6244 125.298 19.7806 132.012C19.9367 138.733 17.0137 154.622 16.9325 164.428C16.8513 174.234 18.9873 184.271 19.9367 189.886C20.8861 195.501 21.3608 203.639 21.3608 207.993C21.3608 212.346 19.462 216.137 20.0179 223.332C20.5738 230.528 24.8397 241.989 25.9452 247.448C27.0507 252.9 28.8683 260.177 28.556 261.913C28.2374 263.649 23.1034 267.447 23.0222 269.027C22.941 270.607 26.5823 270.688 28.2374 271.082C29.8988 271.475 35.1141 273.693 36.2196 271.638C37.3251 269.583 36.5382 266.579 36.2196 265.073C35.9011 263.574 34.8768 247.441 34.8768 243.175C34.8768 238.91 35.8261 227.917 35.8261 224.438C35.8261 220.959 33.6151 211.078 34.1647 207.362C34.7206 203.646 35.9823 203.171 36.3008 199.298C36.6194 195.426 38.5118 161.349 39.4612 160.087C40.4106 161.355 42.3093 195.426 42.6216 199.298C42.9401 203.171 44.2018 203.646 44.7577 207.362C45.3136 211.078 43.0963 220.959 43.0963 224.438C43.0963 227.917 44.0457 238.903 44.0457 243.175C44.0457 247.448 43.0151 263.574 42.7028 265.073C42.3843 266.579 41.5973 269.577 42.7028 271.638C43.8083 273.693 49.0298 271.482 50.685 271.082C52.3464 270.688 55.9815 270.607 55.9003 269.027C55.8191 267.447 50.685 263.649 50.3664 261.913C50.0479 260.177 51.8717 252.9 52.9772 247.448C54.0827 241.995 58.3549 230.528 58.9045 223.332C59.4604 216.137 57.5617 212.346 57.5617 207.993C57.5617 203.639 58.0363 195.501 58.9857 189.886C59.9351 184.271 62.0711 174.234 61.99 164.428C61.9088 154.622 58.9857 138.733 59.1418 132.012C59.298 125.292 60.01 108.534 61.1343 108.265C61.584 108.403 62.1211 110.152 62.7957 112.175C63.4702 114.199 64.8193 118.196 65.0879 122.737C65.3565 127.278 66.5682 135.859 67.8735 139.095C69.1789 142.33 71.8709 150.731 71.8709 151.992C71.8709 153.254 71.8271 153.791 71.8709 154.691C70.7466 156.983 70.5655 162.96 70.5655 163.591C70.5655 164.222 69.2164 168.219 70.1158 168.357C71.0152 168.494 72.4517 165.527 73.1263 164.041C73.8008 162.56 74.1131 163.454 74.4754 163.953C74.8376 164.447 73.1263 169.974 72.814 171.323C72.5017 172.672 70.5655 175.146 72.002 174.602C73.4386 174.065 78.9224 166.064 78.9224 164.628C78.9224 163.191 78.6976 155.64 78.6976 153.036H78.7475Z" fill="url(#paint0_linear_663_13893)"/>
<path d="M116.81 1.50903L116.81 307.173" stroke="#80C6C0" stroke-width="1.31752" stroke-linecap="round" stroke-dasharray="10.54 10.54"/>
<line x1="101.659" y1="0.850274" x2="131.962" y2="0.850274" stroke="#80C6C0" stroke-width="1.31752" stroke-linecap="round"/>
<line x1="101.659" y1="307.832" x2="131.962" y2="307.832" stroke="#80C6C0" stroke-width="1.31752" stroke-linecap="round"/>
<defs>
<linearGradient id="paint0_linear_663_13893" x1="55.2457" y1="53.95" x2="-222.339" y2="251.508" gradientUnits="userSpaceOnUse">
<stop stop-color="#003E39" stop-opacity="0.56"/>
<stop offset="0.435146" stop-color="#003E39" stop-opacity="0"/>
</linearGradient>
</defs>
</svg>
