<svg width="21" height="20" viewBox="0 0 21 20" fill="none" xmlns="http://www.w3.org/2000/svg">
<path d="M13.5527 12.5427L16.7061 8.06592C17.0941 7.51592 17.3698 6.89469 17.5171 6.23789C17.6645 5.5811 17.6807 4.90166 17.5648 4.23859C17.4489 3.57551 17.2032 2.94185 16.8418 2.37398C16.4804 1.80611 16.0104 1.3152 15.4588 0.929436C14.3438 0.150103 12.9657 -0.156442 11.6255 0.0767285C10.2853 0.309899 9.09179 1.06385 8.30553 2.17396L4.73937 7.2351L1.43134 11.9293C0.89202 12.6967 0.573789 13.5975 0.511359 14.5334C0.44893 15.4693 0.644699 16.4044 1.07731 17.2367C1.50993 18.0689 2.16278 18.7664 2.96466 19.2531C3.76654 19.7397 4.68665 19.9968 5.62464 19.9964C6.44922 19.9982 7.26212 19.8015 7.99465 19.4229C8.72719 19.0443 9.35783 18.4949 9.83329 17.8212L13.5527 12.5427ZM8.88872 2.58555C9.56579 1.6296 10.5936 0.980392 11.7477 0.779695C12.9018 0.578998 14.0885 0.843118 15.0485 1.51438C15.5232 1.84621 15.9276 2.26853 16.2387 2.75709C16.5497 3.24565 16.7611 3.79082 16.8609 4.36132C16.9606 4.93182 16.9467 5.5164 16.82 6.08151C16.6932 6.64662 16.456 7.18112 16.1222 7.65434L12.9683 12.1326L9.35193 9.59696L5.73568 7.06117L8.88872 2.58555ZM9.24869 17.4097C8.57217 18.3659 7.54468 19.0154 6.39073 19.2164C5.23678 19.4174 4.05019 19.1534 3.09024 18.4822C2.61556 18.1503 2.2111 17.7278 1.90006 17.2392C1.58902 16.7505 1.37753 16.2052 1.27772 15.6346C1.17791 15.064 1.19174 14.4794 1.31842 13.9141C1.44511 13.3489 1.68215 12.8142 2.01595 12.3408L5.32399 7.64527L8.94037 10.1809L12.5566 12.7167L9.24869 17.4097Z" fill="#00635B"/>
<path d="M7.6544 17.0711C7.33509 17.3597 6.95804 17.5772 6.54828 17.709C6.13851 17.8408 5.70539 17.884 5.27766 17.8357C5.23108 17.8302 5.18389 17.8341 5.13878 17.8469C5.09367 17.8597 5.05154 17.8813 5.01477 17.9104C4.97801 17.9396 4.94735 17.9756 4.92453 18.0166C4.90171 18.0576 4.88718 18.1026 4.88177 18.1492C4.87637 18.1958 4.88019 18.243 4.89303 18.2881C4.90586 18.3332 4.92745 18.3753 4.95657 18.4121C4.98569 18.4489 5.02176 18.4795 5.06273 18.5024C5.1037 18.5252 5.14876 18.5397 5.19535 18.5451C5.7246 18.6069 6.26095 18.5544 6.7682 18.3912C7.27544 18.228 7.74178 17.9579 8.13575 17.5992C8.20547 17.5352 8.247 17.4463 8.25125 17.3518C8.25549 17.2573 8.22209 17.165 8.15838 17.0951C8.09466 17.0252 8.00583 16.9834 7.91136 16.9789C7.81688 16.9744 7.72448 17.0076 7.6544 17.0711Z" fill="#00635B"/>
<path d="M9.67201 14.9487C9.59445 14.8944 9.49852 14.8729 9.40519 14.889C9.31186 14.9052 9.22871 14.9576 9.17392 15.0349L8.3933 16.143C8.33872 16.2205 8.31718 16.3166 8.3334 16.41C8.34962 16.5034 8.40229 16.5865 8.47981 16.6411C8.55733 16.6957 8.65336 16.7172 8.74677 16.701C8.84018 16.6848 8.92332 16.6321 8.9779 16.5546L9.75851 15.4465C9.81287 15.3689 9.83429 15.273 9.81808 15.1797C9.80187 15.0864 9.74934 15.0034 9.67201 14.9487Z" fill="#00635B"/>
<path d="M15.437 3.86653C15.6931 4.5709 15.6762 5.34564 15.3896 6.03814C15.3716 6.08148 15.3624 6.12791 15.3625 6.1748C15.3625 6.22169 15.3718 6.26811 15.3898 6.31141C15.4077 6.35472 15.4341 6.39406 15.4672 6.42719C15.5004 6.46032 15.5398 6.48658 15.5831 6.50449C15.6706 6.54067 15.7689 6.54059 15.8564 6.50429C15.9439 6.46798 16.0133 6.39842 16.0495 6.31091C16.4046 5.45323 16.4255 4.49363 16.1081 3.6213C16.0585 3.48604 16.0014 3.35364 15.9371 3.22471C15.9163 3.18275 15.8873 3.14531 15.852 3.11454C15.8166 3.08377 15.7755 3.06027 15.7311 3.04537C15.6867 3.03047 15.6397 3.02447 15.593 3.02771C15.5462 3.03095 15.5005 3.04337 15.4586 3.06426C15.4166 3.08514 15.3792 3.11409 15.3484 3.14944C15.3177 3.1848 15.2942 3.22587 15.2793 3.2703C15.2644 3.31474 15.2584 3.36168 15.2616 3.40844C15.2648 3.45519 15.2773 3.50085 15.2981 3.54281C15.3503 3.6481 15.3967 3.75617 15.437 3.86653Z" fill="#00635B"/>
<path d="M14.287 8.72289C14.3445 8.72286 14.4011 8.70896 14.4521 8.68236C14.5032 8.65577 14.547 8.61726 14.5799 8.57011L15.3557 7.45813C15.4099 7.38042 15.431 7.28437 15.4144 7.19109C15.3978 7.09781 15.3448 7.01495 15.2671 6.96074C15.1894 6.90653 15.0933 6.88541 15 6.90202C14.9068 6.91864 14.8239 6.97163 14.7697 7.04933L13.994 8.16132C13.9566 8.21487 13.9346 8.27764 13.9304 8.34281C13.9262 8.40797 13.94 8.47304 13.9702 8.53093C14.0004 8.58883 14.0459 8.63733 14.1017 8.67118C14.1576 8.70502 14.2217 8.7229 14.287 8.72289Z" fill="#00635B"/>
<path d="M19.3479 13.2913L19.3382 13.2849C18.6014 12.5506 17.6033 12.1387 16.5631 12.1397C15.5228 12.1406 14.5255 12.5543 13.79 13.2899C13.0545 14.0255 12.6409 15.0229 12.6401 16.0631C12.6394 17.1034 13.0514 18.1014 13.7858 18.8381L13.7922 18.8478L13.802 18.8542C14.5388 19.5885 15.5369 20.0004 16.5771 19.9995C17.6173 19.9985 18.6147 19.5848 19.3502 18.8492C20.0857 18.1136 20.4992 17.1162 20.5 16.076C20.5008 15.0357 20.0888 14.0377 19.3544 13.301L19.3479 13.2913ZM16.5701 12.855C17.2972 12.8581 18.0013 13.1101 18.5652 13.569L14.0699 18.065C13.6108 17.501 13.3587 16.7968 13.3555 16.0695C13.3564 15.2173 13.6954 14.4002 14.2981 13.7975C14.9007 13.1949 15.7178 12.8559 16.5701 12.855ZM16.5701 19.2841C15.843 19.281 15.1389 19.029 14.5749 18.5701L19.0703 14.0741C19.5294 14.6381 19.7815 15.3423 19.7846 16.0695C19.7837 16.9218 19.4447 17.7389 18.8421 18.3415C18.2394 18.9442 17.4223 19.2832 16.5701 19.2841Z" fill="#00635B"/>
</svg>
