<svg width="16" height="20" viewBox="0 0 16 20" fill="none" xmlns="http://www.w3.org/2000/svg">
<path d="M8.34981 20H7.65098C7.14352 20 6.73066 19.5873 6.73066 19.0801V17.9H5.55098C5.04352 17.9 4.63066 17.4873 4.63066 16.9801V16.2812C4.63066 15.7738 5.04352 15.3609 5.55098 15.3609H6.73066V14.5643C5.09078 14.2778 3.59086 13.4358 2.48414 12.1752C1.3098 10.8375 0.663086 9.1193 0.663086 7.33711C0.663086 3.29141 3.95449 0 8.0002 0C12.0459 0 15.3373 3.29141 15.3373 7.33711C15.3373 9.80449 14.1078 12.0922 12.0484 13.4567C11.9135 13.5461 11.7317 13.5092 11.6423 13.3743C11.5529 13.2394 11.5898 13.0576 11.7247 12.9682C13.6199 11.7125 14.7513 9.60746 14.7513 7.33707C14.7514 3.61449 11.7228 0.585938 8.0002 0.585938C4.27758 0.585938 1.24902 3.61449 1.24902 7.33711C1.24902 8.97695 1.84402 10.5579 2.92449 11.7886C3.99504 13.008 5.46512 13.8018 7.06391 14.0235C7.20875 14.0436 7.31664 14.1674 7.31664 14.3137V15.6539C7.31664 15.8157 7.18547 15.9469 7.02367 15.9469H5.55102C5.36664 15.9469 5.21664 16.0969 5.21664 16.2812V16.9801C5.21664 17.1642 5.36664 17.3141 5.55102 17.3141H7.02363C7.18543 17.3141 7.3166 17.4452 7.3166 17.607V19.0801C7.3166 19.2643 7.4666 19.4141 7.65098 19.4141H8.34981C8.53399 19.4141 8.68379 19.2643 8.68379 19.0801V17.607C8.68379 17.4452 8.81492 17.3141 8.97676 17.3141H10.4498C10.634 17.3141 10.7838 17.1642 10.7838 16.9801V16.2812C10.7838 16.0969 10.634 15.9469 10.4498 15.9469H8.97676C8.81492 15.9469 8.68379 15.8157 8.68379 15.6539V14.3137C8.68379 14.1674 8.79164 14.0436 8.93648 14.0235C9.5591 13.9371 10.166 13.7638 10.7402 13.5085C10.888 13.4428 11.0612 13.5093 11.1269 13.6571C11.1927 13.805 11.1261 13.9781 10.9782 14.0439C10.4318 14.2868 9.8582 14.4614 9.26973 14.5643V15.3609H10.4498C10.957 15.3609 11.3697 15.7738 11.3697 16.2812V16.9801C11.3697 17.4873 10.9571 17.9 10.4498 17.9H9.26973V19.0801C9.26973 19.5873 8.85707 20 8.34981 20ZM8.0002 12.7211C5.03145 12.7211 2.61621 10.3059 2.61621 7.33711C2.61621 4.36836 5.03145 1.95312 8.0002 1.95312C10.9689 1.95312 13.3842 4.36836 13.3842 7.33711C13.3842 10.3059 10.9689 12.7211 8.0002 12.7211ZM8.0002 2.53906C5.35453 2.53906 3.20215 4.69145 3.20215 7.33711C3.20215 9.98277 5.35453 12.1352 8.0002 12.1352C10.6459 12.1352 12.7982 9.98277 12.7982 7.33711C12.7982 4.69145 10.6459 2.53906 8.0002 2.53906Z" fill="#00635B"/>
<path d="M8.0004 10.5456C7.27661 10.5456 6.59653 10.2638 6.08536 9.75225C5.052 8.71889 5.01977 7.07018 6.01204 5.99881C6.12196 5.8801 6.30739 5.87299 6.42606 5.98295C6.54477 6.09287 6.55188 6.27826 6.44192 6.39697C5.66454 7.23635 5.68993 8.52818 6.49973 9.33803C6.90028 9.73889 7.43321 9.95963 8.0004 9.95963C8.56762 9.95963 9.10052 9.73889 9.50095 9.33811C9.90196 8.93709 10.1228 8.40408 10.1228 7.83717C10.1228 7.27025 9.90196 6.73725 9.50102 6.33631L8.0004 4.83568L7.25989 5.57619C7.14548 5.69061 6.95997 5.69061 6.84559 5.57619C6.73118 5.46178 6.73118 5.27631 6.84559 5.16189L7.79325 4.21424C7.84817 4.15932 7.9227 4.12842 8.0004 4.12842C8.07809 4.12842 8.15259 4.15928 8.20759 4.21424L9.9154 5.92205C10.427 6.43361 10.7088 7.11381 10.7088 7.83721C10.7088 8.56061 10.427 9.2408 9.9154 9.75236C9.4043 10.2638 8.72419 10.5456 8.0004 10.5456Z" fill="#00635B"/>
</svg>
