<svg width="53" height="53" viewBox="0 0 53 53" fill="none" xmlns="http://www.w3.org/2000/svg">
<path d="M43.1668 26.5985C40.9019 21.0906 40.9872 19.831 42.4787 13.4296C43.1403 10.5867 43.8906 7.36527 43.8906 4.14055C43.8906 3.04577 42.2344 3.04412 42.2344 4.14055C42.2344 6.09079 41.9454 8.02198 41.5611 9.92004C36.4093 9.72543 29.6138 7.45305 26.5 7.45305C23.4459 7.45305 16.5327 9.72709 11.4381 9.92004C11.0546 8.02198 10.7656 6.09079 10.7656 4.14055C10.7656 3.04577 9.10938 3.04412 9.10938 4.14055C9.10938 7.36527 9.85966 10.5867 10.5213 13.4288C11.9821 19.6985 12.1304 21.0095 9.83316 26.5976C8.1297 30.7424 5.79688 36.4184 5.79688 48.8593C5.79688 49.9541 7.45312 49.9557 7.45312 48.8593C7.45312 45.7489 7.60384 43.0806 7.85311 40.7553C10.4567 41.3515 18.6163 43.0624 26.5 43.0624C34.3838 43.0624 42.5433 41.3515 45.1469 40.7553C45.3962 43.0806 45.5469 45.7489 45.5469 48.8593C45.5469 49.9541 47.2031 49.9557 47.2031 48.8593C47.2031 36.4184 44.8703 30.7424 43.1668 26.5985ZM26.5 41.4062C18.5922 41.4062 10.3789 39.6414 8.05517 39.1023C8.83941 33.3841 10.2431 29.9598 11.3652 27.2279C13.8545 21.1718 13.6367 19.5039 12.1345 13.0537C12.0194 12.5609 11.9051 12.0641 11.7933 11.5664C16.9468 11.3005 23.7647 9.1093 26.5 9.1093C29.2891 9.1093 35.9622 11.2956 41.2067 11.5664C41.094 12.0649 40.9798 12.5609 40.8655 13.0537C39.3525 19.552 39.1678 21.2248 41.6348 27.2279C42.7578 29.9598 44.1614 33.3841 44.9448 39.1023C42.6228 39.6414 34.4136 41.4062 26.5 41.4062Z" fill="#C8DEB8"/>
<path d="M32.4625 30.9713C31.0406 32.8668 28.8676 33.9533 26.5 33.9533C22.5126 33.9533 19.2556 30.8023 19.0651 26.8613L20.9458 28.7419C21.7093 29.5055 22.9018 28.3552 22.1168 27.571L18.8043 24.2585C18.4805 23.9347 17.9571 23.9347 17.6333 24.2585L14.3208 27.571C13.5457 28.3461 14.7175 29.5162 15.4918 28.7419L17.4072 26.8265C17.5811 31.6975 21.5876 35.6096 26.5 35.6096C29.3513 35.6096 32.075 34.2473 33.7875 31.9658C34.4442 31.0897 33.1209 30.0943 32.4625 30.9713Z" fill="#C8DEB8"/>
<path d="M37.5085 24.2583L35.593 26.1737C35.4191 21.3027 31.4127 17.3906 26.5002 17.3906C23.6101 17.3906 20.9534 18.7189 19.2127 21.0335C18.5535 21.9097 19.8785 22.9035 20.5369 22.029C21.9621 20.1342 24.1351 19.0469 26.5002 19.0469C30.4876 19.0469 33.7447 22.1979 33.9351 26.1389L32.0545 24.2583C31.2793 23.4831 30.1092 24.6549 30.8835 25.4292L34.196 28.7417C34.5198 29.0655 35.0432 29.0655 35.367 28.7417L38.6795 25.4292C39.4546 24.6541 38.2828 23.484 37.5085 24.2583Z" fill="#C8DEB8"/>
</svg>
