<svg width="51" height="50" viewBox="0 0 51 50" fill="none" xmlns="http://www.w3.org/2000/svg">
<path d="M32.4279 18.4391C33.867 23.173 35.1114 27.2627 31.3852 30.9014C27.9359 34.2696 23.8466 33.8667 21.7175 33.3267C21.5122 33.2745 21.2955 33.2909 21.1004 33.3734C20.9052 33.4558 20.7424 33.5998 20.6367 33.7834C20.531 33.967 20.4882 34.1801 20.5149 34.3902C20.5416 34.6004 20.6362 34.7961 20.7844 34.9474C20.9088 35.0752 21.0662 35.1658 21.2391 35.2092C23.2714 35.7242 28.461 36.4718 32.7422 32.2911C37.3125 27.8283 35.7738 22.7681 34.2853 17.8742C32.6355 12.4519 31.0774 7.3292 36.463 2.07018C36.6473 1.89022 36.7525 1.64443 36.7556 1.38687C36.7586 1.12931 36.6593 0.881087 36.4793 0.696802C36.2994 0.512516 36.0536 0.407267 35.796 0.404205C35.5384 0.401144 35.2902 0.500522 35.1059 0.680478C28.8764 6.76368 30.7632 12.9662 32.4279 18.4391Z" fill="#C8DEB8"/>
<path d="M37.2606 17.3696C37.1336 17.3337 37.0006 17.3241 36.8698 17.3413C36.7389 17.3585 36.613 17.4022 36.4996 17.4698C36.3862 17.5373 36.2878 17.6272 36.2103 17.7341C36.1328 17.8409 36.0779 17.9624 36.049 18.0912C36.0201 18.2199 36.0176 18.3532 36.0419 18.4829C36.0662 18.6127 36.1167 18.7361 36.1903 18.8456C36.2639 18.9552 36.359 19.0486 36.4699 19.1202C36.5807 19.1917 36.705 19.2399 36.8352 19.2619C40.3265 20.057 44.9674 20.3612 49.759 15.6821C49.9433 15.5022 50.0486 15.2564 50.0516 14.9988C50.0547 14.7413 49.9553 14.493 49.7754 14.3088C49.5954 14.1245 49.3496 14.0192 49.0921 14.0162C48.8345 14.0131 48.5863 14.1125 48.402 14.2924C46.1007 16.5397 42.9731 18.6581 37.2606 17.3696Z" fill="#C8DEB8"/>
<path d="M0.678266 35.6568C0.858221 35.841 1.10401 35.9463 1.36157 35.9494C1.61913 35.9524 1.86735 35.853 2.05164 35.6731C4.35298 33.4258 7.47607 31.3028 13.1885 32.5913C13.43 32.6261 13.6757 32.5686 13.8768 32.4305C14.0779 32.2923 14.2196 32.0836 14.2738 31.8457C14.328 31.6078 14.2906 31.3583 14.1692 31.1467C14.0478 30.9351 13.8512 30.7769 13.6185 30.7036C10.1216 29.9139 5.49079 29.6089 0.697261 34.2898C0.51457 34.4692 0.410081 34.7134 0.406524 34.9694C0.402967 35.2254 0.500628 35.4724 0.678266 35.6568Z" fill="#C8DEB8"/>
<path d="M16.1431 32.0881C17.7112 37.601 19.1913 42.8089 13.9846 47.8933C13.8003 48.0732 13.695 48.319 13.692 48.5766C13.6889 48.8341 13.7883 49.0824 13.9683 49.2667C14.1482 49.4509 14.394 49.5562 14.6516 49.5593C14.9091 49.5623 15.1574 49.4629 15.3416 49.283C21.3766 43.3898 19.5888 37.1032 18.0119 31.5572C16.6416 26.7417 15.4585 22.5813 19.0624 19.062C22.5116 15.6938 26.601 16.0968 28.73 16.6367C28.8539 16.669 28.9829 16.6764 29.1097 16.6586C29.2365 16.6408 29.3585 16.5982 29.4687 16.533C29.5789 16.4679 29.6752 16.3817 29.7519 16.2792C29.8287 16.1768 29.8844 16.0602 29.916 15.9361C29.9475 15.812 29.9542 15.6829 29.9357 15.5563C29.9171 15.4296 29.8737 15.3079 29.808 15.198C29.7422 15.0882 29.6554 14.9924 29.5525 14.9163C29.4496 14.8401 29.3327 14.785 29.2084 14.7542C27.1762 14.2393 21.9866 13.4917 17.7054 17.6723C13.2741 21.9995 14.7323 27.1293 16.1431 32.0881Z" fill="#C8DEB8"/>
<path d="M36.1585 5.40932L45.2706 14.7407C45.4505 14.925 45.6963 15.0302 45.9539 15.0333C46.2115 15.0363 46.4597 14.937 46.644 14.757C46.8283 14.577 46.9335 14.3313 46.9366 14.0737C46.9396 13.8161 46.8402 13.5679 46.6603 13.3836L37.5482 4.05227C37.3682 3.86799 37.1224 3.76274 36.8648 3.75967C36.6073 3.75661 36.3591 3.85599 36.1748 4.03595C35.9905 4.2159 35.8852 4.4617 35.8822 4.71925C35.8791 4.97681 35.9785 5.22503 36.1585 5.40932Z" fill="#C8DEB8"/>
<path d="M41.4335 16.5732C41.6178 16.3933 41.7231 16.1475 41.7261 15.8899C41.7292 15.6324 41.6298 15.3841 41.4499 15.1998L35.6146 9.22415C35.5255 9.1329 35.4192 9.06009 35.302 9.00989C35.1848 8.95968 35.0588 8.93306 34.9313 8.93155C34.8037 8.93003 34.6771 8.95365 34.5587 9.00105C34.4403 9.04846 34.3324 9.11872 34.2412 9.20782C34.1499 9.29693 34.0771 9.40313 34.0269 9.52037C33.9767 9.63762 33.9501 9.7636 33.9486 9.89113C33.9471 10.0187 33.9707 10.1452 34.0181 10.2636C34.0655 10.382 34.1358 10.4899 34.2249 10.5812L40.0566 16.5532C40.1455 16.6452 40.2517 16.7188 40.3692 16.7696C40.4866 16.8205 40.6129 16.8476 40.7409 16.8495C40.8689 16.8513 40.9959 16.8279 41.1148 16.7805C41.2337 16.7331 41.342 16.6626 41.4335 16.5732Z" fill="#C8DEB8"/>
<path d="M13.0611 46.1938C13.2411 46.3781 13.4869 46.4833 13.7444 46.4864C14.002 46.4895 14.2502 46.3901 14.4345 46.2101C14.6188 46.0302 14.724 45.7844 14.7271 45.5268C14.7302 45.2693 14.6308 45.021 14.4508 44.8367L5.33868 35.5054C5.15873 35.3211 4.91293 35.2159 4.65538 35.2128C4.39782 35.2097 4.14959 35.3091 3.96531 35.4891C3.78102 35.669 3.67577 35.9148 3.67271 36.1724C3.66965 36.4299 3.76903 36.6782 3.94898 36.8624L13.0611 46.1938Z" fill="#C8DEB8"/>
<path d="M20.2392 19.5965C20.0549 19.7764 19.9497 20.0222 19.9466 20.2798C19.9436 20.5374 20.043 20.7856 20.2229 20.9699L29.335 30.3012C29.515 30.4855 29.7608 30.5908 30.0184 30.5938C30.2759 30.5969 30.5241 30.4975 30.7084 30.3175C30.8927 30.1376 30.998 29.8918 31.001 29.6342C31.0041 29.3767 30.9047 29.1285 30.7247 28.9442L21.6126 19.6128C21.4327 19.4285 21.1869 19.3233 20.9293 19.3202C20.6717 19.3172 20.4235 19.4165 20.2392 19.5965Z" fill="#C8DEB8"/>
<path d="M14.9932 41.0249C15.1731 41.2092 15.4189 41.3145 15.6765 41.3175C15.934 41.3206 16.1822 41.2212 16.3665 41.0412C16.5508 40.8613 16.6561 40.6155 16.6591 40.3579C16.6622 40.1004 16.5628 39.8522 16.3829 39.6679L10.5521 33.6968C10.3721 33.5125 10.1263 33.4073 9.86876 33.4042C9.6112 33.4011 9.36297 33.5005 9.17869 33.6805C8.9944 33.8604 8.88915 34.1062 8.88609 34.3638C8.88303 34.6213 8.98241 34.8696 9.16236 35.0539L14.9932 41.0249Z" fill="#C8DEB8"/>
<path d="M18.3435 26.089L24.1752 32.061C24.3552 32.2453 24.601 32.3505 24.8585 32.3536C25.1161 32.3567 25.3643 32.2573 25.5486 32.0773C25.7329 31.8974 25.8381 31.6516 25.8412 31.394C25.8442 31.1365 25.7449 30.8882 25.5649 30.704L19.7332 24.732C19.5533 24.5477 19.3075 24.4424 19.0499 24.4394C18.7924 24.4363 18.5441 24.5357 18.3598 24.7156C18.1756 24.8956 18.0703 25.1414 18.0672 25.3989C18.0642 25.6565 18.1636 25.9047 18.3435 26.089Z" fill="#C8DEB8"/>
<path d="M31.21 25.1909C31.3899 25.3752 31.6357 25.4805 31.8933 25.4835C32.1508 25.4866 32.399 25.3872 32.5833 25.2073C32.7676 25.0273 32.8729 24.7815 32.8759 24.524C32.879 24.2664 32.7796 24.0182 32.5996 23.8339L26.7689 17.8628C26.5889 17.6785 26.3431 17.5733 26.0856 17.5702C25.828 17.5672 25.5798 17.6665 25.3955 17.8465C25.2112 18.0264 25.1059 18.2722 25.1029 18.5298C25.0998 18.7874 25.1992 19.0356 25.3792 19.2199L31.21 25.1909Z" fill="#C8DEB8"/>
</svg>
