<svg width="50" height="50" viewBox="0 0 50 50" fill="none" xmlns="http://www.w3.org/2000/svg">
<path d="M35.9375 14.0625C35.9375 8.03125 31.0312 3.125 25 3.125C18.9688 3.125 14.0625 8.03125 14.0625 14.0625C14.0625 20.0938 18.9688 25 25 25C31.0312 25 35.9375 20.0938 35.9375 14.0625ZM25 23.4375C19.8305 23.4375 15.625 19.232 15.625 14.0625C15.625 8.89297 19.8305 4.6875 25 4.6875C30.1695 4.6875 34.375 8.89297 34.375 14.0625C34.375 19.232 30.1695 23.4375 25 23.4375Z" fill="#C8DEB8"/>
<path d="M10.9375 25C4.90625 25 0 29.9062 0 35.9375C0 41.9688 4.90625 46.875 10.9375 46.875C16.9688 46.875 21.875 41.9688 21.875 35.9375C21.875 29.9062 16.9688 25 10.9375 25ZM10.9375 45.3125C5.76797 45.3125 1.5625 41.107 1.5625 35.9375C1.5625 30.768 5.76797 26.5625 10.9375 26.5625C16.107 26.5625 20.3125 30.768 20.3125 35.9375C20.3125 41.107 16.107 45.3125 10.9375 45.3125Z" fill="#C8DEB8"/>
<path d="M39.0625 25C33.0312 25 28.125 29.9062 28.125 35.9375C28.125 41.9688 33.0312 46.875 39.0625 46.875C45.0938 46.875 50 41.9688 50 35.9375C50 29.9062 45.0938 25 39.0625 25ZM39.0625 45.3125C33.893 45.3125 29.6875 41.107 29.6875 35.9375C29.6875 30.768 33.893 26.5625 39.0625 26.5625C44.232 26.5625 48.4375 30.768 48.4375 35.9375C48.4375 41.107 44.232 45.3125 39.0625 45.3125Z" fill="#C8DEB8"/>
<path d="M32.0312 13.2812H30.4688C30.0375 13.2812 29.6875 13.6305 29.6875 14.0625C29.6875 14.4047 29.9102 14.6867 30.2148 14.793C29.7305 15.9789 28.4117 17.9688 25 17.9688C21.6164 17.9688 20.2859 15.9766 19.7922 14.7914C20.0937 14.6828 20.3125 14.4023 20.3125 14.0625C20.3125 13.6305 19.9625 13.2812 19.5312 13.2812H17.9688C17.5375 13.2812 17.1875 13.6305 17.1875 14.0625C17.1875 14.4945 17.5375 14.8438 17.9688 14.8438H18.1586C18.6305 16.2648 20.2305 19.5312 25 19.5312C29.7695 19.5312 31.3695 16.2648 31.8414 14.8438H32.0312C32.4625 14.8438 32.8125 14.4945 32.8125 14.0625C32.8125 13.6305 32.4625 13.2812 32.0312 13.2812Z" fill="#C8DEB8"/>
<path d="M15.625 38.2812H6.25C5.81875 38.2812 5.46875 38.6305 5.46875 39.0625C5.46875 39.4945 5.81875 39.8438 6.25 39.8438H15.625C16.0562 39.8438 16.4062 39.4945 16.4062 39.0625C16.4062 38.6305 16.0562 38.2812 15.625 38.2812Z" fill="#C8DEB8"/>
<path d="M12.5 40.625H9.375C8.94375 40.625 8.59375 40.9742 8.59375 41.4062C8.59375 41.8383 8.94375 42.1875 9.375 42.1875H12.5C12.9313 42.1875 13.2812 41.8383 13.2812 41.4062C13.2812 40.9742 12.9313 40.625 12.5 40.625Z" fill="#C8DEB8"/>
<path d="M25.7812 20.3125H24.2188C23.7875 20.3125 23.4375 20.6617 23.4375 21.0938C23.4375 21.5258 23.7875 21.875 24.2188 21.875H25.7812C26.2125 21.875 26.5625 21.5258 26.5625 21.0938C26.5625 20.6617 26.2125 20.3125 25.7812 20.3125Z" fill="#C8DEB8"/>
<path d="M39.0625 36.7188C35.6531 36.7188 33.8961 38.4367 33.8227 38.5102C33.5187 38.8141 33.5195 39.3031 33.8203 39.6086C34.1219 39.9133 34.6148 39.9172 34.9234 39.6195C34.9797 39.5648 36.3352 38.2812 39.0625 38.2812C41.7898 38.2812 43.1453 39.5648 43.1977 39.6148C43.35 39.7672 43.55 39.8438 43.75 39.8438C43.95 39.8438 44.15 39.7672 44.3023 39.6148C44.6078 39.3094 44.6078 38.8156 44.3023 38.5102C44.2289 38.4367 42.4719 36.7188 39.0625 36.7188Z" fill="#C8DEB8"/>
<path d="M40.625 39.8438H37.5C37.0688 39.8438 36.7188 40.193 36.7188 40.625C36.7188 41.057 37.0688 41.4062 37.5 41.4062H40.625C41.0563 41.4062 41.4062 41.057 41.4062 40.625C41.4062 40.193 41.0563 39.8438 40.625 39.8438Z" fill="#C8DEB8"/>
</svg>
