<svg width="44" height="52" viewBox="0 0 44 52" fill="none" xmlns="http://www.w3.org/2000/svg">
<path d="M26.7831 42.7335C25.2968 42.5238 23.681 42.3319 21.9241 42.1715C20.5553 41.9696 19.4673 41.0967 18.3169 40.172C16.963 39.0838 15.563 37.9584 13.6415 37.9584C11.2778 37.9584 10.6153 38.9895 10.1315 39.7423C9.81337 40.2375 9.69265 40.3941 9.27175 40.3941C8.59209 40.3941 8.28013 40.1244 8.13646 39.8602C8.93967 39.557 9.8793 38.8569 9.8793 37.5434C9.8793 36.1422 8.71794 35.5417 7.77138 35.3483C7.80137 35.0444 7.84511 34.63 7.90431 34.1352C9.01026 34.0958 9.37056 34.5663 9.74761 35.0626C10.0412 35.4491 10.4067 35.9302 11.0906 35.9302C12.3757 35.9302 16.3177 34.7939 20.4456 32.9582C24.4606 31.173 27.4824 30.6009 32.8557 32.4294C38.2922 34.2792 40.2352 34.2055 43.3137 33.0446C43.4611 32.9889 43.5804 32.877 43.6453 32.7334C43.7101 32.5898 43.7154 32.4263 43.6598 32.2789C43.6042 32.1315 43.4923 32.0121 43.3488 31.9472C43.2053 31.8822 43.0418 31.8768 42.8943 31.9323C40.0695 32.9976 38.3692 33.0498 33.2386 31.3041C25.3746 28.628 22.2549 31.0734 17.2915 32.979C18.5826 29.7367 16.6652 26.1335 16.6652 24.3483C16.6652 20.271 17.7464 17.163 19.9694 14.8552C20.5798 14.7905 22.3283 14.5738 23.9204 14.0813C24.9785 15.5681 27.9125 15.7186 28.9359 14.0555C31.3362 16.2481 36.7729 14.0854 34.8044 10.0383C34.8712 9.90823 34.9248 9.77188 34.9647 9.63122C36.4462 9.49335 37.8866 8.28291 37.8866 6.33544C37.8866 4.01336 30.2873 -0.0893365 28.2854 0.00148284C26.6347 0.0230745 21.557 2.14696 17.576 3.93076C16.3087 4.49754 15.2375 5.42663 14.4972 6.60102C7.75597 17.2673 1.58684e-08 29.0021 1.58684e-08 42.3791C-6.89253e-05 43.7893 0.224476 45.0177 1.15829 46.1304C2.52586 47.7601 5.07976 48.5864 8.74888 48.5864C14.7124 48.5864 15.6547 51.4828 19.88 51.4828C24.0031 51.4828 27.9193 50.0914 33.4533 50.0914C38.8344 50.0914 42.8573 51.4323 42.9129 51.4511C43.6654 51.707 44.0331 50.577 43.296 50.3258C43.1254 50.2678 39.0529 48.9027 33.4533 48.9027C27.8565 48.9027 23.8234 50.2942 19.88 50.2942C16.0765 50.2942 15.0065 47.3978 8.74888 47.3978C5.44749 47.3978 3.19999 46.7143 2.0688 45.3663C1.31522 44.4683 1.18861 43.4873 1.18864 42.3791C1.18864 35.1737 3.63879 28.2185 6.77143 21.9599C6.94952 22.3585 7.2018 22.7195 7.51481 23.0239C3.87054 31.5481 3.32907 34.8369 3.37074 40.8568C3.3788 42.0038 4.29906 42.9009 5.36025 42.8772C5.59436 43.6882 6.27697 44.269 7.42158 44.269C9.3113 44.269 9.4572 42.8799 10.8477 42.8799C29.5421 42.8799 37.4635 46.6153 40.7194 46.6153C42.5545 46.6153 43.3667 44.6019 42.4359 43.3282C42.2066 43.0191 41.8969 42.7789 41.5405 42.6337C42.4087 41.6989 42.7982 40.3532 41.9113 39.4665C39.6057 37.1607 36.9803 40.3567 36.239 40.72C35.8361 40.714 35.1666 40.643 34.5356 40.5642C38.0144 38.027 40.0544 36.144 42.9937 36.6998C43.0703 36.7143 43.1491 36.7135 43.2255 36.6976C43.3019 36.6816 43.3745 36.6508 43.4389 36.6068C43.5034 36.5628 43.5586 36.5065 43.6013 36.4412C43.6441 36.3759 43.6735 36.3029 43.688 36.2262C43.7025 36.1495 43.7018 36.0707 43.6858 35.9943C43.6699 35.9179 43.639 35.8454 43.595 35.7809C43.5511 35.7164 43.4948 35.6612 43.4295 35.6185C43.3642 35.5757 43.2911 35.5463 43.2144 35.5318C40.0424 34.932 37.9223 36.5295 34.0733 39.4286C31.6412 41.2606 28.8384 42.4 26.7831 42.7335ZM33.0361 41.5592C33.7241 41.6605 35.4953 41.9091 36.2923 41.9091C37.4619 41.9091 39.4086 38.6444 41.0708 40.307C41.6088 40.845 40.6297 42.2128 39.6514 42.491C38.9379 42.6939 39.176 43.7633 39.9029 43.6503C40.6556 43.5368 41.2143 43.6711 41.4762 44.0295C41.5684 44.1645 41.6223 44.3219 41.6324 44.485C41.6424 44.6482 41.6081 44.811 41.533 44.9562C40.9031 46.23 38.0248 44.6315 29.6451 43.1823C30.8247 42.7509 31.9602 42.2074 33.0361 41.5592ZM9.27175 41.5827C10.3618 41.5827 10.7886 40.9185 11.1315 40.3849C11.5406 39.7483 11.9269 39.147 13.6415 39.147C15.1444 39.147 16.3237 40.0949 17.5722 41.0986C17.9178 41.3763 18.267 41.6561 18.6277 41.9211C16.2631 41.7765 13.6773 41.6912 10.8477 41.6912C8.89895 41.6912 8.7869 43.0804 7.42158 43.0804C6.78471 43.0804 6.54863 42.828 6.47926 42.4504C6.70686 42.2399 6.86857 41.968 6.94482 41.6675C7.02106 41.3671 7.00857 41.0509 6.90886 40.7574C6.87047 40.6762 6.86186 40.5841 6.88454 40.4972C6.90722 40.4102 6.95975 40.3341 7.03292 40.282C7.32109 40.9097 7.96371 41.5827 9.27175 41.5827ZM11.0906 34.7415C11.0028 34.7415 10.8822 34.5912 10.6941 34.3436C10.2885 33.8097 9.64412 32.9627 8.05779 32.946C8.39056 30.5439 8.99654 27.1794 9.99369 24.7863C11.7397 25.3475 13.7652 25.5668 15.5463 25.1274C15.9084 27.4227 17.5787 30.9142 15.597 33.5951C13.276 34.3898 11.6355 34.7415 11.0906 34.7415ZM32.551 13.4932C31.1799 14.0254 30.3185 13.661 29.8415 13.2708C30.8887 12.7842 31.4866 12.1128 31.8259 11.4787C32.6853 11.4401 33.3799 11.2692 33.9035 10.9667C34.3266 12.2308 33.7688 13.0203 32.551 13.4932ZM36.6979 6.33543C36.6979 7.51072 35.8941 8.26601 35.022 8.42397C34.9277 7.78777 34.6595 7.07723 34.2179 6.30873C33.4809 5.02624 31.7459 3.16075 30.4189 1.82028C33.4371 3.12497 36.6979 5.50693 36.6979 6.33543ZM15.502 7.23597C16.1175 6.2594 17.0083 5.48682 18.062 5.0155C23.092 2.76161 26.7803 1.36252 28.0918 1.20448C28.906 1.97875 32.1738 5.13716 33.1872 6.90097C33.8412 8.039 34.0375 9.00036 33.726 9.53884C33.4697 9.98157 32.8591 10.1774 32.2269 10.2548C32.4623 8.70024 31.8489 6.80758 30.5718 5.26484C30.4713 5.14342 30.3266 5.06691 30.1697 5.05213C30.0128 5.03734 29.8564 5.08551 29.735 5.18603C29.6135 5.28654 29.537 5.43118 29.5222 5.58811C29.5075 5.74504 29.5556 5.90142 29.6561 6.02284C31.3675 8.09 31.9039 10.9665 29.3908 12.1697C29.408 9.56831 27.752 6.24353 27.7294 6.20392C27.6524 6.06937 27.5258 5.97024 27.3768 5.92766C27.2277 5.88507 27.0679 5.90241 26.9315 5.97598C26.795 6.04954 26.6927 6.17351 26.6464 6.32144C26.6 6.46937 26.6133 6.62955 26.6834 6.76783C27.304 8.02194 28.8584 11.9279 27.9209 13.4384C27.2763 14.4771 24.7901 14.1626 24.6917 12.8709C24.6604 12.4595 24.9105 11.9764 25.7066 11.8544C25.8624 11.8304 26.0023 11.7456 26.0955 11.6186C26.1887 11.4915 26.2277 11.3326 26.2038 11.1769C26.1799 11.0211 26.0951 10.8812 25.9681 10.7879C25.8411 10.6946 25.6823 10.6556 25.5265 10.6794C24.0366 10.9079 23.4349 12.0223 23.5065 12.9612L23.5068 12.9646C21.7186 13.5066 19.6671 13.691 19.6447 13.6929C19.5054 13.7051 19.3749 13.766 19.276 13.8649C16.8023 16.3385 15.5587 19.6292 15.4806 23.9141C13.5698 24.4612 11.5132 24.0008 10.5137 23.7003C10.5384 23.6561 10.5631 23.6122 10.5881 23.5692C10.6275 23.5018 10.6531 23.4273 10.6636 23.3499C10.6741 23.2726 10.6693 23.1939 10.6494 23.1184C10.6295 23.0429 10.5949 22.9721 10.5476 22.91C10.5003 22.8479 10.4413 22.7957 10.3738 22.7564C10.3064 22.7171 10.2319 22.6915 10.1545 22.681C10.0772 22.6705 9.99849 22.6754 9.92301 22.6953C9.84754 22.7152 9.77673 22.7498 9.71462 22.7971C9.65252 22.8444 9.60035 22.9035 9.56108 22.971C7.24886 26.9397 6.56254 35.461 6.53445 35.8219C6.5282 35.9023 6.53838 35.9831 6.56437 36.0594C6.59036 36.1358 6.63162 36.206 6.68563 36.2659C6.73964 36.3258 6.80527 36.3741 6.87853 36.4078C6.95179 36.4415 7.03115 36.46 7.11177 36.462C7.12755 36.4625 8.69067 36.5144 8.69067 37.5434C8.69067 38.6059 7.47062 38.8304 7.33446 38.852C6.86323 38.9233 6.17566 39.3129 5.88198 39.8314C5.77424 40.0268 5.7092 40.2428 5.69116 40.4652C5.67312 40.6876 5.70249 40.9112 5.77733 41.1214C5.9109 41.5363 5.51154 41.7863 5.11882 41.6565C4.95372 41.5958 4.81139 41.4857 4.71126 41.341C4.61113 41.1964 4.55809 41.0244 4.55939 40.8485C4.51836 34.9308 5.06541 31.7201 8.77567 23.1002L8.77645 23.0984C9.10214 22.3418 9.45183 21.5441 9.828 20.6986C9.85995 20.6273 9.87751 20.5503 9.87967 20.4722C9.88184 20.394 9.86856 20.3162 9.84062 20.2432C9.81267 20.1702 9.77059 20.1035 9.7168 20.0467C9.66301 19.99 9.59856 19.9445 9.52714 19.9127C9.45572 19.8809 9.37873 19.8636 9.30059 19.8616C9.22244 19.8596 9.14468 19.8731 9.07174 19.9012C8.99881 19.9293 8.93214 19.9716 8.87555 20.0255C8.81896 20.0794 8.77357 20.144 8.74198 20.2155C8.49715 20.7658 8.26322 21.2966 8.04018 21.8081C7.76117 21.3703 7.60958 20.8634 7.6024 20.3443C10.1934 15.4359 13.0926 11.049 15.502 7.23597Z" fill="#C8DEB8"/>
<path d="M36.4257 34.3475C36.3431 34.3156 34.3633 33.56 30.9127 33.1659C30.8352 33.1571 30.7567 33.1636 30.6816 33.1851C30.6066 33.2066 30.5366 33.2426 30.4755 33.2912C30.3521 33.3893 30.2727 33.5324 30.2548 33.689C30.2369 33.8456 30.282 34.0029 30.3801 34.1263C30.4782 34.2497 30.6213 34.329 30.7779 34.3469C34.5414 34.7767 35.8701 35.4962 36.211 35.4962C36.3493 35.4955 36.4831 35.4467 36.5893 35.3581C36.6955 35.2694 36.7675 35.1465 36.7929 35.0106C36.8183 34.8746 36.7956 34.734 36.7285 34.613C36.6615 34.492 36.5544 34.3981 36.4257 34.3475Z" fill="#C8DEB8"/>
<path d="M30.9275 40.1071C32.7369 39.4427 34.4222 38.4798 35.9134 37.2584C36.0324 37.1553 36.1057 37.0092 36.1171 36.8522C36.1285 36.6951 36.0771 36.54 35.9742 36.4208C35.8713 36.3016 35.7253 36.2281 35.5682 36.2165C35.4112 36.2048 35.256 36.256 35.1366 36.3587C33.7541 37.4801 32.1976 38.368 30.5287 38.9874C30.3802 39.0403 30.2588 39.15 30.1912 39.2924C30.1236 39.4348 30.1154 39.5982 30.1682 39.7467C30.2211 39.8951 30.3308 40.0165 30.4732 40.0841C30.6156 40.1517 30.779 40.16 30.9275 40.1071Z" fill="#C8DEB8"/>
<path d="M24.6177 37.1204C24.6273 36.963 24.574 36.8084 24.4695 36.6904C24.365 36.5724 24.2179 36.5007 24.0606 36.4911C23.0025 36.4269 21.1978 35.8331 20.036 35.4142C20.8178 35.0211 22.1296 34.528 24.0983 34.2817C24.1758 34.2721 24.2506 34.2473 24.3185 34.2087C24.3864 34.1701 24.4461 34.1186 24.4941 34.057C24.542 33.9953 24.5774 33.9249 24.5981 33.8496C24.6188 33.7743 24.6245 33.6956 24.6148 33.6182C24.6051 33.5407 24.5802 33.4659 24.5416 33.398C24.503 33.3301 24.4514 33.2705 24.3897 33.2226C24.328 33.1747 24.2575 33.1394 24.1822 33.1188C24.1069 33.0982 24.0282 33.0926 23.9508 33.1023C19.9699 33.6003 18.3727 35.0542 18.3067 35.1158C18.2344 35.1845 18.1804 35.2701 18.1497 35.3649C18.119 35.4598 18.1125 35.5608 18.1307 35.6588C18.149 35.7568 18.1915 35.8487 18.2544 35.926C18.3173 36.0034 18.3985 36.0638 18.4907 36.1018C18.6394 36.1615 22.153 37.5661 23.9885 37.6777C24.0664 37.6824 24.1445 37.6717 24.2183 37.6463C24.2921 37.6208 24.3601 37.5811 24.4186 37.5294C24.477 37.4776 24.5247 37.4149 24.5588 37.3447C24.593 37.2745 24.613 37.1983 24.6177 37.1204Z" fill="#C8DEB8"/>
<path d="M18.5043 37.6685C18.3691 37.5875 18.2072 37.5635 18.0543 37.6018C17.9014 37.6401 17.77 37.7376 17.689 37.8728C17.608 38.0081 17.584 38.1699 17.6223 38.3228C17.6607 38.4757 17.7581 38.6071 17.8934 38.6881C19.3174 39.5034 20.831 40.1513 22.404 40.6186C23.1725 40.8421 23.4799 39.6938 22.7361 39.4773C21.2619 39.0356 19.8423 38.4288 18.5043 37.6685Z" fill="#C8DEB8"/>
<path d="M30.8167 37.3954C31.6643 37.2808 32.4982 37.0814 33.306 36.8002C33.3793 36.7731 33.4465 36.7319 33.5038 36.6788C33.5611 36.6257 33.6074 36.5618 33.64 36.4908C33.6726 36.4199 33.6909 36.3431 33.6938 36.2651C33.6968 36.187 33.6843 36.1092 33.6571 36.0359C33.6299 35.9627 33.5885 35.8955 33.5354 35.8383C33.4822 35.7811 33.4183 35.7349 33.3473 35.7024C33.2762 35.6699 33.1995 35.6517 33.1214 35.6488C33.0434 35.646 32.9655 35.6586 32.8923 35.6859C32.161 35.9384 31.4063 36.1174 30.6394 36.2199C30.4837 36.2436 30.3437 36.3281 30.2502 36.4549C30.1567 36.5817 30.1174 36.7404 30.1409 36.8962C30.1644 37.052 30.2488 37.192 30.3755 37.2856C30.5022 37.3792 30.6609 37.4187 30.8167 37.3954Z" fill="#C8DEB8"/>
</svg>
