<svg width="48" height="48" viewBox="0 0 48 48" fill="none" xmlns="http://www.w3.org/2000/svg">
<g clip-path="url(#clip0_100_13055)">
<path d="M47.2 17.5996C47.1952 15.2135 45.4383 13.1932 43.076 12.8572C42.2907 7.78179 37.9358 4.02801 32.8 3.99961C32.596 3.99961 32.3816 4.02361 32.1728 4.03561C31.4189 2.69799 30.069 1.80334 28.5434 1.63021C27.0177 1.45709 25.5016 2.02652 24.4672 3.16121C23.0474 2.14567 21.3456 1.59965 19.6 1.59961C16.887 1.61316 14.3453 2.92776 12.7664 5.13401C10.9535 4.50133 8.94715 4.77643 7.37144 5.87372C5.79573 6.97102 4.84182 8.7574 4.80641 10.6772C2.45041 11.4691 1.11632 13.9565 1.76001 16.3572C0.611054 18.0142 -0.0031294 19.9832 1.19906e-05 21.9996C-0.00296615 25.1343 1.46554 28.0887 3.96623 29.9789C6.46692 31.8691 9.70981 32.476 12.7248 31.618C13.7701 33.8662 15.849 35.4608 18.2912 35.8877C20.7335 36.3146 23.2301 35.5198 24.976 33.7596C25.9598 34.0939 26.9832 34.2975 28.02 34.3652C28.168 37.3572 29.3184 39.1508 34.1472 40.7604C37.2824 41.8052 38.1192 43.9268 38.3384 45.0988C38.4873 45.8574 39.1541 46.4033 39.9272 46.3996H42.368C42.8091 46.4004 43.2309 46.219 43.5338 45.8984C43.8367 45.5778 43.9938 45.1463 43.968 44.706C43.8488 42.786 43.3168 38.3404 40.9992 35.518C43.6666 34.0603 45.5589 31.5043 46.1744 28.5276C48.3545 25.9894 48.6089 22.3208 46.8 19.506C47.0616 18.9044 47.1977 18.2557 47.2 17.5996ZM44.8592 27.6092L44.8408 27.6284C43.7025 28.8792 42.0912 29.5944 40.4 29.5996C39.4533 29.6029 38.5199 29.3764 37.68 28.9396C37.2989 28.7429 36.9411 28.5038 36.6136 28.2268C37.6825 27.0065 37.9064 25.2606 37.18 23.81C37.0514 23.5545 36.7962 23.387 36.5106 23.3706C36.2251 23.3543 35.9524 23.4915 35.7954 23.7306C35.6385 23.9698 35.621 24.2745 35.7496 24.53C35.9158 24.862 36.0016 25.2284 36 25.5996C36.0011 26.7137 35.2353 27.682 34.151 27.9377C33.0667 28.1935 31.949 27.6695 31.452 26.6724C31.3234 26.4169 31.0682 26.2494 30.7826 26.233C30.4971 26.2167 30.2244 26.3539 30.0674 26.593C29.9105 26.8322 29.893 27.1369 30.0216 27.3924C30.9853 29.3359 33.3286 30.1488 35.2888 29.2196C35.787 29.6784 36.3468 30.0653 36.952 30.3692C39.1211 31.4872 41.6985 31.4803 43.8616 30.3508C42.6093 32.8652 40.2236 34.6236 37.4512 35.0756C37.038 35.1402 36.7443 35.5121 36.7772 35.929C36.8102 36.3459 37.1586 36.6671 37.5768 36.666C37.6197 36.6661 37.6625 36.6626 37.7048 36.6556C38.3054 36.5573 38.896 36.4055 39.4696 36.202C41.7416 38.59 42.2552 42.9716 42.368 44.8028H39.9112C39.6824 43.5812 38.7112 40.594 34.6528 39.2412C30.5272 37.866 29.7352 36.6172 29.6192 34.3684H29.6624C30.5673 34.3061 31.4622 34.1408 32.3296 33.8756C32.752 33.7459 32.9893 33.2984 32.8596 32.876C32.7299 32.4536 32.2824 32.2163 31.86 32.346C31.1038 32.5771 30.3234 32.7205 29.5344 32.7732C28.0048 32.8925 26.4682 32.661 25.0416 32.0964C24.7258 31.9763 24.3686 32.065 24.1456 32.3188C22.745 33.9455 20.5814 34.6992 18.4732 34.2949C16.365 33.8906 14.6338 32.3899 13.9344 30.3604V30.3556C13.3505 28.6816 13.5417 26.8346 14.456 25.3156C14.6838 24.937 14.5615 24.4454 14.1828 24.2176C13.8042 23.9898 13.3126 24.1122 13.0848 24.4908C12.7303 25.0814 12.4582 25.7177 12.276 26.382C11.5938 26.4727 10.906 26.2617 10.392 25.8041C9.87806 25.3465 9.58889 24.6877 9.60001 23.9996V23.9676C9.5994 23.7571 9.5144 23.5556 9.36404 23.4082C9.21368 23.2609 9.01051 23.18 8.80001 23.1836C8.35524 23.1915 7.99907 23.5548 8.00001 23.9996C8.00266 26.2077 9.79197 27.997 12 27.9996H12.0272C12.02 28.134 12 28.2668 12 28.3996C12.0018 28.9747 12.0691 29.5478 12.2008 30.1076C9.6758 30.7911 6.97652 30.2599 4.89872 28.6707C2.82091 27.0815 1.60152 24.6155 1.60001 21.9996C1.59761 20.6325 1.93287 19.286 2.57601 18.0796C2.94359 18.576 3.40379 18.9965 3.93121 19.318C4.1763 19.4651 4.48121 19.4702 4.73111 19.3315C4.981 19.1927 5.1379 18.9312 5.14271 18.6455C5.14751 18.3597 4.9995 18.0931 4.75441 17.946C3.51868 17.207 2.92865 15.7338 3.31267 14.3461C3.69669 12.9585 4.96019 11.9981 6.40001 11.9996C7.4096 11.9959 8.36048 12.4737 8.96001 13.286C9.22511 13.6395 9.72655 13.7111 10.08 13.446C10.4335 13.1809 10.5051 12.6795 10.24 12.326C9.34418 11.1145 7.92677 10.3997 6.42001 10.3996C6.62894 8.13573 8.52651 6.40279 10.8 6.39961C11.1868 6.40194 11.5715 6.45575 11.944 6.55961C11.7511 6.9803 11.5933 7.41617 11.472 7.86281C11.4182 8.0682 11.4483 8.28655 11.5556 8.46976C11.6629 8.65298 11.8386 8.78603 12.044 8.83961C12.2494 8.8934 12.4678 8.86335 12.651 8.75606C12.8342 8.64877 12.9672 8.47305 13.0208 8.26761C13.179 7.65829 13.4213 7.074 13.7408 6.53161C14.9757 4.47163 17.1983 3.20773 19.6 3.19961C21.0356 3.19877 22.4343 3.65399 23.5944 4.49961C23.334 5.09918 23.1997 5.74592 23.2 6.39961C23.2 6.84144 23.5582 7.19961 24 7.19961C24.4418 7.19961 24.8 6.84144 24.8 6.39961C24.8 4.6323 26.2327 3.19961 28 3.19961C29.7673 3.19961 31.2 4.6323 31.2 6.39961C31.2 6.84144 31.5582 7.19961 32 7.19961C32.4418 7.19961 32.8 6.84144 32.8 6.39961C32.7986 6.13139 32.7746 5.86377 32.728 5.59961H32.8C37.0725 5.62205 40.7196 8.69257 41.4696 12.8988C40.763 13.0346 40.0964 13.3289 39.52 13.7596C39.1666 14.0247 39.0949 14.5261 39.36 14.8796C39.6251 15.2331 40.1266 15.3047 40.48 15.0396C41.6917 14.1296 43.3755 14.1943 44.5138 15.1945C45.6522 16.1946 45.9329 17.8561 45.1864 19.1748C44.8541 19.7536 44.3512 20.2157 43.7464 20.498C43.3461 20.6853 43.1735 21.1617 43.3608 21.562C43.5482 21.9623 44.0245 22.1349 44.4248 21.9476C44.9311 21.706 45.3913 21.3779 45.7848 20.978C46.8609 23.1703 46.4923 25.797 44.8544 27.6084L44.8592 27.6092Z" fill="#C8DEB8"/>
<path d="M28.8001 16.8H25.6001V9.59997C25.6001 9.25211 25.3754 8.94409 25.0441 8.83799C24.7128 8.73188 24.3509 8.85201 24.1489 9.13517L16.1489 20.3352C15.9748 20.5791 15.9516 20.8998 16.0887 21.1662C16.2259 21.4326 16.5004 21.6 16.8001 21.6H20.0001V28.8C20 29.1478 20.2248 29.4558 20.5561 29.562C20.8873 29.6681 21.2492 29.5479 21.4513 29.2648L29.4513 18.0648C29.6254 17.8209 29.6486 17.5002 29.5114 17.2338C29.3743 16.9674 29.0997 16.7999 28.8001 16.8ZM21.6001 26.3032V20.8C21.6001 20.3581 21.2419 20 20.8001 20H18.3545L24.0001 12.0968V17.6C24.0001 18.0418 24.3583 18.4 24.8001 18.4H27.2457L21.6001 26.3032Z" fill="#C8DEB8"/>
</g>
<defs>
<clipPath id="clip0_100_13055">
<rect width="48" height="48" fill="white"/>
</clipPath>
</defs>
</svg>
