<svg width="34" height="34" viewBox="0 0 34 34" fill="none" xmlns="http://www.w3.org/2000/svg">
<path fill-rule="evenodd" clip-rule="evenodd" d="M13.4582 25.0572C13.4582 25.3987 13.1931 25.677 12.8679 25.677C12.5426 25.677 12.2776 25.3987 12.2776 25.0572V19.313L12.8679 18.9554L13.4582 19.313V25.0572ZM14.6387 12.0416C14.6387 12.8901 14.3312 13.901 12.8679 13.901C11.4046 13.901 11.0971 12.8901 11.0971 12.0416V7.08325H9.9165V12.0416C9.9165 13.3946 10.5528 14.8269 12.2776 15.0928V17.8819L11.0971 18.5977V25.0572C11.0971 26.0823 11.8916 26.9166 12.8679 26.9166C13.8442 26.9166 14.6387 26.0823 14.6387 25.0572V18.5977L13.4582 17.8819V15.0928C15.183 14.8269 15.8193 13.3946 15.8193 12.0416V7.08325H14.6387V12.0416ZM12.2776 12.0416H13.4582V7.08325H12.2776V12.0416ZM21.7221 25.0572C21.7221 25.3987 21.457 25.677 21.1318 25.677C20.8065 25.677 20.5415 25.3987 20.5415 25.0572V19.313L21.1318 18.9554L21.7221 19.313V25.0572ZM19.3609 12.0416C19.3609 9.77129 20.4099 8.32284 21.1318 8.32284C21.8537 8.32284 22.9026 9.77129 22.9026 12.0416C22.9026 12.8901 22.5951 13.901 21.1318 13.901C19.6685 13.901 19.3609 12.8901 19.3609 12.0416ZM24.0832 12.0416C24.0832 9.30768 22.7592 7.08325 21.1318 7.08325C19.5044 7.08325 18.1804 9.30768 18.1804 12.0416C18.1804 13.3946 18.8167 14.8269 20.5415 15.0928V17.8819L19.3609 18.5977V25.0572C19.3609 26.0823 20.1555 26.9166 21.1318 26.9166C22.1081 26.9166 22.9026 26.0823 22.9026 25.0572V18.5977L21.7221 17.8819V15.0928C23.4468 14.8269 24.0832 13.3946 24.0832 12.0416Z" fill="#F04438"/>
<path d="M9.37593 26.4591L24.9593 8.04246M29.75 17C29.75 24.0416 24.0416 29.75 17 29.75C9.95837 29.75 4.25 24.0416 4.25 17C4.25 9.95837 9.95837 4.25 17 4.25C24.0416 4.25 29.75 9.95837 29.75 17Z" stroke="#F04438" stroke-width="1.41667"/>
</svg>
