<svg width="53" height="53" viewBox="0 0 53 53" fill="none" xmlns="http://www.w3.org/2000/svg">
<path d="M47.8589 31.4302C46.6929 30.3172 45.3679 29.6282 44.0959 29.4162C42.1879 29.0982 41.2339 29.5752 40.4919 29.9992C40.2269 30.1582 39.9619 30.2642 39.6439 30.3702C39.7499 28.6742 40.2799 28.1442 41.1809 27.8262C41.6049 27.6672 41.8169 27.2432 41.6579 26.8192C41.4989 26.3952 41.0749 26.1832 40.6509 26.3422C38.5839 27.0842 38.1599 28.7272 38.0539 30.3702C37.7359 30.2642 37.4709 30.1582 37.2059 29.9992C36.7819 29.7872 36.3049 29.5222 35.6159 29.4162V10.1242C35.6159 8.1102 33.8669 6.4672 31.7469 6.4672H27.7189C27.3479 4.8772 25.9169 3.6582 24.2209 3.6582H14.0449C12.3489 3.6582 10.9179 4.8772 10.5469 6.4672H6.5189C4.3989 6.4672 2.6499 8.1102 2.6499 10.1242V45.6872C2.6499 47.7012 4.3989 49.3442 6.5189 49.3442H31.7999C32.5949 49.3442 33.3899 49.0792 34.0259 48.6552C34.9269 49.0792 35.8279 49.3442 36.7289 49.3442C37.4709 49.3442 38.2129 49.1852 38.9019 48.8672C41.6049 50.1922 44.9439 48.8672 47.5409 45.3692C50.6679 41.1822 51.7809 35.0872 47.8589 31.4302ZM12.0839 7.2622C12.0839 6.1492 12.9849 5.2482 14.0979 5.2482H24.3269C25.4399 5.2482 26.3409 6.1492 26.3409 7.2622V9.1702C26.3409 9.2232 26.2879 9.2762 26.2349 9.2762H12.1369C12.0839 9.2762 12.0309 9.2232 12.0309 9.1702V7.2622H12.0839ZM31.7999 47.7542H6.5189C5.2469 47.7542 4.2399 46.8002 4.2399 45.6872V10.1242C4.2399 8.9582 5.2469 8.0572 6.5189 8.0572H10.4409V9.1702C10.4409 10.1242 11.1829 10.8662 12.1369 10.8662H26.1819C27.0829 10.8662 27.8779 10.1242 27.8779 9.1702V8.0572H31.7999C33.0719 8.0572 34.0789 9.0112 34.0789 10.1242V29.3632C33.9199 29.3632 33.8139 29.4162 33.6549 29.4162C32.3829 29.6282 31.1109 30.3172 29.8919 31.4302C28.1429 33.0202 27.4009 35.1402 27.4009 37.3132H17.2249C16.8009 37.3132 16.4299 37.6842 16.4299 38.1082C16.4299 38.5322 16.8009 38.9032 17.2249 38.9032H27.5599C27.8779 41.1822 28.8849 43.4612 30.3159 45.3162C31.0049 46.2172 31.7469 47.0122 32.4889 47.5952C32.2239 47.7012 32.0119 47.7542 31.7999 47.7542ZM46.2689 44.4152C44.5729 46.6412 41.7639 48.7082 39.3259 47.2772C39.0609 47.1182 38.7429 47.1182 38.5309 47.2772C36.0929 48.7612 33.2839 46.6412 31.5879 44.4152C28.9379 40.9172 27.8779 35.5642 31.0579 32.5962C32.0119 31.6952 33.0189 31.1652 33.9729 31.0062C34.3439 30.9532 34.6089 30.9002 34.8739 30.9002C35.6159 30.9002 36.0399 31.1122 36.5699 31.3772C36.9939 31.5892 37.4709 31.8542 38.1599 32.0132V34.3982C37.4179 34.2922 36.7819 34.0802 35.9339 33.6032C35.5629 33.3912 35.0859 33.5502 34.8739 33.9212C34.6619 34.2922 34.8209 34.7692 35.1919 34.9812C36.5169 35.7232 37.6299 35.9882 38.9549 35.9882C40.2799 35.9882 41.3399 35.6702 42.7179 34.9812C43.0889 34.7692 43.2479 34.2922 43.0359 33.9212C42.8239 33.5502 42.3469 33.3912 41.9759 33.6032C41.1279 34.0272 40.4919 34.2922 39.7499 34.3982V32.0132C40.4389 31.9072 40.9159 31.6422 41.3399 31.3772C42.0289 31.0062 42.5589 30.7412 43.9369 30.9532C44.8909 31.1122 45.8979 31.6952 46.8519 32.5432C49.9789 35.5642 48.8659 40.9172 46.2689 44.4152Z" fill="#C8DEB8"/>
<path d="M12.2433 16.1135L9.6463 19.1875L8.5863 18.2865C8.2683 18.0215 7.7383 18.0215 7.4733 18.3925C7.2083 18.7105 7.2083 19.2405 7.5793 19.5055L9.2223 20.8835C9.3813 20.9895 9.5403 21.0955 9.7523 21.0955H9.8053C10.0173 21.0955 10.2293 20.9895 10.3353 20.8305L13.4623 17.1205C13.7273 16.8025 13.6743 16.2725 13.3563 16.0075C13.0383 15.7425 12.5613 15.7425 12.2433 16.1135Z" fill="#C8DEB8"/>
<path d="M12.2433 26.9241L9.6463 29.9981L8.5863 29.0971C8.2683 28.8321 7.7383 28.8321 7.4733 29.2031C7.2083 29.5211 7.2083 30.0511 7.5793 30.3161L9.2223 31.6941C9.3813 31.8001 9.5403 31.9061 9.7523 31.9061H9.8053C10.0173 31.9061 10.2293 31.8001 10.3353 31.6411L13.4623 27.9311C13.7273 27.6131 13.6743 27.0831 13.3563 26.8181C13.0383 26.5531 12.5613 26.6061 12.2433 26.9241Z" fill="#C8DEB8"/>
<path d="M12.2433 37.7366L9.6463 40.8106L8.5863 39.9096C8.2683 39.6446 7.7383 39.6446 7.4733 40.0156C7.2083 40.3336 7.2083 40.8636 7.5793 41.1286L9.2223 42.5066C9.3813 42.6126 9.5403 42.7186 9.7523 42.7186H9.8053C10.0173 42.7186 10.2293 42.6126 10.3353 42.4536L13.4623 38.7436C13.7273 38.4256 13.6743 37.8956 13.3563 37.6306C13.0383 37.3656 12.5613 37.4186 12.2433 37.7366Z" fill="#C8DEB8"/>
<path d="M17.2252 28.1447H30.2102C30.6342 28.1447 31.0052 27.7737 31.0052 27.3497C31.0052 26.9257 30.6342 26.5547 30.2102 26.5547H17.2252C16.8012 26.5547 16.4302 26.9257 16.4302 27.3497C16.4302 27.7737 16.8012 28.1447 17.2252 28.1447Z" fill="#C8DEB8"/>
<path d="M17.2252 32.0666H22.3132C22.7372 32.0666 23.1082 31.6956 23.1082 31.2716C23.1082 30.8476 22.7372 30.4766 22.3132 30.4766H17.2252C16.8012 30.4766 16.4302 30.8476 16.4302 31.2716C16.4302 31.6956 16.8012 32.0666 17.2252 32.0666Z" fill="#C8DEB8"/>
<path d="M17.2252 17.2795H30.2102C30.6342 17.2795 31.0052 16.9085 31.0052 16.4845C31.0052 16.0605 30.6342 15.6895 30.2102 15.6895H17.2252C16.8012 15.6895 16.4302 16.0605 16.4302 16.4845C16.4302 16.9085 16.8012 17.2795 17.2252 17.2795Z" fill="#C8DEB8"/>
<path d="M17.2252 21.2541H22.3132C22.7372 21.2541 23.1082 20.8831 23.1082 20.4591C23.1082 20.0351 22.7372 19.6641 22.3132 19.6641H17.2252C16.8012 19.6641 16.4302 20.0351 16.4302 20.4591C16.4302 20.8831 16.8012 21.2541 17.2252 21.2541Z" fill="#C8DEB8"/>
<path d="M22.3132 41.2891H17.2252C16.8012 41.2891 16.4302 41.6601 16.4302 42.0841C16.4302 42.5081 16.8012 42.8791 17.2252 42.8791H22.3132C22.7372 42.8791 23.1082 42.5081 23.1082 42.0841C23.1082 41.6601 22.7902 41.2891 22.3132 41.2891Z" fill="#C8DEB8"/>
</svg>
