<svg width="18" height="18" viewBox="0 0 18 18" fill="none" xmlns="http://www.w3.org/2000/svg">
<path d="M16.6296 4.22863L14.5456 3.31063L14.5442 3.30416C14.4727 3.06228 14.2908 2.86119 14.045 2.75235L13.9656 2.71691C13.9872 2.59541 13.9798 2.47056 13.9443 2.35241C13.8725 2.11335 13.6914 1.91563 13.4476 1.80988L12.1232 1.23528C12.0005 1.18262 11.8685 1.15545 11.735 1.15541C11.4735 1.15541 11.2325 1.25497 11.0626 1.42822L10.9144 1.36241C10.7922 1.30843 10.6601 1.28065 10.5265 1.28085C10.3864 1.28085 10.2548 1.31431 10.1347 1.36831L8.54848 0.669408C7.99526 0.426408 7.30423 0.614002 6.99514 1.0851L0.726358 10.6619C0.417827 11.133 0.556764 11.7892 1.04417 12.1323L8.17104 17.1504C8.80189 17.5947 9.61442 17.5166 9.9747 16.967L17.2847 5.79941C17.6447 5.24985 17.3454 4.54391 16.6296 4.22863ZM9.71483 2.71016L10.1997 1.96963C10.2669 1.86669 10.3949 1.80819 10.5268 1.80819C10.5856 1.80819 10.6452 1.81972 10.7006 1.84447L11.2437 2.08522L11.4004 1.84616C11.4687 1.74238 11.5998 1.68275 11.7353 1.68275C11.7955 1.68275 11.8568 1.69428 11.9136 1.71903L13.238 2.29391C13.4315 2.37772 13.5069 2.57235 13.4062 2.7276L13.2448 2.97369L13.8318 3.23441C14.0295 3.32188 14.1074 3.521 14.0047 3.67878L13.4912 4.46235C13.4225 4.56753 13.2918 4.62603 13.154 4.62603C13.0853 4.62603 13.015 4.61113 12.9495 4.58103L9.85967 3.12978C9.68164 3.04625 9.61695 2.85894 9.71483 2.71016ZM8.84014 16.3176L1.49445 11.2953L7.95561 1.42569L9.47211 2.11813L9.27383 2.42131C9.21105 2.51625 9.16944 2.62358 9.15182 2.73603C9.13421 2.84847 9.141 2.96338 9.17173 3.07297C9.23698 3.30444 9.40601 3.49906 9.63523 3.60678L12.7248 5.05803C12.859 5.12069 13.0053 5.15314 13.1534 5.1531C13.4763 5.1531 13.7676 5.00263 13.9322 4.75035L14.2325 4.29163L16.142 5.1635L8.84014 16.3176Z" fill="#00635B"/>
<path d="M8.91175 5.44986L13.0453 7.56964L13.2759 7.21695L9.12859 5.11826L8.91175 5.44986ZM7.4965 5.19392C7.51309 5.24061 7.56287 5.25833 7.60871 5.23245L8.72809 4.60498C8.73869 4.59947 8.74789 4.5916 8.75497 4.58198C8.76206 4.57236 8.76684 4.56124 8.76896 4.54948C8.77108 4.53772 8.77047 4.52563 8.76719 4.51414C8.76391 4.50265 8.75804 4.49207 8.75003 4.4832L8.68871 4.41008C8.671 4.39003 8.64708 4.37649 8.62077 4.37165C8.59446 4.36681 8.56728 4.37093 8.54359 4.38336L7.77746 4.8148C7.73246 4.84067 7.68184 4.82351 7.66609 4.77655L7.53137 4.38448C7.51534 4.33864 7.45937 4.31023 7.4065 4.3212L7.30946 4.34117C7.25687 4.35186 7.22593 4.39883 7.24196 4.44467L7.4965 5.19392ZM7.64162 7.38936L11.6933 9.63486L11.9245 9.28217L7.85903 7.05748L7.64162 7.38936ZM7.56962 6.39233L6.35997 5.74095L5.66978 6.79564L6.86621 7.46755L7.56962 6.39233ZM6.37234 9.32886L10.3416 11.7001L10.5722 11.3465L6.5889 8.99726L6.37234 9.32886ZM6.31103 8.3158L5.12528 7.62617L4.43537 8.68086L5.60706 9.39129L6.31103 8.3158ZM5.10278 11.2681L8.98965 13.7645L9.22112 13.4118L5.31962 10.9368L5.10278 11.2681ZM3.20068 10.5669L4.34762 11.3142L5.05159 10.2387L3.89087 9.5128L3.20068 10.5669Z" fill="#00635B"/>
</svg>
