<svg width="24" height="24" viewBox="0 0 24 24" fill="none" xmlns="http://www.w3.org/2000/svg">
<g id="PMX Logo Icon">
<g id="Vector">
<path d="M12.7673 20.9992H13.1809C13.2288 18.6743 12.7875 16.8721 12.1621 15.4921C12.0638 15.6636 11.9823 15.8223 11.9167 15.9659C12.4496 17.2555 12.8111 18.9074 12.7673 20.9992Z" fill="#00625B"/>
<path d="M4.41649 3.00005H4.00125C4.15255 6.45245 5.57058 9.46654 7.94013 11.4528C8.08218 11.3954 8.22087 11.3304 8.35789 11.2611C5.99002 9.35591 4.57031 6.40009 4.41649 3.00005Z" fill="#00625B"/>
<path d="M5.28029 3H4.86505C5.00963 6.30123 6.3125 9.20215 8.49796 11.1859C8.62489 11.1158 8.74929 11.0415 8.87117 10.963C6.71513 9.0552 5.42655 6.2286 5.28029 3Z" fill="#00625B"/>
<path d="M13.6316 20.999H14.0452C14.1015 18.2358 13.4686 16.2106 12.6541 14.7563C12.5557 14.8847 12.4666 15.0097 12.3868 15.1305C13.1248 16.5172 13.6854 18.4241 13.6316 20.999Z" fill="#00625B"/>
<path d="M14.9103 20.9993C14.975 17.8399 14.1378 15.645 13.1585 14.1654C13.0568 14.2735 12.9618 14.3799 12.8736 14.4855C13.7881 15.906 14.5589 17.9995 14.4959 20.9993H14.9103Z" fill="#00625B"/>
<path d="M6.14558 3H5.73035C5.86736 6.12641 7.04247 8.89306 9.02283 10.8625C9.13799 10.7831 9.25147 10.7012 9.36158 10.615C7.43081 8.71993 6.2826 6.03689 6.14558 3Z" fill="#00625B"/>
<path d="M13.3659 13.9524C14.4326 15.3627 15.4328 17.5982 15.3606 20.9991H15.7741C15.8464 17.4631 14.7898 15.1347 13.6677 13.667C13.5617 13.7624 13.4609 13.8578 13.3659 13.9524Z" fill="#00625B"/>
<path d="M7.01042 3H6.59518C6.72379 5.93133 7.7644 8.54596 9.52538 10.485C9.63298 10.3971 9.73721 10.3068 9.83976 10.2139C8.14266 8.34918 7.13819 5.82829 7.01042 3Z" fill="#00625B"/>
<path d="M10.3124 9.75531C8.8532 7.94551 7.99247 5.60281 7.87479 3H7.45955C7.57891 5.71682 8.48251 8.16255 10.0174 10.0492C10.1183 9.95293 10.2166 9.85496 10.3124 9.75531Z" fill="#00625B"/>
<path d="M16.2258 20.9994H16.6393C16.7192 17.0944 15.423 14.663 14.1824 13.2358C14.0706 13.3236 13.9638 13.4106 13.8621 13.4976C15.0532 14.8632 16.3056 17.2084 16.2258 20.9994Z" fill="#00625B"/>
<path d="M14.3559 13.1013C15.6411 14.3884 17.1768 16.8121 17.0894 20.9993H17.503C17.5904 16.7327 16.0345 14.2237 14.703 12.8649C14.5744 12.9468 14.4559 13.027 14.3559 13.1013Z" fill="#00625B"/>
<path d="M8.73869 3H8.32345C8.43272 5.48458 9.19763 7.74198 10.5013 9.55347C10.598 9.4479 10.6922 9.3415 10.7829 9.23424C9.56244 7.50551 8.84544 5.35959 8.73869 3Z" fill="#00625B"/>
<path d="M17.9538 20.9992H18.3674C18.4624 16.3703 16.6241 13.8106 15.2346 12.543C15.1052 12.6181 14.9799 12.6925 14.8622 12.7651C16.1987 13.944 18.0497 16.4143 17.953 21L17.9538 20.9992Z" fill="#00625B"/>
<path d="M9.60352 3H9.18828C9.28663 5.23291 9.91453 7.28171 10.9863 8.98849C11.0804 8.87194 11.1712 8.7554 11.2577 8.64054C10.2751 7.02413 9.69766 5.09694 9.60352 3Z" fill="#00625B"/>
<path d="M18.8185 20.9993H19.2321C19.3346 15.9761 17.1609 13.3885 15.7555 12.2459C15.6244 12.3193 15.4941 12.3937 15.3672 12.4663C16.6995 13.4991 18.9236 15.9837 18.8185 20.9993Z" fill="#00625B"/>
<path d="M10.0522 3C10.1379 4.95844 10.6313 6.77585 11.4753 8.34496C11.5694 8.21322 11.6585 8.08401 11.7426 7.95986C10.9911 6.49293 10.5498 4.80981 10.4683 3H10.0522Z" fill="#00625B"/>
<path d="M11.3327 3H10.9175C10.9898 4.65695 11.3554 6.21255 11.9766 7.60263C12.0758 7.44639 12.1649 7.30114 12.2422 7.17108C11.7135 5.90008 11.4008 4.49311 11.3327 3Z" fill="#00625B"/>
<path d="M16.254 11.9656C16.1221 12.0407 15.9876 12.1159 15.8531 12.1919C17.0811 13.0136 19.8004 15.4661 19.6835 20.9994H20.0971C20.2097 15.5117 17.6048 12.9309 16.254 11.9656Z" fill="#00625B"/>
<path d="M4.4167 20.9992C4.28305 15.4077 7.43769 12.962 8.8036 12.1681C12.1297 10.2375 14.1437 6.89746 14.3362 3.00001H13.9226C13.7301 6.74545 11.7935 9.95378 8.59683 11.8092C4.33349 14.2845 3.9586 19.0172 4.00315 20.9992H4.4167Z" fill="#00625B"/>
<path d="M5.85847 20.9992C5.72482 15.4077 8.87945 12.962 10.2454 12.1681C13.5715 10.2375 15.5846 6.89746 15.778 3.00001H15.3644C15.1719 6.74545 13.2352 9.95378 10.0386 11.8092C5.77525 14.2845 5.39952 19.0172 5.44407 20.9992H5.85847Z" fill="#00625B"/>
<path d="M7.29901 20.9992C7.16536 15.4077 10.32 12.962 11.6859 12.1681C15.0129 10.2375 17.026 6.89746 17.2193 3.00001H16.8058C16.6133 6.74545 14.6766 9.95378 11.48 11.8092C7.21664 14.2845 6.84091 19.0172 6.88546 20.9992H7.29901Z" fill="#00625B"/>
<path d="M8.7404 20.9992C8.60675 15.4077 11.7614 12.962 13.1273 12.1681C16.4543 10.2375 18.4674 6.89746 18.6607 3.00001H18.2472C18.0547 6.74545 16.118 9.95378 12.9214 11.8092C8.65803 14.2845 8.28229 19.0172 8.32684 20.9992H8.7404Z" fill="#00625B"/>
<path d="M10.1823 20.9992C10.0486 15.4077 13.2032 12.962 14.5692 12.1681C17.8961 10.2375 19.9093 6.89746 20.1026 3.00001H19.689C19.4965 6.74545 17.5599 9.95378 14.3632 11.8092C10.0999 14.2845 9.72415 19.0172 9.7687 20.9992H10.1823Z" fill="#00625B"/>
</g>
</g>
</svg>
