<svg width="35" height="80" viewBox="0 0 35 80" fill="none" xmlns="http://www.w3.org/2000/svg">
<g id="Group 1840">
<path id="Vector" d="M32.7948 0H34.6953C34.0028 15.3439 27.5125 28.7397 16.6672 37.5677C16.017 37.3125 15.3822 37.0235 14.7551 36.7157C25.5928 28.2481 32.0907 15.1112 32.7948 0Z" fill="url(#paint0_linear_1015_8858)"/>
<path id="Vector_2" d="M28.8397 0H30.7402C30.0785 14.672 24.1153 27.5649 14.1125 36.3817C13.5316 36.0701 12.9622 35.7398 12.4043 35.3908C22.2725 26.9118 28.1703 14.3492 28.8397 0Z" fill="url(#paint1_linear_1015_8858)"/>
<path id="Vector_3" d="M24.8807 0H26.7812C26.1542 13.8951 20.7757 26.1912 11.7116 34.9441C11.1846 34.5913 10.6652 34.2272 10.1612 33.8444C18.9983 25.4217 24.2536 13.4972 24.8807 0Z" fill="url(#paint2_linear_1015_8858)"/>
<path id="Vector_4" d="M20.9217 0H22.8223C22.2336 13.028 17.4708 24.6485 9.41082 33.2663C8.91838 32.876 8.44132 32.4744 7.97195 32.0615C15.7395 23.774 20.337 12.5701 20.9217 0Z" fill="url(#paint3_linear_1015_8858)"/>
<path id="Vector_5" d="M5.80969 30.0234C12.4885 21.9799 16.428 11.568 16.9667 0H18.8672C18.3209 12.0747 14.1851 22.9445 7.16007 31.3296C6.6984 30.9017 6.24827 30.4663 5.80969 30.0234Z" fill="url(#paint4_linear_1015_8858)"/>
<path id="Vector_6" d="M13.0116 0H14.9121C14.412 11.0425 10.911 21.0753 4.94393 29.1263C4.5015 28.6572 4.07061 28.1842 3.65511 27.7076C9.24129 20.0244 12.523 10.487 13.0116 0Z" fill="url(#paint5_linear_1015_8858)"/>
<path id="Vector_7" d="M9.05259 0H10.9531C10.503 9.92398 7.62912 19.0297 2.7239 26.6153C2.29301 26.0974 1.87751 25.5794 1.48124 25.0689C5.97866 17.8849 8.6217 9.31968 9.05259 0Z" fill="url(#paint6_linear_1015_8858)"/>
<path id="Vector_8" d="M5.09752 0H6.99805C6.60563 8.70412 4.34731 16.7814 0.484686 23.7552C0.0537958 23.1697 -0.354011 22.5954 -0.738734 22.0437C2.70069 15.524 4.72049 8.04353 5.09367 0H5.09752Z" fill="url(#paint7_linear_1015_8858)"/>
<path id="Vector_9" d="M1.14049 0H3.04102C2.71015 7.36416 1.03661 14.2779 -1.80649 20.456C-2.26047 19.7616 -2.66827 19.116 -3.02222 18.538C-0.602309 12.8892 0.82886 6.636 1.14049 0Z" fill="url(#paint8_linear_1015_8858)"/>
<g id="Group">
<path id="Vector_10" d="M32.7939 79.9961C33.4056 55.1449 18.967 44.2751 12.7152 40.7469C-2.50827 32.1666 -11.7262 17.3219 -12.6072 0H-10.7144C-9.83339 16.6463 -0.969372 30.9055 13.6616 39.1517C33.1748 50.1529 34.8907 71.1869 34.6868 79.9961H32.7939Z" fill="url(#paint9_linear_1015_8858)"/>
<path id="Vector_11" d="M26.1963 79.9961C26.8081 55.1449 12.3694 44.2751 6.11764 40.7469C-9.10585 32.1666 -18.32 17.3219 -19.2048 0H-17.312C-16.431 16.6463 -7.56695 30.9055 7.06406 39.1517C26.5772 50.1529 28.2969 71.1869 28.093 79.9961H26.2002H26.1963Z" fill="url(#paint10_linear_1015_8858)"/>
<path id="Vector_12" d="M19.6006 79.9961C20.2123 55.1449 5.77363 44.2751 -0.478117 40.7469C-15.7055 32.1666 -24.9196 17.3219 -25.8044 0H-23.9116C-23.0306 16.6463 -14.1666 30.9055 0.464457 39.1517C19.9776 50.1529 21.6973 71.1869 21.4934 79.9961H19.6006Z" fill="url(#paint11_linear_1015_8858)"/>
<path id="Vector_13" d="M13.0049 79.9961C13.6166 55.1449 -0.822068 44.2751 -7.07382 40.7469C-22.3012 32.1666 -31.5153 17.3219 -32.4001 0H-30.5073C-29.6263 16.6463 -20.7623 30.9055 -6.13125 39.1517C13.3819 50.1529 15.1016 71.1869 14.8977 79.9961H13.0049Z" fill="url(#paint12_linear_1015_8858)"/>
<path id="Vector_14" d="M6.40527 79.9961C7.01697 55.1449 -7.42168 44.2751 -13.6734 40.7469C-28.9008 32.1666 -38.1149 17.3219 -38.9997 0H-37.1069C-36.2259 16.6463 -27.3619 30.9055 -12.7309 39.1517C6.78229 50.1529 8.50201 71.1869 8.2981 79.9961H6.40527Z" fill="url(#paint13_linear_1015_8858)"/>
</g>
</g>
<defs>
<linearGradient id="paint0_linear_1015_8858" x1="24.7252" y1="0" x2="24.7252" y2="37.5677" gradientUnits="userSpaceOnUse">
<stop stop-color="#003E39"/>
<stop offset="1" stop-color="#DDDDDD" stop-opacity="0"/>
</linearGradient>
<linearGradient id="paint1_linear_1015_8858" x1="21.5723" y1="0" x2="21.5723" y2="36.3817" gradientUnits="userSpaceOnUse">
<stop stop-color="#003E39"/>
<stop offset="1" stop-color="#DDDDDD" stop-opacity="0"/>
</linearGradient>
<linearGradient id="paint2_linear_1015_8858" x1="18.4712" y1="0" x2="18.4712" y2="34.9441" gradientUnits="userSpaceOnUse">
<stop stop-color="#003E39"/>
<stop offset="1" stop-color="#DDDDDD" stop-opacity="0"/>
</linearGradient>
<linearGradient id="paint3_linear_1015_8858" x1="15.3971" y1="0" x2="15.3971" y2="33.2663" gradientUnits="userSpaceOnUse">
<stop stop-color="#003E39"/>
<stop offset="1" stop-color="#DDDDDD" stop-opacity="0"/>
</linearGradient>
<linearGradient id="paint4_linear_1015_8858" x1="12.3384" y1="0" x2="12.3384" y2="31.3296" gradientUnits="userSpaceOnUse">
<stop stop-color="#003E39"/>
<stop offset="1" stop-color="#DDDDDD" stop-opacity="0"/>
</linearGradient>
<linearGradient id="paint5_linear_1015_8858" x1="9.28361" y1="0" x2="9.28361" y2="29.1263" gradientUnits="userSpaceOnUse">
<stop stop-color="#003E39"/>
<stop offset="1" stop-color="#DDDDDD" stop-opacity="0"/>
</linearGradient>
<linearGradient id="paint6_linear_1015_8858" x1="6.21718" y1="0" x2="6.21718" y2="26.6153" gradientUnits="userSpaceOnUse">
<stop stop-color="#003E39"/>
<stop offset="1" stop-color="#DDDDDD" stop-opacity="0"/>
</linearGradient>
<linearGradient id="paint7_linear_1015_8858" x1="3.12966" y1="0" x2="3.12966" y2="23.7552" gradientUnits="userSpaceOnUse">
<stop stop-color="#003E39"/>
<stop offset="1" stop-color="#DDDDDD" stop-opacity="0"/>
</linearGradient>
<linearGradient id="paint8_linear_1015_8858" x1="0.00939918" y1="0" x2="0.00939918" y2="20.456" gradientUnits="userSpaceOnUse">
<stop stop-color="#003E39"/>
<stop offset="1" stop-color="#DDDDDD" stop-opacity="0"/>
</linearGradient>
<linearGradient id="paint9_linear_1015_8858" x1="11.047" y1="0" x2="11.047" y2="79.9961" gradientUnits="userSpaceOnUse">
<stop stop-color="#003E39"/>
<stop offset="1" stop-color="#DDDDDD" stop-opacity="0"/>
</linearGradient>
<linearGradient id="paint10_linear_1015_8858" x1="4.4513" y1="0" x2="4.4513" y2="79.9961" gradientUnits="userSpaceOnUse">
<stop stop-color="#003E39"/>
<stop offset="1" stop-color="#DDDDDD" stop-opacity="0"/>
</linearGradient>
<linearGradient id="paint11_linear_1015_8858" x1="-2.14831" y1="0" x2="-2.14831" y2="79.9961" gradientUnits="userSpaceOnUse">
<stop stop-color="#003E39"/>
<stop offset="1" stop-color="#DDDDDD" stop-opacity="0"/>
</linearGradient>
<linearGradient id="paint12_linear_1015_8858" x1="-8.74401" y1="0" x2="-8.74401" y2="79.9961" gradientUnits="userSpaceOnUse">
<stop stop-color="#003E39"/>
<stop offset="1" stop-color="#DDDDDD" stop-opacity="0"/>
</linearGradient>
<linearGradient id="paint13_linear_1015_8858" x1="-15.3436" y1="0" x2="-15.3436" y2="79.9961" gradientUnits="userSpaceOnUse">
<stop stop-color="#003E39"/>
<stop offset="1" stop-color="#DDDDDD" stop-opacity="0"/>
</linearGradient>
</defs>
</svg>
