<svg width="81" height="36" viewBox="0 0 81 36" fill="none" xmlns="http://www.w3.org/2000/svg">
<path d="M25.9857 23.3579V22.0404H25.979V11.9845C25.9656 11.7518 25.9958 11.5229 26.0229 11.2935C26.0498 11.0713 26.0937 10.8487 26.1544 10.6331C26.1983 10.4712 26.2318 10.3029 26.2858 10.141C26.6465 9.06248 27.2563 8.14929 28.1055 7.39432C28.6378 6.9193 29.2446 6.56526 29.905 6.29574C30.2084 6.17102 30.5252 6.08019 30.8488 6.00946C31.4351 5.88474 32.0248 5.84082 32.6215 5.88474C33.2213 5.93202 33.8042 6.05673 34.3671 6.27228C34.6233 6.37019 34.8693 6.48448 35.1087 6.62259C35.2907 6.7272 35.4761 6.83144 35.6511 6.94945C36.1768 7.30311 36.6317 7.73793 37.0226 8.23678C37.4708 8.80636 37.811 9.43327 38.0404 10.1205C38.2626 10.791 38.3605 11.4786 38.3605 12.1862V22.04H38.3572V23.3575H39.9948V22.7912C39.9982 22.7611 39.9948 22.7138 39.9948 22.6364V12.1963C39.9948 11.8761 40.0049 11.5593 40.0488 11.2425C40.15 10.4976 40.389 9.79698 40.7431 9.13284C41.0294 8.59714 41.3901 8.11839 41.8182 7.6873C42.017 7.48515 42.2359 7.30311 42.4585 7.13112C42.7247 6.92227 43.0114 6.74023 43.3144 6.58164C43.5873 6.44018 43.8739 6.32552 44.1635 6.21756C44.595 6.05934 45.0399 5.96478 45.4948 5.91415C45.879 5.87022 46.2665 5.86352 46.6541 5.8907C47.2236 5.93128 47.7761 6.05934 48.3122 6.24808C48.8617 6.44353 49.3601 6.72646 49.8322 7.06709C50.4624 7.52201 50.9747 8.08154 51.3924 8.72855C51.561 8.99138 51.7092 9.26426 51.8373 9.55091C52.1034 10.1439 52.2687 10.7642 52.3395 11.4112C52.38 11.7648 52.38 12.1222 52.38 12.4796V22.0437V23.3612H54.011V22.0437V12.2101C54.011 11.8765 53.9976 11.5463 53.9603 11.2161C53.8457 10.2016 53.5493 9.24453 53.0672 8.34809C52.7843 7.82244 52.4403 7.33699 52.0461 6.88542C51.8272 6.63599 51.5912 6.39997 51.3451 6.17437C51.1664 6.00573 50.9643 5.86427 50.7655 5.71945C50.3813 5.43652 49.9703 5.2005 49.5489 4.98495C49.3266 4.87029 49.0873 4.77946 48.8479 4.69495C48.339 4.51961 47.8267 4.3748 47.291 4.30071C46.7754 4.22998 46.2598 4.19945 45.7409 4.23333C45.2353 4.26349 44.7365 4.34129 44.2481 4.46935C43.709 4.60747 43.1967 4.80961 42.6979 5.05234C42.5092 5.14317 42.3238 5.24778 42.1451 5.36244C41.4914 5.77343 40.895 6.25218 40.3827 6.83181C40.2279 7.00715 40.076 7.1892 39.9345 7.37757C39.6817 7.71783 39.4561 8.07186 39.2607 8.44935C39.2406 8.48993 39.2268 8.56066 39.1799 8.56066C39.1259 8.56066 39.1159 8.48657 39.0924 8.44265C38.9305 8.13924 38.7589 7.84626 38.5601 7.56631C38.2399 7.11139 37.8758 6.69333 37.4682 6.31621C37.3029 6.16469 37.138 6.00946 36.9626 5.87134C36.8044 5.74998 36.6391 5.63532 36.4705 5.52438C36.0528 5.24815 35.6113 5.01548 35.1563 4.81669C34.8429 4.67857 34.5127 4.57731 34.1825 4.48648C33.3266 4.25381 32.4536 4.17302 31.5706 4.24375C30.8763 4.29773 30.2025 4.43585 29.5488 4.67857C28.9018 4.9213 28.2849 5.22098 27.7224 5.62564C27.062 6.10066 26.4689 6.64679 25.9734 7.29716C25.5926 7.80271 25.2657 8.34176 25.013 8.92139C24.7568 9.50437 24.5714 10.1075 24.4672 10.7377C24.4166 11.0378 24.3864 11.3408 24.3626 11.6409C24.3459 11.8363 24.3391 12.0351 24.3391 12.2305C24.3324 15.5028 24.3358 18.7751 24.3358 22.0437V23.3612H25.9939L25.9872 23.3579H25.9857Z" fill="#03665F"/>
<path d="M20.6303 11.4894C20.6068 11.1491 20.5596 10.8085 20.4888 10.4749C20.3269 9.7166 20.0674 8.99885 19.697 8.31796C19.4576 7.87979 19.1814 7.46545 18.8646 7.07791C18.5884 6.74435 18.285 6.4376 17.9615 6.14797C17.702 5.91865 17.4257 5.7098 17.1424 5.51101C16.8595 5.31556 16.5561 5.15734 16.2494 5.00546C15.609 4.692 14.9386 4.46305 14.2376 4.33834C13.604 4.22368 12.9704 4.18347 12.3267 4.23038C11.9425 4.25718 11.565 4.30781 11.1875 4.3886C10.7427 4.4865 10.3078 4.61084 9.89015 4.78954C9.45534 4.97493 9.03764 5.18713 8.6434 5.4466C8.46471 5.56461 8.28267 5.67927 8.11105 5.81069C7.94241 5.9421 7.78084 6.08692 7.62225 6.22838C7.0899 6.7101 6.6212 7.25288 6.24074 7.86267C6.00137 8.24351 5.79252 8.64445 5.61718 9.05916C5.20284 10.0531 5.01074 11.0948 5.01074 12.1695V22.0333V23.3679H6.64168V12.1729C6.64168 11.8594 6.65843 11.5493 6.70236 11.2392C6.88105 9.96863 7.40671 8.85664 8.25922 7.89952C8.77817 7.31654 9.39838 6.86162 10.0923 6.50759C10.5033 6.29539 10.9348 6.14015 11.3863 6.03591C11.9559 5.9045 12.5288 5.84047 13.1152 5.87062C13.5801 5.89408 14.0384 5.96146 14.4866 6.08617C14.7696 6.1636 15.0462 6.26821 15.3157 6.38622C15.7166 6.56157 16.0941 6.77376 16.4515 7.02989C16.8018 7.27931 17.1119 7.57564 17.4053 7.8891C17.6007 8.09795 17.7761 8.32057 17.9376 8.55287C18.4666 9.31789 18.7968 10.1637 18.9554 11.0769C19.0094 11.387 19.0295 11.7005 19.0396 12.0139C19.0429 12.1219 19.0329 12.2295 19.0295 12.3341C19.0295 12.4755 19.0094 12.617 18.9994 12.7588C18.9826 12.9643 18.9353 13.1598 18.8981 13.3619C18.8408 13.6754 18.7533 13.9754 18.6453 14.2718C18.3691 15.0096 17.9749 15.6771 17.4421 16.2601C17.2534 16.4656 17.0546 16.6644 16.8457 16.8498C16.3335 17.3013 15.7505 17.6349 15.1202 17.891C14.5473 18.127 13.9442 18.2585 13.3274 18.3054C13.2295 18.3121 13.1286 18.3188 13.0307 18.3221H9.52235V19.9769H13.0307C13.1721 19.9769 13.3102 19.9668 13.4484 19.9568C14.136 19.9028 14.8031 19.7647 15.4501 19.5253C16.1444 19.2692 16.7981 18.939 17.3978 18.4975C17.836 18.1739 18.2436 17.8132 18.6111 17.4123C18.773 17.2336 18.9279 17.0482 19.0727 16.8527C19.5715 16.1789 19.9624 15.4508 20.2353 14.6589C20.5149 13.8399 20.6463 12.9975 20.6668 12.1315C20.6701 11.916 20.6534 11.7034 20.6366 11.4879H20.6299L20.6303 11.4894Z" fill="#03665F"/>
<path d="M18.1415 28.4636V27.4543C18.2022 27.4402 18.2607 27.4238 18.3202 27.4127C18.5265 27.3747 18.7327 27.3386 18.9393 27.3021C19.0424 27.2838 19.1455 27.2652 19.249 27.2496C19.3134 27.2399 19.379 27.2347 19.4437 27.2276C19.5569 27.2157 19.6705 27.2038 19.7836 27.1934C19.8365 27.1885 19.8897 27.1863 19.943 27.1833C20.0628 27.1766 20.1831 27.1725 20.3026 27.164C20.4775 27.1509 20.6521 27.1647 20.8264 27.1763C20.9868 27.1871 21.1462 27.2109 21.3047 27.2399C21.4265 27.2626 21.5411 27.3077 21.658 27.3445C21.8248 27.397 21.9901 27.4529 22.1561 27.5083C22.1848 27.518 22.2131 27.5299 22.2392 27.5448C22.4417 27.6624 22.6103 27.8192 22.754 28.0027C22.8381 28.1103 22.8813 28.2372 22.9096 28.369C22.932 28.4736 22.9409 28.5794 22.9409 28.6862C22.9409 29.6065 22.9409 30.5267 22.9409 31.4466V31.501C22.9253 31.5028 22.9122 31.5058 22.8996 31.5058C22.5254 31.5058 22.1513 31.5058 21.7772 31.5058C21.7667 31.5058 21.7563 31.504 21.7392 31.5025C21.7355 31.374 21.7403 31.246 21.7362 31.1108C21.7139 31.1205 21.6986 31.1261 21.6845 31.1332C21.6018 31.1752 21.5192 31.2169 21.4373 31.2605C21.3006 31.3335 21.1521 31.3725 21.0054 31.4176C20.9328 31.4399 20.8606 31.4649 20.7873 31.4831C20.708 31.5028 20.6272 31.5177 20.5464 31.533C20.4418 31.5527 20.3372 31.5725 20.2322 31.5881C20.1559 31.5996 20.0785 31.606 20.0014 31.6112C19.8529 31.6212 19.704 31.6328 19.5551 31.6365C19.4627 31.6387 19.3697 31.6316 19.2773 31.6223C19.1489 31.6093 19.0201 31.5948 18.8931 31.5717C18.8206 31.5587 18.7513 31.5278 18.6809 31.5036C18.5644 31.4638 18.4483 31.4232 18.3321 31.3822C18.3135 31.3755 18.2953 31.3677 18.2789 31.3569C17.9941 31.1741 17.8162 30.9173 17.7529 30.5844C17.7249 30.4366 17.7313 30.2874 17.7544 30.1392C17.7804 29.9724 17.8422 29.8202 17.9498 29.6884C18.0436 29.5733 18.1534 29.4754 18.2785 29.3954C18.3995 29.3176 18.5294 29.258 18.6668 29.2174C18.8972 29.1497 19.1281 29.0845 19.36 29.0224C19.5997 28.958 19.8439 28.9166 20.0904 28.8887C20.3621 28.8582 20.6339 28.8266 20.9064 28.8001C21.094 28.7819 21.2824 28.7718 21.47 28.7584C21.549 28.7528 21.6279 28.7487 21.7068 28.7435C21.7157 28.7428 21.7243 28.7398 21.7377 28.7368C21.7377 28.7044 21.7425 28.6721 21.7366 28.6415C21.7236 28.5749 21.7128 28.5068 21.6673 28.4509C21.6491 28.4286 21.6327 28.4044 21.6189 28.3791C21.588 28.3221 21.5411 28.2845 21.4853 28.2536C21.3669 28.1885 21.2426 28.1427 21.1104 28.1151C20.8818 28.0675 20.6514 28.0392 20.418 28.0418C20.2918 28.0433 20.166 28.0518 20.0398 28.0585C19.9288 28.0645 19.8175 28.0664 19.7077 28.0813C19.5197 28.1069 19.3321 28.1382 19.1452 28.1728C19.0301 28.1944 18.9177 28.2283 18.8038 28.2544C18.6017 28.3002 18.407 28.3698 18.2111 28.4349C18.1899 28.442 18.1691 28.4509 18.1415 28.4617V28.4636ZM21.7708 29.5946C21.7526 29.5938 21.744 29.5923 21.7351 29.5927C21.4574 29.6068 21.1793 29.6202 20.9016 29.6359C20.7847 29.6426 20.6678 29.6508 20.5516 29.6638C20.3856 29.682 20.2199 29.7051 20.0539 29.7267C19.9649 29.7383 19.8752 29.7468 19.7877 29.7654C19.6749 29.7889 19.5636 29.8205 19.4519 29.8496C19.4006 29.863 19.3484 29.8753 19.2993 29.8954C19.175 29.9464 19.0599 30.0134 18.9587 30.1035C18.9445 30.1161 18.9341 30.1284 18.9307 30.1481C18.9248 30.1854 18.9144 30.2222 18.9073 30.2594C18.8917 30.3451 18.8857 30.4288 18.9587 30.4958C18.971 30.507 18.9788 30.5226 18.9899 30.5349C18.9989 30.545 19.0086 30.5558 19.0205 30.5617C19.1258 30.6135 19.2338 30.6619 19.3484 30.6842C19.4627 30.7062 19.5792 30.7229 19.6969 30.7203C19.8276 30.7177 19.9586 30.7188 20.0889 30.7125C20.1812 30.708 20.2754 30.7024 20.3647 30.6812C20.5892 30.6284 20.8145 30.5785 21.0348 30.5074C21.2325 30.4437 21.4228 30.367 21.607 30.2728C21.6279 30.262 21.6402 30.2479 21.6439 30.2248C21.6457 30.2129 21.6495 30.201 21.6517 30.1891C21.6807 30.0446 21.7098 29.9002 21.7388 29.7558C21.7492 29.704 21.7585 29.6519 21.7697 29.5946H21.7708Z" fill="#03665F"/>
<path d="M16.9469 29.8879H12.6456C12.6508 29.9114 12.6527 29.9288 12.6583 29.9449C12.6996 30.0677 12.7618 30.1779 12.8567 30.268C12.8954 30.3048 12.9349 30.3406 12.9702 30.3804C13.0249 30.4418 13.0931 30.4828 13.1653 30.5193C13.3626 30.6194 13.5688 30.6961 13.7792 30.7627C13.8931 30.7989 14.0115 30.8089 14.1299 30.8164C14.3532 30.8305 14.5766 30.8242 14.7996 30.8078C14.918 30.7992 15.0364 30.7959 15.1547 30.7873C15.2106 30.7832 15.2664 30.7735 15.3215 30.7642C15.4563 30.7412 15.5918 30.7203 15.7254 30.692C15.8144 30.673 15.9023 30.6462 15.9883 30.6172C16.145 30.5639 16.3002 30.507 16.4558 30.4504C16.4856 30.4396 16.5128 30.4221 16.5411 30.408C16.5519 30.4396 16.5567 31.2084 16.5463 31.3178C16.4849 31.3334 16.422 31.3498 16.359 31.3655C16.0962 31.4299 15.8334 31.4935 15.5706 31.5583C15.4462 31.5892 15.3193 31.6041 15.1923 31.6153C14.9131 31.6391 14.6336 31.645 14.3536 31.6395C13.9478 31.6313 13.5476 31.5788 13.1549 31.4742C12.8489 31.3926 12.557 31.2787 12.2927 31.1011C11.9245 30.8532 11.6769 30.5148 11.5403 30.0945C11.4513 29.8205 11.4298 29.5387 11.4487 29.2521C11.4763 28.8385 11.6397 28.4814 11.8903 28.1576C12.1334 27.8434 12.4442 27.6185 12.8027 27.4555C12.9051 27.4089 13.0086 27.3639 13.115 27.3289C13.2185 27.2946 13.3257 27.2708 13.4322 27.2481C13.5301 27.2272 13.6295 27.2124 13.7285 27.1971C13.7915 27.1874 13.8551 27.18 13.9188 27.1759C14.1098 27.1636 14.3011 27.1498 14.4928 27.1662C14.6168 27.1766 14.7408 27.1889 14.8644 27.2053C15.0743 27.2328 15.2776 27.2898 15.4775 27.3587C15.6581 27.4208 15.8248 27.5109 15.9853 27.614C16.311 27.8233 16.543 28.111 16.7101 28.4569C16.8356 28.716 16.907 28.9885 16.9361 29.274C16.9558 29.4698 16.9502 29.666 16.9513 29.8618C16.9513 29.8678 16.9495 29.8738 16.9469 29.8875V29.8879ZM12.6441 28.971C12.6523 28.9736 12.6568 28.9762 12.6609 28.9762C13.6824 28.9766 14.7039 28.9769 15.7258 28.9773C15.7377 28.9773 15.75 28.9755 15.7619 28.9743C15.7634 28.9743 15.7645 28.9728 15.7656 28.9717C15.7668 28.9706 15.7675 28.9695 15.772 28.965C15.7686 28.9382 15.7638 28.9088 15.7612 28.8787C15.7556 28.8105 15.7381 28.748 15.6938 28.6936C15.6737 28.6691 15.6566 28.6415 15.6406 28.614C15.5501 28.4584 15.4097 28.3571 15.2575 28.273C15.1823 28.2313 15.0989 28.2037 15.0185 28.1725C14.9805 28.1576 14.9407 28.1449 14.9005 28.1389C14.7277 28.1129 14.5546 28.0898 14.3815 28.0656C14.3305 28.0585 14.2791 28.0477 14.2278 28.0463C14.0677 28.0418 13.9087 28.0548 13.752 28.0872C13.5633 28.1259 13.3875 28.2026 13.2141 28.2841C13.172 28.3039 13.1329 28.3322 13.0961 28.3612C13.0447 28.4014 12.9981 28.4483 12.946 28.4874C12.8678 28.5458 12.8075 28.6184 12.7588 28.7018C12.7275 28.7554 12.6947 28.8087 12.6664 28.8641C12.6501 28.8962 12.6374 28.9308 12.6445 28.9714L12.6441 28.971Z" fill="#03665F"/>
<path d="M38.8363 27.2659H40.0008V31.533C39.9639 31.543 38.881 31.5441 38.8326 31.533C38.8326 31.4179 38.8322 31.3014 38.8322 31.1849C38.8322 31.0661 38.8322 30.9477 38.8322 30.829V29.7691C38.8184 29.7661 38.8084 29.7628 38.7987 29.7617C38.7883 29.7605 38.7775 29.7613 38.7667 29.7613C37.8099 29.7613 36.8536 29.7613 35.8968 29.7613C35.8775 29.7613 35.8581 29.7613 35.8339 29.7613C35.8324 29.7903 35.8298 29.8142 35.8298 29.8376C35.8298 30.0018 35.8298 30.1663 35.8298 30.3305C35.8298 30.7125 35.8298 31.094 35.8298 31.476C35.8298 31.4968 35.8276 31.5173 35.8261 31.5404H34.6694C34.6594 31.5069 34.6564 27.3288 34.6661 27.2711C34.7007 27.2607 35.7732 27.2589 35.8265 27.27C35.8276 27.289 35.8302 27.3099 35.8302 27.3303C35.8302 27.7942 35.8302 28.258 35.8302 28.7223C35.8302 28.7494 35.832 28.7763 35.8328 28.8019C35.8722 28.812 38.7823 28.8135 38.8329 28.8038C38.8341 28.7844 38.8367 28.7636 38.8367 28.7431C38.8367 28.2729 38.8367 27.8031 38.8367 27.3329V27.2659H38.8363Z" fill="#03665F"/>
<path d="M9.18187 28.8053C9.18299 28.7803 9.18522 28.758 9.18522 28.7353C9.18522 28.267 9.18522 27.7983 9.18522 27.33C9.18522 27.3091 9.18746 27.2883 9.1882 27.2689C9.2325 27.2581 10.3088 27.2577 10.3508 27.2685V31.5307C10.3147 31.5411 9.23734 31.5426 9.1882 31.5318C9.18709 31.5125 9.18485 31.4916 9.18485 31.4711C9.18485 30.9265 9.18485 30.3822 9.18485 29.8376C9.18485 29.8138 9.18299 29.7896 9.18187 29.7624H6.18283C6.1765 29.8629 6.18059 29.9612 6.17985 30.0595C6.1791 30.1566 6.17985 30.2542 6.17985 30.3513V31.2366C6.17985 31.3353 6.17985 31.4339 6.17985 31.5303C6.14336 31.5426 5.07977 31.5463 5.01909 31.5359C5.00979 31.5032 5.00718 27.3199 5.01686 27.2685C5.0526 27.2577 6.12698 27.2566 6.1765 27.2685C6.17761 27.2879 6.17985 27.3084 6.17985 27.3292C6.17985 27.7946 6.17985 28.2599 6.17985 28.7252C6.17985 28.7506 6.18171 28.7762 6.18283 28.8045H9.18113L9.18187 28.8053Z" fill="#03665F"/>
<path d="M31.9941 31.5056H30.8292C30.8281 31.4807 30.8266 31.4584 30.8266 31.436C30.8266 30.3743 30.8266 29.3129 30.8266 28.2512C30.8266 28.2274 30.8244 28.2039 30.8233 28.176H28.9868C28.9746 28.1406 28.9701 27.347 28.9801 27.2714C28.9813 27.2703 28.982 27.2688 28.9831 27.268C28.9842 27.2669 28.9857 27.2658 28.9868 27.2658C28.9988 27.2643 29.011 27.2625 29.023 27.2625C30.6241 27.2625 32.2256 27.2632 33.8268 27.2636C33.8309 27.2636 33.8354 27.2662 33.8395 27.2673C33.8491 27.3019 33.851 28.1209 33.8402 28.1749H33.7795C33.2092 28.1749 32.6389 28.1749 32.0685 28.1749C31.9878 28.1749 31.9945 28.1697 31.9945 28.2486C31.9945 29.3118 31.9945 30.3747 31.9945 31.4379V31.5053L31.9941 31.5056Z" fill="#03665F"/>
<path d="M28.6258 30.5597V31.5042C28.6075 31.5053 28.5915 31.5075 28.5755 31.5075C27.7483 31.5075 26.9211 31.5083 26.0939 31.5068C25.8199 31.5064 25.5467 31.4863 25.2768 31.4401C25.1182 31.4129 24.9652 31.3578 24.8252 31.2748C24.7876 31.2525 24.7537 31.2238 24.7184 31.1974C24.7076 31.1892 24.6979 31.1788 24.6867 31.1717C24.5501 31.0865 24.4626 30.961 24.3922 30.8199C24.3587 30.7525 24.3524 30.6799 24.3405 30.6085C24.3156 30.4599 24.2917 30.3114 24.2683 30.1628C24.2642 30.1375 24.2627 30.1115 24.2627 30.0858C24.2627 29.1659 24.2627 28.2456 24.2627 27.3257V27.2665C24.2828 27.2647 24.2988 27.2625 24.3148 27.2625C24.6707 27.2625 25.0266 27.2625 25.3821 27.2625C25.397 27.2625 25.4115 27.2647 25.4313 27.2662V27.3324C25.4313 28.0882 25.4313 28.8439 25.4309 29.6C25.4309 29.7038 25.4417 29.8062 25.4543 29.909C25.4607 29.96 25.464 30.0124 25.4793 30.0608C25.5106 30.1595 25.5545 30.2533 25.6185 30.336C25.645 30.3698 25.6744 30.4 25.7142 30.4186C25.7291 30.4257 25.7436 30.4346 25.757 30.4443C25.8255 30.4945 25.9059 30.5091 25.9867 30.5247C26.1565 30.5575 26.3277 30.5612 26.4997 30.5608C27.1854 30.5601 27.8712 30.5608 28.5569 30.5608H28.6269L28.6258 30.5597Z" fill="#03665F"/>
<path d="M68.8896 23.0536V23.0939H69.3496V23.0548C69.3513 22.1273 69.3542 20.5749 68.6222 18.8833C68.2629 18.0524 67.7626 17.2716 67.1256 16.5454C67.0215 16.6616 66.9226 16.7789 66.8271 16.8967C68.8965 19.2858 68.8919 21.6961 68.8896 23.0536Z" fill="#03665F"/>
<path d="M56.834 4.37939V4.58581C56.8869 5.80535 57.3992 10.469 62.0726 13.429C62.1376 13.3945 62.2032 13.3606 62.2693 13.3267C62.3636 13.279 62.4561 13.2301 62.5476 13.1812C57.5268 10.1545 57.2951 5.1148 57.2888 4.37939H56.834Z" fill="#03665F"/>
<path d="M70.1738 23.0538V23.0941H70.6338V23.055C70.6355 22.1275 70.6384 20.5751 69.9065 18.8835C69.435 17.7933 68.7214 16.79 67.7733 15.8821C67.6606 15.9873 67.5519 16.0937 67.4473 16.2012C70.1819 18.8076 70.1767 21.5646 70.1738 23.0538Z" fill="#03665F"/>
<path d="M58.1123 4.37939C58.1181 5.10157 58.3319 9.86414 62.7909 13.049C62.941 12.965 63.087 12.8799 63.2291 12.7942C58.7919 9.74282 58.578 5.08432 58.5723 4.37939H58.1123Z" fill="#03665F"/>
<path d="M71.4565 23.0538V23.0941H71.9165V23.055C71.9182 22.1275 71.9211 20.5751 71.1897 18.8835C70.6187 17.5633 69.693 16.3708 68.4252 15.3203C68.3016 15.4181 68.182 15.517 68.0664 15.6176C71.4651 18.3861 71.4594 21.4525 71.4565 23.0538Z" fill="#03665F"/>
<path d="M59.3965 4.37939C59.4017 5.06995 59.5977 9.45245 63.5099 12.6194C63.6479 12.5309 63.7819 12.4418 63.9118 12.3509C60.056 9.31101 59.8622 5.05097 59.8565 4.37939H59.3965Z" fill="#03665F"/>
<path d="M72.7402 23.0538V23.0941H73.2002V23.055C73.202 22.1275 73.2048 20.5751 72.4735 18.8835C71.8128 17.3563 70.6772 15.9999 69.0874 14.8362C68.9517 14.9276 68.82 15.0208 68.6924 15.1162C72.7494 18.0078 72.7431 21.3553 72.7402 23.0538Z" fill="#03665F"/>
<path d="M60.6797 4.37939C60.6849 5.03487 60.8614 9.01489 64.2239 12.1255C64.3504 12.0312 64.4728 11.9358 64.5913 11.8392C61.3185 8.85332 61.1448 5.01417 61.1397 4.37939H60.6797Z" fill="#03665F"/>
<path d="M74.0234 23.0536V23.0938H74.4834V23.0547C74.4851 22.1273 74.488 20.5748 73.7566 18.8832C73.0143 17.1675 71.6728 15.6674 69.761 14.4133C69.6115 14.5002 69.4661 14.5887 69.3252 14.679C74.0337 17.6631 74.0268 21.2688 74.0234 23.0536Z" fill="#03665F"/>
<path d="M61.9629 4.37939C61.9675 4.9952 62.1239 8.54398 64.9286 11.5506C65.0448 11.4476 65.1569 11.3424 65.2644 11.2366C62.5793 8.35941 62.4275 4.97163 62.4229 4.37939H61.9629Z" fill="#03665F"/>
<path d="M75.7671 23.0938V22.911C75.7671 21.9715 75.7349 20.4903 75.0403 18.8832C74.2233 16.995 72.6806 15.3684 70.4508 14.0425C70.2864 14.1247 70.1259 14.2086 69.9707 14.2949C75.318 17.348 75.3106 21.1912 75.3071 23.0536V23.0938H75.7671Z" fill="#03665F"/>
<path d="M63.2471 4.37939C63.2517 4.94863 63.3851 8.0265 65.624 10.864C65.7304 10.7467 65.8322 10.6283 65.9294 10.5087C63.8393 7.81433 63.7117 4.92218 63.7071 4.37939H63.2471Z" fill="#03665F"/>
<path d="M57.226 22.937C57.2266 22.9502 57.2266 22.9617 57.2272 22.9726H57.4572C57.4572 22.9606 57.4566 22.9468 57.456 22.9318C57.4146 21.1338 57.8769 16.6553 63.0529 13.896C65.5345 12.5735 67.2433 10.8026 68.1334 8.63261C68.851 6.88294 68.836 5.36902 68.8291 4.64166C68.8291 4.61809 68.8286 4.59509 68.8286 4.57324H68.5986C68.5986 4.59567 68.5992 4.61924 68.5992 4.64396C68.6061 5.35637 68.6204 6.83867 67.9207 8.54521C67.0519 10.664 65.3775 12.3964 62.9448 13.693C57.6555 16.5127 57.1835 21.097 57.226 22.937Z" fill="#03665F"/>
<path d="M58.0756 22.937C58.0756 22.9502 58.0756 22.9617 58.0768 22.9726H58.3068C58.3068 22.9606 58.3062 22.9468 58.3056 22.9318C58.2642 21.1338 58.7265 16.6553 63.9025 13.896C66.3835 12.5735 68.093 10.8026 68.983 8.63261C69.7006 6.88294 69.6857 5.36902 69.6788 4.64166C69.6788 4.61809 69.6782 4.59509 69.6782 4.57324H69.4482C69.4482 4.59567 69.4488 4.61924 69.4488 4.64396C69.4557 5.35637 69.47 6.83867 68.7703 8.54521C67.9015 10.664 66.2271 12.3964 63.7944 13.693C58.5057 16.5127 58.0331 21.097 58.0756 22.937Z" fill="#03665F"/>
<path d="M58.9243 22.937C58.9243 22.9502 58.9248 22.9617 58.9254 22.9726H59.1554C59.1548 22.9606 59.1543 22.9468 59.1543 22.9318C59.1129 21.1338 59.5751 16.6553 64.7511 13.896C67.2322 12.5735 68.9416 10.8026 69.8317 8.63261C70.5492 6.88294 70.5343 5.36902 70.5274 4.64166C70.5274 4.61809 70.5274 4.59509 70.5274 4.57324H70.2974C70.2974 4.59567 70.2974 4.61924 70.2974 4.64396C70.3043 5.35637 70.3187 6.83867 69.6189 8.54521C68.7501 10.664 67.0758 12.3964 64.643 13.693C59.3538 16.5127 58.8817 21.097 58.9243 22.937Z" fill="#03665F"/>
<path d="M59.7739 22.937C59.7745 22.9502 59.7745 22.9617 59.775 22.9726H60.005C60.005 22.9606 60.0044 22.9468 60.0039 22.9318C59.9625 21.1338 60.4248 16.6553 65.6007 13.896C68.0818 12.5735 69.7912 10.8026 70.6813 8.63261C71.3988 6.88294 71.3839 5.36902 71.377 4.64166C71.377 4.61809 71.3764 4.59509 71.3764 4.57324H71.1464C71.1464 4.59567 71.147 4.61924 71.147 4.64396C71.1539 5.35637 71.1683 6.83867 70.4685 8.54521C69.5997 10.664 67.9254 12.3964 65.4926 13.693C60.2034 16.5127 59.7313 21.097 59.7739 22.937Z" fill="#03665F"/>
<path d="M60.6235 22.937C60.6235 22.9502 60.6235 22.9617 60.6246 22.9726H60.8546C60.8546 22.9606 60.8541 22.9468 60.8535 22.9318C60.8121 21.1338 61.2744 16.6553 66.4503 13.896C68.9314 12.5735 70.6408 10.8026 71.5309 8.63261C72.2485 6.88294 72.2335 5.36902 72.2266 4.64166C72.2266 4.61809 72.226 4.59509 72.226 4.57324H71.996C71.996 4.59567 71.9966 4.61924 71.9966 4.64396C72.0035 5.35637 72.0179 6.83867 71.3181 8.54521C70.4493 10.664 68.775 12.3964 66.3422 13.693C61.053 16.5127 60.5809 21.097 60.6235 22.937Z" fill="#03665F"/>
<path d="M61.4733 22.9726C61.4727 22.9617 61.4721 22.9502 61.4721 22.937C61.4296 21.097 61.9016 16.5127 67.1903 13.693C69.6236 12.3964 71.298 10.664 72.1668 8.54521C72.8665 6.83867 72.8521 5.35637 72.8452 4.64396C72.8452 4.61924 72.8452 4.59567 72.8452 4.57324H73.0752C73.0752 4.59509 73.0752 4.61809 73.0752 4.64166C73.0821 5.36902 73.0971 6.88294 72.3795 8.63261C71.4894 10.8026 69.78 12.5735 67.299 13.896C62.123 16.6553 61.6607 21.1338 61.7021 22.9318C61.7021 22.9468 61.7021 22.9606 61.7033 22.9726H61.4733Z" fill="#03665F"/>
<path d="M62.3217 22.937C62.3217 22.9502 62.3223 22.9617 62.3223 22.9726H62.5523C62.5523 22.9606 62.5517 22.9468 62.5517 22.9318C62.5103 21.1338 62.9726 16.6553 68.1486 13.896C70.6296 12.5735 72.339 10.8026 73.2291 8.63261C73.9467 6.88294 73.9317 5.36902 73.9248 4.64166C73.9248 4.61809 73.9243 4.59509 73.9243 4.57324H73.6943C73.6943 4.59567 73.6949 4.61924 73.6949 4.64396C73.7018 5.35637 73.7161 6.83867 73.0164 8.54521C72.147 10.664 70.4732 12.3964 68.0399 13.693C62.7512 16.5127 62.2792 21.097 62.3217 22.937Z" fill="#03665F"/>
<path d="M63.1704 22.937C63.1704 22.9502 63.1709 22.9617 63.1709 22.9726H63.4009C63.4009 22.9606 63.4004 22.9468 63.4004 22.9318C63.359 21.1338 63.8212 16.6553 68.9972 13.896C71.4783 12.5735 73.1877 10.8026 74.0778 8.63261C74.7953 6.88294 74.7804 5.36902 74.7735 4.64166C74.7735 4.61809 74.7729 4.59509 74.7729 4.57324H74.5429C74.5429 4.59567 74.5435 4.61924 74.5435 4.64396C74.5504 5.35637 74.5648 6.83867 73.865 8.54521C72.9956 10.664 71.3219 12.3964 68.8885 13.693C63.5999 16.5127 63.1278 21.097 63.1704 22.937Z" fill="#03665F"/>
</svg>
