<svg width="15" height="13" viewBox="0 0 15 13" fill="none" xmlns="http://www.w3.org/2000/svg">
<path d="M7.9078 6.39005C7.84473 6.39005 7.77996 6.36618 7.73053 6.31845C7.62825 6.22129 7.62484 6.05935 7.722 5.95708C7.79701 5.87867 7.99644 5.67071 14.3444 5.10819L14.4057 4.89H8.20611C8.13281 4.89 8.06463 4.85932 8.01519 4.80477L5.39182 1.86264C5.09693 1.53194 4.67419 1.34273 4.23099 1.34273C3.7878 1.34273 3.36506 1.53194 3.07016 1.86264L0.446786 4.80477C0.353033 4.91046 0.191096 4.91898 0.0854112 4.82523C-0.0202737 4.73147 -0.0287967 4.56954 0.0649561 4.46385L2.68833 1.52172C3.08039 1.08193 3.6429 0.829651 4.23099 0.829651C4.81908 0.829651 5.38159 1.08193 5.77365 1.52172L8.32032 4.37862H14.7432C14.8234 4.37862 14.8984 4.41612 14.9478 4.4809C14.9955 4.54397 15.0126 4.62749 14.9904 4.7042L14.7893 5.41672C14.7603 5.519 14.6716 5.59229 14.566 5.60252C12.2545 5.80537 8.46862 6.18379 8.0527 6.34402C8.01008 6.3747 7.95894 6.38834 7.9078 6.38834V6.39005Z" fill="#00625B"/>
<path d="M7.15239 12.1703H1.30903C1.18801 12.1703 1.08232 12.0851 1.05846 11.964L0.0050184 6.69684C-0.010323 6.62184 0.0101322 6.54343 0.0578609 6.48377C0.107294 6.42411 0.178887 6.39001 0.255594 6.39001H8.20583C8.28254 6.39001 8.35584 6.42411 8.40356 6.48377C8.453 6.54343 8.47175 6.62014 8.45641 6.69684L7.40297 11.964C7.3791 12.0834 7.27342 12.1703 7.15239 12.1703ZM4.3756 11.6589H6.94273L7.89389 6.9031H0.567535L1.5187 11.6589H4.37731H4.3756Z" fill="#00625B"/>
<path d="M2.19554 9.72108C2.07622 9.72108 1.97053 9.61954 1.94497 9.47242L1.60405 7.45626C1.57507 7.28842 1.66541 7.12472 1.80348 7.08949C1.93985 7.05427 2.07622 7.16202 2.1052 7.33193L2.44612 9.3481C2.4751 9.51594 2.38475 9.67963 2.24668 9.71486C2.22963 9.719 2.21259 9.72108 2.19554 9.72108Z" fill="#00625B"/>
</svg>
