<svg width="21" height="18" viewBox="0 0 21 18" fill="none" xmlns="http://www.w3.org/2000/svg">
<path d="M18.2839 17.8861H14.0922C13.912 17.8861 13.7343 17.8688 13.565 17.8347C12.5904 17.6382 11.8098 16.9243 11.5289 15.9729C11.4706 15.7769 11.5827 15.571 11.7787 15.5128C11.9757 15.454 12.1811 15.5666 12.2388 15.7626C12.4422 16.4508 13.0071 16.9663 13.7116 17.109C13.833 17.1336 13.9614 17.146 14.0922 17.146H18.2839C19.0975 17.146 19.7596 16.4859 19.7596 15.6752V12.6882C19.7596 11.9551 19.6386 11.2293 19.3997 10.5322C18.8823 9.04608 17.8549 7.79254 16.507 7.00407L12.74 4.8021C12.5499 4.68904 12.3475 4.76803 12.2448 4.90381L11.988 5.24249L10.9295 4.18397C10.769 4.02302 10.6802 3.80973 10.6802 3.58262V0.483568C10.6802 0.27917 10.8461 0.113281 11.0505 0.113281C11.2549 0.113281 11.4207 0.27917 11.4207 0.483568V3.58262C11.4207 3.61175 11.4321 3.6394 11.4528 3.66014L11.9663 4.1736C12.3094 3.96476 12.7513 3.94896 13.1147 4.16373L16.8803 6.36471C18.3802 7.24204 19.5236 8.6363 20.0993 10.2898C20.3654 11.0664 20.5002 11.8726 20.5002 12.6877V15.6747C20.5002 16.8937 19.5058 17.8861 18.2839 17.8861Z" fill="#00635B"/>
<path d="M6.90349 17.8861H2.71185C1.49188 17.8861 0.5 16.8937 0.5 15.6747V12.6877C0.5 10.0982 1.88685 7.67503 4.11894 6.36471L7.88154 4.16274C8.1442 4.00623 8.45277 3.96525 8.7495 4.0482C8.88873 4.08769 9.01857 4.15286 9.13114 4.23926L9.66188 3.70852C9.68509 3.68531 9.69743 3.65471 9.69743 3.62163V0.483568C9.69743 0.27917 9.86332 0.113281 10.0677 0.113281C10.2721 0.113281 10.438 0.27917 10.438 0.483568V3.62163C10.438 3.85219 10.3481 4.06893 10.1852 4.23186L9.02203 5.39505L8.78751 4.9512C8.73962 4.86085 8.65026 4.78976 8.54855 4.76112C8.47993 4.74137 8.37279 4.73248 8.25776 4.80062L4.49317 7.00407C2.48721 8.18158 1.24008 10.3599 1.24008 12.6882V15.6752C1.24008 16.4864 1.90018 17.146 2.71135 17.146H6.903C7.80354 17.146 8.5762 16.5362 8.78159 15.6634C8.82948 15.4639 9.03042 15.3444 9.22692 15.3874C9.42589 15.4348 9.54932 15.6337 9.50291 15.8327C9.21803 17.0418 8.14914 17.8861 6.90349 17.8861Z" fill="#00635B"/>
<path d="M9.20378 10.043C8.99938 10.043 8.8335 9.87713 8.8335 9.67273V6.9099L9.76761 5.98171C9.95472 5.79459 10.2041 5.69141 10.4682 5.69141H10.6953C10.9629 5.69141 11.2142 5.79459 11.4018 5.9827L12.1616 6.74253V9.24912C12.1616 9.45352 11.9957 9.61941 11.7913 9.61941C11.5869 9.61941 11.4211 9.45352 11.4211 9.24912V7.04912L10.8775 6.50604C10.8286 6.45716 10.7659 6.43198 10.6953 6.43198H10.4682C10.4015 6.43198 10.3378 6.45864 10.2905 6.50653L9.57456 7.21798V9.67323C9.57407 9.87713 9.40818 10.043 9.20378 10.043Z" fill="#00635B"/>
<path d="M10.5456 17.5901L6.83678 13.8916C6.6546 13.7159 6.51636 13.5455 6.40478 13.3599C6.15052 12.9235 6.02413 12.4307 6.03647 11.9311C6.06708 10.6381 6.94787 9.57014 8.1787 9.33513C8.28485 9.31242 8.40334 9.30008 8.52727 9.29416C8.57713 9.28922 8.63736 9.28873 8.70204 9.28873C9.36115 9.28873 10.0148 9.49806 10.5401 9.86983C11.1459 9.41857 11.8342 9.22405 12.6108 9.30502C12.6814 9.31292 12.7362 9.31884 12.7915 9.3297C12.8606 9.34007 12.9361 9.3539 13.0176 9.37908C13.4151 9.47239 13.8036 9.67925 14.1176 9.96956L14.205 10.0565C14.6977 10.5383 14.9905 11.2315 15.0023 11.9533C15.0023 12.4485 14.8755 12.923 14.635 13.3323C14.5091 13.5604 14.3373 13.7455 14.2025 13.8803L10.5456 17.5901ZM8.67785 10.0298C8.64477 10.0298 8.61218 10.0303 8.57762 10.0332C8.47888 10.0382 8.39989 10.0456 8.32435 10.0619C7.4327 10.2322 6.79926 11.0078 6.77704 11.9494C6.76766 12.3122 6.85999 12.6697 7.04266 12.9837C7.11672 13.1081 7.21744 13.2301 7.35518 13.3634L10.5426 16.5409L13.6772 13.3599C13.8288 13.2083 13.9251 13.0879 13.9922 12.9664C14.1704 12.6628 14.2623 12.3182 14.2623 11.9607C14.2534 11.4379 14.0426 10.9338 13.6822 10.5818L13.6076 10.5072C13.3943 10.3107 13.1208 10.1656 12.8236 10.0945C12.7535 10.0737 12.7105 10.0678 12.6641 10.0609C12.6167 10.0515 12.5822 10.0486 12.5481 10.0451C12.4503 10.0347 12.3659 10.0308 12.283 10.0308C11.7305 10.0308 11.2289 10.2297 10.7924 10.6223L10.5466 10.8434L10.2987 10.6237C9.87412 10.246 9.2555 10.0184 8.67785 10.0298Z" fill="#00635B"/>
</svg>
