<svg width="18" height="20" viewBox="0 0 18 20" fill="none" xmlns="http://www.w3.org/2000/svg">
<path d="M6.66455 4.06738C8.70357 4.06738 10.3567 5.71983 10.3569 7.75879C10.3569 9.79795 8.70371 11.4512 6.66455 11.4512C4.62558 11.4509 2.97314 9.7978 2.97314 7.75879C2.97338 5.71997 4.62572 4.06762 6.66455 4.06738ZM6.66455 4.67383C4.96374 4.67407 3.57982 6.05799 3.57959 7.75879C3.57959 9.4598 4.9636 10.8445 6.66455 10.8447C8.3657 10.8447 9.75049 9.45995 9.75049 7.75879C9.75026 6.05784 8.36555 4.67383 6.66455 4.67383Z" fill="#00625B" stroke="#00625B" stroke-width="0.2"/>
<path d="M4.36133 11.7051C6.54912 11.7051 8.32225 13.4782 8.32227 15.666C8.32227 15.7783 8.31605 17.1703 8.30566 18.1221C8.29975 18.6643 7.8584 19.1006 7.31641 19.1006H1.40625C0.864258 19.1006 0.422907 18.6643 0.416992 18.1221C0.406609 17.1703 0.400391 15.7783 0.400391 15.666C0.400402 13.4782 2.17355 11.7051 4.36133 11.7051ZM4.36133 12.3115C2.5118 12.3115 1.00685 13.8165 1.00684 15.666C1.00684 15.7843 1.01329 17.1835 1.02344 18.1152C1.02571 18.3229 1.19764 18.4932 1.40625 18.4932H7.31641C7.52503 18.4932 7.69695 18.3229 7.69922 18.1152C7.70938 17.1834 7.71582 15.7842 7.71582 15.666C7.71581 13.8165 6.21087 12.3115 4.36133 12.3115Z" fill="#00625B" stroke="#00625B" stroke-width="0.2"/>
<path d="M11.2271 9.34766C11.4752 9.35645 11.7126 9.48647 11.8647 9.69238C12.5108 10.5668 12.5549 11.6858 11.938 12.4092C11.5683 12.8427 11.0175 13.0645 10.4302 13.0645C10.0392 13.0644 9.63045 12.9658 9.24365 12.7656C9.01627 12.6478 8.84997 12.4341 8.80225 12.1904C8.76287 11.9892 8.81125 11.7856 8.93994 11.6348L10.7007 9.57129C10.8298 9.41996 11.021 9.34281 11.2261 9.34766H11.2271ZM11.1753 9.95703L11.1616 9.96484L9.40186 12.0293C9.39981 12.0318 9.39702 12.0354 9.396 12.043C9.39485 12.0516 9.3957 12.0628 9.39795 12.0742C9.40895 12.1302 9.45497 12.1914 9.52295 12.2266C10.2597 12.6078 11.0582 12.5045 11.4761 12.0146C11.8935 11.5248 11.8693 10.7199 11.3765 10.0527C11.3309 9.99135 11.2634 9.95623 11.2065 9.9541L11.1753 9.95703Z" fill="#00625B" stroke="#00625B" stroke-width="0.2"/>
<path d="M14.1768 3.4668C14.4602 3.31449 14.7859 3.28041 15.0928 3.37305L15.3174 3.44043C15.9529 3.6318 16.3144 4.30488 16.123 4.94043L14.7295 9.56738C14.6372 9.8743 14.4301 10.128 14.1465 10.2803C13.9686 10.3759 13.7737 10.4238 13.5771 10.4238C13.4612 10.4238 13.3442 10.4073 13.2305 10.373L13.0059 10.3057C12.699 10.2133 12.4453 10.0053 12.293 9.72168C12.1409 9.43828 12.1078 9.11245 12.2002 8.80566L13.5938 4.17871C13.6861 3.87198 13.8933 3.61903 14.1768 3.4668ZM14.918 3.9541C14.7666 3.90849 14.6054 3.92497 14.4639 4.00098C14.3226 4.07694 14.2205 4.2021 14.1748 4.35352L12.7812 8.98047C12.7356 9.132 12.7522 9.29323 12.8281 9.43457C12.904 9.57594 13.0292 9.67898 13.1807 9.72461L13.4053 9.79199L13.5205 9.81445C13.6363 9.82549 13.7534 9.80202 13.8594 9.74512C14.0007 9.6691 14.1028 9.54404 14.1484 9.39258L15.542 4.76562C15.6368 4.45074 15.4573 4.11746 15.1426 4.02246L14.918 3.9541Z" fill="#00625B" stroke="#00625B" stroke-width="0.2"/>
<path d="M17.3159 0.900391C17.4832 0.900613 17.6185 1.03583 17.6187 1.20312C17.6187 1.37058 17.4833 1.50661 17.3159 1.50684C16.5215 1.50684 15.8745 2.15384 15.8745 2.94824C15.8743 3.11565 15.7383 3.25098 15.5708 3.25098C15.4035 3.25079 15.2683 3.11553 15.2681 2.94824C15.2681 1.81895 16.1866 0.900391 17.3159 0.900391Z" fill="#00625B" stroke="#00625B" stroke-width="0.2"/>
</svg>
