<svg width="21" height="22" viewBox="0 0 21 22" fill="none" xmlns="http://www.w3.org/2000/svg">
<path d="M10.8817 5.86035H10.7081C10.3262 5.86035 10.0484 6.17285 10.0484 6.52007V7.00618C10.0484 7.31868 10.2567 7.56174 10.5345 7.66591L10.9165 7.8048C11.0901 8.88118 11.7151 9.9923 12.6526 10.652C13.0692 10.9645 13.5901 11.1034 14.0762 11.1034C14.5623 11.1034 15.0484 10.9645 15.4998 10.652C16.4373 10.027 17.0623 8.91591 17.2359 7.8048L17.6179 7.66591C17.8957 7.59646 18.104 7.31868 18.104 7.00618V6.52007C18.104 6.13813 17.7915 5.86035 17.4443 5.86035H17.2707" stroke="#00635B" stroke-width="0.7" stroke-miterlimit="10" stroke-linecap="round" stroke-linejoin="round"/>
<path d="M17.7226 5.96512V5.20124C17.7226 4.26374 18.0699 3.32624 18.6602 2.63179C18.6602 2.63179 14.9449 -1.01404 12.0976 1.69429C12.0976 1.69429 8.62537 2.07624 10.2226 5.96512" stroke="#00635B" stroke-width="0.7" stroke-miterlimit="10" stroke-linecap="round" stroke-linejoin="round"/>
<path d="M17.2012 5.861L16.5414 5.99989C16.5414 5.99989 16.4026 4.12489 14.5275 4.2985C13.2081 4.40267 12.4095 3.56934 12.4095 3.56934C12.4095 3.56934 11.2984 4.50684 11.6456 6.06934L10.8817 5.861" stroke="#00635B" stroke-width="0.7" stroke-miterlimit="10" stroke-linecap="round" stroke-linejoin="round"/>
<path d="M15.1528 10.792V11.5906C15.1528 12.2156 14.6667 12.7017 14.0417 12.7017C13.7292 12.7017 13.4514 12.5628 13.2431 12.3892C13.0348 12.1809 12.9306 11.9031 12.9306 11.5906V10.792" stroke="#00635B" stroke-width="0.7" stroke-miterlimit="10" stroke-linecap="round" stroke-linejoin="round"/>
<path d="M15.1527 11.5898L19.3194 13.0482C20.0139 13.2912 20.5 13.951 20.5 14.7148V21.3468H10.0138H7.54852V19.9926" stroke="#00635B" stroke-width="0.7" stroke-miterlimit="10" stroke-linecap="round" stroke-linejoin="round"/>
<path d="M12.9307 11.5898L8.72925 13.0482C8.0348 13.2912 7.54868 13.951 7.54868 14.7148V16.1732" stroke="#00635B" stroke-width="0.7" stroke-miterlimit="10" stroke-linecap="round" stroke-linejoin="round"/>
<path d="M18.0693 15.4092V21.3467" stroke="#00635B" stroke-width="0.7" stroke-miterlimit="10" stroke-linecap="round" stroke-linejoin="round"/>
<path d="M10.0488 15.4092V21.3467" stroke="#00635B" stroke-width="0.7" stroke-miterlimit="10" stroke-linecap="round" stroke-linejoin="round"/>
<path d="M7.16643 19.9923H10.0137V16.1729H7.16643C6.78448 16.1729 6.47198 16.4854 6.47198 16.8673V19.2631C6.47198 19.6798 6.78448 19.9923 7.16643 19.9923Z" stroke="#00635B" stroke-width="0.7" stroke-miterlimit="10" stroke-linecap="round" stroke-linejoin="round"/>
<path d="M4.07632 9.08984V16.5551C4.07632 17.3885 4.77077 18.0829 5.60411 18.0829H6.47217" stroke="#00635B" stroke-width="0.7" stroke-miterlimit="10" stroke-linecap="round" stroke-linejoin="round"/>
<path d="M4.07642 7.8393C2.10122 7.8393 0.500006 6.2381 0.500006 4.26291C0.500006 2.28773 2.10122 0.686523 4.07642 0.686523C6.05162 0.686523 7.65283 2.28773 7.65283 4.26291C7.65283 6.2381 6.05162 7.8393 4.07642 7.8393Z" stroke="#00635B" stroke-width="0.7" stroke-miterlimit="10" stroke-linecap="round" stroke-linejoin="round"/>
<path d="M4.07666 3.53342V2.76953" stroke="#00635B" stroke-width="0.7" stroke-miterlimit="10" stroke-linecap="round" stroke-linejoin="round"/>
<path d="M4.07666 0.652344V1.48568" stroke="#00635B" stroke-width="0.7" stroke-miterlimit="10" stroke-linecap="round" stroke-linejoin="round"/>
<path d="M4.07666 7.04199V7.8406" stroke="#00635B" stroke-width="0.7" stroke-miterlimit="10" stroke-linecap="round" stroke-linejoin="round"/>
<path d="M0.500212 4.26367H1.29883" stroke="#00635B" stroke-width="0.7" stroke-miterlimit="10" stroke-linecap="round" stroke-linejoin="round"/>
<path d="M6.85416 4.26367H7.6875" stroke="#00635B" stroke-width="0.7" stroke-miterlimit="10" stroke-linecap="round" stroke-linejoin="round"/>
<path d="M1.54155 1.72852L2.13184 2.28407" stroke="#00635B" stroke-width="0.7" stroke-miterlimit="10" stroke-linecap="round" stroke-linejoin="round"/>
<path d="M6.05577 6.20801L6.61133 6.79829" stroke="#00635B" stroke-width="0.7" stroke-miterlimit="10" stroke-linecap="round" stroke-linejoin="round"/>
<path d="M1.54155 6.79829L2.13184 6.20801" stroke="#00635B" stroke-width="0.7" stroke-miterlimit="10" stroke-linecap="round" stroke-linejoin="round"/>
<path d="M6.05577 2.28407L6.61133 1.72852" stroke="#00635B" stroke-width="0.7" stroke-miterlimit="10" stroke-linecap="round" stroke-linejoin="round"/>
<path d="M4.07606 4.95823C3.69252 4.95823 3.38161 4.64731 3.38161 4.26378C3.38161 3.88025 3.69252 3.56934 4.07606 3.56934C4.45959 3.56934 4.77051 3.88025 4.77051 4.26378C4.77051 4.64731 4.45959 4.95823 4.07606 4.95823Z" stroke="#00635B" stroke-width="0.7" stroke-miterlimit="10" stroke-linecap="round" stroke-linejoin="round"/>
<path d="M2.5832 7.52734V8.29123C2.5832 8.74262 2.96515 9.12457 3.41654 9.12457H4.07627H4.736C5.18739 9.12457 5.56934 8.74262 5.56934 8.29123V7.52734" stroke="#00635B" stroke-width="0.7" stroke-miterlimit="10" stroke-linecap="round" stroke-linejoin="round"/>
</svg>
