<svg width="25" height="25" viewBox="0 0 25 25" fill="none" xmlns="http://www.w3.org/2000/svg">
<path fill-rule="evenodd" clip-rule="evenodd" d="M3.81034 17.1131H21.1897C21.3572 17.1131 21.5 16.974 21.5 16.8027V14.2511C21.5 14.0798 21.3572 13.9407 21.1897 13.9407H3.81034C3.63655 13.9407 3.5 14.0798 3.5 14.2511V16.8027C3.5 16.974 3.63655 17.1131 3.81034 17.1131ZM4.95861 14.5614V16.4924H4.12069V14.5614H4.95861ZM5.5793 14.5614V16.4924H15.7028V14.5614H5.5793ZM16.3235 14.5614H20.8793V16.4924H16.3235V14.5614ZM10.6131 7.86851C10.6131 7.86851 11.0041 9.92983 9.09242 10.8547C8.64552 11.0744 8.18002 11.1153 7.71451 11.1638C7.18071 11.2196 6.64689 11.2836 6.13172 11.5442C4.97724 12.1258 5.03309 13.2722 5.03309 13.2722C5.03929 13.4435 5.18206 13.577 5.35586 13.5702C5.52965 13.564 5.65998 13.42 5.65377 13.2487C5.65377 13.2487 5.63514 12.4895 6.411 12.0985C6.85789 11.8732 7.31725 11.8291 7.77656 11.7813C8.31035 11.7255 8.84411 11.6659 9.36549 11.4133C11.7055 10.2799 11.2213 7.75245 11.2213 7.75245C11.1903 7.58424 11.029 7.47375 10.8614 7.50541C10.6938 7.53769 10.582 7.70031 10.6131 7.86851ZM8.93103 7.9281C8.93103 7.9281 9.26002 8.771 8.48416 9.53817C8.13657 9.88327 7.64002 9.89879 7.0876 9.97452C6.40485 10.0664 5.65381 10.206 4.90898 10.7913C3.63036 11.7938 3.69245 13.222 3.69245 13.222C3.69866 13.3933 3.84135 13.5273 4.01515 13.5211C4.18273 13.5149 4.31935 13.3709 4.31314 13.1996C4.31314 13.1996 4.28208 12.0743 5.2938 11.2792C6.06966 10.6678 6.87035 10.6355 7.5407 10.5393C8.0869 10.4611 8.56482 10.3382 8.92482 9.97824C10.011 8.89513 9.5021 7.69224 9.5021 7.69224C9.44003 7.53396 9.25381 7.45824 9.09863 7.52341C8.93725 7.58796 8.86276 7.76982 8.93103 7.9281Z" fill="white"/>
</svg>
