<svg width="25" height="24" viewBox="0 0 25 24" fill="none" xmlns="http://www.w3.org/2000/svg">
<g id="Smoking">
<path id="Vector" fill-rule="evenodd" clip-rule="evenodd" d="M3.81034 16.6131H21.1897C21.3572 16.6131 21.5 16.474 21.5 16.3027V13.7511C21.5 13.5798 21.3572 13.4407 21.1897 13.4407H3.81034C3.63655 13.4407 3.5 13.5798 3.5 13.7511V16.3027C3.5 16.474 3.63655 16.6131 3.81034 16.6131ZM4.95861 14.0614V15.9924H4.12069V14.0614H4.95861ZM5.5793 14.0614V15.9924H15.7028V14.0614H5.5793ZM16.3235 14.0614H20.8793V15.9924H16.3235V14.0614ZM10.6131 7.36851C10.6131 7.36851 11.0041 9.42983 9.09242 10.3547C8.64552 10.5744 8.18002 10.6153 7.71451 10.6638C7.18071 10.7196 6.64689 10.7836 6.13172 11.0442C4.97724 11.6258 5.03309 12.7722 5.03309 12.7722C5.03929 12.9435 5.18206 13.077 5.35586 13.0702C5.52965 13.064 5.65998 12.92 5.65377 12.7487C5.65377 12.7487 5.63514 11.9895 6.411 11.5985C6.85789 11.3732 7.31725 11.3291 7.77656 11.2813C8.31035 11.2255 8.84411 11.1659 9.36549 10.9133C11.7055 9.7799 11.2213 7.25245 11.2213 7.25245C11.1903 7.08424 11.029 6.97375 10.8614 7.00541C10.6938 7.03769 10.582 7.20031 10.6131 7.36851ZM8.93103 7.4281C8.93103 7.4281 9.26002 8.271 8.48416 9.03817C8.13657 9.38327 7.64002 9.39879 7.0876 9.47452C6.40485 9.56638 5.65381 9.70603 4.90898 10.2913C3.63036 11.2938 3.69245 12.722 3.69245 12.722C3.69866 12.8933 3.84135 13.0273 4.01515 13.0211C4.18273 13.0149 4.31935 12.8709 4.31314 12.6996C4.31314 12.6996 4.28208 11.5743 5.2938 10.7792C6.06966 10.1678 6.87035 10.1355 7.5407 10.0393C8.0869 9.96113 8.56482 9.83824 8.92482 9.47824C10.011 8.39513 9.5021 7.19224 9.5021 7.19224C9.44003 7.03396 9.25381 6.95824 9.09863 7.02341C8.93725 7.08796 8.86276 7.26982 8.93103 7.4281Z" fill="#00625B"/>
</g>
</svg>
