<svg width="21" height="20" viewBox="0 0 21 20" fill="none" xmlns="http://www.w3.org/2000/svg">
<path fill-rule="evenodd" clip-rule="evenodd" d="M2.68665 4.24766H3.68687V3.16975H3.26321C2.84466 3.16975 2.50469 2.83007 2.50469 2.41187V0.752744C2.50469 0.339677 2.84466 0 3.26321 0H11.6563C12.0697 0 12.4097 0.339677 12.4097 0.752744V2.41187C12.4097 2.83007 12.0697 3.16975 11.6563 3.16975H11.2275V4.24766H12.2269C13.4287 4.24766 14.4136 5.23169 14.4136 6.43687V11.3134L16.7181 12.0414C19.097 12.7942 17.9541 16.3976 15.5752 15.6397L14.4127 15.2752V16.2789C14.5656 16.2396 14.7227 16.22 14.8808 16.22H18.6237C21.1254 16.22 21.1254 20 18.6237 20H14.8816C14.3939 20 13.9463 19.808 13.6106 19.5033C13.2314 19.814 12.7488 20 12.2269 20H2.68667C1.48485 20 0.5 19.0109 0.5 17.8101V6.43693C0.5 5.23186 1.48483 4.24766 2.68665 4.24766ZM4.02598 1.09253V2.07145C4.02598 2.40173 4.52824 2.40173 4.52824 2.07145V1.09253C4.52824 0.7631 4.02598 0.7631 4.02598 1.09253ZM5.61728 1.09253V2.07145C5.61728 2.40173 6.11954 2.40173 6.11954 2.07145V1.09253C6.11954 0.7631 5.61728 0.7631 5.61728 1.09253ZM7.20774 1.09253V2.07145C7.20774 2.40173 7.70485 2.40173 7.70485 2.07145L7.70571 1.09253C7.70571 0.7631 7.20774 0.7631 7.20774 1.09253ZM8.79904 1.09253V2.07145C8.79904 2.40173 9.29616 2.40173 9.29616 2.07145V1.09253C9.29616 0.7631 8.79904 0.7631 8.79904 1.09253ZM10.3852 1.09253V2.07145C10.3852 2.40173 10.8875 2.40173 10.8875 2.07145V1.09253C10.8875 0.7631 10.3852 0.7631 10.3852 1.09253ZM5.70532 11.9092L8.90157 8.71567C9.13817 8.48438 9.48753 8.83344 9.25605 9.06985L6.44422 11.8802H9.01005C9.29108 11.8802 9.4286 12.1166 9.20737 12.3377L6.01111 15.5313C5.77963 15.7625 5.42515 15.4135 5.65663 15.1771L8.45907 12.377H5.89738C5.62661 12.377 5.48921 12.126 5.70532 11.9092ZM13.9165 11.1514V7.48499H0.997205V16.7612H13.562C13.6705 16.6579 13.7884 16.5649 13.9165 16.4906V15.1123L12.01 14.5123C9.62608 13.7544 10.7689 10.157 13.1529 10.9099L13.9165 11.1514ZM15.0192 12.027L14.1821 14.6744L15.7239 15.1617C17.4775 15.7182 18.3197 13.0708 16.5661 12.5185L15.0192 12.027ZM13.7047 14.5225L14.5469 11.8752L13 11.3878C11.2464 10.8314 10.4092 13.4788 12.1578 14.0352L13.7047 14.5225ZM13.1973 17.2639H0.997205V17.8101C0.997205 18.7403 1.76083 19.4982 2.68676 19.4982H12.227C12.631 19.4982 13 19.3557 13.2913 19.1193C12.9317 18.5586 12.8966 17.8544 13.1973 17.2639ZM14.8817 19.4983H16.5021V16.7229H14.8817C13.0444 16.7229 13.0444 19.4983 14.8817 19.4983ZM17.0043 16.7229V19.4983H18.6247C20.462 19.4983 20.462 16.7229 18.6247 16.7229H17.0043ZM4.18932 4.24788H10.7255V3.16997H4.18932V4.24788ZM3.2634 0.497816H11.6565C11.7949 0.497816 11.9076 0.610473 11.9076 0.753858V2.41298C11.9076 2.55551 11.794 2.66903 11.6565 2.66903L3.2634 2.66817C3.12076 2.66817 3.00715 2.55466 3.00715 2.41213V0.753005C3.00715 0.609624 3.1199 0.497816 3.2634 0.497816ZM0.997358 6.9833H13.9166V6.43624C13.9166 5.50598 13.1581 4.7481 12.2271 4.7481L2.68687 4.74895C1.76094 4.74895 0.997314 5.50683 0.997314 6.43709L0.997358 6.9833Z" fill="#00635B"/>
</svg>
