<svg width="15" height="15" viewBox="0 0 15 15" fill="none" xmlns="http://www.w3.org/2000/svg">
<path d="M14.7732 11.8177H3.40966C3.28246 11.8177 3.18211 11.9174 3.18211 12.0453C3.18211 12.1725 3.28182 12.2728 3.40966 12.2728H10.0138C10.1275 13.5454 11.2001 14.5458 12.5002 14.5458C13.8776 14.5458 15 13.4234 15 12.046C15 11.9188 14.9003 11.8185 14.7725 11.8185L14.7732 11.8177ZM12.5002 14.0901C11.45 14.0901 10.5819 13.2949 10.4682 12.2723H14.5359C14.4222 13.295 13.5541 14.0901 12.5039 14.0901H12.5002ZM11.3279 10.2678C11.5867 10.6679 12.0233 10.9089 12.5008 10.9089C12.9783 10.9089 13.4142 10.6679 13.6737 10.2678C13.9326 9.86764 13.969 9.36778 13.769 8.93121L13.1189 7.51283C13.0051 7.26738 12.7686 7.1127 12.5008 7.1127C12.2324 7.1127 11.992 7.26738 11.8827 7.51283L11.2326 8.93121C11.0326 9.3633 11.069 9.86315 11.3279 10.2678ZM11.6456 9.12233L12.2956 7.70396C12.35 7.58123 12.4682 7.57228 12.5002 7.57228C12.5321 7.57228 12.6504 7.58123 12.7047 7.70396L13.3548 9.12233C13.4865 9.41316 13.4641 9.74938 13.2909 10.0223C13.1183 10.2953 12.823 10.4544 12.5002 10.4544C12.1774 10.4544 11.8821 10.2908 11.7095 10.0223C11.5369 9.74938 11.5094 9.41764 11.6456 9.12233ZM8.55501 5.9084H10.9099V6.59043C10.9099 6.71763 11.0096 6.81798 11.1374 6.81798C11.2646 6.81798 11.365 6.71826 11.365 6.59043L11.3637 2.04517C11.3637 1.91797 11.264 1.81762 11.1361 1.81762C11.0089 1.81762 10.9086 1.91734 10.9086 2.04517V2.7272H8.55373C8.24436 1.40023 7.06761 0.454163 5.68114 0.454163H0.227549C0.10035 0.454163 0 0.553878 0 0.681712V7.95441C0 8.08161 0.0997151 8.18196 0.227549 8.18196H5.68179C7.06821 8.18196 8.2456 7.2366 8.55438 5.90893L8.55501 5.9084ZM0.455133 0.908573H5.68241C6.90967 0.908573 7.9458 1.78555 8.14592 2.99049C8.16382 3.09979 8.2597 3.18161 8.36836 3.18161H10.9091V5.45465H8.36836C8.25459 5.45465 8.16382 5.53646 8.14592 5.64577C7.94585 6.85512 6.90972 7.72768 5.68241 7.72768L0.455133 7.72704V0.908573ZM4.54598 4.54501V5.68149C4.54598 5.80869 4.44626 5.90904 4.31843 5.90904C4.19123 5.90904 4.09088 5.80933 4.09088 5.68149V4.54501H2.95439C2.82719 4.54501 2.72684 4.44529 2.72684 4.31746C2.72684 4.19026 2.82656 4.08991 2.95439 4.08991H4.09088V2.95342C4.09088 2.82622 4.19059 2.72587 4.31843 2.72587C4.44563 2.72587 4.54598 2.82559 4.54598 2.95342V4.08991H5.68246C5.80966 4.08991 5.91001 4.18962 5.91001 4.31746C5.91001 4.44466 5.8103 4.54501 5.68246 4.54501H4.54598Z" fill="#00625B"/>
</svg>
