<svg width="16" height="17" viewBox="0 0 16 17" fill="none" xmlns="http://www.w3.org/2000/svg">
<path d="M8 0.884888C12.1828 0.884888 15.5996 4.27933 15.5996 8.50012C15.5996 12.7209 12.1828 16.1154 8 16.1154C3.81721 16.1154 0.400443 12.7209 0.400391 8.50012C0.400391 4.27933 3.81717 0.884888 8 0.884888ZM8 1.8302C4.29317 1.8302 1.31445 4.831 1.31445 8.50012C1.31451 12.1692 4.29321 15.17 8 15.17C11.7068 15.17 14.6855 12.1692 14.6855 8.50012C14.6855 4.831 11.7068 1.8302 8 1.8302Z" fill="#00625B" stroke="white" stroke-width="0.2"/>
<path fill-rule="evenodd" clip-rule="evenodd" d="M14.7858 7.80134H1.21436V7.05603H14.7858V7.80134ZM1.21436 9.19892H14.7858V9.9442H1.21436V9.19892Z" fill="#00625B"/>
</svg>
