<svg width="10" height="18" viewBox="0 0 10 18" fill="none" xmlns="http://www.w3.org/2000/svg">
<path d="M7.89649 10.5207V2.55928C7.79445 -0.658171 3.26399 -0.927235 2.77071 2.23786H0.817299C0.394635 2.2467 0.393832 2.87265 0.817299 2.8815H2.7482V4.16796H1.46093C1.03827 4.176 1.03747 4.80356 1.46093 4.8116H2.7482V6.09806H0.817299C0.395437 6.1053 0.393832 6.73448 0.817299 6.7417H2.7482V8.02817H1.46093C1.03907 8.03459 1.03747 8.66458 1.46093 8.6718H2.7482V10.5216C-0.367219 12.9538 1.38139 17.9889 5.32426 18C9.28966 17.9879 11.0077 12.9723 7.89641 10.5216L7.89649 10.5207ZM7.77355 16.3706C5.55748 18.5385 1.73731 16.8728 1.78236 13.7769C1.79521 12.6407 2.33279 11.6073 3.25686 10.942C3.34123 10.8817 3.39105 10.7845 3.39105 10.6809L3.39185 2.55959C3.48024 0.00924267 7.16204 0.0018372 7.25296 2.55959V10.6817C7.25296 10.7854 7.30278 10.8826 7.38715 10.9428C9.15816 12.1562 9.36467 14.9237 7.77445 16.3708L7.77355 16.3706Z" fill="#00625B"/>
<path d="M6.28765 11.4118V3.20205C6.25631 1.93406 4.39128 1.92604 4.35674 3.20205V11.411C3.3017 11.8336 2.64037 12.916 2.76252 14.0724C2.95216 16.1279 5.53153 17.109 7.04368 15.7084C8.4555 14.4822 8.01998 12.0773 6.28674 11.411L6.28765 11.4118ZM6.61388 15.2309C5.50179 16.2876 3.54104 15.5298 3.40301 14.0055C3.30498 13.0758 3.8795 12.2104 4.76982 11.9485C4.90642 11.9083 5.00044 11.7829 5.00044 11.6399V3.20185C5.00687 2.78482 5.63603 2.77517 5.64407 3.20185V11.6391C5.64407 11.7813 5.73809 11.9075 5.87469 11.9477C7.29133 12.3334 7.72926 14.2723 6.61313 15.2293L6.61388 15.2309Z" fill="#00625B"/>
</svg>
