<svg width="9" height="18" viewBox="0 0 9 18" fill="none" xmlns="http://www.w3.org/2000/svg">
<g id="Group 1850">
<path id="Vector" d="M7.39649 10.5207V2.55928C7.29445 -0.658171 2.76399 -0.927235 2.27071 2.23786H0.317299C-0.105365 2.2467 -0.106168 2.87265 0.317299 2.8815H2.2482V4.16796H0.960933C0.538269 4.176 0.537466 4.80356 0.960933 4.8116H2.2482V6.09806H0.317299C-0.104563 6.1053 -0.106168 6.73448 0.317299 6.7417H2.2482V8.02817H0.960933C0.539071 8.03459 0.537466 8.66458 0.960933 8.6718H2.2482V10.5216C-0.867219 12.9538 0.881387 17.9889 4.82426 18C8.78966 17.9879 10.5077 12.9723 7.39641 10.5216L7.39649 10.5207ZM7.27355 16.3706C5.05748 18.5385 1.23731 16.8728 1.28236 13.7769C1.29521 12.6407 1.83279 11.6073 2.75686 10.942C2.84123 10.8817 2.89105 10.7845 2.89105 10.6809L2.89185 2.55959C2.98024 0.00924267 6.66204 0.0018372 6.75296 2.55959V10.6817C6.75296 10.7854 6.80278 10.8826 6.88715 10.9428C8.65816 12.1562 8.86467 14.9237 7.27445 16.3708L7.27355 16.3706Z" fill="#00625B"/>
<path id="Vector_2" d="M5.78765 11.4118V3.20205C5.75631 1.93406 3.89128 1.92604 3.85674 3.20205V11.411C2.8017 11.8336 2.14037 12.916 2.26252 14.0724C2.45216 16.1279 5.03153 17.109 6.54368 15.7084C7.9555 14.4822 7.51998 12.0773 5.78674 11.411L5.78765 11.4118ZM6.11388 15.2309C5.00179 16.2876 3.04104 15.5298 2.90301 14.0055C2.80498 13.0758 3.3795 12.2104 4.26982 11.9485C4.40642 11.9083 4.50044 11.7829 4.50044 11.6399V3.20185C4.50687 2.78482 5.13603 2.77517 5.14407 3.20185V11.6391C5.14407 11.7813 5.23809 11.9075 5.37469 11.9477C6.79133 12.3334 7.22926 14.2723 6.11313 15.2293L6.11388 15.2309Z" fill="#00625B"/>
</g>
</svg>
