<svg width="24" height="24" viewBox="0 0 24 24" fill="none" xmlns="http://www.w3.org/2000/svg">
<path d="M15.3965 13.5207V5.55928C15.2944 2.34183 10.764 2.07276 10.2707 5.23786H8.3173C7.89463 5.2467 7.89383 5.87265 8.3173 5.8815H10.2482V7.16796H8.96093C8.53827 7.176 8.53747 7.80356 8.96093 7.8116H10.2482V9.09806H8.3173C7.89544 9.1053 7.89383 9.73448 8.3173 9.7417H10.2482V11.0282H8.96093C8.53907 11.0346 8.53747 11.6646 8.96093 11.6718H10.2482V13.5216C7.13278 15.9538 8.88139 20.9889 12.8243 21C16.7897 20.9879 18.5077 15.9723 15.3964 13.5216L15.3965 13.5207ZM15.2736 19.3706C13.0575 21.5385 9.23731 19.8728 9.28236 16.7769C9.29521 15.6407 9.83279 14.6073 10.7569 13.942C10.8412 13.8817 10.8911 13.7845 10.8911 13.6809L10.8919 5.55959C10.9802 3.00924 14.662 3.00184 14.753 5.55959V13.6817C14.753 13.7854 14.8028 13.8826 14.8872 13.9428C16.6582 15.1562 16.8647 17.9237 15.2745 19.3708L15.2736 19.3706Z" fill="#00625B"/>
<path d="M13.7876 14.4118V6.20205C13.7563 4.93406 11.8913 4.92604 11.8567 6.20205V14.411C10.8017 14.8336 10.1404 15.916 10.2625 17.0724C10.4522 19.1279 13.0315 20.109 14.5437 18.7084C15.9555 17.4822 15.52 15.0773 13.7867 14.411L13.7876 14.4118ZM14.1139 18.2309C13.0018 19.2876 11.041 18.5298 10.903 17.0055C10.805 16.0758 11.3795 15.2104 12.2698 14.9485C12.4064 14.9083 12.5004 14.7829 12.5004 14.6399V6.20185C12.5069 5.78482 13.136 5.77517 13.1441 6.20185V14.6391C13.1441 14.7813 13.2381 14.9075 13.3747 14.9477C14.7913 15.3334 15.2293 17.2723 14.1131 18.2293L14.1139 18.2309Z" fill="#00625B"/>
</svg>
