<svg width="10" height="18" viewBox="0 0 10 18" fill="none" xmlns="http://www.w3.org/2000/svg">
<path d="M2.5 12.0795C2.07197 12.0795 1.70739 11.9631 1.40625 11.7301C1.10511 11.4953 0.875 11.1553 0.715909 10.7102C0.556818 10.2633 0.477273 9.72348 0.477273 9.09091C0.477273 8.46212 0.556818 7.92519 0.715909 7.48011C0.876894 7.03314 1.10795 6.69223 1.40909 6.45739C1.71212 6.22064 2.07576 6.10227 2.5 6.10227C2.92424 6.10227 3.28693 6.22064 3.58807 6.45739C3.8911 6.69223 4.12216 7.03314 4.28125 7.48011C4.44223 7.92519 4.52273 8.46212 4.52273 9.09091C4.52273 9.72348 4.44318 10.2633 4.28409 10.7102C4.125 11.1553 3.89489 11.4953 3.59375 11.7301C3.29261 11.9631 2.92803 12.0795 2.5 12.0795ZM2.5 11.4545C2.92424 11.4545 3.25379 11.25 3.48864 10.8409C3.72348 10.4318 3.84091 9.84848 3.84091 9.09091C3.84091 8.58712 3.78693 8.15814 3.67898 7.80398C3.57292 7.44981 3.41951 7.17992 3.21875 6.99432C3.01989 6.80871 2.7803 6.71591 2.5 6.71591C2.07955 6.71591 1.75095 6.9233 1.5142 7.33807C1.27746 7.75095 1.15909 8.33523 1.15909 9.09091C1.15909 9.5947 1.21212 10.0227 1.31818 10.375C1.42424 10.7273 1.5767 10.9953 1.77557 11.179C1.97633 11.3627 2.2178 11.4545 2.5 11.4545ZM7.5 12.0795C7.07197 12.0795 6.70739 11.9631 6.40625 11.7301C6.10511 11.4953 5.875 11.1553 5.71591 10.7102C5.55682 10.2633 5.47727 9.72348 5.47727 9.09091C5.47727 8.46212 5.55682 7.92519 5.71591 7.48011C5.87689 7.03314 6.10795 6.69223 6.40909 6.45739C6.71212 6.22064 7.07576 6.10227 7.5 6.10227C7.92424 6.10227 8.28693 6.22064 8.58807 6.45739C8.8911 6.69223 9.12216 7.03314 9.28125 7.48011C9.44223 7.92519 9.52273 8.46212 9.52273 9.09091C9.52273 9.72348 9.44318 10.2633 9.28409 10.7102C9.125 11.1553 8.89489 11.4953 8.59375 11.7301C8.29261 11.9631 7.92803 12.0795 7.5 12.0795ZM7.5 11.4545C7.92424 11.4545 8.25379 11.25 8.48864 10.8409C8.72348 10.4318 8.84091 9.84848 8.84091 9.09091C8.84091 8.58712 8.78693 8.15814 8.67898 7.80398C8.57292 7.44981 8.41951 7.17992 8.21875 6.99432C8.01989 6.80871 7.7803 6.71591 7.5 6.71591C7.07955 6.71591 6.75095 6.9233 6.5142 7.33807C6.27746 7.75095 6.15909 8.33523 6.15909 9.09091C6.15909 9.5947 6.21212 10.0227 6.31818 10.375C6.42424 10.7273 6.5767 10.9953 6.77557 11.179C6.97633 11.3627 7.2178 11.4545 7.5 11.4545Z" fill="#667085"/>
</svg>
