<svg width="52" height="52" viewBox="0 0 52 52" fill="none" xmlns="http://www.w3.org/2000/svg">
<mask id="mask0_100_14400" style="mask-type:luminance" maskUnits="userSpaceOnUse" x="0" y="0" width="52" height="52">
<path d="M0 3.8147e-06H52V52H0V3.8147e-06Z" fill="white"/>
</mask>
<g mask="url(#mask0_100_14400)">
<path d="M51.2383 0.761722C23.3609 0.761722 0.761719 23.3608 0.761719 51.2383" stroke="#C8DEB8" stroke-width="1.52344" stroke-miterlimit="10" stroke-linecap="round" stroke-linejoin="round"/>
<path d="M51.2385 15.4162C31.4545 15.4162 15.4165 31.4543 15.4165 51.2383" stroke="#C8DEB8" stroke-width="1.52344" stroke-miterlimit="10" stroke-linecap="round" stroke-linejoin="round"/>
<path d="M5.26871 47.9815C4.81909 47.2027 5.08589 46.2069 5.86468 45.7572L7.27477 44.9431C8.05355 44.4935 9.04947 44.7603 9.49909 45.5391C9.94871 46.3179 9.6819 47.3137 8.90312 47.7634L7.49293 48.5775C6.71414 49.0271 5.71832 48.7603 5.26871 47.9815Z" stroke="#C8DEB8" stroke-width="1.52344" stroke-miterlimit="10" stroke-linecap="round" stroke-linejoin="round"/>
<path d="M11.1552 40.3201C10.3484 40.7172 9.37238 40.3849 8.97537 39.578L8.25651 38.1171C7.85951 37.3101 8.19172 36.3341 8.99863 35.9371C9.80554 35.5401 10.7815 35.8724 11.1785 36.6793L11.8973 38.1403C12.2943 38.9472 11.9621 39.9231 11.1552 40.3201Z" stroke="#C8DEB8" stroke-width="1.52344" stroke-miterlimit="10" stroke-linecap="round" stroke-linejoin="round"/>
<path d="M12.1412 27.4246C11.5484 26.7484 11.616 25.7197 12.2922 25.1269L13.5165 24.0534C14.1927 23.4605 15.2214 23.5281 15.8143 24.2043C16.4071 24.8805 16.3395 25.9092 15.6634 26.502L14.4391 27.5755C13.7629 28.1684 12.7341 28.1008 12.1412 27.4246Z" stroke="#C8DEB8" stroke-width="1.52344" stroke-miterlimit="10" stroke-linecap="round" stroke-linejoin="round"/>
<path d="M25.7794 13.1907C25.4272 12.3633 25.8124 11.407 26.6399 11.0547L28.1381 10.417C28.9655 10.0648 29.9218 10.45 30.274 11.2775C30.6262 12.1049 30.241 13.0612 29.4135 13.4134L27.9154 14.0511C27.088 14.4033 26.1317 14.0181 25.7794 13.1907Z" stroke="#C8DEB8" stroke-width="1.52344" stroke-miterlimit="10" stroke-linecap="round" stroke-linejoin="round"/>
<path d="M41.2192 12.5991C40.615 11.933 40.6651 10.9033 41.3311 10.2991L42.5371 9.20505C43.2031 8.60075 44.2329 8.65082 44.837 9.31687C45.4412 9.98292 45.3912 11.0127 44.7252 11.617L43.5192 12.711C42.8531 13.3152 41.8235 13.2651 41.2192 12.5991Z" stroke="#C8DEB8" stroke-width="1.52344" stroke-miterlimit="10" stroke-linecap="round" stroke-linejoin="round"/>
<path d="M31.5718 16.1799L32.1808 15.8941C33.0962 15.4646 34.1593 15.4846 35.0578 15.9484L38.3649 17.6553" stroke="#C8DEB8" stroke-width="1.52344" stroke-miterlimit="10" stroke-linecap="round" stroke-linejoin="round"/>
<path d="M17.1465 39.7388L15.0476 34.7016C14.484 33.3488 14.8933 31.7861 16.0478 30.8835L18.2935 29.1278C19.1844 28.4313 19.7454 27.3954 19.8421 26.2685L20.3099 20.8098C20.4706 18.9359 22.1805 17.5873 24.0402 17.8678L25.7983 18.1329C26.5935 18.2528 27.4064 18.1345 28.1344 17.7928L28.5651 17.5907" stroke="#C8DEB8" stroke-width="1.52344" stroke-miterlimit="10" stroke-linecap="round" stroke-linejoin="round"/>
<path d="M51.2383 6.25729L46.1818 4.99314C45.2327 4.75589 44.2342 4.80911 43.3155 5.14589L40.4129 6.21016C39.2597 6.63307 37.9894 6.60595 36.8553 6.13419L32.6763 4.39595" stroke="#C8DEB8" stroke-width="1.52344" stroke-miterlimit="10" stroke-linecap="round" stroke-linejoin="round"/>
</g>
</svg>
