<svg width="24" height="24" viewBox="0 0 24 24" fill="none" xmlns="http://www.w3.org/2000/svg">
<g id="Heart Rate">
<path id="Vector" d="M19.1034 4.26222C17.3523 2.69174 14.5219 2.29088 12.0148 4.79302C9.50769 2.2952 6.68128 2.69595 4.9262 4.26222C2.74811 6.21584 2.00041 10.0455 4.91269 13.2995L11.6772 20.8515C11.7625 20.946 11.884 21 12.0148 21C12.1456 21 12.2621 20.946 12.3524 20.8515L19.1169 13.2995C22.0291 10.0496 21.2866 6.21498 19.1034 4.26222ZM5.52937 4.93312C6.1952 4.33481 7.10914 3.90273 8.13521 3.90273C9.2424 3.90273 10.4753 4.40653 11.6821 5.74834C11.8534 5.93737 12.1817 5.93737 12.353 5.74834C14.6711 3.16022 17.1151 3.69177 18.5057 4.93399C20.0003 6.27071 20.6795 8.6563 19.5817 11.0057H16.2061L14.9141 8.04859C14.8424 7.88656 14.6804 7.77854 14.5048 7.77854C14.3251 7.77854 14.1673 7.88234 14.0905 8.04859L12.1909 12.3516L10.4128 6.90597C10.3545 6.73044 10.1967 6.60892 10.0119 6.59542C9.82289 6.58614 9.65665 6.68572 9.57563 6.85196L8.20261 9.73713L4.03051 9.7346C3.63473 7.83078 4.30984 6.03065 5.52926 4.9321L5.52937 4.93312ZM12.0148 19.876L5.58338 12.6971C4.98507 12.0262 4.5665 11.3291 4.29137 10.6354H8.47709C8.65262 10.6354 8.81043 10.5367 8.88216 10.3789L9.89062 8.2548L11.6864 13.746C11.7447 13.9216 11.9067 14.0473 12.0915 14.0566H12.1143C12.2898 14.0566 12.4518 13.9528 12.5286 13.7865L14.4907 9.34848L15.4899 11.6346C15.5616 11.7966 15.7236 11.9046 15.9042 11.9046H19.0545C18.8747 12.1705 18.6764 12.4354 18.4426 12.6971L12.0112 19.876H12.0148Z" fill="#00625B"/>
</g>
</svg>
