<svg width="133" height="309" viewBox="0 0 133 309" fill="none" xmlns="http://www.w3.org/2000/svg">
<path d="M116.733 1.5091L116.733 307.173M101.581 0.850342H131.884M101.581 307.832H131.884M79.7475 153.036C79.7475 150.431 79.3416 146.296 79.3416 138.658C79.5227 132.724 76.6434 120.907 76.6434 118.302C76.3748 110.439 73.3643 101.813 73.2706 99.8772C73.4955 96.823 72.8646 91.4765 72.4149 88.2412C70.6598 81.2333 65.4071 77.0549 59.3861 76.3304C53.3651 75.6121 47.2504 70.172 47.2504 69.004V64.5195L48.1124 63.9386C49.5864 62.9455 50.4983 61.3154 50.5795 59.5415L50.7044 56.7746C53.3651 55.6254 52.447 49.8418 51.0167 50.0416L51.0604 49.0423C51.0854 48.7362 51.1041 48.4302 51.1041 48.1179C51.1041 42.2531 46.351 37.5 40.4862 37.5C34.6214 37.5 29.8683 42.2531 29.8683 48.1179C29.8683 48.4302 29.887 48.7362 29.912 49.0423L29.9557 50.0416C28.5192 49.8418 27.6073 55.6254 30.268 56.7746L30.3929 59.5415C30.4741 61.3154 31.3922 62.9455 32.86 63.9386L33.722 64.5195V69.004C33.722 70.172 27.6135 75.6121 21.5863 76.3304C15.5653 77.0486 10.3063 81.2271 8.55746 88.2412C8.10776 91.4765 7.47693 96.823 7.70178 99.8772C7.61434 101.807 4.60385 110.439 4.32903 118.302C4.32903 120.907 1.45595 132.724 1.63083 138.658C1.63083 146.296 1.22485 150.431 1.22485 153.036C1.22485 155.64 1 163.191 1 164.628C1 166.064 6.48385 174.065 7.92039 174.602C9.35693 175.14 7.42697 172.672 7.10843 171.323C6.78989 169.974 5.08478 164.447 5.44704 163.953C5.8093 163.46 6.12159 162.56 6.79614 164.041C7.47069 165.521 8.90723 168.488 9.80663 168.357C10.706 168.219 9.35693 164.222 9.35693 163.591C9.35693 162.96 9.1758 156.983 8.05155 154.691C8.09527 153.791 8.05155 153.254 8.05155 151.992C8.05155 150.731 10.7498 142.33 12.0489 139.095C13.3543 135.859 14.566 127.278 14.8345 122.737C15.1031 118.196 16.4522 114.199 17.1268 112.175C17.8013 110.152 18.3384 108.403 18.7881 108.265C19.9124 108.534 20.6244 125.298 20.7806 132.012C20.9367 138.733 18.0137 154.622 17.9325 164.428C17.8513 174.234 19.9873 184.271 20.9367 189.886C21.8861 195.501 22.3608 203.639 22.3608 207.993C22.3608 212.346 20.462 216.137 21.0179 223.332C21.5738 230.528 25.8397 241.989 26.9452 247.448C28.0507 252.9 29.8683 260.177 29.556 261.913C29.2374 263.649 24.1034 267.447 24.0222 269.027C23.941 270.607 27.5823 270.688 29.2374 271.082C30.8988 271.475 36.1141 273.693 37.2196 271.638C38.3251 269.583 37.5382 266.579 37.2196 265.073C36.9011 263.574 35.8768 247.441 35.8768 243.175C35.8768 238.91 36.8261 227.917 36.8261 224.438C36.8261 220.959 34.6151 211.078 35.1647 207.362C35.7206 203.646 36.9823 203.171 37.3008 199.298C37.6193 195.426 39.5118 161.349 40.4612 160.087C41.4106 161.355 43.3093 195.426 43.6216 199.298C43.9401 203.171 45.2018 203.646 45.7577 207.362C46.3136 211.078 44.0963 220.959 44.0963 224.438C44.0963 227.917 45.0457 238.903 45.0457 243.175C45.0457 247.448 44.0151 263.574 43.7028 265.073C43.3843 266.579 42.5973 269.577 43.7028 271.638C44.8083 273.693 50.0298 271.482 51.685 271.082C53.3464 270.688 56.9815 270.607 56.9003 269.027C56.8191 267.447 51.685 263.649 51.3664 261.913C51.0479 260.177 52.8717 252.9 53.9772 247.448C55.0827 241.995 59.3549 230.528 59.9045 223.332C60.4604 216.137 58.5617 212.346 58.5617 207.993C58.5617 203.639 59.0363 195.501 59.9857 189.886C60.9351 184.271 63.0711 174.234 62.99 164.428C62.9088 154.622 59.9857 138.733 60.1418 132.012C60.298 125.291 61.01 108.534 62.1343 108.265C62.584 108.403 63.1211 110.152 63.7957 112.175C64.4702 114.199 65.8193 118.196 66.0879 122.737C66.3565 127.278 67.5681 135.859 68.8735 139.095C70.1789 142.33 72.8709 150.731 72.8709 151.992C72.8709 153.254 72.8271 153.791 72.8709 154.691C71.7466 156.983 71.5655 162.96 71.5655 163.591C71.5655 164.222 70.2164 168.219 71.1158 168.357C72.0152 168.494 73.4517 165.527 74.1263 164.041C74.8008 162.56 75.1131 163.454 75.4754 163.953C75.8376 164.447 74.1263 169.974 73.814 171.323C73.5017 172.672 71.5655 175.146 73.002 174.602C74.4386 174.065 79.9224 166.064 79.9224 164.628C79.9224 163.191 79.6976 155.64 79.6976 153.036H79.7475Z" stroke="#80C6C0" stroke-width="1.31752" stroke-linecap="round"/>
</svg>
