<svg width="21" height="16" viewBox="0 0 21 16" fill="none" xmlns="http://www.w3.org/2000/svg">
<path d="M18.7734 10.7296H17.3559C17.2988 10.7296 17.2426 10.7439 17.1931 10.7716L16.8909 10.9394L14.6039 8.67169C14.5393 8.60706 14.4461 8.57098 14.3588 8.57433C14.2674 8.57685 14.1809 8.6163 14.1196 8.68428L12.2027 10.7993L11.2661 9.3834C11.199 9.28268 11.0739 9.22226 10.9648 9.234C10.8439 9.24156 10.7374 9.3129 10.6845 9.42116L9.77218 11.2844L7.51284 6.92347C7.45577 6.81353 7.34163 6.74303 7.21742 6.74219C7.21574 6.74219 7.21406 6.74219 7.21406 6.74219C7.09153 6.74219 6.97738 6.81017 6.91863 6.9176L4.84058 10.7607H2.50319C2.31771 10.7607 2.16748 10.9109 2.16748 11.0964C2.16748 11.2818 2.31855 11.4321 2.50319 11.4321H5.04033C5.16286 11.4321 5.27701 11.3641 5.33576 11.2567L7.20651 7.79548L9.48095 12.1841C9.53886 12.2957 9.65384 12.3654 9.77889 12.3654C9.78057 12.3654 9.78141 12.3654 9.78309 12.3654C9.90898 12.3645 10.0248 12.2915 10.0802 12.1774L11.0277 10.242L11.8796 11.5294C11.9367 11.6159 12.0315 11.6713 12.1347 11.6788C12.2355 11.683 12.3395 11.6461 12.4092 11.5697L14.3807 9.39431L16.5972 11.5924C16.7029 11.6981 16.8649 11.7199 16.9967 11.6469L17.4423 11.3993H18.7734C18.9589 11.3993 19.1092 11.2491 19.1092 11.0636C19.1092 10.8782 18.9589 10.7296 18.7734 10.7296Z" fill="#00635B"/>
<path d="M15.7488 0.14545C13.8269 0.000255197 11.7556 0.733784 10.4824 2.36366C9.00525 0.508019 6.37327 -0.333778 4.00734 0.374573C1.81179 1.03257 0.5 2.85212 0.5 5.24239C0.5 6.47696 0.995174 7.86177 1.97125 9.35653C2.03588 9.45472 2.14331 9.50844 2.25241 9.50844C2.31536 9.50844 2.37914 9.49081 2.43621 9.45388C2.59148 9.35233 2.63512 9.14419 2.53357 8.98892C1.63051 7.60495 1.17226 6.34436 1.17226 5.24155C1.17226 3.13328 2.27507 1.59404 4.19954 1.01746C6.07197 0.456823 8.65611 0.956193 10.0896 2.94612C9.73038 3.5546 9.46601 4.25707 9.34096 5.06446C9.31326 5.24742 9.43831 5.41947 9.62212 5.44801C9.81347 5.47738 9.97713 5.34981 10.0048 5.16769C10.1274 4.37206 10.4001 3.68804 10.7778 3.11062L10.7786 3.10978C11.8756 1.4329 13.8655 0.672517 15.6968 0.815194C17.6028 0.961229 19.8277 2.2084 19.8277 5.24239C19.8277 6.34436 19.3695 7.60579 18.4664 8.9906C18.3649 9.14587 18.4094 9.35401 18.5638 9.45556C18.62 9.49249 18.6846 9.51012 18.7476 9.51012C18.8567 9.51012 18.9641 9.4564 19.0287 9.35821C20.0048 7.86261 20.5 6.4778 20.5 5.24323C20.5017 1.74847 17.9419 0.312467 15.7488 0.14545Z" fill="#00635B"/>
<path d="M15.2227 12.1683L15.0532 12.3193V12.3202C14.8979 12.4578 14.7435 12.5845 14.5899 12.7138C14.485 12.8019 14.3784 12.8959 14.2743 12.9798C14.1644 13.0696 14.0578 13.1494 13.9495 13.2341C13.8144 13.3399 13.6776 13.4498 13.5458 13.548C13.4846 13.5933 13.4275 13.632 13.3679 13.6756C13.195 13.8023 13.0213 13.9282 12.8568 14.0407C12.8492 14.0457 12.8425 14.0499 12.835 14.0549C11.9714 14.6416 11.2403 15.0268 10.7871 15.1578C10.7611 15.1653 10.746 15.1636 10.7217 15.1695C10.6394 15.1897 10.5589 15.2081 10.5001 15.2081C10.4246 15.2081 10.3289 15.1913 10.2164 15.1586C10.2005 15.1544 10.1787 15.1443 10.1619 15.1393C10.0603 15.1074 9.95121 15.0688 9.82616 15.0142C9.80854 15.0067 9.78672 14.9949 9.76909 14.9865C9.63732 14.927 9.498 14.8598 9.34441 14.7784C9.32511 14.7683 9.30245 14.7541 9.28231 14.7432C9.1262 14.6584 8.96254 14.5644 8.78797 14.4578C8.76028 14.441 8.72922 14.42 8.70153 14.4024C8.53283 14.2975 8.3591 14.1859 8.17782 14.0625C8.12914 14.0298 8.07794 13.992 8.02843 13.9576C7.86393 13.8443 7.69775 13.726 7.5257 13.5984C7.45016 13.5422 7.37211 13.4817 7.2949 13.423C7.14635 13.3097 6.99611 13.1939 6.84337 13.0713C6.74097 12.9891 6.6369 12.9009 6.53283 12.8145C6.36162 12.6718 6.19041 12.5308 6.01668 12.3781C5.87736 12.2555 5.66586 12.269 5.54332 12.4083C5.42079 12.5476 5.43422 12.7591 5.5727 12.8816C5.64823 12.9479 5.72293 13.0075 5.79846 13.0722C5.8035 13.0772 5.80518 13.0831 5.81105 13.0881C5.91177 13.1745 6.01836 13.2602 6.12243 13.3458C6.21391 13.4221 6.30539 13.4993 6.39603 13.5724C6.49674 13.6538 6.59914 13.731 6.70153 13.8107C7.16565 14.1724 7.6155 14.4956 8.04269 14.7751C8.17446 14.8615 8.30539 14.9488 8.4338 15.0277C8.47324 15.052 8.50933 15.0713 8.54878 15.094C9.1346 15.4448 9.67677 15.7083 10.1073 15.8166C10.2433 15.8518 10.3633 15.8678 10.4707 15.8711C10.48 15.8711 10.4925 15.8753 10.5009 15.8753C10.5479 15.8753 10.6092 15.8586 10.6621 15.8518C10.7359 15.8426 10.8039 15.8401 10.8887 15.8191C11.4636 15.6731 12.2785 15.245 13.1942 14.624C13.2059 14.6164 13.2168 14.6097 13.2286 14.6022C13.4015 14.4847 13.5794 14.3546 13.7582 14.2236C13.8245 14.175 13.8883 14.1322 13.9554 14.0818C14.0863 13.9836 14.2198 13.8762 14.3532 13.7713C14.4724 13.6773 14.5907 13.5883 14.7108 13.4901C14.8064 13.4121 14.903 13.3273 14.9986 13.2459C15.1421 13.125 15.2857 13.0075 15.4292 12.8816C15.4317 12.8791 15.4325 12.8758 15.4351 12.8741C15.456 12.8556 15.4762 12.8397 15.4972 12.8212L15.6751 12.6617C15.8119 12.5367 15.822 12.3244 15.6961 12.1876C15.5719 12.0516 15.3587 12.044 15.2227 12.1683Z" fill="#00635B"/>
</svg>
