<svg width="312" height="226" viewBox="0 0 312 226" fill="none" xmlns="http://www.w3.org/2000/svg">
<rect x="0.05" y="0.05" width="311.9" height="225.9" rx="31.95" fill="white"/>
<rect x="0.05" y="0.05" width="311.9" height="225.9" rx="31.95" stroke="#00625B" stroke-width="0.1"/>
<path d="M68.1971 19.6364C68.163 19.3485 68.0248 19.125 67.7823 18.9659C67.5399 18.8068 67.2426 18.7273 66.8903 18.7273C66.6327 18.7273 66.4073 18.7689 66.2142 18.8523C66.0229 18.9356 65.8732 19.0502 65.7653 19.196C65.6592 19.3419 65.6062 19.5076 65.6062 19.6932C65.6062 19.8485 65.6431 19.982 65.717 20.0938C65.7928 20.2036 65.8893 20.2955 66.0068 20.3693C66.1242 20.4413 66.2473 20.5009 66.3761 20.5483C66.5049 20.5937 66.6232 20.6307 66.7312 20.6591L67.3221 20.8182C67.4736 20.858 67.6422 20.9129 67.8278 20.983C68.0153 21.053 68.1943 21.1487 68.3647 21.2699C68.5371 21.3892 68.6791 21.5426 68.7909 21.7301C68.9026 21.9176 68.9585 22.1477 68.9585 22.4205C68.9585 22.7348 68.8761 23.0189 68.7113 23.2727C68.5484 23.5265 68.3098 23.7282 67.9954 23.8778C67.6829 24.0275 67.3032 24.1023 66.8562 24.1023C66.4395 24.1023 66.0787 24.035 65.7738 23.9006C65.4708 23.7661 65.2321 23.5786 65.0579 23.3381C64.8856 23.0975 64.788 22.8182 64.7653 22.5H65.4926C65.5115 22.7197 65.5854 22.9015 65.7142 23.0455C65.8448 23.1875 66.0096 23.2936 66.2085 23.3636C66.4092 23.4318 66.6251 23.4659 66.8562 23.4659C67.1251 23.4659 67.3666 23.4223 67.5806 23.3352C67.7946 23.2462 67.9642 23.1231 68.0892 22.9659C68.2142 22.8068 68.2767 22.6212 68.2767 22.4091C68.2767 22.2159 68.2227 22.0587 68.1147 21.9375C68.0068 21.8163 67.8647 21.7178 67.6886 21.642C67.5124 21.5663 67.3221 21.5 67.1176 21.4432L66.4017 21.2386C65.9471 21.108 65.5873 20.9214 65.3221 20.679C65.057 20.4366 64.9244 20.1193 64.9244 19.7273C64.9244 19.4015 65.0124 19.1174 65.1886 18.875C65.3666 18.6307 65.6053 18.4413 65.9045 18.3068C66.2056 18.1705 66.5418 18.1023 66.913 18.1023C67.288 18.1023 67.6214 18.1695 67.913 18.304C68.2047 18.4366 68.4357 18.6184 68.6062 18.8494C68.7785 19.0805 68.8695 19.3428 68.8789 19.6364H68.1971ZM70.0259 24V19.6364H70.6964V24H70.0259ZM70.3669 18.9091C70.2362 18.9091 70.1235 18.8646 70.0288 18.7756C69.936 18.6866 69.8896 18.5795 69.8896 18.4545C69.8896 18.3295 69.936 18.2225 70.0288 18.1335C70.1235 18.0445 70.2362 18 70.3669 18C70.4975 18 70.6093 18.0445 70.7021 18.1335C70.7968 18.2225 70.8441 18.3295 70.8441 18.4545C70.8441 18.5795 70.7968 18.6866 70.7021 18.7756C70.6093 18.8646 70.4975 18.9091 70.3669 18.9091ZM73.6857 25.7273C73.3619 25.7273 73.0835 25.6856 72.8505 25.6023C72.6176 25.5208 72.4234 25.4129 72.2681 25.2784C72.1147 25.1458 71.9926 25.0038 71.9017 24.8523L72.4357 24.4773C72.4964 24.5568 72.5731 24.6477 72.6659 24.75C72.7587 24.8542 72.8856 24.9441 73.0465 25.0199C73.2094 25.0975 73.4225 25.1364 73.6857 25.1364C74.038 25.1364 74.3287 25.0511 74.5579 24.8807C74.7871 24.7102 74.9017 24.4432 74.9017 24.0795V23.1932H74.8448C74.7956 23.2727 74.7255 23.3712 74.6346 23.4886C74.5456 23.6042 74.4168 23.7074 74.2482 23.7983C74.0816 23.8873 73.8562 23.9318 73.5721 23.9318C73.2198 23.9318 72.9035 23.8485 72.6232 23.6818C72.3448 23.5152 72.1242 23.2727 71.9613 22.9545C71.8003 22.6364 71.7198 22.25 71.7198 21.7955C71.7198 21.3485 71.7984 20.9593 71.9556 20.6278C72.1128 20.2945 72.3316 20.0369 72.6119 19.8551C72.8922 19.6714 73.216 19.5795 73.5835 19.5795C73.8676 19.5795 74.0929 19.6269 74.2596 19.7216C74.4282 19.8144 74.557 19.9205 74.646 20.0398C74.7369 20.1572 74.807 20.2538 74.8562 20.3295H74.9244V19.6364H75.5721V24.125C75.5721 24.5 75.4869 24.8049 75.3164 25.0398C75.1479 25.2765 74.9206 25.4498 74.6346 25.5597C74.3505 25.6714 74.0342 25.7273 73.6857 25.7273ZM73.663 23.3295C73.932 23.3295 74.1592 23.268 74.3448 23.1449C74.5304 23.0218 74.6715 22.8447 74.7681 22.6136C74.8647 22.3826 74.913 22.1061 74.913 21.7841C74.913 21.4697 74.8657 21.1922 74.771 20.9517C74.6763 20.7112 74.5361 20.5227 74.3505 20.3864C74.1649 20.25 73.9357 20.1818 73.663 20.1818C73.3789 20.1818 73.1422 20.2538 72.9528 20.3977C72.7653 20.5417 72.6242 20.7348 72.5295 20.9773C72.4367 21.2197 72.3903 21.4886 72.3903 21.7841C72.3903 22.0871 72.4376 22.3551 72.5323 22.5881C72.6289 22.8191 72.771 23.0009 72.9585 23.1335C73.1479 23.2642 73.3827 23.3295 73.663 23.3295ZM77.4698 21.375V24H76.7994V19.6364H77.4471V20.3182H77.5039C77.6062 20.0966 77.7615 19.9186 77.9698 19.7841C78.1782 19.6477 78.4471 19.5795 78.7767 19.5795C79.0721 19.5795 79.3306 19.6402 79.5522 19.7614C79.7738 19.8807 79.9462 20.0625 80.0693 20.3068C80.1924 20.5492 80.2539 20.8561 80.2539 21.2273V24H79.5835V21.2727C79.5835 20.9299 79.4945 20.6629 79.3164 20.4716C79.1384 20.2784 78.8941 20.1818 78.5835 20.1818C78.3695 20.1818 78.1782 20.2282 78.0096 20.321C77.8429 20.4138 77.7113 20.5492 77.6147 20.7273C77.5181 20.9053 77.4698 21.1212 77.4698 21.375ZM82.7632 24.1023C82.4866 24.1023 82.2357 24.0502 82.0103 23.946C81.7849 23.84 81.606 23.6875 81.4734 23.4886C81.3408 23.2879 81.2745 23.0455 81.2745 22.7614C81.2745 22.5114 81.3238 22.3087 81.4223 22.1534C81.5207 21.9962 81.6524 21.8731 81.8171 21.7841C81.9819 21.6951 82.1637 21.6288 82.3626 21.5852C82.5633 21.5398 82.7651 21.5038 82.9677 21.4773C83.2329 21.4432 83.4478 21.4176 83.6126 21.4006C83.7793 21.3816 83.9005 21.3504 83.9762 21.3068C84.0539 21.2633 84.0927 21.1875 84.0927 21.0795V21.0568C84.0927 20.7765 84.016 20.5587 83.8626 20.4034C83.7111 20.2481 83.481 20.1705 83.1723 20.1705C82.8522 20.1705 82.6012 20.2405 82.4194 20.3807C82.2376 20.5208 82.1098 20.6705 82.0359 20.8295L81.3995 20.6023C81.5132 20.3371 81.6647 20.1307 81.8541 19.983C82.0454 19.8333 82.2537 19.7292 82.4791 19.6705C82.7063 19.6098 82.9298 19.5795 83.1495 19.5795C83.2897 19.5795 83.4507 19.5966 83.6325 19.6307C83.8162 19.6629 83.9933 19.7301 84.1637 19.8324C84.3361 19.9347 84.4791 20.089 84.5927 20.2955C84.7063 20.5019 84.7632 20.7784 84.7632 21.125V24H84.0927V23.4091H84.0586C84.0132 23.5038 83.9374 23.6051 83.8313 23.7131C83.7253 23.821 83.5842 23.9129 83.408 23.9886C83.2319 24.0644 83.0169 24.1023 82.7632 24.1023ZM82.8654 23.5C83.1306 23.5 83.3541 23.4479 83.5359 23.3438C83.7196 23.2396 83.8579 23.1051 83.9507 22.9403C84.0454 22.7756 84.0927 22.6023 84.0927 22.4205V21.8068C84.0643 21.8409 84.0018 21.8722 83.9052 21.9006C83.8105 21.9271 83.7007 21.9508 83.5757 21.9716C83.4526 21.9905 83.3323 22.0076 83.2149 22.0227C83.0993 22.036 83.0056 22.0473 82.9336 22.0568C82.7594 22.0795 82.5965 22.1165 82.445 22.1676C82.2954 22.2169 82.1741 22.2917 82.0813 22.392C81.9904 22.4905 81.945 22.625 81.945 22.7955C81.945 23.0284 82.0312 23.2045 82.2035 23.3239C82.3777 23.4413 82.5984 23.5 82.8654 23.5ZM86.6573 18.1818V24H85.9869V18.1818H86.6573ZM90.9762 20.6136L90.374 20.7841C90.3361 20.6837 90.2802 20.5862 90.2063 20.4915C90.1344 20.3949 90.0359 20.3153 89.9109 20.2528C89.7859 20.1903 89.6258 20.1591 89.4308 20.1591C89.1637 20.1591 88.9412 20.2206 88.7632 20.3438C88.587 20.465 88.499 20.6193 88.499 20.8068C88.499 20.9735 88.5596 21.1051 88.6808 21.2017C88.802 21.2983 88.9914 21.3788 89.249 21.4432L89.8967 21.6023C90.2868 21.697 90.5776 21.8419 90.7688 22.0369C90.9601 22.2301 91.0558 22.4792 91.0558 22.7841C91.0558 23.0341 90.9838 23.2576 90.8399 23.4545C90.6978 23.6515 90.499 23.8068 90.2433 23.9205C89.9876 24.0341 89.6902 24.0909 89.3512 24.0909C88.9062 24.0909 88.5378 23.9943 88.2461 23.8011C87.9544 23.608 87.7698 23.3258 87.6921 22.9545L88.3285 22.7955C88.3891 23.0303 88.5037 23.2064 88.6723 23.3239C88.8427 23.4413 89.0652 23.5 89.3399 23.5C89.6524 23.5 89.9005 23.4337 90.0842 23.3011C90.2698 23.1667 90.3626 23.0057 90.3626 22.8182C90.3626 22.6667 90.3096 22.5398 90.2035 22.4375C90.0974 22.3333 89.9346 22.2557 89.7149 22.2045L88.9876 22.0341C88.588 21.9394 88.2944 21.7926 88.1069 21.5938C87.9213 21.393 87.8285 21.142 87.8285 20.8409C87.8285 20.5947 87.8976 20.3769 88.0359 20.1875C88.176 19.9981 88.3664 19.8494 88.6069 19.7415C88.8493 19.6335 89.124 19.5795 89.4308 19.5795C89.8626 19.5795 90.2016 19.6742 90.4478 19.8636C90.6959 20.053 90.8721 20.303 90.9762 20.6136ZM95.5991 24.1023C95.3226 24.1023 95.0716 24.0502 94.8463 23.946C94.6209 23.84 94.4419 23.6875 94.3093 23.4886C94.1767 23.2879 94.1105 23.0455 94.1105 22.7614C94.1105 22.5114 94.1597 22.3087 94.2582 22.1534C94.3567 21.9962 94.4883 21.8731 94.6531 21.7841C94.8178 21.6951 94.9997 21.6288 95.1985 21.5852C95.3993 21.5398 95.601 21.5038 95.8036 21.4773C96.0688 21.4432 96.2838 21.4176 96.4485 21.4006C96.6152 21.3816 96.7364 21.3504 96.8122 21.3068C96.8898 21.2633 96.9286 21.1875 96.9286 21.0795V21.0568C96.9286 20.7765 96.8519 20.5587 96.6985 20.4034C96.547 20.2481 96.3169 20.1705 96.0082 20.1705C95.6881 20.1705 95.4372 20.2405 95.2553 20.3807C95.0735 20.5208 94.9457 20.6705 94.8718 20.8295L94.2355 20.6023C94.3491 20.3371 94.5006 20.1307 94.69 19.983C94.8813 19.8333 95.0896 19.7292 95.315 19.6705C95.5423 19.6098 95.7658 19.5795 95.9855 19.5795C96.1256 19.5795 96.2866 19.5966 96.4684 19.6307C96.6521 19.6629 96.8292 19.7301 96.9997 19.8324C97.172 19.9347 97.315 20.089 97.4286 20.2955C97.5423 20.5019 97.5991 20.7784 97.5991 21.125V24H96.9286V23.4091H96.8946C96.8491 23.5038 96.7733 23.6051 96.6673 23.7131C96.5612 23.821 96.4201 23.9129 96.244 23.9886C96.0678 24.0644 95.8529 24.1023 95.5991 24.1023ZM95.7014 23.5C95.9665 23.5 96.19 23.4479 96.3718 23.3438C96.5555 23.2396 96.6938 23.1051 96.7866 22.9403C96.8813 22.7756 96.9286 22.6023 96.9286 22.4205V21.8068C96.9002 21.8409 96.8377 21.8722 96.7411 21.9006C96.6464 21.9271 96.5366 21.9508 96.4116 21.9716C96.2885 21.9905 96.1682 22.0076 96.0508 22.0227C95.9353 22.036 95.8415 22.0473 95.7696 22.0568C95.5953 22.0795 95.4324 22.1165 95.2809 22.1676C95.1313 22.2169 95.0101 22.2917 94.9173 22.392C94.8264 22.4905 94.7809 22.625 94.7809 22.7955C94.7809 23.0284 94.8671 23.2045 95.0394 23.3239C95.2137 23.4413 95.4343 23.5 95.7014 23.5ZM101.743 21.375V24H101.073V19.6364H101.721V20.3182H101.777C101.88 20.0966 102.035 19.9186 102.243 19.7841C102.452 19.6477 102.721 19.5795 103.05 19.5795C103.346 19.5795 103.604 19.6402 103.826 19.7614C104.047 19.8807 104.22 20.0625 104.343 20.3068C104.466 20.5492 104.527 20.8561 104.527 21.2273V24H103.857V21.2727C103.857 20.9299 103.768 20.6629 103.59 20.4716C103.412 20.2784 103.168 20.1818 102.857 20.1818C102.643 20.1818 102.452 20.2282 102.283 20.321C102.116 20.4138 101.985 20.5492 101.888 20.7273C101.792 20.9053 101.743 21.1212 101.743 21.375ZM107.582 24.0909C107.162 24.0909 106.799 23.9981 106.494 23.8125C106.191 23.625 105.957 23.3636 105.792 23.0284C105.629 22.6913 105.548 22.2992 105.548 21.8523C105.548 21.4053 105.629 21.0114 105.792 20.6705C105.957 20.3277 106.186 20.0606 106.48 19.8693C106.775 19.6761 107.12 19.5795 107.514 19.5795C107.741 19.5795 107.966 19.6174 108.187 19.6932C108.409 19.7689 108.61 19.892 108.792 20.0625C108.974 20.2311 109.119 20.4545 109.227 20.733C109.335 21.0114 109.389 21.3542 109.389 21.7614V22.0455H106.025V21.4659H108.707C108.707 21.2197 108.658 21 108.559 20.8068C108.463 20.6136 108.324 20.4612 108.145 20.3494C107.967 20.2377 107.756 20.1818 107.514 20.1818C107.247 20.1818 107.016 20.2481 106.821 20.3807C106.628 20.5114 106.479 20.6818 106.375 20.892C106.27 21.1023 106.218 21.3277 106.218 21.5682V21.9545C106.218 22.2841 106.275 22.5634 106.389 22.7926C106.504 23.0199 106.664 23.1932 106.869 23.3125C107.074 23.4299 107.311 23.4886 107.582 23.4886C107.758 23.4886 107.917 23.464 108.059 23.4148C108.203 23.3636 108.327 23.2879 108.431 23.1875C108.536 23.0852 108.616 22.9583 108.673 22.8068L109.321 22.9886C109.253 23.2083 109.138 23.4015 108.977 23.5682C108.816 23.733 108.617 23.8617 108.38 23.9545C108.144 24.0455 107.878 24.0909 107.582 24.0909ZM112.238 24.0909C111.818 24.0909 111.455 23.9981 111.15 23.8125C110.847 23.625 110.613 23.3636 110.449 23.0284C110.286 22.6913 110.204 22.2992 110.204 21.8523C110.204 21.4053 110.286 21.0114 110.449 20.6705C110.613 20.3277 110.842 20.0606 111.136 19.8693C111.431 19.6761 111.776 19.5795 112.17 19.5795C112.397 19.5795 112.622 19.6174 112.843 19.6932C113.065 19.7689 113.267 19.892 113.449 20.0625C113.63 20.2311 113.775 20.4545 113.883 20.733C113.991 21.0114 114.045 21.3542 114.045 21.7614V22.0455H110.681V21.4659H113.363C113.363 21.2197 113.314 21 113.216 20.8068C113.119 20.6136 112.981 20.4612 112.801 20.3494C112.623 20.2377 112.413 20.1818 112.17 20.1818C111.903 20.1818 111.672 20.2481 111.477 20.3807C111.284 20.5114 111.135 20.6818 111.031 20.892C110.927 21.1023 110.875 21.3277 110.875 21.5682V21.9545C110.875 22.2841 110.931 22.5634 111.045 22.7926C111.161 23.0199 111.321 23.1932 111.525 23.3125C111.73 23.4299 111.967 23.4886 112.238 23.4886C112.414 23.4886 112.574 23.464 112.716 23.4148C112.86 23.3636 112.984 23.2879 113.088 23.1875C113.192 23.0852 113.272 22.9583 113.329 22.8068L113.977 22.9886C113.909 23.2083 113.794 23.4015 113.633 23.5682C113.472 23.733 113.273 23.8617 113.037 23.9545C112.8 24.0455 112.534 24.0909 112.238 24.0909ZM116.713 24.0909C116.349 24.0909 116.028 23.9991 115.75 23.8153C115.471 23.6297 115.253 23.3684 115.096 23.0312C114.939 22.6922 114.86 22.2917 114.86 21.8295C114.86 21.3712 114.939 20.9735 115.096 20.6364C115.253 20.2992 115.472 20.0388 115.753 19.8551C116.033 19.6714 116.357 19.5795 116.724 19.5795C117.008 19.5795 117.233 19.6269 117.397 19.7216C117.564 19.8144 117.691 19.9205 117.778 20.0398C117.867 20.1572 117.936 20.2538 117.985 20.3295H118.042V18.1818H118.713V24H118.065V23.3295H117.985C117.936 23.4091 117.866 23.5095 117.775 23.6307C117.684 23.75 117.555 23.857 117.386 23.9517C117.217 24.0445 116.993 24.0909 116.713 24.0909ZM116.804 23.4886C117.073 23.4886 117.3 23.4186 117.485 23.2784C117.671 23.1364 117.812 22.9403 117.909 22.6903C118.005 22.4384 118.054 22.1477 118.054 21.8182C118.054 21.4924 118.006 21.2074 117.912 20.9631C117.817 20.7169 117.677 20.5256 117.491 20.3892C117.306 20.2509 117.076 20.1818 116.804 20.1818C116.52 20.1818 116.283 20.2547 116.093 20.4006C115.906 20.5445 115.765 20.7405 115.67 20.9886C115.577 21.2348 115.531 21.5114 115.531 21.8182C115.531 22.1288 115.578 22.411 115.673 22.6648C115.77 22.9167 115.912 23.1174 116.099 23.267C116.288 23.4148 116.523 23.4886 116.804 23.4886ZM124.227 19.6364V20.2045H121.875V19.6364H124.227ZM122.579 24V19.0341C122.579 18.7841 122.638 18.5758 122.755 18.4091C122.873 18.2424 123.025 18.1174 123.213 18.0341C123.4 17.9508 123.598 17.9091 123.806 17.9091C123.971 17.9091 124.106 17.9223 124.21 17.9489C124.314 17.9754 124.392 18 124.443 18.0227L124.25 18.6023C124.216 18.5909 124.168 18.5767 124.108 18.5597C124.049 18.5426 123.971 18.5341 123.875 18.5341C123.653 18.5341 123.493 18.59 123.395 18.7017C123.298 18.8134 123.25 18.9773 123.25 19.1932V24H122.579ZM126.76 24.0909C126.366 24.0909 126.02 23.9972 125.723 23.8097C125.427 23.6222 125.196 23.3598 125.029 23.0227C124.865 22.6856 124.782 22.2917 124.782 21.8409C124.782 21.3864 124.865 20.9896 125.029 20.6506C125.196 20.3116 125.427 20.0483 125.723 19.8608C126.02 19.6733 126.366 19.5795 126.76 19.5795C127.154 19.5795 127.498 19.6733 127.794 19.8608C128.091 20.0483 128.322 20.3116 128.487 20.6506C128.654 20.9896 128.737 21.3864 128.737 21.8409C128.737 22.2917 128.654 22.6856 128.487 23.0227C128.322 23.3598 128.091 23.6222 127.794 23.8097C127.498 23.9972 127.154 24.0909 126.76 24.0909ZM126.76 23.4886C127.059 23.4886 127.305 23.4119 127.498 23.2585C127.691 23.1051 127.834 22.9034 127.927 22.6534C128.02 22.4034 128.066 22.1326 128.066 21.8409C128.066 21.5492 128.02 21.2775 127.927 21.0256C127.834 20.7737 127.691 20.5701 127.498 20.4148C127.305 20.2595 127.059 20.1818 126.76 20.1818C126.46 20.1818 126.214 20.2595 126.021 20.4148C125.828 20.5701 125.685 20.7737 125.592 21.0256C125.499 21.2775 125.453 21.5492 125.453 21.8409C125.453 22.1326 125.499 22.4034 125.592 22.6534C125.685 22.9034 125.828 23.1051 126.021 23.2585C126.214 23.4119 126.46 23.4886 126.76 23.4886ZM129.76 24V19.6364H130.408V20.2955H130.454C130.533 20.0795 130.677 19.9044 130.885 19.7699C131.094 19.6354 131.329 19.5682 131.59 19.5682C131.639 19.5682 131.701 19.5691 131.775 19.571C131.848 19.5729 131.904 19.5758 131.942 19.5795V20.2614C131.919 20.2557 131.867 20.2472 131.786 20.2358C131.706 20.2225 131.622 20.2159 131.533 20.2159C131.321 20.2159 131.132 20.2604 130.965 20.3494C130.8 20.4366 130.669 20.5578 130.573 20.7131C130.478 20.8665 130.431 21.0417 130.431 21.2386V24H129.76ZM136.93 19.6364V20.2045H134.578V19.6364H136.93ZM135.282 24V19.0341C135.282 18.7841 135.341 18.5758 135.458 18.4091C135.576 18.2424 135.728 18.1174 135.916 18.0341C136.103 17.9508 136.301 17.9091 136.51 17.9091C136.674 17.9091 136.809 17.9223 136.913 17.9489C137.017 17.9754 137.095 18 137.146 18.0227L136.953 18.6023C136.919 18.5909 136.871 18.5767 136.811 18.5597C136.752 18.5426 136.674 18.5341 136.578 18.5341C136.356 18.5341 136.196 18.59 136.098 18.7017C136.001 18.8134 135.953 18.9773 135.953 19.1932V24H135.282ZM139.463 24.0909C139.069 24.0909 138.723 23.9972 138.426 23.8097C138.13 23.6222 137.899 23.3598 137.733 23.0227C137.568 22.6856 137.485 22.2917 137.485 21.8409C137.485 21.3864 137.568 20.9896 137.733 20.6506C137.899 20.3116 138.13 20.0483 138.426 19.8608C138.723 19.6733 139.069 19.5795 139.463 19.5795C139.857 19.5795 140.201 19.6733 140.497 19.8608C140.794 20.0483 141.025 20.3116 141.19 20.6506C141.357 20.9896 141.44 21.3864 141.44 21.8409C141.44 22.2917 141.357 22.6856 141.19 23.0227C141.025 23.3598 140.794 23.6222 140.497 23.8097C140.201 23.9972 139.857 24.0909 139.463 24.0909ZM139.463 23.4886C139.762 23.4886 140.008 23.4119 140.201 23.2585C140.395 23.1051 140.538 22.9034 140.63 22.6534C140.723 22.4034 140.77 22.1326 140.77 21.8409C140.77 21.5492 140.723 21.2775 140.63 21.0256C140.538 20.7737 140.395 20.5701 140.201 20.4148C140.008 20.2595 139.762 20.1818 139.463 20.1818C139.163 20.1818 138.917 20.2595 138.724 20.4148C138.531 20.5701 138.388 20.7737 138.295 21.0256C138.202 21.2775 138.156 21.5492 138.156 21.8409C138.156 22.1326 138.202 22.4034 138.295 22.6534C138.388 22.9034 138.531 23.1051 138.724 23.2585C138.917 23.4119 139.163 23.4886 139.463 23.4886ZM144.236 24.0909C143.827 24.0909 143.475 23.9943 143.179 23.8011C142.884 23.608 142.657 23.3419 142.498 23.0028C142.338 22.6638 142.259 22.2765 142.259 21.8409C142.259 21.3977 142.34 21.0066 142.503 20.6676C142.668 20.3267 142.897 20.0606 143.191 19.8693C143.486 19.6761 143.831 19.5795 144.225 19.5795C144.532 19.5795 144.808 19.6364 145.054 19.75C145.301 19.8636 145.502 20.0227 145.659 20.2273C145.817 20.4318 145.914 20.6705 145.952 20.9432H145.282C145.23 20.7443 145.117 20.5682 144.941 20.4148C144.766 20.2595 144.532 20.1818 144.236 20.1818C143.975 20.1818 143.746 20.25 143.549 20.3864C143.354 20.5208 143.201 20.7112 143.091 20.9574C142.983 21.2017 142.929 21.4886 142.929 21.8182C142.929 22.1553 142.982 22.4489 143.088 22.6989C143.196 22.9489 143.348 23.143 143.543 23.2812C143.74 23.4195 143.971 23.4886 144.236 23.4886C144.41 23.4886 144.569 23.4583 144.711 23.3977C144.853 23.3371 144.973 23.25 145.071 23.1364C145.17 23.0227 145.24 22.8864 145.282 22.7273H145.952C145.914 22.9848 145.82 23.2169 145.671 23.4233C145.523 23.6278 145.327 23.7907 145.083 23.9119C144.84 24.0312 144.558 24.0909 144.236 24.0909ZM149.682 22.2159V19.6364H150.353V24H149.682V23.2614H149.637C149.534 23.483 149.375 23.6714 149.159 23.8267C148.944 23.9801 148.671 24.0568 148.341 24.0568C148.069 24.0568 147.826 23.9972 147.614 23.8778C147.402 23.7566 147.235 23.5748 147.114 23.3324C146.993 23.0881 146.932 22.7803 146.932 22.4091V19.6364H147.603V22.3636C147.603 22.6818 147.692 22.9356 147.87 23.125C148.05 23.3144 148.279 23.4091 148.557 23.4091C148.724 23.4091 148.893 23.3665 149.066 23.2812C149.24 23.196 149.386 23.0653 149.503 22.8892C149.623 22.7131 149.682 22.4886 149.682 22.2159ZM154.672 20.6136L154.069 20.7841C154.031 20.6837 153.976 20.5862 153.902 20.4915C153.83 20.3949 153.731 20.3153 153.606 20.2528C153.481 20.1903 153.321 20.1591 153.126 20.1591C152.859 20.1591 152.637 20.2206 152.458 20.3438C152.282 20.465 152.194 20.6193 152.194 20.8068C152.194 20.9735 152.255 21.1051 152.376 21.2017C152.497 21.2983 152.687 21.3788 152.944 21.4432L153.592 21.6023C153.982 21.697 154.273 21.8419 154.464 22.0369C154.655 22.2301 154.751 22.4792 154.751 22.7841C154.751 23.0341 154.679 23.2576 154.535 23.4545C154.393 23.6515 154.194 23.8068 153.939 23.9205C153.683 24.0341 153.386 24.0909 153.047 24.0909C152.601 24.0909 152.233 23.9943 151.941 23.8011C151.65 23.608 151.465 23.3258 151.387 22.9545L152.024 22.7955C152.084 23.0303 152.199 23.2064 152.368 23.3239C152.538 23.4413 152.761 23.5 153.035 23.5C153.348 23.5 153.596 23.4337 153.779 23.3011C153.965 23.1667 154.058 23.0057 154.058 22.8182C154.058 22.6667 154.005 22.5398 153.899 22.4375C153.793 22.3333 153.63 22.2557 153.41 22.2045L152.683 22.0341C152.283 21.9394 151.99 21.7926 151.802 21.5938C151.617 21.393 151.524 21.142 151.524 20.8409C151.524 20.5947 151.593 20.3769 151.731 20.1875C151.871 19.9981 152.062 19.8494 152.302 19.7415C152.545 19.6335 152.819 19.5795 153.126 19.5795C153.558 19.5795 153.897 19.6742 154.143 19.8636C154.391 20.053 154.567 20.303 154.672 20.6136ZM157.59 24.0909C157.169 24.0909 156.807 23.9981 156.502 23.8125C156.199 23.625 155.965 23.3636 155.8 23.0284C155.637 22.6913 155.556 22.2992 155.556 21.8523C155.556 21.4053 155.637 21.0114 155.8 20.6705C155.965 20.3277 156.194 20.0606 156.488 19.8693C156.783 19.6761 157.128 19.5795 157.522 19.5795C157.749 19.5795 157.973 19.6174 158.195 19.6932C158.417 19.7689 158.618 19.892 158.8 20.0625C158.982 20.2311 159.127 20.4545 159.235 20.733C159.343 21.0114 159.397 21.3542 159.397 21.7614V22.0455H156.033V21.4659H158.715C158.715 21.2197 158.666 21 158.567 20.8068C158.471 20.6136 158.332 20.4612 158.152 20.3494C157.974 20.2377 157.764 20.1818 157.522 20.1818C157.255 20.1818 157.024 20.2481 156.829 20.3807C156.635 20.5114 156.487 20.6818 156.382 20.892C156.278 21.1023 156.226 21.3277 156.226 21.5682V21.9545C156.226 22.2841 156.283 22.5634 156.397 22.7926C156.512 23.0199 156.672 23.1932 156.877 23.3125C157.081 23.4299 157.319 23.4886 157.59 23.4886C157.766 23.4886 157.925 23.464 158.067 23.4148C158.211 23.3636 158.335 23.2879 158.439 23.1875C158.543 23.0852 158.624 22.9583 158.681 22.8068L159.329 22.9886C159.26 23.2083 159.146 23.4015 158.985 23.5682C158.824 23.733 158.625 23.8617 158.388 23.9545C158.151 24.0455 157.885 24.0909 157.59 24.0909ZM162.064 24.0909C161.701 24.0909 161.38 23.9991 161.101 23.8153C160.823 23.6297 160.605 23.3684 160.448 23.0312C160.291 22.6922 160.212 22.2917 160.212 21.8295C160.212 21.3712 160.291 20.9735 160.448 20.6364C160.605 20.2992 160.824 20.0388 161.104 19.8551C161.384 19.6714 161.708 19.5795 162.076 19.5795C162.36 19.5795 162.584 19.6269 162.749 19.7216C162.916 19.8144 163.043 19.9205 163.13 20.0398C163.219 20.1572 163.288 20.2538 163.337 20.3295H163.394V18.1818H164.064V24H163.417V23.3295H163.337C163.288 23.4091 163.218 23.5095 163.127 23.6307C163.036 23.75 162.906 23.857 162.738 23.9517C162.569 24.0445 162.345 24.0909 162.064 24.0909ZM162.155 23.4886C162.424 23.4886 162.651 23.4186 162.837 23.2784C163.023 23.1364 163.164 22.9403 163.26 22.6903C163.357 22.4384 163.405 22.1477 163.405 21.8182C163.405 21.4924 163.358 21.2074 163.263 20.9631C163.168 20.7169 163.028 20.5256 162.843 20.3892C162.657 20.2509 162.428 20.1818 162.155 20.1818C161.871 20.1818 161.634 20.2547 161.445 20.4006C161.257 20.5445 161.116 20.7405 161.022 20.9886C160.929 21.2348 160.882 21.5114 160.882 21.8182C160.882 22.1288 160.93 22.411 161.025 22.6648C161.121 22.9167 161.263 23.1174 161.451 23.267C161.64 23.4148 161.875 23.4886 162.155 23.4886ZM168.306 21.375V24H167.635V18.1818H168.306V20.3182H168.363C168.465 20.0928 168.618 19.9138 168.823 19.7812C169.029 19.6468 169.304 19.5795 169.647 19.5795C169.944 19.5795 170.204 19.6392 170.428 19.7585C170.651 19.8759 170.825 20.0568 170.948 20.3011C171.073 20.5436 171.135 20.8523 171.135 21.2273V24H170.465V21.2727C170.465 20.9261 170.375 20.6581 170.195 20.4688C170.017 20.2775 169.77 20.1818 169.454 20.1818C169.234 20.1818 169.037 20.2282 168.863 20.321C168.69 20.4138 168.554 20.5492 168.454 20.7273C168.355 20.9053 168.306 21.1212 168.306 21.375ZM174.191 24.0909C173.771 24.0909 173.408 23.9981 173.103 23.8125C172.8 23.625 172.566 23.3636 172.402 23.0284C172.239 22.6913 172.157 22.2992 172.157 21.8523C172.157 21.4053 172.239 21.0114 172.402 20.6705C172.566 20.3277 172.796 20.0606 173.089 19.8693C173.385 19.6761 173.729 19.5795 174.123 19.5795C174.351 19.5795 174.575 19.6174 174.797 19.6932C175.018 19.7689 175.22 19.892 175.402 20.0625C175.583 20.2311 175.728 20.4545 175.836 20.733C175.944 21.0114 175.998 21.3542 175.998 21.7614V22.0455H172.635V21.4659H175.316C175.316 21.2197 175.267 21 175.169 20.8068C175.072 20.6136 174.934 20.4612 174.754 20.3494C174.576 20.2377 174.366 20.1818 174.123 20.1818C173.856 20.1818 173.625 20.2481 173.43 20.3807C173.237 20.5114 173.088 20.6818 172.984 20.892C172.88 21.1023 172.828 21.3277 172.828 21.5682V21.9545C172.828 22.2841 172.885 22.5634 172.998 22.7926C173.114 23.0199 173.274 23.1932 173.478 23.3125C173.683 23.4299 173.921 23.4886 174.191 23.4886C174.368 23.4886 174.527 23.464 174.669 23.4148C174.813 23.3636 174.937 23.2879 175.041 23.1875C175.145 23.0852 175.226 22.9583 175.282 22.8068L175.93 22.9886C175.862 23.2083 175.747 23.4015 175.586 23.5682C175.425 23.733 175.226 23.8617 174.99 23.9545C174.753 24.0455 174.487 24.0909 174.191 24.0909ZM178.302 24.1023C178.026 24.1023 177.775 24.0502 177.549 23.946C177.324 23.84 177.145 23.6875 177.012 23.4886C176.88 23.2879 176.814 23.0455 176.814 22.7614C176.814 22.5114 176.863 22.3087 176.961 22.1534C177.06 21.9962 177.191 21.8731 177.356 21.7841C177.521 21.6951 177.703 21.6288 177.902 21.5852C178.102 21.5398 178.304 21.5038 178.507 21.4773C178.772 21.4432 178.987 21.4176 179.152 21.4006C179.318 21.3816 179.44 21.3504 179.515 21.3068C179.593 21.2633 179.632 21.1875 179.632 21.0795V21.0568C179.632 20.7765 179.555 20.5587 179.402 20.4034C179.25 20.2481 179.02 20.1705 178.711 20.1705C178.391 20.1705 178.14 20.2405 177.958 20.3807C177.777 20.5208 177.649 20.6705 177.575 20.8295L176.939 20.6023C177.052 20.3371 177.204 20.1307 177.393 19.983C177.584 19.8333 177.793 19.7292 178.018 19.6705C178.245 19.6098 178.469 19.5795 178.689 19.5795C178.829 19.5795 178.99 19.5966 179.172 19.6307C179.355 19.6629 179.532 19.7301 179.703 19.8324C179.875 19.9347 180.018 20.089 180.132 20.2955C180.245 20.5019 180.302 20.7784 180.302 21.125V24H179.632V23.4091H179.598C179.552 23.5038 179.476 23.6051 179.37 23.7131C179.264 23.821 179.123 23.9129 178.947 23.9886C178.771 24.0644 178.556 24.1023 178.302 24.1023ZM178.404 23.5C178.67 23.5 178.893 23.4479 179.075 23.3438C179.259 23.2396 179.397 23.1051 179.49 22.9403C179.584 22.7756 179.632 22.6023 179.632 22.4205V21.8068C179.603 21.8409 179.541 21.8722 179.444 21.9006C179.35 21.9271 179.24 21.9508 179.115 21.9716C178.992 21.9905 178.871 22.0076 178.754 22.0227C178.638 22.036 178.545 22.0473 178.473 22.0568C178.298 22.0795 178.136 22.1165 177.984 22.1676C177.834 22.2169 177.713 22.2917 177.62 22.392C177.529 22.4905 177.484 22.625 177.484 22.7955C177.484 23.0284 177.57 23.2045 177.743 23.3239C177.917 23.4413 178.137 23.5 178.404 23.5ZM182.196 18.1818V24H181.526V18.1818H182.196ZM185.322 19.6364V20.2045H183.061V19.6364H185.322ZM183.72 18.5909H184.39V22.75C184.39 22.9394 184.418 23.0814 184.473 23.1761C184.529 23.2689 184.601 23.3314 184.689 23.3636C184.778 23.3939 184.871 23.4091 184.97 23.4091C185.044 23.4091 185.104 23.4053 185.152 23.3977C185.199 23.3883 185.237 23.3807 185.265 23.375L185.402 23.9773C185.356 23.9943 185.293 24.0114 185.211 24.0284C185.13 24.0473 185.027 24.0568 184.902 24.0568C184.712 24.0568 184.527 24.0161 184.345 23.9347C184.165 23.8532 184.015 23.7292 183.896 23.5625C183.779 23.3958 183.72 23.1856 183.72 22.9318V18.5909ZM187.095 21.375V24H186.424V18.1818H187.095V20.3182H187.152C187.254 20.0928 187.407 19.9138 187.612 19.7812C187.818 19.6468 188.093 19.5795 188.436 19.5795C188.733 19.5795 188.994 19.6392 189.217 19.7585C189.44 19.8759 189.614 20.0568 189.737 20.3011C189.862 20.5436 189.924 20.8523 189.924 21.2273V24H189.254V21.2727C189.254 20.9261 189.164 20.6581 188.984 20.4688C188.806 20.2775 188.559 20.1818 188.243 20.1818C188.023 20.1818 187.826 20.2282 187.652 20.321C187.479 20.4138 187.343 20.5492 187.243 20.7273C187.144 20.9053 187.095 21.1212 187.095 21.375ZM193.401 24V19.6364H194.071V24H193.401ZM193.742 18.9091C193.611 18.9091 193.498 18.8646 193.404 18.7756C193.311 18.6866 193.265 18.5795 193.265 18.4545C193.265 18.3295 193.311 18.2225 193.404 18.1335C193.498 18.0445 193.611 18 193.742 18C193.873 18 193.984 18.0445 194.077 18.1335C194.172 18.2225 194.219 18.3295 194.219 18.4545C194.219 18.5795 194.172 18.6866 194.077 18.7756C193.984 18.8646 193.873 18.9091 193.742 18.9091ZM195.299 24V19.6364H195.947V20.3182H196.004C196.095 20.0852 196.242 19.9044 196.444 19.7756C196.647 19.6449 196.89 19.5795 197.174 19.5795C197.462 19.5795 197.702 19.6449 197.893 19.7756C198.086 19.9044 198.237 20.0852 198.345 20.3182H198.39C198.502 20.0928 198.67 19.9138 198.893 19.7812C199.117 19.6468 199.385 19.5795 199.697 19.5795C200.087 19.5795 200.406 19.7017 200.654 19.946C200.903 20.1884 201.027 20.5663 201.027 21.0795V24H200.356V21.0795C200.356 20.7576 200.268 20.5275 200.092 20.3892C199.916 20.2509 199.708 20.1818 199.47 20.1818C199.163 20.1818 198.925 20.2746 198.757 20.4602C198.588 20.6439 198.504 20.8769 198.504 21.1591V24H197.822V21.0114C197.822 20.7633 197.742 20.5634 197.581 20.4119C197.42 20.2585 197.212 20.1818 196.958 20.1818C196.784 20.1818 196.621 20.2282 196.47 20.321C196.32 20.4138 196.199 20.5426 196.106 20.7074C196.015 20.8703 195.97 21.0587 195.97 21.2727V24H195.299ZM202.253 25.6364V19.6364H202.9V20.3295H202.98C203.029 20.2538 203.097 20.1572 203.184 20.0398C203.273 19.9205 203.4 19.8144 203.565 19.7216C203.732 19.6269 203.957 19.5795 204.241 19.5795C204.609 19.5795 204.932 19.6714 205.213 19.8551C205.493 20.0388 205.712 20.2992 205.869 20.6364C206.026 20.9735 206.105 21.3712 206.105 21.8295C206.105 22.2917 206.026 22.6922 205.869 23.0312C205.712 23.3684 205.494 23.6297 205.216 23.8153C204.937 23.9991 204.616 24.0909 204.253 24.0909C203.972 24.0909 203.748 24.0445 203.579 23.9517C203.411 23.857 203.281 23.75 203.19 23.6307C203.099 23.5095 203.029 23.4091 202.98 23.3295H202.923V25.6364H202.253ZM202.912 21.8182C202.912 22.1477 202.96 22.4384 203.056 22.6903C203.153 22.9403 203.294 23.1364 203.48 23.2784C203.665 23.4186 203.893 23.4886 204.162 23.4886C204.442 23.4886 204.676 23.4148 204.863 23.267C205.053 23.1174 205.195 22.9167 205.289 22.6648C205.386 22.411 205.434 22.1288 205.434 21.8182C205.434 21.5114 205.387 21.2348 205.292 20.9886C205.199 20.7405 205.058 20.5445 204.869 20.4006C204.681 20.2547 204.446 20.1818 204.162 20.1818C203.889 20.1818 203.66 20.2509 203.474 20.3892C203.288 20.5256 203.148 20.7169 203.054 20.9631C202.959 21.2074 202.912 21.4924 202.912 21.8182ZM207.128 24V19.6364H207.775V20.2955H207.821C207.9 20.0795 208.044 19.9044 208.253 19.7699C208.461 19.6354 208.696 19.5682 208.957 19.5682C209.006 19.5682 209.068 19.5691 209.142 19.571C209.216 19.5729 209.271 19.5758 209.309 19.5795V20.2614C209.287 20.2557 209.235 20.2472 209.153 20.2358C209.074 20.2225 208.989 20.2159 208.9 20.2159C208.688 20.2159 208.499 20.2604 208.332 20.3494C208.167 20.4366 208.037 20.5578 207.94 20.7131C207.845 20.8665 207.798 21.0417 207.798 21.2386V24H207.128ZM211.744 24.0909C211.35 24.0909 211.004 23.9972 210.707 23.8097C210.412 23.6222 210.181 23.3598 210.014 23.0227C209.849 22.6856 209.767 22.2917 209.767 21.8409C209.767 21.3864 209.849 20.9896 210.014 20.6506C210.181 20.3116 210.412 20.0483 210.707 19.8608C211.004 19.6733 211.35 19.5795 211.744 19.5795C212.138 19.5795 212.483 19.6733 212.778 19.8608C213.075 20.0483 213.306 20.3116 213.471 20.6506C213.638 20.9896 213.721 21.3864 213.721 21.8409C213.721 22.2917 213.638 22.6856 213.471 23.0227C213.306 23.3598 213.075 23.6222 212.778 23.8097C212.483 23.9972 212.138 24.0909 211.744 24.0909ZM211.744 23.4886C212.043 23.4886 212.289 23.4119 212.483 23.2585C212.676 23.1051 212.819 22.9034 212.912 22.6534C213.004 22.4034 213.051 22.1326 213.051 21.8409C213.051 21.5492 213.004 21.2775 212.912 21.0256C212.819 20.7737 212.676 20.5701 212.483 20.4148C212.289 20.2595 212.043 20.1818 211.744 20.1818C211.445 20.1818 211.199 20.2595 211.005 20.4148C210.812 20.5701 210.669 20.7737 210.576 21.0256C210.484 21.2775 210.437 21.5492 210.437 21.8409C210.437 22.1326 210.484 22.4034 210.576 22.6534C210.669 22.9034 210.812 23.1051 211.005 23.2585C211.199 23.4119 211.445 23.4886 211.744 23.4886ZM218.157 19.6364L216.543 24H215.861L214.248 19.6364H214.975L216.179 23.1136H216.225L217.429 19.6364H218.157ZM220.715 24.0909C220.294 24.0909 219.932 23.9981 219.627 23.8125C219.324 23.625 219.09 23.3636 218.925 23.0284C218.762 22.6913 218.681 22.2992 218.681 21.8523C218.681 21.4053 218.762 21.0114 218.925 20.6705C219.09 20.3277 219.319 20.0606 219.613 19.8693C219.908 19.6761 220.253 19.5795 220.647 19.5795C220.874 19.5795 221.098 19.6174 221.32 19.6932C221.542 19.7689 221.743 19.892 221.925 20.0625C222.107 20.2311 222.252 20.4545 222.36 20.733C222.468 21.0114 222.522 21.3542 222.522 21.7614V22.0455H219.158V21.4659H221.84C221.84 21.2197 221.791 21 221.692 20.8068C221.596 20.6136 221.457 20.4612 221.277 20.3494C221.099 20.2377 220.889 20.1818 220.647 20.1818C220.38 20.1818 220.149 20.2481 219.954 20.3807C219.76 20.5114 219.612 20.6818 219.507 20.892C219.403 21.1023 219.351 21.3277 219.351 21.5682V21.9545C219.351 22.2841 219.408 22.5634 219.522 22.7926C219.637 23.0199 219.797 23.1932 220.002 23.3125C220.206 23.4299 220.444 23.4886 220.715 23.4886C220.891 23.4886 221.05 23.464 221.192 23.4148C221.336 23.3636 221.46 23.2879 221.564 23.1875C221.668 23.0852 221.749 22.9583 221.806 22.8068L222.454 22.9886C222.385 23.2083 222.271 23.4015 222.11 23.5682C221.949 23.733 221.75 23.8617 221.513 23.9545C221.276 24.0455 221.01 24.0909 220.715 24.0909ZM223.542 24V19.6364H224.189V20.3182H224.246C224.337 20.0852 224.484 19.9044 224.686 19.7756C224.889 19.6449 225.132 19.5795 225.417 19.5795C225.704 19.5795 225.944 19.6449 226.135 19.7756C226.329 19.9044 226.479 20.0852 226.587 20.3182H226.632C226.744 20.0928 226.912 19.9138 227.135 19.7812C227.359 19.6468 227.627 19.5795 227.939 19.5795C228.329 19.5795 228.649 19.7017 228.897 19.946C229.145 20.1884 229.269 20.5663 229.269 21.0795V24H228.598V21.0795C228.598 20.7576 228.51 20.5275 228.334 20.3892C228.158 20.2509 227.951 20.1818 227.712 20.1818C227.405 20.1818 227.168 20.2746 226.999 20.4602C226.83 20.6439 226.746 20.8769 226.746 21.1591V24H226.064V21.0114C226.064 20.7633 225.984 20.5634 225.823 20.4119C225.662 20.2585 225.454 20.1818 225.201 20.1818C225.026 20.1818 224.864 20.2282 224.712 20.321C224.562 20.4138 224.441 20.5426 224.348 20.7074C224.257 20.8703 224.212 21.0587 224.212 21.2727V24H223.542ZM232.324 24.0909C231.904 24.0909 231.541 23.9981 231.236 23.8125C230.933 23.625 230.699 23.3636 230.534 23.0284C230.372 22.6913 230.29 22.2992 230.29 21.8523C230.29 21.4053 230.372 21.0114 230.534 20.6705C230.699 20.3277 230.928 20.0606 231.222 19.8693C231.517 19.6761 231.862 19.5795 232.256 19.5795C232.483 19.5795 232.708 19.6174 232.929 19.6932C233.151 19.7689 233.353 19.892 233.534 20.0625C233.716 20.2311 233.861 20.4545 233.969 20.733C234.077 21.0114 234.131 21.3542 234.131 21.7614V22.0455H230.767V21.4659H233.449C233.449 21.2197 233.4 21 233.302 20.8068C233.205 20.6136 233.067 20.4612 232.887 20.3494C232.709 20.2377 232.498 20.1818 232.256 20.1818C231.989 20.1818 231.758 20.2481 231.563 20.3807C231.37 20.5114 231.221 20.6818 231.117 20.892C231.013 21.1023 230.961 21.3277 230.961 21.5682V21.9545C230.961 22.2841 231.017 22.5634 231.131 22.7926C231.247 23.0199 231.407 23.1932 231.611 23.3125C231.816 23.4299 232.053 23.4886 232.324 23.4886C232.5 23.4886 232.659 23.464 232.802 23.4148C232.945 23.3636 233.07 23.2879 233.174 23.1875C233.278 23.0852 233.358 22.9583 233.415 22.8068L234.063 22.9886C233.995 23.2083 233.88 23.4015 233.719 23.5682C233.558 23.733 233.359 23.8617 233.123 23.9545C232.886 24.0455 232.62 24.0909 232.324 24.0909ZM235.821 21.375V24H235.151V19.6364H235.799V20.3182H235.855C235.958 20.0966 236.113 19.9186 236.321 19.7841C236.53 19.6477 236.799 19.5795 237.128 19.5795C237.424 19.5795 237.682 19.6402 237.904 19.7614C238.125 19.8807 238.298 20.0625 238.421 20.3068C238.544 20.5492 238.605 20.8561 238.605 21.2273V24H237.935V21.2727C237.935 20.9299 237.846 20.6629 237.668 20.4716C237.49 20.2784 237.246 20.1818 236.935 20.1818C236.721 20.1818 236.53 20.2282 236.361 20.321C236.195 20.4138 236.063 20.5492 235.966 20.7273C235.87 20.9053 235.821 21.1212 235.821 21.375ZM241.728 19.6364V20.2045H239.467V19.6364H241.728ZM240.126 18.5909H240.797V22.75C240.797 22.9394 240.824 23.0814 240.879 23.1761C240.936 23.2689 241.008 23.3314 241.095 23.3636C241.184 23.3939 241.278 23.4091 241.376 23.4091C241.45 23.4091 241.511 23.4053 241.558 23.3977C241.605 23.3883 241.643 23.3807 241.672 23.375L241.808 23.9773C241.762 23.9943 241.699 24.0114 241.618 24.0284C241.536 24.0473 241.433 24.0568 241.308 24.0568C241.119 24.0568 240.933 24.0161 240.751 23.9347C240.571 23.8532 240.422 23.7292 240.302 23.5625C240.185 23.3958 240.126 23.1856 240.126 22.9318V18.5909ZM245.75 20.6136L245.147 20.7841C245.11 20.6837 245.054 20.5862 244.98 20.4915C244.908 20.3949 244.809 20.3153 244.684 20.2528C244.559 20.1903 244.399 20.1591 244.204 20.1591C243.937 20.1591 243.715 20.2206 243.537 20.3438C243.36 20.465 243.272 20.6193 243.272 20.8068C243.272 20.9735 243.333 21.1051 243.454 21.2017C243.575 21.2983 243.765 21.3788 244.022 21.4432L244.67 21.6023C245.06 21.697 245.351 21.8419 245.542 22.0369C245.734 22.2301 245.829 22.4792 245.829 22.7841C245.829 23.0341 245.757 23.2576 245.613 23.4545C245.471 23.6515 245.272 23.8068 245.017 23.9205C244.761 24.0341 244.464 24.0909 244.125 24.0909C243.68 24.0909 243.311 23.9943 243.02 23.8011C242.728 23.608 242.543 23.3258 242.466 22.9545L243.102 22.7955C243.163 23.0303 243.277 23.2064 243.446 23.3239C243.616 23.4413 243.839 23.5 244.113 23.5C244.426 23.5 244.674 23.4337 244.858 23.3011C245.043 23.1667 245.136 23.0057 245.136 22.8182C245.136 22.6667 245.083 22.5398 244.977 22.4375C244.871 22.3333 244.708 22.2557 244.488 22.2045L243.761 22.0341C243.361 21.9394 243.068 21.7926 242.88 21.5938C242.695 21.393 242.602 21.142 242.602 20.8409C242.602 20.5947 242.671 20.3769 242.809 20.1875C242.949 19.9981 243.14 19.8494 243.38 19.7415C243.623 19.6335 243.897 19.5795 244.204 19.5795C244.636 19.5795 244.975 19.6742 245.221 19.8636C245.469 20.053 245.645 20.303 245.75 20.6136Z" fill="#667085"/>
<path d="M82.2289 35.06L84.9729 40.002L87.7449 35.06H89.4669L85.7569 41.444V45H84.1889V41.416L80.5069 35.06H82.2289ZM92.5245 45.14C91.9459 45.14 91.4279 45.042 90.9705 44.846C90.5132 44.6407 90.1165 44.3607 89.7805 44.006C89.4539 43.6513 89.2019 43.25 89.0245 42.802C88.8472 42.3447 88.7585 41.8593 88.7585 41.346C88.7585 40.8327 88.8472 40.3473 89.0245 39.89C89.2019 39.4327 89.4539 39.0313 89.7805 38.686C90.1165 38.3313 90.5132 38.056 90.9705 37.86C91.4372 37.6547 91.9552 37.552 92.5245 37.552C93.0939 37.552 93.6072 37.6547 94.0645 37.86C94.5312 38.056 94.9279 38.3313 95.2545 38.686C95.5905 39.0313 95.8472 39.4327 96.0245 39.89C96.2019 40.3473 96.2905 40.8327 96.2905 41.346C96.2905 41.8593 96.2019 42.3447 96.0245 42.802C95.8472 43.25 95.5905 43.6513 95.2545 44.006C94.9279 44.3607 94.5312 44.6407 94.0645 44.846C93.6072 45.042 93.0939 45.14 92.5245 45.14ZM90.3405 41.36C90.3405 41.8267 90.4385 42.2467 90.6345 42.62C90.8305 42.9933 91.0919 43.2873 91.4185 43.502C91.7452 43.7167 92.1139 43.824 92.5245 43.824C92.9259 43.824 93.2899 43.7167 93.6165 43.502C93.9525 43.278 94.2185 42.9793 94.4145 42.606C94.6105 42.2233 94.7085 41.8033 94.7085 41.346C94.7085 40.8793 94.6105 40.4593 94.4145 40.086C94.2185 39.7127 93.9525 39.4187 93.6165 39.204C93.2899 38.98 92.9259 38.868 92.5245 38.868C92.1139 38.868 91.7452 38.98 91.4185 39.204C91.0919 39.428 90.8305 39.7267 90.6345 40.1C90.4385 40.464 90.3405 40.884 90.3405 41.36ZM97.5864 42.158V37.678H99.1264V41.85C99.1264 42.5033 99.2431 42.998 99.4764 43.334C99.7191 43.6607 100.069 43.824 100.526 43.824C100.816 43.824 101.096 43.7633 101.366 43.642C101.646 43.5207 101.898 43.3433 102.122 43.11C102.356 42.8673 102.542 42.578 102.682 42.242V37.678H104.222V43.264C104.222 43.4413 104.255 43.5673 104.32 43.642C104.386 43.7167 104.493 43.7587 104.642 43.768V45C104.484 45.028 104.353 45.0467 104.25 45.056C104.148 45.0653 104.05 45.07 103.956 45.07C103.676 45.07 103.443 44.9953 103.256 44.846C103.07 44.6873 102.962 44.4867 102.934 44.244L102.906 43.516C102.58 44.048 102.155 44.454 101.632 44.734C101.11 45.0047 100.536 45.14 99.9104 45.14C99.1451 45.14 98.5664 44.888 98.1744 44.384C97.7824 43.88 97.5864 43.138 97.5864 42.158ZM110.304 39.008C109.706 39.0173 109.174 39.1527 108.708 39.414C108.25 39.6753 107.924 40.044 107.728 40.52V45H106.188V37.678H107.616V39.316C107.868 38.812 108.199 38.4107 108.61 38.112C109.02 37.804 109.454 37.636 109.912 37.608C110.005 37.608 110.08 37.608 110.136 37.608C110.201 37.608 110.257 37.6127 110.304 37.622V39.008ZM114.765 45V35.06H118.937C119.385 35.06 119.795 35.1533 120.169 35.34C120.542 35.5267 120.869 35.774 121.149 36.082C121.429 36.39 121.643 36.7353 121.793 37.118C121.942 37.5007 122.017 37.8927 122.017 38.294C122.017 38.8447 121.891 39.372 121.639 39.876C121.396 40.3707 121.046 40.772 120.589 41.08C120.141 41.388 119.618 41.542 119.021 41.542H116.333V45H114.765ZM116.333 40.156H118.923C119.221 40.156 119.483 40.0767 119.707 39.918C119.931 39.75 120.103 39.526 120.225 39.246C120.355 38.966 120.421 38.6487 120.421 38.294C120.421 37.93 120.346 37.608 120.197 37.328C120.047 37.048 119.851 36.8333 119.609 36.684C119.375 36.5253 119.119 36.446 118.839 36.446H116.333V40.156ZM129.857 45H128.317V40.898C128.317 40.2353 128.196 39.7407 127.953 39.414C127.711 39.0873 127.37 38.924 126.931 38.924C126.661 38.924 126.381 38.9987 126.091 39.148C125.802 39.2973 125.545 39.5027 125.321 39.764C125.097 40.016 124.934 40.31 124.831 40.646V45H123.291V34.78H124.831V39.148C125.111 38.6533 125.494 38.266 125.979 37.986C126.465 37.6967 126.987 37.552 127.547 37.552C128.005 37.552 128.383 37.6313 128.681 37.79C128.98 37.9487 129.213 38.168 129.381 38.448C129.559 38.7187 129.68 39.036 129.745 39.4C129.82 39.7547 129.857 40.1327 129.857 40.534V45ZM134.963 45.14C134.393 45.14 133.875 45.042 133.409 44.846C132.951 44.6407 132.555 44.3653 132.219 44.02C131.883 43.6653 131.621 43.264 131.435 42.816C131.257 42.3587 131.169 41.8733 131.169 41.36C131.169 40.6693 131.327 40.0393 131.645 39.47C131.962 38.8913 132.405 38.4293 132.975 38.084C133.544 37.7293 134.211 37.552 134.977 37.552C135.742 37.552 136.4 37.7293 136.951 38.084C137.511 38.4293 137.945 38.8867 138.253 39.456C138.561 40.0253 138.715 40.6367 138.715 41.29C138.715 41.402 138.71 41.5093 138.701 41.612C138.691 41.7053 138.682 41.7847 138.673 41.85H132.807C132.835 42.2793 132.951 42.6573 133.157 42.984C133.371 43.3013 133.642 43.5533 133.969 43.74C134.295 43.9173 134.645 44.006 135.019 44.006C135.429 44.006 135.817 43.9033 136.181 43.698C136.554 43.4927 136.806 43.222 136.937 42.886L138.253 43.264C138.094 43.6187 137.851 43.9407 137.525 44.23C137.207 44.51 136.829 44.734 136.391 44.902C135.952 45.0607 135.476 45.14 134.963 45.14ZM132.765 40.828H137.189C137.161 40.408 137.039 40.0393 136.825 39.722C136.619 39.3953 136.353 39.1433 136.027 38.966C135.709 38.7793 135.355 38.686 134.963 38.686C134.58 38.686 134.225 38.7793 133.899 38.966C133.581 39.1433 133.32 39.3953 133.115 39.722C132.909 40.0393 132.793 40.408 132.765 40.828ZM146.537 45H144.997V40.898C144.997 40.2167 144.885 39.7173 144.661 39.4C144.446 39.0827 144.124 38.924 143.695 38.924C143.396 38.924 143.098 38.9987 142.799 39.148C142.51 39.2973 142.248 39.5027 142.015 39.764C141.782 40.016 141.614 40.31 141.511 40.646V45H139.971V37.678H141.371V39.148C141.558 38.8213 141.8 38.5413 142.099 38.308C142.407 38.0653 142.752 37.8787 143.135 37.748C143.518 37.6173 143.924 37.552 144.353 37.552C144.792 37.552 145.151 37.6313 145.431 37.79C145.72 37.9487 145.944 38.168 146.103 38.448C146.271 38.7187 146.383 39.036 146.439 39.4C146.504 39.7547 146.537 40.1327 146.537 40.534V45ZM151.614 45.14C151.036 45.14 150.518 45.042 150.06 44.846C149.603 44.6407 149.206 44.3607 148.87 44.006C148.544 43.6513 148.292 43.25 148.114 42.802C147.937 42.3447 147.848 41.8593 147.848 41.346C147.848 40.8327 147.937 40.3473 148.114 39.89C148.292 39.4327 148.544 39.0313 148.87 38.686C149.206 38.3313 149.603 38.056 150.06 37.86C150.527 37.6547 151.045 37.552 151.614 37.552C152.184 37.552 152.697 37.6547 153.154 37.86C153.621 38.056 154.018 38.3313 154.344 38.686C154.68 39.0313 154.937 39.4327 155.114 39.89C155.292 40.3473 155.38 40.8327 155.38 41.346C155.38 41.8593 155.292 42.3447 155.114 42.802C154.937 43.25 154.68 43.6513 154.344 44.006C154.018 44.3607 153.621 44.6407 153.154 44.846C152.697 45.042 152.184 45.14 151.614 45.14ZM149.43 41.36C149.43 41.8267 149.528 42.2467 149.724 42.62C149.92 42.9933 150.182 43.2873 150.508 43.502C150.835 43.7167 151.204 43.824 151.614 43.824C152.016 43.824 152.38 43.7167 152.706 43.502C153.042 43.278 153.308 42.9793 153.504 42.606C153.7 42.2233 153.798 41.8033 153.798 41.346C153.798 40.8793 153.7 40.4593 153.504 40.086C153.308 39.7127 153.042 39.4187 152.706 39.204C152.38 38.98 152.016 38.868 151.614 38.868C151.204 38.868 150.835 38.98 150.508 39.204C150.182 39.428 149.92 39.7267 149.724 40.1C149.528 40.464 149.43 40.884 149.43 41.36ZM160.711 44.622C160.58 44.6873 160.417 44.7573 160.221 44.832C160.025 44.9067 159.801 44.972 159.549 45.028C159.306 45.084 159.054 45.112 158.793 45.112C158.476 45.112 158.182 45.056 157.911 44.944C157.64 44.832 157.421 44.6547 157.253 44.412C157.094 44.16 157.015 43.838 157.015 43.446V38.868H156.049V37.678H157.015V35.27H158.555V37.678H160.151V38.868H158.555V42.956C158.574 43.208 158.653 43.3947 158.793 43.516C158.942 43.6373 159.124 43.698 159.339 43.698C159.554 43.698 159.759 43.6607 159.955 43.586C160.151 43.5113 160.296 43.4507 160.389 43.404L160.711 44.622ZM162.016 46.722C162.156 46.7407 162.291 46.7593 162.422 46.778C162.562 46.806 162.674 46.82 162.758 46.82C162.917 46.82 163.052 46.7687 163.164 46.666C163.285 46.5727 163.407 46.3953 163.528 46.134C163.649 45.8727 163.799 45.4947 163.976 45L160.966 37.678H162.576L164.816 43.432L166.804 37.678H168.288L164.97 46.694C164.867 46.9647 164.718 47.212 164.522 47.436C164.326 47.6693 164.083 47.8513 163.794 47.982C163.505 48.1127 163.164 48.178 162.772 48.178C162.66 48.178 162.543 48.1687 162.422 48.15C162.301 48.1313 162.165 48.1033 162.016 48.066V46.722ZM173.578 45.14C172.99 45.14 172.472 45 172.024 44.72C171.576 44.44 171.221 44.076 170.96 43.628V47.982H169.42V37.678H170.778V38.994C171.058 38.5553 171.422 38.2053 171.87 37.944C172.318 37.6827 172.817 37.552 173.368 37.552C173.872 37.552 174.334 37.6547 174.754 37.86C175.174 38.056 175.538 38.3313 175.846 38.686C176.154 39.0407 176.392 39.4467 176.56 39.904C176.737 40.352 176.826 40.828 176.826 41.332C176.826 42.032 176.686 42.6713 176.406 43.25C176.135 43.8287 175.753 44.2907 175.258 44.636C174.773 44.972 174.213 45.14 173.578 45.14ZM173.074 43.824C173.401 43.824 173.695 43.754 173.956 43.614C174.227 43.474 174.455 43.2873 174.642 43.054C174.838 42.8207 174.987 42.5547 175.09 42.256C175.193 41.9573 175.244 41.6493 175.244 41.332C175.244 40.996 175.188 40.6787 175.076 40.38C174.964 40.0813 174.801 39.82 174.586 39.596C174.381 39.372 174.138 39.1947 173.858 39.064C173.587 38.9333 173.289 38.868 172.962 38.868C172.766 38.868 172.561 38.9053 172.346 38.98C172.131 39.0547 171.931 39.1573 171.744 39.288C171.557 39.4187 171.394 39.5727 171.254 39.75C171.114 39.9273 171.016 40.114 170.96 40.31V42.228C171.091 42.5267 171.263 42.7973 171.478 43.04C171.693 43.2733 171.94 43.4647 172.22 43.614C172.5 43.754 172.785 43.824 173.074 43.824ZM178.211 45V37.678H179.751V45H178.211ZM178.211 36.474V34.78H179.751V36.474H178.211ZM184.92 45.14C184.35 45.14 183.832 45.042 183.366 44.846C182.908 44.6407 182.512 44.3607 182.176 44.006C181.84 43.6513 181.578 43.2453 181.392 42.788C181.214 42.3307 181.126 41.8453 181.126 41.332C181.126 40.6413 181.28 40.0113 181.588 39.442C181.905 38.8727 182.344 38.4153 182.904 38.07C183.473 37.7247 184.145 37.552 184.92 37.552C185.666 37.552 186.315 37.72 186.866 38.056C187.426 38.3827 187.836 38.8213 188.098 39.372L186.6 39.848C186.432 39.54 186.194 39.302 185.886 39.134C185.587 38.9567 185.256 38.868 184.892 38.868C184.481 38.868 184.108 38.9753 183.772 39.19C183.445 39.3953 183.184 39.6847 182.988 40.058C182.801 40.422 182.708 40.8467 182.708 41.332C182.708 41.7987 182.806 42.2233 183.002 42.606C183.198 42.9793 183.459 43.278 183.786 43.502C184.122 43.7167 184.495 43.824 184.906 43.824C185.158 43.824 185.4 43.782 185.634 43.698C185.876 43.6047 186.086 43.4833 186.264 43.334C186.441 43.1753 186.567 43.0027 186.642 42.816L188.154 43.264C187.995 43.628 187.757 43.95 187.44 44.23C187.132 44.51 186.763 44.734 186.334 44.902C185.914 45.0607 185.442 45.14 184.92 45.14ZM195.51 35.06H196.994L200.858 45H199.206L198.156 42.298H194.32L193.284 45H191.618L195.51 35.06ZM197.848 41.136L196.252 36.782L194.6 41.136H197.848ZM204.584 45.07C204.089 45.07 203.636 44.972 203.226 44.776C202.815 44.5707 202.46 44.2953 202.162 43.95C201.872 43.6047 201.644 43.208 201.476 42.76C201.317 42.312 201.238 41.8407 201.238 41.346C201.238 40.8233 201.322 40.3333 201.49 39.876C201.658 39.4187 201.891 39.0173 202.19 38.672C202.498 38.3173 202.857 38.042 203.268 37.846C203.678 37.65 204.136 37.552 204.64 37.552C205.228 37.552 205.741 37.692 206.18 37.972C206.628 38.252 206.996 38.616 207.286 39.064V37.678H208.644V44.79C208.644 45.4993 208.471 46.1013 208.126 46.596C207.79 47.0907 207.328 47.4687 206.74 47.73C206.152 47.9913 205.489 48.122 204.752 48.122C203.94 48.122 203.268 47.982 202.736 47.702C202.204 47.422 201.751 47.0393 201.378 46.554L202.246 45.742C202.526 46.134 202.885 46.4327 203.324 46.638C203.772 46.8433 204.248 46.946 204.752 46.946C205.172 46.946 205.559 46.8667 205.914 46.708C206.278 46.5587 206.567 46.3207 206.782 45.994C206.996 45.6767 207.104 45.2753 207.104 44.79V43.67C206.842 44.1087 206.483 44.454 206.026 44.706C205.568 44.9487 205.088 45.07 204.584 45.07ZM205.088 43.824C205.321 43.824 205.545 43.7867 205.76 43.712C205.974 43.628 206.17 43.5207 206.348 43.39C206.534 43.25 206.693 43.096 206.824 42.928C206.954 42.7507 207.048 42.564 207.104 42.368V40.45C206.982 40.1327 206.81 39.8573 206.586 39.624C206.362 39.3813 206.11 39.1947 205.83 39.064C205.55 38.9333 205.265 38.868 204.976 38.868C204.64 38.868 204.336 38.9427 204.066 39.092C203.804 39.232 203.58 39.4233 203.394 39.666C203.207 39.8993 203.062 40.1653 202.96 40.464C202.857 40.7627 202.806 41.0707 202.806 41.388C202.806 41.724 202.862 42.0367 202.974 42.326C203.095 42.6153 203.258 42.8767 203.464 43.11C203.669 43.334 203.912 43.5113 204.192 43.642C204.472 43.7633 204.77 43.824 205.088 43.824ZM213.808 45.14C213.239 45.14 212.721 45.042 212.254 44.846C211.797 44.6407 211.4 44.3653 211.064 44.02C210.728 43.6653 210.467 43.264 210.28 42.816C210.103 42.3587 210.014 41.8733 210.014 41.36C210.014 40.6693 210.173 40.0393 210.49 39.47C210.808 38.8913 211.251 38.4293 211.82 38.084C212.39 37.7293 213.057 37.552 213.822 37.552C214.588 37.552 215.246 37.7293 215.796 38.084C216.356 38.4293 216.79 38.8867 217.098 39.456C217.406 40.0253 217.56 40.6367 217.56 41.29C217.56 41.402 217.556 41.5093 217.546 41.612C217.537 41.7053 217.528 41.7847 217.518 41.85H211.652C211.68 42.2793 211.797 42.6573 212.002 42.984C212.217 43.3013 212.488 43.5533 212.814 43.74C213.141 43.9173 213.491 44.006 213.864 44.006C214.275 44.006 214.662 43.9033 215.026 43.698C215.4 43.4927 215.652 43.222 215.782 42.886L217.098 43.264C216.94 43.6187 216.697 43.9407 216.37 44.23C216.053 44.51 215.675 44.734 215.236 44.902C214.798 45.0607 214.322 45.14 213.808 45.14ZM211.61 40.828H216.034C216.006 40.408 215.885 40.0393 215.67 39.722C215.465 39.3953 215.199 39.1433 214.872 38.966C214.555 38.7793 214.2 38.686 213.808 38.686C213.426 38.686 213.071 38.7793 212.744 38.966C212.427 39.1433 212.166 39.3953 211.96 39.722C211.755 40.0393 211.638 40.408 211.61 40.828ZM222.276 45V37.678H223.816V45H222.276ZM222.276 36.474V34.78H223.816V36.474H222.276ZM228.27 45.14C227.654 45.14 227.071 45.042 226.52 44.846C225.97 44.6407 225.498 44.3373 225.106 43.936L225.68 42.9C226.1 43.2733 226.52 43.544 226.94 43.712C227.37 43.88 227.794 43.964 228.214 43.964C228.644 43.964 228.994 43.8847 229.264 43.726C229.535 43.558 229.67 43.3153 229.67 42.998C229.67 42.7647 229.6 42.592 229.46 42.48C229.32 42.368 229.115 42.27 228.844 42.186C228.583 42.102 228.266 42.0087 227.892 41.906C227.37 41.7473 226.931 41.584 226.576 41.416C226.222 41.2387 225.956 41.024 225.778 40.772C225.601 40.52 225.512 40.198 225.512 39.806C225.512 39.33 225.634 38.924 225.876 38.588C226.119 38.252 226.455 37.9953 226.884 37.818C227.323 37.6407 227.827 37.552 228.396 37.552C228.928 37.552 229.418 37.636 229.866 37.804C230.324 37.9627 230.725 38.2147 231.07 38.56L230.412 39.582C230.086 39.2833 229.75 39.064 229.404 38.924C229.068 38.784 228.704 38.714 228.312 38.714C228.088 38.714 227.874 38.742 227.668 38.798C227.463 38.8447 227.29 38.938 227.15 39.078C227.02 39.2087 226.954 39.3953 226.954 39.638C226.954 39.834 227.01 39.9927 227.122 40.114C227.234 40.2353 227.402 40.338 227.626 40.422C227.85 40.506 228.126 40.5993 228.452 40.702C229.022 40.87 229.507 41.038 229.908 41.206C230.31 41.3647 230.618 41.5747 230.832 41.836C231.056 42.088 231.168 42.438 231.168 42.886C231.168 43.5953 230.902 44.1507 230.37 44.552C229.848 44.944 229.148 45.14 228.27 45.14Z" fill="#00625B"/>
<path d="M228 154C228 144.545 226.138 135.182 222.519 126.447C218.901 117.711 213.598 109.774 206.912 103.088C200.226 96.4025 192.289 91.099 183.553 87.4807C174.818 83.8623 165.455 82 156 82C146.545 82 137.182 83.8623 128.447 87.4807C119.711 91.099 111.774 96.4025 105.088 103.088C98.4025 109.774 93.099 117.711 89.4807 126.447C85.8623 135.182 84 144.545 84 154" stroke="#E4E7EC" stroke-width="4" stroke-linecap="round" stroke-linejoin="round"/>
<path d="M156 82C163.563 82 171.08 83.1917 178.272 85.5313" stroke="#F04438" stroke-width="4" stroke-linecap="round" stroke-linejoin="round"/>
<path d="M156.523 104L156.523 154" stroke="#D0D5DD" stroke-linecap="round"/>
<path fill-rule="evenodd" clip-rule="evenodd" d="M160.807 124.899L176.162 90.1183L156.256 122.479C156.095 122.741 155.986 123.021 155.927 123.305C155.395 123.326 154.858 123.424 154.33 123.607C151.444 124.607 149.916 127.756 150.915 130.642C151.915 133.527 155.064 135.056 157.95 134.057C160.835 133.057 162.364 129.908 161.365 127.022C161.159 126.429 160.863 125.893 160.497 125.425C160.618 125.266 160.723 125.09 160.807 124.899Z" fill="#00625B"/>
<path d="M113.236 184H112.179C112.116 183.696 112.007 183.429 111.851 183.199C111.697 182.969 111.51 182.776 111.288 182.619C111.07 182.46 110.827 182.341 110.56 182.261C110.293 182.182 110.014 182.142 109.724 182.142C109.196 182.142 108.717 182.276 108.288 182.543C107.862 182.81 107.523 183.203 107.27 183.723C107.02 184.243 106.895 184.881 106.895 185.636C106.895 186.392 107.02 187.03 107.27 187.55C107.523 188.07 107.862 188.463 108.288 188.73C108.717 188.997 109.196 189.131 109.724 189.131C110.014 189.131 110.293 189.091 110.56 189.011C110.827 188.932 111.07 188.814 111.288 188.658C111.51 188.499 111.697 188.304 111.851 188.074C112.007 187.841 112.116 187.574 112.179 187.273H113.236C113.156 187.719 113.011 188.118 112.801 188.47C112.591 188.822 112.33 189.122 112.017 189.369C111.705 189.614 111.354 189.8 110.964 189.928C110.578 190.055 110.165 190.119 109.724 190.119C108.98 190.119 108.318 189.938 107.739 189.574C107.159 189.21 106.703 188.693 106.371 188.023C106.038 187.352 105.872 186.557 105.872 185.636C105.872 184.716 106.038 183.92 106.371 183.25C106.703 182.58 107.159 182.062 107.739 181.699C108.318 181.335 108.98 181.153 109.724 181.153C110.165 181.153 110.578 181.217 110.964 181.345C111.354 181.473 111.705 181.661 112.017 181.908C112.33 182.152 112.591 182.45 112.801 182.803C113.011 183.152 113.156 183.551 113.236 184ZM115.813 186.062V190H114.807V181.273H115.813V184.477H115.898C116.051 184.139 116.282 183.871 116.588 183.672C116.898 183.47 117.31 183.369 117.824 183.369C118.27 183.369 118.661 183.459 118.996 183.638C119.331 183.814 119.591 184.085 119.776 184.452C119.963 184.815 120.057 185.278 120.057 185.841V190H119.051V185.909C119.051 185.389 118.917 184.987 118.647 184.703C118.38 184.416 118.009 184.273 117.534 184.273C117.205 184.273 116.909 184.342 116.648 184.482C116.39 184.621 116.185 184.824 116.034 185.091C115.887 185.358 115.813 185.682 115.813 186.062ZM121.897 190V183.455H122.869V184.443H122.937C123.056 184.119 123.272 183.857 123.585 183.655C123.897 183.453 124.249 183.352 124.641 183.352C124.715 183.352 124.808 183.354 124.918 183.357C125.029 183.359 125.113 183.364 125.17 183.369V184.392C125.136 184.384 125.058 184.371 124.935 184.354C124.816 184.334 124.69 184.324 124.556 184.324C124.238 184.324 123.954 184.391 123.704 184.524C123.457 184.655 123.261 184.837 123.116 185.07C122.974 185.3 122.903 185.562 122.903 185.858V190H121.897ZM128.822 190.136C128.231 190.136 127.712 189.996 127.266 189.714C126.823 189.433 126.477 189.04 126.227 188.534C125.979 188.028 125.856 187.437 125.856 186.761C125.856 186.08 125.979 185.484 126.227 184.976C126.477 184.467 126.823 184.072 127.266 183.791C127.712 183.51 128.231 183.369 128.822 183.369C129.413 183.369 129.93 183.51 130.373 183.791C130.819 184.072 131.165 184.467 131.413 184.976C131.663 185.484 131.788 186.08 131.788 186.761C131.788 187.437 131.663 188.028 131.413 188.534C131.165 189.04 130.819 189.433 130.373 189.714C129.93 189.996 129.413 190.136 128.822 190.136ZM128.822 189.233C129.271 189.233 129.64 189.118 129.93 188.888C130.219 188.658 130.434 188.355 130.573 187.98C130.712 187.605 130.782 187.199 130.782 186.761C130.782 186.324 130.712 185.916 130.573 185.538C130.434 185.161 130.219 184.855 129.93 184.622C129.64 184.389 129.271 184.273 128.822 184.273C128.373 184.273 128.004 184.389 127.714 184.622C127.424 184.855 127.21 185.161 127.07 185.538C126.931 185.916 126.862 186.324 126.862 186.761C126.862 187.199 126.931 187.605 127.07 187.98C127.21 188.355 127.424 188.658 127.714 188.888C128.004 189.118 128.373 189.233 128.822 189.233ZM134.328 186.062V190H133.323V183.455H134.294V184.477H134.38C134.533 184.145 134.766 183.878 135.078 183.676C135.391 183.472 135.794 183.369 136.289 183.369C136.732 183.369 137.12 183.46 137.452 183.642C137.784 183.821 138.043 184.094 138.228 184.46C138.412 184.824 138.505 185.284 138.505 185.841V190H137.499V185.909C137.499 185.395 137.365 184.994 137.098 184.707C136.831 184.418 136.465 184.273 135.999 184.273C135.678 184.273 135.391 184.342 135.138 184.482C134.888 184.621 134.691 184.824 134.546 185.091C134.401 185.358 134.328 185.682 134.328 186.062ZM143.001 190.136C142.411 190.136 141.892 189.996 141.446 189.714C141.003 189.433 140.656 189.04 140.406 188.534C140.159 188.028 140.036 187.437 140.036 186.761C140.036 186.08 140.159 185.484 140.406 184.976C140.656 184.467 141.003 184.072 141.446 183.791C141.892 183.51 142.411 183.369 143.001 183.369C143.592 183.369 144.109 183.51 144.553 183.791C144.999 184.072 145.345 184.467 145.592 184.976C145.842 185.484 145.967 186.08 145.967 186.761C145.967 187.437 145.842 188.028 145.592 188.534C145.345 189.04 144.999 189.433 144.553 189.714C144.109 189.996 143.592 190.136 143.001 190.136ZM143.001 189.233C143.45 189.233 143.82 189.118 144.109 188.888C144.399 188.658 144.614 188.355 144.753 187.98C144.892 187.605 144.962 187.199 144.962 186.761C144.962 186.324 144.892 185.916 144.753 185.538C144.614 185.161 144.399 184.855 144.109 184.622C143.82 184.389 143.45 184.273 143.001 184.273C142.553 184.273 142.183 184.389 141.893 184.622C141.604 184.855 141.389 185.161 141.25 185.538C141.111 185.916 141.041 186.324 141.041 186.761C141.041 187.199 141.111 187.605 141.25 187.98C141.389 188.355 141.604 188.658 141.893 188.888C142.183 189.118 142.553 189.233 143.001 189.233ZM148.508 181.273V190H147.502V181.273H148.508ZM153.009 190.136C152.418 190.136 151.9 189.996 151.454 189.714C151.011 189.433 150.664 189.04 150.414 188.534C150.167 188.028 150.043 187.437 150.043 186.761C150.043 186.08 150.167 185.484 150.414 184.976C150.664 184.467 151.011 184.072 151.454 183.791C151.9 183.51 152.418 183.369 153.009 183.369C153.6 183.369 154.117 183.51 154.56 183.791C155.006 184.072 155.353 184.467 155.6 184.976C155.85 185.484 155.975 186.08 155.975 186.761C155.975 187.437 155.85 188.028 155.6 188.534C155.353 189.04 155.006 189.433 154.56 189.714C154.117 189.996 153.6 190.136 153.009 190.136ZM153.009 189.233C153.458 189.233 153.827 189.118 154.117 188.888C154.407 188.658 154.621 188.355 154.761 187.98C154.9 187.605 154.969 187.199 154.969 186.761C154.969 186.324 154.9 185.916 154.761 185.538C154.621 185.161 154.407 184.855 154.117 184.622C153.827 184.389 153.458 184.273 153.009 184.273C152.56 184.273 152.191 184.389 151.901 184.622C151.612 184.855 151.397 185.161 151.258 185.538C151.119 185.916 151.049 186.324 151.049 186.761C151.049 187.199 151.119 187.605 151.258 187.98C151.397 188.355 151.612 188.658 151.901 188.888C152.191 189.118 152.56 189.233 153.009 189.233ZM160.152 192.591C159.667 192.591 159.249 192.528 158.9 192.403C158.55 192.281 158.259 192.119 158.026 191.918C157.796 191.719 157.613 191.506 157.476 191.278L158.277 190.716C158.368 190.835 158.483 190.972 158.623 191.125C158.762 191.281 158.952 191.416 159.194 191.53C159.438 191.646 159.757 191.705 160.152 191.705C160.681 191.705 161.117 191.577 161.461 191.321C161.804 191.065 161.976 190.665 161.976 190.119V188.79H161.891C161.817 188.909 161.712 189.057 161.576 189.233C161.442 189.406 161.249 189.561 160.996 189.697C160.746 189.831 160.408 189.898 159.982 189.898C159.453 189.898 158.979 189.773 158.559 189.523C158.141 189.273 157.81 188.909 157.566 188.432C157.324 187.955 157.203 187.375 157.203 186.693C157.203 186.023 157.321 185.439 157.557 184.942C157.793 184.442 158.121 184.055 158.542 183.783C158.962 183.507 159.448 183.369 159.999 183.369C160.425 183.369 160.763 183.44 161.013 183.582C161.266 183.722 161.459 183.881 161.593 184.06C161.729 184.236 161.834 184.381 161.908 184.494H162.01V183.455H162.982V190.188C162.982 190.75 162.854 191.207 162.598 191.56C162.346 191.915 162.005 192.175 161.576 192.339C161.15 192.507 160.675 192.591 160.152 192.591ZM160.118 188.994C160.522 188.994 160.863 188.902 161.141 188.717C161.419 188.533 161.631 188.267 161.776 187.92C161.921 187.574 161.993 187.159 161.993 186.676C161.993 186.205 161.922 185.788 161.78 185.428C161.638 185.067 161.428 184.784 161.15 184.58C160.871 184.375 160.527 184.273 160.118 184.273C159.692 184.273 159.337 184.381 159.053 184.597C158.772 184.812 158.56 185.102 158.418 185.466C158.279 185.83 158.209 186.233 158.209 186.676C158.209 187.131 158.28 187.533 158.422 187.882C158.567 188.229 158.78 188.501 159.061 188.7C159.346 188.896 159.698 188.994 160.118 188.994ZM164.823 190V183.455H165.828V190H164.823ZM165.334 182.364C165.138 182.364 164.969 182.297 164.827 182.163C164.688 182.03 164.618 181.869 164.618 181.682C164.618 181.494 164.688 181.334 164.827 181.2C164.969 181.067 165.138 181 165.334 181C165.53 181 165.698 181.067 165.837 181.2C165.979 181.334 166.05 181.494 166.05 181.682C166.05 181.869 165.979 182.03 165.837 182.163C165.698 182.297 165.53 182.364 165.334 182.364ZM170.33 190.136C169.716 190.136 169.188 189.991 168.744 189.702C168.301 189.412 167.96 189.013 167.722 188.504C167.483 187.996 167.364 187.415 167.364 186.761C167.364 186.097 167.486 185.51 167.73 185.001C167.977 184.49 168.321 184.091 168.761 183.804C169.205 183.514 169.722 183.369 170.312 183.369C170.773 183.369 171.188 183.455 171.557 183.625C171.926 183.795 172.229 184.034 172.464 184.341C172.7 184.648 172.847 185.006 172.903 185.415H171.898C171.821 185.116 171.651 184.852 171.386 184.622C171.125 184.389 170.773 184.273 170.33 184.273C169.938 184.273 169.594 184.375 169.298 184.58C169.006 184.781 168.777 185.067 168.612 185.436C168.45 185.803 168.369 186.233 168.369 186.727C168.369 187.233 168.449 187.673 168.608 188.048C168.77 188.423 168.997 188.714 169.29 188.922C169.585 189.129 169.932 189.233 170.33 189.233C170.591 189.233 170.828 189.188 171.041 189.097C171.254 189.006 171.435 188.875 171.582 188.705C171.73 188.534 171.835 188.33 171.898 188.091H172.903C172.847 188.477 172.706 188.825 172.482 189.135C172.26 189.442 171.966 189.686 171.599 189.868C171.236 190.047 170.813 190.136 170.33 190.136ZM176.3 190.153C175.885 190.153 175.509 190.075 175.17 189.919C174.832 189.76 174.564 189.531 174.365 189.233C174.166 188.932 174.067 188.568 174.067 188.142C174.067 187.767 174.141 187.463 174.288 187.23C174.436 186.994 174.634 186.81 174.881 186.676C175.128 186.543 175.401 186.443 175.699 186.378C176 186.31 176.303 186.256 176.607 186.216C177.004 186.165 177.327 186.126 177.574 186.101C177.824 186.072 178.006 186.026 178.119 185.96C178.236 185.895 178.294 185.781 178.294 185.619V185.585C178.294 185.165 178.179 184.838 177.949 184.605C177.722 184.372 177.376 184.256 176.913 184.256C176.433 184.256 176.057 184.361 175.784 184.571C175.511 184.781 175.32 185.006 175.209 185.244L174.254 184.903C174.425 184.506 174.652 184.196 174.936 183.974C175.223 183.75 175.536 183.594 175.874 183.506C176.214 183.415 176.55 183.369 176.879 183.369C177.089 183.369 177.331 183.395 177.604 183.446C177.879 183.494 178.145 183.595 178.401 183.749C178.659 183.902 178.874 184.134 179.044 184.443C179.214 184.753 179.3 185.168 179.3 185.688V190H178.294V189.114H178.243C178.175 189.256 178.061 189.408 177.902 189.57C177.743 189.732 177.531 189.869 177.267 189.983C177.003 190.097 176.68 190.153 176.3 190.153ZM176.453 189.25C176.851 189.25 177.186 189.172 177.459 189.016C177.734 188.859 177.942 188.658 178.081 188.411C178.223 188.163 178.294 187.903 178.294 187.631V186.71C178.251 186.761 178.158 186.808 178.013 186.851C177.871 186.891 177.706 186.926 177.518 186.957C177.334 186.986 177.153 187.011 176.977 187.034C176.804 187.054 176.663 187.071 176.555 187.085C176.294 187.119 176.05 187.175 175.822 187.251C175.598 187.325 175.416 187.437 175.277 187.588C175.141 187.736 175.072 187.937 175.072 188.193C175.072 188.543 175.202 188.807 175.46 188.986C175.722 189.162 176.053 189.25 176.453 189.25ZM182.141 181.273V190H181.135V181.273H182.141ZM187.852 190H186.744L189.949 181.273H191.04L194.244 190H193.136L190.528 182.653H190.46L187.852 190ZM188.261 186.591H192.727V187.528H188.261V186.591ZM198.109 192.591C197.624 192.591 197.206 192.528 196.857 192.403C196.507 192.281 196.216 192.119 195.983 191.918C195.753 191.719 195.57 191.506 195.433 191.278L196.234 190.716C196.325 190.835 196.44 190.972 196.58 191.125C196.719 191.281 196.909 191.416 197.151 191.53C197.395 191.646 197.714 191.705 198.109 191.705C198.638 191.705 199.074 191.577 199.418 191.321C199.761 191.065 199.933 190.665 199.933 190.119V188.79H199.848C199.774 188.909 199.669 189.057 199.533 189.233C199.399 189.406 199.206 189.561 198.953 189.697C198.703 189.831 198.365 189.898 197.939 189.898C197.411 189.898 196.936 189.773 196.516 189.523C196.098 189.273 195.767 188.909 195.523 188.432C195.281 187.955 195.161 187.375 195.161 186.693C195.161 186.023 195.278 185.439 195.514 184.942C195.75 184.442 196.078 184.055 196.499 183.783C196.919 183.507 197.405 183.369 197.956 183.369C198.382 183.369 198.72 183.44 198.97 183.582C199.223 183.722 199.416 183.881 199.55 184.06C199.686 184.236 199.791 184.381 199.865 184.494H199.967V183.455H200.939V190.188C200.939 190.75 200.811 191.207 200.555 191.56C200.303 191.915 199.962 192.175 199.533 192.339C199.107 192.507 198.632 192.591 198.109 192.591ZM198.075 188.994C198.479 188.994 198.82 188.902 199.098 188.717C199.376 188.533 199.588 188.267 199.733 187.92C199.878 187.574 199.95 187.159 199.95 186.676C199.95 186.205 199.879 185.788 199.737 185.428C199.595 185.067 199.385 184.784 199.107 184.58C198.828 184.375 198.484 184.273 198.075 184.273C197.649 184.273 197.294 184.381 197.01 184.597C196.729 184.812 196.517 185.102 196.375 185.466C196.236 185.83 196.166 186.233 196.166 186.676C196.166 187.131 196.237 187.533 196.379 187.882C196.524 188.229 196.737 188.501 197.018 188.7C197.303 188.896 197.655 188.994 198.075 188.994ZM205.524 190.136C204.893 190.136 204.349 189.997 203.892 189.719C203.438 189.438 203.087 189.045 202.839 188.543C202.595 188.037 202.473 187.449 202.473 186.778C202.473 186.108 202.595 185.517 202.839 185.006C203.087 184.491 203.43 184.091 203.871 183.804C204.314 183.514 204.831 183.369 205.422 183.369C205.763 183.369 206.099 183.426 206.432 183.54C206.764 183.653 207.067 183.838 207.339 184.094C207.612 184.347 207.83 184.682 207.991 185.099C208.153 185.517 208.234 186.031 208.234 186.642V187.068H203.189V186.199H207.212C207.212 185.83 207.138 185.5 206.99 185.21C206.845 184.92 206.638 184.692 206.368 184.524C206.101 184.357 205.786 184.273 205.422 184.273C205.021 184.273 204.675 184.372 204.382 184.571C204.092 184.767 203.869 185.023 203.713 185.338C203.557 185.653 203.479 185.991 203.479 186.352V186.932C203.479 187.426 203.564 187.845 203.734 188.189C203.908 188.53 204.148 188.79 204.455 188.969C204.761 189.145 205.118 189.233 205.524 189.233C205.788 189.233 206.027 189.196 206.24 189.122C206.456 189.045 206.642 188.932 206.798 188.781C206.955 188.628 207.075 188.437 207.161 188.21L208.132 188.483C208.03 188.812 207.858 189.102 207.616 189.352C207.375 189.599 207.077 189.793 206.722 189.932C206.366 190.068 205.967 190.136 205.524 190.136Z" fill="#667085"/>
<circle cx="38" cy="179" r="4" fill="#17B26A"/>
<path d="M46.5483 176.182H47.3551L48.9688 178.898H49.0369L50.6506 176.182H51.4574L49.3551 179.602V182H48.6506V179.602L46.5483 176.182ZM53.4332 182.091C53.0393 182.091 52.6937 181.997 52.3963 181.81C52.1009 181.622 51.8698 181.36 51.7031 181.023C51.5384 180.686 51.456 180.292 51.456 179.841C51.456 179.386 51.5384 178.99 51.7031 178.651C51.8698 178.312 52.1009 178.048 52.3963 177.861C52.6937 177.673 53.0393 177.58 53.4332 177.58C53.8272 177.58 54.1719 177.673 54.4673 177.861C54.7647 178.048 54.9957 178.312 55.1605 178.651C55.3272 178.99 55.4105 179.386 55.4105 179.841C55.4105 180.292 55.3272 180.686 55.1605 181.023C54.9957 181.36 54.7647 181.622 54.4673 181.81C54.1719 181.997 53.8272 182.091 53.4332 182.091ZM53.4332 181.489C53.7325 181.489 53.9787 181.412 54.1719 181.259C54.3651 181.105 54.508 180.903 54.6009 180.653C54.6937 180.403 54.7401 180.133 54.7401 179.841C54.7401 179.549 54.6937 179.277 54.6009 179.026C54.508 178.774 54.3651 178.57 54.1719 178.415C53.9787 178.259 53.7325 178.182 53.4332 178.182C53.134 178.182 52.8878 178.259 52.6946 178.415C52.5014 178.57 52.3584 178.774 52.2656 179.026C52.1728 179.277 52.1264 179.549 52.1264 179.841C52.1264 180.133 52.1728 180.403 52.2656 180.653C52.3584 180.903 52.5014 181.105 52.6946 181.259C52.8878 181.412 53.134 181.489 53.4332 181.489ZM59.1839 180.216V177.636H59.8544V182H59.1839V181.261H59.1385C59.0362 181.483 58.8771 181.671 58.6612 181.827C58.4453 181.98 58.1726 182.057 57.843 182.057C57.5703 182.057 57.3279 181.997 57.1158 181.878C56.9036 181.757 56.737 181.575 56.6158 181.332C56.4946 181.088 56.4339 180.78 56.4339 180.409V177.636H57.1044V180.364C57.1044 180.682 57.1934 180.936 57.3714 181.125C57.5514 181.314 57.7805 181.409 58.0589 181.409C58.2256 181.409 58.3951 181.366 58.5675 181.281C58.7417 181.196 58.8875 181.065 59.005 180.889C59.1243 180.713 59.1839 180.489 59.1839 180.216ZM61.7528 179.375V182H61.0824V177.636H61.7301V178.318H61.7869C61.8892 178.097 62.0445 177.919 62.2528 177.784C62.4612 177.648 62.7301 177.58 63.0597 177.58C63.3551 177.58 63.6136 177.64 63.8352 177.761C64.0568 177.881 64.2292 178.062 64.3523 178.307C64.4754 178.549 64.5369 178.856 64.5369 179.227V182H63.8665V179.273C63.8665 178.93 63.7775 178.663 63.5994 178.472C63.4214 178.278 63.1771 178.182 62.8665 178.182C62.6525 178.182 62.4612 178.228 62.2926 178.321C62.1259 178.414 61.9943 178.549 61.8977 178.727C61.8011 178.905 61.7528 179.121 61.7528 179.375ZM67.5234 183.727C67.1996 183.727 66.9212 183.686 66.6882 183.602C66.4553 183.521 66.2611 183.413 66.1058 183.278C65.9524 183.146 65.8303 183.004 65.7393 182.852L66.2734 182.477C66.334 182.557 66.4107 182.648 66.5036 182.75C66.5964 182.854 66.7232 182.944 66.8842 183.02C67.0471 183.098 67.2602 183.136 67.5234 183.136C67.8757 183.136 68.1664 183.051 68.3956 182.881C68.6248 182.71 68.7393 182.443 68.7393 182.08V181.193H68.6825C68.6333 181.273 68.5632 181.371 68.4723 181.489C68.3833 181.604 68.2545 181.707 68.0859 181.798C67.9193 181.887 67.6939 181.932 67.4098 181.932C67.0575 181.932 66.7412 181.848 66.4609 181.682C66.1825 181.515 65.9619 181.273 65.799 180.955C65.638 180.636 65.5575 180.25 65.5575 179.795C65.5575 179.348 65.6361 178.959 65.7933 178.628C65.9505 178.295 66.1693 178.037 66.4496 177.855C66.7299 177.671 67.0537 177.58 67.4212 177.58C67.7053 177.58 67.9306 177.627 68.0973 177.722C68.2659 177.814 68.3946 177.92 68.4837 178.04C68.5746 178.157 68.6446 178.254 68.6939 178.33H68.7621V177.636H69.4098V182.125C69.4098 182.5 69.3246 182.805 69.1541 183.04C68.9856 183.277 68.7583 183.45 68.4723 183.56C68.1882 183.671 67.8719 183.727 67.5234 183.727ZM67.5007 181.33C67.7696 181.33 67.9969 181.268 68.1825 181.145C68.3681 181.022 68.5092 180.845 68.6058 180.614C68.7024 180.383 68.7507 180.106 68.7507 179.784C68.7507 179.47 68.7034 179.192 68.6087 178.952C68.514 178.711 68.3738 178.523 68.1882 178.386C68.0026 178.25 67.7734 178.182 67.5007 178.182C67.2166 178.182 66.9799 178.254 66.7905 178.398C66.603 178.542 66.4619 178.735 66.3672 178.977C66.2744 179.22 66.228 179.489 66.228 179.784C66.228 180.087 66.2753 180.355 66.37 180.588C66.4666 180.819 66.6087 181.001 66.7962 181.134C66.9856 181.264 67.2204 181.33 67.5007 181.33ZM72.4666 182.091C72.0462 182.091 71.6835 181.998 71.3786 181.812C71.0755 181.625 70.8416 181.364 70.6768 181.028C70.514 180.691 70.4325 180.299 70.4325 179.852C70.4325 179.405 70.514 179.011 70.6768 178.67C70.8416 178.328 71.0708 178.061 71.3643 177.869C71.6598 177.676 72.0045 177.58 72.3984 177.58C72.6257 177.58 72.8501 177.617 73.0717 177.693C73.2933 177.769 73.495 177.892 73.6768 178.062C73.8587 178.231 74.0036 178.455 74.1115 178.733C74.2195 179.011 74.2734 179.354 74.2734 179.761V180.045H70.9098V179.466H73.5916C73.5916 179.22 73.5424 179 73.4439 178.807C73.3473 178.614 73.209 178.461 73.0291 178.349C72.8511 178.238 72.6409 178.182 72.3984 178.182C72.1314 178.182 71.9003 178.248 71.7053 178.381C71.5121 178.511 71.3634 178.682 71.2592 178.892C71.1551 179.102 71.103 179.328 71.103 179.568V179.955C71.103 180.284 71.1598 180.563 71.2734 180.793C71.389 181.02 71.549 181.193 71.7536 181.312C71.9581 181.43 72.1958 181.489 72.4666 181.489C72.6428 181.489 72.8018 181.464 72.9439 181.415C73.0878 181.364 73.2119 181.288 73.3161 181.188C73.4202 181.085 73.5007 180.958 73.5575 180.807L74.2053 180.989C74.1371 181.208 74.0225 181.402 73.8615 181.568C73.7005 181.733 73.5017 181.862 73.2649 181.955C73.0282 182.045 72.7621 182.091 72.4666 182.091ZM75.2933 182V177.636H75.9411V178.295H75.9865C76.0661 178.08 76.21 177.904 76.4183 177.77C76.6267 177.635 76.8615 177.568 77.1229 177.568C77.1721 177.568 77.2337 177.569 77.3075 177.571C77.3814 177.573 77.4373 177.576 77.4751 177.58V178.261C77.4524 178.256 77.4003 178.247 77.3189 178.236C77.2393 178.223 77.1551 178.216 77.0661 178.216C76.8539 178.216 76.6645 178.26 76.4979 178.349C76.3331 178.437 76.2024 178.558 76.1058 178.713C76.0111 178.866 75.9638 179.042 75.9638 179.239V182H75.2933Z" fill="#667085"/>
<path d="M250.817 179.091C250.817 179.705 250.706 180.235 250.484 180.682C250.263 181.129 249.959 181.473 249.572 181.716C249.186 181.958 248.745 182.08 248.249 182.08C247.752 182.08 247.311 181.958 246.925 181.716C246.538 181.473 246.234 181.129 246.013 180.682C245.791 180.235 245.68 179.705 245.68 179.091C245.68 178.477 245.791 177.947 246.013 177.5C246.234 177.053 246.538 176.708 246.925 176.466C247.311 176.223 247.752 176.102 248.249 176.102C248.745 176.102 249.186 176.223 249.572 176.466C249.959 176.708 250.263 177.053 250.484 177.5C250.706 177.947 250.817 178.477 250.817 179.091ZM250.135 179.091C250.135 178.587 250.051 178.162 249.882 177.815C249.715 177.469 249.489 177.206 249.203 177.028C248.919 176.85 248.601 176.761 248.249 176.761C247.896 176.761 247.577 176.85 247.291 177.028C247.007 177.206 246.781 177.469 246.612 177.815C246.446 178.162 246.362 178.587 246.362 179.091C246.362 179.595 246.446 180.02 246.612 180.366C246.781 180.713 247.007 180.975 247.291 181.153C247.577 181.331 247.896 181.42 248.249 181.42C248.601 181.42 248.919 181.331 249.203 181.153C249.489 180.975 249.715 180.713 249.882 180.366C250.051 180.02 250.135 179.595 250.135 179.091ZM252.581 176.182V182H251.911V176.182H252.581ZM255.457 182.091C255.093 182.091 254.772 181.999 254.494 181.815C254.215 181.63 253.997 181.368 253.84 181.031C253.683 180.692 253.604 180.292 253.604 179.83C253.604 179.371 253.683 178.973 253.84 178.636C253.997 178.299 254.216 178.039 254.496 177.855C254.777 177.671 255.101 177.58 255.468 177.58C255.752 177.58 255.977 177.627 256.141 177.722C256.308 177.814 256.435 177.92 256.522 178.04C256.611 178.157 256.68 178.254 256.729 178.33H256.786V176.182H257.457V182H256.809V181.33H256.729C256.68 181.409 256.61 181.509 256.519 181.631C256.428 181.75 256.299 181.857 256.13 181.952C255.961 182.045 255.737 182.091 255.457 182.091ZM255.548 181.489C255.817 181.489 256.044 181.419 256.229 181.278C256.415 181.136 256.556 180.94 256.653 180.69C256.749 180.438 256.798 180.148 256.798 179.818C256.798 179.492 256.75 179.207 256.656 178.963C256.561 178.717 256.421 178.526 256.235 178.389C256.049 178.251 255.82 178.182 255.548 178.182C255.263 178.182 255.027 178.255 254.837 178.401C254.65 178.545 254.509 178.741 254.414 178.989C254.321 179.235 254.275 179.511 254.275 179.818C254.275 180.129 254.322 180.411 254.417 180.665C254.513 180.917 254.656 181.117 254.843 181.267C255.032 181.415 255.267 181.489 255.548 181.489ZM260.607 182.091C260.187 182.091 259.824 181.998 259.519 181.812C259.216 181.625 258.982 181.364 258.817 181.028C258.655 180.691 258.573 180.299 258.573 179.852C258.573 179.405 258.655 179.011 258.817 178.67C258.982 178.328 259.211 178.061 259.505 177.869C259.8 177.676 260.145 177.58 260.539 177.58C260.766 177.58 260.991 177.617 261.212 177.693C261.434 177.769 261.636 177.892 261.817 178.062C261.999 178.231 262.144 178.455 262.252 178.733C262.36 179.011 262.414 179.354 262.414 179.761V180.045H259.05V179.466H261.732C261.732 179.22 261.683 179 261.585 178.807C261.488 178.614 261.35 178.461 261.17 178.349C260.992 178.238 260.781 178.182 260.539 178.182C260.272 178.182 260.041 178.248 259.846 178.381C259.653 178.511 259.504 178.682 259.4 178.892C259.296 179.102 259.244 179.328 259.244 179.568V179.955C259.244 180.284 259.3 180.563 259.414 180.793C259.53 181.02 259.69 181.193 259.894 181.312C260.099 181.43 260.336 181.489 260.607 181.489C260.783 181.489 260.942 181.464 261.085 181.415C261.228 181.364 261.353 181.288 261.457 181.188C261.561 181.085 261.641 180.958 261.698 180.807L262.346 180.989C262.278 181.208 262.163 181.402 262.002 181.568C261.841 181.733 261.642 181.862 261.406 181.955C261.169 182.045 260.903 182.091 260.607 182.091ZM263.434 182V177.636H264.082V178.295H264.127C264.207 178.08 264.351 177.904 264.559 177.77C264.767 177.635 265.002 177.568 265.263 177.568C265.313 177.568 265.374 177.569 265.448 177.571C265.522 177.573 265.578 177.576 265.616 177.58V178.261C265.593 178.256 265.541 178.247 265.46 178.236C265.38 178.223 265.296 178.216 265.207 178.216C264.995 178.216 264.805 178.26 264.638 178.349C264.474 178.437 264.343 178.558 264.246 178.713C264.152 178.866 264.104 179.042 264.104 179.239V182H263.434Z" fill="#667085"/>
<circle cx="274" cy="179" r="4" fill="#F04438"/>
</svg>
