<svg width="312" height="226" viewBox="0 0 312 226" fill="none" xmlns="http://www.w3.org/2000/svg">
<rect x="0.05" y="0.05" width="311.9" height="225.9" rx="31.95" fill="white"/>
<rect x="0.05" y="0.05" width="311.9" height="225.9" rx="31.95" stroke="#00625B" stroke-width="0.1"/>
<path d="M93.4585 24V18.1818H95.4244C95.8789 18.1818 96.252 18.2595 96.5437 18.4148C96.8353 18.5682 97.0513 18.7794 97.1914 19.0483C97.3316 19.3172 97.4016 19.6231 97.4016 19.9659C97.4016 20.3087 97.3316 20.6127 97.1914 20.8778C97.0513 21.143 96.8363 21.3513 96.5465 21.5028C96.2567 21.6525 95.8865 21.7273 95.4357 21.7273H93.8448V21.0909H95.413C95.7236 21.0909 95.9736 21.0455 96.163 20.9545C96.3543 20.8636 96.4925 20.7348 96.5778 20.5682C96.6649 20.3996 96.7085 20.1989 96.7085 19.9659C96.7085 19.733 96.6649 19.5294 96.5778 19.3551C96.4906 19.1809 96.3514 19.0464 96.1602 18.9517C95.9689 18.8551 95.716 18.8068 95.4016 18.8068H94.163V24H93.4585ZM96.1971 21.3864L97.6289 24H96.8107L95.4016 21.3864H96.1971ZM100.267 24.0909C99.8469 24.0909 99.4843 23.9981 99.1793 23.8125C98.8763 23.625 98.6424 23.3636 98.4776 23.0284C98.3147 22.6913 98.2333 22.2992 98.2333 21.8523C98.2333 21.4053 98.3147 21.0114 98.4776 20.6705C98.6424 20.3277 98.8716 20.0606 99.1651 19.8693C99.4606 19.6761 99.8053 19.5795 100.199 19.5795C100.426 19.5795 100.651 19.6174 100.873 19.6932C101.094 19.7689 101.296 19.892 101.478 20.0625C101.659 20.2311 101.804 20.4545 101.912 20.733C102.02 21.0114 102.074 21.3542 102.074 21.7614V22.0455H98.7106V21.4659H101.392C101.392 21.2197 101.343 21 101.245 20.8068C101.148 20.6136 101.01 20.4612 100.83 20.3494C100.652 20.2377 100.442 20.1818 100.199 20.1818C99.9322 20.1818 99.7011 20.2481 99.506 20.3807C99.3129 20.5114 99.1642 20.6818 99.06 20.892C98.9558 21.1023 98.9038 21.3277 98.9038 21.5682V21.9545C98.9038 22.2841 98.9606 22.5634 99.0742 22.7926C99.1897 23.0199 99.3498 23.1932 99.5543 23.3125C99.7589 23.4299 99.9966 23.4886 100.267 23.4886C100.444 23.4886 100.603 23.464 100.745 23.4148C100.889 23.3636 101.013 23.2879 101.117 23.1875C101.221 23.0852 101.301 22.9583 101.358 22.8068L102.006 22.9886C101.938 23.2083 101.823 23.4015 101.662 23.5682C101.501 23.733 101.302 23.8617 101.066 23.9545C100.829 24.0455 100.563 24.0909 100.267 24.0909ZM105.037 19.6364V20.2045H102.685V19.6364H105.037ZM103.39 24V19.0341C103.39 18.7841 103.448 18.5758 103.566 18.4091C103.683 18.2424 103.836 18.1174 104.023 18.0341C104.211 17.9508 104.408 17.9091 104.617 17.9091C104.782 17.9091 104.916 17.9223 105.02 17.9489C105.124 17.9754 105.202 18 105.253 18.0227L105.06 18.6023C105.026 18.5909 104.979 18.5767 104.918 18.5597C104.859 18.5426 104.782 18.5341 104.685 18.5341C104.463 18.5341 104.303 18.59 104.205 18.7017C104.108 18.8134 104.06 18.9773 104.06 19.1932V24H103.39ZM106.647 18.1818V24H105.977V18.1818H106.647ZM109.705 24.0909C109.284 24.0909 108.922 23.9981 108.617 23.8125C108.314 23.625 108.08 23.3636 107.915 23.0284C107.752 22.6913 107.671 22.2992 107.671 21.8523C107.671 21.4053 107.752 21.0114 107.915 20.6705C108.08 20.3277 108.309 20.0606 108.603 19.8693C108.898 19.6761 109.243 19.5795 109.637 19.5795C109.864 19.5795 110.088 19.6174 110.31 19.6932C110.532 19.7689 110.733 19.892 110.915 20.0625C111.097 20.2311 111.242 20.4545 111.35 20.733C111.458 21.0114 111.512 21.3542 111.512 21.7614V22.0455H108.148V21.4659H110.83C110.83 21.2197 110.781 21 110.682 20.8068C110.586 20.6136 110.447 20.4612 110.267 20.3494C110.089 20.2377 109.879 20.1818 109.637 20.1818C109.37 20.1818 109.139 20.2481 108.944 20.3807C108.75 20.5114 108.602 20.6818 108.498 20.892C108.393 21.1023 108.341 21.3277 108.341 21.5682V21.9545C108.341 22.2841 108.398 22.5634 108.512 22.7926C108.627 23.0199 108.787 23.1932 108.992 23.3125C109.196 23.4299 109.434 23.4886 109.705 23.4886C109.881 23.4886 110.04 23.464 110.182 23.4148C110.326 23.3636 110.45 23.2879 110.554 23.1875C110.658 23.0852 110.739 22.9583 110.796 22.8068L111.444 22.9886C111.375 23.2083 111.261 23.4015 111.1 23.5682C110.939 23.733 110.74 23.8617 110.503 23.9545C110.266 24.0455 110 24.0909 109.705 24.0909ZM114.304 24.0909C113.895 24.0909 113.543 23.9943 113.248 23.8011C112.952 23.608 112.725 23.3419 112.566 23.0028C112.407 22.6638 112.327 22.2765 112.327 21.8409C112.327 21.3977 112.408 21.0066 112.571 20.6676C112.736 20.3267 112.965 20.0606 113.259 19.8693C113.554 19.6761 113.899 19.5795 114.293 19.5795C114.6 19.5795 114.876 19.6364 115.123 19.75C115.369 19.8636 115.57 20.0227 115.728 20.2273C115.885 20.4318 115.982 20.6705 116.02 20.9432H115.35C115.299 20.7443 115.185 20.5682 115.009 20.4148C114.835 20.2595 114.6 20.1818 114.304 20.1818C114.043 20.1818 113.814 20.25 113.617 20.3864C113.422 20.5208 113.269 20.7112 113.159 20.9574C113.051 21.2017 112.998 21.4886 112.998 21.8182C112.998 22.1553 113.051 22.4489 113.157 22.6989C113.265 22.9489 113.416 23.143 113.611 23.2812C113.808 23.4195 114.039 23.4886 114.304 23.4886C114.479 23.4886 114.637 23.4583 114.779 23.3977C114.921 23.3371 115.041 23.25 115.14 23.1364C115.238 23.0227 115.308 22.8864 115.35 22.7273H116.02C115.982 22.9848 115.889 23.2169 115.739 23.4233C115.591 23.6278 115.395 23.7907 115.151 23.9119C114.908 24.0312 114.626 24.0909 114.304 24.0909ZM118.898 19.6364V20.2045H116.637V19.6364H118.898ZM117.296 18.5909H117.966V22.75C117.966 22.9394 117.994 23.0814 118.049 23.1761C118.105 23.2689 118.177 23.3314 118.265 23.3636C118.354 23.3939 118.447 23.4091 118.546 23.4091C118.62 23.4091 118.68 23.4053 118.728 23.3977C118.775 23.3883 118.813 23.3807 118.841 23.375L118.978 23.9773C118.932 23.9943 118.869 24.0114 118.787 24.0284C118.706 24.0473 118.603 24.0568 118.478 24.0568C118.288 24.0568 118.103 24.0161 117.921 23.9347C117.741 23.8532 117.591 23.7292 117.472 23.5625C117.355 23.3958 117.296 23.1856 117.296 22.9318V18.5909ZM122.919 20.6136L122.317 20.7841C122.279 20.6837 122.223 20.5862 122.15 20.4915C122.078 20.3949 121.979 20.3153 121.854 20.2528C121.729 20.1903 121.569 20.1591 121.374 20.1591C121.107 20.1591 120.884 20.2206 120.706 20.3438C120.53 20.465 120.442 20.6193 120.442 20.8068C120.442 20.9735 120.503 21.1051 120.624 21.2017C120.745 21.2983 120.935 21.3788 121.192 21.4432L121.84 21.6023C122.23 21.697 122.521 21.8419 122.712 22.0369C122.903 22.2301 122.999 22.4792 122.999 22.7841C122.999 23.0341 122.927 23.2576 122.783 23.4545C122.641 23.6515 122.442 23.8068 122.186 23.9205C121.931 24.0341 121.633 24.0909 121.294 24.0909C120.849 24.0909 120.481 23.9943 120.189 23.8011C119.898 23.608 119.713 23.3258 119.635 22.9545L120.272 22.7955C120.332 23.0303 120.447 23.2064 120.615 23.3239C120.786 23.4413 121.008 23.5 121.283 23.5C121.596 23.5 121.844 23.4337 122.027 23.3011C122.213 23.1667 122.306 23.0057 122.306 22.8182C122.306 22.6667 122.253 22.5398 122.147 22.4375C122.041 22.3333 121.878 22.2557 121.658 22.2045L120.931 22.0341C120.531 21.9394 120.238 21.7926 120.05 21.5938C119.864 21.393 119.772 21.142 119.772 20.8409C119.772 20.5947 119.841 20.3769 119.979 20.1875C120.119 19.9981 120.31 19.8494 120.55 19.7415C120.792 19.6335 121.067 19.5795 121.374 19.5795C121.806 19.5795 122.145 19.6742 122.391 19.8636C122.639 20.053 122.815 20.303 122.919 20.6136ZM129.349 20.6136L128.747 20.7841C128.709 20.6837 128.653 20.5862 128.579 20.4915C128.507 20.3949 128.409 20.3153 128.284 20.2528C128.159 20.1903 127.999 20.1591 127.804 20.1591C127.537 20.1591 127.314 20.2206 127.136 20.3438C126.96 20.465 126.872 20.6193 126.872 20.8068C126.872 20.9735 126.932 21.1051 127.054 21.2017C127.175 21.2983 127.364 21.3788 127.622 21.4432L128.27 21.6023C128.66 21.697 128.95 21.8419 129.142 22.0369C129.333 22.2301 129.429 22.4792 129.429 22.7841C129.429 23.0341 129.357 23.2576 129.213 23.4545C129.071 23.6515 128.872 23.8068 128.616 23.9205C128.36 24.0341 128.063 24.0909 127.724 24.0909C127.279 24.0909 126.911 23.9943 126.619 23.8011C126.327 23.608 126.143 23.3258 126.065 22.9545L126.701 22.7955C126.762 23.0303 126.877 23.2064 127.045 23.3239C127.216 23.4413 127.438 23.5 127.713 23.5C128.025 23.5 128.273 23.4337 128.457 23.3011C128.643 23.1667 128.735 23.0057 128.735 22.8182C128.735 22.6667 128.682 22.5398 128.576 22.4375C128.47 22.3333 128.307 22.2557 128.088 22.2045L127.36 22.0341C126.961 21.9394 126.667 21.7926 126.48 21.5938C126.294 21.393 126.201 21.142 126.201 20.8409C126.201 20.5947 126.27 20.3769 126.409 20.1875C126.549 19.9981 126.739 19.8494 126.98 19.7415C127.222 19.6335 127.497 19.5795 127.804 19.5795C128.235 19.5795 128.574 19.6742 128.821 19.8636C129.069 20.053 129.245 20.303 129.349 20.6136ZM132.336 19.6364V20.2045H130.074V19.6364H132.336ZM130.733 18.5909H131.404V22.75C131.404 22.9394 131.431 23.0814 131.486 23.1761C131.543 23.2689 131.615 23.3314 131.702 23.3636C131.791 23.3939 131.885 23.4091 131.983 23.4091C132.057 23.4091 132.118 23.4053 132.165 23.3977C132.212 23.3883 132.25 23.3807 132.279 23.375L132.415 23.9773C132.37 23.9943 132.306 24.0114 132.225 24.0284C132.143 24.0473 132.04 24.0568 131.915 24.0568C131.726 24.0568 131.54 24.0161 131.358 23.9347C131.178 23.8532 131.029 23.7292 130.909 23.5625C130.792 23.3958 130.733 23.1856 130.733 22.9318V18.5909ZM133.344 24V19.6364H133.992V20.2955H134.037C134.117 20.0795 134.261 19.9044 134.469 19.7699C134.677 19.6354 134.912 19.5682 135.174 19.5682C135.223 19.5682 135.284 19.5691 135.358 19.571C135.432 19.5729 135.488 19.5758 135.526 19.5795V20.2614C135.503 20.2557 135.451 20.2472 135.37 20.2358C135.29 20.2225 135.206 20.2159 135.117 20.2159C134.905 20.2159 134.715 20.2604 134.549 20.3494C134.384 20.4366 134.253 20.5578 134.157 20.7131C134.062 20.8665 134.015 21.0417 134.015 21.2386V24H133.344ZM137.961 24.0909C137.567 24.0909 137.221 23.9972 136.924 23.8097C136.628 23.6222 136.397 23.3598 136.23 23.0227C136.066 22.6856 135.983 22.2917 135.983 21.8409C135.983 21.3864 136.066 20.9896 136.23 20.6506C136.397 20.3116 136.628 20.0483 136.924 19.8608C137.221 19.6733 137.567 19.5795 137.961 19.5795C138.355 19.5795 138.699 19.6733 138.995 19.8608C139.292 20.0483 139.523 20.3116 139.688 20.6506C139.855 20.9896 139.938 21.3864 139.938 21.8409C139.938 22.2917 139.855 22.6856 139.688 23.0227C139.523 23.3598 139.292 23.6222 138.995 23.8097C138.699 23.9972 138.355 24.0909 137.961 24.0909ZM137.961 23.4886C138.26 23.4886 138.506 23.4119 138.699 23.2585C138.892 23.1051 139.035 22.9034 139.128 22.6534C139.221 22.4034 139.267 22.1326 139.267 21.8409C139.267 21.5492 139.221 21.2775 139.128 21.0256C139.035 20.7737 138.892 20.5701 138.699 20.4148C138.506 20.2595 138.26 20.1818 137.961 20.1818C137.661 20.1818 137.415 20.2595 137.222 20.4148C137.029 20.5701 136.886 20.7737 136.793 21.0256C136.7 21.2775 136.654 21.5492 136.654 21.8409C136.654 22.1326 136.7 22.4034 136.793 22.6534C136.886 22.9034 137.029 23.1051 137.222 23.2585C137.415 23.4119 137.661 23.4886 137.961 23.4886ZM141.632 21.375V24H140.961V19.6364H141.609V20.3182H141.666C141.768 20.0966 141.923 19.9186 142.132 19.7841C142.34 19.6477 142.609 19.5795 142.939 19.5795C143.234 19.5795 143.493 19.6402 143.714 19.7614C143.936 19.8807 144.108 20.0625 144.231 20.3068C144.354 20.5492 144.416 20.8561 144.416 21.2273V24H143.745V21.2727C143.745 20.9299 143.656 20.6629 143.478 20.4716C143.3 20.2784 143.056 20.1818 142.745 20.1818C142.531 20.1818 142.34 20.2282 142.172 20.321C142.005 20.4138 141.873 20.5492 141.777 20.7273C141.68 20.9053 141.632 21.1212 141.632 21.375ZM147.402 25.7273C147.078 25.7273 146.8 25.6856 146.567 25.6023C146.334 25.5208 146.14 25.4129 145.985 25.2784C145.831 25.1458 145.709 25.0038 145.618 24.8523L146.152 24.4773C146.213 24.5568 146.29 24.6477 146.382 24.75C146.475 24.8542 146.602 24.9441 146.763 25.0199C146.926 25.0975 147.139 25.1364 147.402 25.1364C147.755 25.1364 148.045 25.0511 148.275 24.8807C148.504 24.7102 148.618 24.4432 148.618 24.0795V23.1932H148.561C148.512 23.2727 148.442 23.3712 148.351 23.4886C148.262 23.6042 148.133 23.7074 147.965 23.7983C147.798 23.8873 147.573 23.9318 147.289 23.9318C146.936 23.9318 146.62 23.8485 146.34 23.6818C146.061 23.5152 145.841 23.2727 145.678 22.9545C145.517 22.6364 145.436 22.25 145.436 21.7955C145.436 21.3485 145.515 20.9593 145.672 20.6278C145.829 20.2945 146.048 20.0369 146.328 19.8551C146.609 19.6714 146.933 19.5795 147.3 19.5795C147.584 19.5795 147.81 19.6269 147.976 19.7216C148.145 19.8144 148.274 19.9205 148.363 20.0398C148.453 20.1572 148.524 20.2538 148.573 20.3295H148.641V19.6364H149.289V24.125C149.289 24.5 149.203 24.8049 149.033 25.0398C148.864 25.2765 148.637 25.4498 148.351 25.5597C148.067 25.6714 147.751 25.7273 147.402 25.7273ZM147.38 23.3295C147.649 23.3295 147.876 23.268 148.061 23.1449C148.247 23.0218 148.388 22.8447 148.485 22.6136C148.581 22.3826 148.63 22.1061 148.63 21.7841C148.63 21.4697 148.582 21.1922 148.488 20.9517C148.393 20.7112 148.253 20.5227 148.067 20.3864C147.882 20.25 147.652 20.1818 147.38 20.1818C147.096 20.1818 146.859 20.2538 146.669 20.3977C146.482 20.5417 146.341 20.7348 146.246 20.9773C146.153 21.2197 146.107 21.4886 146.107 21.7841C146.107 22.0871 146.154 22.3551 146.249 22.5881C146.346 22.8191 146.488 23.0009 146.675 23.1335C146.864 23.2642 147.099 23.3295 147.38 23.3295ZM153.436 21.375V24H152.766V18.1818H153.436V20.3182H153.493C153.596 20.0928 153.749 19.9138 153.953 19.7812C154.16 19.6468 154.435 19.5795 154.777 19.5795C155.075 19.5795 155.335 19.6392 155.559 19.7585C155.782 19.8759 155.955 20.0568 156.078 20.3011C156.203 20.5436 156.266 20.8523 156.266 21.2273V24H155.596V21.2727C155.596 20.9261 155.506 20.6581 155.326 20.4688C155.148 20.2775 154.9 20.1818 154.584 20.1818C154.364 20.1818 154.167 20.2282 153.993 20.321C153.821 20.4138 153.685 20.5492 153.584 20.7273C153.486 20.9053 153.436 21.1212 153.436 21.375ZM159.322 24.0909C158.902 24.0909 158.539 23.9981 158.234 23.8125C157.931 23.625 157.697 23.3636 157.532 23.0284C157.369 22.6913 157.288 22.2992 157.288 21.8523C157.288 21.4053 157.369 21.0114 157.532 20.6705C157.697 20.3277 157.926 20.0606 158.22 19.8693C158.515 19.6761 158.86 19.5795 159.254 19.5795C159.481 19.5795 159.706 19.6174 159.927 19.6932C160.149 19.7689 160.35 19.892 160.532 20.0625C160.714 20.2311 160.859 20.4545 160.967 20.733C161.075 21.0114 161.129 21.3542 161.129 21.7614V22.0455H157.765V21.4659H160.447C160.447 21.2197 160.398 21 160.299 20.8068C160.203 20.6136 160.065 20.4612 159.885 20.3494C159.707 20.2377 159.496 20.1818 159.254 20.1818C158.987 20.1818 158.756 20.2481 158.561 20.3807C158.368 20.5114 158.219 20.6818 158.115 20.892C158.011 21.1023 157.958 21.3277 157.958 21.5682V21.9545C157.958 22.2841 158.015 22.5634 158.129 22.7926C158.244 23.0199 158.404 23.1932 158.609 23.3125C158.814 23.4299 159.051 23.4886 159.322 23.4886C159.498 23.4886 159.657 23.464 159.799 23.4148C159.943 23.3636 160.067 23.2879 160.172 23.1875C160.276 23.0852 160.356 22.9583 160.413 22.8068L161.061 22.9886C160.993 23.2083 160.878 23.4015 160.717 23.5682C160.556 23.733 160.357 23.8617 160.12 23.9545C159.884 24.0455 159.618 24.0909 159.322 24.0909ZM163.433 24.1023C163.156 24.1023 162.905 24.0502 162.68 23.946C162.455 23.84 162.276 23.6875 162.143 23.4886C162.011 23.2879 161.944 23.0455 161.944 22.7614C161.944 22.5114 161.993 22.3087 162.092 22.1534C162.19 21.9962 162.322 21.8731 162.487 21.7841C162.652 21.6951 162.833 21.6288 163.032 21.5852C163.233 21.5398 163.435 21.5038 163.637 21.4773C163.903 21.4432 164.118 21.4176 164.282 21.4006C164.449 21.3816 164.57 21.3504 164.646 21.3068C164.724 21.2633 164.762 21.1875 164.762 21.0795V21.0568C164.762 20.7765 164.686 20.5587 164.532 20.4034C164.381 20.2481 164.151 20.1705 163.842 20.1705C163.522 20.1705 163.271 20.2405 163.089 20.3807C162.907 20.5208 162.779 20.6705 162.706 20.8295L162.069 20.6023C162.183 20.3371 162.334 20.1307 162.524 19.983C162.715 19.8333 162.923 19.7292 163.149 19.6705C163.376 19.6098 163.6 19.5795 163.819 19.5795C163.959 19.5795 164.12 19.5966 164.302 19.6307C164.486 19.6629 164.663 19.7301 164.833 19.8324C165.006 19.9347 165.149 20.089 165.262 20.2955C165.376 20.5019 165.433 20.7784 165.433 21.125V24H164.762V23.4091H164.728C164.683 23.5038 164.607 23.6051 164.501 23.7131C164.395 23.821 164.254 23.9129 164.078 23.9886C163.902 24.0644 163.687 24.1023 163.433 24.1023ZM163.535 23.5C163.8 23.5 164.024 23.4479 164.206 23.3438C164.389 23.2396 164.528 23.1051 164.62 22.9403C164.715 22.7756 164.762 22.6023 164.762 22.4205V21.8068C164.734 21.8409 164.672 21.8722 164.575 21.9006C164.48 21.9271 164.37 21.9508 164.245 21.9716C164.122 21.9905 164.002 22.0076 163.885 22.0227C163.769 22.036 163.675 22.0473 163.603 22.0568C163.429 22.0795 163.266 22.1165 163.115 22.1676C162.965 22.2169 162.844 22.2917 162.751 22.392C162.66 22.4905 162.615 22.625 162.615 22.7955C162.615 23.0284 162.701 23.2045 162.873 23.3239C163.047 23.4413 163.268 23.5 163.535 23.5ZM167.327 18.1818V24H166.657V18.1818H167.327ZM170.453 19.6364V20.2045H168.191V19.6364H170.453ZM168.85 18.5909H169.521V22.75C169.521 22.9394 169.548 23.0814 169.603 23.1761C169.66 23.2689 169.732 23.3314 169.819 23.3636C169.908 23.3939 170.002 23.4091 170.1 23.4091C170.174 23.4091 170.235 23.4053 170.282 23.3977C170.33 23.3883 170.368 23.3807 170.396 23.375L170.532 23.9773C170.487 23.9943 170.423 24.0114 170.342 24.0284C170.261 24.0473 170.157 24.0568 170.032 24.0568C169.843 24.0568 169.657 24.0161 169.475 23.9347C169.296 23.8532 169.146 23.7292 169.027 23.5625C168.909 23.3958 168.85 23.1856 168.85 22.9318V18.5909ZM172.225 21.375V24H171.555V18.1818H172.225V20.3182H172.282C172.385 20.0928 172.538 19.9138 172.743 19.7812C172.949 19.6468 173.224 19.5795 173.566 19.5795C173.864 19.5795 174.124 19.6392 174.348 19.7585C174.571 19.8759 174.744 20.0568 174.868 20.3011C174.993 20.5436 175.055 20.8523 175.055 21.2273V24H174.385V21.2727C174.385 20.9261 174.295 20.6581 174.115 20.4688C173.937 20.2775 173.69 20.1818 173.373 20.1818C173.154 20.1818 172.957 20.2282 172.782 20.321C172.61 20.4138 172.474 20.5492 172.373 20.7273C172.275 20.9053 172.225 21.1212 172.225 21.375ZM179.816 24.1023C179.539 24.1023 179.288 24.0502 179.063 23.946C178.837 23.84 178.658 23.6875 178.526 23.4886C178.393 23.2879 178.327 23.0455 178.327 22.7614C178.327 22.5114 178.376 22.3087 178.475 22.1534C178.573 21.9962 178.705 21.8731 178.87 21.7841C179.034 21.6951 179.216 21.6288 179.415 21.5852C179.616 21.5398 179.818 21.5038 180.02 21.4773C180.285 21.4432 180.5 21.4176 180.665 21.4006C180.832 21.3816 180.953 21.3504 181.029 21.3068C181.106 21.2633 181.145 21.1875 181.145 21.0795V21.0568C181.145 20.7765 181.069 20.5587 180.915 20.4034C180.764 20.2481 180.533 20.1705 180.225 20.1705C179.905 20.1705 179.654 20.2405 179.472 20.3807C179.29 20.5208 179.162 20.6705 179.088 20.8295L178.452 20.6023C178.566 20.3371 178.717 20.1307 178.907 19.983C179.098 19.8333 179.306 19.7292 179.532 19.6705C179.759 19.6098 179.982 19.5795 180.202 19.5795C180.342 19.5795 180.503 19.5966 180.685 19.6307C180.869 19.6629 181.046 19.7301 181.216 19.8324C181.389 19.9347 181.532 20.089 181.645 20.2955C181.759 20.5019 181.816 20.7784 181.816 21.125V24H181.145V23.4091H181.111C181.066 23.5038 180.99 23.6051 180.884 23.7131C180.778 23.821 180.637 23.9129 180.461 23.9886C180.284 24.0644 180.069 24.1023 179.816 24.1023ZM179.918 23.5C180.183 23.5 180.407 23.4479 180.588 23.3438C180.772 23.2396 180.91 23.1051 181.003 22.9403C181.098 22.7756 181.145 22.6023 181.145 22.4205V21.8068C181.117 21.8409 181.054 21.8722 180.958 21.9006C180.863 21.9271 180.753 21.9508 180.628 21.9716C180.505 21.9905 180.385 22.0076 180.267 22.0227C180.152 22.036 180.058 22.0473 179.986 22.0568C179.812 22.0795 179.649 22.1165 179.498 22.1676C179.348 22.2169 179.227 22.2917 179.134 22.392C179.043 22.4905 178.998 22.625 178.998 22.7955C178.998 23.0284 179.084 23.2045 179.256 23.3239C179.43 23.4413 179.651 23.5 179.918 23.5ZM183.71 21.375V24H183.039V19.6364H183.687V20.3182H183.744C183.846 20.0966 184.002 19.9186 184.21 19.7841C184.418 19.6477 184.687 19.5795 185.017 19.5795C185.312 19.5795 185.571 19.6402 185.792 19.7614C186.014 19.8807 186.186 20.0625 186.309 20.3068C186.432 20.5492 186.494 20.8561 186.494 21.2273V24H185.824V21.2727C185.824 20.9299 185.734 20.6629 185.556 20.4716C185.378 20.2784 185.134 20.1818 184.824 20.1818C184.609 20.1818 184.418 20.2282 184.25 20.321C184.083 20.4138 183.951 20.5492 183.855 20.7273C183.758 20.9053 183.71 21.1212 183.71 21.375ZM189.367 24.0909C189.003 24.0909 188.682 23.9991 188.404 23.8153C188.125 23.6297 187.908 23.3684 187.75 23.0312C187.593 22.6922 187.515 22.2917 187.515 21.8295C187.515 21.3712 187.593 20.9735 187.75 20.6364C187.908 20.2992 188.126 20.0388 188.407 19.8551C188.687 19.6714 189.011 19.5795 189.378 19.5795C189.662 19.5795 189.887 19.6269 190.051 19.7216C190.218 19.8144 190.345 19.9205 190.432 20.0398C190.521 20.1572 190.59 20.2538 190.64 20.3295H190.696V18.1818H191.367V24H190.719V23.3295H190.64C190.59 23.4091 190.52 23.5095 190.429 23.6307C190.338 23.75 190.209 23.857 190.04 23.9517C189.872 24.0445 189.647 24.0909 189.367 24.0909ZM189.458 23.4886C189.727 23.4886 189.954 23.4186 190.14 23.2784C190.325 23.1364 190.466 22.9403 190.563 22.6903C190.659 22.4384 190.708 22.1477 190.708 21.8182C190.708 21.4924 190.66 21.2074 190.566 20.9631C190.471 20.7169 190.331 20.5256 190.145 20.3892C189.96 20.2509 189.73 20.1818 189.458 20.1818C189.174 20.1818 188.937 20.2547 188.748 20.4006C188.56 20.5445 188.419 20.7405 188.324 20.9886C188.231 21.2348 188.185 21.5114 188.185 21.8182C188.185 22.1288 188.232 22.411 188.327 22.6648C188.424 22.9167 188.566 23.1174 188.753 23.267C188.943 23.4148 189.177 23.4886 189.458 23.4886ZM198.506 19.6364L196.892 24H196.211L194.597 19.6364H195.324L196.529 23.1136H196.574L197.779 19.6364H198.506ZM199.391 24V19.6364H200.061V24H199.391ZM199.732 18.9091C199.601 18.9091 199.489 18.8646 199.394 18.7756C199.301 18.6866 199.255 18.5795 199.255 18.4545C199.255 18.3295 199.301 18.2225 199.394 18.1335C199.489 18.0445 199.601 18 199.732 18C199.863 18 199.974 18.0445 200.067 18.1335C200.162 18.2225 200.209 18.3295 200.209 18.4545C200.209 18.5795 200.162 18.6866 200.067 18.7756C199.974 18.8646 199.863 18.9091 199.732 18.9091ZM203.187 19.6364V20.2045H200.926V19.6364H203.187ZM201.585 18.5909H202.255V22.75C202.255 22.9394 202.283 23.0814 202.338 23.1761C202.395 23.2689 202.467 23.3314 202.554 23.3636C202.643 23.3939 202.736 23.4091 202.835 23.4091C202.909 23.4091 202.969 23.4053 203.017 23.3977C203.064 23.3883 203.102 23.3807 203.13 23.375L203.267 23.9773C203.221 23.9943 203.158 24.0114 203.076 24.0284C202.995 24.0473 202.892 24.0568 202.767 24.0568C202.577 24.0568 202.392 24.0161 202.21 23.9347C202.03 23.8532 201.88 23.7292 201.761 23.5625C201.644 23.3958 201.585 23.1856 201.585 22.9318V18.5909ZM205.48 24.1023C205.203 24.1023 204.952 24.0502 204.727 23.946C204.502 23.84 204.323 23.6875 204.19 23.4886C204.057 23.2879 203.991 23.0455 203.991 22.7614C203.991 22.5114 204.04 22.3087 204.139 22.1534C204.237 21.9962 204.369 21.8731 204.534 21.7841C204.699 21.6951 204.88 21.6288 205.079 21.5852C205.28 21.5398 205.482 21.5038 205.684 21.4773C205.949 21.4432 206.164 21.4176 206.329 21.4006C206.496 21.3816 206.617 21.3504 206.693 21.3068C206.77 21.2633 206.809 21.1875 206.809 21.0795V21.0568C206.809 20.7765 206.733 20.5587 206.579 20.4034C206.428 20.2481 206.198 20.1705 205.889 20.1705C205.569 20.1705 205.318 20.2405 205.136 20.3807C204.954 20.5208 204.826 20.6705 204.752 20.8295L204.116 20.6023C204.23 20.3371 204.381 20.1307 204.571 19.983C204.762 19.8333 204.97 19.7292 205.196 19.6705C205.423 19.6098 205.646 19.5795 205.866 19.5795C206.006 19.5795 206.167 19.5966 206.349 19.6307C206.533 19.6629 206.71 19.7301 206.88 19.8324C207.053 19.9347 207.196 20.089 207.309 20.2955C207.423 20.5019 207.48 20.7784 207.48 21.125V24H206.809V23.4091H206.775C206.73 23.5038 206.654 23.6051 206.548 23.7131C206.442 23.821 206.301 23.9129 206.125 23.9886C205.949 24.0644 205.734 24.1023 205.48 24.1023ZM205.582 23.5C205.847 23.5 206.071 23.4479 206.252 23.3438C206.436 23.2396 206.574 23.1051 206.667 22.9403C206.762 22.7756 206.809 22.6023 206.809 22.4205V21.8068C206.781 21.8409 206.718 21.8722 206.622 21.9006C206.527 21.9271 206.417 21.9508 206.292 21.9716C206.169 21.9905 206.049 22.0076 205.931 22.0227C205.816 22.036 205.722 22.0473 205.65 22.0568C205.476 22.0795 205.313 22.1165 205.162 22.1676C205.012 22.2169 204.891 22.2917 204.798 22.392C204.707 22.4905 204.662 22.625 204.662 22.7955C204.662 23.0284 204.748 23.2045 204.92 23.3239C205.094 23.4413 205.315 23.5 205.582 23.5ZM209.374 18.1818V24H208.703V18.1818H209.374ZM210.602 24V19.6364H211.272V24H210.602ZM210.943 18.9091C210.812 18.9091 210.699 18.8646 210.605 18.7756C210.512 18.6866 210.466 18.5795 210.466 18.4545C210.466 18.3295 210.512 18.2225 210.605 18.1335C210.699 18.0445 210.812 18 210.943 18C211.074 18 211.185 18.0445 211.278 18.1335C211.373 18.2225 211.42 18.3295 211.42 18.4545C211.42 18.5795 211.373 18.6866 211.278 18.7756C211.185 18.8646 211.074 18.9091 210.943 18.9091ZM214.398 19.6364V20.2045H212.137V19.6364H214.398ZM212.796 18.5909H213.466V22.75C213.466 22.9394 213.494 23.0814 213.549 23.1761C213.605 23.2689 213.677 23.3314 213.765 23.3636C213.854 23.3939 213.947 23.4091 214.046 23.4091C214.12 23.4091 214.18 23.4053 214.228 23.3977C214.275 23.3883 214.313 23.3807 214.341 23.375L214.478 23.9773C214.432 23.9943 214.369 24.0114 214.287 24.0284C214.206 24.0473 214.103 24.0568 213.978 24.0568C213.788 24.0568 213.603 24.0161 213.421 23.9347C213.241 23.8532 213.091 23.7292 212.972 23.5625C212.855 23.3958 212.796 23.1856 212.796 22.9318V18.5909ZM215.838 25.6364C215.725 25.6364 215.623 25.6269 215.534 25.608C215.445 25.5909 215.384 25.5739 215.35 25.5568L215.52 24.9659C215.683 25.0076 215.827 25.0227 215.952 25.0114C216.077 25 216.188 24.9441 216.284 24.8438C216.383 24.7453 216.473 24.5852 216.554 24.3636L216.679 24.0227L215.066 19.6364H215.793L216.998 23.1136H217.043L218.248 19.6364H218.975L217.123 24.6364C217.039 24.8617 216.936 25.0483 216.813 25.196C216.69 25.3456 216.547 25.4564 216.384 25.5284C216.223 25.6004 216.041 25.6364 215.838 25.6364Z" fill="#667085"/>
<path d="M82.2289 35.06L84.9729 40.002L87.7449 35.06H89.4669L85.7569 41.444V45H84.1889V41.416L80.5069 35.06H82.2289ZM92.5245 45.14C91.9459 45.14 91.4279 45.042 90.9705 44.846C90.5132 44.6407 90.1165 44.3607 89.7805 44.006C89.4539 43.6513 89.2019 43.25 89.0245 42.802C88.8472 42.3447 88.7585 41.8593 88.7585 41.346C88.7585 40.8327 88.8472 40.3473 89.0245 39.89C89.2019 39.4327 89.4539 39.0313 89.7805 38.686C90.1165 38.3313 90.5132 38.056 90.9705 37.86C91.4372 37.6547 91.9552 37.552 92.5245 37.552C93.0939 37.552 93.6072 37.6547 94.0645 37.86C94.5312 38.056 94.9279 38.3313 95.2545 38.686C95.5905 39.0313 95.8472 39.4327 96.0245 39.89C96.2019 40.3473 96.2905 40.8327 96.2905 41.346C96.2905 41.8593 96.2019 42.3447 96.0245 42.802C95.8472 43.25 95.5905 43.6513 95.2545 44.006C94.9279 44.3607 94.5312 44.6407 94.0645 44.846C93.6072 45.042 93.0939 45.14 92.5245 45.14ZM90.3405 41.36C90.3405 41.8267 90.4385 42.2467 90.6345 42.62C90.8305 42.9933 91.0919 43.2873 91.4185 43.502C91.7452 43.7167 92.1139 43.824 92.5245 43.824C92.9259 43.824 93.2899 43.7167 93.6165 43.502C93.9525 43.278 94.2185 42.9793 94.4145 42.606C94.6105 42.2233 94.7085 41.8033 94.7085 41.346C94.7085 40.8793 94.6105 40.4593 94.4145 40.086C94.2185 39.7127 93.9525 39.4187 93.6165 39.204C93.2899 38.98 92.9259 38.868 92.5245 38.868C92.1139 38.868 91.7452 38.98 91.4185 39.204C91.0919 39.428 90.8305 39.7267 90.6345 40.1C90.4385 40.464 90.3405 40.884 90.3405 41.36ZM97.5864 42.158V37.678H99.1264V41.85C99.1264 42.5033 99.2431 42.998 99.4764 43.334C99.7191 43.6607 100.069 43.824 100.526 43.824C100.816 43.824 101.096 43.7633 101.366 43.642C101.646 43.5207 101.898 43.3433 102.122 43.11C102.356 42.8673 102.542 42.578 102.682 42.242V37.678H104.222V43.264C104.222 43.4413 104.255 43.5673 104.32 43.642C104.386 43.7167 104.493 43.7587 104.642 43.768V45C104.484 45.028 104.353 45.0467 104.25 45.056C104.148 45.0653 104.05 45.07 103.956 45.07C103.676 45.07 103.443 44.9953 103.256 44.846C103.07 44.6873 102.962 44.4867 102.934 44.244L102.906 43.516C102.58 44.048 102.155 44.454 101.632 44.734C101.11 45.0047 100.536 45.14 99.9104 45.14C99.1451 45.14 98.5664 44.888 98.1744 44.384C97.7824 43.88 97.5864 43.138 97.5864 42.158ZM110.304 39.008C109.706 39.0173 109.174 39.1527 108.708 39.414C108.25 39.6753 107.924 40.044 107.728 40.52V45H106.188V37.678H107.616V39.316C107.868 38.812 108.199 38.4107 108.61 38.112C109.02 37.804 109.454 37.636 109.912 37.608C110.005 37.608 110.08 37.608 110.136 37.608C110.201 37.608 110.257 37.6127 110.304 37.622V39.008ZM114.765 45V35.06H118.937C119.385 35.06 119.795 35.1533 120.169 35.34C120.542 35.5267 120.869 35.774 121.149 36.082C121.429 36.39 121.643 36.7353 121.793 37.118C121.942 37.5007 122.017 37.8927 122.017 38.294C122.017 38.8447 121.891 39.372 121.639 39.876C121.396 40.3707 121.046 40.772 120.589 41.08C120.141 41.388 119.618 41.542 119.021 41.542H116.333V45H114.765ZM116.333 40.156H118.923C119.221 40.156 119.483 40.0767 119.707 39.918C119.931 39.75 120.103 39.526 120.225 39.246C120.355 38.966 120.421 38.6487 120.421 38.294C120.421 37.93 120.346 37.608 120.197 37.328C120.047 37.048 119.851 36.8333 119.609 36.684C119.375 36.5253 119.119 36.446 118.839 36.446H116.333V40.156ZM129.857 45H128.317V40.898C128.317 40.2353 128.196 39.7407 127.953 39.414C127.711 39.0873 127.37 38.924 126.931 38.924C126.661 38.924 126.381 38.9987 126.091 39.148C125.802 39.2973 125.545 39.5027 125.321 39.764C125.097 40.016 124.934 40.31 124.831 40.646V45H123.291V34.78H124.831V39.148C125.111 38.6533 125.494 38.266 125.979 37.986C126.465 37.6967 126.987 37.552 127.547 37.552C128.005 37.552 128.383 37.6313 128.681 37.79C128.98 37.9487 129.213 38.168 129.381 38.448C129.559 38.7187 129.68 39.036 129.745 39.4C129.82 39.7547 129.857 40.1327 129.857 40.534V45ZM134.963 45.14C134.393 45.14 133.875 45.042 133.409 44.846C132.951 44.6407 132.555 44.3653 132.219 44.02C131.883 43.6653 131.621 43.264 131.435 42.816C131.257 42.3587 131.169 41.8733 131.169 41.36C131.169 40.6693 131.327 40.0393 131.645 39.47C131.962 38.8913 132.405 38.4293 132.975 38.084C133.544 37.7293 134.211 37.552 134.977 37.552C135.742 37.552 136.4 37.7293 136.951 38.084C137.511 38.4293 137.945 38.8867 138.253 39.456C138.561 40.0253 138.715 40.6367 138.715 41.29C138.715 41.402 138.71 41.5093 138.701 41.612C138.691 41.7053 138.682 41.7847 138.673 41.85H132.807C132.835 42.2793 132.951 42.6573 133.157 42.984C133.371 43.3013 133.642 43.5533 133.969 43.74C134.295 43.9173 134.645 44.006 135.019 44.006C135.429 44.006 135.817 43.9033 136.181 43.698C136.554 43.4927 136.806 43.222 136.937 42.886L138.253 43.264C138.094 43.6187 137.851 43.9407 137.525 44.23C137.207 44.51 136.829 44.734 136.391 44.902C135.952 45.0607 135.476 45.14 134.963 45.14ZM132.765 40.828H137.189C137.161 40.408 137.039 40.0393 136.825 39.722C136.619 39.3953 136.353 39.1433 136.027 38.966C135.709 38.7793 135.355 38.686 134.963 38.686C134.58 38.686 134.225 38.7793 133.899 38.966C133.581 39.1433 133.32 39.3953 133.115 39.722C132.909 40.0393 132.793 40.408 132.765 40.828ZM146.537 45H144.997V40.898C144.997 40.2167 144.885 39.7173 144.661 39.4C144.446 39.0827 144.124 38.924 143.695 38.924C143.396 38.924 143.098 38.9987 142.799 39.148C142.51 39.2973 142.248 39.5027 142.015 39.764C141.782 40.016 141.614 40.31 141.511 40.646V45H139.971V37.678H141.371V39.148C141.558 38.8213 141.8 38.5413 142.099 38.308C142.407 38.0653 142.752 37.8787 143.135 37.748C143.518 37.6173 143.924 37.552 144.353 37.552C144.792 37.552 145.151 37.6313 145.431 37.79C145.72 37.9487 145.944 38.168 146.103 38.448C146.271 38.7187 146.383 39.036 146.439 39.4C146.504 39.7547 146.537 40.1327 146.537 40.534V45ZM151.614 45.14C151.036 45.14 150.518 45.042 150.06 44.846C149.603 44.6407 149.206 44.3607 148.87 44.006C148.544 43.6513 148.292 43.25 148.114 42.802C147.937 42.3447 147.848 41.8593 147.848 41.346C147.848 40.8327 147.937 40.3473 148.114 39.89C148.292 39.4327 148.544 39.0313 148.87 38.686C149.206 38.3313 149.603 38.056 150.06 37.86C150.527 37.6547 151.045 37.552 151.614 37.552C152.184 37.552 152.697 37.6547 153.154 37.86C153.621 38.056 154.018 38.3313 154.344 38.686C154.68 39.0313 154.937 39.4327 155.114 39.89C155.292 40.3473 155.38 40.8327 155.38 41.346C155.38 41.8593 155.292 42.3447 155.114 42.802C154.937 43.25 154.68 43.6513 154.344 44.006C154.018 44.3607 153.621 44.6407 153.154 44.846C152.697 45.042 152.184 45.14 151.614 45.14ZM149.43 41.36C149.43 41.8267 149.528 42.2467 149.724 42.62C149.92 42.9933 150.182 43.2873 150.508 43.502C150.835 43.7167 151.204 43.824 151.614 43.824C152.016 43.824 152.38 43.7167 152.706 43.502C153.042 43.278 153.308 42.9793 153.504 42.606C153.7 42.2233 153.798 41.8033 153.798 41.346C153.798 40.8793 153.7 40.4593 153.504 40.086C153.308 39.7127 153.042 39.4187 152.706 39.204C152.38 38.98 152.016 38.868 151.614 38.868C151.204 38.868 150.835 38.98 150.508 39.204C150.182 39.428 149.92 39.7267 149.724 40.1C149.528 40.464 149.43 40.884 149.43 41.36ZM160.711 44.622C160.58 44.6873 160.417 44.7573 160.221 44.832C160.025 44.9067 159.801 44.972 159.549 45.028C159.306 45.084 159.054 45.112 158.793 45.112C158.476 45.112 158.182 45.056 157.911 44.944C157.64 44.832 157.421 44.6547 157.253 44.412C157.094 44.16 157.015 43.838 157.015 43.446V38.868H156.049V37.678H157.015V35.27H158.555V37.678H160.151V38.868H158.555V42.956C158.574 43.208 158.653 43.3947 158.793 43.516C158.942 43.6373 159.124 43.698 159.339 43.698C159.554 43.698 159.759 43.6607 159.955 43.586C160.151 43.5113 160.296 43.4507 160.389 43.404L160.711 44.622ZM162.016 46.722C162.156 46.7407 162.291 46.7593 162.422 46.778C162.562 46.806 162.674 46.82 162.758 46.82C162.917 46.82 163.052 46.7687 163.164 46.666C163.285 46.5727 163.407 46.3953 163.528 46.134C163.649 45.8727 163.799 45.4947 163.976 45L160.966 37.678H162.576L164.816 43.432L166.804 37.678H168.288L164.97 46.694C164.867 46.9647 164.718 47.212 164.522 47.436C164.326 47.6693 164.083 47.8513 163.794 47.982C163.505 48.1127 163.164 48.178 162.772 48.178C162.66 48.178 162.543 48.1687 162.422 48.15C162.301 48.1313 162.165 48.1033 162.016 48.066V46.722ZM173.578 45.14C172.99 45.14 172.472 45 172.024 44.72C171.576 44.44 171.221 44.076 170.96 43.628V47.982H169.42V37.678H170.778V38.994C171.058 38.5553 171.422 38.2053 171.87 37.944C172.318 37.6827 172.817 37.552 173.368 37.552C173.872 37.552 174.334 37.6547 174.754 37.86C175.174 38.056 175.538 38.3313 175.846 38.686C176.154 39.0407 176.392 39.4467 176.56 39.904C176.737 40.352 176.826 40.828 176.826 41.332C176.826 42.032 176.686 42.6713 176.406 43.25C176.135 43.8287 175.753 44.2907 175.258 44.636C174.773 44.972 174.213 45.14 173.578 45.14ZM173.074 43.824C173.401 43.824 173.695 43.754 173.956 43.614C174.227 43.474 174.455 43.2873 174.642 43.054C174.838 42.8207 174.987 42.5547 175.09 42.256C175.193 41.9573 175.244 41.6493 175.244 41.332C175.244 40.996 175.188 40.6787 175.076 40.38C174.964 40.0813 174.801 39.82 174.586 39.596C174.381 39.372 174.138 39.1947 173.858 39.064C173.587 38.9333 173.289 38.868 172.962 38.868C172.766 38.868 172.561 38.9053 172.346 38.98C172.131 39.0547 171.931 39.1573 171.744 39.288C171.557 39.4187 171.394 39.5727 171.254 39.75C171.114 39.9273 171.016 40.114 170.96 40.31V42.228C171.091 42.5267 171.263 42.7973 171.478 43.04C171.693 43.2733 171.94 43.4647 172.22 43.614C172.5 43.754 172.785 43.824 173.074 43.824ZM178.211 45V37.678H179.751V45H178.211ZM178.211 36.474V34.78H179.751V36.474H178.211ZM184.92 45.14C184.35 45.14 183.832 45.042 183.366 44.846C182.908 44.6407 182.512 44.3607 182.176 44.006C181.84 43.6513 181.578 43.2453 181.392 42.788C181.214 42.3307 181.126 41.8453 181.126 41.332C181.126 40.6413 181.28 40.0113 181.588 39.442C181.905 38.8727 182.344 38.4153 182.904 38.07C183.473 37.7247 184.145 37.552 184.92 37.552C185.666 37.552 186.315 37.72 186.866 38.056C187.426 38.3827 187.836 38.8213 188.098 39.372L186.6 39.848C186.432 39.54 186.194 39.302 185.886 39.134C185.587 38.9567 185.256 38.868 184.892 38.868C184.481 38.868 184.108 38.9753 183.772 39.19C183.445 39.3953 183.184 39.6847 182.988 40.058C182.801 40.422 182.708 40.8467 182.708 41.332C182.708 41.7987 182.806 42.2233 183.002 42.606C183.198 42.9793 183.459 43.278 183.786 43.502C184.122 43.7167 184.495 43.824 184.906 43.824C185.158 43.824 185.4 43.782 185.634 43.698C185.876 43.6047 186.086 43.4833 186.264 43.334C186.441 43.1753 186.567 43.0027 186.642 42.816L188.154 43.264C187.995 43.628 187.757 43.95 187.44 44.23C187.132 44.51 186.763 44.734 186.334 44.902C185.914 45.0607 185.442 45.14 184.92 45.14ZM195.51 35.06H196.994L200.858 45H199.206L198.156 42.298H194.32L193.284 45H191.618L195.51 35.06ZM197.848 41.136L196.252 36.782L194.6 41.136H197.848ZM204.584 45.07C204.089 45.07 203.636 44.972 203.226 44.776C202.815 44.5707 202.46 44.2953 202.162 43.95C201.872 43.6047 201.644 43.208 201.476 42.76C201.317 42.312 201.238 41.8407 201.238 41.346C201.238 40.8233 201.322 40.3333 201.49 39.876C201.658 39.4187 201.891 39.0173 202.19 38.672C202.498 38.3173 202.857 38.042 203.268 37.846C203.678 37.65 204.136 37.552 204.64 37.552C205.228 37.552 205.741 37.692 206.18 37.972C206.628 38.252 206.996 38.616 207.286 39.064V37.678H208.644V44.79C208.644 45.4993 208.471 46.1013 208.126 46.596C207.79 47.0907 207.328 47.4687 206.74 47.73C206.152 47.9913 205.489 48.122 204.752 48.122C203.94 48.122 203.268 47.982 202.736 47.702C202.204 47.422 201.751 47.0393 201.378 46.554L202.246 45.742C202.526 46.134 202.885 46.4327 203.324 46.638C203.772 46.8433 204.248 46.946 204.752 46.946C205.172 46.946 205.559 46.8667 205.914 46.708C206.278 46.5587 206.567 46.3207 206.782 45.994C206.996 45.6767 207.104 45.2753 207.104 44.79V43.67C206.842 44.1087 206.483 44.454 206.026 44.706C205.568 44.9487 205.088 45.07 204.584 45.07ZM205.088 43.824C205.321 43.824 205.545 43.7867 205.76 43.712C205.974 43.628 206.17 43.5207 206.348 43.39C206.534 43.25 206.693 43.096 206.824 42.928C206.954 42.7507 207.048 42.564 207.104 42.368V40.45C206.982 40.1327 206.81 39.8573 206.586 39.624C206.362 39.3813 206.11 39.1947 205.83 39.064C205.55 38.9333 205.265 38.868 204.976 38.868C204.64 38.868 204.336 38.9427 204.066 39.092C203.804 39.232 203.58 39.4233 203.394 39.666C203.207 39.8993 203.062 40.1653 202.96 40.464C202.857 40.7627 202.806 41.0707 202.806 41.388C202.806 41.724 202.862 42.0367 202.974 42.326C203.095 42.6153 203.258 42.8767 203.464 43.11C203.669 43.334 203.912 43.5113 204.192 43.642C204.472 43.7633 204.77 43.824 205.088 43.824ZM213.808 45.14C213.239 45.14 212.721 45.042 212.254 44.846C211.797 44.6407 211.4 44.3653 211.064 44.02C210.728 43.6653 210.467 43.264 210.28 42.816C210.103 42.3587 210.014 41.8733 210.014 41.36C210.014 40.6693 210.173 40.0393 210.49 39.47C210.808 38.8913 211.251 38.4293 211.82 38.084C212.39 37.7293 213.057 37.552 213.822 37.552C214.588 37.552 215.246 37.7293 215.796 38.084C216.356 38.4293 216.79 38.8867 217.098 39.456C217.406 40.0253 217.56 40.6367 217.56 41.29C217.56 41.402 217.556 41.5093 217.546 41.612C217.537 41.7053 217.528 41.7847 217.518 41.85H211.652C211.68 42.2793 211.797 42.6573 212.002 42.984C212.217 43.3013 212.488 43.5533 212.814 43.74C213.141 43.9173 213.491 44.006 213.864 44.006C214.275 44.006 214.662 43.9033 215.026 43.698C215.4 43.4927 215.652 43.222 215.782 42.886L217.098 43.264C216.94 43.6187 216.697 43.9407 216.37 44.23C216.053 44.51 215.675 44.734 215.236 44.902C214.798 45.0607 214.322 45.14 213.808 45.14ZM211.61 40.828H216.034C216.006 40.408 215.885 40.0393 215.67 39.722C215.465 39.3953 215.199 39.1433 214.872 38.966C214.555 38.7793 214.2 38.686 213.808 38.686C213.426 38.686 213.071 38.7793 212.744 38.966C212.427 39.1433 212.166 39.3953 211.96 39.722C211.755 40.0393 211.638 40.408 211.61 40.828ZM222.276 45V37.678H223.816V45H222.276ZM222.276 36.474V34.78H223.816V36.474H222.276ZM228.27 45.14C227.654 45.14 227.071 45.042 226.52 44.846C225.97 44.6407 225.498 44.3373 225.106 43.936L225.68 42.9C226.1 43.2733 226.52 43.544 226.94 43.712C227.37 43.88 227.794 43.964 228.214 43.964C228.644 43.964 228.994 43.8847 229.264 43.726C229.535 43.558 229.67 43.3153 229.67 42.998C229.67 42.7647 229.6 42.592 229.46 42.48C229.32 42.368 229.115 42.27 228.844 42.186C228.583 42.102 228.266 42.0087 227.892 41.906C227.37 41.7473 226.931 41.584 226.576 41.416C226.222 41.2387 225.956 41.024 225.778 40.772C225.601 40.52 225.512 40.198 225.512 39.806C225.512 39.33 225.634 38.924 225.876 38.588C226.119 38.252 226.455 37.9953 226.884 37.818C227.323 37.6407 227.827 37.552 228.396 37.552C228.928 37.552 229.418 37.636 229.866 37.804C230.324 37.9627 230.725 38.2147 231.07 38.56L230.412 39.582C230.086 39.2833 229.75 39.064 229.404 38.924C229.068 38.784 228.704 38.714 228.312 38.714C228.088 38.714 227.874 38.742 227.668 38.798C227.463 38.8447 227.29 38.938 227.15 39.078C227.02 39.2087 226.954 39.3953 226.954 39.638C226.954 39.834 227.01 39.9927 227.122 40.114C227.234 40.2353 227.402 40.338 227.626 40.422C227.85 40.506 228.126 40.5993 228.452 40.702C229.022 40.87 229.507 41.038 229.908 41.206C230.31 41.3647 230.618 41.5747 230.832 41.836C231.056 42.088 231.168 42.438 231.168 42.886C231.168 43.5953 230.902 44.1507 230.37 44.552C229.848 44.944 229.148 45.14 228.27 45.14Z" fill="#00625B"/>
<path d="M228 154C228 144.545 226.138 135.182 222.519 126.447C218.901 117.711 213.598 109.774 206.912 103.088C200.226 96.4025 192.289 91.099 183.553 87.4807C174.818 83.8623 165.455 82 156 82C146.545 82 137.182 83.8623 128.447 87.4807C119.711 91.099 111.774 96.4025 105.088 103.088C98.4025 109.774 93.099 117.711 89.4807 126.447C85.8623 135.182 84 144.545 84 154" stroke="#E4E7EC" stroke-width="4" stroke-linecap="round" stroke-linejoin="round"/>
<path d="M156 82C148.456 82 140.959 83.1855 133.784 85.5132" stroke="#17B26A" stroke-width="4" stroke-linecap="round" stroke-linejoin="round"/>
<path d="M156.523 104L156.523 154" stroke="#D0D5DD" stroke-linecap="round"/>
<path fill-rule="evenodd" clip-rule="evenodd" d="M155.932 120.72L134.386 89.3961L151.484 123.324C151.623 123.599 151.803 123.838 152.014 124.038C151.753 124.502 151.554 125.011 151.433 125.557C150.769 128.538 152.648 131.492 155.628 132.156C158.609 132.82 161.564 130.941 162.227 127.96C162.891 124.979 161.012 122.025 158.032 121.361C157.419 121.225 156.808 121.196 156.218 121.262C156.146 121.075 156.051 120.893 155.932 120.72Z" fill="#00625B"/>
<path d="M113.236 184H112.179C112.116 183.696 112.007 183.429 111.851 183.199C111.697 182.969 111.51 182.776 111.288 182.619C111.07 182.46 110.827 182.341 110.56 182.261C110.293 182.182 110.014 182.142 109.724 182.142C109.196 182.142 108.717 182.276 108.288 182.543C107.862 182.81 107.523 183.203 107.27 183.723C107.02 184.243 106.895 184.881 106.895 185.636C106.895 186.392 107.02 187.03 107.27 187.55C107.523 188.07 107.862 188.463 108.288 188.73C108.717 188.997 109.196 189.131 109.724 189.131C110.014 189.131 110.293 189.091 110.56 189.011C110.827 188.932 111.07 188.814 111.288 188.658C111.51 188.499 111.697 188.304 111.851 188.074C112.007 187.841 112.116 187.574 112.179 187.273H113.236C113.156 187.719 113.011 188.118 112.801 188.47C112.591 188.822 112.33 189.122 112.017 189.369C111.705 189.614 111.354 189.8 110.964 189.928C110.578 190.055 110.165 190.119 109.724 190.119C108.98 190.119 108.318 189.938 107.739 189.574C107.159 189.21 106.703 188.693 106.371 188.023C106.038 187.352 105.872 186.557 105.872 185.636C105.872 184.716 106.038 183.92 106.371 183.25C106.703 182.58 107.159 182.062 107.739 181.699C108.318 181.335 108.98 181.153 109.724 181.153C110.165 181.153 110.578 181.217 110.964 181.345C111.354 181.473 111.705 181.661 112.017 181.908C112.33 182.152 112.591 182.45 112.801 182.803C113.011 183.152 113.156 183.551 113.236 184ZM115.813 186.062V190H114.807V181.273H115.813V184.477H115.898C116.051 184.139 116.282 183.871 116.588 183.672C116.898 183.47 117.31 183.369 117.824 183.369C118.27 183.369 118.661 183.459 118.996 183.638C119.331 183.814 119.591 184.085 119.776 184.452C119.963 184.815 120.057 185.278 120.057 185.841V190H119.051V185.909C119.051 185.389 118.917 184.987 118.647 184.703C118.38 184.416 118.009 184.273 117.534 184.273C117.205 184.273 116.909 184.342 116.648 184.482C116.39 184.621 116.185 184.824 116.034 185.091C115.887 185.358 115.813 185.682 115.813 186.062ZM121.897 190V183.455H122.869V184.443H122.937C123.056 184.119 123.272 183.857 123.585 183.655C123.897 183.453 124.249 183.352 124.641 183.352C124.715 183.352 124.808 183.354 124.918 183.357C125.029 183.359 125.113 183.364 125.17 183.369V184.392C125.136 184.384 125.058 184.371 124.935 184.354C124.816 184.334 124.69 184.324 124.556 184.324C124.238 184.324 123.954 184.391 123.704 184.524C123.457 184.655 123.261 184.837 123.116 185.07C122.974 185.3 122.903 185.562 122.903 185.858V190H121.897ZM128.822 190.136C128.231 190.136 127.712 189.996 127.266 189.714C126.823 189.433 126.477 189.04 126.227 188.534C125.979 188.028 125.856 187.437 125.856 186.761C125.856 186.08 125.979 185.484 126.227 184.976C126.477 184.467 126.823 184.072 127.266 183.791C127.712 183.51 128.231 183.369 128.822 183.369C129.413 183.369 129.93 183.51 130.373 183.791C130.819 184.072 131.165 184.467 131.413 184.976C131.663 185.484 131.788 186.08 131.788 186.761C131.788 187.437 131.663 188.028 131.413 188.534C131.165 189.04 130.819 189.433 130.373 189.714C129.93 189.996 129.413 190.136 128.822 190.136ZM128.822 189.233C129.271 189.233 129.64 189.118 129.93 188.888C130.219 188.658 130.434 188.355 130.573 187.98C130.712 187.605 130.782 187.199 130.782 186.761C130.782 186.324 130.712 185.916 130.573 185.538C130.434 185.161 130.219 184.855 129.93 184.622C129.64 184.389 129.271 184.273 128.822 184.273C128.373 184.273 128.004 184.389 127.714 184.622C127.424 184.855 127.21 185.161 127.07 185.538C126.931 185.916 126.862 186.324 126.862 186.761C126.862 187.199 126.931 187.605 127.07 187.98C127.21 188.355 127.424 188.658 127.714 188.888C128.004 189.118 128.373 189.233 128.822 189.233ZM134.328 186.062V190H133.323V183.455H134.294V184.477H134.38C134.533 184.145 134.766 183.878 135.078 183.676C135.391 183.472 135.794 183.369 136.289 183.369C136.732 183.369 137.12 183.46 137.452 183.642C137.784 183.821 138.043 184.094 138.228 184.46C138.412 184.824 138.505 185.284 138.505 185.841V190H137.499V185.909C137.499 185.395 137.365 184.994 137.098 184.707C136.831 184.418 136.465 184.273 135.999 184.273C135.678 184.273 135.391 184.342 135.138 184.482C134.888 184.621 134.691 184.824 134.546 185.091C134.401 185.358 134.328 185.682 134.328 186.062ZM143.001 190.136C142.411 190.136 141.892 189.996 141.446 189.714C141.003 189.433 140.656 189.04 140.406 188.534C140.159 188.028 140.036 187.437 140.036 186.761C140.036 186.08 140.159 185.484 140.406 184.976C140.656 184.467 141.003 184.072 141.446 183.791C141.892 183.51 142.411 183.369 143.001 183.369C143.592 183.369 144.109 183.51 144.553 183.791C144.999 184.072 145.345 184.467 145.592 184.976C145.842 185.484 145.967 186.08 145.967 186.761C145.967 187.437 145.842 188.028 145.592 188.534C145.345 189.04 144.999 189.433 144.553 189.714C144.109 189.996 143.592 190.136 143.001 190.136ZM143.001 189.233C143.45 189.233 143.82 189.118 144.109 188.888C144.399 188.658 144.614 188.355 144.753 187.98C144.892 187.605 144.962 187.199 144.962 186.761C144.962 186.324 144.892 185.916 144.753 185.538C144.614 185.161 144.399 184.855 144.109 184.622C143.82 184.389 143.45 184.273 143.001 184.273C142.553 184.273 142.183 184.389 141.893 184.622C141.604 184.855 141.389 185.161 141.25 185.538C141.111 185.916 141.041 186.324 141.041 186.761C141.041 187.199 141.111 187.605 141.25 187.98C141.389 188.355 141.604 188.658 141.893 188.888C142.183 189.118 142.553 189.233 143.001 189.233ZM148.508 181.273V190H147.502V181.273H148.508ZM153.009 190.136C152.418 190.136 151.9 189.996 151.454 189.714C151.011 189.433 150.664 189.04 150.414 188.534C150.167 188.028 150.043 187.437 150.043 186.761C150.043 186.08 150.167 185.484 150.414 184.976C150.664 184.467 151.011 184.072 151.454 183.791C151.9 183.51 152.418 183.369 153.009 183.369C153.6 183.369 154.117 183.51 154.56 183.791C155.006 184.072 155.353 184.467 155.6 184.976C155.85 185.484 155.975 186.08 155.975 186.761C155.975 187.437 155.85 188.028 155.6 188.534C155.353 189.04 155.006 189.433 154.56 189.714C154.117 189.996 153.6 190.136 153.009 190.136ZM153.009 189.233C153.458 189.233 153.827 189.118 154.117 188.888C154.407 188.658 154.621 188.355 154.761 187.98C154.9 187.605 154.969 187.199 154.969 186.761C154.969 186.324 154.9 185.916 154.761 185.538C154.621 185.161 154.407 184.855 154.117 184.622C153.827 184.389 153.458 184.273 153.009 184.273C152.56 184.273 152.191 184.389 151.901 184.622C151.612 184.855 151.397 185.161 151.258 185.538C151.119 185.916 151.049 186.324 151.049 186.761C151.049 187.199 151.119 187.605 151.258 187.98C151.397 188.355 151.612 188.658 151.901 188.888C152.191 189.118 152.56 189.233 153.009 189.233ZM160.152 192.591C159.667 192.591 159.249 192.528 158.9 192.403C158.55 192.281 158.259 192.119 158.026 191.918C157.796 191.719 157.613 191.506 157.476 191.278L158.277 190.716C158.368 190.835 158.483 190.972 158.623 191.125C158.762 191.281 158.952 191.416 159.194 191.53C159.438 191.646 159.757 191.705 160.152 191.705C160.681 191.705 161.117 191.577 161.461 191.321C161.804 191.065 161.976 190.665 161.976 190.119V188.79H161.891C161.817 188.909 161.712 189.057 161.576 189.233C161.442 189.406 161.249 189.561 160.996 189.697C160.746 189.831 160.408 189.898 159.982 189.898C159.453 189.898 158.979 189.773 158.559 189.523C158.141 189.273 157.81 188.909 157.566 188.432C157.324 187.955 157.203 187.375 157.203 186.693C157.203 186.023 157.321 185.439 157.557 184.942C157.793 184.442 158.121 184.055 158.542 183.783C158.962 183.507 159.448 183.369 159.999 183.369C160.425 183.369 160.763 183.44 161.013 183.582C161.266 183.722 161.459 183.881 161.593 184.06C161.729 184.236 161.834 184.381 161.908 184.494H162.01V183.455H162.982V190.188C162.982 190.75 162.854 191.207 162.598 191.56C162.346 191.915 162.005 192.175 161.576 192.339C161.15 192.507 160.675 192.591 160.152 192.591ZM160.118 188.994C160.522 188.994 160.863 188.902 161.141 188.717C161.419 188.533 161.631 188.267 161.776 187.92C161.921 187.574 161.993 187.159 161.993 186.676C161.993 186.205 161.922 185.788 161.78 185.428C161.638 185.067 161.428 184.784 161.15 184.58C160.871 184.375 160.527 184.273 160.118 184.273C159.692 184.273 159.337 184.381 159.053 184.597C158.772 184.812 158.56 185.102 158.418 185.466C158.279 185.83 158.209 186.233 158.209 186.676C158.209 187.131 158.28 187.533 158.422 187.882C158.567 188.229 158.78 188.501 159.061 188.7C159.346 188.896 159.698 188.994 160.118 188.994ZM164.823 190V183.455H165.828V190H164.823ZM165.334 182.364C165.138 182.364 164.969 182.297 164.827 182.163C164.688 182.03 164.618 181.869 164.618 181.682C164.618 181.494 164.688 181.334 164.827 181.2C164.969 181.067 165.138 181 165.334 181C165.53 181 165.698 181.067 165.837 181.2C165.979 181.334 166.05 181.494 166.05 181.682C166.05 181.869 165.979 182.03 165.837 182.163C165.698 182.297 165.53 182.364 165.334 182.364ZM170.33 190.136C169.716 190.136 169.188 189.991 168.744 189.702C168.301 189.412 167.96 189.013 167.722 188.504C167.483 187.996 167.364 187.415 167.364 186.761C167.364 186.097 167.486 185.51 167.73 185.001C167.977 184.49 168.321 184.091 168.761 183.804C169.205 183.514 169.722 183.369 170.312 183.369C170.773 183.369 171.188 183.455 171.557 183.625C171.926 183.795 172.229 184.034 172.464 184.341C172.7 184.648 172.847 185.006 172.903 185.415H171.898C171.821 185.116 171.651 184.852 171.386 184.622C171.125 184.389 170.773 184.273 170.33 184.273C169.938 184.273 169.594 184.375 169.298 184.58C169.006 184.781 168.777 185.067 168.612 185.436C168.45 185.803 168.369 186.233 168.369 186.727C168.369 187.233 168.449 187.673 168.608 188.048C168.77 188.423 168.997 188.714 169.29 188.922C169.585 189.129 169.932 189.233 170.33 189.233C170.591 189.233 170.828 189.188 171.041 189.097C171.254 189.006 171.435 188.875 171.582 188.705C171.73 188.534 171.835 188.33 171.898 188.091H172.903C172.847 188.477 172.706 188.825 172.482 189.135C172.26 189.442 171.966 189.686 171.599 189.868C171.236 190.047 170.813 190.136 170.33 190.136ZM176.3 190.153C175.885 190.153 175.509 190.075 175.17 189.919C174.832 189.76 174.564 189.531 174.365 189.233C174.166 188.932 174.067 188.568 174.067 188.142C174.067 187.767 174.141 187.463 174.288 187.23C174.436 186.994 174.634 186.81 174.881 186.676C175.128 186.543 175.401 186.443 175.699 186.378C176 186.31 176.303 186.256 176.607 186.216C177.004 186.165 177.327 186.126 177.574 186.101C177.824 186.072 178.006 186.026 178.119 185.96C178.236 185.895 178.294 185.781 178.294 185.619V185.585C178.294 185.165 178.179 184.838 177.949 184.605C177.722 184.372 177.376 184.256 176.913 184.256C176.433 184.256 176.057 184.361 175.784 184.571C175.511 184.781 175.32 185.006 175.209 185.244L174.254 184.903C174.425 184.506 174.652 184.196 174.936 183.974C175.223 183.75 175.536 183.594 175.874 183.506C176.214 183.415 176.55 183.369 176.879 183.369C177.089 183.369 177.331 183.395 177.604 183.446C177.879 183.494 178.145 183.595 178.401 183.749C178.659 183.902 178.874 184.134 179.044 184.443C179.214 184.753 179.3 185.168 179.3 185.688V190H178.294V189.114H178.243C178.175 189.256 178.061 189.408 177.902 189.57C177.743 189.732 177.531 189.869 177.267 189.983C177.003 190.097 176.68 190.153 176.3 190.153ZM176.453 189.25C176.851 189.25 177.186 189.172 177.459 189.016C177.734 188.859 177.942 188.658 178.081 188.411C178.223 188.163 178.294 187.903 178.294 187.631V186.71C178.251 186.761 178.158 186.808 178.013 186.851C177.871 186.891 177.706 186.926 177.518 186.957C177.334 186.986 177.153 187.011 176.977 187.034C176.804 187.054 176.663 187.071 176.555 187.085C176.294 187.119 176.05 187.175 175.822 187.251C175.598 187.325 175.416 187.437 175.277 187.588C175.141 187.736 175.072 187.937 175.072 188.193C175.072 188.543 175.202 188.807 175.46 188.986C175.722 189.162 176.053 189.25 176.453 189.25ZM182.141 181.273V190H181.135V181.273H182.141ZM187.852 190H186.744L189.949 181.273H191.04L194.244 190H193.136L190.528 182.653H190.46L187.852 190ZM188.261 186.591H192.727V187.528H188.261V186.591ZM198.109 192.591C197.624 192.591 197.206 192.528 196.857 192.403C196.507 192.281 196.216 192.119 195.983 191.918C195.753 191.719 195.57 191.506 195.433 191.278L196.234 190.716C196.325 190.835 196.44 190.972 196.58 191.125C196.719 191.281 196.909 191.416 197.151 191.53C197.395 191.646 197.714 191.705 198.109 191.705C198.638 191.705 199.074 191.577 199.418 191.321C199.761 191.065 199.933 190.665 199.933 190.119V188.79H199.848C199.774 188.909 199.669 189.057 199.533 189.233C199.399 189.406 199.206 189.561 198.953 189.697C198.703 189.831 198.365 189.898 197.939 189.898C197.411 189.898 196.936 189.773 196.516 189.523C196.098 189.273 195.767 188.909 195.523 188.432C195.281 187.955 195.161 187.375 195.161 186.693C195.161 186.023 195.278 185.439 195.514 184.942C195.75 184.442 196.078 184.055 196.499 183.783C196.919 183.507 197.405 183.369 197.956 183.369C198.382 183.369 198.72 183.44 198.97 183.582C199.223 183.722 199.416 183.881 199.55 184.06C199.686 184.236 199.791 184.381 199.865 184.494H199.967V183.455H200.939V190.188C200.939 190.75 200.811 191.207 200.555 191.56C200.303 191.915 199.962 192.175 199.533 192.339C199.107 192.507 198.632 192.591 198.109 192.591ZM198.075 188.994C198.479 188.994 198.82 188.902 199.098 188.717C199.376 188.533 199.588 188.267 199.733 187.92C199.878 187.574 199.95 187.159 199.95 186.676C199.95 186.205 199.879 185.788 199.737 185.428C199.595 185.067 199.385 184.784 199.107 184.58C198.828 184.375 198.484 184.273 198.075 184.273C197.649 184.273 197.294 184.381 197.01 184.597C196.729 184.812 196.517 185.102 196.375 185.466C196.236 185.83 196.166 186.233 196.166 186.676C196.166 187.131 196.237 187.533 196.379 187.882C196.524 188.229 196.737 188.501 197.018 188.7C197.303 188.896 197.655 188.994 198.075 188.994ZM205.524 190.136C204.893 190.136 204.349 189.997 203.892 189.719C203.438 189.438 203.087 189.045 202.839 188.543C202.595 188.037 202.473 187.449 202.473 186.778C202.473 186.108 202.595 185.517 202.839 185.006C203.087 184.491 203.43 184.091 203.871 183.804C204.314 183.514 204.831 183.369 205.422 183.369C205.763 183.369 206.099 183.426 206.432 183.54C206.764 183.653 207.067 183.838 207.339 184.094C207.612 184.347 207.83 184.682 207.991 185.099C208.153 185.517 208.234 186.031 208.234 186.642V187.068H203.189V186.199H207.212C207.212 185.83 207.138 185.5 206.99 185.21C206.845 184.92 206.638 184.692 206.368 184.524C206.101 184.357 205.786 184.273 205.422 184.273C205.021 184.273 204.675 184.372 204.382 184.571C204.092 184.767 203.869 185.023 203.713 185.338C203.557 185.653 203.479 185.991 203.479 186.352V186.932C203.479 187.426 203.564 187.845 203.734 188.189C203.908 188.53 204.148 188.79 204.455 188.969C204.761 189.145 205.118 189.233 205.524 189.233C205.788 189.233 206.027 189.196 206.24 189.122C206.456 189.045 206.642 188.932 206.798 188.781C206.955 188.628 207.075 188.437 207.161 188.21L208.132 188.483C208.03 188.812 207.858 189.102 207.616 189.352C207.375 189.599 207.077 189.793 206.722 189.932C206.366 190.068 205.967 190.136 205.524 190.136Z" fill="#667085"/>
<circle cx="38" cy="179" r="4" fill="#17B26A"/>
<path d="M46.5483 176.182H47.3551L48.9688 178.898H49.0369L50.6506 176.182H51.4574L49.3551 179.602V182H48.6506V179.602L46.5483 176.182ZM53.4332 182.091C53.0393 182.091 52.6937 181.997 52.3963 181.81C52.1009 181.622 51.8698 181.36 51.7031 181.023C51.5384 180.686 51.456 180.292 51.456 179.841C51.456 179.386 51.5384 178.99 51.7031 178.651C51.8698 178.312 52.1009 178.048 52.3963 177.861C52.6937 177.673 53.0393 177.58 53.4332 177.58C53.8272 177.58 54.1719 177.673 54.4673 177.861C54.7647 178.048 54.9957 178.312 55.1605 178.651C55.3272 178.99 55.4105 179.386 55.4105 179.841C55.4105 180.292 55.3272 180.686 55.1605 181.023C54.9957 181.36 54.7647 181.622 54.4673 181.81C54.1719 181.997 53.8272 182.091 53.4332 182.091ZM53.4332 181.489C53.7325 181.489 53.9787 181.412 54.1719 181.259C54.3651 181.105 54.508 180.903 54.6009 180.653C54.6937 180.403 54.7401 180.133 54.7401 179.841C54.7401 179.549 54.6937 179.277 54.6009 179.026C54.508 178.774 54.3651 178.57 54.1719 178.415C53.9787 178.259 53.7325 178.182 53.4332 178.182C53.134 178.182 52.8878 178.259 52.6946 178.415C52.5014 178.57 52.3584 178.774 52.2656 179.026C52.1728 179.277 52.1264 179.549 52.1264 179.841C52.1264 180.133 52.1728 180.403 52.2656 180.653C52.3584 180.903 52.5014 181.105 52.6946 181.259C52.8878 181.412 53.134 181.489 53.4332 181.489ZM59.1839 180.216V177.636H59.8544V182H59.1839V181.261H59.1385C59.0362 181.483 58.8771 181.671 58.6612 181.827C58.4453 181.98 58.1726 182.057 57.843 182.057C57.5703 182.057 57.3279 181.997 57.1158 181.878C56.9036 181.757 56.737 181.575 56.6158 181.332C56.4946 181.088 56.4339 180.78 56.4339 180.409V177.636H57.1044V180.364C57.1044 180.682 57.1934 180.936 57.3714 181.125C57.5514 181.314 57.7805 181.409 58.0589 181.409C58.2256 181.409 58.3951 181.366 58.5675 181.281C58.7417 181.196 58.8875 181.065 59.005 180.889C59.1243 180.713 59.1839 180.489 59.1839 180.216ZM61.7528 179.375V182H61.0824V177.636H61.7301V178.318H61.7869C61.8892 178.097 62.0445 177.919 62.2528 177.784C62.4612 177.648 62.7301 177.58 63.0597 177.58C63.3551 177.58 63.6136 177.64 63.8352 177.761C64.0568 177.881 64.2292 178.062 64.3523 178.307C64.4754 178.549 64.5369 178.856 64.5369 179.227V182H63.8665V179.273C63.8665 178.93 63.7775 178.663 63.5994 178.472C63.4214 178.278 63.1771 178.182 62.8665 178.182C62.6525 178.182 62.4612 178.228 62.2926 178.321C62.1259 178.414 61.9943 178.549 61.8977 178.727C61.8011 178.905 61.7528 179.121 61.7528 179.375ZM67.5234 183.727C67.1996 183.727 66.9212 183.686 66.6882 183.602C66.4553 183.521 66.2611 183.413 66.1058 183.278C65.9524 183.146 65.8303 183.004 65.7393 182.852L66.2734 182.477C66.334 182.557 66.4107 182.648 66.5036 182.75C66.5964 182.854 66.7232 182.944 66.8842 183.02C67.0471 183.098 67.2602 183.136 67.5234 183.136C67.8757 183.136 68.1664 183.051 68.3956 182.881C68.6248 182.71 68.7393 182.443 68.7393 182.08V181.193H68.6825C68.6333 181.273 68.5632 181.371 68.4723 181.489C68.3833 181.604 68.2545 181.707 68.0859 181.798C67.9193 181.887 67.6939 181.932 67.4098 181.932C67.0575 181.932 66.7412 181.848 66.4609 181.682C66.1825 181.515 65.9619 181.273 65.799 180.955C65.638 180.636 65.5575 180.25 65.5575 179.795C65.5575 179.348 65.6361 178.959 65.7933 178.628C65.9505 178.295 66.1693 178.037 66.4496 177.855C66.7299 177.671 67.0537 177.58 67.4212 177.58C67.7053 177.58 67.9306 177.627 68.0973 177.722C68.2659 177.814 68.3946 177.92 68.4837 178.04C68.5746 178.157 68.6446 178.254 68.6939 178.33H68.7621V177.636H69.4098V182.125C69.4098 182.5 69.3246 182.805 69.1541 183.04C68.9856 183.277 68.7583 183.45 68.4723 183.56C68.1882 183.671 67.8719 183.727 67.5234 183.727ZM67.5007 181.33C67.7696 181.33 67.9969 181.268 68.1825 181.145C68.3681 181.022 68.5092 180.845 68.6058 180.614C68.7024 180.383 68.7507 180.106 68.7507 179.784C68.7507 179.47 68.7034 179.192 68.6087 178.952C68.514 178.711 68.3738 178.523 68.1882 178.386C68.0026 178.25 67.7734 178.182 67.5007 178.182C67.2166 178.182 66.9799 178.254 66.7905 178.398C66.603 178.542 66.4619 178.735 66.3672 178.977C66.2744 179.22 66.228 179.489 66.228 179.784C66.228 180.087 66.2753 180.355 66.37 180.588C66.4666 180.819 66.6087 181.001 66.7962 181.134C66.9856 181.264 67.2204 181.33 67.5007 181.33ZM72.4666 182.091C72.0462 182.091 71.6835 181.998 71.3786 181.812C71.0755 181.625 70.8416 181.364 70.6768 181.028C70.514 180.691 70.4325 180.299 70.4325 179.852C70.4325 179.405 70.514 179.011 70.6768 178.67C70.8416 178.328 71.0708 178.061 71.3643 177.869C71.6598 177.676 72.0045 177.58 72.3984 177.58C72.6257 177.58 72.8501 177.617 73.0717 177.693C73.2933 177.769 73.495 177.892 73.6768 178.062C73.8587 178.231 74.0036 178.455 74.1115 178.733C74.2195 179.011 74.2734 179.354 74.2734 179.761V180.045H70.9098V179.466H73.5916C73.5916 179.22 73.5424 179 73.4439 178.807C73.3473 178.614 73.209 178.461 73.0291 178.349C72.8511 178.238 72.6409 178.182 72.3984 178.182C72.1314 178.182 71.9003 178.248 71.7053 178.381C71.5121 178.511 71.3634 178.682 71.2592 178.892C71.1551 179.102 71.103 179.328 71.103 179.568V179.955C71.103 180.284 71.1598 180.563 71.2734 180.793C71.389 181.02 71.549 181.193 71.7536 181.312C71.9581 181.43 72.1958 181.489 72.4666 181.489C72.6428 181.489 72.8018 181.464 72.9439 181.415C73.0878 181.364 73.2119 181.288 73.3161 181.188C73.4202 181.085 73.5007 180.958 73.5575 180.807L74.2053 180.989C74.1371 181.208 74.0225 181.402 73.8615 181.568C73.7005 181.733 73.5017 181.862 73.2649 181.955C73.0282 182.045 72.7621 182.091 72.4666 182.091ZM75.2933 182V177.636H75.9411V178.295H75.9865C76.0661 178.08 76.21 177.904 76.4183 177.77C76.6267 177.635 76.8615 177.568 77.1229 177.568C77.1721 177.568 77.2337 177.569 77.3075 177.571C77.3814 177.573 77.4373 177.576 77.4751 177.58V178.261C77.4524 178.256 77.4003 178.247 77.3189 178.236C77.2393 178.223 77.1551 178.216 77.0661 178.216C76.8539 178.216 76.6645 178.26 76.4979 178.349C76.3331 178.437 76.2024 178.558 76.1058 178.713C76.0111 178.866 75.9638 179.042 75.9638 179.239V182H75.2933Z" fill="#667085"/>
<path d="M250.817 179.091C250.817 179.705 250.706 180.235 250.484 180.682C250.263 181.129 249.959 181.473 249.572 181.716C249.186 181.958 248.745 182.08 248.249 182.08C247.752 182.08 247.311 181.958 246.925 181.716C246.538 181.473 246.234 181.129 246.013 180.682C245.791 180.235 245.68 179.705 245.68 179.091C245.68 178.477 245.791 177.947 246.013 177.5C246.234 177.053 246.538 176.708 246.925 176.466C247.311 176.223 247.752 176.102 248.249 176.102C248.745 176.102 249.186 176.223 249.572 176.466C249.959 176.708 250.263 177.053 250.484 177.5C250.706 177.947 250.817 178.477 250.817 179.091ZM250.135 179.091C250.135 178.587 250.051 178.162 249.882 177.815C249.715 177.469 249.489 177.206 249.203 177.028C248.919 176.85 248.601 176.761 248.249 176.761C247.896 176.761 247.577 176.85 247.291 177.028C247.007 177.206 246.781 177.469 246.612 177.815C246.446 178.162 246.362 178.587 246.362 179.091C246.362 179.595 246.446 180.02 246.612 180.366C246.781 180.713 247.007 180.975 247.291 181.153C247.577 181.331 247.896 181.42 248.249 181.42C248.601 181.42 248.919 181.331 249.203 181.153C249.489 180.975 249.715 180.713 249.882 180.366C250.051 180.02 250.135 179.595 250.135 179.091ZM252.581 176.182V182H251.911V176.182H252.581ZM255.457 182.091C255.093 182.091 254.772 181.999 254.494 181.815C254.215 181.63 253.997 181.368 253.84 181.031C253.683 180.692 253.604 180.292 253.604 179.83C253.604 179.371 253.683 178.973 253.84 178.636C253.997 178.299 254.216 178.039 254.496 177.855C254.777 177.671 255.101 177.58 255.468 177.58C255.752 177.58 255.977 177.627 256.141 177.722C256.308 177.814 256.435 177.92 256.522 178.04C256.611 178.157 256.68 178.254 256.729 178.33H256.786V176.182H257.457V182H256.809V181.33H256.729C256.68 181.409 256.61 181.509 256.519 181.631C256.428 181.75 256.299 181.857 256.13 181.952C255.961 182.045 255.737 182.091 255.457 182.091ZM255.548 181.489C255.817 181.489 256.044 181.419 256.229 181.278C256.415 181.136 256.556 180.94 256.653 180.69C256.749 180.438 256.798 180.148 256.798 179.818C256.798 179.492 256.75 179.207 256.656 178.963C256.561 178.717 256.421 178.526 256.235 178.389C256.049 178.251 255.82 178.182 255.548 178.182C255.263 178.182 255.027 178.255 254.837 178.401C254.65 178.545 254.509 178.741 254.414 178.989C254.321 179.235 254.275 179.511 254.275 179.818C254.275 180.129 254.322 180.411 254.417 180.665C254.513 180.917 254.656 181.117 254.843 181.267C255.032 181.415 255.267 181.489 255.548 181.489ZM260.607 182.091C260.187 182.091 259.824 181.998 259.519 181.812C259.216 181.625 258.982 181.364 258.817 181.028C258.655 180.691 258.573 180.299 258.573 179.852C258.573 179.405 258.655 179.011 258.817 178.67C258.982 178.328 259.211 178.061 259.505 177.869C259.8 177.676 260.145 177.58 260.539 177.58C260.766 177.58 260.991 177.617 261.212 177.693C261.434 177.769 261.636 177.892 261.817 178.062C261.999 178.231 262.144 178.455 262.252 178.733C262.36 179.011 262.414 179.354 262.414 179.761V180.045H259.05V179.466H261.732C261.732 179.22 261.683 179 261.585 178.807C261.488 178.614 261.35 178.461 261.17 178.349C260.992 178.238 260.781 178.182 260.539 178.182C260.272 178.182 260.041 178.248 259.846 178.381C259.653 178.511 259.504 178.682 259.4 178.892C259.296 179.102 259.244 179.328 259.244 179.568V179.955C259.244 180.284 259.3 180.563 259.414 180.793C259.53 181.02 259.69 181.193 259.894 181.312C260.099 181.43 260.336 181.489 260.607 181.489C260.783 181.489 260.942 181.464 261.085 181.415C261.228 181.364 261.353 181.288 261.457 181.188C261.561 181.085 261.641 180.958 261.698 180.807L262.346 180.989C262.278 181.208 262.163 181.402 262.002 181.568C261.841 181.733 261.642 181.862 261.406 181.955C261.169 182.045 260.903 182.091 260.607 182.091ZM263.434 182V177.636H264.082V178.295H264.127C264.207 178.08 264.351 177.904 264.559 177.77C264.767 177.635 265.002 177.568 265.263 177.568C265.313 177.568 265.374 177.569 265.448 177.571C265.522 177.573 265.578 177.576 265.616 177.58V178.261C265.593 178.256 265.541 178.247 265.46 178.236C265.38 178.223 265.296 178.216 265.207 178.216C264.995 178.216 264.805 178.26 264.638 178.349C264.474 178.437 264.343 178.558 264.246 178.713C264.152 178.866 264.104 179.042 264.104 179.239V182H263.434Z" fill="#667085"/>
<circle cx="274" cy="179" r="4" fill="#F04438"/>
</svg>
