<svg width="24" height="24" viewBox="0 0 24 24" fill="none" xmlns="http://www.w3.org/2000/svg">
<path d="M12.4397 3.27591C12.3322 3.10515 12.1441 3 11.9417 3C11.7385 3 11.5511 3.10514 11.4436 3.27591C10.8863 4.16132 6 12.0202 6 15.0591C6 18.3353 8.66576 21 11.9417 21C15.2176 21 17.8826 18.3351 17.8826 15.0591C17.8826 12.0202 12.9971 4.16132 12.4397 3.27591ZM11.9417 19.8221C9.31477 19.8221 7.17784 17.686 7.17784 15.0591C7.17784 13.0005 10.2601 7.48724 11.9417 4.71078C13.6232 7.48644 16.7039 12.9997 16.7039 15.0591C16.7039 17.6854 14.5678 19.8221 11.9417 19.8221Z" fill="#00625B"/>
<path d="M12.6158 13.7917C12.6158 14.1721 12.5437 14.4957 12.3995 14.7626C12.2565 15.0294 12.0612 15.2332 11.8136 15.374C11.5672 15.5137 11.2902 15.5835 10.9825 15.5835C10.6725 15.5835 10.3943 15.5131 10.1479 15.3723C9.90152 15.2315 9.70679 15.0277 9.56372 14.7609C9.42065 14.494 9.34912 14.171 9.34912 13.7917C9.34912 13.4114 9.42065 13.0878 9.56372 12.8209C9.70679 12.5541 9.90152 12.3509 10.1479 12.2112C10.3943 12.0704 10.6725 12 10.9825 12C11.2902 12 11.5672 12.0704 11.8136 12.2112C12.0612 12.3509 12.2565 12.5541 12.3995 12.8209C12.5437 13.0878 12.6158 13.4114 12.6158 13.7917ZM11.8681 13.7917C11.8681 13.5454 11.8312 13.3376 11.7574 13.1684C11.6848 12.9992 11.582 12.8709 11.4491 12.7835C11.3163 12.696 11.1607 12.6523 10.9825 12.6523C10.8042 12.6523 10.6487 12.696 10.5158 12.7835C10.383 12.8709 10.2796 12.9992 10.2058 13.1684C10.1332 13.3376 10.0968 13.5454 10.0968 13.7917C10.0968 14.0381 10.1332 14.2459 10.2058 14.4151C10.2796 14.5843 10.383 14.7126 10.5158 14.8C10.6487 14.8875 10.8042 14.9312 10.9825 14.9312C11.1607 14.9312 11.3163 14.8875 11.4491 14.8C11.582 14.7126 11.6848 14.5843 11.7574 14.4151C11.8312 14.2459 11.8681 14.0381 11.8681 13.7917Z" fill="#00625B"/>
<path d="M13.0684 16.1353V15.7589L13.8979 15.0964C13.9615 15.0442 14.0166 14.997 14.0631 14.955C14.1097 14.913 14.146 14.8704 14.1721 14.8273C14.1982 14.7841 14.2113 14.7364 14.2113 14.6842C14.2113 14.6025 14.1778 14.5394 14.1108 14.4952C14.0438 14.4509 13.9626 14.4287 13.8672 14.4287C13.7651 14.4287 13.6827 14.4537 13.6203 14.5037C13.559 14.5525 13.5283 14.6235 13.5283 14.7166H13.0259C13.0259 14.4986 13.1054 14.3277 13.2643 14.2039C13.4233 14.079 13.6265 14.0166 13.8741 14.0166C14.0432 14.0166 14.1903 14.0461 14.3152 14.1051C14.4401 14.163 14.5366 14.242 14.6047 14.3419C14.674 14.4418 14.7086 14.5536 14.7086 14.6774C14.7086 14.7773 14.6876 14.8704 14.6456 14.9567C14.6047 15.0419 14.5411 15.1259 14.4548 15.2088C14.3697 15.2906 14.2595 15.3763 14.1244 15.466L13.8213 15.6908V15.7095H14.7325V16.1353H13.0684Z" fill="#00625B"/>
</svg>
