<svg width="168" height="235" viewBox="0 0 168 235" fill="none" xmlns="http://www.w3.org/2000/svg">
<path d="M134.971 1L134.971 233" stroke="#00625B" stroke-linecap="round" stroke-dasharray="8 8"/>
<line x1="123.471" y1="0.5" x2="146.471" y2="0.5" stroke="#00625B" stroke-linecap="round"/>
<line x1="123.471" y1="233.5" x2="146.471" y2="233.5" stroke="#00625B" stroke-linecap="round"/>
<path d="M106.796 115.536C106.796 112.931 106.39 108.796 106.39 101.158C106.572 95.2241 103.692 83.4069 103.692 80.8024C103.424 72.9389 100.413 64.3134 100.319 62.3772C100.544 59.323 99.9135 53.9765 99.4638 50.7412C97.7087 43.7334 92.4559 39.5549 86.4349 38.8304C80.4139 38.1121 74.2993 32.672 74.2993 31.504V27.0195L75.1612 26.4386C76.6352 25.4455 77.5471 23.8154 77.6283 22.0416L77.7532 19.2747C80.4139 18.1254 79.4958 12.3418 78.0655 12.5416L78.1092 11.5423C78.1342 11.2363 78.153 10.9302 78.153 10.6179C78.153 4.75308 73.3999 0 67.535 0C61.6702 0 56.9171 4.75308 56.9171 10.6179C56.9171 10.9302 56.9358 11.2363 56.9608 11.5423L57.0045 12.5416C55.568 12.3418 54.6561 18.1254 57.3168 19.2747L57.4417 22.0416C57.5229 23.8154 58.4411 25.4455 59.9088 26.4386L60.7708 27.0195V31.504C60.7708 32.672 54.6624 38.1121 48.6351 38.8304C42.6141 39.5487 37.3551 43.7271 35.6063 50.7412C35.1566 53.9765 34.5258 59.323 34.7506 62.3772C34.6632 64.3072 31.6527 72.9389 31.3779 80.8024C31.3779 83.4069 28.5048 95.2241 28.6797 101.158C28.6797 108.796 28.2737 112.931 28.2737 115.536C28.2737 118.14 28.0488 125.691 28.0488 127.128C28.0488 128.564 33.5327 136.565 34.9692 137.102C36.4058 137.64 34.4758 135.172 34.1573 133.823C33.8387 132.474 32.1336 126.947 32.4959 126.453C32.8581 125.96 33.1704 125.06 33.845 126.541C34.5195 128.021 35.9561 130.988 36.8555 130.857C37.7549 130.719 36.4058 126.722 36.4058 126.091C36.4058 125.46 36.2246 119.483 35.1004 117.191C35.1441 116.291 35.1004 115.754 35.1004 114.492C35.1004 113.231 37.7986 104.83 39.0977 101.595C40.4031 98.3595 41.6148 89.7777 41.8834 85.237C42.1519 80.6962 43.501 76.6989 44.1756 74.6752C44.8501 72.6516 45.3873 70.9028 45.837 70.7654C46.9612 71.0339 47.6733 87.7978 47.8294 94.512C47.9855 101.233 45.0625 117.122 44.9813 126.928C44.9001 136.734 47.0362 146.771 47.9855 152.386C48.9349 158.001 49.4096 166.139 49.4096 170.493C49.4096 174.846 47.5109 178.637 48.0667 185.832C48.6226 193.028 52.8885 204.489 53.994 209.948C55.0996 215.4 56.9171 222.677 56.6048 224.413C56.2863 226.149 51.1522 229.947 51.071 231.527C50.9898 233.107 54.6311 233.188 56.2863 233.582C57.9477 233.975 63.1629 236.193 64.2685 234.138C65.374 232.083 64.587 229.079 64.2685 227.573C63.9499 226.074 62.9256 209.941 62.9256 205.675C62.9256 201.41 63.875 190.417 63.875 186.938C63.875 183.459 61.6639 173.578 62.2136 169.862C62.7694 166.146 64.0311 165.671 64.3496 161.798C64.6682 157.926 66.5607 123.849 67.51 122.587C68.4594 123.855 70.3581 157.926 70.6704 161.798C70.989 165.671 72.2506 166.146 72.8065 169.862C73.3624 173.578 71.1451 183.459 71.1451 186.938C71.1451 190.417 72.0945 201.403 72.0945 205.675C72.0945 209.948 71.0639 226.074 70.7516 227.573C70.4331 229.079 69.6461 232.077 70.7516 234.138C71.8571 236.193 77.0787 233.982 78.7338 233.582C80.3952 233.188 84.0303 233.107 83.9491 231.527C83.8679 229.947 78.7338 226.149 78.4153 224.413C78.0967 222.677 79.9205 215.4 81.026 209.948C82.1315 204.495 86.4037 193.028 86.9533 185.832C87.5092 178.637 85.6105 174.846 85.6105 170.493C85.6105 166.139 86.0852 158.001 87.0345 152.386C87.9839 146.771 90.12 136.734 90.0388 126.928C89.9576 117.122 87.0345 101.233 87.1907 94.512C87.3468 87.7915 88.0589 71.0339 89.1831 70.7654C89.6328 70.9028 90.1699 72.6516 90.8445 74.6752C91.519 76.6989 92.8681 80.6962 93.1367 85.237C93.4053 89.7777 94.617 98.3595 95.9224 101.595C97.2277 104.83 99.9197 113.231 99.9197 114.492C99.9197 115.754 99.876 116.291 99.9197 117.191C98.7954 119.483 98.6143 125.46 98.6143 126.091C98.6143 126.722 97.2652 130.719 98.1646 130.857C99.064 130.994 100.501 128.027 101.175 126.541C101.85 125.06 102.162 125.954 102.524 126.453C102.886 126.947 101.175 132.474 100.863 133.823C100.551 135.172 98.6143 137.646 100.051 137.102C101.487 136.565 106.971 128.564 106.971 127.128C106.971 125.691 106.746 118.14 106.746 115.536H106.796Z" fill="#4DAEA6"/>
<path d="M167.049 117L165.138 115.703L164.97 118.006L167.049 117ZM98.5343 112.199L100.091 112.313L100.12 111.914L98.5634 111.801L98.5343 112.199ZM103.205 112.54L106.318 112.768L106.347 112.369L103.234 112.141L103.205 112.54ZM109.432 112.995L112.546 113.222L112.575 112.823L109.461 112.596L109.432 112.995ZM115.659 113.449L118.773 113.677L118.802 113.278L115.688 113.051L115.659 113.449ZM121.887 113.904L125 114.131L125.029 113.732L121.916 113.505L121.887 113.904ZM128.114 114.359L131.227 114.586L131.257 114.187L128.143 113.96L128.114 114.359ZM134.341 114.813L137.455 115.04L137.484 114.641L134.37 114.414L134.341 114.813ZM140.568 115.268L143.682 115.495L143.711 115.096L140.597 114.869L140.568 115.268ZM146.796 115.722L149.909 115.949L149.938 115.551L146.825 115.323L146.796 115.722ZM153.023 116.177L156.137 116.404L156.166 116.005L153.052 115.778L153.023 116.177ZM159.25 116.631L162.364 116.859L162.393 116.46L159.279 116.232L159.25 116.631Z" fill="#00625B"/>
<path d="M2.70176 138.7L4.99161 138.4L3.58703 136.567L2.70176 138.7ZM37.4272 111.841L36.1826 112.795L36.4259 113.112L37.6705 112.159L37.4272 111.841ZM33.6936 114.702L31.2045 116.609L31.4478 116.927L33.9369 115.019L33.6936 114.702ZM28.7154 118.516L26.2263 120.423L26.4696 120.741L28.9587 118.834L28.7154 118.516ZM23.7373 122.331L21.2482 124.238L21.4915 124.555L23.9805 122.648L23.7373 122.331ZM18.7591 126.145L16.27 128.052L16.5133 128.369L19.0024 126.462L18.7591 126.145ZM13.781 129.959L11.2919 131.866L11.5352 132.184L14.0242 130.277L13.781 129.959ZM8.80281 133.773L6.31373 135.681L6.55701 135.998L9.04609 134.091L8.80281 133.773Z" fill="#00625B"/>
<path d="M-8.31749e-05 97.6598L1.96068 98.8799L2.03697 96.5718L-8.31749e-05 97.6598ZM40.5554 98.8001L39.1073 98.7522L39.094 99.152L40.5422 99.1999L40.5554 98.8001ZM36.2109 98.6565L33.3146 98.5608L33.3013 98.9606L36.1977 99.0563L36.2109 98.6565ZM30.4182 98.4651L27.5219 98.3693L27.5086 98.7691L30.405 98.8648L30.4182 98.4651ZM24.6255 98.2736L21.7292 98.1779L21.7159 98.5777L24.6123 98.6734L24.6255 98.2736ZM18.8328 98.0822L15.9365 97.9864L15.9232 98.3862L18.8196 98.4819L18.8328 98.0822ZM13.0401 97.8907L10.1438 97.795L10.1305 98.1947L13.0269 98.2905L13.0401 97.8907ZM7.2474 97.6992L4.35105 97.6035L4.33784 98.0033L7.23419 98.099L7.2474 97.6992Z" fill="#00625B"/>
<path d="M96.5488 99L162.049 117" stroke="#00625B" stroke-width="0.4" stroke-dasharray="3 3"/>
<g filter="url(#filter0_d_2365_12302)">
<path d="M89.4828 106C95.971 106.945 100.049 108.313 100.049 109.835C100.049 112.688 85.7219 115 68.0488 115C50.3757 115 36.0488 112.688 36.0488 109.835C36.0488 108.373 39.812 107.053 45.8601 106.114" stroke="#00625B" stroke-width="0.591888" stroke-linecap="round"/>
</g>
<g filter="url(#filter1_d_2365_12302)">
<path d="M86.8035 96C92.4807 96.8402 96.0488 98.0563 96.0488 99.409C96.0488 101.945 83.5128 104 68.0488 104C52.5849 104 40.0488 101.945 40.0488 99.409C40.0488 98.1095 43.3416 96.9361 48.6337 96.1009" stroke="#00625B" stroke-width="0.571429" stroke-linecap="round"/>
</g>
<defs>
<filter id="filter0_d_2365_12302" x="34.5692" y="105.704" width="66.9593" height="11.9593" filterUnits="userSpaceOnUse" color-interpolation-filters="sRGB">
<feFlood flood-opacity="0" result="BackgroundImageFix"/>
<feColorMatrix in="SourceAlpha" type="matrix" values="0 0 0 0 0 0 0 0 0 0 0 0 0 0 0 0 0 0 127 0" result="hardAlpha"/>
<feOffset dy="1.18378"/>
<feGaussianBlur stdDeviation="0.591888"/>
<feComposite in2="hardAlpha" operator="out"/>
<feColorMatrix type="matrix" values="0 0 0 0 0 0 0 0 0 0.243137 0 0 0 0 0.223529 0 0 0 0.3 0"/>
<feBlend mode="normal" in2="BackgroundImageFix" result="effect1_dropShadow_2365_12302"/>
<feBlend mode="normal" in="SourceGraphic" in2="effect1_dropShadow_2365_12302" result="shape"/>
</filter>
<filter id="filter1_d_2365_12302" x="38.6198" y="95.7139" width="58.858" height="10.858" filterUnits="userSpaceOnUse" color-interpolation-filters="sRGB">
<feFlood flood-opacity="0" result="BackgroundImageFix"/>
<feColorMatrix in="SourceAlpha" type="matrix" values="0 0 0 0 0 0 0 0 0 0 0 0 0 0 0 0 0 0 127 0" result="hardAlpha"/>
<feOffset dy="1.14286"/>
<feGaussianBlur stdDeviation="0.571429"/>
<feComposite in2="hardAlpha" operator="out"/>
<feColorMatrix type="matrix" values="0 0 0 0 0 0 0 0 0 0.243137 0 0 0 0 0.223529 0 0 0 0.3 0"/>
<feBlend mode="normal" in2="BackgroundImageFix" result="effect1_dropShadow_2365_12302"/>
<feBlend mode="normal" in="SourceGraphic" in2="effect1_dropShadow_2365_12302" result="shape"/>
</filter>
</defs>
</svg>
