<svg width="271" height="326" viewBox="0 0 271 326" fill="none" xmlns="http://www.w3.org/2000/svg">
<g clip-path="url(#clip0_413_2861)">
<rect width="271" height="326" fill="white"/>
<path d="M148.748 157.536C148.748 154.931 148.342 150.796 148.342 143.158C148.523 137.224 145.643 125.407 145.643 122.802C145.375 114.939 142.364 106.313 142.271 104.377C142.495 101.323 141.865 95.9765 141.415 92.7412C139.66 85.7334 134.407 81.5549 128.386 80.8304C122.365 80.1121 116.25 74.672 116.25 73.504V69.0195L117.112 68.4386C118.586 67.4455 119.498 65.8154 119.579 64.0416L119.704 61.2747C122.365 60.1254 121.447 54.3418 120.017 54.5416L120.06 53.5423C120.085 53.2363 120.104 52.9302 120.104 52.6179C120.104 46.7531 115.351 42 109.486 42C103.621 42 98.8683 46.7531 98.8683 52.6179C98.8683 52.9302 98.887 53.2363 98.912 53.5423L98.9557 54.5416C97.5192 54.3418 96.6073 60.1254 99.268 61.2747L99.3929 64.0416C99.4741 65.8154 100.392 67.4455 101.86 68.4386L102.722 69.0195V73.504C102.722 74.672 96.6135 80.1121 90.5863 80.8304C84.5653 81.5487 79.3063 85.7271 77.5575 92.7412C77.1078 95.9765 76.4769 101.323 76.7018 104.377C76.6143 106.307 73.6039 114.939 73.329 122.802C73.329 125.407 70.4559 137.224 70.6308 143.158C70.6308 150.796 70.2249 154.931 70.2249 157.536C70.2249 160.14 70 167.691 70 169.128C70 170.564 75.4838 178.565 76.9204 179.102C78.3569 179.64 76.427 177.172 76.1084 175.823C75.7899 174.474 74.0848 168.947 74.447 168.453C74.8093 167.96 75.1216 167.06 75.7961 168.541C76.4707 170.021 77.9072 172.988 78.8066 172.857C79.706 172.719 78.3569 168.722 78.3569 168.091C78.3569 167.46 78.1758 161.483 77.0516 159.191C77.0953 158.291 77.0516 157.754 77.0516 156.492C77.0516 155.231 79.7498 146.83 81.0489 143.595C82.3543 140.359 83.566 131.778 83.8345 127.237C84.1031 122.696 85.4522 118.699 86.1268 116.675C86.8013 114.652 87.3384 112.903 87.7881 112.765C88.9124 113.034 89.6244 129.798 89.7806 136.512C89.9367 143.233 87.0137 159.122 86.9325 168.928C86.8513 178.734 88.9873 188.771 89.9367 194.386C90.8861 200.001 91.3608 208.139 91.3608 212.493C91.3608 216.846 89.462 220.637 90.0179 227.832C90.5738 235.028 94.8397 246.489 95.9452 251.948C97.0507 257.4 98.8683 264.677 98.556 266.413C98.2374 268.149 93.1034 271.947 93.0222 273.527C92.941 275.107 96.5823 275.188 98.2374 275.582C99.8988 275.975 105.114 278.193 106.22 276.138C107.325 274.083 106.538 271.079 106.22 269.573C105.901 268.074 104.877 251.941 104.877 247.675C104.877 243.41 105.826 232.417 105.826 228.938C105.826 225.459 103.615 215.578 104.165 211.862C104.721 208.146 105.982 207.671 106.301 203.798C106.619 199.926 108.512 165.849 109.461 164.587C110.411 165.855 112.309 199.926 112.622 203.798C112.94 207.671 114.202 208.146 114.758 211.862C115.314 215.578 113.096 225.459 113.096 228.938C113.096 232.417 114.046 243.403 114.046 247.675C114.046 251.948 113.015 268.074 112.703 269.573C112.384 271.079 111.597 274.077 112.703 276.138C113.808 278.193 119.03 275.982 120.685 275.582C122.346 275.188 125.981 275.107 125.9 273.527C125.819 271.947 120.685 268.149 120.366 266.413C120.048 264.677 121.872 257.4 122.977 251.948C124.083 246.495 128.355 235.028 128.905 227.832C129.46 220.637 127.562 216.846 127.562 212.493C127.562 208.139 128.036 200.001 128.986 194.386C129.935 188.771 132.071 178.734 131.99 168.928C131.909 159.122 128.986 143.233 129.142 136.512C129.298 129.792 130.01 113.034 131.134 112.765C131.584 112.903 132.121 114.652 132.796 116.675C133.47 118.699 134.819 122.696 135.088 127.237C135.356 131.778 136.568 140.359 137.874 143.595C139.179 146.83 141.871 155.231 141.871 156.492C141.871 157.754 141.827 158.291 141.871 159.191C140.747 161.483 140.565 167.46 140.565 168.091C140.565 168.722 139.216 172.719 140.116 172.857C141.015 172.994 142.452 170.027 143.126 168.541C143.801 167.06 144.113 167.954 144.475 168.453C144.838 168.947 143.126 174.474 142.814 175.823C142.502 177.172 140.565 179.646 142.002 179.102C143.439 178.565 148.922 170.564 148.922 169.128C148.922 167.691 148.698 160.14 148.698 157.536H148.748Z" fill="url(#paint0_linear_413_2861)"/>
<g filter="url(#filter0_d_413_2861)">
<path d="M129.255 137C134.932 137.84 138.5 139.056 138.5 140.409C138.5 142.945 125.964 145 110.5 145C95.036 145 82.5 142.945 82.5 140.409C82.5 139.11 85.7928 137.936 91.0849 137.101" stroke="#00625B" stroke-width="0.571429" stroke-linecap="round"/>
</g>
<g filter="url(#filter1_d_413_2861)">
<path d="M131.934 147C138.422 147.945 142.5 149.313 142.5 150.835C142.5 153.688 128.173 156 110.5 156C92.8269 156 78.5 153.688 78.5 150.835C78.5 149.373 82.2632 148.053 88.3113 147.114" stroke="#00625B" stroke-width="0.591888" stroke-linecap="round"/>
</g>
<path d="M177.422 42L177.422 274" stroke="#00625B" stroke-linecap="round" stroke-dasharray="8 8"/>
<line x1="165.922" y1="41.5" x2="188.922" y2="41.5" stroke="#00625B" stroke-linecap="round"/>
<line x1="165.922" y1="274.5" x2="188.922" y2="274.5" stroke="#00625B" stroke-linecap="round"/>
<path d="M8.63228 134L6.24592 125.273H7.31978L9.14364 132.381H9.22887L11.0868 125.273H12.28L14.138 132.381H14.2232L16.0471 125.273H17.1209L14.7346 134H13.6436L11.7175 127.045H11.6493L9.72319 134H8.63228ZM19.6181 134.153C19.2033 134.153 18.8269 134.075 18.4888 133.919C18.1507 133.76 17.8823 133.531 17.6834 133.233C17.4846 132.932 17.3851 132.568 17.3851 132.142C17.3851 131.767 17.459 131.463 17.6067 131.23C17.7544 130.994 17.9519 130.81 18.199 130.676C18.4462 130.543 18.7189 130.443 19.0172 130.378C19.3184 130.31 19.6209 130.256 19.9249 130.216C20.3226 130.165 20.6451 130.126 20.8922 130.101C21.1422 130.072 21.324 130.026 21.4377 129.96C21.5542 129.895 21.6124 129.781 21.6124 129.619V129.585C21.6124 129.165 21.4973 128.838 21.2672 128.605C21.04 128.372 20.6948 128.256 20.2317 128.256C19.7516 128.256 19.3752 128.361 19.1025 128.571C18.8297 128.781 18.638 129.006 18.5272 129.244L17.5726 128.903C17.7431 128.506 17.9703 128.196 18.2544 127.974C18.5414 127.75 18.8539 127.594 19.1919 127.506C19.5328 127.415 19.8681 127.369 20.1976 127.369C20.4078 127.369 20.6493 127.395 20.9221 127.446C21.1976 127.494 21.4632 127.595 21.7189 127.749C21.9775 127.902 22.1919 128.134 22.3624 128.443C22.5328 128.753 22.6181 129.168 22.6181 129.688V134H21.6124V133.114H21.5613C21.4931 133.256 21.3794 133.408 21.2203 133.57C21.0613 133.732 20.8496 133.869 20.5854 133.983C20.3212 134.097 19.9988 134.153 19.6181 134.153ZM19.7715 133.25C20.1692 133.25 20.5044 133.172 20.7772 133.016C21.0527 132.859 21.2601 132.658 21.3993 132.411C21.5414 132.163 21.6124 131.903 21.6124 131.631V130.71C21.5698 130.761 21.476 130.808 21.3311 130.851C21.1891 130.891 21.0243 130.926 20.8368 130.957C20.6522 130.986 20.4718 131.011 20.2956 131.034C20.1223 131.054 19.9817 131.071 19.8738 131.085C19.6124 131.119 19.3681 131.175 19.1408 131.251C18.9164 131.325 18.7346 131.437 18.5953 131.588C18.459 131.736 18.3908 131.937 18.3908 132.193C18.3908 132.543 18.5201 132.807 18.7786 132.986C19.04 133.162 19.3709 133.25 19.7715 133.25ZM24.4537 134V127.455H25.4593V134H24.4537ZM24.965 126.364C24.769 126.364 24.6 126.297 24.4579 126.163C24.3187 126.03 24.2491 125.869 24.2491 125.682C24.2491 125.494 24.3187 125.334 24.4579 125.2C24.6 125.067 24.769 125 24.965 125C25.161 125 25.3287 125.067 25.4679 125.2C25.6099 125.334 25.6809 125.494 25.6809 125.682C25.6809 125.869 25.6099 126.03 25.4679 126.163C25.3287 126.297 25.161 126.364 24.965 126.364ZM31.9377 128.92L31.0343 129.176C30.9775 129.026 30.8936 128.879 30.7828 128.737C30.6749 128.592 30.5272 128.473 30.3397 128.379C30.1522 128.286 29.9121 128.239 29.6195 128.239C29.2189 128.239 28.8851 128.331 28.6181 128.516C28.3539 128.697 28.2218 128.929 28.2218 129.21C28.2218 129.46 28.3127 129.658 28.4945 129.803C28.6763 129.947 28.9604 130.068 29.3468 130.165L30.3184 130.403C30.9036 130.545 31.3397 130.763 31.6266 131.055C31.9135 131.345 32.057 131.719 32.057 132.176C32.057 132.551 31.949 132.886 31.7331 133.182C31.5201 133.477 31.2218 133.71 30.8382 133.881C30.4547 134.051 30.0087 134.136 29.5002 134.136C28.8326 134.136 28.28 133.991 27.8425 133.702C27.405 133.412 27.128 132.989 27.0115 132.432L27.9661 132.193C28.057 132.545 28.2289 132.81 28.4817 132.986C28.7374 133.162 29.0712 133.25 29.4831 133.25C29.9519 133.25 30.324 133.151 30.5996 132.952C30.878 132.75 31.0172 132.509 31.0172 132.227C31.0172 132 30.9377 131.81 30.7786 131.656C30.6195 131.5 30.3752 131.384 30.0456 131.307L28.9547 131.051C28.3553 130.909 27.915 130.689 27.6337 130.391C27.3553 130.089 27.2161 129.713 27.2161 129.261C27.2161 128.892 27.3198 128.565 27.5272 128.281C27.7374 127.997 28.0229 127.774 28.3837 127.612C28.7473 127.45 29.1593 127.369 29.6195 127.369C30.2672 127.369 30.7757 127.511 31.1451 127.795C31.5172 128.08 31.7814 128.455 31.9377 128.92ZM36.4174 127.455V128.307H33.0254V127.455H36.4174ZM34.014 125.886H35.0197V132.125C35.0197 132.409 35.0609 132.622 35.1433 132.764C35.2285 132.903 35.3365 132.997 35.4672 133.045C35.6007 133.091 35.7413 133.114 35.889 133.114C35.9998 133.114 36.0907 133.108 36.1618 133.097C36.2328 133.082 36.2896 133.071 36.3322 133.062L36.5368 133.966C36.4686 133.991 36.3734 134.017 36.2512 134.043C36.1291 134.071 35.9743 134.085 35.7868 134.085C35.5027 134.085 35.2243 134.024 34.9515 133.902C34.6816 133.78 34.4572 133.594 34.2782 133.344C34.1021 133.094 34.014 132.778 34.014 132.398V125.886Z" fill="#00625B"/>
<path d="M8.7729 158.119C8.15927 158.119 7.61381 158.014 7.13654 157.804C6.66211 157.594 6.28711 157.301 6.01154 156.926C5.73597 156.551 5.58967 156.118 5.57262 155.626H7.17489C7.1891 155.862 7.26722 156.068 7.40927 156.244C7.55131 156.418 7.74023 156.553 7.97603 156.649C8.21183 156.746 8.47603 156.794 8.76864 156.794C9.08114 156.794 9.35813 156.74 9.59961 156.632C9.84109 156.521 10.03 156.368 10.1664 156.172C10.3027 155.976 10.3695 155.75 10.3667 155.494C10.3695 155.23 10.3013 154.997 10.1621 154.795C10.0229 154.594 9.8212 154.436 9.557 154.322C9.29563 154.209 8.98029 154.152 8.61097 154.152H7.83967V152.933H8.61097C8.91495 152.933 9.18058 152.881 9.40785 152.776C9.63796 152.67 9.81836 152.523 9.94904 152.332C10.0797 152.139 10.1436 151.916 10.1408 151.663C10.1436 151.416 10.0882 151.202 9.97461 151.02C9.86381 150.835 9.70614 150.692 9.5016 150.589C9.29989 150.487 9.06268 150.436 8.78995 150.436C8.5229 150.436 8.27575 150.484 8.04847 150.581C7.8212 150.678 7.63796 150.815 7.49876 150.994C7.35955 151.17 7.28569 151.381 7.27717 151.625H5.75586C5.76722 151.136 5.90785 150.707 6.17773 150.338C6.45046 149.966 6.8141 149.676 7.26864 149.469C7.72319 149.259 8.23313 149.153 8.79847 149.153C9.38086 149.153 9.88654 149.263 10.3155 149.482C10.7473 149.697 11.0811 149.989 11.3169 150.355C11.5527 150.722 11.6706 151.126 11.6706 151.57C11.6735 152.061 11.5286 152.473 11.236 152.805C10.9462 153.138 10.5655 153.355 10.0939 153.457V153.526C10.7076 153.611 11.1777 153.838 11.5044 154.207C11.834 154.574 11.9973 155.03 11.9945 155.575C11.9945 156.064 11.8553 156.501 11.5769 156.888C11.3013 157.271 10.9206 157.572 10.4348 157.791C9.95188 158.01 9.3979 158.119 8.7729 158.119ZM13.4572 158V156.858L16.487 153.888C16.7768 153.595 17.0183 153.335 17.2115 153.108C17.4047 152.881 17.5495 152.661 17.6461 152.447C17.7427 152.234 17.791 152.007 17.791 151.766C17.791 151.49 17.7285 151.254 17.6035 151.058C17.4785 150.859 17.3066 150.706 17.0879 150.598C16.8691 150.49 16.6206 150.436 16.3422 150.436C16.0552 150.436 15.8038 150.496 15.5879 150.615C15.372 150.732 15.2044 150.898 15.085 151.114C14.9686 151.33 14.9103 151.587 14.9103 151.885H13.4061C13.4061 151.331 13.5325 150.849 13.7853 150.44C14.0382 150.031 14.3862 149.714 14.8294 149.49C15.2754 149.266 15.7868 149.153 16.3635 149.153C16.9487 149.153 17.4629 149.263 17.9061 149.482C18.3493 149.7 18.693 150 18.9373 150.381C19.1845 150.761 19.3081 151.196 19.3081 151.685C19.3081 152.011 19.2456 152.332 19.1206 152.648C18.9956 152.963 18.7754 153.312 18.46 153.696C18.1475 154.08 17.7086 154.544 17.1433 155.089L15.639 156.619V156.679H19.4402V158H13.4572Z" fill="#00625B"/>
<path d="M23.1136 157V152.636H23.7841V157H23.1136ZM23.4545 151.909C23.3239 151.909 23.2112 151.865 23.1165 151.776C23.0237 151.687 22.9773 151.58 22.9773 151.455C22.9773 151.33 23.0237 151.223 23.1165 151.134C23.2112 151.045 23.3239 151 23.4545 151C23.5852 151 23.697 151.045 23.7898 151.134C23.8845 151.223 23.9318 151.33 23.9318 151.455C23.9318 151.58 23.8845 151.687 23.7898 151.776C23.697 151.865 23.5852 151.909 23.4545 151.909ZM25.6825 154.375V157H25.0121V152.636H25.6598V153.318H25.7166C25.8189 153.097 25.9742 152.919 26.1825 152.784C26.3909 152.648 26.6598 152.58 26.9893 152.58C27.2848 152.58 27.5433 152.64 27.7649 152.761C27.9865 152.881 28.1589 153.062 28.282 153.307C28.4051 153.549 28.4666 153.856 28.4666 154.227V157H27.7962V154.273C27.7962 153.93 27.7071 153.663 27.5291 153.472C27.3511 153.278 27.1068 153.182 26.7962 153.182C26.5821 153.182 26.3909 153.228 26.2223 153.321C26.0556 153.414 25.924 153.549 25.8274 153.727C25.7308 153.905 25.6825 154.121 25.6825 154.375ZM31.4645 157.091C31.0554 157.091 30.7031 156.994 30.4077 156.801C30.1122 156.608 29.8849 156.342 29.7259 156.003C29.5668 155.664 29.4872 155.277 29.4872 154.841C29.4872 154.398 29.5687 154.007 29.7315 153.668C29.8963 153.327 30.1255 153.061 30.419 152.869C30.7145 152.676 31.0592 152.58 31.4531 152.58C31.7599 152.58 32.0365 152.636 32.2827 152.75C32.5289 152.864 32.7306 153.023 32.8878 153.227C33.045 153.432 33.1425 153.67 33.1804 153.943H32.5099C32.4588 153.744 32.3452 153.568 32.169 153.415C31.9948 153.259 31.7599 153.182 31.4645 153.182C31.2031 153.182 30.974 153.25 30.777 153.386C30.5819 153.521 30.4295 153.711 30.3196 153.957C30.2116 154.202 30.1577 154.489 30.1577 154.818C30.1577 155.155 30.2107 155.449 30.3168 155.699C30.4247 155.949 30.5762 156.143 30.7713 156.281C30.9683 156.42 31.1993 156.489 31.4645 156.489C31.6387 156.489 31.7969 156.458 31.9389 156.398C32.081 156.337 32.2012 156.25 32.2997 156.136C32.3982 156.023 32.4683 155.886 32.5099 155.727H33.1804C33.1425 155.985 33.0488 156.217 32.8991 156.423C32.7514 156.628 32.5554 156.791 32.3111 156.912C32.0687 157.031 31.7865 157.091 31.4645 157.091ZM34.831 154.375V157H34.1605V151.182H34.831V153.318H34.8878C34.9901 153.093 35.1435 152.914 35.348 152.781C35.5545 152.647 35.8291 152.58 36.1719 152.58C36.4692 152.58 36.7296 152.639 36.9531 152.759C37.1766 152.876 37.3499 153.057 37.473 153.301C37.598 153.544 37.6605 153.852 37.6605 154.227V157H36.9901V154.273C36.9901 153.926 36.9001 153.658 36.7202 153.469C36.5421 153.277 36.295 153.182 35.9787 153.182C35.759 153.182 35.562 153.228 35.3878 153.321C35.2154 153.414 35.0791 153.549 34.9787 153.727C34.8802 153.905 34.831 154.121 34.831 154.375Z" fill="#667085"/>
<path d="M13.0353 186V177.273H14.0922V181.159H18.7456V177.273H19.8024V186H18.7456V182.097H14.0922V186H13.0353ZM21.7818 186V179.455H22.7875V186H21.7818ZM22.2931 178.364C22.0971 178.364 21.9281 178.297 21.786 178.163C21.6468 178.03 21.5772 177.869 21.5772 177.682C21.5772 177.494 21.6468 177.334 21.786 177.2C21.9281 177.067 22.0971 177 22.2931 177C22.4892 177 22.6568 177.067 22.796 177.2C22.938 177.334 23.0091 177.494 23.0091 177.682C23.0091 177.869 22.938 178.03 22.796 178.163C22.6568 178.297 22.4892 178.364 22.2931 178.364ZM24.6294 188.455V179.455H25.601V180.494H25.7203C25.7942 180.381 25.8965 180.236 26.0272 180.06C26.1607 179.881 26.351 179.722 26.5982 179.582C26.8482 179.44 27.1863 179.369 27.6124 179.369C28.1635 179.369 28.6493 179.507 29.0698 179.783C29.4902 180.058 29.8184 180.449 30.0542 180.955C30.29 181.46 30.4078 182.057 30.4078 182.744C30.4078 183.438 30.29 184.038 30.0542 184.547C29.8184 185.053 29.4917 185.445 29.074 185.723C28.6564 185.999 28.1749 186.136 27.6294 186.136C27.209 186.136 26.8723 186.067 26.6195 185.928C26.3667 185.786 26.1721 185.625 26.0357 185.446C25.8993 185.264 25.7942 185.114 25.7203 184.994H25.6351V188.455H24.6294ZM25.6181 182.727C25.6181 183.222 25.6905 183.658 25.8354 184.036C25.9803 184.411 26.1919 184.705 26.4703 184.918C26.7488 185.128 27.0897 185.233 27.4931 185.233C27.9135 185.233 28.2644 185.122 28.5456 184.901C28.8297 184.676 29.0428 184.375 29.1848 183.997C29.3297 183.616 29.4022 183.193 29.4022 182.727C29.4022 182.267 29.3311 181.852 29.1891 181.483C29.0499 181.111 28.8382 180.817 28.5542 180.601C28.2729 180.382 27.9192 180.273 27.4931 180.273C27.084 180.273 26.7402 180.376 26.4618 180.584C26.1834 180.788 25.9732 181.075 25.8311 181.445C25.6891 181.811 25.6181 182.239 25.6181 182.727Z" fill="#00625B"/>
<path d="M5.11985 208.381V207.124L8.82298 201.273H9.87127V203.062H9.23207L6.73917 207.013V207.081H11.9082V208.381H5.11985ZM9.2832 210V207.997L9.30025 207.435V201.273H10.7917V210H9.2832ZM16.4956 210.166C15.7939 210.166 15.1916 209.989 14.6887 209.634C14.1887 209.276 13.8038 208.76 13.5339 208.087C13.2669 207.411 13.1333 206.597 13.1333 205.645C13.1362 204.693 13.2711 203.884 13.5382 203.216C13.8081 202.545 14.193 202.034 14.693 201.682C15.1958 201.33 15.7967 201.153 16.4956 201.153C17.1944 201.153 17.7953 201.33 18.2981 201.682C18.801 202.034 19.1859 202.545 19.4529 203.216C19.7228 203.886 19.8578 204.696 19.8578 205.645C19.8578 206.599 19.7228 207.415 19.4529 208.091C19.1859 208.764 18.801 209.278 18.2981 209.634C17.7981 209.989 17.1973 210.166 16.4956 210.166ZM16.4956 208.832C17.041 208.832 17.4714 208.564 17.7868 208.027C18.1049 207.487 18.264 206.693 18.264 205.645C18.264 204.952 18.1916 204.369 18.0467 203.898C17.9018 203.426 17.6973 203.071 17.4331 202.832C17.1689 202.591 16.8564 202.47 16.4956 202.47C15.9529 202.47 15.524 202.74 15.2086 203.28C14.8933 203.817 14.7342 204.605 14.7314 205.645C14.7285 206.341 14.7981 206.926 14.9402 207.401C15.085 207.875 15.2896 208.233 15.5538 208.474C15.818 208.713 16.1319 208.832 16.4956 208.832Z" fill="#00625B"/>
<path d="M23.1136 209V204.636H23.7841V209H23.1136ZM23.4545 203.909C23.3239 203.909 23.2112 203.865 23.1165 203.776C23.0237 203.687 22.9773 203.58 22.9773 203.455C22.9773 203.33 23.0237 203.223 23.1165 203.134C23.2112 203.045 23.3239 203 23.4545 203C23.5852 203 23.697 203.045 23.7898 203.134C23.8845 203.223 23.9318 203.33 23.9318 203.455C23.9318 203.58 23.8845 203.687 23.7898 203.776C23.697 203.865 23.5852 203.909 23.4545 203.909ZM25.6825 206.375V209H25.0121V204.636H25.6598V205.318H25.7166C25.8189 205.097 25.9742 204.919 26.1825 204.784C26.3909 204.648 26.6598 204.58 26.9893 204.58C27.2848 204.58 27.5433 204.64 27.7649 204.761C27.9865 204.881 28.1589 205.062 28.282 205.307C28.4051 205.549 28.4666 205.856 28.4666 206.227V209H27.7962V206.273C27.7962 205.93 27.7071 205.663 27.5291 205.472C27.3511 205.278 27.1068 205.182 26.7962 205.182C26.5821 205.182 26.3909 205.228 26.2223 205.321C26.0556 205.414 25.924 205.549 25.8274 205.727C25.7308 205.905 25.6825 206.121 25.6825 206.375ZM31.4645 209.091C31.0554 209.091 30.7031 208.994 30.4077 208.801C30.1122 208.608 29.8849 208.342 29.7259 208.003C29.5668 207.664 29.4872 207.277 29.4872 206.841C29.4872 206.398 29.5687 206.007 29.7315 205.668C29.8963 205.327 30.1255 205.061 30.419 204.869C30.7145 204.676 31.0592 204.58 31.4531 204.58C31.7599 204.58 32.0365 204.636 32.2827 204.75C32.5289 204.864 32.7306 205.023 32.8878 205.227C33.045 205.432 33.1425 205.67 33.1804 205.943H32.5099C32.4588 205.744 32.3452 205.568 32.169 205.415C31.9948 205.259 31.7599 205.182 31.4645 205.182C31.2031 205.182 30.974 205.25 30.777 205.386C30.5819 205.521 30.4295 205.711 30.3196 205.957C30.2116 206.202 30.1577 206.489 30.1577 206.818C30.1577 207.155 30.2107 207.449 30.3168 207.699C30.4247 207.949 30.5762 208.143 30.7713 208.281C30.9683 208.42 31.1993 208.489 31.4645 208.489C31.6387 208.489 31.7969 208.458 31.9389 208.398C32.081 208.337 32.2012 208.25 32.2997 208.136C32.3982 208.023 32.4683 207.886 32.5099 207.727H33.1804C33.1425 207.985 33.0488 208.217 32.8991 208.423C32.7514 208.628 32.5554 208.791 32.3111 208.912C32.0687 209.031 31.7865 209.091 31.4645 209.091ZM34.831 206.375V209H34.1605V203.182H34.831V205.318H34.8878C34.9901 205.093 35.1435 204.914 35.348 204.781C35.5545 204.647 35.8291 204.58 36.1719 204.58C36.4692 204.58 36.7296 204.639 36.9531 204.759C37.1766 204.876 37.3499 205.057 37.473 205.301C37.598 205.544 37.6605 205.852 37.6605 206.227V209H36.9901V206.273C36.9901 205.926 36.9001 205.658 36.7202 205.469C36.5421 205.277 36.295 205.182 35.9787 205.182C35.759 205.182 35.562 205.228 35.3878 205.321C35.2154 205.414 35.0791 205.549 34.9787 205.727C34.8802 205.905 34.831 206.121 34.831 206.375Z" fill="#667085"/>
<path d="M94.3185 14V5.27273H95.3754V9.15909H100.029V5.27273H101.086V14H100.029V10.0966H95.3754V14H94.3185ZM105.809 14.1364C105.179 14.1364 104.635 13.9972 104.177 13.7188C103.723 13.4375 103.372 13.0455 103.125 12.5426C102.88 12.0369 102.758 11.4489 102.758 10.7784C102.758 10.108 102.88 9.51705 103.125 9.00568C103.372 8.49148 103.716 8.09091 104.156 7.80398C104.599 7.5142 105.116 7.36932 105.707 7.36932C106.048 7.36932 106.385 7.42614 106.717 7.53977C107.049 7.65341 107.352 7.83807 107.625 8.09375C107.897 8.34659 108.115 8.68182 108.277 9.09943C108.439 9.51705 108.52 10.0312 108.52 10.642V11.0682H103.474V10.1989H107.497C107.497 9.82955 107.423 9.5 107.275 9.21023C107.13 8.92045 106.923 8.69176 106.653 8.52415C106.386 8.35653 106.071 8.27273 105.707 8.27273C105.306 8.27273 104.96 8.37216 104.667 8.57102C104.377 8.76705 104.154 9.02273 103.998 9.33807C103.842 9.65341 103.764 9.99148 103.764 10.3523V10.9318C103.764 11.4261 103.849 11.8452 104.02 12.1889C104.193 12.5298 104.433 12.7898 104.74 12.9688C105.047 13.1449 105.403 13.233 105.809 13.233C106.074 13.233 106.312 13.196 106.525 13.1222C106.741 13.0455 106.927 12.9318 107.083 12.7812C107.24 12.6278 107.36 12.4375 107.446 12.2102L108.417 12.483C108.315 12.8125 108.143 13.1023 107.902 13.3523C107.66 13.5994 107.362 13.7926 107.007 13.9318C106.652 14.0682 106.252 14.1364 105.809 14.1364ZM110.049 14V7.45455H111.055V14H110.049ZM110.561 6.36364C110.365 6.36364 110.196 6.29688 110.054 6.16335C109.914 6.02983 109.845 5.86932 109.845 5.68182C109.845 5.49432 109.914 5.33381 110.054 5.20028C110.196 5.06676 110.365 5 110.561 5C110.757 5 110.924 5.06676 111.064 5.20028C111.206 5.33381 111.277 5.49432 111.277 5.68182C111.277 5.86932 111.206 6.02983 111.064 6.16335C110.924 6.29688 110.757 6.36364 110.561 6.36364ZM115.539 16.5909C115.053 16.5909 114.636 16.5284 114.286 16.4034C113.937 16.2812 113.646 16.1193 113.413 15.9176C113.183 15.7188 112.999 15.5057 112.863 15.2784L113.664 14.7159C113.755 14.8352 113.87 14.9716 114.009 15.125C114.148 15.2812 114.339 15.4162 114.58 15.5298C114.825 15.6463 115.144 15.7045 115.539 15.7045C116.067 15.7045 116.504 15.5767 116.847 15.321C117.191 15.0653 117.363 14.6648 117.363 14.1193V12.7898H117.278C117.204 12.9091 117.099 13.0568 116.962 13.233C116.829 13.4062 116.636 13.5611 116.383 13.6974C116.133 13.831 115.795 13.8977 115.369 13.8977C114.84 13.8977 114.366 13.7727 113.945 13.5227C113.528 13.2727 113.197 12.9091 112.952 12.4318C112.711 11.9545 112.59 11.375 112.59 10.6932C112.59 10.0227 112.708 9.43892 112.944 8.94176C113.18 8.44176 113.508 8.0554 113.928 7.78267C114.349 7.5071 114.835 7.36932 115.386 7.36932C115.812 7.36932 116.15 7.44034 116.4 7.58239C116.653 7.72159 116.846 7.88068 116.979 8.05966C117.116 8.2358 117.221 8.38068 117.295 8.49432H117.397V7.45455H118.369V14.1875C118.369 14.75 118.241 15.2074 117.985 15.5597C117.732 15.9148 117.391 16.1747 116.962 16.3395C116.536 16.5071 116.062 16.5909 115.539 16.5909ZM115.505 12.9943C115.908 12.9943 116.249 12.902 116.528 12.7173C116.806 12.5327 117.018 12.267 117.163 11.9205C117.308 11.5739 117.38 11.1591 117.38 10.6761C117.38 10.2045 117.309 9.78835 117.167 9.42756C117.025 9.06676 116.815 8.78409 116.536 8.57955C116.258 8.375 115.914 8.27273 115.505 8.27273C115.079 8.27273 114.724 8.38068 114.44 8.59659C114.158 8.8125 113.947 9.10227 113.805 9.46591C113.665 9.82955 113.596 10.233 113.596 10.6761C113.596 11.1307 113.667 11.5327 113.809 11.8821C113.954 12.2287 114.167 12.5014 114.448 12.7003C114.732 12.8963 115.085 12.9943 115.505 12.9943ZM121.215 10.0625V14H120.21V5.27273H121.215V8.47727H121.3C121.454 8.1392 121.684 7.87074 121.991 7.67188C122.3 7.47017 122.712 7.36932 123.227 7.36932C123.673 7.36932 124.063 7.45881 124.398 7.63778C124.734 7.81392 124.994 8.08523 125.178 8.4517C125.366 8.81534 125.46 9.27841 125.46 9.84091V14H124.454V9.90909C124.454 9.3892 124.319 8.98722 124.049 8.70312C123.782 8.41619 123.411 8.27273 122.937 8.27273C122.607 8.27273 122.312 8.34233 122.05 8.48153C121.792 8.62074 121.587 8.82386 121.437 9.09091C121.289 9.35795 121.215 9.68182 121.215 10.0625ZM130.146 7.45455V8.30682H126.754V7.45455H130.146ZM127.743 5.88636H128.748V12.125C128.748 12.4091 128.789 12.6222 128.872 12.7642C128.957 12.9034 129.065 12.9972 129.196 13.0455C129.329 13.0909 129.47 13.1136 129.618 13.1136C129.728 13.1136 129.819 13.108 129.89 13.0966C129.961 13.0824 130.018 13.071 130.061 13.0625L130.265 13.9659C130.197 13.9915 130.102 14.017 129.98 14.0426C129.858 14.071 129.703 14.0852 129.515 14.0852C129.231 14.0852 128.953 14.0241 128.68 13.902C128.41 13.7798 128.186 13.5938 128.007 13.3438C127.831 13.0938 127.743 12.7784 127.743 12.3977V5.88636Z" fill="#00625B"/>
<path d="M97.255 29.2727V38H95.674V30.8111H95.6229L93.5817 32.1151V30.6662L95.7507 29.2727H97.255ZM102.667 38.1193C102.249 38.1165 101.842 38.044 101.444 37.902C101.046 37.7571 100.688 37.5227 100.37 37.1989C100.052 36.8722 99.799 36.4389 99.6115 35.8991C99.424 35.3565 99.3317 34.6847 99.3345 33.8835C99.3345 33.1364 99.4141 32.4702 99.5732 31.8849C99.7322 31.2997 99.9609 30.8054 100.259 30.402C100.558 29.9957 100.917 29.6861 101.337 29.473C101.761 29.2599 102.234 29.1534 102.756 29.1534C103.305 29.1534 103.79 29.2614 104.214 29.4773C104.64 29.6932 104.984 29.9886 105.245 30.3636C105.506 30.7358 105.668 31.1562 105.731 31.625H104.175C104.096 31.2898 103.933 31.0227 103.685 30.8239C103.441 30.6222 103.131 30.5213 102.756 30.5213C102.151 30.5213 101.685 30.7841 101.359 31.3097C101.035 31.8352 100.871 32.5568 100.869 33.4744H100.928C101.067 33.2244 101.248 33.0099 101.469 32.831C101.691 32.652 101.941 32.5142 102.219 32.4176C102.501 32.3182 102.798 32.2685 103.11 32.2685C103.621 32.2685 104.08 32.3906 104.487 32.6349C104.896 32.8793 105.219 33.2159 105.458 33.6449C105.697 34.071 105.815 34.5597 105.812 35.1108C105.815 35.6847 105.684 36.2003 105.42 36.6577C105.156 37.1122 104.788 37.4702 104.316 37.7315C103.844 37.9929 103.295 38.1222 102.667 38.1193ZM102.658 36.8409C102.968 36.8409 103.245 36.7656 103.489 36.6151C103.734 36.4645 103.927 36.2614 104.069 36.0057C104.211 35.75 104.281 35.4631 104.278 35.1449C104.281 34.8324 104.212 34.5497 104.073 34.2969C103.937 34.044 103.748 33.8437 103.506 33.696C103.265 33.5483 102.989 33.4744 102.68 33.4744C102.45 33.4744 102.235 33.5185 102.036 33.6065C101.837 33.6946 101.664 33.8168 101.516 33.973C101.369 34.1264 101.252 34.3054 101.167 34.5099C101.085 34.7116 101.042 34.9276 101.039 35.1577C101.042 35.4616 101.113 35.7415 101.252 35.9972C101.391 36.2528 101.583 36.4574 101.827 36.6108C102.072 36.7642 102.349 36.8409 102.658 36.8409ZM110.286 38.1193C109.718 38.1193 109.21 38.0128 108.761 37.7997C108.312 37.5838 107.955 37.2884 107.691 36.9134C107.43 36.5384 107.29 36.1094 107.273 35.6264H108.808C108.836 35.9844 108.991 36.277 109.272 36.5043C109.553 36.7287 109.891 36.8409 110.286 36.8409C110.596 36.8409 110.871 36.7699 111.113 36.6278C111.354 36.4858 111.545 36.2884 111.684 36.0355C111.823 35.7827 111.891 35.4943 111.888 35.1705C111.891 34.8409 111.822 34.5483 111.68 34.2926C111.538 34.0369 111.343 33.8366 111.096 33.6918C110.849 33.544 110.565 33.4702 110.244 33.4702C109.982 33.4673 109.725 33.5156 109.472 33.6151C109.219 33.7145 109.019 33.8452 108.871 34.0071L107.444 33.7727L107.9 29.2727H112.962V30.5938H109.208L108.957 32.9077H109.008C109.17 32.7173 109.398 32.5597 109.694 32.4347C109.989 32.3068 110.313 32.2429 110.665 32.2429C111.194 32.2429 111.665 32.3679 112.08 32.6179C112.495 32.8651 112.822 33.206 113.06 33.6406C113.299 34.0753 113.418 34.5724 113.418 35.1321C113.418 35.7088 113.285 36.223 113.018 36.6747C112.754 37.1236 112.386 37.4773 111.914 37.7358C111.445 37.9915 110.903 38.1193 110.286 38.1193Z" fill="#00625B"/>
<path d="M119.057 32.6364V33.2045H116.705V32.6364H119.057ZM117.409 37V32.0341C117.409 31.7841 117.468 31.5758 117.585 31.4091C117.703 31.2424 117.855 31.1174 118.043 31.0341C118.23 30.9508 118.428 30.9091 118.636 30.9091C118.801 30.9091 118.936 30.9223 119.04 30.9489C119.144 30.9754 119.222 31 119.273 31.0227L119.08 31.6023C119.045 31.5909 118.998 31.5767 118.938 31.5597C118.879 31.5426 118.801 31.5341 118.705 31.5341C118.483 31.5341 118.323 31.59 118.224 31.7017C118.128 31.8134 118.08 31.9773 118.08 32.1932V37H117.409ZM121.646 37.0909C121.226 37.0909 120.863 36.9981 120.558 36.8125C120.255 36.625 120.021 36.3636 119.857 36.0284C119.694 35.6913 119.612 35.2992 119.612 34.8523C119.612 34.4053 119.694 34.0114 119.857 33.6705C120.021 33.3277 120.25 33.0606 120.544 32.8693C120.839 32.6761 121.184 32.5795 121.578 32.5795C121.805 32.5795 122.03 32.6174 122.251 32.6932C122.473 32.7689 122.675 32.892 122.857 33.0625C123.038 33.2311 123.183 33.4545 123.291 33.733C123.399 34.0114 123.453 34.3542 123.453 34.7614V35.0455H120.089V34.4659H122.771C122.771 34.2197 122.722 34 122.624 33.8068C122.527 33.6136 122.389 33.4612 122.209 33.3494C122.031 33.2377 121.821 33.1818 121.578 33.1818C121.311 33.1818 121.08 33.2481 120.885 33.3807C120.692 33.5114 120.543 33.6818 120.439 33.892C120.335 34.1023 120.283 34.3277 120.283 34.5682V34.9545C120.283 35.2841 120.339 35.5634 120.453 35.7926C120.569 36.0199 120.729 36.1932 120.933 36.3125C121.138 36.4299 121.375 36.4886 121.646 36.4886C121.822 36.4886 121.982 36.464 122.124 36.4148C122.268 36.3636 122.392 36.2879 122.496 36.1875C122.6 36.0852 122.68 35.9583 122.737 35.8068L123.385 35.9886C123.317 36.2083 123.202 36.4015 123.041 36.5682C122.88 36.733 122.681 36.8617 122.445 36.9545C122.208 37.0455 121.942 37.0909 121.646 37.0909ZM126.303 37.0909C125.882 37.0909 125.519 36.9981 125.214 36.8125C124.911 36.625 124.678 36.3636 124.513 36.0284C124.35 35.6913 124.268 35.2992 124.268 34.8523C124.268 34.4053 124.35 34.0114 124.513 33.6705C124.678 33.3277 124.907 33.0606 125.2 32.8693C125.496 32.6761 125.84 32.5795 126.234 32.5795C126.462 32.5795 126.686 32.6174 126.908 32.6932C127.129 32.7689 127.331 32.892 127.513 33.0625C127.695 33.2311 127.839 33.4545 127.947 33.733C128.055 34.0114 128.109 34.3542 128.109 34.7614V35.0455H124.746V34.4659H127.428C127.428 34.2197 127.378 34 127.28 33.8068C127.183 33.6136 127.045 33.4612 126.865 33.3494C126.687 33.2377 126.477 33.1818 126.234 33.1818C125.967 33.1818 125.736 33.2481 125.541 33.3807C125.348 33.5114 125.199 33.6818 125.095 33.892C124.991 34.1023 124.939 34.3277 124.939 34.5682V34.9545C124.939 35.2841 124.996 35.5634 125.109 35.7926C125.225 36.0199 125.385 36.1932 125.589 36.3125C125.794 36.4299 126.032 36.4886 126.303 36.4886C126.479 36.4886 126.638 36.464 126.78 36.4148C126.924 36.3636 127.048 36.2879 127.152 36.1875C127.256 36.0852 127.337 35.9583 127.393 35.8068L128.041 35.9886C127.973 36.2083 127.858 36.4015 127.697 36.5682C127.536 36.733 127.338 36.8617 127.101 36.9545C126.864 37.0455 126.598 37.0909 126.303 37.0909ZM131.027 32.6364V33.2045H128.766V32.6364H131.027ZM129.425 31.5909H130.095V35.75C130.095 35.9394 130.123 36.0814 130.178 36.1761C130.234 36.2689 130.306 36.3314 130.393 36.3636C130.482 36.3939 130.576 36.4091 130.675 36.4091C130.749 36.4091 130.809 36.4053 130.857 36.3977C130.904 36.3883 130.942 36.3807 130.97 36.375L131.107 36.9773C131.061 36.9943 130.998 37.0114 130.916 37.0284C130.835 37.0473 130.732 37.0568 130.607 37.0568C130.417 37.0568 130.232 37.0161 130.05 36.9347C129.87 36.8532 129.72 36.7292 129.601 36.5625C129.483 36.3958 129.425 36.1856 129.425 35.9318V31.5909Z" fill="#667085"/>
<path d="M94.4545 296L92.0682 287.273H93.142L94.9659 294.381H95.0511L96.9091 287.273H98.1023L99.9602 294.381H100.045L101.869 287.273H102.943L100.557 296H99.4659L97.5398 289.045H97.4716L95.5455 296H94.4545ZM106.259 296.136C105.628 296.136 105.084 295.997 104.626 295.719C104.172 295.438 103.821 295.045 103.574 294.543C103.33 294.037 103.207 293.449 103.207 292.778C103.207 292.108 103.33 291.517 103.574 291.006C103.821 290.491 104.165 290.091 104.605 289.804C105.048 289.514 105.565 289.369 106.156 289.369C106.497 289.369 106.834 289.426 107.166 289.54C107.499 289.653 107.801 289.838 108.074 290.094C108.347 290.347 108.564 290.682 108.726 291.099C108.888 291.517 108.969 292.031 108.969 292.642V293.068H103.923V292.199H107.946C107.946 291.83 107.872 291.5 107.724 291.21C107.58 290.92 107.372 290.692 107.102 290.524C106.835 290.357 106.52 290.273 106.156 290.273C105.756 290.273 105.409 290.372 105.116 290.571C104.827 290.767 104.604 291.023 104.447 291.338C104.291 291.653 104.213 291.991 104.213 292.352V292.932C104.213 293.426 104.298 293.845 104.469 294.189C104.642 294.53 104.882 294.79 105.189 294.969C105.496 295.145 105.852 295.233 106.259 295.233C106.523 295.233 106.761 295.196 106.974 295.122C107.19 295.045 107.376 294.932 107.533 294.781C107.689 294.628 107.81 294.437 107.895 294.21L108.866 294.483C108.764 294.812 108.592 295.102 108.351 295.352C108.109 295.599 107.811 295.793 107.456 295.932C107.101 296.068 106.702 296.136 106.259 296.136ZM110.499 296V289.455H111.504V296H110.499ZM111.01 288.364C110.814 288.364 110.645 288.297 110.503 288.163C110.364 288.03 110.294 287.869 110.294 287.682C110.294 287.494 110.364 287.334 110.503 287.2C110.645 287.067 110.814 287 111.01 287C111.206 287 111.374 287.067 111.513 287.2C111.655 287.334 111.726 287.494 111.726 287.682C111.726 287.869 111.655 288.03 111.513 288.163C111.374 288.297 111.206 288.364 111.01 288.364ZM115.988 298.591C115.502 298.591 115.085 298.528 114.735 298.403C114.386 298.281 114.095 298.119 113.862 297.918C113.632 297.719 113.449 297.506 113.312 297.278L114.113 296.716C114.204 296.835 114.319 296.972 114.458 297.125C114.598 297.281 114.788 297.416 115.029 297.53C115.274 297.646 115.593 297.705 115.988 297.705C116.517 297.705 116.953 297.577 117.297 297.321C117.64 297.065 117.812 296.665 117.812 296.119V294.79H117.727C117.653 294.909 117.548 295.057 117.412 295.233C117.278 295.406 117.085 295.561 116.832 295.697C116.582 295.831 116.244 295.898 115.818 295.898C115.289 295.898 114.815 295.773 114.395 295.523C113.977 295.273 113.646 294.909 113.402 294.432C113.16 293.955 113.039 293.375 113.039 292.693C113.039 292.023 113.157 291.439 113.393 290.942C113.629 290.442 113.957 290.055 114.377 289.783C114.798 289.507 115.284 289.369 115.835 289.369C116.261 289.369 116.599 289.44 116.849 289.582C117.102 289.722 117.295 289.881 117.429 290.06C117.565 290.236 117.67 290.381 117.744 290.494H117.846V289.455H118.818V296.188C118.818 296.75 118.69 297.207 118.434 297.56C118.181 297.915 117.841 298.175 117.412 298.339C116.985 298.507 116.511 298.591 115.988 298.591ZM115.954 294.994C116.358 294.994 116.699 294.902 116.977 294.717C117.255 294.533 117.467 294.267 117.612 293.92C117.757 293.574 117.829 293.159 117.829 292.676C117.829 292.205 117.758 291.788 117.616 291.428C117.474 291.067 117.264 290.784 116.985 290.58C116.707 290.375 116.363 290.273 115.954 290.273C115.528 290.273 115.173 290.381 114.889 290.597C114.608 290.812 114.396 291.102 114.254 291.466C114.115 291.83 114.045 292.233 114.045 292.676C114.045 293.131 114.116 293.533 114.258 293.882C114.403 294.229 114.616 294.501 114.897 294.7C115.181 294.896 115.534 294.994 115.954 294.994ZM121.664 292.062V296H120.659V287.273H121.664V290.477H121.75C121.903 290.139 122.133 289.871 122.44 289.672C122.75 289.47 123.162 289.369 123.676 289.369C124.122 289.369 124.512 289.459 124.848 289.638C125.183 289.814 125.443 290.085 125.627 290.452C125.815 290.815 125.909 291.278 125.909 291.841V296H124.903V291.909C124.903 291.389 124.768 290.987 124.498 290.703C124.231 290.416 123.86 290.273 123.386 290.273C123.056 290.273 122.761 290.342 122.5 290.482C122.241 290.621 122.037 290.824 121.886 291.091C121.738 291.358 121.664 291.682 121.664 292.062ZM130.595 289.455V290.307H127.203V289.455H130.595ZM128.192 287.886H129.197V294.125C129.197 294.409 129.239 294.622 129.321 294.764C129.406 294.903 129.514 294.997 129.645 295.045C129.778 295.091 129.919 295.114 130.067 295.114C130.178 295.114 130.268 295.108 130.339 295.097C130.411 295.082 130.467 295.071 130.51 295.062L130.714 295.966C130.646 295.991 130.551 296.017 130.429 296.043C130.307 296.071 130.152 296.085 129.964 296.085C129.68 296.085 129.402 296.024 129.129 295.902C128.859 295.78 128.635 295.594 128.456 295.344C128.28 295.094 128.192 294.778 128.192 294.398V287.886Z" fill="#00625B"/>
<path d="M92.8485 320.119C92.4309 320.116 92.0233 320.044 91.6255 319.902C91.2278 319.757 90.8699 319.523 90.5517 319.199C90.2335 318.872 89.9806 318.439 89.7931 317.899C89.6056 317.357 89.5133 316.685 89.5162 315.884C89.5162 315.136 89.5957 314.47 89.7548 313.885C89.9139 313.3 90.1426 312.805 90.4409 312.402C90.7392 311.996 91.0985 311.686 91.519 311.473C91.9423 311.26 92.4153 311.153 92.938 311.153C93.4863 311.153 93.9721 311.261 94.3954 311.477C94.8216 311.693 95.1653 311.989 95.4267 312.364C95.688 312.736 95.85 313.156 95.9125 313.625H94.3571C94.2775 313.29 94.1142 313.023 93.867 312.824C93.6227 312.622 93.313 312.521 92.938 312.521C92.3329 312.521 91.867 312.784 91.5403 313.31C91.2164 313.835 91.0531 314.557 91.0502 315.474H91.1099C91.2491 315.224 91.4295 315.01 91.6511 314.831C91.8727 314.652 92.1227 314.514 92.4011 314.418C92.6824 314.318 92.9792 314.268 93.2917 314.268C93.8031 314.268 94.2619 314.391 94.6681 314.635C95.0772 314.879 95.4011 315.216 95.6397 315.645C95.8784 316.071 95.9963 316.56 95.9934 317.111C95.9963 317.685 95.8656 318.2 95.6014 318.658C95.3372 319.112 94.9693 319.47 94.4977 319.732C94.0261 319.993 93.4764 320.122 92.8485 320.119ZM92.84 318.841C93.1497 318.841 93.4267 318.766 93.671 318.615C93.9153 318.464 94.1085 318.261 94.2505 318.006C94.3926 317.75 94.4622 317.463 94.4593 317.145C94.4622 316.832 94.394 316.55 94.2548 316.297C94.1184 316.044 93.9295 315.844 93.688 315.696C93.4466 315.548 93.171 315.474 92.8613 315.474C92.6312 315.474 92.4167 315.518 92.2179 315.607C92.019 315.695 91.8457 315.817 91.698 315.973C91.5502 316.126 91.4338 316.305 91.3485 316.51C91.2662 316.712 91.2235 316.928 91.2207 317.158C91.2235 317.462 91.2946 317.741 91.4338 317.997C91.573 318.253 91.7647 318.457 92.0091 318.611C92.2534 318.764 92.5304 318.841 92.84 318.841ZM97.2761 318.381V317.124L100.979 311.273H102.028V313.062H101.388L98.8954 317.013V317.081H104.064V318.381H97.2761ZM101.439 320V317.997L101.456 317.435V311.273H102.948V320H101.439ZM106.147 320.094C105.889 320.094 105.667 320.003 105.482 319.821C105.298 319.639 105.207 319.418 105.21 319.156C105.207 318.901 105.298 318.682 105.482 318.5C105.667 318.318 105.889 318.227 106.147 318.227C106.397 318.227 106.615 318.318 106.799 318.5C106.987 318.682 107.082 318.901 107.085 319.156C107.082 319.33 107.036 319.487 106.948 319.629C106.863 319.771 106.749 319.885 106.607 319.97C106.468 320.053 106.315 320.094 106.147 320.094ZM108.699 320L112.41 312.653V312.594H108.102V311.273H114.047V312.624L110.339 320H108.699ZM118.339 320.119C117.771 320.119 117.262 320.013 116.813 319.8C116.365 319.584 116.008 319.288 115.744 318.913C115.482 318.538 115.343 318.109 115.326 317.626H116.86C116.889 317.984 117.044 318.277 117.325 318.504C117.606 318.729 117.944 318.841 118.339 318.841C118.649 318.841 118.924 318.77 119.166 318.628C119.407 318.486 119.597 318.288 119.737 318.036C119.876 317.783 119.944 317.494 119.941 317.17C119.944 316.841 119.874 316.548 119.732 316.293C119.59 316.037 119.396 315.837 119.149 315.692C118.901 315.544 118.617 315.47 118.296 315.47C118.035 315.467 117.778 315.516 117.525 315.615C117.272 315.714 117.072 315.845 116.924 316.007L115.497 315.773L115.953 311.273H121.015V312.594H117.261L117.009 314.908H117.061C117.222 314.717 117.451 314.56 117.747 314.435C118.042 314.307 118.366 314.243 118.718 314.243C119.247 314.243 119.718 314.368 120.133 314.618C120.548 314.865 120.874 315.206 121.113 315.641C121.352 316.075 121.471 316.572 121.471 317.132C121.471 317.709 121.338 318.223 121.07 318.675C120.806 319.124 120.438 319.477 119.967 319.736C119.498 319.991 118.955 320.119 118.339 320.119Z" fill="#00625B"/>
<path d="M125.739 320.409L125.727 319.58H125.864L127.773 317.636H128.602L126.568 319.693H126.511L125.739 320.409ZM125.114 322V316.182H125.784V322H125.114ZM127.886 322L126.182 319.841L126.659 319.375L128.739 322H127.886ZM131.047 323.727C130.723 323.727 130.445 323.686 130.212 323.602C129.979 323.521 129.785 323.413 129.629 323.278C129.476 323.146 129.354 323.004 129.263 322.852L129.797 322.477C129.857 322.557 129.934 322.648 130.027 322.75C130.12 322.854 130.247 322.944 130.408 323.02C130.571 323.098 130.784 323.136 131.047 323.136C131.399 323.136 131.69 323.051 131.919 322.881C132.148 322.71 132.263 322.443 132.263 322.08V321.193H132.206C132.157 321.273 132.087 321.371 131.996 321.489C131.907 321.604 131.778 321.707 131.609 321.798C131.443 321.887 131.217 321.932 130.933 321.932C130.581 321.932 130.265 321.848 129.984 321.682C129.706 321.515 129.485 321.273 129.322 320.955C129.161 320.636 129.081 320.25 129.081 319.795C129.081 319.348 129.16 318.959 129.317 318.628C129.474 318.295 129.693 318.037 129.973 317.855C130.253 317.671 130.577 317.58 130.945 317.58C131.229 317.58 131.454 317.627 131.621 317.722C131.789 317.814 131.918 317.92 132.007 318.04C132.098 318.157 132.168 318.254 132.217 318.33H132.286V317.636H132.933V322.125C132.933 322.5 132.848 322.805 132.678 323.04C132.509 323.277 132.282 323.45 131.996 323.56C131.712 323.671 131.395 323.727 131.047 323.727ZM131.024 321.33C131.293 321.33 131.52 321.268 131.706 321.145C131.892 321.022 132.033 320.845 132.129 320.614C132.226 320.383 132.274 320.106 132.274 319.784C132.274 319.47 132.227 319.192 132.132 318.952C132.037 318.711 131.897 318.523 131.712 318.386C131.526 318.25 131.297 318.182 131.024 318.182C130.74 318.182 130.503 318.254 130.314 318.398C130.126 318.542 129.985 318.735 129.891 318.977C129.798 319.22 129.751 319.489 129.751 319.784C129.751 320.087 129.799 320.355 129.893 320.588C129.99 320.819 130.132 321.001 130.32 321.134C130.509 321.264 130.744 321.33 131.024 321.33Z" fill="#667085"/>
<path d="M218.72 145L216.334 136.273H217.408L219.232 143.381H219.317L221.175 136.273H222.368L224.226 143.381H224.311L226.135 136.273H227.209L224.822 145H223.732L221.805 138.045H221.737L219.811 145H218.72ZM229.706 145.153C229.291 145.153 228.915 145.075 228.577 144.919C228.239 144.76 227.97 144.531 227.771 144.233C227.572 143.932 227.473 143.568 227.473 143.142C227.473 142.767 227.547 142.463 227.695 142.23C227.842 141.994 228.04 141.81 228.287 141.676C228.534 141.543 228.807 141.443 229.105 141.378C229.406 141.31 229.709 141.256 230.013 141.216C230.411 141.165 230.733 141.126 230.98 141.101C231.23 141.072 231.412 141.026 231.526 140.96C231.642 140.895 231.7 140.781 231.7 140.619V140.585C231.7 140.165 231.585 139.838 231.355 139.605C231.128 139.372 230.783 139.256 230.32 139.256C229.839 139.256 229.463 139.361 229.19 139.571C228.918 139.781 228.726 140.006 228.615 140.244L227.661 139.903C227.831 139.506 228.058 139.196 228.342 138.974C228.629 138.75 228.942 138.594 229.28 138.506C229.621 138.415 229.956 138.369 230.286 138.369C230.496 138.369 230.737 138.395 231.01 138.446C231.286 138.494 231.551 138.595 231.807 138.749C232.065 138.902 232.28 139.134 232.45 139.443C232.621 139.753 232.706 140.168 232.706 140.688V145H231.7V144.114H231.649C231.581 144.256 231.467 144.408 231.308 144.57C231.149 144.732 230.938 144.869 230.673 144.983C230.409 145.097 230.087 145.153 229.706 145.153ZM229.859 144.25C230.257 144.25 230.592 144.172 230.865 144.016C231.141 143.859 231.348 143.658 231.487 143.411C231.629 143.163 231.7 142.903 231.7 142.631V141.71C231.658 141.761 231.564 141.808 231.419 141.851C231.277 141.891 231.112 141.926 230.925 141.957C230.74 141.986 230.56 142.011 230.384 142.034C230.21 142.054 230.07 142.071 229.962 142.085C229.7 142.119 229.456 142.175 229.229 142.251C229.004 142.325 228.822 142.437 228.683 142.588C228.547 142.736 228.479 142.937 228.479 143.193C228.479 143.543 228.608 143.807 228.866 143.986C229.128 144.162 229.459 144.25 229.859 144.25ZM234.542 145V138.455H235.547V145H234.542ZM235.053 137.364C234.857 137.364 234.688 137.297 234.546 137.163C234.407 137.03 234.337 136.869 234.337 136.682C234.337 136.494 234.407 136.334 234.546 136.2C234.688 136.067 234.857 136 235.053 136C235.249 136 235.417 136.067 235.556 136.2C235.698 136.334 235.769 136.494 235.769 136.682C235.769 136.869 235.698 137.03 235.556 137.163C235.417 137.297 235.249 137.364 235.053 137.364ZM242.026 139.92L241.122 140.176C241.065 140.026 240.982 139.879 240.871 139.737C240.763 139.592 240.615 139.473 240.428 139.379C240.24 139.286 240 139.239 239.707 139.239C239.307 139.239 238.973 139.331 238.706 139.516C238.442 139.697 238.31 139.929 238.31 140.21C238.31 140.46 238.401 140.658 238.582 140.803C238.764 140.947 239.048 141.068 239.435 141.165L240.406 141.403C240.991 141.545 241.428 141.763 241.714 142.055C242.001 142.345 242.145 142.719 242.145 143.176C242.145 143.551 242.037 143.886 241.821 144.182C241.608 144.477 241.31 144.71 240.926 144.881C240.543 145.051 240.097 145.136 239.588 145.136C238.92 145.136 238.368 144.991 237.93 144.702C237.493 144.412 237.216 143.989 237.099 143.432L238.054 143.193C238.145 143.545 238.317 143.81 238.57 143.986C238.825 144.162 239.159 144.25 239.571 144.25C240.04 144.25 240.412 144.151 240.688 143.952C240.966 143.75 241.105 143.509 241.105 143.227C241.105 143 241.026 142.81 240.866 142.656C240.707 142.5 240.463 142.384 240.134 142.307L239.043 142.051C238.443 141.909 238.003 141.689 237.722 141.391C237.443 141.089 237.304 140.713 237.304 140.261C237.304 139.892 237.408 139.565 237.615 139.281C237.825 138.997 238.111 138.774 238.472 138.612C238.835 138.45 239.247 138.369 239.707 138.369C240.355 138.369 240.864 138.511 241.233 138.795C241.605 139.08 241.869 139.455 242.026 139.92ZM246.505 138.455V139.307H243.113V138.455H246.505ZM244.102 136.886H245.108V143.125C245.108 143.409 245.149 143.622 245.231 143.764C245.316 143.903 245.424 143.997 245.555 144.045C245.689 144.091 245.829 144.114 245.977 144.114C246.088 144.114 246.179 144.108 246.25 144.097C246.321 144.082 246.377 144.071 246.42 144.062L246.625 144.966C246.556 144.991 246.461 145.017 246.339 145.043C246.217 145.071 246.062 145.085 245.875 145.085C245.591 145.085 245.312 145.024 245.039 144.902C244.77 144.78 244.545 144.594 244.366 144.344C244.19 144.094 244.102 143.778 244.102 143.398V136.886ZM254.24 138.455V139.307H250.848V138.455H254.24ZM251.836 136.886H252.842V143.125C252.842 143.409 252.883 143.622 252.966 143.764C253.051 143.903 253.159 143.997 253.289 144.045C253.423 144.091 253.564 144.114 253.711 144.114C253.822 144.114 253.913 144.108 253.984 144.097C254.055 144.082 254.112 144.071 254.154 144.062L254.359 144.966C254.291 144.991 254.196 145.017 254.074 145.043C253.951 145.071 253.797 145.085 253.609 145.085C253.325 145.085 253.047 145.024 252.774 144.902C252.504 144.78 252.279 144.594 252.1 144.344C251.924 144.094 251.836 143.778 251.836 143.398V136.886ZM258.341 145.136C257.75 145.136 257.232 144.996 256.786 144.714C256.343 144.433 255.996 144.04 255.746 143.534C255.499 143.028 255.375 142.437 255.375 141.761C255.375 141.08 255.499 140.484 255.746 139.976C255.996 139.467 256.343 139.072 256.786 138.791C257.232 138.51 257.75 138.369 258.341 138.369C258.932 138.369 259.449 138.51 259.892 138.791C260.338 139.072 260.685 139.467 260.932 139.976C261.182 140.484 261.307 141.08 261.307 141.761C261.307 142.437 261.182 143.028 260.932 143.534C260.685 144.04 260.338 144.433 259.892 144.714C259.449 144.996 258.932 145.136 258.341 145.136ZM258.341 144.233C258.79 144.233 259.159 144.118 259.449 143.888C259.739 143.658 259.953 143.355 260.093 142.98C260.232 142.605 260.301 142.199 260.301 141.761C260.301 141.324 260.232 140.916 260.093 140.538C259.953 140.161 259.739 139.855 259.449 139.622C259.159 139.389 258.79 139.273 258.341 139.273C257.892 139.273 257.523 139.389 257.233 139.622C256.944 139.855 256.729 140.161 256.59 140.538C256.451 140.916 256.381 141.324 256.381 141.761C256.381 142.199 256.451 142.605 256.59 142.98C256.729 143.355 256.944 143.658 257.233 143.888C257.523 144.118 257.892 144.233 258.341 144.233ZM214.445 159V150.273H215.502V154.159H220.156V150.273H221.213V159H220.156V155.097H215.502V159H214.445ZM223.192 159V152.455H224.198V159H223.192ZM223.703 151.364C223.507 151.364 223.338 151.297 223.196 151.163C223.057 151.03 222.987 150.869 222.987 150.682C222.987 150.494 223.057 150.334 223.196 150.2C223.338 150.067 223.507 150 223.703 150C223.899 150 224.067 150.067 224.206 150.2C224.348 150.334 224.419 150.494 224.419 150.682C224.419 150.869 224.348 151.03 224.206 151.163C224.067 151.297 223.899 151.364 223.703 151.364ZM226.04 161.455V152.455H227.011V153.494H227.131C227.204 153.381 227.307 153.236 227.437 153.06C227.571 152.881 227.761 152.722 228.008 152.582C228.258 152.44 228.596 152.369 229.023 152.369C229.574 152.369 230.059 152.507 230.48 152.783C230.9 153.058 231.229 153.449 231.464 153.955C231.7 154.46 231.818 155.057 231.818 155.744C231.818 156.438 231.7 157.038 231.464 157.547C231.229 158.053 230.902 158.445 230.484 158.723C230.067 158.999 229.585 159.136 229.04 159.136C228.619 159.136 228.282 159.067 228.03 158.928C227.777 158.786 227.582 158.625 227.446 158.446C227.309 158.264 227.204 158.114 227.131 157.994H227.045V161.455H226.04ZM227.028 155.727C227.028 156.222 227.101 156.658 227.246 157.036C227.39 157.411 227.602 157.705 227.881 157.918C228.159 158.128 228.5 158.233 228.903 158.233C229.324 158.233 229.675 158.122 229.956 157.901C230.24 157.676 230.453 157.375 230.595 156.997C230.74 156.616 230.812 156.193 230.812 155.727C230.812 155.267 230.741 154.852 230.599 154.483C230.46 154.111 230.248 153.817 229.964 153.601C229.683 153.382 229.329 153.273 228.903 153.273C228.494 153.273 228.15 153.376 227.872 153.584C227.594 153.788 227.383 154.075 227.241 154.445C227.099 154.811 227.028 155.239 227.028 155.727ZM236.863 159V150.273H239.812C240.494 150.273 241.054 150.389 241.491 150.622C241.929 150.852 242.253 151.169 242.463 151.572C242.673 151.976 242.778 152.435 242.778 152.949C242.778 153.463 242.673 153.919 242.463 154.317C242.253 154.714 241.93 155.027 241.496 155.254C241.061 155.479 240.506 155.591 239.829 155.591H237.443V154.636H239.795C240.261 154.636 240.636 154.568 240.92 154.432C241.207 154.295 241.415 154.102 241.542 153.852C241.673 153.599 241.738 153.298 241.738 152.949C241.738 152.599 241.673 152.294 241.542 152.033C241.412 151.771 241.203 151.57 240.916 151.428C240.629 151.283 240.25 151.21 239.778 151.21H237.92V159H236.863ZM240.971 155.08L243.119 159H241.892L239.778 155.08H240.971ZM246.329 159.153C245.914 159.153 245.538 159.075 245.2 158.919C244.862 158.76 244.593 158.531 244.394 158.233C244.195 157.932 244.096 157.568 244.096 157.142C244.096 156.767 244.17 156.463 244.318 156.23C244.465 155.994 244.663 155.81 244.91 155.676C245.157 155.543 245.43 155.443 245.728 155.378C246.029 155.31 246.332 155.256 246.636 155.216C247.034 155.165 247.356 155.126 247.603 155.101C247.853 155.072 248.035 155.026 248.149 154.96C248.265 154.895 248.323 154.781 248.323 154.619V154.585C248.323 154.165 248.208 153.838 247.978 153.605C247.751 153.372 247.406 153.256 246.943 153.256C246.463 153.256 246.086 153.361 245.813 153.571C245.541 153.781 245.349 154.006 245.238 154.244L244.284 153.903C244.454 153.506 244.681 153.196 244.965 152.974C245.252 152.75 245.565 152.594 245.903 152.506C246.244 152.415 246.579 152.369 246.909 152.369C247.119 152.369 247.36 152.395 247.633 152.446C247.909 152.494 248.174 152.595 248.43 152.749C248.688 152.902 248.903 153.134 249.073 153.443C249.244 153.753 249.329 154.168 249.329 154.688V159H248.323V158.114H248.272C248.204 158.256 248.09 158.408 247.931 158.57C247.772 158.732 247.561 158.869 247.296 158.983C247.032 159.097 246.71 159.153 246.329 159.153ZM246.482 158.25C246.88 158.25 247.215 158.172 247.488 158.016C247.764 157.859 247.971 157.658 248.11 157.411C248.252 157.163 248.323 156.903 248.323 156.631V155.71C248.281 155.761 248.187 155.808 248.042 155.851C247.9 155.891 247.735 155.926 247.548 155.957C247.363 155.986 247.183 156.011 247.007 156.034C246.833 156.054 246.693 156.071 246.585 156.085C246.323 156.119 246.079 156.175 245.852 156.251C245.627 156.325 245.445 156.437 245.306 156.588C245.17 156.736 245.102 156.937 245.102 157.193C245.102 157.543 245.231 157.807 245.49 157.986C245.751 158.162 246.082 158.25 246.482 158.25ZM254.011 152.455V153.307H250.619V152.455H254.011ZM251.608 150.886H252.613V157.125C252.613 157.409 252.655 157.622 252.737 157.764C252.822 157.903 252.93 157.997 253.061 158.045C253.194 158.091 253.335 158.114 253.483 158.114C253.594 158.114 253.684 158.108 253.756 158.097C253.827 158.082 253.883 158.071 253.926 158.062L254.131 158.966C254.062 158.991 253.967 159.017 253.845 159.043C253.723 159.071 253.568 159.085 253.381 159.085C253.096 159.085 252.818 159.024 252.545 158.902C252.275 158.78 252.051 158.594 251.872 158.344C251.696 158.094 251.608 157.778 251.608 157.398V150.886ZM255.524 159V152.455H256.53V159H255.524ZM256.035 151.364C255.839 151.364 255.67 151.297 255.528 151.163C255.389 151.03 255.319 150.869 255.319 150.682C255.319 150.494 255.389 150.334 255.528 150.2C255.67 150.067 255.839 150 256.035 150C256.231 150 256.399 150.067 256.538 150.2C256.68 150.334 256.751 150.494 256.751 150.682C256.751 150.869 256.68 151.03 256.538 151.163C256.399 151.297 256.231 151.364 256.035 151.364ZM261.031 159.136C260.44 159.136 259.921 158.996 259.475 158.714C259.032 158.433 258.686 158.04 258.436 157.534C258.188 157.028 258.065 156.437 258.065 155.761C258.065 155.08 258.188 154.484 258.436 153.976C258.686 153.467 259.032 153.072 259.475 152.791C259.921 152.51 260.44 152.369 261.031 152.369C261.622 152.369 262.139 152.51 262.582 152.791C263.028 153.072 263.374 153.467 263.622 153.976C263.872 154.484 263.997 155.08 263.997 155.761C263.997 156.437 263.872 157.028 263.622 157.534C263.374 158.04 263.028 158.433 262.582 158.714C262.139 158.996 261.622 159.136 261.031 159.136ZM261.031 158.233C261.48 158.233 261.849 158.118 262.139 157.888C262.428 157.658 262.643 157.355 262.782 156.98C262.921 156.605 262.991 156.199 262.991 155.761C262.991 155.324 262.921 154.916 262.782 154.538C262.643 154.161 262.428 153.855 262.139 153.622C261.849 153.389 261.48 153.273 261.031 153.273C260.582 153.273 260.213 153.389 259.923 153.622C259.633 153.855 259.419 154.161 259.279 154.538C259.14 154.916 259.07 155.324 259.07 155.761C259.07 156.199 259.14 156.605 259.279 156.98C259.419 157.355 259.633 157.658 259.923 157.888C260.213 158.118 260.582 158.233 261.031 158.233Z" fill="#00625B"/>
<path d="M229.876 178.166C229.175 178.166 228.572 177.989 228.07 177.634C227.57 177.276 227.185 176.76 226.915 176.087C226.648 175.411 226.514 174.597 226.514 173.645C226.517 172.693 226.652 171.884 226.919 171.216C227.189 170.545 227.574 170.034 228.074 169.682C228.577 169.33 229.178 169.153 229.876 169.153C230.575 169.153 231.176 169.33 231.679 169.682C232.182 170.034 232.567 170.545 232.834 171.216C233.104 171.886 233.239 172.696 233.239 173.645C233.239 174.599 233.104 175.415 232.834 176.091C232.567 176.764 232.182 177.278 231.679 177.634C231.179 177.989 230.578 178.166 229.876 178.166ZM229.876 176.832C230.422 176.832 230.852 176.564 231.168 176.027C231.486 175.487 231.645 174.693 231.645 173.645C231.645 172.952 231.572 172.369 231.428 171.898C231.283 171.426 231.078 171.071 230.814 170.832C230.55 170.591 230.237 170.47 229.876 170.47C229.334 170.47 228.905 170.74 228.589 171.28C228.274 171.817 228.115 172.605 228.112 173.645C228.109 174.341 228.179 174.926 228.321 175.401C228.466 175.875 228.67 176.233 228.935 176.474C229.199 176.713 229.513 176.832 229.876 176.832ZM235.282 178.094C235.023 178.094 234.802 178.003 234.617 177.821C234.433 177.639 234.342 177.418 234.344 177.156C234.342 176.901 234.433 176.682 234.617 176.5C234.802 176.318 235.023 176.227 235.282 176.227C235.532 176.227 235.749 176.318 235.934 176.5C236.121 176.682 236.217 176.901 236.219 177.156C236.217 177.33 236.171 177.487 236.083 177.629C235.998 177.771 235.884 177.885 235.742 177.97C235.603 178.053 235.45 178.094 235.282 178.094ZM240.696 169.153C241.114 169.156 241.52 169.23 241.915 169.375C242.313 169.517 242.67 169.75 242.989 170.074C243.307 170.395 243.56 170.825 243.747 171.365C243.935 171.905 244.028 172.572 244.028 173.368C244.031 174.118 243.952 174.788 243.79 175.379C243.631 175.967 243.402 176.464 243.104 176.871C242.805 177.277 242.446 177.587 242.026 177.8C241.605 178.013 241.132 178.119 240.607 178.119C240.055 178.119 239.567 178.011 239.141 177.795C238.717 177.58 238.375 177.284 238.114 176.909C237.852 176.534 237.692 176.105 237.632 175.622H239.188C239.267 175.969 239.429 176.244 239.673 176.449C239.92 176.651 240.232 176.751 240.607 176.751C241.212 176.751 241.678 176.489 242.004 175.963C242.331 175.437 242.494 174.707 242.494 173.773H242.435C242.295 174.023 242.115 174.239 241.893 174.42C241.672 174.599 241.42 174.737 241.139 174.834C240.861 174.93 240.565 174.979 240.253 174.979C239.741 174.979 239.281 174.857 238.872 174.612C238.466 174.368 238.143 174.033 237.905 173.607C237.669 173.18 237.55 172.693 237.547 172.145C237.547 171.577 237.678 171.067 237.939 170.615C238.203 170.161 238.571 169.803 239.043 169.541C239.514 169.277 240.065 169.148 240.696 169.153ZM240.7 170.432C240.393 170.432 240.116 170.507 239.869 170.658C239.625 170.805 239.432 171.007 239.29 171.263C239.151 171.516 239.081 171.798 239.081 172.111C239.084 172.42 239.153 172.702 239.29 172.955C239.429 173.207 239.618 173.408 239.857 173.555C240.098 173.703 240.374 173.777 240.683 173.777C240.913 173.777 241.128 173.733 241.327 173.645C241.526 173.557 241.699 173.435 241.847 173.278C241.997 173.119 242.114 172.939 242.196 172.737C242.281 172.536 242.322 172.322 242.32 172.098C242.32 171.8 242.249 171.524 242.107 171.271C241.967 171.018 241.776 170.815 241.531 170.662C241.29 170.509 241.013 170.432 240.7 170.432ZM245.447 178V176.858L248.477 173.888C248.767 173.595 249.009 173.335 249.202 173.108C249.395 172.881 249.54 172.661 249.636 172.447C249.733 172.234 249.781 172.007 249.781 171.766C249.781 171.49 249.719 171.254 249.594 171.058C249.469 170.859 249.297 170.706 249.078 170.598C248.859 170.49 248.611 170.436 248.332 170.436C248.045 170.436 247.794 170.496 247.578 170.615C247.362 170.732 247.195 170.898 247.075 171.114C246.959 171.33 246.901 171.587 246.901 171.885H245.396C245.396 171.331 245.523 170.849 245.776 170.44C246.028 170.031 246.376 169.714 246.82 169.49C247.266 169.266 247.777 169.153 248.354 169.153C248.939 169.153 249.453 169.263 249.896 169.482C250.339 169.7 250.683 170 250.928 170.381C251.175 170.761 251.298 171.196 251.298 171.685C251.298 172.011 251.236 172.332 251.111 172.648C250.986 172.963 250.766 173.312 250.45 173.696C250.138 174.08 249.699 174.544 249.134 175.089L247.629 176.619V176.679H251.43V178H245.447Z" fill="#F79009"/>
<path d="M139 140L204.5 158" stroke="#00625B" stroke-width="0.4" stroke-dasharray="3 3"/>
<path d="M42.4511 138.66L44.4119 139.88L44.4881 137.572L42.4511 138.66ZM83 140L83.0066 139.8L81.5584 139.752L81.5518 139.952L81.5452 140.152L82.9934 140.2L83 140ZM78.6555 139.856L78.6621 139.657L75.7657 139.561L75.7591 139.761L75.7525 139.961L78.6489 140.056L78.6555 139.856ZM72.8628 139.665L72.8694 139.465L69.973 139.369L69.9664 139.569L69.9598 139.769L72.8562 139.865L72.8628 139.665ZM67.0701 139.473L67.0767 139.274L64.1803 139.178L64.1737 139.378L64.1671 139.578L67.0635 139.673L67.0701 139.473ZM61.2774 139.282L61.284 139.082L58.3876 138.986L58.381 139.186L58.3744 139.386L61.2708 139.482L61.2774 139.282ZM55.4847 139.091L55.4913 138.891L52.5949 138.795L52.5883 138.995L52.5817 139.195L55.4781 139.29L55.4847 139.091ZM49.692 138.899L49.6986 138.699L46.8022 138.604L46.7956 138.803L46.789 139.003L49.6854 139.099L49.692 138.899Z" fill="#00625B"/>
<path d="M45.1529 179.7L47.4428 179.4L46.0382 177.567L45.1529 179.7ZM80 153L79.8784 152.841L78.6338 153.795L78.7555 153.954L78.8771 154.112L80.1216 153.159L80 153ZM76.2664 155.861L76.1447 155.702L73.6557 157.609L73.7773 157.768L73.8989 157.927L76.388 156.019L76.2664 155.861ZM71.2882 159.675L71.1666 159.516L68.6775 161.423L68.7992 161.582L68.9208 161.741L71.4099 159.834L71.2882 159.675ZM66.3101 163.489L66.1884 163.331L63.6994 165.238L63.821 165.396L63.9426 165.555L66.4317 163.648L66.3101 163.489ZM61.3319 167.304L61.2103 167.145L58.7212 169.052L58.8429 169.211L58.9645 169.369L61.4536 167.462L61.3319 167.304ZM56.3538 171.118L56.2321 170.959L53.7431 172.866L53.8647 173.025L53.9863 173.184L56.4754 171.277L56.3538 171.118ZM51.3756 174.932L51.254 174.773L48.7649 176.681L48.8865 176.839L49.0082 176.998L51.4973 175.091L51.3756 174.932Z" fill="#00625B"/>
<path d="M209.5 158L207.589 156.703L207.421 159.006L209.5 158ZM141 153L140.985 153.199L142.542 153.313L142.557 153.114L142.571 152.914L141.015 152.801L141 153ZM145.67 153.341L145.656 153.54L148.77 153.768L148.784 153.568L148.799 153.369L145.685 153.141L145.67 153.341ZM151.898 153.795L151.883 153.995L154.997 154.222L155.011 154.023L155.026 153.823L151.912 153.596L151.898 153.795ZM158.125 154.25L158.11 154.449L161.224 154.677L161.239 154.477L161.253 154.278L158.14 154.051L158.125 154.25ZM164.352 154.705L164.338 154.904L167.451 155.131L167.466 154.932L167.48 154.732L164.367 154.505L164.352 154.705ZM170.58 155.159L170.565 155.359L173.679 155.586L173.693 155.386L173.708 155.187L170.594 154.96L170.58 155.159ZM176.807 155.614L176.792 155.813L179.906 156.04L179.92 155.841L179.935 155.641L176.821 155.414L176.807 155.614ZM183.034 156.068L183.02 156.268L186.133 156.495L186.148 156.295L186.162 156.096L183.049 155.869L183.034 156.068ZM189.261 156.523L189.247 156.722L192.36 156.949L192.375 156.75L192.39 156.551L189.276 156.323L189.261 156.523ZM195.489 156.977L195.474 157.177L198.588 157.404L198.602 157.205L198.617 157.005L195.503 156.778L195.489 156.977ZM201.716 157.432L201.701 157.631L204.815 157.859L204.83 157.659L204.844 157.46L201.73 157.232L201.716 157.432Z" fill="#00625B"/>
<path d="M89.5 277H131.5" stroke="#00625B" stroke-linecap="round"/>
</g>
<defs>
<filter id="filter0_d_413_2861" x="81.0714" y="136.714" width="58.8571" height="10.858" filterUnits="userSpaceOnUse" color-interpolation-filters="sRGB">
<feFlood flood-opacity="0" result="BackgroundImageFix"/>
<feColorMatrix in="SourceAlpha" type="matrix" values="0 0 0 0 0 0 0 0 0 0 0 0 0 0 0 0 0 0 127 0" result="hardAlpha"/>
<feOffset dy="1.14286"/>
<feGaussianBlur stdDeviation="0.571429"/>
<feComposite in2="hardAlpha" operator="out"/>
<feColorMatrix type="matrix" values="0 0 0 0 0 0 0 0 0 0.243137 0 0 0 0 0.223529 0 0 0 0.3 0"/>
<feBlend mode="normal" in2="BackgroundImageFix" result="effect1_dropShadow_413_2861"/>
<feBlend mode="normal" in="SourceGraphic" in2="effect1_dropShadow_413_2861" result="shape"/>
</filter>
<filter id="filter1_d_413_2861" x="77.0203" y="146.704" width="66.9594" height="11.9593" filterUnits="userSpaceOnUse" color-interpolation-filters="sRGB">
<feFlood flood-opacity="0" result="BackgroundImageFix"/>
<feColorMatrix in="SourceAlpha" type="matrix" values="0 0 0 0 0 0 0 0 0 0 0 0 0 0 0 0 0 0 127 0" result="hardAlpha"/>
<feOffset dy="1.18378"/>
<feGaussianBlur stdDeviation="0.591888"/>
<feComposite in2="hardAlpha" operator="out"/>
<feColorMatrix type="matrix" values="0 0 0 0 0 0 0 0 0 0.243137 0 0 0 0 0.223529 0 0 0 0.3 0"/>
<feBlend mode="normal" in2="BackgroundImageFix" result="effect1_dropShadow_413_2861"/>
<feBlend mode="normal" in="SourceGraphic" in2="effect1_dropShadow_413_2861" result="shape"/>
</filter>
<linearGradient id="paint0_linear_413_2861" x1="125.246" y1="58.45" x2="-152.339" y2="256.008" gradientUnits="userSpaceOnUse">
<stop stop-color="#003E39" stop-opacity="0.56"/>
<stop offset="0.435146" stop-color="#003E39" stop-opacity="0"/>
</linearGradient>
<clipPath id="clip0_413_2861">
<rect width="271" height="326" fill="white"/>
</clipPath>
</defs>
</svg>
