<svg width="16" height="16" viewBox="0 0 16 16" fill="none" xmlns="http://www.w3.org/2000/svg">
<g id="calendar-heart-01">
<path id="Icon" d="M14 5.33337H2M10.6667 1.33337V3.33337M5.33333 1.33337V3.33337M5.2 14.6667H10.8C11.9201 14.6667 12.4802 14.6667 12.908 14.4487C13.2843 14.257 13.5903 13.951 13.782 13.5747C14 13.1469 14 12.5868 14 11.4667V5.86671C14 4.7466 14 4.18655 13.782 3.75873C13.5903 3.3824 13.2843 3.07644 12.908 2.88469C12.4802 2.66671 11.9201 2.66671 10.8 2.66671H5.2C4.0799 2.66671 3.51984 2.66671 3.09202 2.88469C2.71569 3.07644 2.40973 3.3824 2.21799 3.75873C2 4.18655 2 4.7466 2 5.86671V11.4667C2 12.5868 2 13.1469 2.21799 13.5747C2.40973 13.951 2.71569 14.257 3.09202 14.4487C3.51984 14.6667 4.0799 14.6667 5.2 14.6667ZM7.99817 8.22044C7.46501 7.61444 6.57593 7.45143 5.90792 8.00634C5.23991 8.56125 5.14586 9.48903 5.67045 10.1453C6.05133 10.6218 7.10618 11.5598 7.65555 12.038C7.77465 12.1417 7.8342 12.1935 7.90398 12.214C7.96442 12.2318 8.03192 12.2318 8.09237 12.214C8.16215 12.1935 8.2217 12.1417 8.34079 12.038C8.89017 11.5598 9.94502 10.6218 10.3259 10.1453C10.8505 9.48903 10.7679 8.55541 10.0884 8.00634C9.40893 7.45727 8.53133 7.61444 7.99817 8.22044Z" stroke="#00625B" stroke-width="0.8" stroke-linecap="round" stroke-linejoin="round"/>
</g>
</svg>
