<svg width="18" height="19" viewBox="0 0 18 19" fill="none" xmlns="http://www.w3.org/2000/svg">
<g id="Group 1864">
<path id="Vector" d="M6.46214 12.5812C5.95322 13.1087 5.958 13.9502 6.47648 14.4717L6.46214 12.5812ZM6.46214 12.5812H6.46485L6.4795 12.5666C6.73378 12.3123 7.07158 12.1718 7.43363 12.1718C7.79556 12.1718 8.13029 12.3122 8.38467 12.5666C8.82584 13.0077 9.54921 13.0112 9.99079 12.5666C10.2451 12.3122 10.5829 12.1718 10.9418 12.1718C11.3006 12.1718 11.6385 12.3122 11.896 12.5666C12.4224 13.093 12.4223 13.9453 11.896 14.4717L9.18622 17.1815M6.46214 12.5812L9.18622 17.1815M9.18622 17.1815L6.47658 14.4718L9.18622 17.1815ZM9.18904 6.19479L8.19459 5.20034C7.39424 4.4 6.3269 3.95737 5.19378 3.95737C4.06065 3.95737 2.99343 4.4 2.19297 5.20034C1.39251 6.00069 0.95 7.06803 0.95 8.20115C0.95 9.33428 1.39263 10.4015 2.19297 11.202L2.19297 11.202L8.93641 17.9454C9.00507 18.0141 9.09548 18.05 9.192 18.05C9.28965 18.05 9.37922 18.0102 9.44662 17.9463L9.44759 17.9454L16.191 11.202C16.9914 10.4016 17.434 9.33427 17.434 8.20115V8.15115H17.4278C17.415 7.03675 16.9737 5.98902 16.1851 5.20034C15.3848 4.39988 14.3174 3.95737 13.1843 3.95737C12.0512 3.95737 10.984 4.4 10.1835 5.20034L10.2189 5.2357L10.1835 5.20034L9.18904 6.19479ZM9.47964 12.0552L9.47949 12.0554C9.31584 12.219 9.05307 12.2186 8.89292 12.0557L8.89261 12.0554C8.50177 11.6645 7.98348 11.4483 7.43042 11.4483C6.87735 11.4483 6.35906 11.6645 5.96822 12.0554C5.59759 12.426 5.39511 12.9072 5.37711 13.3694L2.69824 10.6906C2.03139 10.0237 1.66447 9.13998 1.66447 8.19799C1.66447 7.25601 2.0314 6.37221 2.69823 5.70543C3.36508 5.03864 4.24882 4.67166 5.1908 4.67166C6.13279 4.67166 7.01659 5.03859 7.68337 5.70543L7.71872 5.67007L7.68337 5.70543L8.93341 6.95547C9.07045 7.09251 9.30698 7.09329 9.44168 6.95527C9.44177 6.95518 9.44186 6.95509 9.44195 6.955L10.6915 5.70543C11.3584 5.03859 12.2421 4.67166 13.1841 4.67166C14.1261 4.67166 15.0099 5.03859 15.6766 5.70543C16.3434 6.37227 16.7104 7.25601 16.7104 8.19799C16.7104 9.13998 16.3435 10.0238 15.6767 10.6906L15.712 10.7259L15.6766 10.6906L13.0026 13.3649C12.9676 12.889 12.7689 12.4206 12.4038 12.0584C12.013 11.6676 11.4947 11.4514 10.9417 11.4514C10.3887 11.4514 9.87043 11.6676 9.47964 12.0552Z" fill="#00625B" stroke="#00625B" stroke-width="0.1"/>
<path id="Vector_2" d="M13.8719 3.65395C14.88 3.65395 15.6989 2.83507 15.6989 1.82698C15.6989 0.818884 14.88 0 13.8719 0C12.8638 0 12.0449 0.818884 12.0449 1.82698C12.0449 2.83507 12.8638 3.65395 13.8719 3.65395ZM13.8719 0.620407C14.5357 0.620407 15.0785 1.16014 15.0785 1.82702C15.0785 2.49389 14.5388 3.03362 13.8719 3.03362C13.205 3.03362 12.6653 2.49389 12.6653 1.82702C12.6653 1.16014 13.205 0.620407 13.8719 0.620407Z" fill="#00625B"/>
<path id="Vector_3" d="M9.18661 8.36235C8.33982 8.36235 7.6543 9.05097 7.6543 9.89467C7.6543 10.7384 8.34291 11.427 9.18661 11.427C10.0303 11.427 10.7189 10.7384 10.7189 9.89467C10.7189 9.05097 10.0303 8.36235 9.18661 8.36235ZM9.18661 10.8097C8.68413 10.8097 8.27466 10.4002 8.27466 9.89772C8.27466 9.39522 8.68411 8.98577 9.18661 8.98577C9.68912 8.98577 10.0986 9.39522 10.0986 9.89772C10.0986 10.4002 9.68912 10.8097 9.18661 10.8097Z" fill="#00625B"/>
<path id="Vector_4" d="M4.49885 3.65395C5.50694 3.65395 6.32583 2.83507 6.32583 1.82698C6.32583 0.818884 5.50694 0 4.49885 0C3.49076 0 2.67188 0.818884 2.67188 1.82698C2.67188 2.83507 3.49076 3.65395 4.49885 3.65395ZM4.49885 0.620407C5.16265 0.620407 5.70546 1.16014 5.70546 1.82702C5.70546 2.49389 5.16573 3.03362 4.49885 3.03362C3.83197 3.03362 3.29224 2.49389 3.29224 1.82702C3.29224 1.16014 3.83197 0.620407 4.49885 0.620407Z" fill="#00625B"/>
</g>
</svg>
