<svg width="24" height="24" viewBox="0 0 24 24" fill="none" xmlns="http://www.w3.org/2000/svg">
<g id="Activity">
<path id="Vector" d="M10.854 7.95693L10.0569 10.1533C9.77133 10.9403 9.38329 11.5581 8.79812 12.158L5.76666 15.2648C5.31264 15.7304 5.31343 16.4794 5.76899 16.9349C6.22998 17.3959 6.98048 17.3959 7.44148 16.9349L11.1224 13.254C11.2528 13.1236 11.4235 13.0778 11.6021 13.1259L13.4034 13.6087C13.5392 13.6451 13.6261 13.7592 13.6261 13.8997V16.4422C13.6261 17.0941 14.157 17.6249 14.8089 17.6249C15.4608 17.6249 15.9916 17.0941 15.9916 16.4422V13.4465C15.9916 12.5524 15.9505 12.1341 14.9773 11.5916L14.2423 11.1819C13.9063 10.9948 13.9187 10.9094 13.9722 10.762L14.5916 9.05536C14.7219 8.69526 15.0417 8.47097 15.4251 8.47097H18.0848C18.7569 8.47097 19.1193 7.95797 19.1193 7.47524C19.1193 6.98319 18.7538 6.48572 18.0561 6.48572H12.9556C12.0033 6.48572 11.1783 7.06391 10.8531 7.95952L10.854 7.95693ZM18.5504 7.47264C18.5504 7.68529 18.4069 7.89949 18.0856 7.89949H13.7114C13.5547 7.89949 13.4266 8.02677 13.4266 8.18432C13.4266 8.34109 13.5539 8.46914 13.7114 8.46914H14.2687C14.181 8.58478 14.1088 8.71594 14.0568 8.85951L13.4375 10.5661C13.1907 11.2452 13.7533 11.5588 13.9652 11.6775L14.7002 12.0873C15.4227 12.4901 15.4227 12.6546 15.4227 13.4454V16.4411C15.4227 16.7795 15.1472 17.0542 14.8096 17.0542C14.4712 17.0542 14.1965 16.7787 14.1965 16.4411V13.8986C14.1965 13.4989 13.9373 13.1614 13.5516 13.0581L11.7502 12.5754C11.654 12.5498 11.5578 12.5366 11.4631 12.5366C11.1876 12.5366 10.9268 12.6452 10.7204 12.8509L7.03942 16.5318C6.80039 16.7709 6.41078 16.7709 6.17175 16.5318C5.93582 16.2959 5.93659 15.9055 6.17408 15.6618L9.20554 12.5551C9.8497 11.8954 10.2773 11.214 10.5916 10.3471L11.3887 8.15074C11.6347 7.4732 12.2354 7.0518 12.9564 7.0518H18.0569C18.4209 7.0518 18.5505 7.26911 18.5505 7.47244L18.5504 7.47264ZM13.984 6.31859C14.899 6.31859 15.6433 5.57432 15.6433 4.6593C15.6433 3.74428 14.899 3 13.984 3C13.069 3 12.3247 3.74428 12.3247 4.6593C12.3247 5.57432 13.069 6.31859 13.984 6.31859ZM13.984 3.56886C14.5847 3.56886 15.0744 4.05779 15.0744 4.65928C15.0744 5.26076 14.5855 5.74969 13.984 5.74969C13.3825 5.74969 12.8936 5.26076 12.8936 4.65928C12.8936 4.05779 13.3825 3.56886 13.984 3.56886ZM20.7826 18.6616L18.6585 17.2157C18.508 17.1133 18.3155 17.1024 18.1548 17.1878C17.9942 17.2724 17.8948 17.4385 17.8948 17.6201V17.9864H9.4122C9.16075 17.9864 8.95585 18.1913 8.95585 18.4428V19.6884C8.95585 19.9398 9.16073 20.1447 9.4122 20.1447H17.8948V20.5111C17.8948 20.6927 17.995 20.8587 18.1548 20.9433C18.227 20.9814 18.3054 21 18.383 21C18.4792 21 18.5755 20.9713 18.6585 20.9146L20.7826 19.4688C20.9161 19.378 20.996 19.2266 20.996 19.0644C20.996 18.9022 20.9161 18.7517 20.7826 18.6601L20.7826 18.6616ZM18.4636 20.3597V19.8607C18.4636 19.7039 18.3363 19.5758 18.1788 19.5758H9.5239V18.5553H18.1788C18.3356 18.5553 18.4636 18.428 18.4636 18.2704V17.7714L20.3651 19.0652L18.4636 20.3589V20.3597ZM8.98897 9.71858C9.14574 9.71858 9.2738 9.84586 9.2738 10.0034C9.2738 10.1602 9.14652 10.2882 8.98897 10.2882H7.51906C7.36229 10.2882 7.23423 10.161 7.23423 10.0034C7.23423 9.84664 7.36151 9.71858 7.51906 9.71858H8.98897ZM10.2967 7.0062H8.82677C8.67 7.0062 8.54194 6.87893 8.54194 6.72138C8.54194 6.56461 8.66922 6.43655 8.82677 6.43655H10.2967C10.4535 6.43655 10.5815 6.56383 10.5815 6.72138C10.5815 6.87815 10.4542 7.0062 10.2967 7.0062ZM7.05502 4.80682C7.05502 4.65005 7.1823 4.52199 7.33985 4.52199H11.2886C11.4454 4.52199 11.5734 4.64927 11.5734 4.80682C11.5734 4.96359 11.4462 5.09164 11.2886 5.09164H7.33985C7.18308 5.09164 7.05502 4.96437 7.05502 4.80682ZM3.95382 13.9819C3.95382 13.8251 4.0811 13.697 4.23865 13.697H5.86612C6.02289 13.697 6.15095 13.8243 6.15095 13.9819C6.15095 14.1386 6.02367 14.2667 5.86612 14.2667H4.23865C4.08188 14.2667 3.95382 14.1394 3.95382 13.9819ZM4.75709 16.7797H3.28483C3.12806 16.7797 3 16.6524 3 16.4948C3 16.3381 3.12728 16.21 3.28483 16.21H4.75709C4.91386 16.21 5.04191 16.3373 5.04191 16.4948C5.04191 16.6516 4.91464 16.7797 4.75709 16.7797ZM8.31783 19.0661C8.31783 19.2229 8.19055 19.3509 8.033 19.3509L4.08424 19.3517C3.92747 19.3517 3.79941 19.2244 3.79941 19.0669C3.79941 18.9101 3.92669 18.782 4.08424 18.782H8.033C8.18977 18.782 8.31783 18.9093 8.31783 19.0669V19.0661ZM5.56571 8.02762C5.56571 7.87085 5.69299 7.74279 5.85054 7.74279H8.73915C8.89592 7.74279 9.02398 7.87007 9.02398 8.02762C9.02398 8.18439 8.8967 8.31245 8.73915 8.31245H5.85054C5.69377 8.31245 5.56571 8.18517 5.56571 8.02762ZM5.11092 12.0207C5.11092 11.8639 5.23819 11.7359 5.39574 11.7359H7.464C7.62077 11.7359 7.74883 11.8631 7.74883 12.0207C7.74883 12.1775 7.62155 12.3055 7.464 12.3055H5.39574C5.23897 12.3055 5.11092 12.1782 5.11092 12.0207Z" fill="#00625B"/>
</g>
</svg>
