<svg width="80" height="236" viewBox="0 0 80 236" fill="none" xmlns="http://www.w3.org/2000/svg">
<path d="M78.7475 116.036C78.7475 113.431 78.3416 109.296 78.3416 101.658C78.5227 95.7241 75.6434 83.9069 75.6434 81.3024C75.3748 73.4389 72.3643 64.8134 72.2706 62.8772C72.4955 59.823 71.8646 54.4765 71.4149 51.2412C69.6598 44.2334 64.4071 40.0549 58.3861 39.3304C52.3651 38.6121 46.2504 33.172 46.2504 32.004V27.5195L47.1124 26.9386C48.5864 25.9455 49.4983 24.3154 49.5795 22.5416L49.7044 19.7747C52.3651 18.6254 51.447 12.8418 50.0167 13.0416L50.0604 12.0423C50.0854 11.7363 50.1041 11.4302 50.1041 11.1179C50.1041 5.25308 45.351 0.5 39.4862 0.5C33.6214 0.5 28.8683 5.25308 28.8683 11.1179C28.8683 11.4302 28.887 11.7363 28.912 12.0423L28.9557 13.0416C27.5192 12.8418 26.6073 18.6254 29.268 19.7747L29.3929 22.5416C29.4741 24.3154 30.3923 25.9455 31.86 26.9386L32.722 27.5195V32.004C32.722 33.172 26.6135 38.6121 20.5863 39.3304C14.5653 40.0487 9.3063 44.2271 7.55746 51.2412C7.10776 54.4765 6.47693 59.823 6.70178 62.8772C6.61434 64.8072 3.60385 73.4389 3.32903 81.3024C3.32903 83.9069 0.455948 95.7241 0.630831 101.658C0.630831 109.296 0.224851 113.431 0.224851 116.036C0.224851 118.64 0 126.191 0 127.628C0 129.064 5.48385 137.065 6.92039 137.602C8.35693 138.14 6.42697 135.672 6.10843 134.323C5.78989 132.974 4.08478 127.447 4.44704 126.953C4.8093 126.46 5.12159 125.56 5.79614 127.041C6.47069 128.521 7.90723 131.488 8.80663 131.357C9.70603 131.219 8.35693 127.222 8.35693 126.591C8.35693 125.96 8.1758 119.983 7.05155 117.691C7.09527 116.791 7.05155 116.254 7.05155 114.992C7.05155 113.731 9.74976 105.33 11.0489 102.095C12.3543 98.8595 13.566 90.2777 13.8345 85.737C14.1031 81.1962 15.4522 77.1989 16.1268 75.1752C16.8013 73.1516 17.3384 71.4028 17.7881 71.2654C18.9124 71.5339 19.6244 88.2978 19.7806 95.012C19.9367 101.733 17.0137 117.622 16.9325 127.428C16.8513 137.234 18.9873 147.271 19.9367 152.886C20.8861 158.501 21.3608 166.639 21.3608 170.993C21.3608 175.346 19.462 179.137 20.0179 186.332C20.5738 193.528 24.8397 204.989 25.9452 210.448C27.0507 215.9 28.8683 223.177 28.556 224.913C28.2374 226.649 23.1034 230.447 23.0222 232.027C22.941 233.607 26.5823 233.688 28.2374 234.082C29.8988 234.475 35.1141 236.693 36.2196 234.638C37.3251 232.583 36.5382 229.579 36.2196 228.073C35.9011 226.574 34.8768 210.441 34.8768 206.175C34.8768 201.91 35.8261 190.917 35.8261 187.438C35.8261 183.959 33.6151 174.078 34.1647 170.362C34.7206 166.646 35.9823 166.171 36.3008 162.298C36.6194 158.426 38.5118 124.349 39.4612 123.087C40.4106 124.355 42.3093 158.426 42.6216 162.298C42.9401 166.171 44.2018 166.646 44.7577 170.362C45.3136 174.078 43.0963 183.959 43.0963 187.438C43.0963 190.917 44.0457 201.903 44.0457 206.175C44.0457 210.448 43.0151 226.574 42.7028 228.073C42.3843 229.579 41.5973 232.577 42.7028 234.638C43.8083 236.693 49.0298 234.482 50.685 234.082C52.3464 233.688 55.9815 233.607 55.9003 232.027C55.8191 230.447 50.685 226.649 50.3664 224.913C50.0479 223.177 51.8717 215.9 52.9772 210.448C54.0827 204.995 58.3549 193.528 58.9045 186.332C59.4604 179.137 57.5617 175.346 57.5617 170.993C57.5617 166.639 58.0363 158.501 58.9857 152.886C59.9351 147.271 62.0711 137.234 61.99 127.428C61.9088 117.622 58.9857 101.733 59.1418 95.012C59.298 88.2915 60.01 71.5339 61.1343 71.2654C61.584 71.4028 62.1211 73.1516 62.7957 75.1752C63.4702 77.1989 64.8193 81.1962 65.0879 85.737C65.3565 90.2777 66.5682 98.8595 67.8735 102.095C69.1789 105.33 71.8709 113.731 71.8709 114.992C71.8709 116.254 71.8271 116.791 71.8709 117.691C70.7466 119.983 70.5655 125.96 70.5655 126.591C70.5655 127.222 69.2164 131.219 70.1158 131.357C71.0152 131.494 72.4517 128.527 73.1263 127.041C73.8008 125.56 74.1131 126.454 74.4754 126.953C74.8376 127.447 73.1263 132.974 72.814 134.323C72.5017 135.672 70.5655 138.146 72.002 137.602C73.4386 137.065 78.9224 129.064 78.9224 127.628C78.9224 126.191 78.6976 118.64 78.6976 116.036H78.7475Z" fill="url(#paint0_linear_24_2841)"/>
<path d="M69.5244 115.11C69.2571 111.889 69.4723 100.466 69.4723 96.2417C69.4723 92.0169 67.5685 78.3777 67.1447 74.8375C66.721 71.2973 65.9842 56.602 65.2931 48.9413C64.6021 41.2807 60.2208 37.6818 53.5055 36.3648C47.4357 35.1717 45.382 31.3773 45.0495 29.141C47.5335 27.1134 49.1634 24.2317 49.6068 21.0501L49.698 20.3981C49.9328 20.2481 50.2196 19.9482 50.5782 19.4462C53.3034 15.6452 52.1103 12.2811 50.8716 13.1352L50.7999 13.2395C50.8977 12.6527 50.9498 12.0594 50.9498 11.4466C50.9498 5.40281 46.0535 0.5 40.0033 0.5C33.953 0.5 29.0567 5.39629 29.0567 11.4466C29.0567 12.0594 29.1089 12.6527 29.2066 13.2395L29.1349 13.1352C27.8897 12.2811 26.6966 15.6452 29.4283 19.4462C29.7869 19.9417 30.0738 20.2416 30.3085 20.3981L30.3998 21.0501C30.8431 24.2252 32.473 27.1134 34.957 29.141C34.6245 31.3773 32.5708 35.1717 26.501 36.3648C19.7857 37.6883 15.4045 41.2807 14.7134 48.9413C14.0288 56.602 13.2856 71.2973 12.8618 74.8375C12.438 78.3777 10.5342 92.0169 10.5342 96.2417C10.5342 100.466 10.7429 111.889 10.4821 115.11C10.2148 118.337 9.47806 121.453 9.68669 124.674C9.89532 127.895 11.6948 133.397 14.2309 134.238C15.3393 134.506 14.2309 132.074 13.8071 131.383C13.3834 130.698 12.3272 128.899 12.3793 127.627C12.4315 126.356 12.4315 125.3 13.2269 125.039C14.0223 124.778 14.3352 126.043 14.3352 127.471C14.3352 128.899 14.3874 130.007 14.9676 130.007C15.5479 130.007 15.8674 128.579 15.8152 127.471C15.763 126.363 15.8674 124.087 15.763 122.184C15.6587 120.28 14.5504 118.011 14.6547 116.055C14.7003 115.168 15.424 109.151 16.6628 102.787C18.1492 95.1529 20.2095 86.8403 20.4703 83.8152C20.4703 78.8993 22.6348 64.9472 23.4302 64.9472C24.2256 64.9472 25.9142 71.8385 25.9142 81.2464C25.9142 92.0821 17.7189 96.0526 17.7189 108.205C17.7189 137.518 25.7512 152.018 26.1554 159.32C26.1554 161.797 26.338 165.077 26.4619 166.654C26.5857 170.234 24.519 174.85 24.519 179.224C24.519 191.429 32.8381 210.428 32.8381 220.142C32.8381 222.509 33.2032 223.904 32.3491 225.605C31.5016 227.307 25.1253 231.916 25.9142 233.377C25.9142 234.166 35.935 235.985 37.0238 235.378C38.1191 234.772 37.8713 230.58 38.1191 229.243C38.3603 227.907 38.9666 224.934 38.9666 222.75C38.9666 220.566 38.419 214.372 38.419 212.37C38.419 211.243 38.6732 198.738 38.5428 187.602C38.4385 178.944 37.9561 171.14 37.8778 169.999C37.6953 168.904 37.6953 164.046 37.9365 162.834C38.1777 161.621 38.9666 154.273 38.9666 150.877C38.9666 147.48 39.6316 125.619 38.6602 118.454C38.6602 118.454 38.7189 117.665 39.9967 117.665C41.2746 117.665 41.3333 118.454 41.3333 118.454C40.3618 125.619 41.0268 147.473 41.0268 150.877C41.0268 154.28 41.8157 161.621 42.057 162.834C42.2982 164.046 42.2982 168.904 42.1156 169.999C42.0374 171.14 41.5484 178.951 41.4506 187.602C41.3202 198.738 41.5745 211.243 41.5745 212.37C41.5745 214.372 41.0268 220.566 41.0268 222.75C41.0268 224.934 41.6332 227.913 41.8744 229.243C42.1156 230.58 41.8744 234.766 42.9697 235.378C44.065 235.985 54.0793 234.166 54.0793 233.377C54.8682 231.923 48.4919 227.307 47.6443 225.605C46.7968 223.904 47.1619 222.509 47.1619 220.142C47.1619 210.428 55.481 191.423 55.481 179.224C55.481 174.856 53.4143 170.24 53.5381 166.654C53.662 165.077 53.8446 161.797 53.8446 159.32C54.2488 152.018 62.281 137.518 62.281 108.205C62.281 96.0461 54.0858 92.0821 54.0858 81.2464C54.0858 71.8385 55.7744 64.9472 56.5698 64.9472C57.3652 64.9472 59.5297 78.8993 59.5297 83.8152C59.7905 86.8403 61.8507 95.1594 63.3372 102.787C64.576 109.151 65.2997 115.162 65.3453 116.055C65.4496 118.011 64.3413 120.286 64.237 122.184C64.1326 124.087 64.237 126.356 64.1848 127.471C64.1326 128.586 64.4521 130.007 65.0324 130.007C65.6126 130.007 65.6648 128.899 65.6648 127.471C65.6648 126.043 65.9842 124.778 66.7731 125.039C67.5685 125.306 67.5685 126.363 67.6207 127.627C67.6728 128.892 66.6166 130.692 66.1929 131.383C65.7691 132.067 64.6607 134.499 65.7691 134.238C68.3052 133.391 70.1047 127.895 70.3133 124.674C70.5219 121.447 69.7852 118.33 69.5179 115.11H69.5244Z" fill="url(#paint1_linear_24_2841)"/>
<defs>
<linearGradient id="paint0_linear_24_2841" x1="55.2457" y1="16.95" x2="-222.339" y2="214.508" gradientUnits="userSpaceOnUse">
<stop stop-color="#003E39" stop-opacity="0.56"/>
<stop offset="0.435146" stop-color="#003E39" stop-opacity="0"/>
</linearGradient>
<linearGradient id="paint1_linear_24_2841" x1="52.14" y1="16.95" x2="-195.341" y2="152.416" gradientUnits="userSpaceOnUse">
<stop stop-color="#003E39" stop-opacity="0.56"/>
<stop offset="0.435146" stop-color="#003E39" stop-opacity="0"/>
</linearGradient>
</defs>
</svg>
