<svg width="16" height="16" viewBox="0 0 16 16" fill="none" xmlns="http://www.w3.org/2000/svg">
<g id="gender-male">
<path id="Vector" d="M12.585 6.44165C12.585 4.08676 10.6801 2.18188 8.32519 2.18188C5.97031 2.18188 4.06543 4.08676 4.06543 6.44165C4.06543 8.63198 5.71545 10.432 7.84533 10.6716V12.5319L7.14044 11.827C6.94532 11.6319 6.64532 11.6319 6.45019 11.827C6.25507 12.0221 6.25507 12.3221 6.45019 12.5172L7.98007 14.0471C8.02518 14.0922 8.08495 14.1221 8.14531 14.152C8.20508 14.1672 8.26543 14.1819 8.32519 14.1819C8.38496 14.1819 8.44531 14.1667 8.50507 14.152C8.56484 14.1221 8.62519 14.0922 8.67032 14.0471L10.2002 12.5172C10.3953 12.3221 10.3953 12.0221 10.2002 11.827C10.0051 11.6319 9.70506 11.6319 9.50994 11.827L8.80505 12.5319V10.6722C10.9349 10.4319 12.585 8.63183 12.585 6.44165ZM8.32519 9.72699C6.50987 9.72699 5.04044 8.25685 5.04044 6.44225C5.04044 4.62692 6.51059 3.1575 8.32519 3.1575C10.1405 3.1575 11.6099 4.62764 11.6099 6.44225C11.6099 8.25685 10.1404 9.72699 8.32519 9.72699Z" fill="#00625B"/>
</g>
</svg>
