<svg width="16" height="16" viewBox="0 0 16 16" fill="none" xmlns="http://www.w3.org/2000/svg">
<g id="gender-male">
<path id="Vector" d="M4.08262 6.40045C2.41746 8.0656 2.41747 10.7595 4.08262 12.4247C5.74777 14.0898 8.44168 14.0898 10.1068 12.4247C11.6556 10.8759 11.7617 8.43631 10.425 6.76087L11.7405 5.44542L11.7405 6.44228C11.7405 6.71823 11.9526 6.93036 12.2286 6.93036C12.5045 6.93036 12.7166 6.71823 12.7166 6.44228L12.7166 4.27871C12.7166 4.21491 12.6955 4.15152 12.674 4.08771C12.6425 4.03467 12.6102 3.98164 12.5679 3.93938C12.5256 3.89712 12.4722 3.86521 12.4196 3.83331C12.3562 3.81218 12.2924 3.79064 12.2286 3.79063L10.065 3.79063C9.78905 3.79063 9.57692 4.00277 9.57692 4.27871C9.57692 4.55466 9.78905 4.7668 10.065 4.7668L11.0619 4.7668L9.74684 6.08182C8.07091 4.74565 5.63131 4.85176 4.08262 6.40045ZM9.41782 7.08946C10.7014 8.37309 10.7009 10.4517 9.41782 11.7348C8.13419 13.0184 6.0556 13.0179 4.77248 11.7348C3.48885 10.4512 3.48936 8.37258 4.77248 7.08946C6.0556 5.80634 8.13428 5.80593 9.41782 7.08946Z" fill="#00625B"/>
</g>
</svg>
