<svg width="24" height="24" viewBox="0 0 24 24" fill="none" xmlns="http://www.w3.org/2000/svg">
<g id="Grip Strength">
<path id="Vector" d="M12.4508 4.37667C11.5136 4.37667 10.7512 5.13908 10.7512 6.07889C10.7537 7.01525 11.5161 7.77593 12.4508 7.77593C13.388 7.77593 14.1504 7.01352 14.1504 6.0763C14.1504 5.13908 13.388 4.37667 12.4508 4.37667ZM12.4508 7.1036C11.8857 7.1036 11.4253 6.64322 11.4236 6.07725C11.4236 5.51128 11.8839 5.0509 12.4508 5.0509C13.0167 5.0509 13.4771 5.51128 13.4771 6.07725C13.4771 6.64322 13.0167 7.1036 12.4508 7.1036ZM18.8909 18.6531L17.5115 10.8941C17.4267 10.4294 16.9784 10.1179 16.5137 10.1992L16.2878 10.2399L15.5228 5.93628C15.4484 4.28686 14.1062 3 12.4508 3C10.8056 3 9.43228 4.3301 9.37601 5.96996L8.6162 10.239L8.38861 10.1984C7.92389 10.117 7.47649 10.4286 7.39168 10.8941L6.03043 18.551C5.93957 19.0633 6.0538 19.5799 6.35149 20.0065C6.64918 20.4332 7.09573 20.7179 7.60804 20.8088L7.93775 20.8676C8.05372 20.8884 8.16968 20.8988 8.28477 20.8988C8.67938 20.8988 9.06362 20.7785 9.3942 20.5483C9.82084 20.2506 10.1055 19.8049 10.1956 19.2926L11.5568 11.6364C11.5975 11.4106 11.5481 11.1821 11.4166 10.9943C11.2851 10.8057 11.0869 10.6793 10.861 10.6404L10.6343 10.5997L10.9597 8.76852C11.4123 9.01948 11.9255 9.15449 12.449 9.15449C12.9735 9.15449 13.4884 9.01862 13.9418 8.7668L14.2681 10.5997L14.0422 10.6395C13.8155 10.6793 13.6182 10.8048 13.4858 10.9934C13.3543 11.1812 13.3032 11.4097 13.343 11.6364L14.7233 19.3938C14.8142 19.9061 15.0989 20.3518 15.5247 20.6495C15.8553 20.8806 16.2395 21 16.6341 21C16.7492 21 16.8652 20.9896 16.9803 20.9688L17.3108 20.91C17.824 20.8191 18.2705 20.5344 18.5682 20.1069C18.866 19.6803 18.9793 19.1637 18.8884 18.6522L18.8909 18.6531ZM10.8652 11.3786C10.8938 11.4193 10.9042 11.4678 10.8955 11.5162V11.5171L9.53426 19.174C9.47541 19.5089 9.28848 19.8005 9.00983 19.9952C8.73118 20.1899 8.39194 20.2643 8.05704 20.2046L7.72645 20.1458C7.39155 20.0869 7.09992 19.9 6.90434 19.6213C6.70963 19.3427 6.63522 19.0035 6.69405 18.6686L8.0553 11.0133C8.07175 10.9215 8.1505 10.8584 8.23963 10.8584C8.25088 10.8584 8.26127 10.8592 8.27252 10.8609L8.82636 10.9596C8.82809 10.9596 8.82896 10.9605 8.83069 10.9605L9.59655 11.0963L10.7449 11.3014C10.7943 11.3101 10.8367 11.3369 10.8652 11.3776L10.8652 11.3786ZM10.9336 7.93969C10.841 7.86353 10.7155 7.84277 10.603 7.8843C10.4905 7.92584 10.4092 8.02363 10.3884 8.14133L9.97214 10.4812L9.52992 10.4025L9.27896 10.3575L10.0431 6.06427C10.0457 6.04783 10.0474 6.03052 10.0483 6.01408C10.0812 4.72379 11.1586 3.67418 12.4507 3.67418C13.7531 3.67418 14.8089 4.69362 14.853 5.99525V6.00217C14.8548 6.02727 14.8539 6.05323 14.8539 6.07833C14.8539 6.80092 14.532 7.47939 13.9695 7.9389C13.5428 8.28938 13.0028 8.48236 12.4498 8.48236C11.8969 8.48236 11.3586 8.29024 10.9337 7.94063L10.9336 7.93969ZM14.9308 10.4814L14.5466 8.3214C14.7811 8.10246 14.9767 7.85322 15.1299 7.57975L15.624 10.3585L15.3419 10.4087L14.9308 10.4814ZM18.0186 19.7229C17.8239 20.0024 17.5314 20.1894 17.1957 20.2482L16.8642 20.3071C16.5293 20.3668 16.1901 20.2924 15.9114 20.0976C15.6328 19.9029 15.4467 19.6113 15.387 19.2764L14.0067 11.519C13.998 11.4696 14.0093 11.4203 14.0378 11.3796C14.0664 11.339 14.1097 11.3113 14.1599 11.3026L15.3532 11.0897L16.0741 10.9617C16.0758 10.9617 16.0767 10.9608 16.0784 10.9608L16.6314 10.8621C16.6427 10.8604 16.653 10.8595 16.6643 10.8595C16.7534 10.8595 16.833 10.9236 16.8495 11.0136L18.2281 18.7719C18.2878 19.1068 18.2134 19.4443 18.0186 19.7238L18.0186 19.7229Z" fill="#00625B"/>
</g>
</svg>
