<svg width="24" height="24" viewBox="0 0 24 24" fill="none" xmlns="http://www.w3.org/2000/svg">
<g id="Sugar Check">
<g id="Vector">
<mask id="path-1-inside-1_2475_3593" fill="white">
<path d="M17.5561 3.35742C17.3329 3.12721 17.0326 3 16.7115 3H8.1775C7.85643 3 7.55613 3.12722 7.33285 3.35742C7.10958 3.58763 6.99101 3.89139 7.00053 4.21246L7.27574 13.2977C7.34324 15.4828 8.7556 17.3635 10.8118 18.0445V20.7343C10.8118 20.8814 10.9313 21 11.0775 21H13.8114C13.9585 21 14.0771 20.8806 14.0771 20.7343V18.0445C16.1333 17.3634 17.5465 15.4837 17.6132 13.2977L17.8884 4.21246C17.8979 3.89139 17.7803 3.58763 17.5561 3.35742ZM13.5457 20.4693H11.3432V16.4442H13.5457V20.4693ZM17.0818 13.2821C17.0238 15.1834 15.8313 16.8304 14.0772 17.4855V16.4444H14.2667C14.4138 16.4444 14.5324 16.3249 14.5324 16.1787C14.5324 16.0316 14.413 15.913 14.2667 15.913H10.6207C10.4736 15.913 10.355 16.0324 10.355 16.1787C10.355 16.3258 10.4745 16.4444 10.6207 16.4444H10.8102V17.4855C9.05603 16.8304 7.86344 15.1843 7.80562 13.2829L7.53041 4.19775C7.52522 4.0212 7.59013 3.85504 7.71302 3.72869C7.83591 3.60234 8.00034 3.53311 8.17689 3.53311H16.7109C16.8874 3.53311 17.0519 3.60234 17.1748 3.72869C17.2976 3.85504 17.3626 4.02206 17.3574 4.19775L17.0822 13.2829L17.0818 13.2821ZM16.2415 4.36745H8.64663C8.5748 4.36745 8.50556 4.39688 8.45623 4.44794C8.40604 4.49986 8.37921 4.5691 8.38094 4.64093L8.60249 12.0082C8.60682 12.1519 8.72451 12.2661 8.86817 12.2661H16.0199C16.1636 12.2661 16.2813 12.1519 16.2856 12.0082L16.5072 4.64093C16.5097 4.5691 16.4821 4.499 16.4319 4.44794C16.3817 4.39601 16.3133 4.36745 16.2415 4.36745ZM15.762 11.7348H9.12603L8.92006 4.89895H15.9672L15.7613 11.7348H15.762ZM9.3735 7.32887L9.34667 6.44096C9.34235 6.29384 9.45745 6.17182 9.60458 6.16748C9.75516 6.16488 9.87371 6.27825 9.87805 6.42538L9.90488 7.3133C9.90921 7.46042 9.79411 7.58243 9.64698 7.58677H9.63919C9.4964 7.58677 9.37782 7.4734 9.3735 7.32887ZM12.4439 20.0895C12.842 20.0895 13.1657 19.7659 13.1657 19.3678C13.1657 18.9697 12.842 18.646 12.4439 18.646C12.0458 18.646 11.7222 18.9697 11.7222 19.3678C11.7222 19.7659 12.0458 20.0895 12.4439 20.0895ZM12.4439 19.1782C12.5486 19.1782 12.6334 19.2631 12.6334 19.3678C12.6334 19.4725 12.5486 19.5573 12.4439 19.5573C12.3392 19.5573 12.2544 19.4725 12.2544 19.3678C12.2544 19.2631 12.3392 19.1782 12.4439 19.1782ZM12.4439 13.2146C11.9203 13.2146 11.4945 13.6404 11.4945 14.164C11.4945 14.6876 11.9203 15.1134 12.4439 15.1134C12.9675 15.1134 13.3933 14.6876 13.3933 14.164C13.3933 13.6404 12.9675 13.2146 12.4439 13.2146ZM12.4439 14.582C12.2137 14.582 12.0259 14.3951 12.0259 14.164C12.0259 13.9338 12.2129 13.746 12.4439 13.746C12.6741 13.746 12.8619 13.933 12.8619 14.164C12.8619 14.3942 12.675 14.582 12.4439 14.582ZM15.5837 13.9338L14.3998 13.2501C14.3176 13.2025 14.2163 13.2025 14.1341 13.2501C14.0519 13.2977 14.0008 13.3851 14.0008 13.4803V14.8477C14.0008 14.9429 14.0519 15.0303 14.1341 15.0779C14.1748 15.1013 14.2215 15.1134 14.2674 15.1134C14.3132 15.1134 14.3591 15.1013 14.4006 15.0779L15.5845 14.3942C15.6668 14.3467 15.7178 14.2592 15.7178 14.164C15.7178 14.0688 15.6668 13.9814 15.5845 13.9338L15.5837 13.9338ZM14.5331 14.3873V13.9407L14.9199 14.164L14.5331 14.3873ZM10.7537 13.2501C10.6715 13.2025 10.5702 13.2025 10.488 13.2501L9.30411 13.9338C9.2219 13.9814 9.17084 14.0688 9.17084 14.164C9.17084 14.2592 9.2219 14.3466 9.30411 14.3942L10.488 15.0779C10.5287 15.1013 10.5754 15.1134 10.6213 15.1134C10.6672 15.1134 10.713 15.1013 10.7546 15.0779C10.8368 15.0303 10.8878 14.9429 10.8878 14.8477V13.4803C10.8878 13.3851 10.8368 13.2977 10.7546 13.2501L10.7537 13.2501ZM10.3547 14.3873L9.96789 14.164L10.3547 13.9407V14.3873Z"/>
</mask>
<path d="M17.5561 3.35742C17.3329 3.12721 17.0326 3 16.7115 3H8.1775C7.85643 3 7.55613 3.12722 7.33285 3.35742C7.10958 3.58763 6.99101 3.89139 7.00053 4.21246L7.27574 13.2977C7.34324 15.4828 8.7556 17.3635 10.8118 18.0445V20.7343C10.8118 20.8814 10.9313 21 11.0775 21H13.8114C13.9585 21 14.0771 20.8806 14.0771 20.7343V18.0445C16.1333 17.3634 17.5465 15.4837 17.6132 13.2977L17.8884 4.21246C17.8979 3.89139 17.7803 3.58763 17.5561 3.35742ZM13.5457 20.4693H11.3432V16.4442H13.5457V20.4693ZM17.0818 13.2821C17.0238 15.1834 15.8313 16.8304 14.0772 17.4855V16.4444H14.2667C14.4138 16.4444 14.5324 16.3249 14.5324 16.1787C14.5324 16.0316 14.413 15.913 14.2667 15.913H10.6207C10.4736 15.913 10.355 16.0324 10.355 16.1787C10.355 16.3258 10.4745 16.4444 10.6207 16.4444H10.8102V17.4855C9.05603 16.8304 7.86344 15.1843 7.80562 13.2829L7.53041 4.19775C7.52522 4.0212 7.59013 3.85504 7.71302 3.72869C7.83591 3.60234 8.00034 3.53311 8.17689 3.53311H16.7109C16.8874 3.53311 17.0519 3.60234 17.1748 3.72869C17.2976 3.85504 17.3626 4.02206 17.3574 4.19775L17.0822 13.2829L17.0818 13.2821ZM16.2415 4.36745H8.64663C8.5748 4.36745 8.50556 4.39688 8.45623 4.44794C8.40604 4.49986 8.37921 4.5691 8.38094 4.64093L8.60249 12.0082C8.60682 12.1519 8.72451 12.2661 8.86817 12.2661H16.0199C16.1636 12.2661 16.2813 12.1519 16.2856 12.0082L16.5072 4.64093C16.5097 4.5691 16.4821 4.499 16.4319 4.44794C16.3817 4.39601 16.3133 4.36745 16.2415 4.36745ZM15.762 11.7348H9.12603L8.92006 4.89895H15.9672L15.7613 11.7348H15.762ZM9.3735 7.32887L9.34667 6.44096C9.34235 6.29384 9.45745 6.17182 9.60458 6.16748C9.75516 6.16488 9.87371 6.27825 9.87805 6.42538L9.90488 7.3133C9.90921 7.46042 9.79411 7.58243 9.64698 7.58677H9.63919C9.4964 7.58677 9.37782 7.4734 9.3735 7.32887ZM12.4439 20.0895C12.842 20.0895 13.1657 19.7659 13.1657 19.3678C13.1657 18.9697 12.842 18.646 12.4439 18.646C12.0458 18.646 11.7222 18.9697 11.7222 19.3678C11.7222 19.7659 12.0458 20.0895 12.4439 20.0895ZM12.4439 19.1782C12.5486 19.1782 12.6334 19.2631 12.6334 19.3678C12.6334 19.4725 12.5486 19.5573 12.4439 19.5573C12.3392 19.5573 12.2544 19.4725 12.2544 19.3678C12.2544 19.2631 12.3392 19.1782 12.4439 19.1782ZM12.4439 13.2146C11.9203 13.2146 11.4945 13.6404 11.4945 14.164C11.4945 14.6876 11.9203 15.1134 12.4439 15.1134C12.9675 15.1134 13.3933 14.6876 13.3933 14.164C13.3933 13.6404 12.9675 13.2146 12.4439 13.2146ZM12.4439 14.582C12.2137 14.582 12.0259 14.3951 12.0259 14.164C12.0259 13.9338 12.2129 13.746 12.4439 13.746C12.6741 13.746 12.8619 13.933 12.8619 14.164C12.8619 14.3942 12.675 14.582 12.4439 14.582ZM15.5837 13.9338L14.3998 13.2501C14.3176 13.2025 14.2163 13.2025 14.1341 13.2501C14.0519 13.2977 14.0008 13.3851 14.0008 13.4803V14.8477C14.0008 14.9429 14.0519 15.0303 14.1341 15.0779C14.1748 15.1013 14.2215 15.1134 14.2674 15.1134C14.3132 15.1134 14.3591 15.1013 14.4006 15.0779L15.5845 14.3942C15.6668 14.3467 15.7178 14.2592 15.7178 14.164C15.7178 14.0688 15.6668 13.9814 15.5845 13.9338L15.5837 13.9338ZM14.5331 14.3873V13.9407L14.9199 14.164L14.5331 14.3873ZM10.7537 13.2501C10.6715 13.2025 10.5702 13.2025 10.488 13.2501L9.30411 13.9338C9.2219 13.9814 9.17084 14.0688 9.17084 14.164C9.17084 14.2592 9.2219 14.3466 9.30411 14.3942L10.488 15.0779C10.5287 15.1013 10.5754 15.1134 10.6213 15.1134C10.6672 15.1134 10.713 15.1013 10.7546 15.0779C10.8368 15.0303 10.8878 14.9429 10.8878 14.8477V13.4803C10.8878 13.3851 10.8368 13.2977 10.7546 13.2501L10.7537 13.2501ZM10.3547 14.3873L9.96789 14.164L10.3547 13.9407V14.3873Z" fill="#00625B" stroke="#00625B" stroke-width="0.2" mask="url(#path-1-inside-1_2475_3593)"/>
</g>
</g>
</svg>
