<svg width="27" height="18" viewBox="0 0 27 18" fill="none" xmlns="http://www.w3.org/2000/svg">
<path d="M18.5999 6.66C18.5999 6.33 18.4199 6 18.0899 5.85L17.9999 5.82V4.5H17.3999V5.82L17.3099 5.88C17.0099 6.03 16.7999 6.36 16.7999 6.69V8.1H17.3999V14.7C17.3999 16.2 16.1999 17.4 14.6999 17.4H14.3999C12.8999 17.4 11.6999 16.2 11.6999 14.7V10.2H11.9999C12.5099 10.2 12.8999 9.81 12.8999 9.3V8.91C13.7699 8.64 14.3999 7.86 14.3999 6.9V2.1C14.3999 0.93 13.4699 0 12.2999 0H10.4999C9.3299 0 8.3999 0.93 8.3999 2.1V6.9C8.3999 7.86 9.0299 8.64 9.8999 8.91V9.3C9.8999 9.81 10.2899 10.2 10.7999 10.2H11.0999V14.7C11.0999 16.53 12.5699 18 14.3999 18H14.6999C16.5299 18 17.9999 16.53 17.9999 14.7V8.1H18.5999V6.66ZM10.4999 0.6H12.2999C13.1399 0.6 13.7999 1.26 13.7999 2.1V2.43C13.0499 2.49 12.3299 2.64 11.6399 2.94C11.1899 3.15 10.7099 3.27 10.1999 3.3C9.4199 3.3 9.0899 3.03 8.9999 2.91V2.1C8.9999 1.26 9.6599 0.6 10.4999 0.6ZM8.9999 6.9V3.66C9.2699 3.81 9.6599 3.9 10.1999 3.9C10.7699 3.87 11.3399 3.72 11.8499 3.51C12.4799 3.24 13.1399 3.09 13.7999 3.03V6.9C13.7999 7.74 13.1399 8.4 12.2999 8.4H10.4999C9.6599 8.4 8.9999 7.74 8.9999 6.9ZM10.4999 9.3V9H12.2999V9.3C12.2999 9.48 12.1799 9.6 11.9999 9.6H10.7999C10.6199 9.6 10.4999 9.48 10.4999 9.3ZM17.9999 7.5H17.3999V6.66C17.3999 6.54 17.4599 6.45 17.5499 6.39L17.6999 6.33L17.8499 6.39C17.9399 6.45 18.0299 6.54 17.9999 6.66V7.5Z" fill="#00625B"/>
</svg>
