<svg width="24" height="24" viewBox="0 0 24 24" fill="none" xmlns="http://www.w3.org/2000/svg">
<g id="Lifestyle">
<g id="Vector">
<mask id="path-1-outside-1_2210_3025" maskUnits="userSpaceOnUse" x="2" y="2" width="20" height="20" fill="black">
<rect fill="white" x="2" y="2" width="20" height="20"/>
<path d="M18.8219 14.9898C18.4632 15.8056 17.9611 16.5511 17.3386 17.189C17.2873 17.2446 17.2156 17.2769 17.1396 17.279C17.0637 17.2811 16.9905 17.2523 16.9364 17.1995C16.8815 17.1468 16.8513 17.0744 16.8506 16.9984C16.8506 16.9225 16.8815 16.85 16.9357 16.7966C17.5109 16.2065 17.9758 15.518 18.3071 14.7634C18.3697 14.6213 18.5356 14.5566 18.6777 14.6192C18.8198 14.6818 18.8845 14.847 18.8219 14.9898ZM15.584 6.12144C16.7367 6.8219 17.6574 7.84658 18.2297 9.06815C18.2958 9.2088 18.4632 9.26858 18.6039 9.20247C18.7445 9.13636 18.805 8.96898 18.7389 8.82833C18.1193 7.50758 17.1242 6.39852 15.8772 5.64182C15.7442 5.56094 15.5712 5.60243 15.4904 5.73535C15.4095 5.86757 15.4518 6.04057 15.584 6.12144ZM5.51804 8.94716C5.55813 8.96826 5.60244 8.97881 5.64745 8.97881C5.75224 8.97881 5.84859 8.92043 5.89781 8.8269C6.4766 7.7115 7.35078 6.77607 8.42466 6.12217C8.55688 6.04129 8.59907 5.86828 8.5182 5.73607C8.43732 5.60315 8.26431 5.56096 8.1314 5.64183C6.97029 6.34933 6.02512 7.36135 5.39768 8.56747C5.32665 8.70531 5.3802 8.87541 5.51804 8.94716ZM7.07018 17.1931V17.1924C6.95906 17.3014 6.78043 17.2993 6.67213 17.1882C5.98643 16.4807 5.44772 15.6445 5.08624 14.7282C5.03701 14.7317 4.98778 14.7331 4.9505 14.7331C4.38084 14.7113 3.8548 14.4236 3.52918 13.9567C3.16559 13.4559 2.97992 12.849 3.00172 12.2308C3.03056 10.877 3.94412 9.79327 5.05255 9.81866L5.12217 9.82499H5.12147C5.32331 9.83694 5.52022 9.88688 5.70309 9.97267L5.72841 9.49093C5.72911 9.41567 5.76146 9.34394 5.81772 9.2933C5.87398 9.24265 5.94853 9.21805 6.02378 9.22438C6.09832 9.2286 6.16795 9.26165 6.21788 9.31651C6.26781 9.37206 6.29383 9.4452 6.29031 9.51975L6.2657 9.98814V9.98744C6.47879 9.90516 6.70384 9.86085 6.9317 9.85663C7.40922 9.87351 7.85932 10.081 8.18283 10.4326C8.65965 10.958 8.91073 11.65 8.88118 12.3589C8.85235 13.6979 7.95074 14.771 6.86492 14.7725H6.83117C6.495 14.764 6.16938 14.6557 5.89511 14.4623C5.81353 14.5129 5.72843 14.5565 5.63981 14.5938C5.97317 15.4124 6.46054 16.16 7.07521 16.7957C7.18351 16.9068 7.1814 17.0848 7.07099 17.193L7.07018 17.1931ZM5.19237 14.1472C5.38647 14.1086 5.56862 14.0213 5.71983 13.8933L5.90479 13.74L6.08483 13.899C6.29158 14.0896 6.56024 14.2 6.84085 14.2098H6.86406C7.64611 14.2098 8.29593 13.38 8.31773 12.3468C8.34445 11.787 8.15035 11.2391 7.77621 10.8214C7.55749 10.5766 7.24875 10.431 6.92032 10.4184C6.64041 10.4198 6.36965 10.5175 6.15234 10.6941L5.9723 10.8361L5.79719 10.6877C5.60168 10.5098 5.352 10.4036 5.08898 10.3867L5.01725 10.3741H5.00389C4.24363 10.3741 3.58889 11.206 3.56708 12.2434L3.56638 12.2427C3.54669 12.735 3.69156 13.2189 3.97851 13.619C4.20075 13.9453 4.56223 14.15 4.95607 14.1718C5.03554 14.1739 5.11501 14.1655 5.19237 14.1472ZM8.89164 5.5743C8.44575 4.84711 8.60611 3.9026 9.26718 3.36396C9.97819 2.81893 10.9846 2.89346 11.6077 3.53767L11.889 3.82532C11.9579 3.88369 12.0599 3.88158 12.126 3.81899L12.3975 3.54049H12.3968C13.0192 2.89418 14.0277 2.81822 14.7402 3.36396C15.4012 3.90478 15.5609 4.85139 15.1136 5.57935C15.0468 5.69398 14.9652 5.79948 14.871 5.89301L12.5193 8.24414C12.2345 8.52756 11.7738 8.52756 11.489 8.24414L9.1373 5.89301C9.04165 5.79807 8.95937 5.69117 8.89185 5.57443L8.89164 5.5743ZM9.37479 5.28595H9.37409C9.41839 5.36261 9.47255 5.43294 9.53514 5.49554L11.8863 7.84667C11.9517 7.91137 12.0565 7.91137 12.1219 7.84667L14.473 5.495C14.5328 5.43522 14.5848 5.36841 14.6277 5.29596L14.6341 5.28541C14.9351 4.79734 14.8282 4.16157 14.3837 3.79869C13.897 3.4358 13.2148 3.49417 12.7971 3.93512L12.5221 4.21784C12.2352 4.49281 11.783 4.49493 11.4925 4.22346L11.2084 3.93301C10.9721 3.6953 10.6521 3.56097 10.3166 3.55887C10.0649 3.55605 9.82013 3.64115 9.62461 3.79868C9.18013 4.16157 9.07394 4.79734 9.37495 5.28541L9.37479 5.28595ZM16.8718 17.9857C16.8718 18.0603 16.8423 18.132 16.7895 18.1848C16.7368 18.2375 16.665 18.2671 16.5905 18.2671H16.2255V19.2263C16.2255 19.848 15.8296 20.3537 15.3436 20.3537C15.2276 20.3502 15.1143 20.3185 15.0131 20.2616C14.8471 20.7046 14.5208 21 14.1361 21C13.5763 21 13.1374 20.3882 13.1374 19.6075V18.2671H10.8707V19.6068C10.8707 20.3874 10.4326 20.9993 9.87205 20.9993C9.48947 20.9993 9.16175 20.7095 8.99507 20.2714H8.99577C8.89309 20.3248 8.77987 20.353 8.66453 20.3537C8.17857 20.3537 7.78263 19.848 7.78263 19.2263V18.2671H7.41763C7.26502 18.2628 7.14336 18.1384 7.14336 17.9858C7.14336 17.8331 7.26503 17.708 7.41763 17.7044H7.78193L7.78263 16.7452C7.78263 16.1242 8.17857 15.6178 8.66453 15.6178C8.77987 15.6185 8.8938 15.6467 8.99577 15.7008C9.16245 15.262 9.49018 14.9722 9.87276 14.9722C10.4326 14.9722 10.8714 15.5841 10.8714 16.3647V17.7044H13.1381V16.364C13.1381 15.5834 13.5763 14.9715 14.1368 14.9715C14.5215 14.9715 14.8485 15.2669 15.0138 15.71C15.1143 15.653 15.2276 15.6213 15.3436 15.6178C15.8296 15.6178 16.2255 16.1242 16.2255 16.7452V17.7037H16.5905C16.665 17.7037 16.7368 17.7333 16.7895 17.786C16.8423 17.8395 16.8718 17.9112 16.8718 17.9857ZM8.8804 16.3576C8.84313 16.2662 8.76155 16.1994 8.6645 16.1804C8.51681 16.1804 8.34522 16.4273 8.34522 16.7452V19.2263C8.34522 19.5441 8.51682 19.791 8.6645 19.791C8.76155 19.772 8.84313 19.7052 8.8804 19.6138V16.3576ZM10.3081 16.364C10.3081 15.8893 10.0781 15.5341 9.87202 15.5341C9.68494 15.5341 9.46342 15.8478 9.44232 16.2972L9.44303 19.6736C9.46413 20.1237 9.68567 20.4367 9.87273 20.4367C10.0788 20.4367 10.3088 20.0815 10.3088 19.6068L10.3081 16.364ZM14.5651 16.2972C14.544 15.8471 14.3225 15.5341 14.1361 15.5341C13.93 15.5341 13.7001 15.8893 13.7001 16.364V19.6068C13.7001 20.0816 13.93 20.4367 14.1361 20.4367C14.3225 20.4367 14.544 20.1231 14.5651 19.6737V16.2972ZM15.6636 16.7452C15.6636 16.4273 15.492 16.1804 15.3443 16.1804H15.3436C15.2466 16.1994 15.165 16.2662 15.1277 16.3577V19.6146C15.165 19.706 15.2466 19.7728 15.3436 19.7918C15.4913 19.7918 15.6629 19.5449 15.6629 19.2271L15.6636 16.7452ZM21.0057 10.1309C20.9987 10.1576 20.9952 10.1843 20.9938 10.2118L20.0605 13.3153C20.0155 13.759 19.5626 14.105 18.962 14.1381C18.9283 14.1444 18.8931 14.1465 18.8586 14.1465C18.1757 14.1465 17.6406 13.7506 17.6406 13.2449C17.6406 12.7365 18.1758 12.337 18.8586 12.337C18.9733 12.3377 19.0872 12.3504 19.199 12.3757C19.3762 12.4101 19.545 12.4812 19.6941 12.5831L20.3475 10.412H17.1939L16.326 13.3188C16.2761 13.7872 15.7669 14.1473 15.1178 14.1473C14.4385 14.1473 13.9061 13.7513 13.9061 13.2457C13.9061 12.7372 14.4384 12.3377 15.1178 12.3377C15.4167 12.3321 15.71 12.4186 15.9575 12.5853L16.7136 10.0507C16.715 10.0458 16.7192 10.0422 16.7206 10.0373H16.7213C16.7283 10.0197 16.7375 10.0021 16.748 9.98668C16.7565 9.9712 16.7663 9.95714 16.7776 9.94378C16.7895 9.93112 16.8029 9.91987 16.8177 9.91002C16.862 9.87907 16.914 9.85938 16.9674 9.85376C16.9731 9.85376 16.9773 9.85024 16.9829 9.85024H20.7243C20.751 9.85727 20.7778 9.86079 20.8052 9.8622C20.8101 9.8636 20.8129 9.86712 20.8179 9.86923H20.8186C20.8516 9.8847 20.8833 9.90299 20.9121 9.92549C20.936 9.95151 20.9578 9.98035 20.9761 10.0113C20.9824 10.0261 20.9873 10.0422 20.9909 10.0584C20.9972 10.0774 21.0007 10.0971 21.0028 10.1168C21.0028 10.1217 21.0057 10.1267 21.0057 10.1309ZM15.7727 13.245C15.7727 13.1044 15.5174 12.8997 15.1173 12.8997C14.7523 12.8997 14.4688 13.0854 14.4688 13.245C14.4695 13.404 14.7466 13.5833 15.1187 13.5833C15.4907 13.5833 15.7727 13.4011 15.7727 13.245ZM19.5064 13.245C19.5064 13.1332 19.3566 12.9827 19.0788 12.9264L19.0795 12.9257C19.0063 12.9089 18.9325 12.8997 18.8579 12.899C18.4578 12.899 18.2025 13.1037 18.2025 13.2443C18.2025 13.4012 18.4887 13.5833 18.8579 13.5833C19.2623 13.5636 19.5064 13.3906 19.5064 13.245Z"/>
</mask>
<path d="M18.8219 14.9898C18.4632 15.8056 17.9611 16.5511 17.3386 17.189C17.2873 17.2446 17.2156 17.2769 17.1396 17.279C17.0637 17.2811 16.9905 17.2523 16.9364 17.1995C16.8815 17.1468 16.8513 17.0744 16.8506 16.9984C16.8506 16.9225 16.8815 16.85 16.9357 16.7966C17.5109 16.2065 17.9758 15.518 18.3071 14.7634C18.3697 14.6213 18.5356 14.5566 18.6777 14.6192C18.8198 14.6818 18.8845 14.847 18.8219 14.9898ZM15.584 6.12144C16.7367 6.8219 17.6574 7.84658 18.2297 9.06815C18.2958 9.2088 18.4632 9.26858 18.6039 9.20247C18.7445 9.13636 18.805 8.96898 18.7389 8.82833C18.1193 7.50758 17.1242 6.39852 15.8772 5.64182C15.7442 5.56094 15.5712 5.60243 15.4904 5.73535C15.4095 5.86757 15.4518 6.04057 15.584 6.12144ZM5.51804 8.94716C5.55813 8.96826 5.60244 8.97881 5.64745 8.97881C5.75224 8.97881 5.84859 8.92043 5.89781 8.8269C6.4766 7.7115 7.35078 6.77607 8.42466 6.12217C8.55688 6.04129 8.59907 5.86828 8.5182 5.73607C8.43732 5.60315 8.26431 5.56096 8.1314 5.64183C6.97029 6.34933 6.02512 7.36135 5.39768 8.56747C5.32665 8.70531 5.3802 8.87541 5.51804 8.94716ZM7.07018 17.1931V17.1924C6.95906 17.3014 6.78043 17.2993 6.67213 17.1882C5.98643 16.4807 5.44772 15.6445 5.08624 14.7282C5.03701 14.7317 4.98778 14.7331 4.9505 14.7331C4.38084 14.7113 3.8548 14.4236 3.52918 13.9567C3.16559 13.4559 2.97992 12.849 3.00172 12.2308C3.03056 10.877 3.94412 9.79327 5.05255 9.81866L5.12217 9.82499H5.12147C5.32331 9.83694 5.52022 9.88688 5.70309 9.97267L5.72841 9.49093C5.72911 9.41567 5.76146 9.34394 5.81772 9.2933C5.87398 9.24265 5.94853 9.21805 6.02378 9.22438C6.09832 9.2286 6.16795 9.26165 6.21788 9.31651C6.26781 9.37206 6.29383 9.4452 6.29031 9.51975L6.2657 9.98814V9.98744C6.47879 9.90516 6.70384 9.86085 6.9317 9.85663C7.40922 9.87351 7.85932 10.081 8.18283 10.4326C8.65965 10.958 8.91073 11.65 8.88118 12.3589C8.85235 13.6979 7.95074 14.771 6.86492 14.7725H6.83117C6.495 14.764 6.16938 14.6557 5.89511 14.4623C5.81353 14.5129 5.72843 14.5565 5.63981 14.5938C5.97317 15.4124 6.46054 16.16 7.07521 16.7957C7.18351 16.9068 7.1814 17.0848 7.07099 17.193L7.07018 17.1931ZM5.19237 14.1472C5.38647 14.1086 5.56862 14.0213 5.71983 13.8933L5.90479 13.74L6.08483 13.899C6.29158 14.0896 6.56024 14.2 6.84085 14.2098H6.86406C7.64611 14.2098 8.29593 13.38 8.31773 12.3468C8.34445 11.787 8.15035 11.2391 7.77621 10.8214C7.55749 10.5766 7.24875 10.431 6.92032 10.4184C6.64041 10.4198 6.36965 10.5175 6.15234 10.6941L5.9723 10.8361L5.79719 10.6877C5.60168 10.5098 5.352 10.4036 5.08898 10.3867L5.01725 10.3741H5.00389C4.24363 10.3741 3.58889 11.206 3.56708 12.2434L3.56638 12.2427C3.54669 12.735 3.69156 13.2189 3.97851 13.619C4.20075 13.9453 4.56223 14.15 4.95607 14.1718C5.03554 14.1739 5.11501 14.1655 5.19237 14.1472ZM8.89164 5.5743C8.44575 4.84711 8.60611 3.9026 9.26718 3.36396C9.97819 2.81893 10.9846 2.89346 11.6077 3.53767L11.889 3.82532C11.9579 3.88369 12.0599 3.88158 12.126 3.81899L12.3975 3.54049H12.3968C13.0192 2.89418 14.0277 2.81822 14.7402 3.36396C15.4012 3.90478 15.5609 4.85139 15.1136 5.57935C15.0468 5.69398 14.9652 5.79948 14.871 5.89301L12.5193 8.24414C12.2345 8.52756 11.7738 8.52756 11.489 8.24414L9.1373 5.89301C9.04165 5.79807 8.95937 5.69117 8.89185 5.57443L8.89164 5.5743ZM9.37479 5.28595H9.37409C9.41839 5.36261 9.47255 5.43294 9.53514 5.49554L11.8863 7.84667C11.9517 7.91137 12.0565 7.91137 12.1219 7.84667L14.473 5.495C14.5328 5.43522 14.5848 5.36841 14.6277 5.29596L14.6341 5.28541C14.9351 4.79734 14.8282 4.16157 14.3837 3.79869C13.897 3.4358 13.2148 3.49417 12.7971 3.93512L12.5221 4.21784C12.2352 4.49281 11.783 4.49493 11.4925 4.22346L11.2084 3.93301C10.9721 3.6953 10.6521 3.56097 10.3166 3.55887C10.0649 3.55605 9.82013 3.64115 9.62461 3.79868C9.18013 4.16157 9.07394 4.79734 9.37495 5.28541L9.37479 5.28595ZM16.8718 17.9857C16.8718 18.0603 16.8423 18.132 16.7895 18.1848C16.7368 18.2375 16.665 18.2671 16.5905 18.2671H16.2255V19.2263C16.2255 19.848 15.8296 20.3537 15.3436 20.3537C15.2276 20.3502 15.1143 20.3185 15.0131 20.2616C14.8471 20.7046 14.5208 21 14.1361 21C13.5763 21 13.1374 20.3882 13.1374 19.6075V18.2671H10.8707V19.6068C10.8707 20.3874 10.4326 20.9993 9.87205 20.9993C9.48947 20.9993 9.16175 20.7095 8.99507 20.2714H8.99577C8.89309 20.3248 8.77987 20.353 8.66453 20.3537C8.17857 20.3537 7.78263 19.848 7.78263 19.2263V18.2671H7.41763C7.26502 18.2628 7.14336 18.1384 7.14336 17.9858C7.14336 17.8331 7.26503 17.708 7.41763 17.7044H7.78193L7.78263 16.7452C7.78263 16.1242 8.17857 15.6178 8.66453 15.6178C8.77987 15.6185 8.8938 15.6467 8.99577 15.7008C9.16245 15.262 9.49018 14.9722 9.87276 14.9722C10.4326 14.9722 10.8714 15.5841 10.8714 16.3647V17.7044H13.1381V16.364C13.1381 15.5834 13.5763 14.9715 14.1368 14.9715C14.5215 14.9715 14.8485 15.2669 15.0138 15.71C15.1143 15.653 15.2276 15.6213 15.3436 15.6178C15.8296 15.6178 16.2255 16.1242 16.2255 16.7452V17.7037H16.5905C16.665 17.7037 16.7368 17.7333 16.7895 17.786C16.8423 17.8395 16.8718 17.9112 16.8718 17.9857ZM8.8804 16.3576C8.84313 16.2662 8.76155 16.1994 8.6645 16.1804C8.51681 16.1804 8.34522 16.4273 8.34522 16.7452V19.2263C8.34522 19.5441 8.51682 19.791 8.6645 19.791C8.76155 19.772 8.84313 19.7052 8.8804 19.6138V16.3576ZM10.3081 16.364C10.3081 15.8893 10.0781 15.5341 9.87202 15.5341C9.68494 15.5341 9.46342 15.8478 9.44232 16.2972L9.44303 19.6736C9.46413 20.1237 9.68567 20.4367 9.87273 20.4367C10.0788 20.4367 10.3088 20.0815 10.3088 19.6068L10.3081 16.364ZM14.5651 16.2972C14.544 15.8471 14.3225 15.5341 14.1361 15.5341C13.93 15.5341 13.7001 15.8893 13.7001 16.364V19.6068C13.7001 20.0816 13.93 20.4367 14.1361 20.4367C14.3225 20.4367 14.544 20.1231 14.5651 19.6737V16.2972ZM15.6636 16.7452C15.6636 16.4273 15.492 16.1804 15.3443 16.1804H15.3436C15.2466 16.1994 15.165 16.2662 15.1277 16.3577V19.6146C15.165 19.706 15.2466 19.7728 15.3436 19.7918C15.4913 19.7918 15.6629 19.5449 15.6629 19.2271L15.6636 16.7452ZM21.0057 10.1309C20.9987 10.1576 20.9952 10.1843 20.9938 10.2118L20.0605 13.3153C20.0155 13.759 19.5626 14.105 18.962 14.1381C18.9283 14.1444 18.8931 14.1465 18.8586 14.1465C18.1757 14.1465 17.6406 13.7506 17.6406 13.2449C17.6406 12.7365 18.1758 12.337 18.8586 12.337C18.9733 12.3377 19.0872 12.3504 19.199 12.3757C19.3762 12.4101 19.545 12.4812 19.6941 12.5831L20.3475 10.412H17.1939L16.326 13.3188C16.2761 13.7872 15.7669 14.1473 15.1178 14.1473C14.4385 14.1473 13.9061 13.7513 13.9061 13.2457C13.9061 12.7372 14.4384 12.3377 15.1178 12.3377C15.4167 12.3321 15.71 12.4186 15.9575 12.5853L16.7136 10.0507C16.715 10.0458 16.7192 10.0422 16.7206 10.0373H16.7213C16.7283 10.0197 16.7375 10.0021 16.748 9.98668C16.7565 9.9712 16.7663 9.95714 16.7776 9.94378C16.7895 9.93112 16.8029 9.91987 16.8177 9.91002C16.862 9.87907 16.914 9.85938 16.9674 9.85376C16.9731 9.85376 16.9773 9.85024 16.9829 9.85024H20.7243C20.751 9.85727 20.7778 9.86079 20.8052 9.8622C20.8101 9.8636 20.8129 9.86712 20.8179 9.86923H20.8186C20.8516 9.8847 20.8833 9.90299 20.9121 9.92549C20.936 9.95151 20.9578 9.98035 20.9761 10.0113C20.9824 10.0261 20.9873 10.0422 20.9909 10.0584C20.9972 10.0774 21.0007 10.0971 21.0028 10.1168C21.0028 10.1217 21.0057 10.1267 21.0057 10.1309ZM15.7727 13.245C15.7727 13.1044 15.5174 12.8997 15.1173 12.8997C14.7523 12.8997 14.4688 13.0854 14.4688 13.245C14.4695 13.404 14.7466 13.5833 15.1187 13.5833C15.4907 13.5833 15.7727 13.4011 15.7727 13.245ZM19.5064 13.245C19.5064 13.1332 19.3566 12.9827 19.0788 12.9264L19.0795 12.9257C19.0063 12.9089 18.9325 12.8997 18.8579 12.899C18.4578 12.899 18.2025 13.1037 18.2025 13.2443C18.2025 13.4012 18.4887 13.5833 18.8579 13.5833C19.2623 13.5636 19.5064 13.3906 19.5064 13.245Z" fill="#00625B"/>
<path d="M18.8219 14.9898C18.4632 15.8056 17.9611 16.5511 17.3386 17.189C17.2873 17.2446 17.2156 17.2769 17.1396 17.279C17.0637 17.2811 16.9905 17.2523 16.9364 17.1995C16.8815 17.1468 16.8513 17.0744 16.8506 16.9984C16.8506 16.9225 16.8815 16.85 16.9357 16.7966C17.5109 16.2065 17.9758 15.518 18.3071 14.7634C18.3697 14.6213 18.5356 14.5566 18.6777 14.6192C18.8198 14.6818 18.8845 14.847 18.8219 14.9898ZM15.584 6.12144C16.7367 6.8219 17.6574 7.84658 18.2297 9.06815C18.2958 9.2088 18.4632 9.26858 18.6039 9.20247C18.7445 9.13636 18.805 8.96898 18.7389 8.82833C18.1193 7.50758 17.1242 6.39852 15.8772 5.64182C15.7442 5.56094 15.5712 5.60243 15.4904 5.73535C15.4095 5.86757 15.4518 6.04057 15.584 6.12144ZM5.51804 8.94716C5.55813 8.96826 5.60244 8.97881 5.64745 8.97881C5.75224 8.97881 5.84859 8.92043 5.89781 8.8269C6.4766 7.7115 7.35078 6.77607 8.42466 6.12217C8.55688 6.04129 8.59907 5.86828 8.5182 5.73607C8.43732 5.60315 8.26431 5.56096 8.1314 5.64183C6.97029 6.34933 6.02512 7.36135 5.39768 8.56747C5.32665 8.70531 5.3802 8.87541 5.51804 8.94716ZM7.07018 17.1931V17.1924C6.95906 17.3014 6.78043 17.2993 6.67213 17.1882C5.98643 16.4807 5.44772 15.6445 5.08624 14.7282C5.03701 14.7317 4.98778 14.7331 4.9505 14.7331C4.38084 14.7113 3.8548 14.4236 3.52918 13.9567C3.16559 13.4559 2.97992 12.849 3.00172 12.2308C3.03056 10.877 3.94412 9.79327 5.05255 9.81866L5.12217 9.82499H5.12147C5.32331 9.83694 5.52022 9.88688 5.70309 9.97267L5.72841 9.49093C5.72911 9.41567 5.76146 9.34394 5.81772 9.2933C5.87398 9.24265 5.94853 9.21805 6.02378 9.22438C6.09832 9.2286 6.16795 9.26165 6.21788 9.31651C6.26781 9.37206 6.29383 9.4452 6.29031 9.51975L6.2657 9.98814V9.98744C6.47879 9.90516 6.70384 9.86085 6.9317 9.85663C7.40922 9.87351 7.85932 10.081 8.18283 10.4326C8.65965 10.958 8.91073 11.65 8.88118 12.3589C8.85235 13.6979 7.95074 14.771 6.86492 14.7725H6.83117C6.495 14.764 6.16938 14.6557 5.89511 14.4623C5.81353 14.5129 5.72843 14.5565 5.63981 14.5938C5.97317 15.4124 6.46054 16.16 7.07521 16.7957C7.18351 16.9068 7.1814 17.0848 7.07099 17.193L7.07018 17.1931ZM5.19237 14.1472C5.38647 14.1086 5.56862 14.0213 5.71983 13.8933L5.90479 13.74L6.08483 13.899C6.29158 14.0896 6.56024 14.2 6.84085 14.2098H6.86406C7.64611 14.2098 8.29593 13.38 8.31773 12.3468C8.34445 11.787 8.15035 11.2391 7.77621 10.8214C7.55749 10.5766 7.24875 10.431 6.92032 10.4184C6.64041 10.4198 6.36965 10.5175 6.15234 10.6941L5.9723 10.8361L5.79719 10.6877C5.60168 10.5098 5.352 10.4036 5.08898 10.3867L5.01725 10.3741H5.00389C4.24363 10.3741 3.58889 11.206 3.56708 12.2434L3.56638 12.2427C3.54669 12.735 3.69156 13.2189 3.97851 13.619C4.20075 13.9453 4.56223 14.15 4.95607 14.1718C5.03554 14.1739 5.11501 14.1655 5.19237 14.1472ZM8.89164 5.5743C8.44575 4.84711 8.60611 3.9026 9.26718 3.36396C9.97819 2.81893 10.9846 2.89346 11.6077 3.53767L11.889 3.82532C11.9579 3.88369 12.0599 3.88158 12.126 3.81899L12.3975 3.54049H12.3968C13.0192 2.89418 14.0277 2.81822 14.7402 3.36396C15.4012 3.90478 15.5609 4.85139 15.1136 5.57935C15.0468 5.69398 14.9652 5.79948 14.871 5.89301L12.5193 8.24414C12.2345 8.52756 11.7738 8.52756 11.489 8.24414L9.1373 5.89301C9.04165 5.79807 8.95937 5.69117 8.89185 5.57443L8.89164 5.5743ZM9.37479 5.28595H9.37409C9.41839 5.36261 9.47255 5.43294 9.53514 5.49554L11.8863 7.84667C11.9517 7.91137 12.0565 7.91137 12.1219 7.84667L14.473 5.495C14.5328 5.43522 14.5848 5.36841 14.6277 5.29596L14.6341 5.28541C14.9351 4.79734 14.8282 4.16157 14.3837 3.79869C13.897 3.4358 13.2148 3.49417 12.7971 3.93512L12.5221 4.21784C12.2352 4.49281 11.783 4.49493 11.4925 4.22346L11.2084 3.93301C10.9721 3.6953 10.6521 3.56097 10.3166 3.55887C10.0649 3.55605 9.82013 3.64115 9.62461 3.79868C9.18013 4.16157 9.07394 4.79734 9.37495 5.28541L9.37479 5.28595ZM16.8718 17.9857C16.8718 18.0603 16.8423 18.132 16.7895 18.1848C16.7368 18.2375 16.665 18.2671 16.5905 18.2671H16.2255V19.2263C16.2255 19.848 15.8296 20.3537 15.3436 20.3537C15.2276 20.3502 15.1143 20.3185 15.0131 20.2616C14.8471 20.7046 14.5208 21 14.1361 21C13.5763 21 13.1374 20.3882 13.1374 19.6075V18.2671H10.8707V19.6068C10.8707 20.3874 10.4326 20.9993 9.87205 20.9993C9.48947 20.9993 9.16175 20.7095 8.99507 20.2714H8.99577C8.89309 20.3248 8.77987 20.353 8.66453 20.3537C8.17857 20.3537 7.78263 19.848 7.78263 19.2263V18.2671H7.41763C7.26502 18.2628 7.14336 18.1384 7.14336 17.9858C7.14336 17.8331 7.26503 17.708 7.41763 17.7044H7.78193L7.78263 16.7452C7.78263 16.1242 8.17857 15.6178 8.66453 15.6178C8.77987 15.6185 8.8938 15.6467 8.99577 15.7008C9.16245 15.262 9.49018 14.9722 9.87276 14.9722C10.4326 14.9722 10.8714 15.5841 10.8714 16.3647V17.7044H13.1381V16.364C13.1381 15.5834 13.5763 14.9715 14.1368 14.9715C14.5215 14.9715 14.8485 15.2669 15.0138 15.71C15.1143 15.653 15.2276 15.6213 15.3436 15.6178C15.8296 15.6178 16.2255 16.1242 16.2255 16.7452V17.7037H16.5905C16.665 17.7037 16.7368 17.7333 16.7895 17.786C16.8423 17.8395 16.8718 17.9112 16.8718 17.9857ZM8.8804 16.3576C8.84313 16.2662 8.76155 16.1994 8.6645 16.1804C8.51681 16.1804 8.34522 16.4273 8.34522 16.7452V19.2263C8.34522 19.5441 8.51682 19.791 8.6645 19.791C8.76155 19.772 8.84313 19.7052 8.8804 19.6138V16.3576ZM10.3081 16.364C10.3081 15.8893 10.0781 15.5341 9.87202 15.5341C9.68494 15.5341 9.46342 15.8478 9.44232 16.2972L9.44303 19.6736C9.46413 20.1237 9.68567 20.4367 9.87273 20.4367C10.0788 20.4367 10.3088 20.0815 10.3088 19.6068L10.3081 16.364ZM14.5651 16.2972C14.544 15.8471 14.3225 15.5341 14.1361 15.5341C13.93 15.5341 13.7001 15.8893 13.7001 16.364V19.6068C13.7001 20.0816 13.93 20.4367 14.1361 20.4367C14.3225 20.4367 14.544 20.1231 14.5651 19.6737V16.2972ZM15.6636 16.7452C15.6636 16.4273 15.492 16.1804 15.3443 16.1804H15.3436C15.2466 16.1994 15.165 16.2662 15.1277 16.3577V19.6146C15.165 19.706 15.2466 19.7728 15.3436 19.7918C15.4913 19.7918 15.6629 19.5449 15.6629 19.2271L15.6636 16.7452ZM21.0057 10.1309C20.9987 10.1576 20.9952 10.1843 20.9938 10.2118L20.0605 13.3153C20.0155 13.759 19.5626 14.105 18.962 14.1381C18.9283 14.1444 18.8931 14.1465 18.8586 14.1465C18.1757 14.1465 17.6406 13.7506 17.6406 13.2449C17.6406 12.7365 18.1758 12.337 18.8586 12.337C18.9733 12.3377 19.0872 12.3504 19.199 12.3757C19.3762 12.4101 19.545 12.4812 19.6941 12.5831L20.3475 10.412H17.1939L16.326 13.3188C16.2761 13.7872 15.7669 14.1473 15.1178 14.1473C14.4385 14.1473 13.9061 13.7513 13.9061 13.2457C13.9061 12.7372 14.4384 12.3377 15.1178 12.3377C15.4167 12.3321 15.71 12.4186 15.9575 12.5853L16.7136 10.0507C16.715 10.0458 16.7192 10.0422 16.7206 10.0373H16.7213C16.7283 10.0197 16.7375 10.0021 16.748 9.98668C16.7565 9.9712 16.7663 9.95714 16.7776 9.94378C16.7895 9.93112 16.8029 9.91987 16.8177 9.91002C16.862 9.87907 16.914 9.85938 16.9674 9.85376C16.9731 9.85376 16.9773 9.85024 16.9829 9.85024H20.7243C20.751 9.85727 20.7778 9.86079 20.8052 9.8622C20.8101 9.8636 20.8129 9.86712 20.8179 9.86923H20.8186C20.8516 9.8847 20.8833 9.90299 20.9121 9.92549C20.936 9.95151 20.9578 9.98035 20.9761 10.0113C20.9824 10.0261 20.9873 10.0422 20.9909 10.0584C20.9972 10.0774 21.0007 10.0971 21.0028 10.1168C21.0028 10.1217 21.0057 10.1267 21.0057 10.1309ZM15.7727 13.245C15.7727 13.1044 15.5174 12.8997 15.1173 12.8997C14.7523 12.8997 14.4688 13.0854 14.4688 13.245C14.4695 13.404 14.7466 13.5833 15.1187 13.5833C15.4907 13.5833 15.7727 13.4011 15.7727 13.245ZM19.5064 13.245C19.5064 13.1332 19.3566 12.9827 19.0788 12.9264L19.0795 12.9257C19.0063 12.9089 18.9325 12.8997 18.8579 12.899C18.4578 12.899 18.2025 13.1037 18.2025 13.2443C18.2025 13.4012 18.4887 13.5833 18.8579 13.5833C19.2623 13.5636 19.5064 13.3906 19.5064 13.245Z" stroke="#00625B" stroke-width="0.2" mask="url(#path-1-outside-1_2210_3025)"/>
</g>
</g>
</svg>
