<?xml version="1.0" encoding="UTF-8"?>
<svg id="Layer_1" data-name="Layer 1" xmlns="http://www.w3.org/2000/svg" viewBox="0 0 158 309">
  <style>
    .cls-1 {
      fill: #003e39;
    }
    .cls-2 {
      stroke-dasharray: 10.54 10.54;
    }
    .cls-2, .cls-3 {
      fill: none;
      stroke: #80c6c0;
      stroke-linecap: round;
      stroke-width: 1.32px;
    }
  </style>
  <path class="cls-1" d="M78.75,153.04c0-2.6-.41-6.74-.41-14.38.18-5.93-2.7-17.75-2.7-20.36-.27-7.86-3.28-16.49-3.37-18.42.22-3.05-.41-8.4-.86-11.64-1.76-7.01-7.01-11.19-13.03-11.91-6.02-.72-12.14-6.16-12.14-7.33v-4.48l.86-.58c1.47-.99,2.39-2.62,2.47-4.4l.12-2.77c2.66-1.15,1.74-6.93.31-6.73l.04-1c.03-.31.04-.61.04-.92,0-5.86-4.75-10.62-10.62-10.62s-10.62,4.75-10.62,10.62c0,.31.02.62.04.92l.04,1c-1.44-.2-2.35,5.58.31,6.73l.12,2.77c.08,1.77,1,3.4,2.47,4.4l.86.58v4.48c0,1.17-6.11,6.61-12.14,7.33-6.02.72-11.28,4.9-13.03,11.91-.45,3.24-1.08,8.58-.86,11.64-.09,1.93-3.1,10.56-3.37,18.42,0,2.6-2.87,14.42-2.7,20.36,0,7.64-.41,11.77-.41,14.38s-.22,10.15-.22,11.59,5.48,9.44,6.92,9.97c1.44.54-.49-1.93-.81-3.28s-2.02-6.88-1.66-7.37c.36-.49.67-1.39,1.35.09.67,1.48,2.11,4.45,3.01,4.32.9-.14-.45-4.13-.45-4.77s-.18-6.61-1.31-8.9c.04-.9,0-1.44,0-2.7s2.7-9.66,4-12.9c1.31-3.24,2.52-11.82,2.79-16.36.27-4.54,1.62-8.54,2.29-10.56.67-2.02,1.21-3.77,1.66-3.91,1.12.27,1.84,17.03,1.99,23.75.16,6.72-2.77,22.61-2.85,32.42-.08,9.81,2.05,19.84,3,25.46s1.42,13.75,1.42,18.11-1.9,8.14-1.34,15.34c.56,7.2,4.82,18.66,5.93,24.12,1.11,5.45,2.92,12.73,2.61,14.46-.32,1.74-5.45,5.53-5.53,7.11-.08,1.58,3.56,1.66,5.22,2.05,1.66.39,6.88,2.61,7.98.56s.32-5.06,0-6.57c-.32-1.5-1.34-17.63-1.34-21.9s.95-15.26.95-18.74-2.21-13.36-1.66-17.08c.56-3.72,1.82-4.19,2.14-8.06.32-3.87,2.21-37.95,3.16-39.21.95,1.27,2.85,35.34,3.16,39.21.32,3.87,1.58,4.35,2.14,8.06.56,3.72-1.66,13.6-1.66,17.08s.95,14.46.95,18.74-1.03,20.4-1.34,21.9c-.32,1.51-1.11,4.5,0,6.57,1.11,2.05,6.33-.16,7.98-.56,1.66-.39,5.3-.48,5.22-2.05-.08-1.58-5.22-5.38-5.53-7.11-.32-1.74,1.51-9.01,2.61-14.46,1.11-5.45,5.38-16.92,5.93-24.12.56-7.2-1.34-10.99-1.34-15.34s.47-12.49,1.42-18.11c.95-5.62,3.09-15.65,3-25.46-.08-9.81-3-25.69-2.85-32.42.16-6.72.87-23.48,1.99-23.75.45.14.99,1.89,1.66,3.91.67,2.02,2.02,6.02,2.29,10.56s1.48,13.12,2.79,16.36c1.31,3.24,4,11.64,4,12.9s-.04,1.8,0,2.7c-1.12,2.29-1.31,8.27-1.31,8.9s-1.35,4.63-.45,4.77c.9.14,2.34-2.83,3.01-4.32.67-1.48.99-.59,1.35-.09.36.49-1.35,6.02-1.66,7.37-.31,1.35-2.25,3.82-.81,3.28,1.44-.54,6.92-8.54,6.92-9.97s-.22-8.99-.22-11.59h.05Z"/>
  <path class="cls-2" d="M116.81,1.51v305.66"/>
  <line class="cls-3" x1="101.66" y1=".85" x2="131.96" y2=".85"/>
  <line class="cls-3" x1="101.66" y1="307.83" x2="131.96" y2="307.83"/>
</svg>
