<svg width="24" height="24" viewBox="0 0 24 24" fill="none" xmlns="http://www.w3.org/2000/svg">
<path d="M9.16455 6.06738C11.2036 6.06738 12.8567 7.71983 12.8569 9.75879C12.8569 11.7979 11.2037 13.4512 9.16455 13.4512C7.12558 13.4509 5.47314 11.7978 5.47314 9.75879C5.47338 7.71997 7.12572 6.06762 9.16455 6.06738ZM9.16455 6.67383C7.46374 6.67407 6.07982 8.05799 6.07959 9.75879C6.07959 11.4598 7.4636 12.8445 9.16455 12.8447C10.8657 12.8447 12.2505 11.4599 12.2505 9.75879C12.2503 8.05784 10.8656 6.67383 9.16455 6.67383Z" fill="#00625B" stroke="#00625B" stroke-width="0.2"/>
<path d="M6.86133 13.7051C9.04912 13.7051 10.8223 15.4782 10.8223 17.666C10.8223 17.7783 10.816 19.1703 10.8057 20.1221C10.7998 20.6643 10.3584 21.1006 9.81641 21.1006H3.90625C3.36426 21.1006 2.92291 20.6643 2.91699 20.1221C2.90661 19.1703 2.90039 17.7783 2.90039 17.666C2.9004 15.4782 4.67355 13.7051 6.86133 13.7051ZM6.86133 14.3115C5.0118 14.3115 3.50685 15.8165 3.50684 17.666C3.50684 17.7843 3.51329 19.1835 3.52344 20.1152C3.52571 20.3229 3.69764 20.4932 3.90625 20.4932H9.81641C10.025 20.4932 10.197 20.3229 10.1992 20.1152C10.2094 19.1834 10.2158 17.7842 10.2158 17.666C10.2158 15.8165 8.71087 14.3115 6.86133 14.3115Z" fill="#00625B" stroke="#00625B" stroke-width="0.2"/>
<path d="M13.7271 11.3477C13.9752 11.3564 14.2126 11.4865 14.3647 11.6924C15.0108 12.5668 15.0549 13.6858 14.438 14.4092C14.0683 14.8427 13.5175 15.0645 12.9302 15.0645C12.5392 15.0644 12.1305 14.9658 11.7437 14.7656C11.5163 14.6478 11.35 14.4341 11.3022 14.1904C11.2629 13.9892 11.3112 13.7856 11.4399 13.6348L13.2007 11.5713C13.3298 11.42 13.521 11.3428 13.7261 11.3477H13.7271ZM13.6753 11.957L13.6616 11.9648L11.9019 14.0293C11.8998 14.0318 11.897 14.0354 11.896 14.043C11.8949 14.0516 11.8957 14.0628 11.8979 14.0742C11.9089 14.1302 11.955 14.1914 12.0229 14.2266C12.7597 14.6078 13.5582 14.5045 13.9761 14.0146C14.3935 13.5248 14.3693 12.7199 13.8765 12.0527C13.8309 11.9914 13.7634 11.9562 13.7065 11.9541L13.6753 11.957Z" fill="#00625B" stroke="#00625B" stroke-width="0.2"/>
<path d="M16.6768 5.4668C16.9602 5.31449 17.2859 5.28041 17.5928 5.37305L17.8174 5.44043C18.4529 5.6318 18.8144 6.30488 18.623 6.94043L17.2295 11.5674C17.1372 11.8743 16.9301 12.128 16.6465 12.2803C16.4686 12.3759 16.2737 12.4238 16.0771 12.4238C15.9612 12.4238 15.8442 12.4073 15.7305 12.373L15.5059 12.3057C15.199 12.2133 14.9453 12.0053 14.793 11.7217C14.6409 11.4383 14.6078 11.1124 14.7002 10.8057L16.0938 6.17871C16.1861 5.87198 16.3933 5.61903 16.6768 5.4668ZM17.418 5.9541C17.2666 5.90849 17.1054 5.92497 16.9639 6.00098C16.8226 6.07694 16.7205 6.2021 16.6748 6.35352L15.2812 10.9805C15.2356 11.132 15.2522 11.2932 15.3281 11.4346C15.404 11.5759 15.5292 11.679 15.6807 11.7246L15.9053 11.792L16.0205 11.8145C16.1363 11.8255 16.2534 11.802 16.3594 11.7451C16.5007 11.6691 16.6028 11.544 16.6484 11.3926L18.042 6.76562C18.1368 6.45074 17.9573 6.11746 17.6426 6.02246L17.418 5.9541Z" fill="#00625B" stroke="#00625B" stroke-width="0.2"/>
<path d="M19.8159 2.90039C19.9832 2.90061 20.1185 3.03583 20.1187 3.20312C20.1187 3.37058 19.9833 3.50661 19.8159 3.50684C19.0215 3.50684 18.3745 4.15384 18.3745 4.94824C18.3743 5.11565 18.2383 5.25098 18.0708 5.25098C17.9035 5.25079 17.7683 5.11553 17.7681 4.94824C17.7681 3.81895 18.6866 2.90039 19.8159 2.90039Z" fill="#00625B" stroke="#00625B" stroke-width="0.2"/>
</svg>
