<svg width="27" height="18" viewBox="0 0 27 18" fill="none" xmlns="http://www.w3.org/2000/svg">
<path d="M12.3559 4.95693L11.5589 7.15333C11.2733 7.94029 10.8852 8.55806 10.3001 9.15802L7.26861 12.2648C6.81459 12.7304 6.81538 13.4794 7.27094 13.9349C7.73194 14.3959 8.48243 14.3959 8.94343 13.9349L12.6244 10.254C12.7548 10.1236 12.9255 10.0778 13.104 10.1259L14.9053 10.6087C15.0411 10.6451 15.1281 10.7592 15.1281 10.8997V13.4422C15.1281 14.0941 15.6589 14.6249 16.3108 14.6249C16.9627 14.6249 17.4936 14.0941 17.4936 13.4422V10.4465C17.4936 9.55243 17.4525 9.13411 16.4792 8.59163L15.7443 8.18186C15.4082 7.99482 15.4206 7.90944 15.4742 7.76198L16.0935 6.05536C16.2239 5.69526 16.5436 5.47097 16.927 5.47097H19.5868C20.2589 5.47097 20.6213 4.95797 20.6213 4.47524C20.6213 3.98319 20.2558 3.48572 19.558 3.48572H14.4575C13.5052 3.48572 12.6803 4.06391 12.3551 4.95952L12.3559 4.95693ZM20.0524 4.47264C20.0524 4.68529 19.9088 4.89949 19.5875 4.89949H15.2134C15.0566 4.89949 14.9286 5.02677 14.9286 5.18432C14.9286 5.34109 15.0558 5.46914 15.2134 5.46914H15.7706C15.6829 5.58478 15.6108 5.71594 15.5588 5.85951L14.9394 7.56613C14.6926 8.24522 15.2553 8.55876 15.4672 8.67751L16.2021 9.08729C16.9247 9.49007 16.9247 9.65462 16.9247 10.4454V13.4411C16.9247 13.7795 16.6491 14.0542 16.3116 14.0542C15.9732 14.0542 15.6984 13.7787 15.6984 13.4411V10.8986C15.6984 10.4989 15.4392 10.1614 15.0535 10.0581L13.2522 9.57538C13.156 9.54977 13.0597 9.53658 12.965 9.53658C12.6895 9.53658 12.4288 9.64523 12.2223 9.85089L8.54138 13.5318C8.30234 13.7709 7.91273 13.7709 7.6737 13.5318C7.43777 13.2959 7.43854 12.9055 7.67603 12.6618L10.7075 9.55508C11.3516 8.8954 11.7793 8.21399 12.0936 7.34715L12.8906 5.15074C13.1367 4.4732 13.7374 4.0518 14.4583 4.0518H19.5589C19.9228 4.0518 20.0525 4.26911 20.0525 4.47244L20.0524 4.47264ZM15.4859 3.31859C16.401 3.31859 17.1452 2.57432 17.1452 1.6593C17.1452 0.744275 16.401 0 15.4859 0C14.5709 0 13.8266 0.744275 13.8266 1.6593C13.8266 2.57432 14.5709 3.31859 15.4859 3.31859ZM15.4859 0.568861C16.0866 0.568861 16.5764 1.05779 16.5764 1.65928C16.5764 2.26076 16.0874 2.74969 15.4859 2.74969C14.8845 2.74969 14.3955 2.26076 14.3955 1.65928C14.3955 1.05779 14.8845 0.568861 15.4859 0.568861ZM22.2846 15.6616L20.1605 14.2157C20.0099 14.1133 19.8174 14.1024 19.6568 14.1878C19.4961 14.2724 19.3968 14.4385 19.3968 14.6201V14.9864H10.9142C10.6627 14.9864 10.4578 15.1913 10.4578 15.4428V16.6884C10.4578 16.9398 10.6627 17.1447 10.9142 17.1447H19.3968V17.5111C19.3968 17.6927 19.4969 17.8587 19.6568 17.9433C19.729 17.9814 19.8074 18 19.885 18C19.9812 18 20.0774 17.9713 20.1605 17.9146L22.2845 16.4688C22.418 16.378 22.498 16.2266 22.498 16.0644C22.498 15.9022 22.418 15.7517 22.2845 15.6601L22.2846 15.6616ZM19.9656 17.3597V16.8607C19.9656 16.7039 19.8383 16.5758 19.6807 16.5758H11.0258V15.5553H19.6807C19.8375 15.5553 19.9656 15.428 19.9656 15.2704V14.7714L21.867 16.0652L19.9656 17.3589V17.3597ZM10.4909 6.71858C10.6477 6.71858 10.7758 6.84586 10.7758 7.00341C10.7758 7.16018 10.6485 7.28824 10.4909 7.28824H9.02101C8.86424 7.28824 8.73618 7.16096 8.73618 7.00341C8.73618 6.84664 8.86346 6.71858 9.02101 6.71858H10.4909ZM11.7986 4.0062H10.3287C10.172 4.0062 10.0439 3.87893 10.0439 3.72138C10.0439 3.56461 10.1712 3.43655 10.3287 3.43655H11.7986C11.9554 3.43655 12.0835 3.56383 12.0835 3.72138C12.0835 3.87815 11.9562 4.0062 11.7986 4.0062ZM8.55697 1.80682C8.55697 1.65005 8.68425 1.52199 8.8418 1.52199H12.7906C12.9473 1.52199 13.0754 1.64927 13.0754 1.80682C13.0754 1.96359 12.9481 2.09164 12.7906 2.09164H8.8418C8.68503 2.09164 8.55697 1.96437 8.55697 1.80682ZM5.45578 10.9819C5.45578 10.8251 5.58305 10.697 5.7406 10.697H7.36807C7.52484 10.697 7.6529 10.8243 7.6529 10.9819C7.6529 11.1386 7.52562 11.2667 7.36807 11.2667H5.7406C5.58383 11.2667 5.45578 11.1394 5.45578 10.9819ZM6.25904 13.7797H4.78678C4.63001 13.7797 4.50195 13.6524 4.50195 13.4948C4.50195 13.3381 4.62923 13.21 4.78678 13.21H6.25904C6.41581 13.21 6.54387 13.3373 6.54387 13.4948C6.54387 13.6516 6.41659 13.7797 6.25904 13.7797ZM9.81978 16.0661C9.81978 16.2229 9.6925 16.3509 9.53495 16.3509L5.58619 16.3517C5.42942 16.3517 5.30136 16.2244 5.30136 16.0669C5.30136 15.9101 5.42864 15.782 5.58619 15.782H9.53495C9.69173 15.782 9.81978 15.9093 9.81978 16.0669V16.0661ZM7.06767 5.02762C7.06767 4.87085 7.19495 4.74279 7.35249 4.74279H10.2411C10.3979 4.74279 10.5259 4.87007 10.5259 5.02762C10.5259 5.18439 10.3987 5.31245 10.2411 5.31245H7.35249C7.19572 5.31245 7.06767 5.18517 7.06767 5.02762ZM6.61287 9.02069C6.61287 8.86392 6.74015 8.73586 6.8977 8.73586H8.96596C9.12273 8.73586 9.25078 8.86314 9.25078 9.02069C9.25078 9.17746 9.1235 9.30552 8.96596 9.30552H6.8977C6.74093 9.30552 6.61287 9.17824 6.61287 9.02069Z" fill="#00625B"/>
</svg>
