<svg width="81" height="36" viewBox="0 0 81 36" fill="none" xmlns="http://www.w3.org/2000/svg">
<path d="M25.9852 23.358V22.0405H25.9785V11.9846C25.9651 11.7519 25.9953 11.523 26.0225 11.2937C26.0493 11.0714 26.0932 10.8488 26.1539 10.6332C26.1978 10.4713 26.2313 10.303 26.2853 10.1411C26.646 9.06261 27.2558 8.14942 28.105 7.39444C28.6373 6.91942 29.2441 6.56538 29.9045 6.29586C30.208 6.17114 30.5248 6.08031 30.8483 6.00958C31.4346 5.88487 32.0243 5.84094 32.621 5.88487C33.2208 5.93214 33.8038 6.05686 34.3666 6.2724C34.6228 6.37031 34.8688 6.4846 35.1082 6.62271C35.2903 6.72732 35.4756 6.83156 35.6506 6.94957C36.1763 7.30323 36.6312 7.73805 37.0221 8.2369C37.4703 8.80648 37.8106 9.43339 38.0399 10.1206C38.2621 10.7911 38.36 11.4787 38.36 12.1864V22.0401H38.3567V23.3576H39.9943V22.7914C39.9977 22.7612 39.9943 22.7139 39.9943 22.6365V12.1964C39.9943 11.8763 40.0044 11.5595 40.0483 11.2426C40.1496 10.4977 40.3886 9.79711 40.7426 9.13297C41.0289 8.59726 41.3896 8.11852 41.8177 7.68742C42.0165 7.48528 42.2354 7.30323 42.458 7.13124C42.7242 6.9224 43.0109 6.74035 43.3139 6.58176C43.5868 6.4403 43.8734 6.32564 44.1631 6.21768C44.5945 6.05946 45.0394 5.9649 45.4943 5.91428C45.8785 5.87035 46.266 5.86365 46.6536 5.89082C47.2232 5.9314 47.7756 6.05946 48.3117 6.24821C48.8612 6.44365 49.3596 6.72658 49.8317 7.06721C50.462 7.52213 50.9742 8.08166 51.3919 8.72868C51.5605 8.9915 51.7087 9.26438 51.8368 9.55103C52.1029 10.1441 52.2682 10.7643 52.339 11.4113C52.3795 11.765 52.3795 12.1223 52.3795 12.4797V22.0438V23.3613H54.0105V22.0438V12.2102C54.0105 11.8766 53.9971 11.5464 53.9598 11.2162C53.8452 10.2018 53.5489 9.24465 53.0668 8.34821C52.7838 7.82256 52.4398 7.33711 52.0456 6.88554C51.8267 6.63612 51.5907 6.40009 51.3446 6.1745C51.1659 6.00585 50.9638 5.86439 50.765 5.71958C50.3808 5.43665 49.9698 5.20062 49.5484 4.98508C49.3261 4.87042 49.0868 4.77958 48.8474 4.69507C48.3385 4.51973 47.8262 4.37492 47.2905 4.30083C46.7749 4.2301 46.2593 4.19958 45.7404 4.23345C45.2348 4.26361 44.736 4.34141 44.2476 4.46948C43.7085 4.60759 43.1963 4.80973 42.6974 5.05246C42.5087 5.14329 42.3233 5.2479 42.1446 5.36256C41.4909 5.77356 40.8945 6.2523 40.3822 6.83193C40.2274 7.00728 40.0755 7.18932 39.934 7.37769C39.6812 7.71795 39.4556 8.07198 39.2602 8.44947C39.2401 8.49005 39.2263 8.56078 39.1794 8.56078C39.1254 8.56078 39.1154 8.4867 39.0919 8.44277C38.93 8.13936 38.7584 7.84638 38.5596 7.56643C38.2394 7.11151 37.8753 6.69345 37.4677 6.31633C37.3024 6.16482 37.1375 6.00958 36.9621 5.87146C36.8039 5.7501 36.6386 5.63544 36.47 5.5245C36.0523 5.24827 35.6108 5.0156 35.1559 4.81681C34.8424 4.67869 34.5122 4.57743 34.182 4.4866C33.3261 4.25393 32.4531 4.17314 31.5701 4.24388C30.8758 4.29786 30.202 4.43597 29.5483 4.67869C28.9013 4.92142 28.2844 5.2211 27.7219 5.62576C27.0615 6.10079 26.4684 6.64691 25.9729 7.29728C25.5921 7.80283 25.2653 8.34188 25.0125 8.92151C24.7564 9.5045 24.571 10.1076 24.4667 10.7378C24.4161 11.0379 24.3859 11.3409 24.3621 11.641C24.3454 11.8364 24.3387 12.0352 24.3387 12.2307C24.332 15.503 24.3353 18.7753 24.3353 22.0438V23.3613H25.9934L25.9867 23.358H25.9852Z" fill="#03665F"/>
<path d="M20.6303 11.4895C20.6068 11.1492 20.5596 10.8086 20.4888 10.475C20.3269 9.71672 20.0674 8.99897 19.697 8.31808C19.4576 7.87991 19.1814 7.46557 18.8646 7.07803C18.5884 6.74448 18.285 6.43772 17.9615 6.14809C17.702 5.91877 17.4257 5.70992 17.1424 5.51113C16.8595 5.31568 16.5561 5.15747 16.2494 5.00558C15.609 4.69212 14.9386 4.46317 14.2376 4.33846C13.604 4.2238 12.9704 4.18359 12.3267 4.2305C11.9425 4.25731 11.565 4.30793 11.1875 4.38872C10.7427 4.48663 10.3078 4.61097 9.89015 4.78966C9.45534 4.97505 9.03764 5.18725 8.6434 5.44672C8.46471 5.56474 8.28267 5.6794 8.11105 5.81081C7.94241 5.94222 7.78084 6.08704 7.62225 6.2285C7.0899 6.71023 6.6212 7.253 6.24074 7.86279C6.00137 8.24363 5.79252 8.64457 5.61718 9.05928C5.20284 10.0533 5.01074 11.0949 5.01074 12.1696V22.0334V23.368H6.64168V12.173C6.64168 11.8595 6.65843 11.5494 6.70236 11.2393C6.88105 9.96875 7.40671 8.85676 8.25922 7.89965C8.77817 7.31666 9.39838 6.86174 10.0923 6.50771C10.5033 6.29551 10.9348 6.14027 11.3863 6.03604C11.9559 5.90462 12.5288 5.84059 13.1152 5.87075C13.5801 5.8942 14.0384 5.96158 14.4866 6.08629C14.7696 6.16373 15.0462 6.26834 15.3157 6.38635C15.7166 6.56169 16.0941 6.77389 16.4515 7.03001C16.8018 7.27943 17.1119 7.57577 17.4053 7.88922C17.6007 8.09807 17.7761 8.32069 17.9376 8.55299C18.4666 9.31801 18.7968 10.1638 18.9554 11.077C19.0094 11.3871 19.0295 11.7006 19.0396 12.014C19.0429 12.122 19.0329 12.2296 19.0295 12.3342C19.0295 12.4757 19.0094 12.6171 18.9994 12.759C18.9826 12.9644 18.9353 13.1599 18.8981 13.362C18.8408 13.6755 18.7533 13.9755 18.6453 14.2719C18.3691 15.0097 17.9749 15.6772 17.4421 16.2602C17.2534 16.4657 17.0546 16.6645 16.8457 16.8499C16.3335 17.3015 15.7505 17.635 15.1202 17.8911C14.5473 18.1272 13.9442 18.2586 13.3274 18.3055C13.2295 18.3122 13.1286 18.3189 13.0307 18.3222H9.52235V19.977H13.0307C13.1721 19.977 13.3102 19.9669 13.4484 19.9569C14.136 19.9029 14.8031 19.7648 15.4501 19.5254C16.1444 19.2693 16.7981 18.9391 17.3978 18.4976C17.836 18.1741 18.2436 17.8133 18.6111 17.4124C18.773 17.2337 18.9279 17.0483 19.0727 16.8529C19.5715 16.179 19.9624 15.4509 20.2353 14.659C20.5149 13.84 20.6463 12.9976 20.6668 12.1317C20.6701 11.9161 20.6534 11.7036 20.6366 11.488H20.6299L20.6303 11.4895Z" fill="#03665F"/>
<path d="M18.141 28.4635V27.4542C18.2017 27.4401 18.2602 27.4237 18.3197 27.4125C18.526 27.3746 18.7322 27.3384 18.9388 27.302C19.0419 27.2837 19.1451 27.2651 19.2486 27.2495C19.313 27.2398 19.3785 27.2346 19.4433 27.2275C19.5564 27.2156 19.67 27.2037 19.7831 27.1933C19.836 27.1884 19.8892 27.1862 19.9425 27.1832C20.0623 27.1765 20.1826 27.1724 20.3021 27.1639C20.4771 27.1508 20.6517 27.1646 20.8259 27.1761C20.9863 27.1869 21.1457 27.2108 21.3043 27.2398C21.426 27.2625 21.5407 27.3075 21.6575 27.3444C21.8243 27.3969 21.9896 27.4527 22.1556 27.5082C22.1843 27.5179 22.2126 27.5298 22.2387 27.5447C22.4412 27.6623 22.6098 27.8191 22.7535 28.0026C22.8377 28.1102 22.8808 28.2371 22.9091 28.3689C22.9315 28.4735 22.9404 28.5792 22.9404 28.6861C22.9404 29.6063 22.9404 30.5266 22.9404 31.4465V31.5009C22.9248 31.5027 22.9117 31.5057 22.8991 31.5057C22.5249 31.5057 22.1508 31.5057 21.7767 31.5057C21.7662 31.5057 21.7558 31.5038 21.7387 31.5023C21.735 31.3739 21.7398 31.2458 21.7357 31.1107C21.7134 31.1204 21.6981 31.126 21.684 31.133C21.6013 31.1751 21.5187 31.2168 21.4368 31.2604C21.3002 31.3333 21.1516 31.3724 21.0049 31.4175C20.9324 31.4398 20.8601 31.4647 20.7868 31.483C20.7075 31.5027 20.6267 31.5176 20.5459 31.5329C20.4413 31.5526 20.3367 31.5723 20.2317 31.588C20.1554 31.5995 20.078 31.6058 20.0009 31.611C19.8524 31.6211 19.7035 31.6326 19.5546 31.6364C19.4622 31.6386 19.3692 31.6315 19.2768 31.6222C19.1484 31.6092 19.0196 31.5947 18.8927 31.5716C18.8201 31.5586 18.7508 31.5277 18.6805 31.5035C18.5639 31.4636 18.4478 31.4231 18.3316 31.3821C18.313 31.3754 18.2948 31.3676 18.2784 31.3568C17.9936 31.174 17.8157 30.9171 17.7524 30.5843C17.7245 30.4365 17.7308 30.2872 17.7539 30.1391C17.7799 29.9723 17.8417 29.82 17.9493 29.6882C18.0431 29.5732 18.1529 29.4753 18.278 29.3953C18.399 29.3175 18.5289 29.2579 18.6663 29.2173C18.8968 29.1496 19.1276 29.0844 19.3595 29.0222C19.5992 28.9578 19.8434 28.9165 20.0899 28.8886C20.3617 28.8581 20.6334 28.8264 20.9059 28.8C21.0935 28.7818 21.2819 28.7717 21.4695 28.7583C21.5485 28.7527 21.6274 28.7486 21.7063 28.7434C21.7152 28.7427 21.7238 28.7397 21.7372 28.7367C21.7372 28.7043 21.7421 28.6719 21.7361 28.6414C21.7231 28.5748 21.7123 28.5066 21.6669 28.4508C21.6486 28.4285 21.6322 28.4043 21.6185 28.379C21.5876 28.322 21.5406 28.2844 21.4848 28.2535C21.3664 28.1884 21.2421 28.1426 21.1099 28.115C20.8814 28.0674 20.6509 28.0391 20.4175 28.0417C20.2913 28.0432 20.1655 28.0517 20.0393 28.0584C19.9283 28.0644 19.817 28.0662 19.7072 28.0811C19.5192 28.1068 19.3316 28.1381 19.1447 28.1727C19.0297 28.1943 18.9172 28.2282 18.8033 28.2542C18.6012 28.3 18.4065 28.3697 18.2106 28.4348C18.1894 28.4419 18.1686 28.4508 18.141 28.4616V28.4635ZM21.7703 29.5944C21.7521 29.5937 21.7435 29.5922 21.7346 29.5926C21.4569 29.6067 21.1788 29.6201 20.9011 29.6358C20.7842 29.6425 20.6673 29.6506 20.5511 29.6637C20.3851 29.6819 20.2194 29.705 20.0534 29.7266C19.9644 29.7381 19.8747 29.7467 19.7872 29.7653C19.6744 29.7888 19.5631 29.8204 19.4514 29.8494C19.4001 29.8628 19.348 29.8751 19.2988 29.8952C19.1745 29.9462 19.0594 30.0132 18.9582 30.1033C18.944 30.116 18.9336 30.1283 18.9303 30.148C18.9243 30.1852 18.9139 30.2221 18.9068 30.2593C18.8912 30.3449 18.8852 30.4287 18.9582 30.4957C18.9705 30.5069 18.9783 30.5225 18.9894 30.5348C18.9984 30.5449 19.0081 30.5556 19.02 30.5616C19.1253 30.6134 19.2333 30.6617 19.348 30.6841C19.4622 30.706 19.5788 30.7228 19.6964 30.7202C19.8271 30.7176 19.9581 30.7187 20.0884 30.7124C20.1807 30.7079 20.2749 30.7023 20.3643 30.6811C20.5887 30.6282 20.814 30.5784 21.0344 30.5073C21.232 30.4436 21.4223 30.3669 21.6065 30.2727C21.6274 30.2619 21.6397 30.2478 21.6434 30.2247C21.6453 30.2128 21.649 30.2009 21.6512 30.189C21.6803 30.0445 21.7093 29.9001 21.7383 29.7556C21.7488 29.7039 21.7581 29.6518 21.7692 29.5944H21.7703Z" fill="#03665F"/>
<path d="M16.9469 29.8878H12.6456C12.6508 29.9112 12.6527 29.9287 12.6583 29.9447C12.6996 30.0676 12.7618 30.1778 12.8567 30.2679C12.8954 30.3047 12.9349 30.3405 12.9702 30.3803C13.0249 30.4417 13.0931 30.4827 13.1653 30.5192C13.3626 30.6193 13.5688 30.696 13.7792 30.7626C13.8931 30.7987 14.0115 30.8088 14.1299 30.8162C14.3532 30.8304 14.5766 30.824 14.7996 30.8077C14.918 30.7991 15.0364 30.7958 15.1547 30.7872C15.2106 30.7831 15.2664 30.7734 15.3215 30.7641C15.4563 30.741 15.5918 30.7202 15.7254 30.6919C15.8144 30.6729 15.9023 30.6461 15.9883 30.6171C16.145 30.5638 16.3002 30.5069 16.4558 30.4503C16.4856 30.4395 16.5128 30.422 16.5411 30.4078C16.5519 30.4395 16.5567 31.2082 16.5463 31.3177C16.4849 31.3333 16.422 31.3497 16.359 31.3653C16.0962 31.4297 15.8334 31.4934 15.5706 31.5582C15.4462 31.5891 15.3193 31.604 15.1923 31.6151C14.9131 31.639 14.6336 31.6449 14.3536 31.6393C13.9478 31.6311 13.5476 31.5786 13.1549 31.474C12.8489 31.3925 12.557 31.2786 12.2927 31.101C11.9245 30.8531 11.6769 30.5147 11.5403 30.0944C11.4513 29.8204 11.4298 29.5386 11.4487 29.2519C11.4763 28.8383 11.6397 28.4813 11.8903 28.1574C12.1334 27.8432 12.4442 27.6184 12.8027 27.4553C12.9051 27.4088 13.0086 27.3637 13.115 27.3288C13.2185 27.2945 13.3257 27.2707 13.4322 27.248C13.5301 27.2271 13.6295 27.2122 13.7285 27.197C13.7915 27.1873 13.8551 27.1798 13.9188 27.1758C14.1098 27.1635 14.3011 27.1497 14.4928 27.1661C14.6168 27.1765 14.7408 27.1888 14.8644 27.2052C15.0743 27.2327 15.2776 27.2897 15.4775 27.3585C15.6581 27.4207 15.8248 27.5108 15.9853 27.6139C16.311 27.8231 16.543 28.1109 16.7101 28.4568C16.8356 28.7159 16.907 28.9884 16.9361 29.2739C16.9558 29.4697 16.9502 29.6659 16.9513 29.8617C16.9513 29.8677 16.9495 29.8736 16.9469 29.8874V29.8878ZM12.6441 28.9709C12.6523 28.9735 12.6568 28.9761 12.6609 28.9761C13.6824 28.9764 14.7039 28.9768 15.7258 28.9772C15.7377 28.9772 15.75 28.9753 15.7619 28.9742C15.7634 28.9742 15.7645 28.9727 15.7656 28.9716C15.7668 28.9705 15.7675 28.9694 15.772 28.9649C15.7686 28.9381 15.7638 28.9087 15.7612 28.8785C15.7556 28.8104 15.7381 28.7479 15.6938 28.6935C15.6737 28.6689 15.6566 28.6414 15.6406 28.6139C15.5501 28.4582 15.4097 28.357 15.2575 28.2728C15.1823 28.2312 15.0989 28.2036 15.0185 28.1723C14.9805 28.1574 14.9407 28.1448 14.9005 28.1388C14.7277 28.1128 14.5546 28.0897 14.3815 28.0655C14.3305 28.0584 14.2791 28.0476 14.2278 28.0461C14.0677 28.0417 13.9087 28.0547 13.752 28.0871C13.5633 28.1258 13.3875 28.2025 13.2141 28.284C13.172 28.3037 13.1329 28.332 13.0961 28.3611C13.0447 28.4013 12.9981 28.4482 12.946 28.4873C12.8678 28.5457 12.8075 28.6183 12.7588 28.7017C12.7275 28.7553 12.6947 28.8086 12.6664 28.864C12.6501 28.896 12.6374 28.9307 12.6445 28.9712L12.6441 28.9709Z" fill="#03665F"/>
<path d="M38.8358 27.2658H40.0003V31.5328C39.9634 31.5429 38.8805 31.544 38.8321 31.5328C38.8321 31.4178 38.8317 31.3013 38.8317 31.1848C38.8317 31.066 38.8317 30.9476 38.8317 30.8289V29.769C38.8179 29.766 38.8079 29.7627 38.7982 29.7615C38.7878 29.7604 38.777 29.7612 38.7662 29.7612C37.8094 29.7612 36.8531 29.7612 35.8963 29.7612C35.877 29.7612 35.8576 29.7612 35.8334 29.7612C35.8319 29.7902 35.8293 29.814 35.8293 29.8375C35.8293 30.0017 35.8293 30.1662 35.8293 30.3304C35.8293 30.7123 35.8293 31.0939 35.8293 31.4759C35.8293 31.4967 35.8271 31.5172 35.8256 31.5403H34.6689C34.6589 31.5068 34.6559 27.3287 34.6656 27.271C34.7002 27.2606 35.7727 27.2587 35.826 27.2699C35.8271 27.2889 35.8297 27.3097 35.8297 27.3302C35.8297 27.7941 35.8297 28.2579 35.8297 28.7222C35.8297 28.7493 35.8315 28.7761 35.8323 28.8018C35.8718 28.8119 38.7818 28.8134 38.8325 28.8037C38.8336 28.7843 38.8362 28.7635 38.8362 28.743C38.8362 28.2728 38.8362 27.803 38.8362 27.3328V27.2658H38.8358Z" fill="#03665F"/>
<path d="M9.18187 28.8052C9.18299 28.7802 9.18522 28.7579 9.18522 28.7352C9.18522 28.2669 9.18522 27.7982 9.18522 27.3298C9.18522 27.309 9.18746 27.2881 9.1882 27.2688C9.2325 27.258 10.3088 27.2576 10.3508 27.2684V31.5306C10.3147 31.541 9.23734 31.5425 9.1882 31.5317C9.18709 31.5123 9.18485 31.4915 9.18485 31.471C9.18485 30.9264 9.18485 30.3821 9.18485 29.8375C9.18485 29.8137 9.18299 29.7895 9.18187 29.7623H6.18283C6.1765 29.8628 6.18059 29.9611 6.17985 30.0594C6.1791 30.1565 6.17985 30.2541 6.17985 30.3512V31.2365C6.17985 31.3351 6.17985 31.4338 6.17985 31.5302C6.14336 31.5425 5.07977 31.5462 5.01909 31.5358C5.00979 31.503 5.00718 27.3198 5.01686 27.2684C5.0526 27.2576 6.12698 27.2565 6.1765 27.2684C6.17761 27.2878 6.17985 27.3082 6.17985 27.3291C6.17985 27.7944 6.17985 28.2598 6.17985 28.7251C6.17985 28.7504 6.18171 28.7761 6.18283 28.8044H9.18113L9.18187 28.8052Z" fill="#03665F"/>
<path d="M31.9941 31.5055H30.8292C30.8281 31.4806 30.8266 31.4582 30.8266 31.4359C30.8266 30.3742 30.8266 29.3128 30.8266 28.2511C30.8266 28.2273 30.8244 28.2038 30.8233 28.1759H28.9868C28.9746 28.1405 28.9701 27.3468 28.9801 27.2713C28.9813 27.2701 28.982 27.2687 28.9831 27.2679C28.9842 27.2668 28.9857 27.2657 28.9868 27.2657C28.9988 27.2642 29.011 27.2623 29.023 27.2623C30.6241 27.2623 32.2256 27.2631 33.8268 27.2634C33.8309 27.2634 33.8354 27.2661 33.8395 27.2672C33.8491 27.3018 33.851 28.1208 33.8402 28.1748H33.7795C33.2092 28.1748 32.6389 28.1748 32.0685 28.1748C31.9878 28.1748 31.9945 28.1696 31.9945 28.2485C31.9945 29.3117 31.9945 30.3746 31.9945 31.4378V31.5052L31.9941 31.5055Z" fill="#03665F"/>
<path d="M28.6253 30.5596V31.504C28.607 31.5051 28.591 31.5074 28.575 31.5074C27.7478 31.5074 26.9206 31.5081 26.0934 31.5066C25.8194 31.5063 25.5462 31.4862 25.2763 31.44C25.1177 31.4128 24.9647 31.3577 24.8247 31.2747C24.7871 31.2524 24.7532 31.2237 24.7179 31.1973C24.7071 31.1891 24.6974 31.1787 24.6862 31.1716C24.5496 31.0863 24.4621 30.9609 24.3918 30.8198C24.3583 30.7524 24.3519 30.6798 24.34 30.6083C24.3151 30.4598 24.2912 30.3113 24.2678 30.1627C24.2637 30.1374 24.2622 30.1114 24.2622 30.0857C24.2622 29.1658 24.2622 28.2455 24.2622 27.3256V27.2664C24.2823 27.2646 24.2983 27.2623 24.3143 27.2623C24.6702 27.2623 25.0261 27.2623 25.3816 27.2623C25.3965 27.2623 25.411 27.2646 25.4308 27.2661V27.3323C25.4308 28.088 25.4308 28.8438 25.4304 29.5998C25.4304 29.7037 25.4412 29.8061 25.4539 29.9088C25.4602 29.9598 25.4635 30.0123 25.4788 30.0607C25.5101 30.1594 25.554 30.2532 25.618 30.3358C25.6445 30.3697 25.6739 30.3999 25.7137 30.4185C25.7286 30.4256 25.7431 30.4345 25.7565 30.4442C25.825 30.4944 25.9054 30.5089 25.9862 30.5246C26.156 30.5573 26.3272 30.5611 26.4992 30.5607C27.1849 30.5599 27.8707 30.5607 28.5564 30.5607H28.6264L28.6253 30.5596Z" fill="#03665F"/>
<path d="M68.8901 23.0536V23.0939H69.3501V23.0548C69.3518 22.1273 69.3547 20.5749 68.6227 18.8833C68.2634 18.0524 67.7631 17.2716 67.1261 16.5454C67.022 16.6616 66.9231 16.7789 66.8276 16.8967C68.897 19.2858 68.8924 21.6961 68.8901 23.0536Z" fill="#03665F"/>
<path d="M56.834 4.37927V4.58569C56.8869 5.80523 57.3992 10.4689 62.0726 13.4289C62.1376 13.3944 62.2032 13.3605 62.2693 13.3266C62.3636 13.2788 62.4561 13.23 62.5476 13.1811C57.5268 10.1544 57.2951 5.11467 57.2888 4.37927H56.834Z" fill="#03665F"/>
<path d="M70.1738 23.0536V23.0938H70.6338V23.0547C70.6355 22.1273 70.6384 20.5748 69.9065 18.8832C69.435 17.7931 68.7214 16.7897 67.7733 15.8818C67.6606 15.9871 67.5519 16.0934 67.4473 16.2009C70.1819 18.8073 70.1767 21.5644 70.1738 23.0536Z" fill="#03665F"/>
<path d="M58.1123 4.37927C58.1181 5.10145 58.3319 9.86402 62.7909 13.0488C62.941 12.9649 63.087 12.8798 63.2291 12.7941C58.7919 9.7427 58.578 5.0842 58.5723 4.37927H58.1123Z" fill="#03665F"/>
<path d="M71.4565 23.0536V23.0938H71.9165V23.0547C71.9182 22.1273 71.9211 20.5748 71.1897 18.8832C70.6187 17.5631 69.693 16.3706 68.4252 15.3201C68.3016 15.4178 68.182 15.5167 68.0664 15.6173C71.4651 18.3859 71.4594 21.4522 71.4565 23.0536Z" fill="#03665F"/>
<path d="M59.3965 4.37927C59.4017 5.06982 59.5977 9.45233 63.5099 12.6193C63.6479 12.5308 63.7819 12.4417 63.9118 12.3508C60.056 9.31088 59.8622 5.05085 59.8565 4.37927H59.3965Z" fill="#03665F"/>
<path d="M72.7407 23.0536V23.0938H73.2007V23.0547C73.2024 22.1273 73.2053 20.5748 72.4739 18.8832C71.8133 17.3561 70.6777 15.9997 69.0879 14.8359C68.9522 14.9274 68.8205 15.0205 68.6929 15.116C72.7499 18.0075 72.7436 21.3551 72.7407 23.0536Z" fill="#03665F"/>
<path d="M60.6797 4.37927C60.6849 5.03475 60.8614 9.01477 64.2239 12.1254C64.3504 12.0311 64.4728 11.9357 64.5913 11.8391C61.3185 8.8532 61.1448 5.01405 61.1397 4.37927H60.6797Z" fill="#03665F"/>
<path d="M74.0239 23.0536V23.0938H74.4838V23.0547C74.4856 22.1273 74.4884 20.5748 73.7571 18.8832C73.0148 17.1675 71.6733 15.6674 69.7615 14.4133C69.612 14.5002 69.4666 14.5887 69.3257 14.679C74.0342 17.6631 74.0273 21.2688 74.0239 23.0536Z" fill="#03665F"/>
<path d="M61.9629 4.37927C61.9675 4.99508 62.1239 8.54386 64.9286 11.5504C65.0448 11.4475 65.1569 11.3423 65.2644 11.2365C62.5793 8.35929 62.4275 4.9715 62.4229 4.37927H61.9629Z" fill="#03665F"/>
<path d="M75.7676 23.0938V22.911C75.7676 21.9715 75.7354 20.4903 75.0408 18.8832C74.2238 16.995 72.6811 15.3684 70.4513 14.0425C70.2869 14.1247 70.1264 14.2086 69.9712 14.2949C75.3185 17.348 75.311 21.1912 75.3076 23.0536V23.0938H75.7676Z" fill="#03665F"/>
<path d="M63.2466 4.37927C63.2512 4.9485 63.3846 8.02638 65.6236 10.8639C65.7299 10.7466 65.8317 10.6282 65.9289 10.5086C63.8388 7.81421 63.7112 4.92205 63.7066 4.37927H63.2466Z" fill="#03665F"/>
<path d="M57.226 22.937C57.2266 22.9502 57.2266 22.9617 57.2272 22.9726H57.4572C57.4572 22.9606 57.4566 22.9468 57.456 22.9318C57.4146 21.1338 57.8769 16.6553 63.0529 13.896C65.5345 12.5735 67.2433 10.8026 68.1334 8.63261C68.851 6.88294 68.836 5.36902 68.8291 4.64166C68.8291 4.61809 68.8286 4.59509 68.8286 4.57324H68.5986C68.5986 4.59567 68.5992 4.61924 68.5992 4.64396C68.6061 5.35637 68.6204 6.83867 67.9207 8.54521C67.0519 10.664 65.3775 12.3964 62.9448 13.693C57.6555 16.5127 57.1835 21.097 57.226 22.937Z" fill="#03665F"/>
<path d="M58.0756 22.937C58.0756 22.9502 58.0756 22.9617 58.0768 22.9726H58.3068C58.3068 22.9606 58.3062 22.9468 58.3056 22.9318C58.2642 21.1338 58.7265 16.6553 63.9025 13.896C66.3835 12.5735 68.093 10.8026 68.983 8.63261C69.7006 6.88294 69.6857 5.36902 69.6788 4.64166C69.6788 4.61809 69.6782 4.59509 69.6782 4.57324H69.4482C69.4482 4.59567 69.4488 4.61924 69.4488 4.64396C69.4557 5.35637 69.47 6.83867 68.7703 8.54521C67.9015 10.664 66.2271 12.3964 63.7944 13.693C58.5057 16.5127 58.0331 21.097 58.0756 22.937Z" fill="#03665F"/>
<path d="M58.9243 22.937C58.9243 22.9502 58.9248 22.9617 58.9254 22.9726H59.1554C59.1548 22.9606 59.1543 22.9468 59.1543 22.9318C59.1129 21.1338 59.5751 16.6553 64.7511 13.896C67.2322 12.5735 68.9416 10.8026 69.8317 8.63261C70.5492 6.88294 70.5343 5.36902 70.5274 4.64166C70.5274 4.61809 70.5274 4.59509 70.5274 4.57324H70.2974C70.2974 4.59567 70.2974 4.61924 70.2974 4.64396C70.3043 5.35637 70.3187 6.83867 69.6189 8.54521C68.7501 10.664 67.0758 12.3964 64.643 13.693C59.3538 16.5127 58.8817 21.097 58.9243 22.937Z" fill="#03665F"/>
<path d="M59.7739 22.937C59.7745 22.9502 59.7745 22.9617 59.775 22.9726H60.005C60.005 22.9606 60.0044 22.9468 60.0039 22.9318C59.9625 21.1338 60.4248 16.6553 65.6007 13.896C68.0818 12.5735 69.7912 10.8026 70.6813 8.63261C71.3988 6.88294 71.3839 5.36902 71.377 4.64166C71.377 4.61809 71.3764 4.59509 71.3764 4.57324H71.1464C71.1464 4.59567 71.147 4.61924 71.147 4.64396C71.1539 5.35637 71.1683 6.83867 70.4685 8.54521C69.5997 10.664 67.9254 12.3964 65.4926 13.693C60.2034 16.5127 59.7313 21.097 59.7739 22.937Z" fill="#03665F"/>
<path d="M60.6235 22.937C60.6235 22.9502 60.6235 22.9617 60.6246 22.9726H60.8546C60.8546 22.9606 60.8541 22.9468 60.8535 22.9318C60.8121 21.1338 61.2744 16.6553 66.4503 13.896C68.9314 12.5735 70.6408 10.8026 71.5309 8.63261C72.2485 6.88294 72.2335 5.36902 72.2266 4.64166C72.2266 4.61809 72.226 4.59509 72.226 4.57324H71.996C71.996 4.59567 71.9966 4.61924 71.9966 4.64396C72.0035 5.35637 72.0179 6.83867 71.3181 8.54521C70.4493 10.664 68.775 12.3964 66.3422 13.693C61.053 16.5127 60.5809 21.097 60.6235 22.937Z" fill="#03665F"/>
<path d="M61.4733 22.9726C61.4727 22.9617 61.4721 22.9502 61.4721 22.937C61.4296 21.097 61.9016 16.5127 67.1903 13.693C69.6236 12.3964 71.298 10.664 72.1668 8.54521C72.8665 6.83867 72.8521 5.35637 72.8452 4.64396C72.8452 4.61924 72.8452 4.59567 72.8452 4.57324H73.0752C73.0752 4.59509 73.0752 4.61809 73.0752 4.64166C73.0821 5.36902 73.0971 6.88294 72.3795 8.63261C71.4894 10.8026 69.78 12.5735 67.299 13.896C62.123 16.6553 61.6607 21.1338 61.7021 22.9318C61.7021 22.9468 61.7021 22.9606 61.7033 22.9726H61.4733Z" fill="#03665F"/>
<path d="M62.3217 22.937C62.3217 22.9502 62.3223 22.9617 62.3223 22.9726H62.5523C62.5523 22.9606 62.5517 22.9468 62.5517 22.9318C62.5103 21.1338 62.9726 16.6553 68.1486 13.896C70.6296 12.5735 72.339 10.8026 73.2291 8.63261C73.9467 6.88294 73.9317 5.36902 73.9248 4.64166C73.9248 4.61809 73.9243 4.59509 73.9243 4.57324H73.6943C73.6943 4.59567 73.6949 4.61924 73.6949 4.64396C73.7018 5.35637 73.7161 6.83867 73.0164 8.54521C72.147 10.664 70.4732 12.3964 68.0399 13.693C62.7512 16.5127 62.2792 21.097 62.3217 22.937Z" fill="#03665F"/>
<path d="M63.1709 22.937C63.1709 22.9502 63.1714 22.9617 63.1714 22.9726H63.4014C63.4014 22.9606 63.4008 22.9468 63.4008 22.9318C63.3594 21.1338 63.8217 16.6553 68.9977 13.896C71.4788 12.5735 73.1882 10.8026 74.0782 8.63261C74.7958 6.88294 74.7809 5.36902 74.774 4.64166C74.774 4.61809 74.7734 4.59509 74.7734 4.57324H74.5434C74.5434 4.59567 74.544 4.61924 74.544 4.64396C74.5509 5.35637 74.5652 6.83867 73.8655 8.54521C72.9961 10.664 71.3224 12.3964 68.889 13.693C63.6004 16.5127 63.1283 21.097 63.1709 22.937Z" fill="#03665F"/>
</svg>
