<svg width="103" height="46" viewBox="0 0 103 46" fill="none" xmlns="http://www.w3.org/2000/svg">
<path d="M34.5122 30.0891V28.4137H34.5037V15.6266C34.4866 15.3307 34.525 15.0396 34.5595 14.748C34.5936 14.4654 34.6495 14.1823 34.7266 13.9082C34.7825 13.7023 34.8251 13.4883 34.8938 13.2824C35.3525 11.911 36.1279 10.7497 37.2077 9.78972C37.8846 9.18568 38.6562 8.73548 39.496 8.39275C39.8818 8.23417 40.2847 8.11866 40.6961 8.02872C41.4416 7.87013 42.1915 7.81427 42.9503 7.87013C43.713 7.93025 44.4543 8.08884 45.17 8.36293C45.4957 8.48743 45.8086 8.63276 46.113 8.80839C46.3445 8.94141 46.5803 9.07396 46.8027 9.22402C47.4712 9.67374 48.0497 10.2267 48.5467 10.861C49.1167 11.5853 49.5493 12.3825 49.8409 13.2563C50.1236 14.1089 50.2481 14.9833 50.2481 15.8832V28.4133H50.2438V30.0886H52.3262V29.3686C52.3305 29.3302 52.3262 29.2701 52.3262 29.1716V15.8959C52.3262 15.4888 52.339 15.086 52.3949 14.6831C52.5236 13.7359 52.8275 12.845 53.2777 12.0004C53.6418 11.3192 54.1005 10.7105 54.6449 10.1623C54.8977 9.90523 55.176 9.67374 55.4591 9.45503C55.7976 9.18946 56.1621 8.95798 56.5474 8.75631C56.8944 8.57643 57.2589 8.43062 57.6272 8.29334C58.1759 8.09215 58.7416 7.97191 59.32 7.90753C59.8086 7.85167 60.3014 7.84315 60.7942 7.87771C61.5185 7.9293 62.221 8.09215 62.9026 8.33216C63.6014 8.58069 64.2352 8.94046 64.8355 9.37361C65.6369 9.95209 66.2883 10.6636 66.8194 11.4863C67.0339 11.8206 67.2223 12.1675 67.3851 12.5321C67.7236 13.2862 67.9338 14.0748 68.0237 14.8976C68.0753 15.3473 68.0753 15.8017 68.0753 16.2562V28.418V30.0933H70.1492V28.418V15.9135C70.1492 15.4893 70.1322 15.0694 70.0849 14.6495C69.9391 13.3595 69.5622 12.1425 68.9492 11.0025C68.5894 10.3341 68.152 9.71682 67.6507 9.1426C67.3724 8.82543 67.0722 8.5253 66.7593 8.23843C66.5321 8.02398 66.275 7.8441 66.0223 7.65995C65.5337 7.30017 65.0111 7.00005 64.4752 6.72595C64.1926 6.58015 63.8882 6.46464 63.5838 6.35718C62.9367 6.13422 62.2853 5.95007 61.6041 5.85587C60.9485 5.76592 60.2929 5.72711 59.633 5.77018C58.9901 5.80853 58.3558 5.90747 57.7347 6.07031C57.0492 6.24594 56.3978 6.50299 55.7635 6.81164C55.5235 6.92714 55.2877 7.06017 55.0605 7.20597C54.2292 7.72859 53.4709 8.33737 52.8195 9.07443C52.6226 9.2974 52.4294 9.52888 52.2495 9.76842C51.9281 10.2011 51.6412 10.6513 51.3927 11.1313C51.3671 11.1829 51.3496 11.2728 51.29 11.2728C51.2213 11.2728 51.2086 11.1786 51.1787 11.1228C50.9728 10.737 50.7546 10.3644 50.5018 10.0084C50.0947 9.42994 49.6317 8.89833 49.1133 8.41879C48.9032 8.22612 48.6935 8.02872 48.4705 7.85309C48.2693 7.69877 48.0591 7.55296 47.8447 7.41189C47.3135 7.06064 46.7521 6.76477 46.1736 6.51198C45.775 6.33636 45.3551 6.20759 44.9352 6.09209C43.8469 5.79622 42.7368 5.69349 41.614 5.78344C40.7311 5.85208 39.8743 6.02771 39.043 6.33636C38.2202 6.645 37.4358 7.02608 36.7206 7.54065C35.8808 8.1447 35.1267 8.83916 34.4966 9.66616C34.0123 10.309 33.5967 10.9945 33.2752 11.7316C32.9496 12.4729 32.7138 13.2398 32.5813 14.0412C32.5169 14.4228 32.4785 14.8081 32.4482 15.1897C32.4269 15.4382 32.4184 15.691 32.4184 15.9395C32.4099 20.1006 32.4142 24.2617 32.4142 28.418V30.0933H34.5226L34.5141 30.0891H34.5122Z" fill="white"/>
<path d="M27.7017 14.9972C27.6719 14.5645 27.6118 14.1314 27.5219 13.7072C27.3159 12.7429 26.986 11.8302 26.515 10.9644C26.2106 10.4072 25.8593 9.88034 25.4565 9.38754C25.1052 8.96339 24.7194 8.57331 24.308 8.20502C23.9781 7.91341 23.6268 7.64784 23.2666 7.39505C22.9068 7.14652 22.521 6.94533 22.1309 6.75219C21.3167 6.3536 20.4641 6.06247 19.5727 5.90388C18.767 5.75808 17.9613 5.70695 17.1428 5.7666C16.6543 5.80068 16.1743 5.86506 15.6943 5.96779C15.1286 6.09229 14.5757 6.2504 14.0445 6.47763C13.4916 6.71337 12.9605 6.98321 12.4592 7.31316C12.2319 7.46322 12.0004 7.60902 11.7822 7.77613C11.5678 7.94324 11.3623 8.12738 11.1607 8.30727C10.4837 8.91983 9.88772 9.61003 9.40391 10.3854C9.09953 10.8697 8.83396 11.3796 8.61099 11.9069C8.08411 13.1709 7.83984 14.4954 7.83984 15.8621V28.4049V30.102H9.91375V15.8663C9.91375 15.4677 9.93505 15.0734 9.99091 14.6791C10.2181 13.0634 10.8866 11.6494 11.9706 10.4323C12.6305 9.69098 13.4192 9.1125 14.3016 8.66231C14.8242 8.39248 15.3729 8.19508 15.9471 8.06253C16.6714 7.89542 17.3999 7.814 18.1455 7.85234C18.7367 7.88217 19.3195 7.96785 19.8894 8.12644C20.2492 8.2249 20.6009 8.35792 20.9437 8.50799C21.4535 8.73095 21.9335 9.00078 22.388 9.32647C22.8334 9.64364 23.2278 10.0205 23.6008 10.4191C23.8493 10.6846 24.0723 10.9677 24.2777 11.2631C24.9504 12.2359 25.3703 13.3115 25.572 14.4727C25.6406 14.867 25.6662 15.2656 25.679 15.6642C25.6832 15.8015 25.6704 15.9383 25.6662 16.0713C25.6662 16.2512 25.6406 16.4311 25.6278 16.6114C25.6065 16.8727 25.5464 17.1213 25.4991 17.3783C25.4262 17.7769 25.3149 18.1585 25.1776 18.5353C24.8264 19.4735 24.3251 20.3223 23.6477 21.0636C23.4076 21.325 23.1549 21.5777 22.8893 21.8135C22.2379 22.3877 21.4966 22.8119 20.6951 23.1376C19.9666 23.4377 19.1997 23.6048 18.4153 23.6644C18.2908 23.673 18.1625 23.6815 18.038 23.6857H13.5768V25.7899H18.038C18.2179 25.7899 18.3935 25.7772 18.5692 25.7644C19.4435 25.6957 20.2918 25.5201 21.1146 25.2157C21.9974 24.89 22.8287 24.4701 23.5913 23.9087C24.1485 23.4973 24.6669 23.0386 25.1341 22.5288C25.34 22.3016 25.5369 22.0658 25.7211 21.8173C26.3554 20.9604 26.8525 20.0345 27.1995 19.0276C27.555 17.9862 27.7221 16.9149 27.7481 15.8138C27.7524 15.5397 27.7311 15.2694 27.7098 14.9953H27.7013L27.7017 14.9972Z" fill="white"/>
<path d="M92.4453 19.4264C92.5664 19.566 92.6914 19.7104 92.8084 19.8591C92.9125 19.9945 93.0294 20.1204 93.1336 20.26C93.5752 20.8503 93.9833 21.4672 94.3322 22.1285C94.5523 22.5422 94.7682 22.956 94.9585 23.3877C95.3145 24.2015 95.5947 25.0417 95.8286 25.9038C95.9763 26.4605 96.0984 27.0219 96.1954 27.5914C96.2944 28.1713 96.346 28.6286 96.3796 28.933C96.4317 29.4035 96.4643 29.8173 96.4856 30.1571H97.0665C97.0617 29.9418 97.0523 29.6814 97.0324 29.3855C97.0234 29.2506 96.9831 28.6745 96.87 27.9052C96.7857 27.331 96.6717 26.7611 96.541 26.1954C96.4757 25.917 96.4018 25.6429 96.3195 25.3693C96.114 24.6777 95.8702 23.9993 95.5975 23.3337C95.4778 23.0459 95.349 22.7671 95.2122 22.493C94.8841 21.8454 94.5267 21.2201 94.1357 20.6165C93.9402 20.3149 93.7319 20.0309 93.5194 19.7474C93.4602 19.6683 93.3248 19.4993 93.0607 19.193C92.8159 18.909 92.4808 18.5326 92.0594 18.0957C91.9723 18.1549 91.8838 18.2164 91.7944 18.2808C91.7082 18.3428 91.6244 18.4048 91.5435 18.4664C91.6249 18.5478 91.739 18.6633 91.8734 18.8039C92.0292 18.9667 92.2176 19.1632 92.4453 19.4264Z" fill="white"/>
<path d="M91.1358 22.9144C91.2768 23.1979 91.4009 23.49 91.5211 23.7821C91.7649 24.3842 91.967 24.9996 92.1479 25.6288C92.2478 25.9767 92.3983 26.5183 92.5323 27.2449C92.7093 28.2049 92.7794 29.0717 92.858 30.0521C92.8613 30.0905 92.8636 30.126 92.8665 30.1577H93.47C93.4416 29.3955 93.3744 28.7271 93.2996 28.1732C93.1846 27.3207 93.0416 26.6754 92.9834 26.4184C92.8608 25.8754 92.7131 25.3362 92.5403 24.8108C92.3756 24.3075 92.1895 23.8086 91.9912 23.3191C91.9524 23.2235 91.7687 22.7974 91.523 22.3117C91.0245 21.328 90.446 20.4617 89.9461 19.7891L89.4917 20.2165C89.8145 20.6544 90.2676 21.3058 90.6875 22.0552C90.9261 22.4803 91.1017 22.8462 91.1358 22.9144Z" fill="white"/>
<path d="M89.5105 24.9101C89.6009 25.1885 89.6833 25.4673 89.7657 25.7499C89.8603 26.0822 89.9418 26.4145 90.0113 26.7559C90.0525 26.958 90.1534 27.4342 90.2424 28.0572C90.3266 28.6461 90.3635 29.0963 90.3849 29.3623C90.4095 29.6686 90.4251 29.9375 90.435 30.1562H91.0362C91.0277 29.9536 91.0149 29.7065 90.9941 29.4248C90.9387 28.6764 90.8587 28.1093 90.8317 27.9223C90.7475 27.3391 90.6334 26.7644 90.5027 26.1897C90.3924 25.7182 90.2566 25.2557 90.1084 24.7932C89.8348 23.9387 89.5635 23.3181 89.5053 23.1846C89.2733 22.6516 88.9495 21.9855 88.5022 21.2461C88.4269 21.3294 88.3517 21.4151 88.2759 21.5036C88.2125 21.577 88.1509 21.6504 88.0908 21.7228C88.4203 22.2932 88.6769 22.8144 88.8743 23.2566C88.9448 23.4142 89.2312 24.0519 89.5105 24.9106V24.9101Z" fill="white"/>
<path d="M89.634 22.3527C89.7087 22.4923 89.775 22.6405 89.8456 22.7801C89.8995 22.8791 89.9535 22.978 89.9989 23.0817C90.2768 23.6843 90.5249 24.3002 90.7223 24.9378C90.8127 25.2252 90.9036 25.5083 90.9812 25.8003C91.1246 26.3258 91.243 26.8598 91.3405 27.4028C91.4054 27.7796 91.4617 28.1564 91.5053 28.5379C91.5554 28.9749 91.5805 29.3389 91.6028 29.6594C91.6165 29.853 91.6264 30.0215 91.634 30.1584H92.2395C92.2338 30.0471 92.2262 29.9117 92.2158 29.7579C92.204 29.5813 92.1685 29.0857 92.1064 28.5379C92.0151 27.7351 91.8608 26.9497 91.6809 26.1639C91.6075 25.8453 91.5213 25.531 91.4267 25.2209C91.2662 24.7087 91.0972 24.2055 90.8988 23.707C90.7336 23.289 90.5599 22.871 90.3563 22.4705C90.042 21.8513 89.7755 21.3808 89.642 21.1611C89.4768 20.8894 89.3277 20.6636 89.2126 20.4941C89.0701 20.6428 88.9281 20.7919 88.7856 20.9405C88.8183 20.9841 88.8699 21.0546 88.9314 21.1427C89.286 21.652 89.5099 22.1216 89.634 22.3531V22.3527Z" fill="white"/>
<path d="M88.5103 25.6218C88.6831 26.2145 88.8261 26.8119 88.9312 27.4221C88.943 27.4917 88.9975 27.7984 89.0519 28.2074C89.1276 28.7741 89.1641 29.2314 89.1939 29.6115C89.211 29.8278 89.2233 30.0139 89.2323 30.1578H89.8373C89.8268 29.9519 89.8112 29.6934 89.7885 29.3956C89.7696 29.1509 89.7445 28.8295 89.6981 28.4403C89.6843 28.3244 89.6214 27.8335 89.5007 27.1792C89.3951 26.6093 89.2645 26.0436 89.104 25.4869C88.9563 24.9662 88.783 24.454 88.5889 23.9503C88.5037 23.7292 88.419 23.4996 88.2869 23.1995C88.0924 22.7564 87.9035 22.3961 87.7586 22.1367C87.6777 22.238 87.5962 22.3422 87.5148 22.4487C87.4533 22.5296 87.3927 22.6096 87.334 22.6896C87.5148 23.0191 87.7439 23.4698 87.9702 24.0222C88.2353 24.6689 88.3787 25.1692 88.5103 25.6218Z" fill="white"/>
<path d="M93.0645 18.7939C93.403 19.1366 93.7244 19.4931 94.0246 19.8718C94.1661 20.0521 94.3166 20.2235 94.4539 20.4081C94.8539 20.9577 95.2284 21.5296 95.5484 22.1369C95.6895 22.4025 95.8267 22.6723 95.9635 22.9374C96.1254 23.2522 96.2618 23.585 96.3943 23.9173C96.6424 24.5332 96.8398 25.1709 97.0206 25.8133C97.1603 26.3075 97.2706 26.8102 97.3638 27.3172C97.441 27.7347 97.5011 28.1565 97.5527 28.5826C97.5982 28.9561 97.6242 29.3088 97.6545 29.6813C97.6696 29.865 97.6815 30.0264 97.6909 30.1571H98.2879C98.285 30.105 98.2831 30.0629 98.2808 30.0079C98.2779 29.944 98.2756 29.8801 98.2718 29.8153C98.2367 29.3982 98.2102 28.9812 98.1582 28.5641C98.1104 28.174 98.054 27.7835 97.9854 27.3977C97.9205 27.0479 97.8514 26.6975 97.7695 26.352C97.6919 26.0017 97.6019 25.6514 97.4992 25.31C97.3757 24.8968 97.2398 24.4882 97.0869 24.0835C96.9463 23.7062 96.7977 23.3332 96.6362 22.9687C96.5117 22.6946 96.3749 22.4333 96.2381 22.1682C95.9394 21.5835 95.6024 21.0207 95.236 20.4805C95.0277 20.17 94.8156 19.859 94.5694 19.5797C94.4733 19.467 94.3857 19.3496 94.2901 19.237C94.1306 19.0476 93.9673 18.863 93.7992 18.6826C93.5351 18.3986 93.4021 18.2575 93.2212 18.0956C93.011 17.9077 92.8236 17.7676 92.6901 17.6738C92.6096 17.724 92.5272 17.777 92.4444 17.8319C92.3597 17.8883 92.2773 17.9446 92.1978 18.0005C92.2318 18.0298 92.2806 18.071 92.3383 18.1212C92.4354 18.2059 92.7516 18.4757 93.0655 18.7939H93.0645Z" fill="white"/>
<path d="M91.314 19.5075C91.4224 19.6362 91.4958 19.7451 91.6311 19.8952C91.7855 20.0665 91.9232 20.2511 92.0605 20.4358C92.6357 21.206 93.1133 22.0477 93.5365 22.9244C93.8561 23.581 94.1245 24.2551 94.3427 24.9557C94.4743 25.3732 94.6021 25.7865 94.7044 26.213C94.8762 26.8999 95.0064 27.5958 95.0982 28.3044C95.1304 28.552 95.1541 28.7996 95.1972 29.2242C95.235 29.5963 95.2644 29.9139 95.2857 30.1558H95.885C95.8755 29.9466 95.8613 29.6943 95.8391 29.4079C95.779 28.6339 95.6956 28.0573 95.6767 27.9276C95.5882 27.3307 95.4703 26.7474 95.3354 26.1638C95.2374 25.7505 95.1224 25.3467 94.9903 24.9467C94.8833 24.6276 94.7801 24.3133 94.6604 24.0032C94.5448 23.7064 94.4246 23.4101 94.3048 23.118C94.2305 22.9428 94.1515 22.7672 94.0686 22.601C93.9441 22.3535 93.8154 22.1153 93.6866 21.8768C93.4168 21.3683 93.1171 20.8869 92.8009 20.4183C92.488 19.9548 92.2091 19.6192 92.0884 19.472C91.8181 19.1434 91.5611 18.8622 91.3324 18.627C91.2553 18.6852 91.1772 18.7453 91.0986 18.8073C91.0186 18.8703 90.9405 18.9332 90.8643 18.9952C90.9239 19.0606 90.9944 19.1382 91.0725 19.2267C91.1204 19.2807 91.2075 19.3796 91.3144 19.5075H91.314Z" fill="white"/>
<path d="M90.5316 20.02C90.8487 20.439 91.3903 21.1277 91.8968 22.0731C92.0464 22.3519 92.1875 22.6355 92.3328 22.9143C92.4322 23.1079 92.5151 23.3101 92.6022 23.5122C92.7844 23.9349 92.9496 24.3619 93.094 24.8022C93.1887 25.0853 93.2753 25.3726 93.3572 25.6647C93.4311 25.9298 93.5049 26.1944 93.5665 26.4595C93.6848 26.9622 93.7781 27.474 93.8548 27.9852C93.9371 28.5358 93.9745 28.9647 94.037 29.6497C94.055 29.8494 94.0697 30.0222 94.0806 30.159H94.66C94.6581 30.0322 94.6543 29.875 94.6463 29.6942C94.633 29.4026 94.6003 28.9462 94.5085 28.2678C94.3764 27.2898 94.1852 26.3246 93.9054 25.3816C93.8069 25.0493 93.6995 24.717 93.584 24.3889C93.423 23.9307 93.2493 23.4767 93.0505 23.036C92.9511 22.8111 92.8516 22.591 92.7395 22.3751C92.5236 21.9566 92.2992 21.5386 92.054 21.1377C91.9252 20.9308 91.7917 20.7282 91.663 20.5256C91.4755 20.2373 91.2715 19.9627 91.0675 19.6924C91.0258 19.637 90.9695 19.5637 90.8951 19.4761C90.8658 19.4411 90.8483 19.4226 90.8005 19.3682C90.7309 19.2886 90.676 19.2238 90.64 19.1816C90.5737 19.237 90.5074 19.2934 90.4407 19.3506C90.3541 19.425 90.2688 19.4988 90.1851 19.5727C90.2206 19.6181 90.2731 19.6858 90.337 19.7682C90.337 19.7682 90.4431 19.904 90.5316 20.021V20.02Z" fill="white"/>
<path d="M76.1099 30.1559C76.0389 28.3178 76.3717 26.4839 77.0837 24.8171C78.2586 22.0662 80.1399 20.407 80.7576 19.8616C81.0133 19.6363 81.1207 19.5568 81.3811 19.3646C81.6817 19.1426 82.1849 18.7705 83.339 17.8564C85.1038 16.4585 86.0761 15.6883 86.835 14.9204C87.4494 14.2989 88.5936 13.1419 89.4713 11.5206C90.3882 9.82677 90.8692 7.86363 90.8682 5.82617H90.5208C90.4625 5.84321 90.4019 5.85268 90.3409 5.85268H90.303C90.2997 7.78884 89.8424 9.65114 88.9733 11.2569C88.1335 12.8082 87.0679 13.8861 86.4312 14.5299C85.7263 15.2433 84.8657 15.9316 82.9863 17.4204C81.8393 18.3288 81.3413 18.6971 81.0436 18.9172C80.7856 19.108 80.6563 19.2036 80.3822 19.4451C79.7408 20.0112 77.7881 21.7334 76.5639 24.5998C75.8226 26.3352 75.4742 28.2434 75.5452 30.1559H76.1104H76.1099Z" fill="white"/>
<path d="M78.0601 30.1559C77.9891 28.3178 78.3219 26.4839 79.0339 24.8171C80.2088 22.0662 82.0901 20.407 82.7078 19.8616C82.9635 19.6363 83.0709 19.5568 83.3313 19.3646C83.6319 19.1426 84.1351 18.7705 85.2892 17.8564C87.054 16.4585 88.0263 15.6883 88.7852 14.9204C89.3996 14.2989 90.5438 13.1419 91.4215 11.5206C92.3384 9.82677 92.8194 7.86363 92.8184 5.82617H92.2537C92.2546 7.7718 91.7969 9.64404 90.9235 11.2569C90.0837 12.8082 89.0181 13.8861 88.3814 14.5299C87.6765 15.2433 86.8159 15.9316 84.9365 17.4204C83.7895 18.3288 83.2915 18.6971 82.9938 18.9172C82.7358 19.108 82.6065 19.2036 82.3324 19.4451C81.691 20.0112 79.7383 21.7334 78.5141 24.5998C77.7728 26.3352 77.4244 28.2434 77.4954 30.1559H78.0611H78.0601Z" fill="white"/>
<path d="M79.7852 30.1559C79.7142 28.3178 80.047 26.4839 80.759 24.8171C81.9339 22.0662 83.8152 20.407 84.4329 19.8616C84.6885 19.6363 84.796 19.5568 85.0564 19.3646C85.357 19.1426 85.8602 18.7705 87.0143 17.8564C88.7791 16.4585 89.7514 15.6883 90.5103 14.9204C91.1247 14.2989 92.2689 13.1419 93.1466 11.5206C94.0635 9.82677 94.5445 7.86363 94.5435 5.82617H93.9788C93.9797 7.7718 93.5219 9.64404 92.6485 11.2569C91.8088 12.8082 90.7432 13.8861 90.1065 14.5299C89.4016 15.2433 88.541 15.9316 86.6616 17.4204C85.5146 18.3288 85.0166 18.6971 84.7188 18.9172C84.4608 19.108 84.3316 19.2036 84.0575 19.4451C83.4161 20.0112 81.4634 21.7334 80.2392 24.5998C79.4979 26.3352 79.1495 28.2434 79.2205 30.1559H79.7862H79.7852Z" fill="white"/>
<path d="M81.7359 30.1559C81.6649 28.3178 81.9977 26.4839 82.7096 24.8171C83.8846 22.0662 85.7658 20.407 86.3836 19.8616C86.6392 19.6363 86.7467 19.5568 87.0071 19.3646C87.3077 19.1426 87.8109 18.7705 88.965 17.8564C90.7298 16.4585 91.7021 15.6883 92.4609 14.9204C93.0754 14.2989 94.2196 13.1419 95.0972 11.5206C96.0142 9.82677 96.4952 7.86363 96.4942 5.82617H95.9295C95.9304 7.7718 95.4726 9.64404 94.5992 11.2569C93.7594 12.8082 92.6939 13.8861 92.0571 14.5299C91.3523 15.2433 90.4917 15.9316 88.6123 17.4204C87.4653 18.3288 86.9673 18.6971 86.6695 18.9172C86.4115 19.108 86.2823 19.2036 86.0082 19.4451C85.3668 20.0112 83.4141 21.7334 82.1899 24.5998C81.4485 26.3352 81.1001 28.2434 81.1711 30.1559H81.7364H81.7359Z" fill="white"/>
<path d="M83.5274 30.1559C83.4564 28.3178 83.7892 26.4839 84.5012 24.8171C85.6761 22.0662 87.5573 20.407 88.1751 19.8616C88.4307 19.6363 88.5382 19.5568 88.7986 19.3646C89.0992 19.1426 89.6024 18.7705 90.7565 17.8564C92.5213 16.4585 93.4936 15.6883 94.2524 14.9204C94.8669 14.2989 96.0111 13.1419 96.8887 11.5206C97.8057 9.82677 98.2867 7.86363 98.2857 5.82617H97.721C97.7219 7.7718 97.2641 9.64404 96.3907 11.2569C95.551 12.8082 94.4854 13.8861 93.8487 14.5299C93.1438 15.2433 92.2832 15.9316 90.4038 17.4204C89.2568 18.3288 88.7588 18.6971 88.461 18.9172C88.203 19.108 88.0738 19.2036 87.7997 19.4451C87.1583 20.0112 85.2056 21.7334 83.9814 24.5998C83.2401 26.3352 82.8916 28.2434 82.9626 30.1559H83.5283H83.5274Z" fill="white"/>
<path d="M81.4812 15.6631C81.3567 15.5235 81.228 15.3791 81.1077 15.2304C81.0003 15.0951 80.88 14.9691 80.773 14.8295C80.3186 14.2392 79.8987 13.6223 79.5399 12.961C79.3136 12.5473 79.0916 12.1335 78.8951 11.7018C78.5287 10.8881 78.2404 10.0478 77.9999 9.18575C77.848 8.62905 77.7221 8.06761 77.6222 7.49812C77.5204 6.91822 77.4669 6.46093 77.4323 6.15654C77.4205 6.05287 77.4101 5.95299 77.4002 5.85547H76.772C76.7919 6.10305 76.8373 6.58496 76.9277 7.18427C77.0148 7.75849 77.1317 8.32845 77.2662 8.89414C77.3334 9.1725 77.4096 9.44659 77.4939 9.72021C77.7055 10.4118 77.9559 11.0902 78.2371 11.7558C78.3607 12.0436 78.4927 12.3224 78.6338 12.5965C78.9709 13.2441 79.3387 13.8694 79.7415 14.473C79.9427 14.7746 80.1572 15.0586 80.3759 15.3422C80.4369 15.4212 80.5761 15.5902 80.8478 15.8965C81.0997 16.1805 81.4443 16.5569 81.8779 16.9938C81.9674 16.9346 82.0588 16.8731 82.1506 16.8087C82.2396 16.7467 82.3257 16.6847 82.4091 16.6231C82.3253 16.5417 82.2079 16.4262 82.0696 16.2856C81.9096 16.1228 81.7156 15.9263 81.4812 15.6631Z" fill="white"/>
<path d="M82.8296 12.1761C82.6842 11.8926 82.5569 11.6005 82.4333 11.3084C82.1824 10.7063 81.9746 10.0909 81.7886 9.46174C81.6859 9.1138 81.5311 8.57224 81.3933 7.84559C81.2631 7.15965 81.1893 6.52153 81.1282 5.85547H80.4854C80.5185 6.24412 80.5597 6.59963 80.6037 6.9168C80.722 7.76938 80.8693 8.4146 80.9289 8.67165C81.0548 9.21463 81.2068 9.75382 81.3848 10.2793C81.5543 10.7825 81.7455 11.2814 81.95 11.7709C81.9898 11.8665 82.1787 12.2926 82.4319 12.7783C82.9446 13.762 83.5401 14.6283 84.0542 15.301L84.5214 14.8735C84.1896 14.4356 83.7233 13.7842 83.2911 13.0353C83.0459 12.6102 82.8646 12.2443 82.83 12.1761H82.8296Z" fill="white"/>
<path d="M84.5008 10.1789C84.4076 9.90057 84.3228 9.62174 84.2386 9.33913C84.1415 9.00681 84.0573 8.67449 83.9858 8.33318C83.9436 8.13104 83.84 7.65482 83.7481 7.03184C83.6743 6.5291 83.6359 6.12767 83.6123 5.85547H82.9902C83.0456 6.50827 83.1162 6.99586 83.1417 7.16675C83.2283 7.74997 83.3457 8.32466 83.4802 8.89935C83.5938 9.37085 83.7334 9.83334 83.8859 10.2958C84.1675 11.1503 84.4464 11.7709 84.5065 11.9044C84.7451 12.4375 85.0783 13.1035 85.5385 13.8429C85.6156 13.7596 85.6933 13.6739 85.7714 13.5854C85.8367 13.512 85.9001 13.4387 85.9617 13.3662C85.6227 12.7958 85.3591 12.2746 85.1555 11.8325C85.0831 11.6748 84.7882 11.0372 84.5008 10.1784V10.1789Z" fill="white"/>
<path d="M84.3747 12.7361C84.298 12.5964 84.2294 12.4483 84.157 12.3086C84.1016 12.2097 84.0457 12.1108 83.9989 12.0071C83.7134 11.4045 83.4578 10.7886 83.2547 10.1509C83.1614 9.86358 83.0682 9.5805 82.9882 9.28842C82.8405 8.76296 82.7188 8.22898 82.6185 7.686C82.5517 7.30918 82.494 6.93237 82.449 6.55082C82.4187 6.29519 82.3979 6.06512 82.3803 5.85352H81.7588C81.7768 6.05755 81.8004 6.2985 81.8303 6.55129C81.924 7.35415 82.0831 8.1395 82.2682 8.92533C82.3439 9.24392 82.4324 9.55825 82.5299 9.86832C82.6952 10.3805 82.8689 10.8837 83.0734 11.3822C83.2433 11.8002 83.4223 12.2182 83.6315 12.6187C83.9548 13.2379 84.2289 13.7084 84.3667 13.9281C84.5366 14.1998 84.69 14.4256 84.8084 14.5951C84.9546 14.4464 85.1014 14.2973 85.2476 14.1487C85.214 14.1051 85.161 14.0346 85.0976 13.9466C84.7326 13.4372 84.5025 12.9676 84.3747 12.7361Z" fill="white"/>
<path d="M85.5303 9.46836C85.3528 8.87568 85.2056 8.27827 85.0972 7.66807C85.0849 7.59848 85.029 7.29173 84.9727 6.88272C84.9187 6.4917 84.8841 6.15276 84.8581 5.85547H84.228C84.246 6.07465 84.2702 6.34069 84.308 6.64981C84.3222 6.76579 84.3866 7.2567 84.5111 7.91092C84.6195 8.48088 84.754 9.04658 84.9192 9.60328C85.0711 10.124 85.2496 10.6362 85.4494 11.1399C85.5374 11.361 85.6245 11.5906 85.7599 11.8907C85.9601 12.3338 86.1547 12.694 86.3034 12.9534C86.3867 12.8521 86.4705 12.748 86.5542 12.6415C86.6177 12.5605 86.6797 12.4805 86.7403 12.4005C86.5542 12.071 86.3185 11.6204 86.0856 11.0679C85.8129 10.4213 85.6652 9.92092 85.5298 9.46836H85.5303Z" fill="white"/>
<path d="M80.8457 16.296C80.4977 15.9533 80.1668 15.5968 79.8582 15.2181C79.7124 15.0378 79.5576 14.8664 79.4165 14.6818C79.0051 14.1322 78.6198 13.5603 78.2908 12.953C78.1455 12.6874 78.0049 12.4176 77.8638 12.1525C77.6972 11.8377 77.5566 11.5049 77.4207 11.1726C77.1655 10.5567 76.962 9.91903 76.7764 9.27664C76.6325 8.78242 76.5194 8.27969 76.4233 7.77269C76.3438 7.35516 76.2822 6.93337 76.2287 6.50732C76.2008 6.28578 76.1804 6.07086 76.1615 5.85547H75.5366C75.5556 6.07891 75.5769 6.30235 75.6053 6.52579C75.6545 6.91586 75.7123 7.3064 75.7833 7.69221C75.85 8.04205 75.921 8.39235 76.0053 8.73793C76.0853 9.08823 76.1776 9.43854 76.2836 9.77985C76.4105 10.1931 76.5506 10.6017 76.7078 11.0064C76.8522 11.3837 77.0055 11.7567 77.1717 12.1212C77.2995 12.3953 77.4406 12.6562 77.5817 12.9217C77.8889 13.5064 78.2354 14.0692 78.6127 14.6094C78.8267 14.9199 79.0454 15.2309 79.2986 15.5102C79.3976 15.6229 79.4875 15.7403 79.586 15.8529C79.7502 16.0423 79.9183 16.2269 80.0906 16.4073C80.3623 16.6913 80.4991 16.8324 80.6852 16.9943C80.9015 17.1822 81.0942 17.3223 81.2319 17.4161C81.3148 17.3659 81.3995 17.3129 81.4847 17.258C81.5723 17.2016 81.6566 17.1453 81.7385 17.0894C81.703 17.0601 81.6533 17.0189 81.5941 16.9687C81.4942 16.884 81.169 16.6142 80.8461 16.296H80.8457Z" fill="white"/>
<path d="M82.6465 15.5812C82.5352 15.4525 82.4595 15.3436 82.3203 15.1935C82.1612 15.0221 82.0197 14.8375 81.8786 14.6529C81.2869 13.8827 80.795 13.041 80.36 12.1643C80.0315 11.5077 79.755 10.8336 79.5306 10.133C79.3952 9.71547 79.2636 9.3022 79.1585 8.87568C78.9815 8.1888 78.848 7.49292 78.7533 6.78426C78.7202 6.53667 78.6956 6.28909 78.6515 5.86446C78.6515 5.86162 78.6511 5.85878 78.6506 5.85547H78.0054C78.065 6.54046 78.1398 7.0413 78.1578 7.16107C78.2487 7.75801 78.3704 8.34123 78.5091 8.92491C78.6099 9.33818 78.7282 9.74198 78.8641 10.142C78.9744 10.4611 79.0804 10.7754 79.2035 11.0855C79.3228 11.3823 79.4459 11.6786 79.5694 11.9707C79.6461 12.1458 79.7271 12.3215 79.8123 12.4876C79.9406 12.7352 80.0727 12.9733 80.2052 13.2119C80.4831 13.7203 80.7913 14.2018 81.1165 14.6704C81.4384 15.1339 81.7252 15.4695 81.8497 15.6167C82.1276 15.9453 82.3927 16.2264 82.6275 16.4617C82.7071 16.4035 82.7871 16.3434 82.868 16.2814C82.9504 16.2184 83.0308 16.1554 83.1094 16.0934C83.0479 16.0281 82.9755 15.9505 82.895 15.8619C82.8458 15.808 82.7563 15.709 82.646 15.5812H82.6465Z" fill="white"/>
<path d="M83.4503 15.0714C83.1237 14.6524 82.567 13.9637 82.0453 13.0183C81.8914 12.7395 81.7466 12.4559 81.597 12.1771C81.4943 11.9835 81.4095 11.7813 81.32 11.5792C81.1326 11.1565 80.9626 10.7295 80.814 10.2892C80.7165 10.0061 80.6275 9.71879 80.5432 9.4267C80.467 9.16161 80.3913 8.89698 80.3283 8.63189C80.2062 8.12915 80.1105 7.61742 80.0315 7.10616C79.9652 6.6749 79.9269 6.31844 79.8828 5.85547H79.2476C79.2693 6.1111 79.3034 6.42969 79.3583 6.82355C79.4942 7.80157 79.6911 8.7668 79.9785 9.70979C80.0798 10.0421 80.1901 10.3744 80.3089 10.7025C80.4746 11.1607 80.653 11.6147 80.8575 12.0554C80.9598 12.2803 81.0621 12.5004 81.1776 12.7163C81.3996 13.1348 81.6301 13.5528 81.8829 13.9537C82.0155 14.1606 82.1527 14.3632 82.2853 14.5658C82.478 14.8541 82.6881 15.1287 82.8983 15.399C82.9414 15.4544 82.9991 15.5277 83.0754 15.6153C83.1057 15.6503 83.1237 15.6688 83.1729 15.7232C83.2444 15.8028 83.3012 15.8676 83.3381 15.9097C83.4063 15.8544 83.4744 15.798 83.5431 15.7408C83.6321 15.6664 83.7201 15.5926 83.8063 15.5187C83.7698 15.4733 83.7159 15.4056 83.6501 15.3232C83.6501 15.3232 83.5412 15.1874 83.4498 15.0704L83.4503 15.0714Z" fill="white"/>
<path d="M24.5373 36.5851V35.3017C24.6144 35.2838 24.6887 35.2629 24.7645 35.2487C25.0267 35.2004 25.289 35.1545 25.5517 35.1081C25.6829 35.0849 25.814 35.0613 25.9456 35.0414C26.0275 35.0291 26.1108 35.0224 26.1932 35.0134C26.3371 34.9983 26.4815 34.9831 26.6254 34.9699C26.6926 34.9637 26.7603 34.9609 26.828 34.9571C26.9804 34.9486 27.1333 34.9434 27.2853 34.9325C27.5078 34.9159 27.7298 34.9334 27.9513 34.9481C28.1554 34.9618 28.358 34.9921 28.5596 35.0291C28.7144 35.0579 28.8602 35.1152 29.0089 35.1621C29.221 35.2288 29.4311 35.2998 29.6423 35.3704C29.6787 35.3827 29.7147 35.3978 29.7478 35.4168C30.0054 35.5664 30.2198 35.7657 30.4025 35.999C30.5095 36.1358 30.5644 36.2973 30.6004 36.4649C30.6288 36.5979 30.6402 36.7323 30.6402 36.8682C30.6402 38.0384 30.6402 39.2086 30.6402 40.3783V40.4475C30.6203 40.4498 30.6037 40.4536 30.5876 40.4536C30.1119 40.4536 29.6361 40.4536 29.1604 40.4536C29.1471 40.4536 29.1338 40.4513 29.1121 40.4494C29.1073 40.286 29.1135 40.1232 29.1083 39.9514C29.0799 39.9637 29.0605 39.9708 29.0425 39.9798C28.9374 40.0333 28.8323 40.0863 28.7282 40.1417C28.5544 40.2344 28.3655 40.2841 28.179 40.3414C28.0867 40.3698 27.9949 40.4015 27.9016 40.4247C27.8008 40.4498 27.6981 40.4688 27.5953 40.4882C27.4623 40.5133 27.3293 40.5384 27.1958 40.5582C27.0988 40.5729 27.0003 40.581 26.9023 40.5876C26.7134 40.6004 26.5241 40.615 26.3347 40.6198C26.2173 40.6226 26.099 40.6136 25.9816 40.6018C25.8182 40.5852 25.6545 40.5668 25.493 40.5374C25.4007 40.5208 25.3127 40.4815 25.2232 40.4508C25.075 40.4001 24.9273 40.3485 24.7796 40.2965C24.756 40.2879 24.7328 40.278 24.7119 40.2643C24.3498 40.0318 24.1235 39.7052 24.043 39.282C24.0075 39.094 24.0156 38.9042 24.0449 38.7158C24.0781 38.5037 24.1567 38.3101 24.2935 38.1425C24.4128 37.9963 24.5524 37.8718 24.7115 37.77C24.8653 37.671 25.0305 37.5953 25.2052 37.5437C25.4982 37.4575 25.7917 37.3747 26.0867 37.2956C26.3915 37.2138 26.7021 37.1612 27.0154 37.1257C27.361 37.0869 27.7066 37.0466 28.0531 37.013C28.2917 36.9898 28.5312 36.9771 28.7698 36.96C28.8702 36.9529 28.9705 36.9477 29.0709 36.9411C29.0823 36.9401 29.0931 36.9363 29.1102 36.9326C29.1102 36.8914 29.1163 36.8502 29.1088 36.8114C29.0922 36.7266 29.0785 36.64 29.0207 36.569C28.9975 36.5406 28.9767 36.5098 28.9592 36.4776C28.9199 36.4052 28.8602 36.3574 28.7892 36.3181C28.6387 36.2353 28.4806 36.177 28.3125 36.142C28.0219 36.0814 27.7288 36.0454 27.432 36.0487C27.2715 36.0506 27.1115 36.0615 26.9511 36.07C26.81 36.0776 26.6684 36.08 26.5288 36.0989C26.2897 36.1316 26.0512 36.1714 25.8135 36.2154C25.6672 36.2428 25.5243 36.2859 25.3794 36.319C25.1224 36.3773 24.8748 36.4658 24.6258 36.5486C24.5988 36.5576 24.5723 36.569 24.5373 36.5827V36.5851ZM29.1523 38.0232C29.1291 38.0223 29.1182 38.0204 29.1069 38.0209C28.7537 38.0389 28.4001 38.0559 28.047 38.0758C27.8983 38.0843 27.7497 38.0947 27.602 38.1113C27.3908 38.1345 27.1802 38.1638 26.969 38.1913C26.8559 38.206 26.7418 38.2169 26.6306 38.2405C26.4871 38.2704 26.3456 38.3106 26.2036 38.3475C26.1383 38.3646 26.072 38.3802 26.0095 38.4057C25.8514 38.4706 25.7051 38.5558 25.5763 38.6704C25.5584 38.6865 25.5451 38.7021 25.5408 38.7272C25.5333 38.7745 25.52 38.8214 25.511 38.8687C25.4911 38.9776 25.4836 39.0841 25.5763 39.1693C25.592 39.1835 25.6019 39.2034 25.6161 39.219C25.6275 39.2318 25.6398 39.2455 25.6549 39.2531C25.7889 39.3189 25.9262 39.3804 26.072 39.4089C26.2173 39.4368 26.3655 39.4581 26.5151 39.4548C26.6812 39.4515 26.8479 39.4529 27.0135 39.4448C27.1309 39.4391 27.2507 39.432 27.3643 39.4051C27.6498 39.3378 27.9362 39.2744 28.2164 39.184C28.4678 39.103 28.7097 39.0055 28.944 38.8858C28.9705 38.872 28.9862 38.854 28.9909 38.8247C28.9933 38.8095 28.998 38.7944 29.0008 38.7792C29.0378 38.5956 29.0747 38.4119 29.1116 38.2282C29.1249 38.1624 29.1367 38.0961 29.1509 38.0232H29.1523Z" fill="white"/>
<path d="M23.0186 38.3943H17.5491C17.5557 38.4241 17.5581 38.4464 17.5652 38.4667C17.6177 38.623 17.6968 38.7631 17.8175 38.8776C17.8667 38.9245 17.9169 38.9699 17.9619 39.0206C18.0314 39.0987 18.1181 39.1508 18.2099 39.1972C18.4608 39.3245 18.7231 39.422 18.9905 39.5068C19.1354 39.5527 19.2859 39.5655 19.4365 39.5749C19.7205 39.5929 20.0045 39.5849 20.2881 39.564C20.4386 39.5532 20.5892 39.5489 20.7397 39.538C20.8107 39.5328 20.8817 39.5205 20.9518 39.5087C21.1231 39.4793 21.2954 39.4528 21.4654 39.4168C21.5785 39.3927 21.6903 39.3586 21.7996 39.3217C21.9989 39.254 22.1963 39.1816 22.3942 39.1096C22.432 39.0959 22.4666 39.0736 22.5026 39.0556C22.5163 39.0959 22.5225 40.0734 22.5092 40.2126C22.4311 40.2325 22.3511 40.2533 22.2711 40.2732C21.9369 40.3551 21.6027 40.436 21.2685 40.5184C21.1104 40.5577 20.9489 40.5766 20.7875 40.5908C20.4325 40.6211 20.0769 40.6287 19.721 40.6216C19.205 40.6112 18.6961 40.5444 18.1967 40.4114C17.8075 40.3077 17.4364 40.1629 17.1003 39.9371C16.6321 39.6218 16.3173 39.1915 16.1436 38.657C16.0304 38.3086 16.003 37.9503 16.0271 37.5858C16.0622 37.0598 16.27 36.6058 16.5886 36.194C16.8977 35.7945 17.293 35.5085 17.7488 35.3012C17.879 35.242 18.0106 35.1847 18.146 35.1402C18.2776 35.0967 18.4139 35.0664 18.5493 35.0375C18.6738 35.011 18.8002 34.9921 18.9261 34.9727C19.0061 34.9604 19.0871 34.9509 19.168 34.9457C19.4109 34.9301 19.6542 34.9125 19.898 34.9334C20.0556 34.9466 20.2133 34.9622 20.3704 34.9831C20.6374 35.0181 20.8959 35.0905 21.1501 35.1781C21.3797 35.2572 21.5918 35.3717 21.7958 35.5029C22.21 35.7689 22.505 36.1348 22.7175 36.5746C22.877 36.9041 22.9679 37.2506 23.0048 37.6137C23.0299 37.8627 23.0228 38.1122 23.0243 38.3612C23.0243 38.3687 23.0219 38.3763 23.0186 38.3938V38.3943ZM17.5472 37.2284C17.5576 37.2317 17.5633 37.235 17.5685 37.235C18.8674 37.2355 20.1664 37.2359 21.4659 37.2364C21.481 37.2364 21.4966 37.234 21.5118 37.2326C21.5137 37.2326 21.5151 37.2307 21.5165 37.2293C21.5179 37.2279 21.5189 37.2265 21.5246 37.2208C21.5203 37.1867 21.5142 37.1493 21.5108 37.111C21.5037 37.0243 21.4815 36.9448 21.4252 36.8757C21.3996 36.8444 21.3778 36.8094 21.3575 36.7744C21.2424 36.5765 21.064 36.4477 20.8703 36.3408C20.7747 36.2877 20.6687 36.2527 20.5664 36.2129C20.5181 36.194 20.4675 36.1779 20.4164 36.1703C20.1967 36.1372 19.9766 36.1078 19.7565 36.0771C19.6916 36.0681 19.6263 36.0544 19.561 36.0525C19.3574 36.0468 19.1553 36.0633 18.956 36.1045C18.716 36.1538 18.4925 36.2513 18.2719 36.355C18.2184 36.38 18.1687 36.416 18.1219 36.4529C18.0565 36.5041 17.9974 36.5637 17.9311 36.6134C17.8317 36.6877 17.755 36.7801 17.693 36.8861C17.6532 36.9543 17.6115 37.022 17.5756 37.0925C17.5547 37.1332 17.5386 37.1772 17.5476 37.2288L17.5472 37.2284Z" fill="white"/>
<path d="M50.8519 35.0591H52.3327V40.4851C52.2858 40.4979 50.9087 40.4993 50.8472 40.4851C50.8472 40.3388 50.8467 40.1906 50.8467 40.0425C50.8467 39.8915 50.8467 39.7409 50.8467 39.5899V38.2422C50.8292 38.2384 50.8164 38.2341 50.8041 38.2327C50.7908 38.2313 50.7771 38.2322 50.7634 38.2322C49.5468 38.2322 48.3306 38.2322 47.114 38.2322C47.0894 38.2322 47.0648 38.2322 47.034 38.2322C47.0321 38.2692 47.0288 38.2995 47.0288 38.3293C47.0288 38.538 47.0288 38.7473 47.0288 38.956C47.0288 39.4417 47.0288 39.927 47.0288 40.4127C47.0288 40.4392 47.026 40.4652 47.0241 40.4946H45.5533C45.5405 40.4519 45.5367 35.1391 45.549 35.0657C45.593 35.0525 46.9569 35.0501 47.0246 35.0643C47.026 35.0885 47.0293 35.115 47.0293 35.141C47.0293 35.7309 47.0293 36.3207 47.0293 36.911C47.0293 36.9456 47.0317 36.9796 47.0326 37.0123C47.0828 37.0251 50.7833 37.027 50.8476 37.0147C50.8491 36.9901 50.8524 36.9636 50.8524 36.9375C50.8524 36.3396 50.8524 35.7422 50.8524 35.1443V35.0591H50.8519Z" fill="white"/>
<path d="M13.1439 37.0177C13.1453 36.986 13.1481 36.9576 13.1481 36.9287C13.1481 36.3332 13.1481 35.7372 13.1481 35.1417C13.1481 35.1152 13.151 35.0887 13.1519 35.064C13.2083 35.0503 14.5768 35.0498 14.6303 35.0636V40.4834C14.5844 40.4966 13.2144 40.4985 13.1519 40.4848C13.1505 40.4602 13.1477 40.4337 13.1477 40.4076C13.1477 39.7151 13.1477 39.023 13.1477 38.3304C13.1477 38.3001 13.1453 38.2694 13.1439 38.2348H9.33027C9.32222 38.3626 9.32743 38.4876 9.32648 38.6126C9.32554 38.7361 9.32648 38.8601 9.32648 38.9837V40.1094C9.32648 40.2349 9.32648 40.3603 9.32648 40.4829C9.28009 40.4985 7.92763 40.5033 7.85046 40.49C7.83863 40.4484 7.83531 35.1289 7.84762 35.0636C7.89307 35.0498 9.25926 35.0484 9.32222 35.0636C9.32364 35.0882 9.32648 35.1142 9.32648 35.1407C9.32648 35.7325 9.32648 36.3242 9.32648 36.9159C9.32648 36.9481 9.32885 36.9808 9.33027 37.0168H13.1429L13.1439 37.0177Z" fill="white"/>
<path d="M42.1492 40.4504H40.6679C40.6665 40.4186 40.6646 40.3902 40.6646 40.3618C40.6646 39.0117 40.6646 37.6621 40.6646 36.312C40.6646 36.2817 40.6618 36.2519 40.6604 36.2164H38.3251C38.3095 36.1714 38.3038 35.1621 38.3166 35.066C38.318 35.0646 38.319 35.0627 38.3204 35.0618C38.3218 35.0604 38.3237 35.0589 38.3251 35.0589C38.3403 35.0571 38.3559 35.0547 38.3711 35.0547C40.4071 35.0547 42.4436 35.0556 44.4796 35.0561C44.4848 35.0561 44.4905 35.0594 44.4957 35.0608C44.508 35.1049 44.5104 36.1463 44.4967 36.215H44.4195C43.6943 36.215 42.9691 36.215 42.2438 36.215C42.1411 36.215 42.1496 36.2083 42.1496 36.3087C42.1496 37.6607 42.1496 39.0122 42.1496 40.3642V40.4499L42.1492 40.4504Z" fill="white"/>
<path d="M37.8674 39.2494V40.4504C37.8442 40.4518 37.8239 40.4547 37.8035 40.4547C36.7517 40.4547 35.6998 40.4556 34.6479 40.4537C34.2995 40.4533 33.952 40.4277 33.6088 40.369C33.4072 40.3344 33.2126 40.2644 33.0346 40.1588C32.9868 40.1304 32.9437 40.094 32.8988 40.0603C32.885 40.0499 32.8727 40.0367 32.8585 40.0277C32.6848 39.9193 32.5735 39.7597 32.4841 39.5803C32.4415 39.4946 32.4334 39.4023 32.4183 39.3114C32.3866 39.1226 32.3563 38.9337 32.3264 38.7448C32.3212 38.7126 32.3193 38.6795 32.3193 38.6468C32.3193 37.4771 32.3193 36.3069 32.3193 35.1371V35.0618C32.3449 35.0595 32.3653 35.0566 32.3856 35.0566C32.8382 35.0566 33.2907 35.0566 33.7428 35.0566C33.7617 35.0566 33.7802 35.0595 33.8053 35.0614V35.1456C33.8053 36.1066 33.8053 37.0676 33.8048 38.029C33.8048 38.1611 33.8186 38.2913 33.8346 38.422C33.8427 38.4868 33.847 38.5536 33.8664 38.6151C33.9061 38.7405 33.962 38.8598 34.0434 38.9649C34.077 39.008 34.1144 39.0464 34.1651 39.07C34.184 39.079 34.2025 39.0904 34.2195 39.1027C34.3066 39.1666 34.4089 39.1851 34.5116 39.2049C34.7275 39.2466 34.9452 39.2513 35.1639 39.2509C36.0359 39.2499 36.9079 39.2509 37.7799 39.2509H37.8689L37.8674 39.2494Z" fill="white"/>
</svg>
