<svg width="24" height="24" viewBox="0 0 24 24" fill="none" xmlns="http://www.w3.org/2000/svg">
<mask id="path-1-outside-1_662_2676" maskUnits="userSpaceOnUse" x="4" y="2" width="15" height="20" fill="black">
<rect fill="white" x="4" y="2" width="15" height="20"/>
<path fill-rule="evenodd" clip-rule="evenodd" d="M8.43125 6.90982C8.92025 6.90982 9.3635 6.71184 9.68373 6.39083C10.004 6.07058 10.2027 5.62734 10.2027 5.13836C10.2027 4.64938 10.0047 4.20611 9.68373 3.88588C9.36348 3.56563 8.92023 3.36689 8.43125 3.36689C7.94227 3.36689 7.49901 3.56488 7.17878 3.88588C6.85852 4.20613 6.65979 4.64938 6.65979 5.13836C6.65979 5.62734 6.85777 6.0706 7.17878 6.39083C7.49903 6.71184 7.94227 6.90982 8.43125 6.90982ZM10.994 7.65232H14.0074C14.1087 7.65232 14.1912 7.73482 14.1912 7.83607V7.96806H14.5092C14.7769 7.96806 15.0207 8.07756 15.1969 8.25381C15.3732 8.43007 15.4827 8.67381 15.4827 8.94155C15.4827 9.20929 15.3732 9.45305 15.1969 9.62929C15.0207 9.80553 14.7769 9.91504 14.5092 9.91504H14.1912V10.0043C14.1912 10.1055 14.1087 10.188 14.0074 10.188L11.6944 10.1888V14.829C11.6944 15.1665 11.8324 15.4725 12.0552 15.6952C12.2779 15.918 12.5839 16.056 12.9214 16.056H14.5609V15.7432C14.5609 15.642 14.6434 15.5595 14.7447 15.5595H15.3379C15.4286 15.333 15.5644 15.129 15.7346 14.9595C16.0594 14.6347 16.5071 14.4345 17.0021 14.4345C17.4971 14.4345 17.9456 14.6355 18.2696 14.9595C18.5944 15.2842 18.7946 15.732 18.7946 16.227C18.7946 16.722 18.5936 17.1705 18.2696 17.4945C17.9449 17.8192 17.4971 18.0195 17.0021 18.0195C16.5071 18.0195 16.0586 17.8185 15.7346 17.4945C15.5651 17.325 15.4294 17.121 15.3379 16.8945H14.7447C14.6434 16.8945 14.5609 16.812 14.5609 16.7107V16.4227H12.9214C12.4827 16.4227 12.0844 16.2435 11.7957 15.9547C11.5069 15.666 11.3277 15.2677 11.3277 14.829L11.3269 10.1888H10.9947C10.8934 10.1888 10.8109 10.1063 10.8109 10.005V9.91579H10.6969V19.815C10.6969 20.1413 10.5634 20.4375 10.3489 20.652C10.1337 20.8665 9.83745 21 9.51121 21C9.18496 21 8.88871 20.8665 8.67421 20.652C8.61196 20.5898 8.55721 20.5215 8.50996 20.4473C8.46271 20.5215 8.40796 20.5905 8.34571 20.652C8.13196 20.8665 7.83573 21 7.50947 21C7.18322 21 6.88697 20.8665 6.67247 20.652C6.45797 20.4375 6.32448 20.1413 6.32448 19.815L6.32523 14.8208C5.98023 14.7833 5.66973 14.6265 5.43649 14.3933C5.16725 14.124 5 13.7528 5 13.344V10.2945C5 9.65479 5.26175 9.07279 5.68324 8.6513C6.10474 8.2298 6.68674 7.96805 7.32648 7.96805H10.8109V7.83606C10.8101 7.73481 10.8928 7.65232 10.994 7.65232ZM14.1912 8.33556V9.54905H14.5092C14.6757 9.54905 14.8272 9.4808 14.9374 9.37055C15.0477 9.2603 15.1159 9.1088 15.1159 8.9423C15.1159 8.7758 15.0477 8.62431 14.9374 8.51404C14.8272 8.4038 14.6757 8.33555 14.5092 8.33555L14.1912 8.33556ZM10.8103 9.54905V8.33556H7.3265C6.788 8.33556 6.29825 8.55605 5.94277 8.91081C5.58802 9.26631 5.36753 9.75529 5.36753 10.2945V13.344C5.36753 13.6515 5.49352 13.9313 5.69602 14.1338C5.86251 14.3003 6.08151 14.415 6.3245 14.451V10.521C6.3245 10.4198 6.407 10.3373 6.50825 10.3373C6.6095 10.3373 6.692 10.4198 6.692 10.521V19.8156C6.692 20.0399 6.78425 20.2446 6.93199 20.3924C7.08049 20.5409 7.28448 20.6324 7.50874 20.6324C7.73299 20.6324 7.93774 20.5401 8.08548 20.3924C8.23398 20.2439 8.32547 20.0399 8.32547 19.8156L8.32622 15.4446C8.32622 15.3434 8.40872 15.2609 8.50997 15.2609C8.61122 15.2609 8.69372 15.3434 8.69372 15.4446V19.8156C8.69372 20.0399 8.78597 20.2446 8.93372 20.3924C9.08222 20.5409 9.28621 20.6324 9.51046 20.6324C9.73471 20.6324 9.93946 20.5401 10.0872 20.3924C10.2357 20.2439 10.3272 20.0399 10.3272 19.8156L10.3279 9.73267C10.3279 9.63142 10.4104 9.54892 10.5117 9.54892L10.8103 9.54905ZM13.8237 8.01982H11.1778V9.82205H13.8229V8.15182L13.8237 8.01982ZM17.8107 16.4107H17.0007C16.8995 16.4107 16.817 16.3282 16.817 16.227C16.817 16.1257 16.8995 16.0432 17.0007 16.0432H17.8107C17.7755 15.888 17.6967 15.7485 17.588 15.6397C17.438 15.4897 17.2302 15.3967 17.0007 15.3967C16.7712 15.3967 16.5642 15.4897 16.4135 15.6397C16.2635 15.7897 16.1705 15.9975 16.1705 16.2269C16.1705 16.4564 16.2635 16.6634 16.4135 16.8142C16.5635 16.9642 16.7712 17.0572 17.0007 17.0572C17.2302 17.0572 17.4372 16.9642 17.588 16.8142C17.6967 16.7054 17.7755 16.5667 17.8107 16.4107ZM16.154 17.0737C16.3707 17.2904 16.67 17.4247 17.0007 17.4247C17.3315 17.4247 17.6307 17.2904 17.8475 17.0737C18.0642 16.8569 18.1985 16.5577 18.1985 16.2269C18.1985 15.8962 18.0642 15.597 17.8475 15.3802C17.6308 15.1634 17.3315 15.0292 17.0007 15.0292C16.67 15.0292 16.3708 15.1634 16.154 15.3802C15.9373 15.5969 15.803 15.8962 15.803 16.2269C15.8038 16.5577 15.9373 16.8569 16.154 17.0737ZM15.5758 16.2269C15.5758 16.6207 15.7355 16.9769 15.9935 17.2349C16.2515 17.4929 16.6077 17.6527 17.0015 17.6527C17.3952 17.6527 17.7515 17.4929 18.0095 17.2349C18.2675 16.9769 18.4272 16.6207 18.4272 16.2269C18.4272 15.8332 18.2675 15.477 18.0095 15.219C17.7515 14.9609 17.3952 14.8012 17.0015 14.8012C16.6077 14.8012 16.2515 14.9609 15.9935 15.219C15.7355 15.477 15.5758 15.8332 15.5758 16.2269ZM15.2338 16.5269C15.2173 16.4294 15.209 16.3289 15.209 16.2269C15.209 16.1249 15.2173 16.0244 15.2338 15.9269H14.9278V16.5277L15.2338 16.5269ZM9.94327 6.65095C9.55628 7.03794 9.02153 7.27719 8.43129 7.27719C7.84105 7.27719 7.3063 7.03794 6.91931 6.65095C6.53232 6.26396 6.29307 5.72921 6.29307 5.13897C6.29307 4.54873 6.53232 4.01398 6.91931 3.62699C7.30555 3.23925 7.8403 3 8.43129 3C9.02153 3 9.55628 3.23925 9.94327 3.62624C10.3303 4.01323 10.5695 4.54798 10.5695 5.13822C10.5695 5.72921 10.3303 6.26396 9.94327 6.65095Z"/>
</mask>
<path fill-rule="evenodd" clip-rule="evenodd" d="M8.43125 6.90982C8.92025 6.90982 9.3635 6.71184 9.68373 6.39083C10.004 6.07058 10.2027 5.62734 10.2027 5.13836C10.2027 4.64938 10.0047 4.20611 9.68373 3.88588C9.36348 3.56563 8.92023 3.36689 8.43125 3.36689C7.94227 3.36689 7.49901 3.56488 7.17878 3.88588C6.85852 4.20613 6.65979 4.64938 6.65979 5.13836C6.65979 5.62734 6.85777 6.0706 7.17878 6.39083C7.49903 6.71184 7.94227 6.90982 8.43125 6.90982ZM10.994 7.65232H14.0074C14.1087 7.65232 14.1912 7.73482 14.1912 7.83607V7.96806H14.5092C14.7769 7.96806 15.0207 8.07756 15.1969 8.25381C15.3732 8.43007 15.4827 8.67381 15.4827 8.94155C15.4827 9.20929 15.3732 9.45305 15.1969 9.62929C15.0207 9.80553 14.7769 9.91504 14.5092 9.91504H14.1912V10.0043C14.1912 10.1055 14.1087 10.188 14.0074 10.188L11.6944 10.1888V14.829C11.6944 15.1665 11.8324 15.4725 12.0552 15.6952C12.2779 15.918 12.5839 16.056 12.9214 16.056H14.5609V15.7432C14.5609 15.642 14.6434 15.5595 14.7447 15.5595H15.3379C15.4286 15.333 15.5644 15.129 15.7346 14.9595C16.0594 14.6347 16.5071 14.4345 17.0021 14.4345C17.4971 14.4345 17.9456 14.6355 18.2696 14.9595C18.5944 15.2842 18.7946 15.732 18.7946 16.227C18.7946 16.722 18.5936 17.1705 18.2696 17.4945C17.9449 17.8192 17.4971 18.0195 17.0021 18.0195C16.5071 18.0195 16.0586 17.8185 15.7346 17.4945C15.5651 17.325 15.4294 17.121 15.3379 16.8945H14.7447C14.6434 16.8945 14.5609 16.812 14.5609 16.7107V16.4227H12.9214C12.4827 16.4227 12.0844 16.2435 11.7957 15.9547C11.5069 15.666 11.3277 15.2677 11.3277 14.829L11.3269 10.1888H10.9947C10.8934 10.1888 10.8109 10.1063 10.8109 10.005V9.91579H10.6969V19.815C10.6969 20.1413 10.5634 20.4375 10.3489 20.652C10.1337 20.8665 9.83745 21 9.51121 21C9.18496 21 8.88871 20.8665 8.67421 20.652C8.61196 20.5898 8.55721 20.5215 8.50996 20.4473C8.46271 20.5215 8.40796 20.5905 8.34571 20.652C8.13196 20.8665 7.83573 21 7.50947 21C7.18322 21 6.88697 20.8665 6.67247 20.652C6.45797 20.4375 6.32448 20.1413 6.32448 19.815L6.32523 14.8208C5.98023 14.7833 5.66973 14.6265 5.43649 14.3933C5.16725 14.124 5 13.7528 5 13.344V10.2945C5 9.65479 5.26175 9.07279 5.68324 8.6513C6.10474 8.2298 6.68674 7.96805 7.32648 7.96805H10.8109V7.83606C10.8101 7.73481 10.8928 7.65232 10.994 7.65232ZM14.1912 8.33556V9.54905H14.5092C14.6757 9.54905 14.8272 9.4808 14.9374 9.37055C15.0477 9.2603 15.1159 9.1088 15.1159 8.9423C15.1159 8.7758 15.0477 8.62431 14.9374 8.51404C14.8272 8.4038 14.6757 8.33555 14.5092 8.33555L14.1912 8.33556ZM10.8103 9.54905V8.33556H7.3265C6.788 8.33556 6.29825 8.55605 5.94277 8.91081C5.58802 9.26631 5.36753 9.75529 5.36753 10.2945V13.344C5.36753 13.6515 5.49352 13.9313 5.69602 14.1338C5.86251 14.3003 6.08151 14.415 6.3245 14.451V10.521C6.3245 10.4198 6.407 10.3373 6.50825 10.3373C6.6095 10.3373 6.692 10.4198 6.692 10.521V19.8156C6.692 20.0399 6.78425 20.2446 6.93199 20.3924C7.08049 20.5409 7.28448 20.6324 7.50874 20.6324C7.73299 20.6324 7.93774 20.5401 8.08548 20.3924C8.23398 20.2439 8.32547 20.0399 8.32547 19.8156L8.32622 15.4446C8.32622 15.3434 8.40872 15.2609 8.50997 15.2609C8.61122 15.2609 8.69372 15.3434 8.69372 15.4446V19.8156C8.69372 20.0399 8.78597 20.2446 8.93372 20.3924C9.08222 20.5409 9.28621 20.6324 9.51046 20.6324C9.73471 20.6324 9.93946 20.5401 10.0872 20.3924C10.2357 20.2439 10.3272 20.0399 10.3272 19.8156L10.3279 9.73267C10.3279 9.63142 10.4104 9.54892 10.5117 9.54892L10.8103 9.54905ZM13.8237 8.01982H11.1778V9.82205H13.8229V8.15182L13.8237 8.01982ZM17.8107 16.4107H17.0007C16.8995 16.4107 16.817 16.3282 16.817 16.227C16.817 16.1257 16.8995 16.0432 17.0007 16.0432H17.8107C17.7755 15.888 17.6967 15.7485 17.588 15.6397C17.438 15.4897 17.2302 15.3967 17.0007 15.3967C16.7712 15.3967 16.5642 15.4897 16.4135 15.6397C16.2635 15.7897 16.1705 15.9975 16.1705 16.2269C16.1705 16.4564 16.2635 16.6634 16.4135 16.8142C16.5635 16.9642 16.7712 17.0572 17.0007 17.0572C17.2302 17.0572 17.4372 16.9642 17.588 16.8142C17.6967 16.7054 17.7755 16.5667 17.8107 16.4107ZM16.154 17.0737C16.3707 17.2904 16.67 17.4247 17.0007 17.4247C17.3315 17.4247 17.6307 17.2904 17.8475 17.0737C18.0642 16.8569 18.1985 16.5577 18.1985 16.2269C18.1985 15.8962 18.0642 15.597 17.8475 15.3802C17.6308 15.1634 17.3315 15.0292 17.0007 15.0292C16.67 15.0292 16.3708 15.1634 16.154 15.3802C15.9373 15.5969 15.803 15.8962 15.803 16.2269C15.8038 16.5577 15.9373 16.8569 16.154 17.0737ZM15.5758 16.2269C15.5758 16.6207 15.7355 16.9769 15.9935 17.2349C16.2515 17.4929 16.6077 17.6527 17.0015 17.6527C17.3952 17.6527 17.7515 17.4929 18.0095 17.2349C18.2675 16.9769 18.4272 16.6207 18.4272 16.2269C18.4272 15.8332 18.2675 15.477 18.0095 15.219C17.7515 14.9609 17.3952 14.8012 17.0015 14.8012C16.6077 14.8012 16.2515 14.9609 15.9935 15.219C15.7355 15.477 15.5758 15.8332 15.5758 16.2269ZM15.2338 16.5269C15.2173 16.4294 15.209 16.3289 15.209 16.2269C15.209 16.1249 15.2173 16.0244 15.2338 15.9269H14.9278V16.5277L15.2338 16.5269ZM9.94327 6.65095C9.55628 7.03794 9.02153 7.27719 8.43129 7.27719C7.84105 7.27719 7.3063 7.03794 6.91931 6.65095C6.53232 6.26396 6.29307 5.72921 6.29307 5.13897C6.29307 4.54873 6.53232 4.01398 6.91931 3.62699C7.30555 3.23925 7.8403 3 8.43129 3C9.02153 3 9.55628 3.23925 9.94327 3.62624C10.3303 4.01323 10.5695 4.54798 10.5695 5.13822C10.5695 5.72921 10.3303 6.26396 9.94327 6.65095Z" fill="#00625B"/>
<path fill-rule="evenodd" clip-rule="evenodd" d="M8.43125 6.90982C8.92025 6.90982 9.3635 6.71184 9.68373 6.39083C10.004 6.07058 10.2027 5.62734 10.2027 5.13836C10.2027 4.64938 10.0047 4.20611 9.68373 3.88588C9.36348 3.56563 8.92023 3.36689 8.43125 3.36689C7.94227 3.36689 7.49901 3.56488 7.17878 3.88588C6.85852 4.20613 6.65979 4.64938 6.65979 5.13836C6.65979 5.62734 6.85777 6.0706 7.17878 6.39083C7.49903 6.71184 7.94227 6.90982 8.43125 6.90982ZM10.994 7.65232H14.0074C14.1087 7.65232 14.1912 7.73482 14.1912 7.83607V7.96806H14.5092C14.7769 7.96806 15.0207 8.07756 15.1969 8.25381C15.3732 8.43007 15.4827 8.67381 15.4827 8.94155C15.4827 9.20929 15.3732 9.45305 15.1969 9.62929C15.0207 9.80553 14.7769 9.91504 14.5092 9.91504H14.1912V10.0043C14.1912 10.1055 14.1087 10.188 14.0074 10.188L11.6944 10.1888V14.829C11.6944 15.1665 11.8324 15.4725 12.0552 15.6952C12.2779 15.918 12.5839 16.056 12.9214 16.056H14.5609V15.7432C14.5609 15.642 14.6434 15.5595 14.7447 15.5595H15.3379C15.4286 15.333 15.5644 15.129 15.7346 14.9595C16.0594 14.6347 16.5071 14.4345 17.0021 14.4345C17.4971 14.4345 17.9456 14.6355 18.2696 14.9595C18.5944 15.2842 18.7946 15.732 18.7946 16.227C18.7946 16.722 18.5936 17.1705 18.2696 17.4945C17.9449 17.8192 17.4971 18.0195 17.0021 18.0195C16.5071 18.0195 16.0586 17.8185 15.7346 17.4945C15.5651 17.325 15.4294 17.121 15.3379 16.8945H14.7447C14.6434 16.8945 14.5609 16.812 14.5609 16.7107V16.4227H12.9214C12.4827 16.4227 12.0844 16.2435 11.7957 15.9547C11.5069 15.666 11.3277 15.2677 11.3277 14.829L11.3269 10.1888H10.9947C10.8934 10.1888 10.8109 10.1063 10.8109 10.005V9.91579H10.6969V19.815C10.6969 20.1413 10.5634 20.4375 10.3489 20.652C10.1337 20.8665 9.83745 21 9.51121 21C9.18496 21 8.88871 20.8665 8.67421 20.652C8.61196 20.5898 8.55721 20.5215 8.50996 20.4473C8.46271 20.5215 8.40796 20.5905 8.34571 20.652C8.13196 20.8665 7.83573 21 7.50947 21C7.18322 21 6.88697 20.8665 6.67247 20.652C6.45797 20.4375 6.32448 20.1413 6.32448 19.815L6.32523 14.8208C5.98023 14.7833 5.66973 14.6265 5.43649 14.3933C5.16725 14.124 5 13.7528 5 13.344V10.2945C5 9.65479 5.26175 9.07279 5.68324 8.6513C6.10474 8.2298 6.68674 7.96805 7.32648 7.96805H10.8109V7.83606C10.8101 7.73481 10.8928 7.65232 10.994 7.65232ZM14.1912 8.33556V9.54905H14.5092C14.6757 9.54905 14.8272 9.4808 14.9374 9.37055C15.0477 9.2603 15.1159 9.1088 15.1159 8.9423C15.1159 8.7758 15.0477 8.62431 14.9374 8.51404C14.8272 8.4038 14.6757 8.33555 14.5092 8.33555L14.1912 8.33556ZM10.8103 9.54905V8.33556H7.3265C6.788 8.33556 6.29825 8.55605 5.94277 8.91081C5.58802 9.26631 5.36753 9.75529 5.36753 10.2945V13.344C5.36753 13.6515 5.49352 13.9313 5.69602 14.1338C5.86251 14.3003 6.08151 14.415 6.3245 14.451V10.521C6.3245 10.4198 6.407 10.3373 6.50825 10.3373C6.6095 10.3373 6.692 10.4198 6.692 10.521V19.8156C6.692 20.0399 6.78425 20.2446 6.93199 20.3924C7.08049 20.5409 7.28448 20.6324 7.50874 20.6324C7.73299 20.6324 7.93774 20.5401 8.08548 20.3924C8.23398 20.2439 8.32547 20.0399 8.32547 19.8156L8.32622 15.4446C8.32622 15.3434 8.40872 15.2609 8.50997 15.2609C8.61122 15.2609 8.69372 15.3434 8.69372 15.4446V19.8156C8.69372 20.0399 8.78597 20.2446 8.93372 20.3924C9.08222 20.5409 9.28621 20.6324 9.51046 20.6324C9.73471 20.6324 9.93946 20.5401 10.0872 20.3924C10.2357 20.2439 10.3272 20.0399 10.3272 19.8156L10.3279 9.73267C10.3279 9.63142 10.4104 9.54892 10.5117 9.54892L10.8103 9.54905ZM13.8237 8.01982H11.1778V9.82205H13.8229V8.15182L13.8237 8.01982ZM17.8107 16.4107H17.0007C16.8995 16.4107 16.817 16.3282 16.817 16.227C16.817 16.1257 16.8995 16.0432 17.0007 16.0432H17.8107C17.7755 15.888 17.6967 15.7485 17.588 15.6397C17.438 15.4897 17.2302 15.3967 17.0007 15.3967C16.7712 15.3967 16.5642 15.4897 16.4135 15.6397C16.2635 15.7897 16.1705 15.9975 16.1705 16.2269C16.1705 16.4564 16.2635 16.6634 16.4135 16.8142C16.5635 16.9642 16.7712 17.0572 17.0007 17.0572C17.2302 17.0572 17.4372 16.9642 17.588 16.8142C17.6967 16.7054 17.7755 16.5667 17.8107 16.4107ZM16.154 17.0737C16.3707 17.2904 16.67 17.4247 17.0007 17.4247C17.3315 17.4247 17.6307 17.2904 17.8475 17.0737C18.0642 16.8569 18.1985 16.5577 18.1985 16.2269C18.1985 15.8962 18.0642 15.597 17.8475 15.3802C17.6308 15.1634 17.3315 15.0292 17.0007 15.0292C16.67 15.0292 16.3708 15.1634 16.154 15.3802C15.9373 15.5969 15.803 15.8962 15.803 16.2269C15.8038 16.5577 15.9373 16.8569 16.154 17.0737ZM15.5758 16.2269C15.5758 16.6207 15.7355 16.9769 15.9935 17.2349C16.2515 17.4929 16.6077 17.6527 17.0015 17.6527C17.3952 17.6527 17.7515 17.4929 18.0095 17.2349C18.2675 16.9769 18.4272 16.6207 18.4272 16.2269C18.4272 15.8332 18.2675 15.477 18.0095 15.219C17.7515 14.9609 17.3952 14.8012 17.0015 14.8012C16.6077 14.8012 16.2515 14.9609 15.9935 15.219C15.7355 15.477 15.5758 15.8332 15.5758 16.2269ZM15.2338 16.5269C15.2173 16.4294 15.209 16.3289 15.209 16.2269C15.209 16.1249 15.2173 16.0244 15.2338 15.9269H14.9278V16.5277L15.2338 16.5269ZM9.94327 6.65095C9.55628 7.03794 9.02153 7.27719 8.43129 7.27719C7.84105 7.27719 7.3063 7.03794 6.91931 6.65095C6.53232 6.26396 6.29307 5.72921 6.29307 5.13897C6.29307 4.54873 6.53232 4.01398 6.91931 3.62699C7.30555 3.23925 7.8403 3 8.43129 3C9.02153 3 9.55628 3.23925 9.94327 3.62624C10.3303 4.01323 10.5695 4.54798 10.5695 5.13822C10.5695 5.72921 10.3303 6.26396 9.94327 6.65095Z" stroke="black" stroke-width="0.1" mask="url(#path-1-outside-1_662_2676)"/>
</svg>
