<svg width="27" height="18" viewBox="0 0 27 18" fill="none" xmlns="http://www.w3.org/2000/svg">
<path d="M22.4998 14.8069H4.4998C4.33891 14.8069 4.20947 14.6775 4.20947 14.5166V12.7746C4.20947 12.6137 4.33891 12.4843 4.4998 12.4843H22.4998C22.6607 12.4843 22.7901 12.6137 22.7901 12.7746V14.5166C22.7901 14.6762 22.6607 14.8069 22.4998 14.8069ZM4.79012 14.2262H22.2095V13.065H4.79012V14.2262Z" fill="#00625B"/>
<path d="M21.629 18H5.37089C5.21 18 5.08057 17.8706 5.08057 17.7097V14.5162C5.08057 14.3553 5.21 14.2258 5.37089 14.2258H21.629C21.7898 14.2258 21.9193 14.3553 21.9193 14.5162V17.7097C21.9193 17.8694 21.7898 18 21.629 18ZM5.66121 17.4194H21.3386V14.8065H5.66121V17.4194Z" fill="#00625B"/>
<path d="M20.8401 3.48387H6.15945C5.94896 3.48387 5.75179 3.39073 5.61872 3.22863C5.48566 3.06653 5.43243 2.85484 5.47356 2.64919L5.8909 0.56129C5.95622 0.235887 6.24413 0 6.57558 0H20.4215C20.753 0 21.0421 0.235887 21.1062 0.56129L21.5236 2.64798C21.5647 2.85363 21.5115 3.06532 21.3784 3.22742C21.2478 3.39073 21.0506 3.48387 20.8401 3.48387ZM6.57679 0.580645C6.52114 0.580645 6.47155 0.620565 6.46066 0.675L6.04332 2.76169C6.03364 2.80887 6.05421 2.84395 6.06751 2.85968C6.08082 2.8754 6.10985 2.90323 6.15824 2.90323H20.8389C20.8873 2.90323 20.9175 2.87661 20.9296 2.85968C20.9429 2.84395 20.9635 2.80887 20.9538 2.76169L20.5365 0.675C20.5256 0.620565 20.4772 0.580645 20.4203 0.580645H6.57679Z" fill="#00625B"/>
<path d="M15.1535 1.74194H11.8463C11.1568 1.74194 10.5967 1.18185 10.5967 0.492339V0.290323C10.5967 0.129435 10.7261 0 10.887 0H16.1128C16.2737 0 16.4031 0.129435 16.4031 0.290323V0.492339C16.4031 1.18065 15.8431 1.74194 15.1535 1.74194ZM11.1834 0.580645C11.2269 0.908468 11.5076 1.16129 11.8463 1.16129H15.1535C15.4922 1.16129 15.7729 0.908468 15.8164 0.580645H11.1834Z" fill="#00625B"/>
<path d="M19.0161 4.64513H7.98384C7.18303 4.64513 6.53223 3.99433 6.53223 3.19352C6.53223 3.03263 6.66166 2.9032 6.82255 2.9032H20.1774C20.2548 2.9032 20.3286 2.93344 20.383 2.98788C20.4375 3.04231 20.4677 3.1161 20.4677 3.19352C20.4677 3.99433 19.8169 4.64513 19.0161 4.64513ZM7.16247 3.48384C7.28223 3.82134 7.60521 4.06449 7.98384 4.06449H19.0161C19.3947 4.06449 19.7177 3.82134 19.8375 3.48384H7.16247Z" fill="#00625B"/>
<path d="M7.54829 13.065C6.74749 13.065 6.09668 12.4142 6.09668 11.6134C6.09668 10.8125 6.74749 10.1617 7.54829 10.1617C8.3491 10.1617 8.99991 10.8125 8.99991 11.6134C8.99991 12.4142 8.3491 13.065 7.54829 13.065ZM7.54829 10.7424C7.06805 10.7424 6.67732 11.1331 6.67732 11.6134C6.67732 12.0936 7.06805 12.4843 7.54829 12.4843C8.02853 12.4843 8.41926 12.0936 8.41926 11.6134C8.41926 11.1331 8.02853 10.7424 7.54829 10.7424Z" fill="#00625B"/>
<path d="M19.7078 13.0654H10.8348C9.98318 13.0654 9.29004 12.3723 9.29004 11.5206C9.29004 11.0912 9.47149 10.6775 9.78601 10.386C10.1017 10.0944 10.5287 9.94685 10.957 9.98073L19.8009 10.6787C20.1021 10.7029 20.3804 10.8372 20.5848 11.0585C20.7892 11.2799 20.9029 11.5678 20.9029 11.8702C20.9029 12.5295 20.3671 13.0654 19.7078 13.0654ZM10.8324 10.5553C10.5904 10.5553 10.3606 10.6448 10.1804 10.8118C9.98076 10.9969 9.87068 11.2485 9.87068 11.5206C9.87068 12.0529 10.3037 12.4848 10.8348 12.4848H19.7066C20.0453 12.4848 20.3211 12.209 20.3211 11.8702C20.3211 11.5521 20.0719 11.2823 19.755 11.2569L10.911 10.5589C10.8844 10.5565 10.859 10.5553 10.8324 10.5553Z" fill="#00625B"/>
<path d="M13.0643 13.0652H11.032C10.8711 13.0652 10.7417 12.9358 10.7417 12.7749C10.7417 12.614 10.8711 12.4846 11.032 12.4846H13.0643C13.224 12.4846 13.3546 12.3539 13.3546 12.1943C13.3546 12.0346 13.224 11.9039 13.0643 11.9039H11.032C10.8711 11.9039 10.7417 11.7745 10.7417 11.6136C10.7417 11.4527 10.8711 11.3233 11.032 11.3233H13.0643C13.5445 11.3233 13.9352 11.714 13.9352 12.1943C13.9352 12.6745 13.5445 13.0652 13.0643 13.0652Z" fill="#00625B"/>
<path d="M8.27398 9.58121C8.24737 9.58121 8.21955 9.57758 8.19172 9.56911C8.03809 9.52435 7.94979 9.36226 7.99455 9.20863L9.44616 4.27314C9.49092 4.11952 9.65301 4.03121 9.80664 4.07597C9.96027 4.12073 10.0486 4.28282 10.0038 4.43645L8.55221 9.37193C8.51592 9.49895 8.39979 9.58121 8.27398 9.58121Z" fill="#00625B"/>
<path d="M18.7255 9.58137C18.5996 9.58137 18.4847 9.49912 18.4472 9.37331L16.9956 4.43783C16.9509 4.2842 17.038 4.1221 17.1928 4.07734C17.3464 4.03258 17.5085 4.11968 17.5533 4.27452L19.0049 9.21C19.0496 9.36363 18.9626 9.52573 18.8077 9.57049C18.7799 9.57775 18.7521 9.58137 18.7255 9.58137Z" fill="#00625B"/>
<path d="M10.3064 9.2903C10.281 9.2903 10.2556 9.28667 10.2302 9.27941C10.0754 9.23707 9.98466 9.07739 10.027 8.92256L10.898 5.72901C10.9403 5.57417 11.1 5.48344 11.2548 5.52578C11.4097 5.56812 11.5004 5.7278 11.458 5.88264L10.5871 9.07618C10.5508 9.20562 10.4347 9.2903 10.3064 9.2903Z" fill="#00625B"/>
<path d="M16.6934 9.29034C16.5652 9.29034 16.4491 9.20566 16.414 9.07622L15.543 5.88267C15.5007 5.72784 15.5926 5.56816 15.7463 5.52582C15.9011 5.48348 16.0608 5.57542 16.1031 5.72905L16.9741 8.92259C17.0164 9.07743 16.9245 9.23711 16.7709 9.27945C16.7442 9.28671 16.7188 9.29034 16.6934 9.29034Z" fill="#00625B"/>
<path d="M13.4998 9.58065C13.3389 9.58065 13.2095 9.45122 13.2095 9.29033V6.09678C13.2095 5.93589 13.3389 5.80646 13.4998 5.80646C13.6607 5.80646 13.7901 5.93589 13.7901 6.09678V9.29033C13.7901 9.45001 13.6607 9.58065 13.4998 9.58065Z" fill="#00625B"/>
<path d="M18.7257 16.2578H5.37089C5.21 16.2578 5.08057 16.1283 5.08057 15.9674C5.08057 15.8066 5.21 15.6771 5.37089 15.6771H18.7257C18.8866 15.6771 19.0161 15.8066 19.0161 15.9674C19.0161 16.1283 18.8866 16.2578 18.7257 16.2578Z" fill="#00625B"/>
</svg>
