<svg width="595" height="140" viewBox="0 0 595 140" fill="none" xmlns="http://www.w3.org/2000/svg">
<circle cx="82" cy="70" r="50" fill="url(#paint0_linear_938_160099)"/>
<circle cx="82" cy="70" r="50" fill="#00625B"/>
<path d="M94.7273 53.3838V87H90.7879L72.4697 60.6061H72.1414V87H68.0707V53.3838H72.0101L90.3939 79.8434H90.7222V53.3838H94.7273Z" fill="white"/>
<path d="M176.767 20.9992H177.181C177.229 18.6743 176.788 16.8721 176.162 15.4921C176.064 15.6636 175.982 15.8223 175.917 15.9659C176.45 17.2555 176.811 18.9074 176.767 20.9992Z" fill="#00625B"/>
<path d="M168.416 3.00005H168.001C168.153 6.45245 169.571 9.46654 171.94 11.4528C172.082 11.3954 172.221 11.3304 172.358 11.2611C169.99 9.35591 168.57 6.40009 168.416 3.00005Z" fill="#00625B"/>
<path d="M169.28 3H168.865C169.01 6.30123 170.312 9.20215 172.498 11.1859C172.625 11.1158 172.749 11.0415 172.871 10.963C170.715 9.0552 169.427 6.2286 169.28 3Z" fill="#00625B"/>
<path d="M177.632 20.999H178.045C178.102 18.2358 177.469 16.2106 176.654 14.7563C176.556 14.8847 176.467 15.0097 176.387 15.1305C177.125 16.5172 177.685 18.4241 177.632 20.999Z" fill="#00625B"/>
<path d="M178.91 20.9993C178.975 17.8399 178.138 15.645 177.159 14.1654C177.057 14.2735 176.962 14.3799 176.874 14.4855C177.788 15.906 178.559 17.9995 178.496 20.9993H178.91Z" fill="#00625B"/>
<path d="M170.146 3H169.73C169.867 6.12641 171.042 8.89306 173.023 10.8625C173.138 10.7831 173.251 10.7012 173.362 10.615C171.431 8.71993 170.283 6.03689 170.146 3Z" fill="#00625B"/>
<path d="M177.366 13.9524C178.433 15.3627 179.433 17.5982 179.361 20.9991H179.774C179.846 17.4631 178.79 15.1347 177.668 13.667C177.562 13.7624 177.461 13.8578 177.366 13.9524Z" fill="#00625B"/>
<path d="M171.01 3H170.595C170.724 5.93133 171.764 8.54596 173.525 10.485C173.633 10.3971 173.737 10.3068 173.84 10.2139C172.143 8.34918 171.138 5.82829 171.01 3Z" fill="#00625B"/>
<path d="M174.312 9.75531C172.853 7.94551 171.992 5.60281 171.875 3H171.46C171.579 5.71682 172.483 8.16255 174.017 10.0492C174.118 9.95293 174.217 9.85496 174.312 9.75531Z" fill="#00625B"/>
<path d="M180.226 20.9994H180.639C180.719 17.0944 179.423 14.663 178.182 13.2358C178.071 13.3236 177.964 13.4106 177.862 13.4976C179.053 14.8632 180.306 17.2084 180.226 20.9994Z" fill="#00625B"/>
<path d="M178.356 13.1013C179.641 14.3884 181.177 16.8121 181.089 20.9993H181.503C181.59 16.7327 180.034 14.2237 178.703 12.8649C178.574 12.9468 178.456 13.027 178.356 13.1013Z" fill="#00625B"/>
<path d="M172.739 3H172.323C172.433 5.48458 173.198 7.74198 174.501 9.55347C174.598 9.4479 174.692 9.3415 174.783 9.23424C173.562 7.50551 172.845 5.35959 172.739 3Z" fill="#00625B"/>
<path d="M181.954 20.9992H182.367C182.462 16.3703 180.624 13.8106 179.235 12.543C179.105 12.6181 178.98 12.6925 178.862 12.7651C180.199 13.944 182.05 16.4143 181.953 21L181.954 20.9992Z" fill="#00625B"/>
<path d="M173.604 3H173.188C173.287 5.23291 173.915 7.28171 174.986 8.98849C175.08 8.87194 175.171 8.7554 175.258 8.64054C174.275 7.02413 173.698 5.09694 173.604 3Z" fill="#00625B"/>
<path d="M182.819 20.9993H183.232C183.335 15.9761 181.161 13.3885 179.756 12.2459C179.624 12.3193 179.494 12.3937 179.367 12.4663C180.699 13.4991 182.924 15.9837 182.819 20.9993Z" fill="#00625B"/>
<path d="M174.052 3C174.138 4.95844 174.631 6.77585 175.475 8.34496C175.569 8.21322 175.659 8.08401 175.743 7.95986C174.991 6.49293 174.55 4.80981 174.468 3H174.052Z" fill="#00625B"/>
<path d="M175.333 3H174.917C174.99 4.65695 175.355 6.21255 175.977 7.60263C176.076 7.44639 176.165 7.30114 176.242 7.17108C175.713 5.90008 175.401 4.49311 175.333 3Z" fill="#00625B"/>
<path d="M180.254 11.9656C180.122 12.0407 179.988 12.1159 179.853 12.1919C181.081 13.0136 183.8 15.4661 183.684 20.9994H184.097C184.21 15.5117 181.605 12.9309 180.254 11.9656Z" fill="#00625B"/>
<path d="M168.417 20.9992C168.283 15.4077 171.438 12.962 172.804 12.1681C176.13 10.2375 178.144 6.89746 178.336 3.00001H177.923C177.73 6.74545 175.793 9.95378 172.597 11.8092C168.333 14.2845 167.959 19.0172 168.003 20.9992H168.417Z" fill="#00625B"/>
<path d="M169.858 20.9992C169.725 15.4077 172.879 12.962 174.245 12.1681C177.571 10.2375 179.585 6.89746 179.778 3.00001H179.364C179.172 6.74545 177.235 9.95378 174.039 11.8092C169.775 14.2845 169.4 19.0172 169.444 20.9992H169.858Z" fill="#00625B"/>
<path d="M171.299 20.9992C171.165 15.4077 174.32 12.962 175.686 12.1681C179.013 10.2375 181.026 6.89746 181.219 3.00001H180.806C180.613 6.74545 178.677 9.95378 175.48 11.8092C171.217 14.2845 170.841 19.0172 170.885 20.9992H171.299Z" fill="#00625B"/>
<path d="M172.74 20.9992C172.607 15.4077 175.761 12.962 177.127 12.1681C180.454 10.2375 182.467 6.89746 182.661 3.00001H182.247C182.055 6.74545 180.118 9.95378 176.921 11.8092C172.658 14.2845 172.282 19.0172 172.327 20.9992H172.74Z" fill="#00625B"/>
<path d="M174.182 20.9992C174.049 15.4077 177.203 12.962 178.569 12.1681C181.896 10.2375 183.909 6.89746 184.103 3.00001H183.689C183.497 6.74545 181.56 9.95378 178.363 11.8092C174.1 14.2845 173.724 19.0172 173.769 20.9992H174.182Z" fill="#00625B"/>
<path d="M194.818 6.36364V18H193.409V6.36364H194.818ZM201.234 18H197.643V6.36364H201.393C202.522 6.36364 203.488 6.59659 204.291 7.0625C205.094 7.52462 205.71 8.18939 206.138 9.05682C206.566 9.92045 206.78 10.9545 206.78 12.1591C206.78 13.3712 206.564 14.4148 206.132 15.2898C205.7 16.161 205.071 16.8314 204.246 17.3011C203.42 17.767 202.416 18 201.234 18ZM199.053 16.75H201.143C202.106 16.75 202.903 16.5644 203.536 16.1932C204.168 15.822 204.64 15.2936 204.95 14.608C205.261 13.9223 205.416 13.1061 205.416 12.1591C205.416 11.2197 205.263 10.411 204.956 9.73295C204.649 9.05114 204.191 8.52841 203.581 8.16477C202.971 7.79735 202.212 7.61364 201.303 7.61364H199.053V16.75ZM218.462 11.5568V12.8068H213.371V11.5568H218.462Z" fill="#00625B"/>
<path d="M225.409 18V6.36364H229.341C230.254 6.36364 231 6.52841 231.58 6.85795C232.163 7.18371 232.595 7.625 232.875 8.18182C233.155 8.73864 233.295 9.35985 233.295 10.0455C233.295 10.7311 233.155 11.3542 232.875 11.9148C232.598 12.4754 232.17 12.9223 231.591 13.2557C231.011 13.5852 230.269 13.75 229.364 13.75H226.545V12.5H229.318C229.943 12.5 230.445 12.392 230.824 12.1761C231.203 11.9602 231.477 11.6686 231.648 11.3011C231.822 10.9299 231.909 10.5114 231.909 10.0455C231.909 9.57955 231.822 9.16288 231.648 8.79545C231.477 8.42803 231.201 8.14015 230.818 7.93182C230.436 7.7197 229.928 7.61364 229.295 7.61364H226.818V18H225.409ZM235.565 6.36364H237.247L241.202 16.0227H241.338L245.293 6.36364H246.974V18H245.656V9.15909H245.543L241.906 18H240.634L236.997 9.15909H236.884V18H235.565V6.36364ZM250.482 6.36364L253.482 11.2045H253.572L256.572 6.36364H258.232L254.572 12.1818L258.232 18H256.572L253.572 13.25H253.482L250.482 18H248.822L252.572 12.1818L248.822 6.36364H250.482ZM263.656 18.1591C262.8 18.1591 262.071 17.9261 261.469 17.4602C260.866 16.9905 260.406 16.3106 260.088 15.4205C259.77 14.5265 259.611 13.447 259.611 12.1818C259.611 10.9242 259.77 9.85038 260.088 8.96023C260.41 8.06629 260.872 7.38447 261.474 6.91477C262.08 6.44129 262.808 6.20455 263.656 6.20455C264.505 6.20455 265.23 6.44129 265.832 6.91477C266.438 7.38447 266.901 8.06629 267.219 8.96023C267.541 9.85038 267.702 10.9242 267.702 12.1818C267.702 13.447 267.543 14.5265 267.224 15.4205C266.906 16.3106 266.446 16.9905 265.844 17.4602C265.241 17.9261 264.512 18.1591 263.656 18.1591ZM263.656 16.9091C264.505 16.9091 265.164 16.5 265.634 15.6818C266.103 14.8636 266.338 13.697 266.338 12.1818C266.338 11.1742 266.23 10.3163 266.014 9.60795C265.802 8.89962 265.495 8.35985 265.094 7.98864C264.696 7.61742 264.217 7.43182 263.656 7.43182C262.815 7.43182 262.158 7.84659 261.685 8.67614C261.211 9.50189 260.974 10.6705 260.974 12.1818C260.974 13.1894 261.08 14.0455 261.293 14.75C261.505 15.4545 261.81 15.9905 262.207 16.358C262.609 16.7254 263.092 16.9091 263.656 16.9091ZM273.952 6.36364V18H272.543V7.84091H272.474L269.634 9.72727V8.29545L272.543 6.36364H273.952ZM281.094 18.1591C280.238 18.1591 279.509 17.9261 278.906 17.4602C278.304 16.9905 277.844 16.3106 277.526 15.4205C277.207 14.5265 277.048 13.447 277.048 12.1818C277.048 10.9242 277.207 9.85038 277.526 8.96023C277.848 8.06629 278.31 7.38447 278.912 6.91477C279.518 6.44129 280.245 6.20455 281.094 6.20455C281.942 6.20455 282.668 6.44129 283.27 6.91477C283.876 7.38447 284.338 8.06629 284.656 8.96023C284.978 9.85038 285.139 10.9242 285.139 12.1818C285.139 13.447 284.98 14.5265 284.662 15.4205C284.344 16.3106 283.884 16.9905 283.281 17.4602C282.679 17.9261 281.95 18.1591 281.094 18.1591ZM281.094 16.9091C281.942 16.9091 282.601 16.5 283.071 15.6818C283.541 14.8636 283.776 13.697 283.776 12.1818C283.776 11.1742 283.668 10.3163 283.452 9.60795C283.24 8.89962 282.933 8.35985 282.531 7.98864C282.134 7.61742 281.654 7.43182 281.094 7.43182C280.253 7.43182 279.596 7.84659 279.122 8.67614C278.649 9.50189 278.412 10.6705 278.412 12.1818C278.412 13.1894 278.518 14.0455 278.73 14.75C278.942 15.4545 279.247 15.9905 279.645 16.358C280.046 16.7254 280.529 16.9091 281.094 16.9091ZM291.094 18.1591C290.238 18.1591 289.509 17.9261 288.906 17.4602C288.304 16.9905 287.844 16.3106 287.526 15.4205C287.207 14.5265 287.048 13.447 287.048 12.1818C287.048 10.9242 287.207 9.85038 287.526 8.96023C287.848 8.06629 288.31 7.38447 288.912 6.91477C289.518 6.44129 290.245 6.20455 291.094 6.20455C291.942 6.20455 292.668 6.44129 293.27 6.91477C293.876 7.38447 294.338 8.06629 294.656 8.96023C294.978 9.85038 295.139 10.9242 295.139 12.1818C295.139 13.447 294.98 14.5265 294.662 15.4205C294.344 16.3106 293.884 16.9905 293.281 17.4602C292.679 17.9261 291.95 18.1591 291.094 18.1591ZM291.094 16.9091C291.942 16.9091 292.601 16.5 293.071 15.6818C293.541 14.8636 293.776 13.697 293.776 12.1818C293.776 11.1742 293.668 10.3163 293.452 9.60795C293.24 8.89962 292.933 8.35985 292.531 7.98864C292.134 7.61742 291.654 7.43182 291.094 7.43182C290.253 7.43182 289.596 7.84659 289.122 8.67614C288.649 9.50189 288.412 10.6705 288.412 12.1818C288.412 13.1894 288.518 14.0455 288.73 14.75C288.942 15.4545 289.247 15.9905 289.645 16.358C290.046 16.7254 290.529 16.9091 291.094 16.9091ZM301.094 18.1591C300.238 18.1591 299.509 17.9261 298.906 17.4602C298.304 16.9905 297.844 16.3106 297.526 15.4205C297.207 14.5265 297.048 13.447 297.048 12.1818C297.048 10.9242 297.207 9.85038 297.526 8.96023C297.848 8.06629 298.31 7.38447 298.912 6.91477C299.518 6.44129 300.245 6.20455 301.094 6.20455C301.942 6.20455 302.668 6.44129 303.27 6.91477C303.876 7.38447 304.338 8.06629 304.656 8.96023C304.978 9.85038 305.139 10.9242 305.139 12.1818C305.139 13.447 304.98 14.5265 304.662 15.4205C304.344 16.3106 303.884 16.9905 303.281 17.4602C302.679 17.9261 301.95 18.1591 301.094 18.1591ZM301.094 16.9091C301.942 16.9091 302.601 16.5 303.071 15.6818C303.541 14.8636 303.776 13.697 303.776 12.1818C303.776 11.1742 303.668 10.3163 303.452 9.60795C303.24 8.89962 302.933 8.35985 302.531 7.98864C302.134 7.61742 301.654 7.43182 301.094 7.43182C300.253 7.43182 299.596 7.84659 299.122 8.67614C298.649 9.50189 298.412 10.6705 298.412 12.1818C298.412 13.1894 298.518 14.0455 298.73 14.75C298.942 15.4545 299.247 15.9905 299.645 16.358C300.046 16.7254 300.529 16.9091 301.094 16.9091ZM311.094 18.1591C310.238 18.1591 309.509 17.9261 308.906 17.4602C308.304 16.9905 307.844 16.3106 307.526 15.4205C307.207 14.5265 307.048 13.447 307.048 12.1818C307.048 10.9242 307.207 9.85038 307.526 8.96023C307.848 8.06629 308.31 7.38447 308.912 6.91477C309.518 6.44129 310.245 6.20455 311.094 6.20455C311.942 6.20455 312.668 6.44129 313.27 6.91477C313.876 7.38447 314.338 8.06629 314.656 8.96023C314.978 9.85038 315.139 10.9242 315.139 12.1818C315.139 13.447 314.98 14.5265 314.662 15.4205C314.344 16.3106 313.884 16.9905 313.281 17.4602C312.679 17.9261 311.95 18.1591 311.094 18.1591ZM311.094 16.9091C311.942 16.9091 312.601 16.5 313.071 15.6818C313.541 14.8636 313.776 13.697 313.776 12.1818C313.776 11.1742 313.668 10.3163 313.452 9.60795C313.24 8.89962 312.933 8.35985 312.531 7.98864C312.134 7.61742 311.654 7.43182 311.094 7.43182C310.253 7.43182 309.596 7.84659 309.122 8.67614C308.649 9.50189 308.412 10.6705 308.412 12.1818C308.412 13.1894 308.518 14.0455 308.73 14.75C308.942 15.4545 309.247 15.9905 309.645 16.358C310.046 16.7254 310.529 16.9091 311.094 16.9091Z" fill="#00625B"/>
<path d="M167.06 59V33.44H183.944V36.32H170.3V44.852H181.784V47.552H170.3V59H167.06ZM186.824 59V40.208H189.992V59H186.824ZM186.824 36.68V32.72H189.992V36.68H186.824ZM204.337 42.98C202.753 43.004 201.349 43.412 200.125 44.204C198.925 44.972 198.073 46.04 197.569 47.408V59H194.401V40.208H197.353V44.564C198.001 43.268 198.853 42.224 199.909 41.432C200.989 40.616 202.117 40.16 203.293 40.064C203.533 40.064 203.737 40.064 203.905 40.064C204.073 40.064 204.217 40.076 204.337 40.1V42.98ZM213.203 59.36C211.643 59.36 210.179 59.108 208.811 58.604C207.443 58.076 206.267 57.296 205.283 56.264L206.507 54.032C207.587 55.04 208.667 55.76 209.747 56.192C210.827 56.624 211.931 56.84 213.059 56.84C214.355 56.84 215.411 56.6 216.227 56.12C217.043 55.616 217.451 54.884 217.451 53.924C217.451 53.228 217.235 52.712 216.803 52.376C216.395 52.04 215.807 51.764 215.039 51.548C214.271 51.308 213.359 51.044 212.303 50.756C211.007 50.372 209.915 49.964 209.027 49.532C208.139 49.1 207.467 48.56 207.011 47.912C206.555 47.264 206.327 46.448 206.327 45.464C206.327 44.264 206.639 43.256 207.263 42.44C207.887 41.6 208.739 40.964 209.819 40.532C210.923 40.1 212.171 39.884 213.563 39.884C214.955 39.884 216.215 40.1 217.343 40.532C218.471 40.964 219.443 41.6 220.259 42.44L218.819 44.636C218.075 43.868 217.259 43.304 216.371 42.944C215.483 42.56 214.487 42.368 213.383 42.368C212.735 42.368 212.099 42.452 211.475 42.62C210.851 42.764 210.335 43.04 209.927 43.448C209.519 43.832 209.315 44.384 209.315 45.104C209.315 45.704 209.471 46.184 209.783 46.544C210.119 46.88 210.599 47.168 211.223 47.408C211.871 47.648 212.651 47.912 213.563 48.2C214.979 48.608 216.203 49.016 217.235 49.424C218.291 49.832 219.107 50.36 219.683 51.008C220.259 51.656 220.547 52.556 220.547 53.708C220.547 55.484 219.875 56.876 218.531 57.884C217.187 58.868 215.411 59.36 213.203 59.36ZM233.337 58.064C233.073 58.184 232.713 58.34 232.257 58.532C231.801 58.724 231.273 58.892 230.673 59.036C230.073 59.18 229.437 59.252 228.765 59.252C227.997 59.252 227.289 59.12 226.641 58.856C225.993 58.568 225.477 58.136 225.093 57.56C224.709 56.96 224.517 56.216 224.517 55.328V42.692H221.961V40.208H224.517V33.944H227.685V40.208H231.897V42.692H227.685V54.356C227.733 55.028 227.961 55.532 228.369 55.868C228.777 56.18 229.257 56.336 229.809 56.336C230.433 56.336 231.009 56.228 231.537 56.012C232.065 55.796 232.413 55.64 232.581 55.544L233.337 58.064ZM244.443 59V33.44H247.683V56.12H261.939V59H244.443ZM262.767 53.564C262.767 52.364 263.103 51.332 263.775 50.468C264.471 49.58 265.419 48.896 266.619 48.416C267.819 47.936 269.211 47.696 270.795 47.696C271.635 47.696 272.523 47.768 273.459 47.912C274.395 48.032 275.223 48.224 275.943 48.488V47.12C275.943 45.68 275.511 44.552 274.647 43.736C273.783 42.896 272.559 42.476 270.975 42.476C269.943 42.476 268.947 42.668 267.987 43.052C267.051 43.412 266.055 43.94 264.999 44.636L263.847 42.404C265.071 41.564 266.295 40.94 267.519 40.532C268.743 40.1 270.015 39.884 271.335 39.884C273.735 39.884 275.631 40.556 277.023 41.9C278.415 43.22 279.111 45.068 279.111 47.444V55.4C279.111 55.784 279.183 56.072 279.327 56.264C279.495 56.432 279.759 56.528 280.119 56.552V59C279.807 59.048 279.531 59.084 279.291 59.108C279.075 59.132 278.895 59.144 278.751 59.144C278.007 59.144 277.443 58.94 277.059 58.532C276.699 58.124 276.495 57.692 276.447 57.236L276.375 56.048C275.559 57.104 274.491 57.92 273.171 58.496C271.851 59.072 270.543 59.36 269.247 59.36C267.999 59.36 266.883 59.108 265.899 58.604C264.915 58.076 264.147 57.38 263.595 56.516C263.043 55.628 262.767 54.644 262.767 53.564ZM275.007 54.896C275.295 54.56 275.523 54.224 275.691 53.888C275.859 53.528 275.943 53.228 275.943 52.988V50.648C275.199 50.36 274.419 50.144 273.603 50C272.787 49.832 271.983 49.748 271.191 49.748C269.583 49.748 268.275 50.072 267.267 50.72C266.283 51.344 265.791 52.208 265.791 53.312C265.791 53.912 265.947 54.5 266.259 55.076C266.595 55.628 267.075 56.084 267.699 56.444C268.347 56.804 269.139 56.984 270.075 56.984C271.059 56.984 271.995 56.792 272.883 56.408C273.771 56 274.479 55.496 275.007 54.896ZM289.9 59.36C288.34 59.36 286.876 59.108 285.508 58.604C284.14 58.076 282.964 57.296 281.98 56.264L283.204 54.032C284.284 55.04 285.364 55.76 286.444 56.192C287.524 56.624 288.628 56.84 289.756 56.84C291.052 56.84 292.108 56.6 292.924 56.12C293.74 55.616 294.148 54.884 294.148 53.924C294.148 53.228 293.932 52.712 293.5 52.376C293.092 52.04 292.504 51.764 291.736 51.548C290.968 51.308 290.056 51.044 289 50.756C287.704 50.372 286.612 49.964 285.724 49.532C284.836 49.1 284.164 48.56 283.708 47.912C283.252 47.264 283.024 46.448 283.024 45.464C283.024 44.264 283.336 43.256 283.96 42.44C284.584 41.6 285.436 40.964 286.516 40.532C287.62 40.1 288.868 39.884 290.26 39.884C291.652 39.884 292.912 40.1 294.04 40.532C295.168 40.964 296.14 41.6 296.956 42.44L295.516 44.636C294.772 43.868 293.956 43.304 293.068 42.944C292.18 42.56 291.184 42.368 290.08 42.368C289.432 42.368 288.796 42.452 288.172 42.62C287.548 42.764 287.032 43.04 286.624 43.448C286.216 43.832 286.012 44.384 286.012 45.104C286.012 45.704 286.168 46.184 286.48 46.544C286.816 46.88 287.296 47.168 287.92 47.408C288.568 47.648 289.348 47.912 290.26 48.2C291.676 48.608 292.9 49.016 293.932 49.424C294.988 49.832 295.804 50.36 296.38 51.008C296.956 51.656 297.244 52.556 297.244 53.708C297.244 55.484 296.572 56.876 295.228 57.884C293.884 58.868 292.108 59.36 289.9 59.36ZM310.034 58.064C309.77 58.184 309.41 58.34 308.954 58.532C308.498 58.724 307.97 58.892 307.37 59.036C306.77 59.18 306.134 59.252 305.462 59.252C304.694 59.252 303.986 59.12 303.338 58.856C302.69 58.568 302.174 58.136 301.79 57.56C301.406 56.96 301.214 56.216 301.214 55.328V42.692H298.658V40.208H301.214V33.944H304.382V40.208H308.594V42.692H304.382V54.356C304.43 55.028 304.658 55.532 305.066 55.868C305.474 56.18 305.954 56.336 306.506 56.336C307.13 56.336 307.706 56.228 308.234 56.012C308.762 55.796 309.11 55.64 309.278 55.544L310.034 58.064Z" fill="#00625B"/>
<path d="M168.083 78.4004C166.417 80.0656 166.417 82.7595 168.083 84.4247C169.748 86.0898 172.442 86.0898 174.107 84.4247C175.656 82.8759 175.762 80.4363 174.425 78.7609L175.74 77.4454L175.74 78.4423C175.74 78.7182 175.953 78.9304 176.229 78.9304C176.505 78.9304 176.717 78.7182 176.717 78.4423L176.717 76.2787C176.717 76.2149 176.696 76.1515 176.674 76.0877C176.642 76.0347 176.61 75.9816 176.568 75.9394C176.526 75.8971 176.472 75.8652 176.42 75.8333C176.356 75.8122 176.292 75.7906 176.229 75.7906L174.065 75.7906C173.789 75.7906 173.577 76.0028 173.577 76.2787C173.577 76.5547 173.789 76.7668 174.065 76.7668L175.062 76.7668L173.747 78.0818C172.071 76.7456 169.631 76.8518 168.083 78.4004ZM173.418 79.0895C174.701 80.3731 174.701 82.4517 173.418 83.7348C172.134 85.0184 170.056 85.0179 168.772 83.7348C167.489 82.4512 167.489 80.3726 168.772 79.0895C170.056 77.8063 172.134 77.8059 173.418 79.0895Z" fill="#00625B"/>
<path d="M185.409 74.3636H187.091L191.045 84.0227H191.182L195.136 74.3636H196.818V86H195.5V77.1591H195.386L191.75 86H190.477L186.841 77.1591H186.727V86H185.409V74.3636ZM202.03 86.2045C201.477 86.2045 200.975 86.1004 200.524 85.892C200.073 85.6799 199.715 85.375 199.45 84.9773C199.185 84.5758 199.053 84.0909 199.053 83.5227C199.053 83.0227 199.151 82.6174 199.348 82.3068C199.545 81.9924 199.808 81.7462 200.138 81.5682C200.467 81.3902 200.831 81.2576 201.229 81.1705C201.63 81.0795 202.034 81.0076 202.439 80.9545C202.969 80.8864 203.399 80.8352 203.729 80.8011C204.062 80.7633 204.304 80.7008 204.456 80.6136C204.611 80.5265 204.689 80.375 204.689 80.1591V80.1136C204.689 79.553 204.536 79.1174 204.229 78.8068C203.926 78.4962 203.465 78.3409 202.848 78.3409C202.208 78.3409 201.706 78.4811 201.342 78.7614C200.979 79.0417 200.723 79.3409 200.575 79.6591L199.303 79.2045C199.53 78.6742 199.833 78.2614 200.212 77.9659C200.594 77.6667 201.011 77.4583 201.462 77.3409C201.916 77.2197 202.363 77.1591 202.803 77.1591C203.083 77.1591 203.405 77.1932 203.768 77.2614C204.136 77.3258 204.49 77.4602 204.831 77.6648C205.176 77.8693 205.462 78.178 205.689 78.5909C205.916 79.0038 206.03 79.5568 206.03 80.25V86H204.689V84.8182H204.621C204.53 85.0076 204.378 85.2102 204.166 85.4261C203.954 85.642 203.672 85.8258 203.32 85.9773C202.967 86.1288 202.537 86.2045 202.03 86.2045ZM202.234 85C202.765 85 203.212 84.8958 203.575 84.6875C203.943 84.4792 204.219 84.2102 204.405 83.8807C204.594 83.5511 204.689 83.2045 204.689 82.8409V81.6136C204.632 81.6818 204.507 81.7443 204.314 81.8011C204.125 81.8542 203.905 81.9015 203.655 81.9432C203.409 81.9811 203.168 82.0152 202.933 82.0455C202.702 82.072 202.515 82.0947 202.371 82.1136C202.022 82.1591 201.696 82.233 201.393 82.3352C201.094 82.4337 200.852 82.5833 200.666 82.7841C200.484 82.9811 200.393 83.25 200.393 83.5909C200.393 84.0568 200.566 84.4091 200.911 84.6477C201.259 84.8826 201.7 85 202.234 85ZM209.818 74.3636V86H208.477V74.3636H209.818ZM215.933 86.1818C215.092 86.1818 214.367 85.9962 213.757 85.625C213.151 85.25 212.683 84.7273 212.354 84.0568C212.028 83.3826 211.865 82.5985 211.865 81.7045C211.865 80.8106 212.028 80.0227 212.354 79.3409C212.683 78.6553 213.142 78.1212 213.729 77.7386C214.32 77.3523 215.009 77.1591 215.797 77.1591C216.251 77.1591 216.7 77.2348 217.143 77.3864C217.587 77.5379 217.99 77.7841 218.354 78.125C218.717 78.4621 219.007 78.9091 219.223 79.4659C219.439 80.0227 219.547 80.7083 219.547 81.5227V82.0909H212.82V80.9318H218.183C218.183 80.4394 218.085 80 217.888 79.6136C217.695 79.2273 217.418 78.9223 217.058 78.6989C216.702 78.4754 216.282 78.3636 215.797 78.3636C215.263 78.3636 214.801 78.4962 214.411 78.7614C214.024 79.0227 213.727 79.3636 213.518 79.7841C213.31 80.2045 213.206 80.6553 213.206 81.1364V81.9091C213.206 82.5682 213.32 83.1269 213.547 83.5852C213.778 84.0398 214.098 84.3864 214.507 84.625C214.916 84.8598 215.392 84.9773 215.933 84.9773C216.286 84.9773 216.604 84.928 216.888 84.8295C217.176 84.7273 217.424 84.5758 217.632 84.375C217.84 84.1705 218.001 83.9167 218.115 83.6136L219.411 83.9773C219.274 84.4167 219.045 84.803 218.723 85.1364C218.401 85.4659 218.003 85.7235 217.53 85.9091C217.056 86.0909 216.524 86.1818 215.933 86.1818Z" fill="#00625B"/>
<path d="M237 80.6666C238.105 80.6666 239 79.7712 239 78.6666C239 77.562 238.105 76.6666 237 76.6666C235.896 76.6666 235 77.562 235 78.6666C235 79.7712 235.896 80.6666 237 80.6666Z" stroke="#00625B" stroke-linecap="round" stroke-linejoin="round"/>
<path d="M237 86.6666C239.667 83.9999 242.334 81.6121 242.334 78.6666C242.334 75.7211 239.946 73.3333 237 73.3333C234.055 73.3333 231.667 75.7211 231.667 78.6666C231.667 81.6121 234.334 83.9999 237 86.6666Z" stroke="#00625B" stroke-linecap="round" stroke-linejoin="round"/>
<path d="M259.773 78H258.364C258.28 77.5947 258.134 77.2386 257.926 76.9318C257.722 76.625 257.472 76.3674 257.176 76.1591C256.884 75.947 256.561 75.7879 256.205 75.6818C255.848 75.5758 255.477 75.5227 255.091 75.5227C254.386 75.5227 253.748 75.7008 253.176 76.0568C252.608 76.4129 252.155 76.9375 251.818 77.6307C251.485 78.3239 251.318 79.1742 251.318 80.1818C251.318 81.1894 251.485 82.0398 251.818 82.733C252.155 83.4261 252.608 83.9508 253.176 84.3068C253.748 84.6629 254.386 84.8409 255.091 84.8409C255.477 84.8409 255.848 84.7879 256.205 84.6818C256.561 84.5758 256.884 84.4186 257.176 84.2102C257.472 83.9981 257.722 83.7386 257.926 83.4318C258.134 83.1212 258.28 82.7652 258.364 82.3636H259.773C259.667 82.9583 259.473 83.4905 259.193 83.9602C258.913 84.4299 258.564 84.8295 258.148 85.1591C257.731 85.4848 257.263 85.733 256.744 85.9034C256.229 86.0739 255.678 86.1591 255.091 86.1591C254.098 86.1591 253.216 85.9167 252.443 85.4318C251.67 84.947 251.063 84.2576 250.619 83.3636C250.176 82.4697 249.955 81.4091 249.955 80.1818C249.955 78.9545 250.176 77.8939 250.619 77C251.063 76.1061 251.67 75.4167 252.443 74.9318C253.216 74.447 254.098 74.2045 255.091 74.2045C255.678 74.2045 256.229 74.2898 256.744 74.4602C257.263 74.6307 257.731 74.8807 258.148 75.2102C258.564 75.536 258.913 75.9337 259.193 76.4034C259.473 76.8693 259.667 77.4015 259.773 78ZM261.868 86V77.2727H263.209V86H261.868ZM262.55 75.8182C262.288 75.8182 262.063 75.7292 261.874 75.5511C261.688 75.3731 261.595 75.1591 261.595 74.9091C261.595 74.6591 261.688 74.4451 261.874 74.267C262.063 74.089 262.288 74 262.55 74C262.811 74 263.035 74.089 263.22 74.267C263.41 74.4451 263.504 74.6591 263.504 74.9091C263.504 75.1591 263.41 75.3731 263.22 75.5511C263.035 75.7292 262.811 75.8182 262.55 75.8182ZM269.46 77.2727V78.4091H264.938V77.2727H269.46ZM266.256 75.1818H267.597V83.5C267.597 83.8788 267.652 84.1629 267.761 84.3523C267.875 84.5379 268.019 84.6629 268.193 84.7273C268.371 84.7879 268.559 84.8182 268.756 84.8182C268.903 84.8182 269.025 84.8106 269.119 84.7955C269.214 84.7765 269.29 84.7614 269.347 84.75L269.619 85.9545C269.528 85.9886 269.402 86.0227 269.239 86.0568C269.076 86.0947 268.869 86.1136 268.619 86.1136C268.241 86.1136 267.869 86.0322 267.506 85.8693C267.146 85.7064 266.847 85.4583 266.608 85.125C266.373 84.7917 266.256 84.3712 266.256 83.8636V75.1818ZM272.341 89.2727C272.114 89.2727 271.911 89.2538 271.733 89.2159C271.555 89.1818 271.432 89.1477 271.364 89.1136L271.705 87.9318C272.03 88.0152 272.318 88.0455 272.568 88.0227C272.818 88 273.04 87.8883 273.233 87.6875C273.43 87.4905 273.61 87.1705 273.773 86.7273L274.023 86.0455L270.795 77.2727H272.25L274.659 84.2273H274.75L277.159 77.2727H278.614L274.909 87.2727C274.742 87.7235 274.536 88.0966 274.29 88.392C274.044 88.6913 273.758 88.9129 273.432 89.0568C273.11 89.2008 272.746 89.2727 272.341 89.2727ZM289.884 79.5568V80.8068H284.793V79.5568H289.884ZM300.516 86.1591C299.66 86.1591 298.93 85.9261 298.328 85.4602C297.726 84.9905 297.266 84.3106 296.947 83.4205C296.629 82.5265 296.47 81.447 296.47 80.1818C296.47 78.9242 296.629 77.8504 296.947 76.9602C297.269 76.0663 297.732 75.3845 298.334 74.9148C298.94 74.4413 299.667 74.2045 300.516 74.2045C301.364 74.2045 302.089 74.4413 302.692 74.9148C303.298 75.3845 303.76 76.0663 304.078 76.9602C304.4 77.8504 304.561 78.9242 304.561 80.1818C304.561 81.447 304.402 82.5265 304.084 83.4205C303.766 84.3106 303.305 84.9905 302.703 85.4602C302.101 85.9261 301.372 86.1591 300.516 86.1591ZM300.516 84.9091C301.364 84.9091 302.023 84.5 302.493 83.6818C302.963 82.8636 303.197 81.697 303.197 80.1818C303.197 79.1742 303.089 78.3163 302.874 77.608C302.661 76.8996 302.355 76.3598 301.953 75.9886C301.555 75.6174 301.076 75.4318 300.516 75.4318C299.675 75.4318 299.018 75.8466 298.544 76.6761C298.071 77.5019 297.834 78.6705 297.834 80.1818C297.834 81.1894 297.94 82.0455 298.152 82.75C298.364 83.4545 298.669 83.9905 299.067 84.358C299.468 84.7254 299.951 84.9091 300.516 84.9091ZM310.516 86.1591C309.66 86.1591 308.93 85.9261 308.328 85.4602C307.726 84.9905 307.266 84.3106 306.947 83.4205C306.629 82.5265 306.47 81.447 306.47 80.1818C306.47 78.9242 306.629 77.8504 306.947 76.9602C307.269 76.0663 307.732 75.3845 308.334 74.9148C308.94 74.4413 309.667 74.2045 310.516 74.2045C311.364 74.2045 312.089 74.4413 312.692 74.9148C313.298 75.3845 313.76 76.0663 314.078 76.9602C314.4 77.8504 314.561 78.9242 314.561 80.1818C314.561 81.447 314.402 82.5265 314.084 83.4205C313.766 84.3106 313.305 84.9905 312.703 85.4602C312.101 85.9261 311.372 86.1591 310.516 86.1591ZM310.516 84.9091C311.364 84.9091 312.023 84.5 312.493 83.6818C312.963 82.8636 313.197 81.697 313.197 80.1818C313.197 79.1742 313.089 78.3163 312.874 77.608C312.661 76.8996 312.355 76.3598 311.953 75.9886C311.555 75.6174 311.076 75.4318 310.516 75.4318C309.675 75.4318 309.018 75.8466 308.544 76.6761C308.071 77.5019 307.834 78.6705 307.834 80.1818C307.834 81.1894 307.94 82.0455 308.152 82.75C308.364 83.4545 308.669 83.9905 309.067 84.358C309.468 84.7254 309.951 84.9091 310.516 84.9091ZM320.516 86.1591C319.66 86.1591 318.93 85.9261 318.328 85.4602C317.726 84.9905 317.266 84.3106 316.947 83.4205C316.629 82.5265 316.47 81.447 316.47 80.1818C316.47 78.9242 316.629 77.8504 316.947 76.9602C317.269 76.0663 317.732 75.3845 318.334 74.9148C318.94 74.4413 319.667 74.2045 320.516 74.2045C321.364 74.2045 322.089 74.4413 322.692 74.9148C323.298 75.3845 323.76 76.0663 324.078 76.9602C324.4 77.8504 324.561 78.9242 324.561 80.1818C324.561 81.447 324.402 82.5265 324.084 83.4205C323.766 84.3106 323.305 84.9905 322.703 85.4602C322.101 85.9261 321.372 86.1591 320.516 86.1591ZM320.516 84.9091C321.364 84.9091 322.023 84.5 322.493 83.6818C322.963 82.8636 323.197 81.697 323.197 80.1818C323.197 79.1742 323.089 78.3163 322.874 77.608C322.661 76.8996 322.355 76.3598 321.953 75.9886C321.555 75.6174 321.076 75.4318 320.516 75.4318C319.675 75.4318 319.018 75.8466 318.544 76.6761C318.071 77.5019 317.834 78.6705 317.834 80.1818C317.834 81.1894 317.94 82.0455 318.152 82.75C318.364 83.4545 318.669 83.9905 319.067 84.358C319.468 84.7254 319.951 84.9091 320.516 84.9091ZM330.516 86.1591C329.66 86.1591 328.93 85.9261 328.328 85.4602C327.726 84.9905 327.266 84.3106 326.947 83.4205C326.629 82.5265 326.47 81.447 326.47 80.1818C326.47 78.9242 326.629 77.8504 326.947 76.9602C327.269 76.0663 327.732 75.3845 328.334 74.9148C328.94 74.4413 329.667 74.2045 330.516 74.2045C331.364 74.2045 332.089 74.4413 332.692 74.9148C333.298 75.3845 333.76 76.0663 334.078 76.9602C334.4 77.8504 334.561 78.9242 334.561 80.1818C334.561 81.447 334.402 82.5265 334.084 83.4205C333.766 84.3106 333.305 84.9905 332.703 85.4602C332.101 85.9261 331.372 86.1591 330.516 86.1591ZM330.516 84.9091C331.364 84.9091 332.023 84.5 332.493 83.6818C332.963 82.8636 333.197 81.697 333.197 80.1818C333.197 79.1742 333.089 78.3163 332.874 77.608C332.661 76.8996 332.355 76.3598 331.953 75.9886C331.555 75.6174 331.076 75.4318 330.516 75.4318C329.675 75.4318 329.018 75.8466 328.544 76.6761C328.071 77.5019 327.834 78.6705 327.834 80.1818C327.834 81.1894 327.94 82.0455 328.152 82.75C328.364 83.4545 328.669 83.9905 329.067 84.358C329.468 84.7254 329.951 84.9091 330.516 84.9091ZM340.516 86.1591C339.66 86.1591 338.93 85.9261 338.328 85.4602C337.726 84.9905 337.266 84.3106 336.947 83.4205C336.629 82.5265 336.47 81.447 336.47 80.1818C336.47 78.9242 336.629 77.8504 336.947 76.9602C337.269 76.0663 337.732 75.3845 338.334 74.9148C338.94 74.4413 339.667 74.2045 340.516 74.2045C341.364 74.2045 342.089 74.4413 342.692 74.9148C343.298 75.3845 343.76 76.0663 344.078 76.9602C344.4 77.8504 344.561 78.9242 344.561 80.1818C344.561 81.447 344.402 82.5265 344.084 83.4205C343.766 84.3106 343.305 84.9905 342.703 85.4602C342.101 85.9261 341.372 86.1591 340.516 86.1591ZM340.516 84.9091C341.364 84.9091 342.023 84.5 342.493 83.6818C342.963 82.8636 343.197 81.697 343.197 80.1818C343.197 79.1742 343.089 78.3163 342.874 77.608C342.661 76.8996 342.355 76.3598 341.953 75.9886C341.555 75.6174 341.076 75.4318 340.516 75.4318C339.675 75.4318 339.018 75.8466 338.544 76.6761C338.071 77.5019 337.834 78.6705 337.834 80.1818C337.834 81.1894 337.94 82.0455 338.152 82.75C338.364 83.4545 338.669 83.9905 339.067 84.358C339.468 84.7254 339.951 84.9091 340.516 84.9091ZM350.516 86.1591C349.66 86.1591 348.93 85.9261 348.328 85.4602C347.726 84.9905 347.266 84.3106 346.947 83.4205C346.629 82.5265 346.47 81.447 346.47 80.1818C346.47 78.9242 346.629 77.8504 346.947 76.9602C347.269 76.0663 347.732 75.3845 348.334 74.9148C348.94 74.4413 349.667 74.2045 350.516 74.2045C351.364 74.2045 352.089 74.4413 352.692 74.9148C353.298 75.3845 353.76 76.0663 354.078 76.9602C354.4 77.8504 354.561 78.9242 354.561 80.1818C354.561 81.447 354.402 82.5265 354.084 83.4205C353.766 84.3106 353.305 84.9905 352.703 85.4602C352.101 85.9261 351.372 86.1591 350.516 86.1591ZM350.516 84.9091C351.364 84.9091 352.023 84.5 352.493 83.6818C352.963 82.8636 353.197 81.697 353.197 80.1818C353.197 79.1742 353.089 78.3163 352.874 77.608C352.661 76.8996 352.355 76.3598 351.953 75.9886C351.555 75.6174 351.076 75.4318 350.516 75.4318C349.675 75.4318 349.018 75.8466 348.544 76.6761C348.071 77.5019 347.834 78.6705 347.834 80.1818C347.834 81.1894 347.94 82.0455 348.152 82.75C348.364 83.4545 348.669 83.9905 349.067 84.358C349.468 84.7254 349.951 84.9091 350.516 84.9091Z" fill="#00625B"/>
<path d="M374.666 76.6667C374.666 76.0467 374.666 75.7367 374.598 75.4824C374.413 74.7922 373.874 74.2531 373.184 74.0681C372.93 74 372.62 74 372 74C371.38 74 371.07 74 370.815 74.0681C370.125 74.2531 369.586 74.7922 369.401 75.4824C369.333 75.7367 369.333 76.0467 369.333 76.6667M367.466 86H376.533C377.28 86 377.653 86 377.938 85.8547C378.189 85.7268 378.393 85.5229 378.521 85.272C378.666 84.9868 378.666 84.6134 378.666 83.8667V78.8C378.666 78.0533 378.666 77.6799 378.521 77.3947C378.393 77.1438 378.189 76.9398 377.938 76.812C377.653 76.6667 377.28 76.6667 376.533 76.6667H367.466C366.72 76.6667 366.346 76.6667 366.061 76.812C365.81 76.9398 365.606 77.1438 365.478 77.3947C365.333 77.6799 365.333 78.0533 365.333 78.8V83.8667C365.333 84.6134 365.333 84.9868 365.478 85.272C365.606 85.5229 365.81 85.7268 366.061 85.8547C366.346 86 366.72 86 367.466 86Z" stroke="#00625B" stroke-linecap="round" stroke-linejoin="round"/>
<path d="M395.227 80.1818C395.227 81.4091 395.006 82.4697 394.562 83.3636C394.119 84.2576 393.511 84.947 392.739 85.4318C391.966 85.9167 391.083 86.1591 390.091 86.1591C389.098 86.1591 388.216 85.9167 387.443 85.4318C386.67 84.947 386.063 84.2576 385.619 83.3636C385.176 82.4697 384.955 81.4091 384.955 80.1818C384.955 78.9545 385.176 77.8939 385.619 77C386.063 76.1061 386.67 75.4167 387.443 74.9318C388.216 74.447 389.098 74.2045 390.091 74.2045C391.083 74.2045 391.966 74.447 392.739 74.9318C393.511 75.4167 394.119 76.1061 394.562 77C395.006 77.8939 395.227 78.9545 395.227 80.1818ZM393.864 80.1818C393.864 79.1742 393.695 78.3239 393.358 77.6307C393.025 76.9375 392.572 76.4129 392 76.0568C391.432 75.7008 390.795 75.5227 390.091 75.5227C389.386 75.5227 388.748 75.7008 388.176 76.0568C387.608 76.4129 387.155 76.9375 386.818 77.6307C386.485 78.3239 386.318 79.1742 386.318 80.1818C386.318 81.1894 386.485 82.0398 386.818 82.733C387.155 83.4261 387.608 83.9508 388.176 84.3068C388.748 84.6629 389.386 84.8409 390.091 84.8409C390.795 84.8409 391.432 84.6629 392 84.3068C392.572 83.9508 393.025 83.4261 393.358 82.733C393.695 82.0398 393.864 81.1894 393.864 80.1818ZM400.96 86.1818C400.142 86.1818 399.438 85.9886 398.847 85.6023C398.256 85.2159 397.801 84.6837 397.483 84.0057C397.165 83.3277 397.006 82.553 397.006 81.6818C397.006 80.7955 397.169 80.0133 397.494 79.3352C397.824 78.6534 398.282 78.1212 398.869 77.7386C399.46 77.3523 400.15 77.1591 400.938 77.1591C401.551 77.1591 402.104 77.2727 402.597 77.5C403.089 77.7273 403.492 78.0455 403.807 78.4545C404.121 78.8636 404.316 79.3409 404.392 79.8864H403.051C402.949 79.4886 402.722 79.1364 402.369 78.8295C402.021 78.5189 401.551 78.3636 400.96 78.3636C400.438 78.3636 399.979 78.5 399.585 78.7727C399.195 79.0417 398.89 79.4223 398.67 79.9148C398.455 80.4034 398.347 80.9773 398.347 81.6364C398.347 82.3106 398.453 82.8977 398.665 83.3977C398.881 83.8977 399.184 84.286 399.574 84.5625C399.968 84.839 400.43 84.9773 400.96 84.9773C401.309 84.9773 401.625 84.9167 401.909 84.7955C402.193 84.6742 402.434 84.5 402.631 84.2727C402.828 84.0455 402.968 83.7727 403.051 83.4545H404.392C404.316 83.9697 404.129 84.4337 403.83 84.8466C403.534 85.2557 403.142 85.5814 402.653 85.8239C402.169 86.0625 401.604 86.1818 400.96 86.1818ZM409.898 86.1818C409.08 86.1818 408.375 85.9886 407.784 85.6023C407.193 85.2159 406.739 84.6837 406.42 84.0057C406.102 83.3277 405.943 82.553 405.943 81.6818C405.943 80.7955 406.106 80.0133 406.432 79.3352C406.761 78.6534 407.22 78.1212 407.807 77.7386C408.398 77.3523 409.087 77.1591 409.875 77.1591C410.489 77.1591 411.042 77.2727 411.534 77.5C412.027 77.7273 412.43 78.0455 412.744 78.4545C413.059 78.8636 413.254 79.3409 413.33 79.8864H411.989C411.886 79.4886 411.659 79.1364 411.307 78.8295C410.958 78.5189 410.489 78.3636 409.898 78.3636C409.375 78.3636 408.917 78.5 408.523 78.7727C408.133 79.0417 407.828 79.4223 407.608 79.9148C407.392 80.4034 407.284 80.9773 407.284 81.6364C407.284 82.3106 407.39 82.8977 407.602 83.3977C407.818 83.8977 408.121 84.286 408.511 84.5625C408.905 84.839 409.367 84.9773 409.898 84.9773C410.246 84.9773 410.562 84.9167 410.847 84.7955C411.131 84.6742 411.371 84.5 411.568 84.2727C411.765 84.0455 411.905 83.7727 411.989 83.4545H413.33C413.254 83.9697 413.066 84.4337 412.767 84.8466C412.472 85.2557 412.08 85.5814 411.591 85.8239C411.106 86.0625 410.542 86.1818 409.898 86.1818ZM420.79 82.4318V77.2727H422.131V86H420.79V84.5227H420.699C420.494 84.9659 420.176 85.3428 419.744 85.6534C419.313 85.9602 418.767 86.1136 418.108 86.1136C417.562 86.1136 417.078 85.9943 416.653 85.7557C416.229 85.5133 415.896 85.1496 415.653 84.6648C415.411 84.1761 415.29 83.5606 415.29 82.8182V77.2727H416.631V82.7273C416.631 83.3636 416.809 83.8712 417.165 84.25C417.525 84.6288 417.983 84.8182 418.54 84.8182C418.873 84.8182 419.212 84.733 419.557 84.5625C419.905 84.392 420.197 84.1307 420.432 83.7784C420.67 83.4261 420.79 82.9773 420.79 82.4318ZM424.587 89.2727V77.2727H425.882V78.6591H426.041C426.14 78.5076 426.276 78.3144 426.45 78.0795C426.628 77.8409 426.882 77.6288 427.212 77.4432C427.545 77.2538 427.996 77.1591 428.564 77.1591C429.299 77.1591 429.946 77.3428 430.507 77.7102C431.068 78.0777 431.505 78.5985 431.82 79.2727C432.134 79.947 432.291 80.7424 432.291 81.6591C432.291 82.5833 432.134 83.3845 431.82 84.0625C431.505 84.7367 431.07 85.2595 430.513 85.6307C429.956 85.9981 429.314 86.1818 428.587 86.1818C428.026 86.1818 427.577 86.089 427.24 85.9034C426.903 85.714 426.643 85.5 426.462 85.2614C426.28 85.0189 426.14 84.8182 426.041 84.6591H425.928V89.2727H424.587ZM425.905 81.6364C425.905 82.2955 426.001 82.8769 426.195 83.3807C426.388 83.8807 426.67 84.2727 427.041 84.5568C427.412 84.8371 427.867 84.9773 428.405 84.9773C428.965 84.9773 429.433 84.8295 429.808 84.5341C430.187 84.2348 430.471 83.8333 430.661 83.3295C430.854 82.822 430.95 82.2576 430.95 81.6364C430.95 81.0227 430.856 80.4697 430.666 79.9773C430.481 79.4811 430.198 79.089 429.82 78.8011C429.445 78.5095 428.973 78.3636 428.405 78.3636C427.859 78.3636 427.401 78.5019 427.03 78.7784C426.659 79.0511 426.378 79.4337 426.189 79.9261C426 80.4148 425.905 80.9848 425.905 81.6364ZM436.905 86.2045C436.352 86.2045 435.85 86.1004 435.399 85.892C434.948 85.6799 434.59 85.375 434.325 84.9773C434.06 84.5758 433.928 84.0909 433.928 83.5227C433.928 83.0227 434.026 82.6174 434.223 82.3068C434.42 81.9924 434.683 81.7462 435.013 81.5682C435.342 81.3902 435.706 81.2576 436.104 81.1705C436.505 81.0795 436.909 81.0076 437.314 80.9545C437.844 80.8864 438.274 80.8352 438.604 80.8011C438.937 80.7633 439.179 80.7008 439.331 80.6136C439.486 80.5265 439.564 80.375 439.564 80.1591V80.1136C439.564 79.553 439.411 79.1174 439.104 78.8068C438.801 78.4962 438.34 78.3409 437.723 78.3409C437.083 78.3409 436.581 78.4811 436.217 78.7614C435.854 79.0417 435.598 79.3409 435.45 79.6591L434.178 79.2045C434.405 78.6742 434.708 78.2614 435.087 77.9659C435.469 77.6667 435.886 77.4583 436.337 77.3409C436.791 77.2197 437.238 77.1591 437.678 77.1591C437.958 77.1591 438.28 77.1932 438.643 77.2614C439.011 77.3258 439.365 77.4602 439.706 77.6648C440.051 77.8693 440.337 78.178 440.564 78.5909C440.791 79.0038 440.905 79.5568 440.905 80.25V86H439.564V84.8182H439.496C439.405 85.0076 439.253 85.2102 439.041 85.4261C438.829 85.642 438.547 85.8258 438.195 85.9773C437.842 86.1288 437.412 86.2045 436.905 86.2045ZM437.109 85C437.64 85 438.087 84.8958 438.45 84.6875C438.818 84.4792 439.094 84.2102 439.28 83.8807C439.469 83.5511 439.564 83.2045 439.564 82.8409V81.6136C439.507 81.6818 439.382 81.7443 439.189 81.8011C439 81.8542 438.78 81.9015 438.53 81.9432C438.284 81.9811 438.043 82.0152 437.808 82.0455C437.577 82.072 437.39 82.0947 437.246 82.1136C436.897 82.1591 436.571 82.233 436.268 82.3352C435.969 82.4337 435.727 82.5833 435.541 82.7841C435.359 82.9811 435.268 83.25 435.268 83.5909C435.268 84.0568 435.441 84.4091 435.786 84.6477C436.134 84.8826 436.575 85 437.109 85ZM447.148 77.2727V78.4091H442.625V77.2727H447.148ZM443.943 75.1818H445.284V83.5C445.284 83.8788 445.339 84.1629 445.449 84.3523C445.563 84.5379 445.706 84.6629 445.881 84.7273C446.059 84.7879 446.246 84.8182 446.443 84.8182C446.591 84.8182 446.712 84.8106 446.807 84.7955C446.902 84.7765 446.977 84.7614 447.034 84.75L447.307 85.9545C447.216 85.9886 447.089 86.0227 446.926 86.0568C446.763 86.0947 446.557 86.1136 446.307 86.1136C445.928 86.1136 445.557 86.0322 445.193 85.8693C444.833 85.7064 444.534 85.4583 444.295 85.125C444.061 84.7917 443.943 84.3712 443.943 83.8636V75.1818ZM449.165 86V77.2727H450.506V86H449.165ZM449.847 75.8182C449.585 75.8182 449.36 75.7292 449.17 75.5511C448.985 75.3731 448.892 75.1591 448.892 74.9091C448.892 74.6591 448.985 74.4451 449.17 74.267C449.36 74.089 449.585 74 449.847 74C450.108 74 450.331 74.089 450.517 74.267C450.706 74.4451 450.801 74.6591 450.801 74.9091C450.801 75.1591 450.706 75.3731 450.517 75.5511C450.331 75.7292 450.108 75.8182 449.847 75.8182ZM456.507 86.1818C455.719 86.1818 455.028 85.9943 454.433 85.6193C453.842 85.2443 453.38 84.7197 453.047 84.0455C452.717 83.3712 452.553 82.5833 452.553 81.6818C452.553 80.7727 452.717 79.9792 453.047 79.3011C453.38 78.6231 453.842 78.0966 454.433 77.7216C455.028 77.3466 455.719 77.1591 456.507 77.1591C457.295 77.1591 457.984 77.3466 458.575 77.7216C459.17 78.0966 459.632 78.6231 459.962 79.3011C460.295 79.9792 460.462 80.7727 460.462 81.6818C460.462 82.5833 460.295 83.3712 459.962 84.0455C459.632 84.7197 459.17 85.2443 458.575 85.6193C457.984 85.9943 457.295 86.1818 456.507 86.1818ZM456.507 84.9773C457.106 84.9773 457.598 84.8239 457.984 84.517C458.371 84.2102 458.657 83.8068 458.842 83.3068C459.028 82.8068 459.121 82.2652 459.121 81.6818C459.121 81.0985 459.028 80.5549 458.842 80.0511C458.657 79.5473 458.371 79.1402 457.984 78.8295C457.598 78.5189 457.106 78.3636 456.507 78.3636C455.909 78.3636 455.416 78.5189 455.03 78.8295C454.643 79.1402 454.357 79.5473 454.172 80.0511C453.986 80.5549 453.893 81.0985 453.893 81.6818C453.893 82.2652 453.986 82.8068 454.172 83.3068C454.357 83.8068 454.643 84.2102 455.03 84.517C455.416 84.8239 455.909 84.9773 456.507 84.9773ZM463.849 80.75V86H462.509V77.2727H463.804V78.6364H463.918C464.122 78.1932 464.433 77.8371 464.849 77.5682C465.266 77.2955 465.804 77.1591 466.463 77.1591C467.054 77.1591 467.571 77.2803 468.014 77.5227C468.457 77.7614 468.802 78.125 469.048 78.6136C469.295 79.0985 469.418 79.7121 469.418 80.4545V86H468.077V80.5455C468.077 79.8598 467.899 79.3258 467.543 78.9432C467.187 78.5568 466.698 78.3636 466.077 78.3636C465.649 78.3636 465.266 78.4564 464.929 78.642C464.596 78.8277 464.332 79.0985 464.139 79.4545C463.946 79.8106 463.849 80.2424 463.849 80.75Z" fill="#00625B"/>
<path d="M178 101.333H166M174.667 97.3333V99.3333M169.333 97.3333V99.3333M169.2 110.667H174.8C175.92 110.667 176.48 110.667 176.908 110.449C177.284 110.257 177.59 109.951 177.782 109.575C178 109.147 178 108.587 178 107.467V101.867C178 100.746 178 100.186 177.782 99.7586C177.59 99.3823 177.284 99.0763 176.908 98.8846C176.48 98.6666 175.92 98.6666 174.8 98.6666H169.2C168.08 98.6666 167.52 98.6666 167.092 98.8846C166.716 99.0763 166.41 99.3823 166.218 99.7586C166 100.186 166 100.746 166 101.867V107.467C166 108.587 166 109.147 166.218 109.575C166.41 109.951 166.716 110.257 167.092 110.449C167.52 110.667 168.08 110.667 169.2 110.667ZM171.998 104.22C171.465 103.614 170.576 103.451 169.908 104.006C169.24 104.561 169.146 105.489 169.67 106.145C170.051 106.622 171.106 107.56 171.656 108.038C171.775 108.142 171.834 108.193 171.904 108.214C171.964 108.232 172.032 108.232 172.092 108.214C172.162 108.193 172.222 108.142 172.341 108.038C172.89 107.56 173.945 106.622 174.326 106.145C174.85 105.489 174.768 104.555 174.088 104.006C173.409 103.457 172.531 103.614 171.998 104.22Z" stroke="#00625B" stroke-width="0.8" stroke-linecap="round" stroke-linejoin="round"/>
<path d="M189 110H185.409V98.3636H189.159C190.288 98.3636 191.254 98.5966 192.057 99.0625C192.86 99.5246 193.475 100.189 193.903 101.057C194.331 101.92 194.545 102.955 194.545 104.159C194.545 105.371 194.33 106.415 193.898 107.29C193.466 108.161 192.837 108.831 192.011 109.301C191.186 109.767 190.182 110 189 110ZM186.818 108.75H188.909C189.871 108.75 190.669 108.564 191.301 108.193C191.934 107.822 192.405 107.294 192.716 106.608C193.027 105.922 193.182 105.106 193.182 104.159C193.182 103.22 193.028 102.411 192.722 101.733C192.415 101.051 191.956 100.528 191.347 100.165C190.737 99.7973 189.977 99.6136 189.068 99.6136H186.818V108.75ZM196.97 110.091C196.69 110.091 196.449 109.991 196.249 109.79C196.048 109.589 195.947 109.348 195.947 109.068C195.947 108.788 196.048 108.547 196.249 108.347C196.449 108.146 196.69 108.045 196.97 108.045C197.25 108.045 197.491 108.146 197.692 108.347C197.893 108.547 197.993 108.788 197.993 109.068C197.993 109.254 197.946 109.424 197.851 109.58C197.76 109.735 197.637 109.86 197.482 109.955C197.33 110.045 197.16 110.091 196.97 110.091ZM210.399 104.182C210.399 105.409 210.178 106.47 209.734 107.364C209.291 108.258 208.683 108.947 207.911 109.432C207.138 109.917 206.255 110.159 205.263 110.159C204.27 110.159 203.388 109.917 202.615 109.432C201.842 108.947 201.234 108.258 200.791 107.364C200.348 106.47 200.126 105.409 200.126 104.182C200.126 102.955 200.348 101.894 200.791 101C201.234 100.106 201.842 99.4167 202.615 98.9318C203.388 98.447 204.27 98.2045 205.263 98.2045C206.255 98.2045 207.138 98.447 207.911 98.9318C208.683 99.4167 209.291 100.106 209.734 101C210.178 101.894 210.399 102.955 210.399 104.182ZM209.036 104.182C209.036 103.174 208.867 102.324 208.53 101.631C208.196 100.938 207.744 100.413 207.172 100.057C206.604 99.7008 205.967 99.5227 205.263 99.5227C204.558 99.5227 203.92 99.7008 203.348 100.057C202.78 100.413 202.327 100.938 201.99 101.631C201.657 102.324 201.49 103.174 201.49 104.182C201.49 105.189 201.657 106.04 201.99 106.733C202.327 107.426 202.78 107.951 203.348 108.307C203.92 108.663 204.558 108.841 205.263 108.841C205.967 108.841 206.604 108.663 207.172 108.307C207.744 107.951 208.196 107.426 208.53 106.733C208.867 106.04 209.036 105.189 209.036 104.182ZM212.83 110.091C212.549 110.091 212.309 109.991 212.108 109.79C211.907 109.589 211.807 109.348 211.807 109.068C211.807 108.788 211.907 108.547 212.108 108.347C212.309 108.146 212.549 108.045 212.83 108.045C213.11 108.045 213.35 108.146 213.551 108.347C213.752 108.547 213.852 108.788 213.852 109.068C213.852 109.254 213.805 109.424 213.71 109.58C213.619 109.735 213.496 109.86 213.341 109.955C213.189 110.045 213.019 110.091 212.83 110.091ZM216.44 110V98.3636H220.509C221.319 98.3636 221.988 98.5038 222.514 98.7841C223.041 99.0606 223.433 99.4337 223.69 99.9034C223.948 100.369 224.077 100.886 224.077 101.455C224.077 101.955 223.988 102.367 223.81 102.693C223.635 103.019 223.404 103.277 223.116 103.466C222.832 103.655 222.524 103.795 222.19 103.886V104C222.546 104.023 222.904 104.148 223.264 104.375C223.624 104.602 223.925 104.928 224.168 105.352C224.41 105.777 224.531 106.295 224.531 106.909C224.531 107.492 224.399 108.017 224.134 108.483C223.868 108.949 223.45 109.318 222.878 109.591C222.306 109.864 221.562 110 220.645 110H216.44ZM217.849 108.75H220.645C221.565 108.75 222.219 108.572 222.605 108.216C222.995 107.856 223.19 107.42 223.19 106.909C223.19 106.515 223.09 106.152 222.889 105.818C222.688 105.481 222.402 105.212 222.031 105.011C221.66 104.807 221.221 104.705 220.713 104.705H217.849V108.75ZM217.849 103.477H220.463C220.887 103.477 221.27 103.394 221.611 103.227C221.955 103.061 222.228 102.826 222.429 102.523C222.634 102.22 222.736 101.864 222.736 101.455C222.736 100.943 222.558 100.509 222.202 100.153C221.846 99.7936 221.281 99.6136 220.509 99.6136H217.849V103.477ZM236.165 103.557V104.807H231.074V103.557H236.165Z" fill="#00625B"/>
<path d="M247 110.159C246.144 110.159 245.415 109.926 244.812 109.46C244.21 108.991 243.75 108.311 243.432 107.42C243.114 106.527 242.955 105.447 242.955 104.182C242.955 102.924 243.114 101.85 243.432 100.96C243.754 100.066 244.216 99.3845 244.818 98.9148C245.424 98.4413 246.152 98.2045 247 98.2045C247.848 98.2045 248.574 98.4413 249.176 98.9148C249.782 99.3845 250.244 100.066 250.562 100.96C250.884 101.85 251.045 102.924 251.045 104.182C251.045 105.447 250.886 106.527 250.568 107.42C250.25 108.311 249.79 108.991 249.188 109.46C248.585 109.926 247.856 110.159 247 110.159ZM247 108.909C247.848 108.909 248.508 108.5 248.977 107.682C249.447 106.864 249.682 105.697 249.682 104.182C249.682 103.174 249.574 102.316 249.358 101.608C249.146 100.9 248.839 100.36 248.438 99.9886C248.04 99.6174 247.561 99.4318 247 99.4318C246.159 99.4318 245.502 99.8466 245.028 100.676C244.555 101.502 244.318 102.67 244.318 104.182C244.318 105.189 244.424 106.045 244.636 106.75C244.848 107.455 245.153 107.991 245.551 108.358C245.953 108.725 246.436 108.909 247 108.909ZM257 110.159C256.144 110.159 255.415 109.926 254.812 109.46C254.21 108.991 253.75 108.311 253.432 107.42C253.114 106.527 252.955 105.447 252.955 104.182C252.955 102.924 253.114 101.85 253.432 100.96C253.754 100.066 254.216 99.3845 254.818 98.9148C255.424 98.4413 256.152 98.2045 257 98.2045C257.848 98.2045 258.574 98.4413 259.176 98.9148C259.782 99.3845 260.244 100.066 260.562 100.96C260.884 101.85 261.045 102.924 261.045 104.182C261.045 105.447 260.886 106.527 260.568 107.42C260.25 108.311 259.79 108.991 259.188 109.46C258.585 109.926 257.856 110.159 257 110.159ZM257 108.909C257.848 108.909 258.508 108.5 258.977 107.682C259.447 106.864 259.682 105.697 259.682 104.182C259.682 103.174 259.574 102.316 259.358 101.608C259.146 100.9 258.839 100.36 258.438 99.9886C258.04 99.6174 257.561 99.4318 257 99.4318C256.159 99.4318 255.502 99.8466 255.028 100.676C254.555 101.502 254.318 102.67 254.318 104.182C254.318 105.189 254.424 106.045 254.636 106.75C254.848 107.455 255.153 107.991 255.551 108.358C255.953 108.725 256.436 108.909 257 108.909ZM267.341 97.8182L263.591 111.75H262.364L266.114 97.8182H267.341ZM272.703 110.159C271.847 110.159 271.118 109.926 270.516 109.46C269.913 108.991 269.453 108.311 269.135 107.42C268.817 106.527 268.658 105.447 268.658 104.182C268.658 102.924 268.817 101.85 269.135 100.96C269.457 100.066 269.919 99.3845 270.521 98.9148C271.127 98.4413 271.855 98.2045 272.703 98.2045C273.552 98.2045 274.277 98.4413 274.879 98.9148C275.485 99.3845 275.947 100.066 276.266 100.96C276.588 101.85 276.749 102.924 276.749 104.182C276.749 105.447 276.589 106.527 276.271 107.42C275.953 108.311 275.493 108.991 274.891 109.46C274.288 109.926 273.559 110.159 272.703 110.159ZM272.703 108.909C273.552 108.909 274.211 108.5 274.68 107.682C275.15 106.864 275.385 105.697 275.385 104.182C275.385 103.174 275.277 102.316 275.061 101.608C274.849 100.9 274.542 100.36 274.141 99.9886C273.743 99.6174 273.264 99.4318 272.703 99.4318C271.862 99.4318 271.205 99.8466 270.732 100.676C270.258 101.502 270.021 102.67 270.021 104.182C270.021 105.189 270.127 106.045 270.339 106.75C270.552 107.455 270.857 107.991 271.254 108.358C271.656 108.725 272.139 108.909 272.703 108.909ZM282.703 110.159C281.847 110.159 281.118 109.926 280.516 109.46C279.913 108.991 279.453 108.311 279.135 107.42C278.817 106.527 278.658 105.447 278.658 104.182C278.658 102.924 278.817 101.85 279.135 100.96C279.457 100.066 279.919 99.3845 280.521 98.9148C281.127 98.4413 281.855 98.2045 282.703 98.2045C283.552 98.2045 284.277 98.4413 284.879 98.9148C285.485 99.3845 285.947 100.066 286.266 100.96C286.588 101.85 286.749 102.924 286.749 104.182C286.749 105.447 286.589 106.527 286.271 107.42C285.953 108.311 285.493 108.991 284.891 109.46C284.288 109.926 283.559 110.159 282.703 110.159ZM282.703 108.909C283.552 108.909 284.211 108.5 284.68 107.682C285.15 106.864 285.385 105.697 285.385 104.182C285.385 103.174 285.277 102.316 285.061 101.608C284.849 100.9 284.542 100.36 284.141 99.9886C283.743 99.6174 283.264 99.4318 282.703 99.4318C281.862 99.4318 281.205 99.8466 280.732 100.676C280.258 101.502 280.021 102.67 280.021 104.182C280.021 105.189 280.127 106.045 280.339 106.75C280.552 107.455 280.857 107.991 281.254 108.358C281.656 108.725 282.139 108.909 282.703 108.909ZM293.044 97.8182L289.294 111.75H288.067L291.817 97.8182H293.044ZM298.702 98.3636V110H297.293V99.8409H297.224L294.384 101.727V100.295L297.293 98.3636H298.702ZM305.753 98.2045C306.23 98.2083 306.707 98.2992 307.185 98.4773C307.662 98.6553 308.098 98.9508 308.491 99.3636C308.885 99.7727 309.202 100.331 309.44 101.04C309.679 101.748 309.798 102.636 309.798 103.705C309.798 104.739 309.7 105.657 309.503 106.46C309.31 107.259 309.029 107.934 308.662 108.483C308.298 109.032 307.855 109.449 307.332 109.733C306.813 110.017 306.226 110.159 305.571 110.159C304.92 110.159 304.338 110.03 303.827 109.773C303.319 109.511 302.902 109.15 302.577 108.688C302.255 108.222 302.048 107.682 301.957 107.068H303.344C303.469 107.602 303.717 108.044 304.088 108.392C304.463 108.737 304.957 108.909 305.571 108.909C306.469 108.909 307.177 108.517 307.696 107.733C308.219 106.949 308.48 105.841 308.48 104.409H308.389C308.177 104.727 307.925 105.002 307.634 105.233C307.342 105.464 307.018 105.642 306.662 105.767C306.306 105.892 305.927 105.955 305.526 105.955C304.859 105.955 304.247 105.79 303.69 105.46C303.137 105.127 302.694 104.67 302.361 104.091C302.031 103.508 301.866 102.841 301.866 102.091C301.866 101.379 302.026 100.727 302.344 100.136C302.666 99.5417 303.116 99.0682 303.696 98.7159C304.279 98.3636 304.965 98.1932 305.753 98.2045ZM305.753 99.4545C305.276 99.4545 304.846 99.5739 304.463 99.8125C304.084 100.047 303.783 100.366 303.56 100.767C303.34 101.165 303.23 101.606 303.23 102.091C303.23 102.576 303.336 103.017 303.548 103.415C303.764 103.809 304.058 104.123 304.429 104.358C304.804 104.589 305.23 104.705 305.707 104.705C306.067 104.705 306.402 104.634 306.713 104.494C307.024 104.35 307.295 104.155 307.526 103.909C307.76 103.659 307.944 103.377 308.077 103.062C308.209 102.744 308.276 102.413 308.276 102.068C308.276 101.614 308.166 101.187 307.946 100.79C307.73 100.392 307.431 100.07 307.048 99.8239C306.67 99.5777 306.238 99.4545 305.753 99.4545ZM315.828 110.159C314.972 110.159 314.243 109.926 313.641 109.46C313.038 108.991 312.578 108.311 312.26 107.42C311.942 106.527 311.783 105.447 311.783 104.182C311.783 102.924 311.942 101.85 312.26 100.96C312.582 100.066 313.044 99.3845 313.646 98.9148C314.252 98.4413 314.98 98.2045 315.828 98.2045C316.677 98.2045 317.402 98.4413 318.004 98.9148C318.61 99.3845 319.072 100.066 319.391 100.96C319.713 101.85 319.874 102.924 319.874 104.182C319.874 105.447 319.714 106.527 319.396 107.42C319.078 108.311 318.618 108.991 318.016 109.46C317.413 109.926 316.684 110.159 315.828 110.159ZM315.828 108.909C316.677 108.909 317.336 108.5 317.805 107.682C318.275 106.864 318.51 105.697 318.51 104.182C318.51 103.174 318.402 102.316 318.186 101.608C317.974 100.9 317.667 100.36 317.266 99.9886C316.868 99.6174 316.389 99.4318 315.828 99.4318C314.987 99.4318 314.33 99.8466 313.857 100.676C313.383 101.502 313.146 102.67 313.146 104.182C313.146 105.189 313.252 106.045 313.464 106.75C313.677 107.455 313.982 107.991 314.379 108.358C314.781 108.725 315.264 108.909 315.828 108.909ZM325.828 110.159C324.972 110.159 324.243 109.926 323.641 109.46C323.038 108.991 322.578 108.311 322.26 107.42C321.942 106.527 321.783 105.447 321.783 104.182C321.783 102.924 321.942 101.85 322.26 100.96C322.582 100.066 323.044 99.3845 323.646 98.9148C324.252 98.4413 324.98 98.2045 325.828 98.2045C326.677 98.2045 327.402 98.4413 328.004 98.9148C328.61 99.3845 329.072 100.066 329.391 100.96C329.713 101.85 329.874 102.924 329.874 104.182C329.874 105.447 329.714 106.527 329.396 107.42C329.078 108.311 328.618 108.991 328.016 109.46C327.413 109.926 326.684 110.159 325.828 110.159ZM325.828 108.909C326.677 108.909 327.336 108.5 327.805 107.682C328.275 106.864 328.51 105.697 328.51 104.182C328.51 103.174 328.402 102.316 328.186 101.608C327.974 100.9 327.667 100.36 327.266 99.9886C326.868 99.6174 326.389 99.4318 325.828 99.4318C324.987 99.4318 324.33 99.8466 323.857 100.676C323.383 101.502 323.146 102.67 323.146 104.182C323.146 105.189 323.252 106.045 323.464 106.75C323.677 107.455 323.982 107.991 324.379 108.358C324.781 108.725 325.264 108.909 325.828 108.909Z" fill="#00625B"/>
<path d="M353 102.667H341M349.667 97.3333V99.9999M344.333 97.3333V99.9999M344.2 110.667H349.8C350.92 110.667 351.48 110.667 351.908 110.449C352.284 110.257 352.59 109.951 352.782 109.575C353 109.147 353 108.587 353 107.467V101.867C353 100.746 353 100.186 352.782 99.7586C352.59 99.3823 352.284 99.0763 351.908 98.8846C351.48 98.6666 350.92 98.6666 349.8 98.6666H344.2C343.08 98.6666 342.52 98.6666 342.092 98.8846C341.716 99.0763 341.41 99.3823 341.218 99.7586C341 100.186 341 100.746 341 101.867V107.467C341 108.587 341 109.147 341.218 109.575C341.41 109.951 341.716 110.257 342.092 110.449C342.52 110.667 343.08 110.667 344.2 110.667Z" stroke="#00625B" stroke-linecap="round" stroke-linejoin="round"/>
<path d="M364 110H360.409V98.3636H364.159C365.288 98.3636 366.254 98.5966 367.057 99.0625C367.86 99.5246 368.475 100.189 368.903 101.057C369.331 101.92 369.545 102.955 369.545 104.159C369.545 105.371 369.33 106.415 368.898 107.29C368.466 108.161 367.837 108.831 367.011 109.301C366.186 109.767 365.182 110 364 110ZM361.818 108.75H363.909C364.871 108.75 365.669 108.564 366.301 108.193C366.934 107.822 367.405 107.294 367.716 106.608C368.027 105.922 368.182 105.106 368.182 104.159C368.182 103.22 368.028 102.411 367.722 101.733C367.415 101.051 366.956 100.528 366.347 100.165C365.737 99.7973 364.977 99.6136 364.068 99.6136H361.818V108.75ZM371.97 110.091C371.69 110.091 371.449 109.991 371.249 109.79C371.048 109.589 370.947 109.348 370.947 109.068C370.947 108.788 371.048 108.547 371.249 108.347C371.449 108.146 371.69 108.045 371.97 108.045C372.25 108.045 372.491 108.146 372.692 108.347C372.893 108.547 372.993 108.788 372.993 109.068C372.993 109.254 372.946 109.424 372.851 109.58C372.76 109.735 372.637 109.86 372.482 109.955C372.33 110.045 372.16 110.091 371.97 110.091ZM385.399 104.182C385.399 105.409 385.178 106.47 384.734 107.364C384.291 108.258 383.683 108.947 382.911 109.432C382.138 109.917 381.255 110.159 380.263 110.159C379.27 110.159 378.388 109.917 377.615 109.432C376.842 108.947 376.234 108.258 375.791 107.364C375.348 106.47 375.126 105.409 375.126 104.182C375.126 102.955 375.348 101.894 375.791 101C376.234 100.106 376.842 99.4167 377.615 98.9318C378.388 98.447 379.27 98.2045 380.263 98.2045C381.255 98.2045 382.138 98.447 382.911 98.9318C383.683 99.4167 384.291 100.106 384.734 101C385.178 101.894 385.399 102.955 385.399 104.182ZM384.036 104.182C384.036 103.174 383.867 102.324 383.53 101.631C383.196 100.938 382.744 100.413 382.172 100.057C381.604 99.7008 380.967 99.5227 380.263 99.5227C379.558 99.5227 378.92 99.7008 378.348 100.057C377.78 100.413 377.327 100.938 376.99 101.631C376.657 102.324 376.49 103.174 376.49 104.182C376.49 105.189 376.657 106.04 376.99 106.733C377.327 107.426 377.78 107.951 378.348 108.307C378.92 108.663 379.558 108.841 380.263 108.841C380.967 108.841 381.604 108.663 382.172 108.307C382.744 107.951 383.196 107.426 383.53 106.733C383.867 106.04 384.036 105.189 384.036 104.182ZM387.83 110.091C387.549 110.091 387.309 109.991 387.108 109.79C386.907 109.589 386.807 109.348 386.807 109.068C386.807 108.788 386.907 108.547 387.108 108.347C387.309 108.146 387.549 108.045 387.83 108.045C388.11 108.045 388.35 108.146 388.551 108.347C388.752 108.547 388.852 108.788 388.852 109.068C388.852 109.254 388.805 109.424 388.71 109.58C388.619 109.735 388.496 109.86 388.341 109.955C388.189 110.045 388.019 110.091 387.83 110.091ZM391.918 110H390.44L394.713 98.3636H396.168L400.44 110H398.963L395.486 100.205H395.395L391.918 110ZM392.463 105.455H398.418V106.705H392.463V105.455Z" fill="#00625B"/>
<path d="M410 110.159C409.144 110.159 408.415 109.926 407.812 109.46C407.21 108.991 406.75 108.311 406.432 107.42C406.114 106.527 405.955 105.447 405.955 104.182C405.955 102.924 406.114 101.85 406.432 100.96C406.754 100.066 407.216 99.3845 407.818 98.9148C408.424 98.4413 409.152 98.2045 410 98.2045C410.848 98.2045 411.574 98.4413 412.176 98.9148C412.782 99.3845 413.244 100.066 413.562 100.96C413.884 101.85 414.045 102.924 414.045 104.182C414.045 105.447 413.886 106.527 413.568 107.42C413.25 108.311 412.79 108.991 412.188 109.46C411.585 109.926 410.856 110.159 410 110.159ZM410 108.909C410.848 108.909 411.508 108.5 411.977 107.682C412.447 106.864 412.682 105.697 412.682 104.182C412.682 103.174 412.574 102.316 412.358 101.608C412.146 100.9 411.839 100.36 411.438 99.9886C411.04 99.6174 410.561 99.4318 410 99.4318C409.159 99.4318 408.502 99.8466 408.028 100.676C407.555 101.502 407.318 102.67 407.318 104.182C407.318 105.189 407.424 106.045 407.636 106.75C407.848 107.455 408.153 107.991 408.551 108.358C408.953 108.725 409.436 108.909 410 108.909ZM420 110.159C419.144 110.159 418.415 109.926 417.812 109.46C417.21 108.991 416.75 108.311 416.432 107.42C416.114 106.527 415.955 105.447 415.955 104.182C415.955 102.924 416.114 101.85 416.432 100.96C416.754 100.066 417.216 99.3845 417.818 98.9148C418.424 98.4413 419.152 98.2045 420 98.2045C420.848 98.2045 421.574 98.4413 422.176 98.9148C422.782 99.3845 423.244 100.066 423.562 100.96C423.884 101.85 424.045 102.924 424.045 104.182C424.045 105.447 423.886 106.527 423.568 107.42C423.25 108.311 422.79 108.991 422.188 109.46C421.585 109.926 420.856 110.159 420 110.159ZM420 108.909C420.848 108.909 421.508 108.5 421.977 107.682C422.447 106.864 422.682 105.697 422.682 104.182C422.682 103.174 422.574 102.316 422.358 101.608C422.146 100.9 421.839 100.36 421.438 99.9886C421.04 99.6174 420.561 99.4318 420 99.4318C419.159 99.4318 418.502 99.8466 418.028 100.676C417.555 101.502 417.318 102.67 417.318 104.182C417.318 105.189 417.424 106.045 417.636 106.75C417.848 107.455 418.153 107.991 418.551 108.358C418.953 108.725 419.436 108.909 420 108.909ZM430.341 97.8182L426.591 111.75H425.364L429.114 97.8182H430.341ZM435.703 110.159C434.847 110.159 434.118 109.926 433.516 109.46C432.913 108.991 432.453 108.311 432.135 107.42C431.817 106.527 431.658 105.447 431.658 104.182C431.658 102.924 431.817 101.85 432.135 100.96C432.457 100.066 432.919 99.3845 433.521 98.9148C434.127 98.4413 434.855 98.2045 435.703 98.2045C436.552 98.2045 437.277 98.4413 437.879 98.9148C438.485 99.3845 438.947 100.066 439.266 100.96C439.588 101.85 439.749 102.924 439.749 104.182C439.749 105.447 439.589 106.527 439.271 107.42C438.953 108.311 438.493 108.991 437.891 109.46C437.288 109.926 436.559 110.159 435.703 110.159ZM435.703 108.909C436.552 108.909 437.211 108.5 437.68 107.682C438.15 106.864 438.385 105.697 438.385 104.182C438.385 103.174 438.277 102.316 438.061 101.608C437.849 100.9 437.542 100.36 437.141 99.9886C436.743 99.6174 436.264 99.4318 435.703 99.4318C434.862 99.4318 434.205 99.8466 433.732 100.676C433.258 101.502 433.021 102.67 433.021 104.182C433.021 105.189 433.127 106.045 433.339 106.75C433.552 107.455 433.857 107.991 434.254 108.358C434.656 108.725 435.139 108.909 435.703 108.909ZM445.703 110.159C444.847 110.159 444.118 109.926 443.516 109.46C442.913 108.991 442.453 108.311 442.135 107.42C441.817 106.527 441.658 105.447 441.658 104.182C441.658 102.924 441.817 101.85 442.135 100.96C442.457 100.066 442.919 99.3845 443.521 98.9148C444.127 98.4413 444.855 98.2045 445.703 98.2045C446.552 98.2045 447.277 98.4413 447.879 98.9148C448.485 99.3845 448.947 100.066 449.266 100.96C449.588 101.85 449.749 102.924 449.749 104.182C449.749 105.447 449.589 106.527 449.271 107.42C448.953 108.311 448.493 108.991 447.891 109.46C447.288 109.926 446.559 110.159 445.703 110.159ZM445.703 108.909C446.552 108.909 447.211 108.5 447.68 107.682C448.15 106.864 448.385 105.697 448.385 104.182C448.385 103.174 448.277 102.316 448.061 101.608C447.849 100.9 447.542 100.36 447.141 99.9886C446.743 99.6174 446.264 99.4318 445.703 99.4318C444.862 99.4318 444.205 99.8466 443.732 100.676C443.258 101.502 443.021 102.67 443.021 104.182C443.021 105.189 443.127 106.045 443.339 106.75C443.552 107.455 443.857 107.991 444.254 108.358C444.656 108.725 445.139 108.909 445.703 108.909ZM456.044 97.8182L452.294 111.75H451.067L454.817 97.8182H456.044ZM457.611 110V108.977L461.452 104.773C461.902 104.28 462.274 103.852 462.565 103.489C462.857 103.121 463.073 102.777 463.213 102.455C463.357 102.129 463.429 101.788 463.429 101.432C463.429 101.023 463.33 100.669 463.134 100.369C462.94 100.07 462.675 99.839 462.338 99.6761C462.001 99.5133 461.622 99.4318 461.202 99.4318C460.755 99.4318 460.365 99.5246 460.031 99.7102C459.702 99.892 459.446 100.148 459.264 100.477C459.086 100.807 458.997 101.193 458.997 101.636H457.656C457.656 100.955 457.813 100.356 458.128 99.8409C458.442 99.3258 458.87 98.9242 459.412 98.6364C459.957 98.3485 460.569 98.2045 461.247 98.2045C461.929 98.2045 462.533 98.3485 463.06 98.6364C463.586 98.9242 463.999 99.3125 464.298 99.8011C464.598 100.29 464.747 100.833 464.747 101.432C464.747 101.86 464.67 102.278 464.514 102.688C464.363 103.093 464.098 103.545 463.719 104.045C463.344 104.542 462.823 105.148 462.156 105.864L459.543 108.659V108.75H464.952V110H457.611ZM471.094 110.159C470.238 110.159 469.509 109.926 468.906 109.46C468.304 108.991 467.844 108.311 467.526 107.42C467.207 106.527 467.048 105.447 467.048 104.182C467.048 102.924 467.207 101.85 467.526 100.96C467.848 100.066 468.31 99.3845 468.912 98.9148C469.518 98.4413 470.245 98.2045 471.094 98.2045C471.942 98.2045 472.668 98.4413 473.27 98.9148C473.876 99.3845 474.338 100.066 474.656 100.96C474.978 101.85 475.139 102.924 475.139 104.182C475.139 105.447 474.98 106.527 474.662 107.42C474.344 108.311 473.884 108.991 473.281 109.46C472.679 109.926 471.95 110.159 471.094 110.159ZM471.094 108.909C471.942 108.909 472.601 108.5 473.071 107.682C473.541 106.864 473.776 105.697 473.776 104.182C473.776 103.174 473.668 102.316 473.452 101.608C473.24 100.9 472.933 100.36 472.531 99.9886C472.134 99.6174 471.654 99.4318 471.094 99.4318C470.253 99.4318 469.596 99.8466 469.122 100.676C468.649 101.502 468.412 102.67 468.412 104.182C468.412 105.189 468.518 106.045 468.73 106.75C468.942 107.455 469.247 107.991 469.645 108.358C470.046 108.725 470.529 108.909 471.094 108.909ZM477.298 110V108.977L481.139 104.773C481.59 104.28 481.961 103.852 482.253 103.489C482.545 103.121 482.76 102.777 482.901 102.455C483.045 102.129 483.116 101.788 483.116 101.432C483.116 101.023 483.018 100.669 482.821 100.369C482.628 100.07 482.363 99.839 482.026 99.6761C481.688 99.5133 481.31 99.4318 480.889 99.4318C480.442 99.4318 480.052 99.5246 479.719 99.7102C479.389 99.892 479.134 100.148 478.952 100.477C478.774 100.807 478.685 101.193 478.685 101.636H477.344C477.344 100.955 477.501 100.356 477.815 99.8409C478.13 99.3258 478.558 98.9242 479.099 98.6364C479.645 98.3485 480.257 98.2045 480.935 98.2045C481.616 98.2045 482.221 98.3485 482.747 98.6364C483.274 98.9242 483.687 99.3125 483.986 99.8011C484.285 100.29 484.435 100.833 484.435 101.432C484.435 101.86 484.357 102.278 484.202 102.688C484.05 103.093 483.785 103.545 483.406 104.045C483.031 104.542 482.51 105.148 481.844 105.864L479.23 108.659V108.75H484.639V110H477.298ZM490.622 110.159C489.955 110.159 489.355 110.027 488.821 109.761C488.287 109.496 487.859 109.133 487.537 108.67C487.215 108.208 487.039 107.682 487.009 107.091H488.372C488.425 107.617 488.664 108.053 489.088 108.398C489.516 108.739 490.027 108.909 490.622 108.909C491.099 108.909 491.524 108.797 491.895 108.574C492.27 108.35 492.563 108.044 492.776 107.653C492.991 107.259 493.099 106.814 493.099 106.318C493.099 105.811 492.988 105.358 492.764 104.96C492.545 104.559 492.241 104.242 491.855 104.011C491.469 103.78 491.027 103.663 490.531 103.659C490.175 103.655 489.81 103.71 489.435 103.824C489.06 103.934 488.751 104.076 488.509 104.25L487.19 104.091L487.895 98.3636H493.94V99.6136H489.077L488.668 103.045H488.736C488.974 102.856 489.274 102.699 489.634 102.574C489.993 102.449 490.368 102.386 490.759 102.386C491.471 102.386 492.105 102.557 492.662 102.898C493.223 103.235 493.662 103.697 493.98 104.284C494.302 104.871 494.463 105.542 494.463 106.295C494.463 107.038 494.296 107.701 493.963 108.284C493.634 108.864 493.179 109.322 492.599 109.659C492.02 109.992 491.361 110.159 490.622 110.159Z" fill="#00625B"/>
<path d="M172.327 122.128C172.295 122.088 172.255 122.056 172.209 122.034C172.163 122.012 172.113 122 172.061 122C172.01 122 171.96 122.012 171.914 122.034C171.868 122.056 171.828 122.088 171.796 122.128C171.654 122.325 168.313 126.983 168.047 129.378C167.958 129.97 167.996 130.575 168.158 131.152C168.321 131.729 168.604 132.264 168.989 132.723C169.382 133.142 169.858 133.472 170.388 133.692C170.918 133.912 171.488 134.016 172.061 133.998C172.635 134.016 173.205 133.912 173.735 133.692C174.264 133.472 174.741 133.142 175.133 132.724C175.519 132.265 175.802 131.729 175.964 131.152C176.127 130.575 176.165 129.971 176.076 129.378C175.81 126.983 172.469 122.325 172.327 122.128ZM174.645 132.287C174.314 132.636 173.912 132.911 173.467 133.093C173.022 133.275 172.542 133.36 172.061 133.343C171.58 133.36 171.101 133.275 170.656 133.093C170.21 132.911 169.809 132.636 169.477 132.287C169.152 131.898 168.913 131.443 168.779 130.953C168.644 130.464 168.617 129.951 168.698 129.45C168.904 127.598 171.259 124.053 172.061 122.89C172.864 124.053 175.219 127.598 175.425 129.45C175.506 129.951 175.479 130.464 175.344 130.953C175.209 131.443 174.971 131.898 174.645 132.287Z" fill="#00625B"/>
<path d="M172.935 127.668H172.389V127.122C172.389 127.035 172.355 126.952 172.293 126.891C172.232 126.829 172.149 126.795 172.062 126.795C171.975 126.795 171.892 126.829 171.83 126.891C171.769 126.952 171.734 127.035 171.734 127.122V127.668H171.189C171.102 127.668 171.019 127.702 170.957 127.764C170.896 127.825 170.861 127.908 170.861 127.995C170.861 128.082 170.896 128.165 170.957 128.227C171.019 128.288 171.102 128.323 171.189 128.323H171.734V128.868C171.734 128.955 171.769 129.039 171.83 129.1C171.892 129.161 171.975 129.196 172.062 129.196C172.149 129.196 172.232 129.161 172.293 129.1C172.355 129.039 172.389 128.955 172.389 128.868V128.323H172.935C173.022 128.323 173.105 128.288 173.167 128.227C173.228 128.165 173.262 128.082 173.262 127.995C173.262 127.908 173.228 127.825 173.167 127.764C173.105 127.702 173.022 127.668 172.935 127.668Z" fill="#00625B"/>
<path d="M172.935 130.506H171.189C171.102 130.506 171.019 130.54 170.957 130.602C170.896 130.663 170.861 130.746 170.861 130.833C170.861 130.92 170.896 131.003 170.957 131.065C171.019 131.126 171.102 131.16 171.189 131.16H172.935C173.022 131.16 173.105 131.126 173.167 131.065C173.228 131.003 173.262 130.92 173.262 130.833C173.262 130.746 173.228 130.663 173.167 130.602C173.105 130.54 173.022 130.506 172.935 130.506Z" fill="#00625B"/>
<path d="M185.409 134V122.364H189.477C190.288 122.364 190.956 122.504 191.483 122.784C192.009 123.061 192.402 123.434 192.659 123.903C192.917 124.369 193.045 124.886 193.045 125.455C193.045 125.955 192.956 126.367 192.778 126.693C192.604 127.019 192.373 127.277 192.085 127.466C191.801 127.655 191.492 127.795 191.159 127.886V128C191.515 128.023 191.873 128.148 192.233 128.375C192.593 128.602 192.894 128.928 193.136 129.352C193.379 129.777 193.5 130.295 193.5 130.909C193.5 131.492 193.367 132.017 193.102 132.483C192.837 132.949 192.419 133.318 191.847 133.591C191.275 133.864 190.53 134 189.614 134H185.409ZM186.818 132.75H189.614C190.534 132.75 191.188 132.572 191.574 132.216C191.964 131.856 192.159 131.42 192.159 130.909C192.159 130.515 192.059 130.152 191.858 129.818C191.657 129.481 191.371 129.212 191 129.011C190.629 128.807 190.189 128.705 189.682 128.705H186.818V132.75ZM186.818 127.477H189.432C189.856 127.477 190.239 127.394 190.58 127.227C190.924 127.061 191.197 126.826 191.398 126.523C191.602 126.22 191.705 125.864 191.705 125.455C191.705 124.943 191.527 124.509 191.17 124.153C190.814 123.794 190.25 123.614 189.477 123.614H186.818V127.477ZM196.974 122.364V134H195.634V122.364H196.974ZM202.976 134.182C202.188 134.182 201.497 133.994 200.902 133.619C200.311 133.244 199.849 132.72 199.516 132.045C199.186 131.371 199.021 130.583 199.021 129.682C199.021 128.773 199.186 127.979 199.516 127.301C199.849 126.623 200.311 126.097 200.902 125.722C201.497 125.347 202.188 125.159 202.976 125.159C203.764 125.159 204.453 125.347 205.044 125.722C205.639 126.097 206.101 126.623 206.43 127.301C206.764 127.979 206.93 128.773 206.93 129.682C206.93 130.583 206.764 131.371 206.43 132.045C206.101 132.72 205.639 133.244 205.044 133.619C204.453 133.994 203.764 134.182 202.976 134.182ZM202.976 132.977C203.574 132.977 204.067 132.824 204.453 132.517C204.839 132.21 205.125 131.807 205.311 131.307C205.497 130.807 205.589 130.265 205.589 129.682C205.589 129.098 205.497 128.555 205.311 128.051C205.125 127.547 204.839 127.14 204.453 126.83C204.067 126.519 203.574 126.364 202.976 126.364C202.377 126.364 201.885 126.519 201.499 126.83C201.112 127.14 200.826 127.547 200.641 128.051C200.455 128.555 200.362 129.098 200.362 129.682C200.362 130.265 200.455 130.807 200.641 131.307C200.826 131.807 201.112 132.21 201.499 132.517C201.885 132.824 202.377 132.977 202.976 132.977ZM212.523 134.182C211.735 134.182 211.044 133.994 210.449 133.619C209.858 133.244 209.396 132.72 209.062 132.045C208.733 131.371 208.568 130.583 208.568 129.682C208.568 128.773 208.733 127.979 209.062 127.301C209.396 126.623 209.858 126.097 210.449 125.722C211.044 125.347 211.735 125.159 212.523 125.159C213.311 125.159 214 125.347 214.591 125.722C215.186 126.097 215.648 126.623 215.977 127.301C216.311 127.979 216.477 128.773 216.477 129.682C216.477 130.583 216.311 131.371 215.977 132.045C215.648 132.72 215.186 133.244 214.591 133.619C214 133.994 213.311 134.182 212.523 134.182ZM212.523 132.977C213.121 132.977 213.614 132.824 214 132.517C214.386 132.21 214.672 131.807 214.858 131.307C215.044 130.807 215.136 130.265 215.136 129.682C215.136 129.098 215.044 128.555 214.858 128.051C214.672 127.547 214.386 127.14 214 126.83C213.614 126.519 213.121 126.364 212.523 126.364C211.924 126.364 211.432 126.519 211.045 126.83C210.659 127.14 210.373 127.547 210.188 128.051C210.002 128.555 209.909 129.098 209.909 129.682C209.909 130.265 210.002 130.807 210.188 131.307C210.373 131.807 210.659 132.21 211.045 132.517C211.432 132.824 211.924 132.977 212.523 132.977ZM221.82 134.182C221.092 134.182 220.45 133.998 219.893 133.631C219.337 133.259 218.901 132.737 218.587 132.062C218.272 131.384 218.115 130.583 218.115 129.659C218.115 128.742 218.272 127.947 218.587 127.273C218.901 126.598 219.339 126.078 219.899 125.71C220.46 125.343 221.107 125.159 221.842 125.159C222.411 125.159 222.859 125.254 223.189 125.443C223.522 125.629 223.776 125.841 223.95 126.08C224.128 126.314 224.267 126.508 224.365 126.659H224.479V122.364H225.82V134H224.524V132.659H224.365C224.267 132.818 224.126 133.019 223.945 133.261C223.763 133.5 223.503 133.714 223.166 133.903C222.829 134.089 222.38 134.182 221.82 134.182ZM222.001 132.977C222.539 132.977 222.994 132.837 223.365 132.557C223.736 132.273 224.018 131.881 224.212 131.381C224.405 130.877 224.501 130.295 224.501 129.636C224.501 128.985 224.407 128.415 224.217 127.926C224.028 127.434 223.748 127.051 223.376 126.778C223.005 126.502 222.547 126.364 222.001 126.364C221.433 126.364 220.96 126.509 220.581 126.801C220.206 127.089 219.924 127.481 219.734 127.977C219.549 128.47 219.456 129.023 219.456 129.636C219.456 130.258 219.551 130.822 219.74 131.33C219.933 131.833 220.217 132.235 220.592 132.534C220.971 132.83 221.441 132.977 222.001 132.977ZM241.098 126C240.973 125.617 240.808 125.275 240.604 124.972C240.403 124.665 240.162 124.403 239.882 124.188C239.606 123.972 239.291 123.807 238.939 123.693C238.587 123.58 238.2 123.523 237.78 123.523C237.09 123.523 236.464 123.701 235.899 124.057C235.335 124.413 234.886 124.938 234.553 125.631C234.219 126.324 234.053 127.174 234.053 128.182C234.053 129.189 234.221 130.04 234.558 130.733C234.895 131.426 235.352 131.951 235.928 132.307C236.503 132.663 237.151 132.841 237.871 132.841C238.537 132.841 239.125 132.699 239.632 132.415C240.143 132.127 240.541 131.722 240.825 131.199C241.113 130.672 241.257 130.053 241.257 129.341L241.689 129.432H238.189V128.182H242.621V129.432C242.621 130.39 242.416 131.223 242.007 131.932C241.602 132.64 241.041 133.189 240.325 133.58C239.613 133.966 238.795 134.159 237.871 134.159C236.84 134.159 235.935 133.917 235.155 133.432C234.378 132.947 233.772 132.258 233.337 131.364C232.905 130.47 232.689 129.409 232.689 128.182C232.689 127.261 232.812 126.434 233.058 125.699C233.308 124.96 233.661 124.331 234.115 123.812C234.57 123.294 235.107 122.896 235.729 122.619C236.35 122.343 237.034 122.205 237.78 122.205C238.393 122.205 238.965 122.297 239.496 122.483C240.03 122.665 240.505 122.924 240.922 123.261C241.342 123.595 241.693 123.994 241.973 124.46C242.253 124.922 242.446 125.436 242.553 126H241.098ZM244.852 134V125.273H246.148V126.591H246.239C246.398 126.159 246.686 125.809 247.102 125.54C247.519 125.271 247.989 125.136 248.511 125.136C248.61 125.136 248.733 125.138 248.881 125.142C249.028 125.146 249.14 125.152 249.216 125.159V126.523C249.17 126.511 249.066 126.494 248.903 126.472C248.744 126.445 248.576 126.432 248.398 126.432C247.973 126.432 247.595 126.521 247.261 126.699C246.932 126.873 246.67 127.116 246.477 127.426C246.288 127.733 246.193 128.083 246.193 128.477V134H244.852ZM254.085 134.182C253.297 134.182 252.606 133.994 252.011 133.619C251.42 133.244 250.958 132.72 250.625 132.045C250.295 131.371 250.131 130.583 250.131 129.682C250.131 128.773 250.295 127.979 250.625 127.301C250.958 126.623 251.42 126.097 252.011 125.722C252.606 125.347 253.297 125.159 254.085 125.159C254.873 125.159 255.563 125.347 256.153 125.722C256.748 126.097 257.21 126.623 257.54 127.301C257.873 127.979 258.04 128.773 258.04 129.682C258.04 130.583 257.873 131.371 257.54 132.045C257.21 132.72 256.748 133.244 256.153 133.619C255.563 133.994 254.873 134.182 254.085 134.182ZM254.085 132.977C254.684 132.977 255.176 132.824 255.562 132.517C255.949 132.21 256.235 131.807 256.42 131.307C256.606 130.807 256.699 130.265 256.699 129.682C256.699 129.098 256.606 128.555 256.42 128.051C256.235 127.547 255.949 127.14 255.562 126.83C255.176 126.519 254.684 126.364 254.085 126.364C253.487 126.364 252.994 126.519 252.608 126.83C252.222 127.14 251.936 127.547 251.75 128.051C251.564 128.555 251.472 129.098 251.472 129.682C251.472 130.265 251.564 130.807 251.75 131.307C251.936 131.807 252.222 132.21 252.608 132.517C252.994 132.824 253.487 132.977 254.085 132.977ZM265.587 130.432V125.273H266.928V134H265.587V132.523H265.496C265.291 132.966 264.973 133.343 264.541 133.653C264.109 133.96 263.564 134.114 262.905 134.114C262.359 134.114 261.875 133.994 261.45 133.756C261.026 133.513 260.693 133.15 260.45 132.665C260.208 132.176 260.087 131.561 260.087 130.818V125.273H261.428V130.727C261.428 131.364 261.606 131.871 261.962 132.25C262.321 132.629 262.78 132.818 263.337 132.818C263.67 132.818 264.009 132.733 264.354 132.562C264.702 132.392 264.994 132.131 265.229 131.778C265.467 131.426 265.587 130.977 265.587 130.432ZM269.384 137.273V125.273H270.679V126.659H270.838C270.937 126.508 271.073 126.314 271.247 126.08C271.425 125.841 271.679 125.629 272.009 125.443C272.342 125.254 272.793 125.159 273.361 125.159C274.096 125.159 274.743 125.343 275.304 125.71C275.865 126.078 276.302 126.598 276.616 127.273C276.931 127.947 277.088 128.742 277.088 129.659C277.088 130.583 276.931 131.384 276.616 132.062C276.302 132.737 275.866 133.259 275.31 133.631C274.753 133.998 274.111 134.182 273.384 134.182C272.823 134.182 272.374 134.089 272.037 133.903C271.7 133.714 271.44 133.5 271.259 133.261C271.077 133.019 270.937 132.818 270.838 132.659H270.724V137.273H269.384ZM270.702 129.636C270.702 130.295 270.798 130.877 270.991 131.381C271.185 131.881 271.467 132.273 271.838 132.557C272.209 132.837 272.664 132.977 273.202 132.977C273.762 132.977 274.23 132.83 274.605 132.534C274.984 132.235 275.268 131.833 275.457 131.33C275.651 130.822 275.747 130.258 275.747 129.636C275.747 129.023 275.652 128.47 275.463 127.977C275.277 127.481 274.995 127.089 274.616 126.801C274.241 126.509 273.77 126.364 273.202 126.364C272.656 126.364 272.198 126.502 271.827 126.778C271.455 127.051 271.175 127.434 270.986 127.926C270.796 128.415 270.702 128.985 270.702 129.636ZM288.634 128.386V129.636H283.543V128.386H288.634Z" fill="#00625B"/>
<path d="M295.886 134H294.409L298.682 122.364H300.136L304.409 134H302.932L299.455 124.205H299.364L295.886 134ZM296.432 129.455H302.386V130.705H296.432V129.455ZM309.449 131.955V124.455H310.722V131.955H309.449ZM306.335 128.841V127.568H313.835V128.841H306.335Z" fill="#00625B"/>
<defs>
<linearGradient id="paint0_linear_938_160099" x1="102" y1="27" x2="5.5" y2="231.5" gradientUnits="userSpaceOnUse">
<stop stop-color="#003E39" stop-opacity="0.56"/>
<stop offset="0.435146" stop-color="#003E39" stop-opacity="0"/>
</linearGradient>
</defs>
</svg>
