<svg width="241" height="68" viewBox="0 0 241 68" fill="none" xmlns="http://www.w3.org/2000/svg">
<rect x="0.55" y="0.05" width="239.9" height="67.9" rx="15.95" fill="white"/>
<rect x="0.55" y="0.05" width="239.9" height="67.9" rx="15.95" stroke="#00625B" stroke-width="0.1"/>
<mask id="path-2-outside-1_977_243" maskUnits="userSpaceOnUse" x="12.5" y="24" width="15" height="20" fill="black">
<rect fill="white" x="12.5" y="24" width="15" height="20"/>
<path fill-rule="evenodd" clip-rule="evenodd" d="M13.9915 30.1504V32.9979H13.6837C13.5823 32.9979 13.5 33.0802 13.5 33.1816C13.5 36.4808 16.1792 39.16 19.4792 39.16H19.6724V39.96C19.6724 40.0614 19.7547 40.1437 19.856 40.1437H20.2432V42.3476C20.2432 42.7076 20.5356 43 20.8956 43H21.8315C22.1915 43 22.4839 42.7076 22.4839 42.3476V39.9601C22.4839 39.8029 22.6117 39.6751 22.7689 39.6751H23.7048C23.862 39.6751 23.9898 39.8029 23.9898 39.9601V42.0582C23.9898 42.1603 24.0721 42.2419 24.1735 42.2419C24.2749 42.2419 24.3572 42.1603 24.3572 42.0582V39.9601C24.3572 39.6002 24.0648 39.3078 23.7048 39.3078H22.7689C22.4089 39.3078 22.1165 39.6002 22.1165 39.9601V42.3476C22.1165 42.5048 21.9887 42.6327 21.8315 42.6327H20.8955C20.7383 42.6327 20.6105 42.5048 20.6105 42.3476V40.1437H20.9977C21.099 40.1437 21.1813 40.0614 21.1813 39.96V39.16H21.3745C24.6745 39.16 27.3537 36.4808 27.3537 33.1816C27.3537 33.0802 27.2714 32.9979 27.17 32.9979H26.8622V30.1504C27.1039 30.11 27.2883 29.8992 27.2883 29.6457V28.0986C27.2883 27.8165 27.0584 27.5865 26.7755 27.5865H26.1188C25.8359 27.5865 25.6067 27.8165 25.6067 28.0986V29.6457C25.6067 29.9286 25.8359 30.1578 26.1188 30.1578H26.4949V32.9979H26.0284C25.927 32.9979 25.8448 33.0802 25.8448 33.1816C25.8448 35.6485 23.8415 37.6512 21.3744 37.6512H19.4791C17.0122 37.6512 15.0088 35.6487 15.0088 33.1816C15.0088 33.0802 14.9265 32.9979 14.8251 32.9979H14.3586V30.1578H14.7347C15.0176 30.1578 15.2468 29.9286 15.2468 29.6457V28.0986C15.2468 27.8165 15.0176 27.5865 14.7347 27.5865H14.078C13.7951 27.5865 13.5652 27.8165 13.5652 28.0986V29.6457C13.5652 29.8992 13.7496 30.11 13.9913 30.1504H13.9915ZM26.2084 33.3652H26.9835C26.8865 36.3773 24.4107 38.7926 21.3746 38.7926H20.9977C20.8963 38.7926 20.8141 38.8749 20.8141 38.9763V39.7763H20.0398V38.9763C20.0398 38.8749 19.9575 38.7926 19.8561 38.7926H19.4792C16.4429 38.7926 13.9672 36.3771 13.8703 33.3652H14.6454C14.7424 35.9496 16.8706 38.0184 19.4792 38.0184H21.3746C23.9832 38.0184 26.1116 35.9496 26.2084 33.3652ZM18.1347 25.8213C17.5992 25.8279 17.1915 26.0476 16.9579 26.3767C16.833 26.5523 16.7566 26.7602 16.7367 26.9872C16.2724 27.2326 16.0205 27.6329 15.9962 28.0583C15.9896 28.1883 16.0036 28.3227 16.041 28.4557C15.7061 28.8039 15.5385 29.1918 15.5444 29.5665C15.5474 29.7656 15.5981 29.9624 15.7016 30.1505C15.1007 31.0189 15.0846 32.106 15.8361 32.8489C15.8221 32.9282 15.8155 33.009 15.8155 33.0906C15.8162 33.7055 16.2203 34.3578 16.9138 34.6451C17.6403 35.9351 19.6951 36.2245 20.4269 34.8868C21.1585 36.2245 23.2132 35.9351 23.9399 34.6451C24.6334 34.3578 25.0375 33.7055 25.0382 33.0906C25.0382 33.009 25.0316 32.9282 25.0176 32.8489C25.7692 32.1062 25.753 31.0182 25.1521 30.1505C25.2556 29.9624 25.3063 29.7656 25.3093 29.5665C25.3152 29.1918 25.1477 28.8039 24.8127 28.4557C24.8501 28.3227 24.8641 28.1883 24.8568 28.0583C24.8332 27.6329 24.5813 27.2326 24.117 26.9872C24.0971 26.7602 24.0207 26.5523 23.8958 26.3767C23.6622 26.0476 23.2545 25.8279 22.719 25.8213C22.2606 25.0301 21.2181 24.715 20.4268 25.3063C19.6356 24.715 18.5933 25.0301 18.1347 25.8213ZM22.8804 26.1997C22.9238 26.3466 22.9487 26.5038 22.9517 26.6698C22.9539 26.7712 22.8738 26.8557 22.7724 26.8572C22.671 26.8594 22.5866 26.7793 22.5851 26.6779C22.5623 25.6112 21.4104 24.9882 20.6104 25.6289V26.711C20.6104 26.8123 20.5281 26.8946 20.4267 26.8946C20.3254 26.8946 20.2431 26.8123 20.2431 26.711V25.6289C19.4431 24.9883 18.2911 25.6112 18.2684 26.6779C18.2669 26.7793 18.1824 26.8594 18.0811 26.8572C17.9797 26.8557 17.8996 26.7712 17.9018 26.6698C17.9047 26.5038 17.9297 26.3466 17.9731 26.1997C17.6542 26.2386 17.4067 26.3796 17.2575 26.5897C17.0709 26.852 17.0445 27.2142 17.2068 27.5932C17.2472 27.6858 17.2039 27.7945 17.1106 27.8342C17.018 27.8746 16.9093 27.8313 16.8697 27.738C16.8204 27.6241 16.7852 27.5117 16.7624 27.4022C16.5178 27.5778 16.3774 27.8188 16.3635 28.0788C16.3569 28.1956 16.3752 28.3154 16.4201 28.4329C16.4215 28.4381 16.4237 28.4425 16.4252 28.4476C16.5112 28.6658 16.6853 28.8774 16.9482 29.0566C17.0327 29.1132 17.054 29.2278 16.9975 29.3116C16.9402 29.3953 16.8263 29.4173 16.7425 29.36C16.5053 29.1992 16.3282 29.0155 16.2063 28.8223C16.0116 29.0588 15.908 29.3116 15.9117 29.5613C15.9161 29.8699 16.088 30.1645 16.4289 30.4091C16.5111 30.4679 16.5302 30.5832 16.4715 30.6655C16.412 30.7478 16.2974 30.7669 16.2151 30.7074C16.1078 30.631 16.0145 30.5494 15.9344 30.4656C15.5385 31.1114 15.5084 31.8798 15.9726 32.4535C16.0483 32.3132 16.1519 32.1839 16.2863 32.0708C16.3635 32.0054 16.4795 32.0149 16.5449 32.0928C16.6103 32.1699 16.6008 32.286 16.5229 32.3514C16.2092 32.6158 16.1254 33.0052 16.2195 33.3718C16.3679 33.9507 16.9519 34.4693 17.7997 34.4245C17.901 34.4187 17.9877 34.4965 17.9929 34.5979C17.998 34.6993 17.9209 34.786 17.8195 34.7911C17.6968 34.7977 17.5785 34.7948 17.4654 34.7823C18.2588 35.6462 19.8749 35.6918 20.2431 34.3628V33.8199C20.2431 33.7185 20.3254 33.6363 20.4268 33.6363C20.5282 33.6363 20.6105 33.7185 20.6105 33.8199V34.3628C20.9785 35.6918 22.5947 35.6462 23.3882 34.7823C23.2751 34.7948 23.1568 34.7977 23.0341 34.7911C22.9327 34.786 22.8556 34.6993 22.8607 34.5979C22.8659 34.4965 22.9525 34.4187 23.0539 34.4245C23.9017 34.4693 24.4857 33.9507 24.6341 33.3718C24.7281 33.0052 24.6444 32.6159 24.3307 32.3514C24.2528 32.286 24.2433 32.1699 24.3087 32.0928C24.374 32.0149 24.4901 32.0054 24.5673 32.0708C24.7017 32.1839 24.8053 32.3132 24.8809 32.4535C25.3452 31.8798 25.3151 31.1113 24.9191 30.4656C24.8391 30.5494 24.7458 30.6309 24.6385 30.7074C24.5562 30.7669 24.4416 30.7478 24.3821 30.6655C24.3234 30.5832 24.3425 30.4679 24.4247 30.4091C24.7656 30.1645 24.9375 29.8699 24.9419 29.5613C24.9456 29.3116 24.842 29.0588 24.6473 28.8223C24.5254 29.0155 24.3483 29.1991 24.111 29.36C24.0273 29.4173 23.9134 29.3953 23.8561 29.3116C23.7995 29.2278 23.8209 29.1132 23.9053 29.0566C24.1683 28.8774 24.3424 28.6658 24.4284 28.4476C24.4299 28.4425 24.4321 28.4381 24.4335 28.4329C24.4783 28.3154 24.4967 28.1956 24.4901 28.0788C24.4761 27.8188 24.3358 27.5778 24.0912 27.4022C24.0684 27.5117 24.0332 27.6241 23.9839 27.738C23.9443 27.8313 23.8355 27.8746 23.743 27.8342C23.6497 27.7945 23.6063 27.6858 23.6467 27.5932C23.8091 27.2142 23.7827 26.852 23.5961 26.5897C23.4469 26.3796 23.1992 26.2386 22.8804 26.1997ZM19.5033 33.8355C19.1889 33.7782 18.9795 33.477 19.0368 33.1619C19.0941 32.8474 19.3961 32.6388 19.7105 32.6961C19.8096 32.7137 19.9059 32.6476 19.9235 32.5477C19.9419 32.4478 19.8758 32.3523 19.7758 32.3347C19.2616 32.2406 18.7687 32.5822 18.6754 33.0965C18.5821 33.6107 18.9237 34.1037 19.4379 34.197C19.5371 34.2153 19.6333 34.1485 19.6509 34.0493C19.6693 33.9494 19.6032 33.8539 19.5033 33.8355ZM22.414 33.2361C22.6851 32.9451 22.7527 32.5022 22.5506 32.1348C22.2987 31.6772 21.7227 31.5097 21.265 31.7616C21.1762 31.8101 21.1438 31.9218 21.1931 32.0107C21.2415 32.0996 21.3532 32.1319 21.4421 32.0834C21.7227 31.9291 22.0746 32.032 22.2289 32.3119C22.3523 32.5367 22.3112 32.8077 22.1451 32.9863C22.0761 33.0604 22.0805 33.1765 22.1547 33.2456C22.2281 33.3146 22.3449 33.3103 22.414 33.2361ZM18.0106 31.9527C17.8593 31.8344 17.7689 31.6441 17.7888 31.4391C17.8189 31.121 18.1017 30.8874 18.4198 30.9176C18.5212 30.9271 18.6108 30.8529 18.6204 30.7523C18.6299 30.6509 18.5557 30.5613 18.4551 30.5517C17.935 30.5025 17.4721 30.8845 17.4229 31.4046C17.3906 31.7396 17.5383 32.0504 17.7858 32.2428C17.8659 32.3045 17.9812 32.2899 18.0437 32.2098C18.1054 32.1297 18.0914 32.0144 18.0106 31.9527ZM20.5098 30.728C20.2292 30.5738 20.1271 30.2219 20.2814 29.9412C20.36 29.7972 20.4915 29.7003 20.6384 29.6613C20.7368 29.6349 20.7949 29.5342 20.7684 29.4358C20.742 29.3381 20.6413 29.2801 20.5436 29.3065C20.3034 29.3712 20.0889 29.5291 19.9596 29.7642C19.7076 30.2219 19.8751 30.7978 20.3328 31.0498C20.4217 31.099 20.5333 31.0659 20.5818 30.9778C20.6311 30.8889 20.5987 30.7772 20.5098 30.728ZM22.6602 30.7728C22.9989 30.739 23.3074 30.5238 23.444 30.1866C23.6402 29.7025 23.4066 29.15 22.9225 28.9539C22.8284 28.9157 22.7212 28.9612 22.6837 29.0553C22.6455 29.1493 22.6911 29.2565 22.7844 29.294C23.0811 29.4145 23.2237 29.7524 23.1039 30.0485C23.0202 30.2549 22.8306 30.3871 22.6235 30.4077C22.5228 30.418 22.4494 30.5076 22.4589 30.6083C22.4692 30.7097 22.5595 30.7831 22.6602 30.7728ZM14.8797 28.0987V29.6459C14.8797 29.7259 14.8151 29.7906 14.735 29.7906H14.0782C13.9981 29.7906 13.9328 29.7259 13.9328 29.6459V28.0987C13.9328 28.0194 13.9981 27.954 14.0782 27.954H14.735C14.8151 27.954 14.8797 28.0194 14.8797 28.0987ZM26.921 28.0987V29.6459C26.921 29.7259 26.8556 29.7906 26.7756 29.7906H26.1188C26.0387 29.7906 25.9741 29.7259 25.9741 29.6459V28.0987C25.9741 28.0194 26.0387 27.954 26.1188 27.954H26.7756C26.8556 27.954 26.921 28.0194 26.921 28.0987ZM18.7975 29.3094C18.5169 29.1559 18.4133 28.804 18.5668 28.5233C18.666 28.3419 18.8474 28.2346 19.0399 28.2229C19.1406 28.2163 19.2177 28.1288 19.2111 28.0282C19.2052 27.9268 19.1178 27.8497 19.0164 27.8563C18.7027 27.8761 18.4059 28.0517 18.2443 28.347C17.9938 28.8062 18.1627 29.3814 18.6212 29.6319C18.7108 29.6804 18.8224 29.6473 18.8709 29.5584C18.9194 29.4695 18.8864 29.3579 18.7975 29.3094ZM21.9711 28.7841C22.4295 28.5336 22.5985 27.9584 22.348 27.5C22.1878 27.2061 21.894 27.0306 21.5825 27.0093C21.4811 27.0019 21.3937 27.0783 21.3863 27.1797C21.3797 27.2803 21.4561 27.3685 21.5568 27.3751C21.7478 27.3891 21.9278 27.4956 22.0255 27.6756C22.179 27.9562 22.0754 28.3088 21.7948 28.4616C21.7059 28.5101 21.6736 28.6218 21.7221 28.7107C21.7705 28.7996 21.8822 28.8326 21.9711 28.7841Z"/>
</mask>
<path fill-rule="evenodd" clip-rule="evenodd" d="M13.9915 30.1504V32.9979H13.6837C13.5823 32.9979 13.5 33.0802 13.5 33.1816C13.5 36.4808 16.1792 39.16 19.4792 39.16H19.6724V39.96C19.6724 40.0614 19.7547 40.1437 19.856 40.1437H20.2432V42.3476C20.2432 42.7076 20.5356 43 20.8956 43H21.8315C22.1915 43 22.4839 42.7076 22.4839 42.3476V39.9601C22.4839 39.8029 22.6117 39.6751 22.7689 39.6751H23.7048C23.862 39.6751 23.9898 39.8029 23.9898 39.9601V42.0582C23.9898 42.1603 24.0721 42.2419 24.1735 42.2419C24.2749 42.2419 24.3572 42.1603 24.3572 42.0582V39.9601C24.3572 39.6002 24.0648 39.3078 23.7048 39.3078H22.7689C22.4089 39.3078 22.1165 39.6002 22.1165 39.9601V42.3476C22.1165 42.5048 21.9887 42.6327 21.8315 42.6327H20.8955C20.7383 42.6327 20.6105 42.5048 20.6105 42.3476V40.1437H20.9977C21.099 40.1437 21.1813 40.0614 21.1813 39.96V39.16H21.3745C24.6745 39.16 27.3537 36.4808 27.3537 33.1816C27.3537 33.0802 27.2714 32.9979 27.17 32.9979H26.8622V30.1504C27.1039 30.11 27.2883 29.8992 27.2883 29.6457V28.0986C27.2883 27.8165 27.0584 27.5865 26.7755 27.5865H26.1188C25.8359 27.5865 25.6067 27.8165 25.6067 28.0986V29.6457C25.6067 29.9286 25.8359 30.1578 26.1188 30.1578H26.4949V32.9979H26.0284C25.927 32.9979 25.8448 33.0802 25.8448 33.1816C25.8448 35.6485 23.8415 37.6512 21.3744 37.6512H19.4791C17.0122 37.6512 15.0088 35.6487 15.0088 33.1816C15.0088 33.0802 14.9265 32.9979 14.8251 32.9979H14.3586V30.1578H14.7347C15.0176 30.1578 15.2468 29.9286 15.2468 29.6457V28.0986C15.2468 27.8165 15.0176 27.5865 14.7347 27.5865H14.078C13.7951 27.5865 13.5652 27.8165 13.5652 28.0986V29.6457C13.5652 29.8992 13.7496 30.11 13.9913 30.1504H13.9915ZM26.2084 33.3652H26.9835C26.8865 36.3773 24.4107 38.7926 21.3746 38.7926H20.9977C20.8963 38.7926 20.8141 38.8749 20.8141 38.9763V39.7763H20.0398V38.9763C20.0398 38.8749 19.9575 38.7926 19.8561 38.7926H19.4792C16.4429 38.7926 13.9672 36.3771 13.8703 33.3652H14.6454C14.7424 35.9496 16.8706 38.0184 19.4792 38.0184H21.3746C23.9832 38.0184 26.1116 35.9496 26.2084 33.3652ZM18.1347 25.8213C17.5992 25.8279 17.1915 26.0476 16.9579 26.3767C16.833 26.5523 16.7566 26.7602 16.7367 26.9872C16.2724 27.2326 16.0205 27.6329 15.9962 28.0583C15.9896 28.1883 16.0036 28.3227 16.041 28.4557C15.7061 28.8039 15.5385 29.1918 15.5444 29.5665C15.5474 29.7656 15.5981 29.9624 15.7016 30.1505C15.1007 31.0189 15.0846 32.106 15.8361 32.8489C15.8221 32.9282 15.8155 33.009 15.8155 33.0906C15.8162 33.7055 16.2203 34.3578 16.9138 34.6451C17.6403 35.9351 19.6951 36.2245 20.4269 34.8868C21.1585 36.2245 23.2132 35.9351 23.9399 34.6451C24.6334 34.3578 25.0375 33.7055 25.0382 33.0906C25.0382 33.009 25.0316 32.9282 25.0176 32.8489C25.7692 32.1062 25.753 31.0182 25.1521 30.1505C25.2556 29.9624 25.3063 29.7656 25.3093 29.5665C25.3152 29.1918 25.1477 28.8039 24.8127 28.4557C24.8501 28.3227 24.8641 28.1883 24.8568 28.0583C24.8332 27.6329 24.5813 27.2326 24.117 26.9872C24.0971 26.7602 24.0207 26.5523 23.8958 26.3767C23.6622 26.0476 23.2545 25.8279 22.719 25.8213C22.2606 25.0301 21.2181 24.715 20.4268 25.3063C19.6356 24.715 18.5933 25.0301 18.1347 25.8213ZM22.8804 26.1997C22.9238 26.3466 22.9487 26.5038 22.9517 26.6698C22.9539 26.7712 22.8738 26.8557 22.7724 26.8572C22.671 26.8594 22.5866 26.7793 22.5851 26.6779C22.5623 25.6112 21.4104 24.9882 20.6104 25.6289V26.711C20.6104 26.8123 20.5281 26.8946 20.4267 26.8946C20.3254 26.8946 20.2431 26.8123 20.2431 26.711V25.6289C19.4431 24.9883 18.2911 25.6112 18.2684 26.6779C18.2669 26.7793 18.1824 26.8594 18.0811 26.8572C17.9797 26.8557 17.8996 26.7712 17.9018 26.6698C17.9047 26.5038 17.9297 26.3466 17.9731 26.1997C17.6542 26.2386 17.4067 26.3796 17.2575 26.5897C17.0709 26.852 17.0445 27.2142 17.2068 27.5932C17.2472 27.6858 17.2039 27.7945 17.1106 27.8342C17.018 27.8746 16.9093 27.8313 16.8697 27.738C16.8204 27.6241 16.7852 27.5117 16.7624 27.4022C16.5178 27.5778 16.3774 27.8188 16.3635 28.0788C16.3569 28.1956 16.3752 28.3154 16.4201 28.4329C16.4215 28.4381 16.4237 28.4425 16.4252 28.4476C16.5112 28.6658 16.6853 28.8774 16.9482 29.0566C17.0327 29.1132 17.054 29.2278 16.9975 29.3116C16.9402 29.3953 16.8263 29.4173 16.7425 29.36C16.5053 29.1992 16.3282 29.0155 16.2063 28.8223C16.0116 29.0588 15.908 29.3116 15.9117 29.5613C15.9161 29.8699 16.088 30.1645 16.4289 30.4091C16.5111 30.4679 16.5302 30.5832 16.4715 30.6655C16.412 30.7478 16.2974 30.7669 16.2151 30.7074C16.1078 30.631 16.0145 30.5494 15.9344 30.4656C15.5385 31.1114 15.5084 31.8798 15.9726 32.4535C16.0483 32.3132 16.1519 32.1839 16.2863 32.0708C16.3635 32.0054 16.4795 32.0149 16.5449 32.0928C16.6103 32.1699 16.6008 32.286 16.5229 32.3514C16.2092 32.6158 16.1254 33.0052 16.2195 33.3718C16.3679 33.9507 16.9519 34.4693 17.7997 34.4245C17.901 34.4187 17.9877 34.4965 17.9929 34.5979C17.998 34.6993 17.9209 34.786 17.8195 34.7911C17.6968 34.7977 17.5785 34.7948 17.4654 34.7823C18.2588 35.6462 19.8749 35.6918 20.2431 34.3628V33.8199C20.2431 33.7185 20.3254 33.6363 20.4268 33.6363C20.5282 33.6363 20.6105 33.7185 20.6105 33.8199V34.3628C20.9785 35.6918 22.5947 35.6462 23.3882 34.7823C23.2751 34.7948 23.1568 34.7977 23.0341 34.7911C22.9327 34.786 22.8556 34.6993 22.8607 34.5979C22.8659 34.4965 22.9525 34.4187 23.0539 34.4245C23.9017 34.4693 24.4857 33.9507 24.6341 33.3718C24.7281 33.0052 24.6444 32.6159 24.3307 32.3514C24.2528 32.286 24.2433 32.1699 24.3087 32.0928C24.374 32.0149 24.4901 32.0054 24.5673 32.0708C24.7017 32.1839 24.8053 32.3132 24.8809 32.4535C25.3452 31.8798 25.3151 31.1113 24.9191 30.4656C24.8391 30.5494 24.7458 30.6309 24.6385 30.7074C24.5562 30.7669 24.4416 30.7478 24.3821 30.6655C24.3234 30.5832 24.3425 30.4679 24.4247 30.4091C24.7656 30.1645 24.9375 29.8699 24.9419 29.5613C24.9456 29.3116 24.842 29.0588 24.6473 28.8223C24.5254 29.0155 24.3483 29.1991 24.111 29.36C24.0273 29.4173 23.9134 29.3953 23.8561 29.3116C23.7995 29.2278 23.8209 29.1132 23.9053 29.0566C24.1683 28.8774 24.3424 28.6658 24.4284 28.4476C24.4299 28.4425 24.4321 28.4381 24.4335 28.4329C24.4783 28.3154 24.4967 28.1956 24.4901 28.0788C24.4761 27.8188 24.3358 27.5778 24.0912 27.4022C24.0684 27.5117 24.0332 27.6241 23.9839 27.738C23.9443 27.8313 23.8355 27.8746 23.743 27.8342C23.6497 27.7945 23.6063 27.6858 23.6467 27.5932C23.8091 27.2142 23.7827 26.852 23.5961 26.5897C23.4469 26.3796 23.1992 26.2386 22.8804 26.1997ZM19.5033 33.8355C19.1889 33.7782 18.9795 33.477 19.0368 33.1619C19.0941 32.8474 19.3961 32.6388 19.7105 32.6961C19.8096 32.7137 19.9059 32.6476 19.9235 32.5477C19.9419 32.4478 19.8758 32.3523 19.7758 32.3347C19.2616 32.2406 18.7687 32.5822 18.6754 33.0965C18.5821 33.6107 18.9237 34.1037 19.4379 34.197C19.5371 34.2153 19.6333 34.1485 19.6509 34.0493C19.6693 33.9494 19.6032 33.8539 19.5033 33.8355ZM22.414 33.2361C22.6851 32.9451 22.7527 32.5022 22.5506 32.1348C22.2987 31.6772 21.7227 31.5097 21.265 31.7616C21.1762 31.8101 21.1438 31.9218 21.1931 32.0107C21.2415 32.0996 21.3532 32.1319 21.4421 32.0834C21.7227 31.9291 22.0746 32.032 22.2289 32.3119C22.3523 32.5367 22.3112 32.8077 22.1451 32.9863C22.0761 33.0604 22.0805 33.1765 22.1547 33.2456C22.2281 33.3146 22.3449 33.3103 22.414 33.2361ZM18.0106 31.9527C17.8593 31.8344 17.7689 31.6441 17.7888 31.4391C17.8189 31.121 18.1017 30.8874 18.4198 30.9176C18.5212 30.9271 18.6108 30.8529 18.6204 30.7523C18.6299 30.6509 18.5557 30.5613 18.4551 30.5517C17.935 30.5025 17.4721 30.8845 17.4229 31.4046C17.3906 31.7396 17.5383 32.0504 17.7858 32.2428C17.8659 32.3045 17.9812 32.2899 18.0437 32.2098C18.1054 32.1297 18.0914 32.0144 18.0106 31.9527ZM20.5098 30.728C20.2292 30.5738 20.1271 30.2219 20.2814 29.9412C20.36 29.7972 20.4915 29.7003 20.6384 29.6613C20.7368 29.6349 20.7949 29.5342 20.7684 29.4358C20.742 29.3381 20.6413 29.2801 20.5436 29.3065C20.3034 29.3712 20.0889 29.5291 19.9596 29.7642C19.7076 30.2219 19.8751 30.7978 20.3328 31.0498C20.4217 31.099 20.5333 31.0659 20.5818 30.9778C20.6311 30.8889 20.5987 30.7772 20.5098 30.728ZM22.6602 30.7728C22.9989 30.739 23.3074 30.5238 23.444 30.1866C23.6402 29.7025 23.4066 29.15 22.9225 28.9539C22.8284 28.9157 22.7212 28.9612 22.6837 29.0553C22.6455 29.1493 22.6911 29.2565 22.7844 29.294C23.0811 29.4145 23.2237 29.7524 23.1039 30.0485C23.0202 30.2549 22.8306 30.3871 22.6235 30.4077C22.5228 30.418 22.4494 30.5076 22.4589 30.6083C22.4692 30.7097 22.5595 30.7831 22.6602 30.7728ZM14.8797 28.0987V29.6459C14.8797 29.7259 14.8151 29.7906 14.735 29.7906H14.0782C13.9981 29.7906 13.9328 29.7259 13.9328 29.6459V28.0987C13.9328 28.0194 13.9981 27.954 14.0782 27.954H14.735C14.8151 27.954 14.8797 28.0194 14.8797 28.0987ZM26.921 28.0987V29.6459C26.921 29.7259 26.8556 29.7906 26.7756 29.7906H26.1188C26.0387 29.7906 25.9741 29.7259 25.9741 29.6459V28.0987C25.9741 28.0194 26.0387 27.954 26.1188 27.954H26.7756C26.8556 27.954 26.921 28.0194 26.921 28.0987ZM18.7975 29.3094C18.5169 29.1559 18.4133 28.804 18.5668 28.5233C18.666 28.3419 18.8474 28.2346 19.0399 28.2229C19.1406 28.2163 19.2177 28.1288 19.2111 28.0282C19.2052 27.9268 19.1178 27.8497 19.0164 27.8563C18.7027 27.8761 18.4059 28.0517 18.2443 28.347C17.9938 28.8062 18.1627 29.3814 18.6212 29.6319C18.7108 29.6804 18.8224 29.6473 18.8709 29.5584C18.9194 29.4695 18.8864 29.3579 18.7975 29.3094ZM21.9711 28.7841C22.4295 28.5336 22.5985 27.9584 22.348 27.5C22.1878 27.2061 21.894 27.0306 21.5825 27.0093C21.4811 27.0019 21.3937 27.0783 21.3863 27.1797C21.3797 27.2803 21.4561 27.3685 21.5568 27.3751C21.7478 27.3891 21.9278 27.4956 22.0255 27.6756C22.179 27.9562 22.0754 28.3088 21.7948 28.4616C21.7059 28.5101 21.6736 28.6218 21.7221 28.7107C21.7705 28.7996 21.8822 28.8326 21.9711 28.7841Z" fill="#00625B"/>
<path fill-rule="evenodd" clip-rule="evenodd" d="M13.9915 30.1504V32.9979H13.6837C13.5823 32.9979 13.5 33.0802 13.5 33.1816C13.5 36.4808 16.1792 39.16 19.4792 39.16H19.6724V39.96C19.6724 40.0614 19.7547 40.1437 19.856 40.1437H20.2432V42.3476C20.2432 42.7076 20.5356 43 20.8956 43H21.8315C22.1915 43 22.4839 42.7076 22.4839 42.3476V39.9601C22.4839 39.8029 22.6117 39.6751 22.7689 39.6751H23.7048C23.862 39.6751 23.9898 39.8029 23.9898 39.9601V42.0582C23.9898 42.1603 24.0721 42.2419 24.1735 42.2419C24.2749 42.2419 24.3572 42.1603 24.3572 42.0582V39.9601C24.3572 39.6002 24.0648 39.3078 23.7048 39.3078H22.7689C22.4089 39.3078 22.1165 39.6002 22.1165 39.9601V42.3476C22.1165 42.5048 21.9887 42.6327 21.8315 42.6327H20.8955C20.7383 42.6327 20.6105 42.5048 20.6105 42.3476V40.1437H20.9977C21.099 40.1437 21.1813 40.0614 21.1813 39.96V39.16H21.3745C24.6745 39.16 27.3537 36.4808 27.3537 33.1816C27.3537 33.0802 27.2714 32.9979 27.17 32.9979H26.8622V30.1504C27.1039 30.11 27.2883 29.8992 27.2883 29.6457V28.0986C27.2883 27.8165 27.0584 27.5865 26.7755 27.5865H26.1188C25.8359 27.5865 25.6067 27.8165 25.6067 28.0986V29.6457C25.6067 29.9286 25.8359 30.1578 26.1188 30.1578H26.4949V32.9979H26.0284C25.927 32.9979 25.8448 33.0802 25.8448 33.1816C25.8448 35.6485 23.8415 37.6512 21.3744 37.6512H19.4791C17.0122 37.6512 15.0088 35.6487 15.0088 33.1816C15.0088 33.0802 14.9265 32.9979 14.8251 32.9979H14.3586V30.1578H14.7347C15.0176 30.1578 15.2468 29.9286 15.2468 29.6457V28.0986C15.2468 27.8165 15.0176 27.5865 14.7347 27.5865H14.078C13.7951 27.5865 13.5652 27.8165 13.5652 28.0986V29.6457C13.5652 29.8992 13.7496 30.11 13.9913 30.1504H13.9915ZM26.2084 33.3652H26.9835C26.8865 36.3773 24.4107 38.7926 21.3746 38.7926H20.9977C20.8963 38.7926 20.8141 38.8749 20.8141 38.9763V39.7763H20.0398V38.9763C20.0398 38.8749 19.9575 38.7926 19.8561 38.7926H19.4792C16.4429 38.7926 13.9672 36.3771 13.8703 33.3652H14.6454C14.7424 35.9496 16.8706 38.0184 19.4792 38.0184H21.3746C23.9832 38.0184 26.1116 35.9496 26.2084 33.3652ZM18.1347 25.8213C17.5992 25.8279 17.1915 26.0476 16.9579 26.3767C16.833 26.5523 16.7566 26.7602 16.7367 26.9872C16.2724 27.2326 16.0205 27.6329 15.9962 28.0583C15.9896 28.1883 16.0036 28.3227 16.041 28.4557C15.7061 28.8039 15.5385 29.1918 15.5444 29.5665C15.5474 29.7656 15.5981 29.9624 15.7016 30.1505C15.1007 31.0189 15.0846 32.106 15.8361 32.8489C15.8221 32.9282 15.8155 33.009 15.8155 33.0906C15.8162 33.7055 16.2203 34.3578 16.9138 34.6451C17.6403 35.9351 19.6951 36.2245 20.4269 34.8868C21.1585 36.2245 23.2132 35.9351 23.9399 34.6451C24.6334 34.3578 25.0375 33.7055 25.0382 33.0906C25.0382 33.009 25.0316 32.9282 25.0176 32.8489C25.7692 32.1062 25.753 31.0182 25.1521 30.1505C25.2556 29.9624 25.3063 29.7656 25.3093 29.5665C25.3152 29.1918 25.1477 28.8039 24.8127 28.4557C24.8501 28.3227 24.8641 28.1883 24.8568 28.0583C24.8332 27.6329 24.5813 27.2326 24.117 26.9872C24.0971 26.7602 24.0207 26.5523 23.8958 26.3767C23.6622 26.0476 23.2545 25.8279 22.719 25.8213C22.2606 25.0301 21.2181 24.715 20.4268 25.3063C19.6356 24.715 18.5933 25.0301 18.1347 25.8213ZM22.8804 26.1997C22.9238 26.3466 22.9487 26.5038 22.9517 26.6698C22.9539 26.7712 22.8738 26.8557 22.7724 26.8572C22.671 26.8594 22.5866 26.7793 22.5851 26.6779C22.5623 25.6112 21.4104 24.9882 20.6104 25.6289V26.711C20.6104 26.8123 20.5281 26.8946 20.4267 26.8946C20.3254 26.8946 20.2431 26.8123 20.2431 26.711V25.6289C19.4431 24.9883 18.2911 25.6112 18.2684 26.6779C18.2669 26.7793 18.1824 26.8594 18.0811 26.8572C17.9797 26.8557 17.8996 26.7712 17.9018 26.6698C17.9047 26.5038 17.9297 26.3466 17.9731 26.1997C17.6542 26.2386 17.4067 26.3796 17.2575 26.5897C17.0709 26.852 17.0445 27.2142 17.2068 27.5932C17.2472 27.6858 17.2039 27.7945 17.1106 27.8342C17.018 27.8746 16.9093 27.8313 16.8697 27.738C16.8204 27.6241 16.7852 27.5117 16.7624 27.4022C16.5178 27.5778 16.3774 27.8188 16.3635 28.0788C16.3569 28.1956 16.3752 28.3154 16.4201 28.4329C16.4215 28.4381 16.4237 28.4425 16.4252 28.4476C16.5112 28.6658 16.6853 28.8774 16.9482 29.0566C17.0327 29.1132 17.054 29.2278 16.9975 29.3116C16.9402 29.3953 16.8263 29.4173 16.7425 29.36C16.5053 29.1992 16.3282 29.0155 16.2063 28.8223C16.0116 29.0588 15.908 29.3116 15.9117 29.5613C15.9161 29.8699 16.088 30.1645 16.4289 30.4091C16.5111 30.4679 16.5302 30.5832 16.4715 30.6655C16.412 30.7478 16.2974 30.7669 16.2151 30.7074C16.1078 30.631 16.0145 30.5494 15.9344 30.4656C15.5385 31.1114 15.5084 31.8798 15.9726 32.4535C16.0483 32.3132 16.1519 32.1839 16.2863 32.0708C16.3635 32.0054 16.4795 32.0149 16.5449 32.0928C16.6103 32.1699 16.6008 32.286 16.5229 32.3514C16.2092 32.6158 16.1254 33.0052 16.2195 33.3718C16.3679 33.9507 16.9519 34.4693 17.7997 34.4245C17.901 34.4187 17.9877 34.4965 17.9929 34.5979C17.998 34.6993 17.9209 34.786 17.8195 34.7911C17.6968 34.7977 17.5785 34.7948 17.4654 34.7823C18.2588 35.6462 19.8749 35.6918 20.2431 34.3628V33.8199C20.2431 33.7185 20.3254 33.6363 20.4268 33.6363C20.5282 33.6363 20.6105 33.7185 20.6105 33.8199V34.3628C20.9785 35.6918 22.5947 35.6462 23.3882 34.7823C23.2751 34.7948 23.1568 34.7977 23.0341 34.7911C22.9327 34.786 22.8556 34.6993 22.8607 34.5979C22.8659 34.4965 22.9525 34.4187 23.0539 34.4245C23.9017 34.4693 24.4857 33.9507 24.6341 33.3718C24.7281 33.0052 24.6444 32.6159 24.3307 32.3514C24.2528 32.286 24.2433 32.1699 24.3087 32.0928C24.374 32.0149 24.4901 32.0054 24.5673 32.0708C24.7017 32.1839 24.8053 32.3132 24.8809 32.4535C25.3452 31.8798 25.3151 31.1113 24.9191 30.4656C24.8391 30.5494 24.7458 30.6309 24.6385 30.7074C24.5562 30.7669 24.4416 30.7478 24.3821 30.6655C24.3234 30.5832 24.3425 30.4679 24.4247 30.4091C24.7656 30.1645 24.9375 29.8699 24.9419 29.5613C24.9456 29.3116 24.842 29.0588 24.6473 28.8223C24.5254 29.0155 24.3483 29.1991 24.111 29.36C24.0273 29.4173 23.9134 29.3953 23.8561 29.3116C23.7995 29.2278 23.8209 29.1132 23.9053 29.0566C24.1683 28.8774 24.3424 28.6658 24.4284 28.4476C24.4299 28.4425 24.4321 28.4381 24.4335 28.4329C24.4783 28.3154 24.4967 28.1956 24.4901 28.0788C24.4761 27.8188 24.3358 27.5778 24.0912 27.4022C24.0684 27.5117 24.0332 27.6241 23.9839 27.738C23.9443 27.8313 23.8355 27.8746 23.743 27.8342C23.6497 27.7945 23.6063 27.6858 23.6467 27.5932C23.8091 27.2142 23.7827 26.852 23.5961 26.5897C23.4469 26.3796 23.1992 26.2386 22.8804 26.1997ZM19.5033 33.8355C19.1889 33.7782 18.9795 33.477 19.0368 33.1619C19.0941 32.8474 19.3961 32.6388 19.7105 32.6961C19.8096 32.7137 19.9059 32.6476 19.9235 32.5477C19.9419 32.4478 19.8758 32.3523 19.7758 32.3347C19.2616 32.2406 18.7687 32.5822 18.6754 33.0965C18.5821 33.6107 18.9237 34.1037 19.4379 34.197C19.5371 34.2153 19.6333 34.1485 19.6509 34.0493C19.6693 33.9494 19.6032 33.8539 19.5033 33.8355ZM22.414 33.2361C22.6851 32.9451 22.7527 32.5022 22.5506 32.1348C22.2987 31.6772 21.7227 31.5097 21.265 31.7616C21.1762 31.8101 21.1438 31.9218 21.1931 32.0107C21.2415 32.0996 21.3532 32.1319 21.4421 32.0834C21.7227 31.9291 22.0746 32.032 22.2289 32.3119C22.3523 32.5367 22.3112 32.8077 22.1451 32.9863C22.0761 33.0604 22.0805 33.1765 22.1547 33.2456C22.2281 33.3146 22.3449 33.3103 22.414 33.2361ZM18.0106 31.9527C17.8593 31.8344 17.7689 31.6441 17.7888 31.4391C17.8189 31.121 18.1017 30.8874 18.4198 30.9176C18.5212 30.9271 18.6108 30.8529 18.6204 30.7523C18.6299 30.6509 18.5557 30.5613 18.4551 30.5517C17.935 30.5025 17.4721 30.8845 17.4229 31.4046C17.3906 31.7396 17.5383 32.0504 17.7858 32.2428C17.8659 32.3045 17.9812 32.2899 18.0437 32.2098C18.1054 32.1297 18.0914 32.0144 18.0106 31.9527ZM20.5098 30.728C20.2292 30.5738 20.1271 30.2219 20.2814 29.9412C20.36 29.7972 20.4915 29.7003 20.6384 29.6613C20.7368 29.6349 20.7949 29.5342 20.7684 29.4358C20.742 29.3381 20.6413 29.2801 20.5436 29.3065C20.3034 29.3712 20.0889 29.5291 19.9596 29.7642C19.7076 30.2219 19.8751 30.7978 20.3328 31.0498C20.4217 31.099 20.5333 31.0659 20.5818 30.9778C20.6311 30.8889 20.5987 30.7772 20.5098 30.728ZM22.6602 30.7728C22.9989 30.739 23.3074 30.5238 23.444 30.1866C23.6402 29.7025 23.4066 29.15 22.9225 28.9539C22.8284 28.9157 22.7212 28.9612 22.6837 29.0553C22.6455 29.1493 22.6911 29.2565 22.7844 29.294C23.0811 29.4145 23.2237 29.7524 23.1039 30.0485C23.0202 30.2549 22.8306 30.3871 22.6235 30.4077C22.5228 30.418 22.4494 30.5076 22.4589 30.6083C22.4692 30.7097 22.5595 30.7831 22.6602 30.7728ZM14.8797 28.0987V29.6459C14.8797 29.7259 14.8151 29.7906 14.735 29.7906H14.0782C13.9981 29.7906 13.9328 29.7259 13.9328 29.6459V28.0987C13.9328 28.0194 13.9981 27.954 14.0782 27.954H14.735C14.8151 27.954 14.8797 28.0194 14.8797 28.0987ZM26.921 28.0987V29.6459C26.921 29.7259 26.8556 29.7906 26.7756 29.7906H26.1188C26.0387 29.7906 25.9741 29.7259 25.9741 29.6459V28.0987C25.9741 28.0194 26.0387 27.954 26.1188 27.954H26.7756C26.8556 27.954 26.921 28.0194 26.921 28.0987ZM18.7975 29.3094C18.5169 29.1559 18.4133 28.804 18.5668 28.5233C18.666 28.3419 18.8474 28.2346 19.0399 28.2229C19.1406 28.2163 19.2177 28.1288 19.2111 28.0282C19.2052 27.9268 19.1178 27.8497 19.0164 27.8563C18.7027 27.8761 18.4059 28.0517 18.2443 28.347C17.9938 28.8062 18.1627 29.3814 18.6212 29.6319C18.7108 29.6804 18.8224 29.6473 18.8709 29.5584C18.9194 29.4695 18.8864 29.3579 18.7975 29.3094ZM21.9711 28.7841C22.4295 28.5336 22.5985 27.9584 22.348 27.5C22.1878 27.2061 21.894 27.0306 21.5825 27.0093C21.4811 27.0019 21.3937 27.0783 21.3863 27.1797C21.3797 27.2803 21.4561 27.3685 21.5568 27.3751C21.7478 27.3891 21.9278 27.4956 22.0255 27.6756C22.179 27.9562 22.0754 28.3088 21.7948 28.4616C21.7059 28.5101 21.6736 28.6218 21.7221 28.7107C21.7705 28.7996 21.8822 28.8326 21.9711 28.7841Z" stroke="#00625B" stroke-width="0.2" mask="url(#path-2-outside-1_977_243)"/>
<path d="M40.85 21.4C40.85 20.9667 40.9267 20.5433 41.08 20.13C41.2333 19.71 41.4567 19.33 41.75 18.99C42.05 18.6433 42.4133 18.37 42.84 18.17C43.2667 17.9633 43.75 17.86 44.29 17.86C44.93 17.86 45.4833 18.0067 45.95 18.3C46.4167 18.5867 46.7633 18.9567 46.99 19.41L46.11 20C45.9767 19.7133 45.8067 19.4867 45.6 19.32C45.4 19.1533 45.18 19.0367 44.94 18.97C44.7067 18.9033 44.4767 18.87 44.25 18.87C43.8767 18.87 43.55 18.9467 43.27 19.1C42.99 19.2467 42.7533 19.4433 42.56 19.69C42.3733 19.9367 42.23 20.2133 42.13 20.52C42.0367 20.8267 41.99 21.1333 41.99 21.44C41.99 21.78 42.0467 22.11 42.16 22.43C42.2733 22.7433 42.43 23.0233 42.63 23.27C42.8367 23.51 43.08 23.7 43.36 23.84C43.64 23.98 43.9467 24.05 44.28 24.05C44.5067 24.05 44.7433 24.01 44.99 23.93C45.2367 23.85 45.4633 23.7267 45.67 23.56C45.8833 23.3867 46.05 23.16 46.17 22.88L47.1 23.41C46.9533 23.7633 46.7233 24.0633 46.41 24.31C46.1033 24.5567 45.7567 24.7433 45.37 24.87C44.99 24.9967 44.6133 25.06 44.24 25.06C43.74 25.06 43.2833 24.9567 42.87 24.75C42.4567 24.5367 42.1 24.2567 41.8 23.91C41.5 23.5567 41.2667 23.1633 41.1 22.73C40.9333 22.29 40.85 21.8467 40.85 21.4ZM50.3362 25.1C49.9228 25.1 49.5528 25.03 49.2262 24.89C48.8995 24.7433 48.6162 24.5433 48.3762 24.29C48.1428 24.0367 47.9628 23.75 47.8362 23.43C47.7095 23.1033 47.6462 22.7567 47.6462 22.39C47.6462 22.0233 47.7095 21.6767 47.8362 21.35C47.9628 21.0233 48.1428 20.7367 48.3762 20.49C48.6162 20.2367 48.8995 20.04 49.2262 19.9C49.5595 19.7533 49.9295 19.68 50.3362 19.68C50.7428 19.68 51.1095 19.7533 51.4362 19.9C51.7695 20.04 52.0528 20.2367 52.2862 20.49C52.5262 20.7367 52.7095 21.0233 52.8362 21.35C52.9628 21.6767 53.0262 22.0233 53.0262 22.39C53.0262 22.7567 52.9628 23.1033 52.8362 23.43C52.7095 23.75 52.5262 24.0367 52.2862 24.29C52.0528 24.5433 51.7695 24.7433 51.4362 24.89C51.1095 25.03 50.7428 25.1 50.3362 25.1ZM48.7762 22.4C48.7762 22.7333 48.8462 23.0333 48.9862 23.3C49.1262 23.5667 49.3128 23.7767 49.5462 23.93C49.7795 24.0833 50.0428 24.16 50.3362 24.16C50.6228 24.16 50.8828 24.0833 51.1162 23.93C51.3562 23.77 51.5462 23.5567 51.6862 23.29C51.8262 23.0167 51.8962 22.7167 51.8962 22.39C51.8962 22.0567 51.8262 21.7567 51.6862 21.49C51.5462 21.2233 51.3562 21.0133 51.1162 20.86C50.8828 20.7 50.6228 20.62 50.3362 20.62C50.0428 20.62 49.7795 20.7 49.5462 20.86C49.3128 21.02 49.1262 21.2333 48.9862 21.5C48.8462 21.76 48.7762 22.06 48.7762 22.4ZM56.0718 25.05C55.7185 25.05 55.3951 24.98 55.1018 24.84C54.8085 24.6933 54.5551 24.4967 54.3418 24.25C54.1351 24.0033 53.9718 23.72 53.8518 23.4C53.7385 23.08 53.6818 22.7433 53.6818 22.39C53.6818 22.0167 53.7418 21.6667 53.8618 21.34C53.9818 21.0133 54.1485 20.7267 54.3618 20.48C54.5818 20.2267 54.8385 20.03 55.1318 19.89C55.4251 19.75 55.7518 19.68 56.1118 19.68C56.5318 19.68 56.8985 19.78 57.2118 19.98C57.5318 20.18 57.7951 20.44 58.0018 20.76V19.77H58.9718V24.85C58.9718 25.3567 58.8485 25.7867 58.6018 26.14C58.3618 26.4933 58.0318 26.7633 57.6118 26.95C57.1918 27.1367 56.7185 27.23 56.1918 27.23C55.6118 27.23 55.1318 27.13 54.7518 26.93C54.3718 26.73 54.0485 26.4567 53.7818 26.11L54.4018 25.53C54.6018 25.81 54.8585 26.0233 55.1718 26.17C55.4918 26.3167 55.8318 26.39 56.1918 26.39C56.4918 26.39 56.7685 26.3333 57.0218 26.22C57.2818 26.1133 57.4885 25.9433 57.6418 25.71C57.7951 25.4833 57.8718 25.1967 57.8718 24.85V24.05C57.6851 24.3633 57.4285 24.61 57.1018 24.79C56.7751 24.9633 56.4318 25.05 56.0718 25.05ZM56.4318 24.16C56.5985 24.16 56.7585 24.1333 56.9118 24.08C57.0651 24.02 57.2051 23.9433 57.3318 23.85C57.4651 23.75 57.5785 23.64 57.6718 23.52C57.7651 23.3933 57.8318 23.26 57.8718 23.12V21.75C57.7851 21.5233 57.6618 21.3267 57.5018 21.16C57.3418 20.9867 57.1618 20.8533 56.9618 20.76C56.7618 20.6667 56.5585 20.62 56.3518 20.62C56.1118 20.62 55.8951 20.6733 55.7018 20.78C55.5151 20.88 55.3551 21.0167 55.2218 21.19C55.0885 21.3567 54.9851 21.5467 54.9118 21.76C54.8385 21.9733 54.8018 22.1933 54.8018 22.42C54.8018 22.66 54.8418 22.8833 54.9218 23.09C55.0085 23.2967 55.1251 23.4833 55.2718 23.65C55.4185 23.81 55.5918 23.9367 55.7918 24.03C55.9918 24.1167 56.2051 24.16 56.4318 24.16ZM64.9809 25H63.8809V22.07C63.8809 21.5833 63.8009 21.2267 63.6409 21C63.4875 20.7733 63.2575 20.66 62.9509 20.66C62.7375 20.66 62.5242 20.7133 62.3109 20.82C62.1042 20.9267 61.9175 21.0733 61.7509 21.26C61.5842 21.44 61.4642 21.65 61.3909 21.89V25H60.2909V19.77H61.2909V20.82C61.4242 20.5867 61.5975 20.3867 61.8109 20.22C62.0309 20.0467 62.2775 19.9133 62.5509 19.82C62.8242 19.7267 63.1142 19.68 63.4209 19.68C63.7342 19.68 63.9909 19.7367 64.1909 19.85C64.3975 19.9633 64.5575 20.12 64.6709 20.32C64.7909 20.5133 64.8709 20.74 64.9109 21C64.9575 21.2533 64.9809 21.5233 64.9809 21.81V25ZM66.2577 25V19.77H67.3577V25H66.2577ZM66.2577 18.91V17.7H67.3577V18.91H66.2577ZM71.5895 24.73C71.4962 24.7767 71.3795 24.8267 71.2395 24.88C71.0995 24.9333 70.9395 24.98 70.7595 25.02C70.5862 25.06 70.4062 25.08 70.2195 25.08C69.9929 25.08 69.7829 25.04 69.5895 24.96C69.3962 24.88 69.2395 24.7533 69.1195 24.58C69.0062 24.4 68.9495 24.17 68.9495 23.89V20.62H68.2595V19.77H68.9495V18.05H70.0495V19.77H71.1895V20.62H70.0495V23.54C70.0629 23.72 70.1195 23.8533 70.2195 23.94C70.3262 24.0267 70.4562 24.07 70.6095 24.07C70.7629 24.07 70.9095 24.0433 71.0495 23.99C71.1895 23.9367 71.2929 23.8933 71.3595 23.86L71.5895 24.73ZM72.3514 25V19.77H73.4514V25H72.3514ZM72.3514 18.91V17.7H73.4514V18.91H72.3514ZM76.2333 25L74.2433 19.77H75.3833L76.8733 23.98L78.3633 19.77H79.4233L77.4333 25H76.2333ZM82.407 25.1C82.0003 25.1 81.6303 25.03 81.297 24.89C80.9703 24.7433 80.687 24.5467 80.447 24.3C80.207 24.0467 80.0203 23.76 79.887 23.44C79.7603 23.1133 79.697 22.7667 79.697 22.4C79.697 21.9067 79.8103 21.4567 80.037 21.05C80.2636 20.6367 80.5803 20.3067 80.987 20.06C81.3936 19.8067 81.8703 19.68 82.417 19.68C82.9636 19.68 83.4336 19.8067 83.827 20.06C84.227 20.3067 84.537 20.6333 84.757 21.04C84.977 21.4467 85.087 21.8833 85.087 22.35C85.087 22.43 85.0836 22.5067 85.077 22.58C85.0703 22.6467 85.0636 22.7033 85.057 22.75H80.867C80.887 23.0567 80.9703 23.3267 81.117 23.56C81.2703 23.7867 81.4636 23.9667 81.697 24.1C81.9303 24.2267 82.1803 24.29 82.447 24.29C82.7403 24.29 83.017 24.2167 83.277 24.07C83.5436 23.9233 83.7236 23.73 83.817 23.49L84.757 23.76C84.6436 24.0133 84.4703 24.2433 84.237 24.45C84.0103 24.65 83.7403 24.81 83.427 24.93C83.1136 25.0433 82.7736 25.1 82.407 25.1ZM80.837 22.02H83.997C83.977 21.72 83.8903 21.4567 83.737 21.23C83.5903 20.9967 83.4003 20.8167 83.167 20.69C82.9403 20.5567 82.687 20.49 82.407 20.49C82.1336 20.49 81.8803 20.5567 81.647 20.69C81.4203 20.8167 81.2336 20.9967 81.087 21.23C80.9403 21.4567 80.857 21.72 80.837 22.02ZM92.7949 19.57C92.7283 19.4967 92.6316 19.42 92.5049 19.34C92.3783 19.2533 92.2283 19.1733 92.0549 19.1C91.8816 19.0267 91.6949 18.9667 91.4949 18.92C91.2949 18.8733 91.0883 18.85 90.8749 18.85C90.4083 18.85 90.0616 18.9367 89.8349 19.11C89.6083 19.2833 89.4949 19.5233 89.4949 19.83C89.4949 20.0567 89.5583 20.2367 89.6849 20.37C89.8116 20.4967 90.0049 20.6033 90.2649 20.69C90.5249 20.7767 90.8516 20.87 91.2449 20.97C91.7249 21.0833 92.1416 21.22 92.4949 21.38C92.8483 21.5333 93.1183 21.74 93.3049 22C93.4916 22.26 93.5849 22.6033 93.5849 23.03C93.5849 23.39 93.5183 23.7 93.3849 23.96C93.2516 24.22 93.0649 24.4333 92.8249 24.6C92.5849 24.76 92.3083 24.88 91.9949 24.96C91.6816 25.0333 91.3449 25.07 90.9849 25.07C90.6316 25.07 90.2783 25.0333 89.9249 24.96C89.5783 24.8867 89.2449 24.78 88.9249 24.64C88.6116 24.4933 88.3216 24.3167 88.0549 24.11L88.5649 23.15C88.6516 23.2367 88.7749 23.3333 88.9349 23.44C89.1016 23.54 89.2916 23.6367 89.5049 23.73C89.7249 23.8233 89.9616 23.9033 90.2149 23.97C90.4749 24.03 90.7383 24.06 91.0049 24.06C91.4516 24.06 91.7916 23.9833 92.0249 23.83C92.2649 23.67 92.3849 23.4433 92.3849 23.15C92.3849 22.91 92.3083 22.72 92.1549 22.58C92.0016 22.4333 91.7783 22.31 91.4849 22.21C91.1916 22.11 90.8416 22.01 90.4349 21.91C89.9683 21.7833 89.5783 21.6467 89.2649 21.5C88.9516 21.3467 88.7149 21.1533 88.5549 20.92C88.4016 20.68 88.3249 20.3767 88.3249 20.01C88.3249 19.5433 88.4383 19.15 88.6649 18.83C88.8916 18.5033 89.1983 18.26 89.5849 18.1C89.9783 17.9333 90.4183 17.85 90.9049 17.85C91.2249 17.85 91.5283 17.8867 91.8149 17.96C92.1016 18.0267 92.3683 18.12 92.6149 18.24C92.8683 18.36 93.0983 18.4967 93.3049 18.65L92.7949 19.57ZM96.9382 25.1C96.5315 25.1 96.1615 25.03 95.8282 24.89C95.5015 24.7433 95.2182 24.5433 94.9782 24.29C94.7382 24.0367 94.5515 23.7467 94.4182 23.42C94.2915 23.0933 94.2282 22.7467 94.2282 22.38C94.2282 21.8867 94.3382 21.4367 94.5582 21.03C94.7849 20.6233 95.0982 20.2967 95.4982 20.05C95.9049 19.8033 96.3849 19.68 96.9382 19.68C97.4715 19.68 97.9349 19.8 98.3282 20.04C98.7282 20.2733 99.0215 20.5867 99.2082 20.98L98.1382 21.32C98.0182 21.1 97.8482 20.93 97.6282 20.81C97.4149 20.6833 97.1782 20.62 96.9182 20.62C96.6249 20.62 96.3582 20.6967 96.1182 20.85C95.8849 20.9967 95.6982 21.2033 95.5582 21.47C95.4249 21.73 95.3582 22.0333 95.3582 22.38C95.3582 22.7133 95.4282 23.0167 95.5682 23.29C95.7082 23.5567 95.8949 23.77 96.1282 23.93C96.3682 24.0833 96.6349 24.16 96.9282 24.16C97.1082 24.16 97.2815 24.13 97.4482 24.07C97.6215 24.0033 97.7715 23.9167 97.8982 23.81C98.0249 23.6967 98.1149 23.5733 98.1682 23.44L99.2482 23.76C99.1349 24.02 98.9649 24.25 98.7382 24.45C98.5182 24.65 98.2549 24.81 97.9482 24.93C97.6482 25.0433 97.3115 25.1 96.9382 25.1ZM102.455 25.1C102.042 25.1 101.672 25.03 101.345 24.89C101.019 24.7433 100.735 24.5433 100.495 24.29C100.262 24.0367 100.082 23.75 99.9553 23.43C99.8286 23.1033 99.7653 22.7567 99.7653 22.39C99.7653 22.0233 99.8286 21.6767 99.9553 21.35C100.082 21.0233 100.262 20.7367 100.495 20.49C100.735 20.2367 101.019 20.04 101.345 19.9C101.679 19.7533 102.049 19.68 102.455 19.68C102.862 19.68 103.229 19.7533 103.555 19.9C103.889 20.04 104.172 20.2367 104.405 20.49C104.645 20.7367 104.829 21.0233 104.955 21.35C105.082 21.6767 105.145 22.0233 105.145 22.39C105.145 22.7567 105.082 23.1033 104.955 23.43C104.829 23.75 104.645 24.0367 104.405 24.29C104.172 24.5433 103.889 24.7433 103.555 24.89C103.229 25.03 102.862 25.1 102.455 25.1ZM100.895 22.4C100.895 22.7333 100.965 23.0333 101.105 23.3C101.245 23.5667 101.432 23.7767 101.665 23.93C101.899 24.0833 102.162 24.16 102.455 24.16C102.742 24.16 103.002 24.0833 103.235 23.93C103.475 23.77 103.665 23.5567 103.805 23.29C103.945 23.0167 104.015 22.7167 104.015 22.39C104.015 22.0567 103.945 21.7567 103.805 21.49C103.665 21.2233 103.475 21.0133 103.235 20.86C103.002 20.7 102.742 20.62 102.455 20.62C102.162 20.62 101.899 20.7 101.665 20.86C101.432 21.02 101.245 21.2333 101.105 21.5C100.965 21.76 100.895 22.06 100.895 22.4ZM109.061 20.72C108.634 20.7267 108.254 20.8233 107.921 21.01C107.594 21.1967 107.361 21.46 107.221 21.8V25H106.121V19.77H107.141V20.94C107.321 20.58 107.558 20.2933 107.851 20.08C108.144 19.86 108.454 19.74 108.781 19.72C108.848 19.72 108.901 19.72 108.941 19.72C108.988 19.72 109.028 19.7233 109.061 19.73V20.72ZM112.134 25.1C111.727 25.1 111.357 25.03 111.024 24.89C110.697 24.7433 110.414 24.5467 110.174 24.3C109.934 24.0467 109.747 23.76 109.614 23.44C109.487 23.1133 109.424 22.7667 109.424 22.4C109.424 21.9067 109.537 21.4567 109.764 21.05C109.99 20.6367 110.307 20.3067 110.714 20.06C111.12 19.8067 111.597 19.68 112.144 19.68C112.69 19.68 113.16 19.8067 113.554 20.06C113.954 20.3067 114.264 20.6333 114.484 21.04C114.704 21.4467 114.814 21.8833 114.814 22.35C114.814 22.43 114.81 22.5067 114.804 22.58C114.797 22.6467 114.79 22.7033 114.784 22.75H110.594C110.614 23.0567 110.697 23.3267 110.844 23.56C110.997 23.7867 111.19 23.9667 111.424 24.1C111.657 24.2267 111.907 24.29 112.174 24.29C112.467 24.29 112.744 24.2167 113.004 24.07C113.27 23.9233 113.45 23.73 113.544 23.49L114.484 23.76C114.37 24.0133 114.197 24.2433 113.964 24.45C113.737 24.65 113.467 24.81 113.154 24.93C112.84 25.0433 112.5 25.1 112.134 25.1ZM110.564 22.02H113.724C113.704 21.72 113.617 21.4567 113.464 21.23C113.317 20.9967 113.127 20.8167 112.894 20.69C112.667 20.5567 112.414 20.49 112.134 20.49C111.86 20.49 111.607 20.5567 111.374 20.69C111.147 20.8167 110.96 20.9967 110.814 21.23C110.667 21.4567 110.584 21.72 110.564 22.02Z" fill="#00625B"/>
<rect x="152.5" y="12" width="80" height="18" rx="8" fill="#17B26A"/>
<path d="M182.773 21.0909C182.773 21.7178 182.655 22.2547 182.42 22.7017C182.188 23.1468 181.869 23.4877 181.466 23.7244C181.064 23.9612 180.609 24.0795 180.099 24.0795C179.59 24.0795 179.134 23.9612 178.73 23.7244C178.329 23.4858 178.01 23.1439 177.776 22.6989C177.543 22.2519 177.426 21.7159 177.426 21.0909C177.426 20.464 177.543 19.928 177.776 19.483C178.01 19.036 178.329 18.6941 178.73 18.4574C179.134 18.2206 179.59 18.1023 180.099 18.1023C180.609 18.1023 181.064 18.2206 181.466 18.4574C181.869 18.6941 182.188 19.036 182.42 19.483C182.655 19.928 182.773 20.464 182.773 21.0909ZM181.713 21.0909C181.713 20.6496 181.644 20.2775 181.506 19.9744C181.369 19.6695 181.18 19.4394 180.938 19.2841C180.695 19.1269 180.416 19.0483 180.099 19.0483C179.783 19.0483 179.504 19.1269 179.261 19.2841C179.019 19.4394 178.829 19.6695 178.69 19.9744C178.554 20.2775 178.486 20.6496 178.486 21.0909C178.486 21.5322 178.554 21.9053 178.69 22.2102C178.829 22.5133 179.019 22.7434 179.261 22.9006C179.504 23.0559 179.783 23.1335 180.099 23.1335C180.416 23.1335 180.695 23.0559 180.938 22.9006C181.18 22.7434 181.369 22.5133 181.506 22.2102C181.644 21.9053 181.713 21.5322 181.713 21.0909ZM183.724 25.6364V19.6364H184.735V20.358H184.795C184.848 20.2519 184.923 20.1392 185.019 20.0199C185.116 19.8987 185.246 19.7955 185.411 19.7102C185.576 19.6231 185.786 19.5795 186.042 19.5795C186.379 19.5795 186.683 19.6657 186.954 19.8381C187.227 20.0085 187.442 20.2614 187.602 20.5966C187.763 20.9299 187.843 21.339 187.843 21.8239C187.843 22.303 187.764 22.7102 187.607 23.0455C187.45 23.3807 187.236 23.6364 186.965 23.8125C186.694 23.9886 186.388 24.0767 186.045 24.0767C185.795 24.0767 185.587 24.035 185.423 23.9517C185.258 23.8684 185.125 23.768 185.025 23.6506C184.926 23.5312 184.85 23.4186 184.795 23.3125H184.752V25.6364H183.724ZM184.732 21.8182C184.732 22.1004 184.772 22.3475 184.852 22.5597C184.933 22.7718 185.049 22.9375 185.201 23.0568C185.354 23.1742 185.54 23.233 185.758 23.233C185.985 23.233 186.175 23.1723 186.329 23.0511C186.482 22.928 186.598 22.7604 186.675 22.5483C186.755 22.3343 186.795 22.0909 186.795 21.8182C186.795 21.5473 186.756 21.3068 186.678 21.0966C186.601 20.8864 186.485 20.7216 186.332 20.6023C186.178 20.483 185.987 20.4233 185.758 20.4233C185.538 20.4233 185.352 20.4811 185.198 20.5966C185.045 20.7121 184.928 20.8741 184.849 21.0824C184.771 21.2907 184.732 21.536 184.732 21.8182ZM190.903 19.6364V20.4318H188.394V19.6364H190.903ZM189.013 18.5909H190.042V22.6875C190.042 22.8258 190.063 22.9318 190.104 23.0057C190.148 23.0777 190.205 23.1269 190.275 23.1534C190.345 23.1799 190.423 23.1932 190.508 23.1932C190.572 23.1932 190.631 23.1884 190.684 23.179C190.739 23.1695 190.781 23.161 190.809 23.1534L190.982 23.9574C190.927 23.9763 190.849 23.9972 190.746 24.0199C190.646 24.0426 190.523 24.0559 190.377 24.0597C190.12 24.0672 189.888 24.0284 189.681 23.9432C189.475 23.8561 189.311 23.7216 189.19 23.5398C189.07 23.358 189.012 23.1307 189.013 22.858V18.5909ZM191.763 24V19.6364H192.791V24H191.763ZM192.28 19.017C192.117 19.017 191.977 18.9631 191.859 18.8551C191.742 18.7453 191.683 18.6136 191.683 18.4602C191.683 18.3049 191.742 18.1733 191.859 18.0653C191.977 17.9555 192.117 17.9006 192.28 17.9006C192.445 17.9006 192.585 17.9555 192.7 18.0653C192.818 18.1733 192.876 18.3049 192.876 18.4602C192.876 18.6136 192.818 18.7453 192.7 18.8551C192.585 18.9631 192.445 19.017 192.28 19.017ZM193.849 24V19.6364H194.832V20.3778H194.883C194.974 20.1278 195.124 19.9328 195.335 19.7926C195.545 19.6506 195.796 19.5795 196.087 19.5795C196.383 19.5795 196.632 19.6515 196.835 19.7955C197.039 19.9375 197.183 20.1316 197.266 20.3778H197.312C197.408 20.1354 197.571 19.9422 197.8 19.7983C198.031 19.6525 198.305 19.5795 198.621 19.5795C199.023 19.5795 199.351 19.7064 199.604 19.9602C199.858 20.214 199.985 20.5843 199.985 21.071V24H198.954V21.2301C198.954 20.9593 198.882 20.7614 198.738 20.6364C198.594 20.5095 198.418 20.446 198.21 20.446C197.961 20.446 197.767 20.5237 197.627 20.679C197.489 20.8324 197.42 21.0322 197.42 21.2784V24H196.411V21.1875C196.411 20.9621 196.343 20.7822 196.207 20.6477C196.072 20.5133 195.896 20.446 195.678 20.446C195.531 20.446 195.396 20.4839 195.275 20.5597C195.154 20.6335 195.057 20.7386 194.985 20.875C194.913 21.0095 194.877 21.1667 194.877 21.3466V24H193.849ZM202.284 24.0881C202.008 24.0881 201.759 24.0388 201.537 23.9403C201.317 23.84 201.143 23.6922 201.014 23.4972C200.887 23.3021 200.824 23.0616 200.824 22.7756C200.824 22.5294 200.869 22.3258 200.96 22.1648C201.051 22.0038 201.175 21.875 201.332 21.7784C201.49 21.6818 201.667 21.6089 201.864 21.5597C202.063 21.5085 202.268 21.4716 202.48 21.4489C202.736 21.4223 202.943 21.3987 203.102 21.3778C203.261 21.3551 203.377 21.321 203.449 21.2756C203.523 21.2282 203.56 21.1553 203.56 21.0568V21.0398C203.56 20.8258 203.496 20.66 203.369 20.5426C203.242 20.4252 203.06 20.3665 202.821 20.3665C202.569 20.3665 202.369 20.4214 202.222 20.5312C202.076 20.6411 201.977 20.7708 201.926 20.9205L200.966 20.7841C201.042 20.5189 201.167 20.2973 201.341 20.1193C201.515 19.9394 201.728 19.8049 201.98 19.7159C202.232 19.625 202.51 19.5795 202.815 19.5795C203.026 19.5795 203.235 19.6042 203.443 19.6534C203.652 19.7027 203.842 19.7841 204.014 19.8977C204.187 20.0095 204.325 20.1619 204.429 20.3551C204.535 20.5483 204.588 20.7898 204.588 21.0795V24H203.599V23.4006H203.565C203.503 23.5218 203.415 23.6354 203.301 23.7415C203.189 23.8456 203.048 23.9299 202.878 23.9943C202.709 24.0568 202.511 24.0881 202.284 24.0881ZM202.551 23.3324C202.758 23.3324 202.937 23.2917 203.088 23.2102C203.24 23.1269 203.356 23.017 203.438 22.8807C203.521 22.7443 203.562 22.5956 203.562 22.4347V21.9205C203.53 21.947 203.475 21.9716 203.398 21.9943C203.322 22.017 203.237 22.0369 203.142 22.054C203.047 22.071 202.954 22.0862 202.861 22.0994C202.768 22.1127 202.688 22.1241 202.619 22.1335C202.466 22.1544 202.329 22.1884 202.207 22.2358C202.086 22.2831 201.991 22.3494 201.92 22.4347C201.85 22.518 201.815 22.6259 201.815 22.7585C201.815 22.9479 201.884 23.0909 202.023 23.1875C202.161 23.2841 202.337 23.3324 202.551 23.3324ZM206.651 18.1818V24H205.622V18.1818H206.651Z" fill="#EFEFEF"/>
<path d="M44.5014 51.1662C43.7997 51.1662 43.1974 50.9886 42.6946 50.6335C42.1946 50.2756 41.8097 49.7599 41.5398 49.0866C41.2727 48.4105 41.1392 47.5966 41.1392 46.6449C41.142 45.6932 41.277 44.8835 41.544 44.2159C41.8139 43.5455 42.1989 43.0341 42.6989 42.6818C43.2017 42.3295 43.8026 42.1534 44.5014 42.1534C45.2003 42.1534 45.8011 42.3295 46.304 42.6818C46.8068 43.0341 47.1918 43.5455 47.4588 44.2159C47.7287 44.8864 47.8636 45.696 47.8636 46.6449C47.8636 47.5994 47.7287 48.4148 47.4588 49.0909C47.1918 49.7642 46.8068 50.2784 46.304 50.6335C45.804 50.9886 45.2031 51.1662 44.5014 51.1662ZM44.5014 49.8324C45.0469 49.8324 45.4773 49.5639 45.7926 49.027C46.1108 48.4872 46.2699 47.6932 46.2699 46.6449C46.2699 45.9517 46.1974 45.3693 46.0526 44.8977C45.9077 44.4261 45.7031 44.071 45.4389 43.8324C45.1747 43.5909 44.8622 43.4702 44.5014 43.4702C43.9588 43.4702 43.5298 43.7401 43.2145 44.2798C42.8991 44.8168 42.7401 45.6051 42.7372 46.6449C42.7344 47.3409 42.804 47.9261 42.946 48.4006C43.0909 48.875 43.2955 49.233 43.5597 49.4744C43.8239 49.7131 44.1378 49.8324 44.5014 49.8324ZM52.5053 51.1662C51.8036 51.1662 51.2013 50.9886 50.6985 50.6335C50.1985 50.2756 49.8136 49.7599 49.5437 49.0866C49.2766 48.4105 49.1431 47.5966 49.1431 46.6449C49.146 45.6932 49.2809 44.8835 49.5479 44.2159C49.8178 43.5455 50.2028 43.0341 50.7028 42.6818C51.2056 42.3295 51.8065 42.1534 52.5053 42.1534C53.2042 42.1534 53.805 42.3295 54.3079 42.6818C54.8107 43.0341 55.1957 43.5455 55.4627 44.2159C55.7326 44.8864 55.8675 45.696 55.8675 46.6449C55.8675 47.5994 55.7326 48.4148 55.4627 49.0909C55.1957 49.7642 54.8107 50.2784 54.3079 50.6335C53.8079 50.9886 53.207 51.1662 52.5053 51.1662ZM52.5053 49.8324C53.0508 49.8324 53.4812 49.5639 53.7965 49.027C54.1147 48.4872 54.2738 47.6932 54.2738 46.6449C54.2738 45.9517 54.2013 45.3693 54.0565 44.8977C53.9116 44.4261 53.707 44.071 53.4428 43.8324C53.1786 43.5909 52.8661 43.4702 52.5053 43.4702C51.9627 43.4702 51.5337 43.7401 51.2184 44.2798C50.9031 44.8168 50.744 45.6051 50.7411 46.6449C50.7383 47.3409 50.8079 47.9261 50.9499 48.4006C51.0948 48.875 51.2994 49.233 51.5636 49.4744C51.8278 49.7131 52.1417 49.8324 52.5053 49.8324Z" fill="#003632"/>
<path d="M63 50.0795C62.572 50.0795 62.2074 49.9631 61.9062 49.7301C61.6051 49.4953 61.375 49.1553 61.2159 48.7102C61.0568 48.2633 60.9773 47.7235 60.9773 47.0909C60.9773 46.4621 61.0568 45.9252 61.2159 45.4801C61.3769 45.0331 61.608 44.6922 61.9091 44.4574C62.2121 44.2206 62.5758 44.1023 63 44.1023C63.4242 44.1023 63.7869 44.2206 64.0881 44.4574C64.3911 44.6922 64.6222 45.0331 64.7812 45.4801C64.9422 45.9252 65.0227 46.4621 65.0227 47.0909C65.0227 47.7235 64.9432 48.2633 64.7841 48.7102C64.625 49.1553 64.3949 49.4953 64.0938 49.7301C63.7926 49.9631 63.428 50.0795 63 50.0795ZM63 49.4545C63.4242 49.4545 63.7538 49.25 63.9886 48.8409C64.2235 48.4318 64.3409 47.8485 64.3409 47.0909C64.3409 46.5871 64.2869 46.1581 64.179 45.804C64.0729 45.4498 63.9195 45.1799 63.7188 44.9943C63.5199 44.8087 63.2803 44.7159 63 44.7159C62.5795 44.7159 62.2509 44.9233 62.0142 45.3381C61.7775 45.7509 61.6591 46.3352 61.6591 47.0909C61.6591 47.5947 61.7121 48.0227 61.8182 48.375C61.9242 48.7273 62.0767 48.9953 62.2756 49.179C62.4763 49.3627 62.7178 49.4545 63 49.4545ZM68 50.0795C67.572 50.0795 67.2074 49.9631 66.9062 49.7301C66.6051 49.4953 66.375 49.1553 66.2159 48.7102C66.0568 48.2633 65.9773 47.7235 65.9773 47.0909C65.9773 46.4621 66.0568 45.9252 66.2159 45.4801C66.3769 45.0331 66.608 44.6922 66.9091 44.4574C67.2121 44.2206 67.5758 44.1023 68 44.1023C68.4242 44.1023 68.7869 44.2206 69.0881 44.4574C69.3911 44.6922 69.6222 45.0331 69.7812 45.4801C69.9422 45.9252 70.0227 46.4621 70.0227 47.0909C70.0227 47.7235 69.9432 48.2633 69.7841 48.7102C69.625 49.1553 69.3949 49.4953 69.0938 49.7301C68.7926 49.9631 68.428 50.0795 68 50.0795ZM68 49.4545C68.4242 49.4545 68.7538 49.25 68.9886 48.8409C69.2235 48.4318 69.3409 47.8485 69.3409 47.0909C69.3409 46.5871 69.2869 46.1581 69.179 45.804C69.0729 45.4498 68.9195 45.1799 68.7188 44.9943C68.5199 44.8087 68.2803 44.7159 68 44.7159C67.5795 44.7159 67.2509 44.9233 67.0142 45.3381C66.7775 45.7509 66.6591 46.3352 66.6591 47.0909C66.6591 47.5947 66.7121 48.0227 66.8182 48.375C66.9242 48.7273 67.0767 48.9953 67.2756 49.179C67.4763 49.3627 67.7178 49.4545 68 49.4545Z" fill="#667085"/>
<path d="M225 50.0795C224.572 50.0795 224.207 49.9631 223.906 49.7301C223.605 49.4953 223.375 49.1553 223.216 48.7102C223.057 48.2633 222.977 47.7235 222.977 47.0909C222.977 46.4621 223.057 45.9252 223.216 45.4801C223.377 45.0331 223.608 44.6922 223.909 44.4574C224.212 44.2206 224.576 44.1023 225 44.1023C225.424 44.1023 225.787 44.2206 226.088 44.4574C226.391 44.6922 226.622 45.0331 226.781 45.4801C226.942 45.9252 227.023 46.4621 227.023 47.0909C227.023 47.7235 226.943 48.2633 226.784 48.7102C226.625 49.1553 226.395 49.4953 226.094 49.7301C225.793 49.9631 225.428 50.0795 225 50.0795ZM225 49.4545C225.424 49.4545 225.754 49.25 225.989 48.8409C226.223 48.4318 226.341 47.8485 226.341 47.0909C226.341 46.5871 226.287 46.1581 226.179 45.804C226.073 45.4498 225.92 45.1799 225.719 44.9943C225.52 44.8087 225.28 44.7159 225 44.7159C224.58 44.7159 224.251 44.9233 224.014 45.3381C223.777 45.7509 223.659 46.3352 223.659 47.0909C223.659 47.5947 223.712 48.0227 223.818 48.375C223.924 48.7273 224.077 48.9953 224.276 49.179C224.476 49.3627 224.718 49.4545 225 49.4545ZM230 50.0795C229.572 50.0795 229.207 49.9631 228.906 49.7301C228.605 49.4953 228.375 49.1553 228.216 48.7102C228.057 48.2633 227.977 47.7235 227.977 47.0909C227.977 46.4621 228.057 45.9252 228.216 45.4801C228.377 45.0331 228.608 44.6922 228.909 44.4574C229.212 44.2206 229.576 44.1023 230 44.1023C230.424 44.1023 230.787 44.2206 231.088 44.4574C231.391 44.6922 231.622 45.0331 231.781 45.4801C231.942 45.9252 232.023 46.4621 232.023 47.0909C232.023 47.7235 231.943 48.2633 231.784 48.7102C231.625 49.1553 231.395 49.4953 231.094 49.7301C230.793 49.9631 230.428 50.0795 230 50.0795ZM230 49.4545C230.424 49.4545 230.754 49.25 230.989 48.8409C231.223 48.4318 231.341 47.8485 231.341 47.0909C231.341 46.5871 231.287 46.1581 231.179 45.804C231.073 45.4498 230.92 45.1799 230.719 44.9943C230.52 44.8087 230.28 44.7159 230 44.7159C229.58 44.7159 229.251 44.9233 229.014 45.3381C228.777 45.7509 228.659 46.3352 228.659 47.0909C228.659 47.5947 228.712 48.0227 228.818 48.375C228.924 48.7273 229.077 48.9953 229.276 49.179C229.476 49.3627 229.718 49.4545 230 49.4545Z" fill="#667085"/>
</svg>
