<svg width="241" height="68" viewBox="0 0 241 68" fill="none" xmlns="http://www.w3.org/2000/svg">
<rect x="0.55" y="0.05" width="239.9" height="67.9" rx="15.95" fill="white"/>
<rect x="0.55" y="0.05" width="239.9" height="67.9" rx="15.95" stroke="#00625B" stroke-width="0.1"/>
<path d="M19.354 29.9569L18.5569 32.1533C18.2713 32.9403 17.8833 33.5581 17.2981 34.158L14.2667 37.2648C13.8126 37.7304 13.8134 38.4794 14.269 38.9349C14.73 39.3959 15.4805 39.3959 15.9415 38.9349L19.6224 35.254C19.7528 35.1236 19.9235 35.0778 20.1021 35.1259L21.9034 35.6087C22.0392 35.6451 22.1261 35.7592 22.1261 35.8997V38.4422C22.1261 39.0941 22.657 39.6249 23.3089 39.6249C23.9608 39.6249 24.4916 39.0941 24.4916 38.4422V35.4465C24.4916 34.5524 24.4505 34.1341 23.4773 33.5916L22.7423 33.1819C22.4063 32.9948 22.4187 32.9094 22.4722 32.762L23.0916 31.0554C23.2219 30.6953 23.5417 30.471 23.9251 30.471H26.5848C27.2569 30.471 27.6193 29.958 27.6193 29.4752C27.6193 28.9832 27.2538 28.4857 26.5561 28.4857H21.4556C20.5033 28.4857 19.6783 29.0639 19.3531 29.9595L19.354 29.9569ZM27.0504 29.4726C27.0504 29.6853 26.9069 29.8995 26.5856 29.8995H22.2114C22.0547 29.8995 21.9266 30.0268 21.9266 30.1843C21.9266 30.3411 22.0539 30.4691 22.2114 30.4691H22.7687C22.681 30.5848 22.6088 30.7159 22.5568 30.8595L21.9375 32.5661C21.6907 33.2452 22.2533 33.5588 22.4652 33.6775L23.2002 34.0873C23.9227 34.4901 23.9227 34.6546 23.9227 35.4454V38.4411C23.9227 38.7795 23.6472 39.0542 23.3096 39.0542C22.9712 39.0542 22.6965 38.7787 22.6965 38.4411V35.8986C22.6965 35.4989 22.4373 35.1614 22.0516 35.0581L20.2502 34.5754C20.154 34.5498 20.0578 34.5366 19.9631 34.5366C19.6876 34.5366 19.4268 34.6452 19.2204 34.8509L15.5394 38.5318C15.3004 38.7709 14.9108 38.7709 14.6717 38.5318C14.4358 38.2959 14.4366 37.9055 14.6741 37.6618L17.7055 34.5551C18.3497 33.8954 18.7773 33.214 19.0916 32.3471L19.8887 30.1507C20.1347 29.4732 20.7354 29.0518 21.4564 29.0518H26.5569C26.9209 29.0518 27.0505 29.2691 27.0505 29.4724L27.0504 29.4726ZM22.484 28.3186C23.399 28.3186 24.1433 27.5743 24.1433 26.6593C24.1433 25.7443 23.399 25 22.484 25C21.569 25 20.8247 25.7443 20.8247 26.6593C20.8247 27.5743 21.569 28.3186 22.484 28.3186ZM22.484 25.5689C23.0847 25.5689 23.5744 26.0578 23.5744 26.6593C23.5744 27.2608 23.0855 27.7497 22.484 27.7497C21.8825 27.7497 21.3936 27.2608 21.3936 26.6593C21.3936 26.0578 21.8825 25.5689 22.484 25.5689ZM29.2826 40.6616L27.1585 39.2157C27.008 39.1133 26.8155 39.1024 26.6548 39.1878C26.4942 39.2724 26.3948 39.4385 26.3948 39.6201V39.9864H17.9122C17.6607 39.9864 17.4559 40.1913 17.4559 40.4428V41.6884C17.4559 41.9398 17.6607 42.1447 17.9122 42.1447H26.3948V42.5111C26.3948 42.6927 26.495 42.8587 26.6548 42.9433C26.727 42.9814 26.8054 43 26.883 43C26.9792 43 27.0755 42.9713 27.1585 42.9146L29.2826 41.4688C29.4161 41.378 29.496 41.2266 29.496 41.0644C29.496 40.9022 29.4161 40.7517 29.2826 40.6601L29.2826 40.6616ZM26.9636 42.3597V41.8607C26.9636 41.7039 26.8363 41.5758 26.6788 41.5758H18.0239V40.5553H26.6788C26.8356 40.5553 26.9636 40.428 26.9636 40.2704V39.7714L28.8651 41.0652L26.9636 42.3589V42.3597ZM17.489 31.7186C17.6457 31.7186 17.7738 31.8459 17.7738 32.0034C17.7738 32.1602 17.6465 32.2882 17.489 32.2882H16.0191C15.8623 32.2882 15.7342 32.161 15.7342 32.0034C15.7342 31.8466 15.8615 31.7186 16.0191 31.7186H17.489ZM18.7967 29.0062H17.3268C17.17 29.0062 17.0419 28.8789 17.0419 28.7214C17.0419 28.5646 17.1692 28.4365 17.3268 28.4365H18.7967C18.9535 28.4365 19.0815 28.5638 19.0815 28.7214C19.0815 28.8781 18.9542 29.0062 18.7967 29.0062ZM15.555 26.8068C15.555 26.65 15.6823 26.522 15.8398 26.522H19.7886C19.9454 26.522 20.0734 26.6493 20.0734 26.8068C20.0734 26.9636 19.9462 27.0916 19.7886 27.0916H15.8398C15.6831 27.0916 15.555 26.9644 15.555 26.8068ZM12.4538 35.9819C12.4538 35.8251 12.5811 35.697 12.7387 35.697H14.3661C14.5229 35.697 14.6509 35.8243 14.6509 35.9819C14.6509 36.1386 14.5237 36.2667 14.3661 36.2667H12.7387C12.5819 36.2667 12.4538 36.1394 12.4538 35.9819ZM13.2571 38.7797H11.7848C11.6281 38.7797 11.5 38.6524 11.5 38.4948C11.5 38.3381 11.6273 38.21 11.7848 38.21H13.2571C13.4139 38.21 13.5419 38.3373 13.5419 38.4948C13.5419 38.6516 13.4146 38.7797 13.2571 38.7797ZM16.8178 41.0661C16.8178 41.2229 16.6906 41.3509 16.533 41.3509L12.5842 41.3517C12.4275 41.3517 12.2994 41.2244 12.2994 41.0669C12.2994 40.9101 12.4267 40.782 12.5842 40.782H16.533C16.6898 40.782 16.8178 40.9093 16.8178 41.0669V41.0661ZM14.0657 30.0276C14.0657 29.8708 14.193 29.7428 14.3505 29.7428H17.2392C17.3959 29.7428 17.524 29.8701 17.524 30.0276C17.524 30.1844 17.3967 30.3124 17.2392 30.3124H14.3505C14.1938 30.3124 14.0657 30.1852 14.0657 30.0276ZM13.6109 34.0207C13.6109 33.8639 13.7382 33.7359 13.8957 33.7359H15.964C16.1208 33.7359 16.2488 33.8631 16.2488 34.0207C16.2488 34.1775 16.1216 34.3055 15.964 34.3055H13.8957C13.739 34.3055 13.6109 34.1782 13.6109 34.0207Z" fill="#00625B"/>
<path d="M41.3 25V17.9H46.03V18.89H42.42V21.01H45.44V21.94H42.42V25H41.3ZM46.951 25V19.77H48.051V25H46.951ZM46.951 18.91V17.7H48.051V18.91H46.951ZM52.2829 24.73C52.1896 24.7767 52.0729 24.8267 51.9329 24.88C51.7929 24.9333 51.6329 24.98 51.4529 25.02C51.2796 25.06 51.0996 25.08 50.9129 25.08C50.6862 25.08 50.4762 25.04 50.2829 24.96C50.0896 24.88 49.9329 24.7533 49.8129 24.58C49.6996 24.4 49.6429 24.17 49.6429 23.89V20.62H48.9529V19.77H49.6429V18.05H50.7429V19.77H51.8829V20.62H50.7429V23.54C50.7562 23.72 50.8129 23.8533 50.9129 23.94C51.0196 24.0267 51.1496 24.07 51.3029 24.07C51.4562 24.07 51.6029 24.0433 51.7429 23.99C51.8829 23.9367 51.9862 23.8933 52.0529 23.86L52.2829 24.73ZM57.7348 25H56.6348V22.07C56.6348 21.5833 56.5548 21.2267 56.3948 21C56.2414 20.7733 56.0114 20.66 55.7048 20.66C55.4914 20.66 55.2781 20.7133 55.0648 20.82C54.8581 20.9267 54.6714 21.0733 54.5048 21.26C54.3381 21.44 54.2181 21.65 54.1448 21.89V25H53.0448V19.77H54.0448V20.82C54.1781 20.5867 54.3514 20.3867 54.5648 20.22C54.7848 20.0467 55.0314 19.9133 55.3048 19.82C55.5781 19.7267 55.8681 19.68 56.1748 19.68C56.4881 19.68 56.7448 19.7367 56.9448 19.85C57.1514 19.9633 57.3114 20.12 57.4248 20.32C57.5448 20.5133 57.6248 20.74 57.6648 21C57.7114 21.2533 57.7348 21.5233 57.7348 21.81V25ZM61.3816 25.1C60.9749 25.1 60.6049 25.03 60.2716 24.89C59.9449 24.7433 59.6616 24.5467 59.4216 24.3C59.1816 24.0467 58.9949 23.76 58.8616 23.44C58.7349 23.1133 58.6716 22.7667 58.6716 22.4C58.6716 21.9067 58.7849 21.4567 59.0116 21.05C59.2382 20.6367 59.5549 20.3067 59.9616 20.06C60.3682 19.8067 60.8449 19.68 61.3916 19.68C61.9382 19.68 62.4082 19.8067 62.8016 20.06C63.2016 20.3067 63.5116 20.6333 63.7316 21.04C63.9516 21.4467 64.0616 21.8833 64.0616 22.35C64.0616 22.43 64.0582 22.5067 64.0516 22.58C64.0449 22.6467 64.0382 22.7033 64.0316 22.75H59.8416C59.8616 23.0567 59.9449 23.3267 60.0916 23.56C60.2449 23.7867 60.4382 23.9667 60.6716 24.1C60.9049 24.2267 61.1549 24.29 61.4216 24.29C61.7149 24.29 61.9916 24.2167 62.2516 24.07C62.5182 23.9233 62.6982 23.73 62.7916 23.49L63.7316 23.76C63.6182 24.0133 63.4449 24.2433 63.2116 24.45C62.9849 24.65 62.7149 24.81 62.4016 24.93C62.0882 25.0433 61.7482 25.1 61.3816 25.1ZM59.8116 22.02H62.9716C62.9516 21.72 62.8649 21.4567 62.7116 21.23C62.5649 20.9967 62.3749 20.8167 62.1416 20.69C61.9149 20.5567 61.6616 20.49 61.3816 20.49C61.1082 20.49 60.8549 20.5567 60.6216 20.69C60.3949 20.8167 60.2082 20.9967 60.0616 21.23C59.9149 21.4567 59.8316 21.72 59.8116 22.02ZM66.8188 25.1C66.3788 25.1 65.9622 25.03 65.5688 24.89C65.1755 24.7433 64.8388 24.5267 64.5588 24.24L64.9688 23.5C65.2688 23.7667 65.5688 23.96 65.8688 24.08C66.1755 24.2 66.4788 24.26 66.7788 24.26C67.0855 24.26 67.3355 24.2033 67.5288 24.09C67.7222 23.97 67.8188 23.7967 67.8188 23.57C67.8188 23.4033 67.7688 23.28 67.6688 23.2C67.5688 23.12 67.4222 23.05 67.2288 22.99C67.0422 22.93 66.8155 22.8633 66.5488 22.79C66.1755 22.6767 65.8622 22.56 65.6088 22.44C65.3555 22.3133 65.1655 22.16 65.0388 21.98C64.9122 21.8 64.8488 21.57 64.8488 21.29C64.8488 20.95 64.9355 20.66 65.1088 20.42C65.2822 20.18 65.5222 19.9967 65.8288 19.87C66.1422 19.7433 66.5022 19.68 66.9088 19.68C67.2888 19.68 67.6388 19.74 67.9588 19.86C68.2855 19.9733 68.5722 20.1533 68.8188 20.4L68.3488 21.13C68.1155 20.9167 67.8755 20.76 67.6288 20.66C67.3888 20.56 67.1288 20.51 66.8488 20.51C66.6888 20.51 66.5355 20.53 66.3888 20.57C66.2422 20.6033 66.1188 20.67 66.0188 20.77C65.9255 20.8633 65.8788 20.9967 65.8788 21.17C65.8788 21.31 65.9188 21.4233 65.9988 21.51C66.0788 21.5967 66.1988 21.67 66.3588 21.73C66.5188 21.79 66.7155 21.8567 66.9488 21.93C67.3555 22.05 67.7022 22.17 67.9888 22.29C68.2755 22.4033 68.4955 22.5533 68.6488 22.74C68.8088 22.92 68.8888 23.17 68.8888 23.49C68.8888 23.9967 68.6988 24.3933 68.3188 24.68C67.9455 24.96 67.4455 25.1 66.8188 25.1ZM71.7309 25.1C71.2909 25.1 70.8743 25.03 70.4809 24.89C70.0876 24.7433 69.7509 24.5267 69.4709 24.24L69.8809 23.5C70.1809 23.7667 70.4809 23.96 70.7809 24.08C71.0876 24.2 71.3909 24.26 71.6909 24.26C71.9976 24.26 72.2476 24.2033 72.4409 24.09C72.6343 23.97 72.7309 23.7967 72.7309 23.57C72.7309 23.4033 72.6809 23.28 72.5809 23.2C72.4809 23.12 72.3343 23.05 72.1409 22.99C71.9543 22.93 71.7276 22.8633 71.4609 22.79C71.0876 22.6767 70.7743 22.56 70.5209 22.44C70.2676 22.3133 70.0776 22.16 69.9509 21.98C69.8243 21.8 69.7609 21.57 69.7609 21.29C69.7609 20.95 69.8476 20.66 70.0209 20.42C70.1943 20.18 70.4343 19.9967 70.7409 19.87C71.0543 19.7433 71.4143 19.68 71.8209 19.68C72.2009 19.68 72.5509 19.74 72.8709 19.86C73.1976 19.9733 73.4843 20.1533 73.7309 20.4L73.2609 21.13C73.0276 20.9167 72.7876 20.76 72.5409 20.66C72.3009 20.56 72.0409 20.51 71.7609 20.51C71.6009 20.51 71.4476 20.53 71.3009 20.57C71.1543 20.6033 71.0309 20.67 70.9309 20.77C70.8376 20.8633 70.7909 20.9967 70.7909 21.17C70.7909 21.31 70.8309 21.4233 70.9109 21.51C70.9909 21.5967 71.1109 21.67 71.2709 21.73C71.4309 21.79 71.6276 21.8567 71.8609 21.93C72.2676 22.05 72.6143 22.17 72.9009 22.29C73.1876 22.4033 73.4076 22.5533 73.5609 22.74C73.7209 22.92 73.8009 23.17 73.8009 23.49C73.8009 23.9967 73.6109 24.3933 73.2309 24.68C72.8576 24.96 72.3576 25.1 71.7309 25.1ZM79.1313 17.9H80.1913L82.9513 25H81.7713L81.0213 23.07H78.2813L77.5413 25H76.3513L79.1313 17.9ZM80.8013 22.24L79.6613 19.13L78.4813 22.24H80.8013ZM85.4712 25.1C85.0312 25.1 84.6145 25.03 84.2212 24.89C83.8278 24.7433 83.4912 24.5267 83.2112 24.24L83.6212 23.5C83.9212 23.7667 84.2212 23.96 84.5212 24.08C84.8278 24.2 85.1312 24.26 85.4312 24.26C85.7378 24.26 85.9878 24.2033 86.1812 24.09C86.3745 23.97 86.4712 23.7967 86.4712 23.57C86.4712 23.4033 86.4212 23.28 86.3212 23.2C86.2212 23.12 86.0745 23.05 85.8812 22.99C85.6945 22.93 85.4678 22.8633 85.2012 22.79C84.8278 22.6767 84.5145 22.56 84.2612 22.44C84.0078 22.3133 83.8178 22.16 83.6912 21.98C83.5645 21.8 83.5012 21.57 83.5012 21.29C83.5012 20.95 83.5878 20.66 83.7612 20.42C83.9345 20.18 84.1745 19.9967 84.4812 19.87C84.7945 19.7433 85.1545 19.68 85.5612 19.68C85.9412 19.68 86.2912 19.74 86.6112 19.86C86.9378 19.9733 87.2245 20.1533 87.4712 20.4L87.0012 21.13C86.7678 20.9167 86.5278 20.76 86.2812 20.66C86.0412 20.56 85.7812 20.51 85.5012 20.51C85.3412 20.51 85.1878 20.53 85.0412 20.57C84.8945 20.6033 84.7712 20.67 84.6712 20.77C84.5778 20.8633 84.5312 20.9967 84.5312 21.17C84.5312 21.31 84.5712 21.4233 84.6512 21.51C84.7312 21.5967 84.8512 21.67 85.0112 21.73C85.1712 21.79 85.3678 21.8567 85.6012 21.93C86.0078 22.05 86.3545 22.17 86.6412 22.29C86.9278 22.4033 87.1478 22.5533 87.3012 22.74C87.4612 22.92 87.5412 23.17 87.5412 23.49C87.5412 23.9967 87.3512 24.3933 86.9712 24.68C86.5978 24.96 86.0978 25.1 85.4712 25.1ZM90.3833 25.1C89.9433 25.1 89.5266 25.03 89.1333 24.89C88.7399 24.7433 88.4033 24.5267 88.1233 24.24L88.5333 23.5C88.8333 23.7667 89.1333 23.96 89.4333 24.08C89.7399 24.2 90.0433 24.26 90.3433 24.26C90.6499 24.26 90.8999 24.2033 91.0933 24.09C91.2866 23.97 91.3833 23.7967 91.3833 23.57C91.3833 23.4033 91.3333 23.28 91.2333 23.2C91.1333 23.12 90.9866 23.05 90.7933 22.99C90.6066 22.93 90.3799 22.8633 90.1133 22.79C89.7399 22.6767 89.4266 22.56 89.1733 22.44C88.9199 22.3133 88.7299 22.16 88.6033 21.98C88.4766 21.8 88.4133 21.57 88.4133 21.29C88.4133 20.95 88.4999 20.66 88.6733 20.42C88.8466 20.18 89.0866 19.9967 89.3933 19.87C89.7066 19.7433 90.0666 19.68 90.4733 19.68C90.8533 19.68 91.2033 19.74 91.5233 19.86C91.8499 19.9733 92.1366 20.1533 92.3833 20.4L91.9133 21.13C91.6799 20.9167 91.4399 20.76 91.1933 20.66C90.9533 20.56 90.6933 20.51 90.4133 20.51C90.2533 20.51 90.0999 20.53 89.9533 20.57C89.8066 20.6033 89.6833 20.67 89.5833 20.77C89.4899 20.8633 89.4433 20.9967 89.4433 21.17C89.4433 21.31 89.4833 21.4233 89.5633 21.51C89.6433 21.5967 89.7633 21.67 89.9233 21.73C90.0833 21.79 90.2799 21.8567 90.5133 21.93C90.9199 22.05 91.2666 22.17 91.5533 22.29C91.8399 22.4033 92.0599 22.5533 92.2133 22.74C92.3733 22.92 92.4533 23.17 92.4533 23.49C92.4533 23.9967 92.2633 24.3933 91.8833 24.68C91.5099 24.96 91.0099 25.1 90.3833 25.1ZM95.8054 25.1C95.3987 25.1 95.0287 25.03 94.6954 24.89C94.3687 24.7433 94.0854 24.5467 93.8454 24.3C93.6054 24.0467 93.4187 23.76 93.2854 23.44C93.1587 23.1133 93.0954 22.7667 93.0954 22.4C93.0954 21.9067 93.2087 21.4567 93.4354 21.05C93.6621 20.6367 93.9787 20.3067 94.3854 20.06C94.7921 19.8067 95.2687 19.68 95.8154 19.68C96.3621 19.68 96.8321 19.8067 97.2254 20.06C97.6254 20.3067 97.9354 20.6333 98.1554 21.04C98.3754 21.4467 98.4854 21.8833 98.4854 22.35C98.4854 22.43 98.4821 22.5067 98.4754 22.58C98.4687 22.6467 98.4621 22.7033 98.4554 22.75H94.2654C94.2854 23.0567 94.3687 23.3267 94.5154 23.56C94.6687 23.7867 94.8621 23.9667 95.0954 24.1C95.3287 24.2267 95.5787 24.29 95.8454 24.29C96.1387 24.29 96.4154 24.2167 96.6754 24.07C96.9421 23.9233 97.1221 23.73 97.2154 23.49L98.1554 23.76C98.0421 24.0133 97.8687 24.2433 97.6354 24.45C97.4087 24.65 97.1387 24.81 96.8254 24.93C96.5121 25.0433 96.1721 25.1 95.8054 25.1ZM94.2354 22.02H97.3954C97.3754 21.72 97.2887 21.4567 97.1354 21.23C96.9887 20.9967 96.7987 20.8167 96.5654 20.69C96.3387 20.5567 96.0854 20.49 95.8054 20.49C95.5321 20.49 95.2787 20.5567 95.0454 20.69C94.8187 20.8167 94.6321 20.9967 94.4854 21.23C94.3387 21.4567 94.2554 21.72 94.2354 22.02ZM101.243 25.1C100.803 25.1 100.386 25.03 99.9927 24.89C99.5993 24.7433 99.2627 24.5267 98.9827 24.24L99.3927 23.5C99.6927 23.7667 99.9927 23.96 100.293 24.08C100.599 24.2 100.903 24.26 101.203 24.26C101.509 24.26 101.759 24.2033 101.953 24.09C102.146 23.97 102.243 23.7967 102.243 23.57C102.243 23.4033 102.193 23.28 102.093 23.2C101.993 23.12 101.846 23.05 101.653 22.99C101.466 22.93 101.239 22.8633 100.973 22.79C100.599 22.6767 100.286 22.56 100.033 22.44C99.7793 22.3133 99.5893 22.16 99.4627 21.98C99.336 21.8 99.2727 21.57 99.2727 21.29C99.2727 20.95 99.3593 20.66 99.5327 20.42C99.706 20.18 99.946 19.9967 100.253 19.87C100.566 19.7433 100.926 19.68 101.333 19.68C101.713 19.68 102.063 19.74 102.383 19.86C102.709 19.9733 102.996 20.1533 103.243 20.4L102.773 21.13C102.539 20.9167 102.299 20.76 102.053 20.66C101.813 20.56 101.553 20.51 101.273 20.51C101.113 20.51 100.959 20.53 100.813 20.57C100.666 20.6033 100.543 20.67 100.443 20.77C100.349 20.8633 100.303 20.9967 100.303 21.17C100.303 21.31 100.343 21.4233 100.423 21.51C100.503 21.5967 100.623 21.67 100.783 21.73C100.943 21.79 101.139 21.8567 101.373 21.93C101.779 22.05 102.126 22.17 102.413 22.29C102.699 22.4033 102.919 22.5533 103.073 22.74C103.233 22.92 103.313 23.17 103.313 23.49C103.313 23.9967 103.123 24.3933 102.743 24.68C102.369 24.96 101.869 25.1 101.243 25.1ZM106.155 25.1C105.715 25.1 105.298 25.03 104.905 24.89C104.511 24.7433 104.175 24.5267 103.895 24.24L104.305 23.5C104.605 23.7667 104.905 23.96 105.205 24.08C105.511 24.2 105.815 24.26 106.115 24.26C106.421 24.26 106.671 24.2033 106.865 24.09C107.058 23.97 107.155 23.7967 107.155 23.57C107.155 23.4033 107.105 23.28 107.005 23.2C106.905 23.12 106.758 23.05 106.565 22.99C106.378 22.93 106.151 22.8633 105.885 22.79C105.511 22.6767 105.198 22.56 104.945 22.44C104.691 22.3133 104.501 22.16 104.375 21.98C104.248 21.8 104.185 21.57 104.185 21.29C104.185 20.95 104.271 20.66 104.445 20.42C104.618 20.18 104.858 19.9967 105.165 19.87C105.478 19.7433 105.838 19.68 106.245 19.68C106.625 19.68 106.975 19.74 107.295 19.86C107.621 19.9733 107.908 20.1533 108.155 20.4L107.685 21.13C107.451 20.9167 107.211 20.76 106.965 20.66C106.725 20.56 106.465 20.51 106.185 20.51C106.025 20.51 105.871 20.53 105.725 20.57C105.578 20.6033 105.455 20.67 105.355 20.77C105.261 20.8633 105.215 20.9967 105.215 21.17C105.215 21.31 105.255 21.4233 105.335 21.51C105.415 21.5967 105.535 21.67 105.695 21.73C105.855 21.79 106.051 21.8567 106.285 21.93C106.691 22.05 107.038 22.17 107.325 22.29C107.611 22.4033 107.831 22.5533 107.985 22.74C108.145 22.92 108.225 23.17 108.225 23.49C108.225 23.9967 108.035 24.3933 107.655 24.68C107.281 24.96 106.781 25.1 106.155 25.1ZM117.207 25H116.107V22.07C116.107 21.5833 116.027 21.2267 115.867 21C115.707 20.7733 115.474 20.66 115.167 20.66C114.86 20.66 114.574 20.7767 114.307 21.01C114.047 21.2367 113.864 21.5333 113.757 21.9V25H112.657V22.07C112.657 21.5833 112.577 21.2267 112.417 21C112.257 20.7733 112.027 20.66 111.727 20.66C111.42 20.66 111.134 20.7733 110.867 21C110.607 21.2267 110.42 21.5233 110.307 21.89V25H109.207V19.77H110.207V20.82C110.414 20.4533 110.684 20.1733 111.017 19.98C111.357 19.78 111.744 19.68 112.177 19.68C112.61 19.68 112.95 19.7933 113.197 20.02C113.45 20.2467 113.607 20.53 113.667 20.87C113.894 20.4833 114.17 20.19 114.497 19.99C114.83 19.7833 115.21 19.68 115.637 19.68C115.944 19.68 116.2 19.7367 116.407 19.85C116.614 19.9633 116.774 20.12 116.887 20.32C117 20.5133 117.08 20.74 117.127 21C117.18 21.2533 117.207 21.5233 117.207 21.81V25ZM120.844 25.1C120.438 25.1 120.068 25.03 119.734 24.89C119.408 24.7433 119.124 24.5467 118.884 24.3C118.644 24.0467 118.458 23.76 118.324 23.44C118.198 23.1133 118.134 22.7667 118.134 22.4C118.134 21.9067 118.248 21.4567 118.474 21.05C118.701 20.6367 119.018 20.3067 119.424 20.06C119.831 19.8067 120.308 19.68 120.854 19.68C121.401 19.68 121.871 19.8067 122.264 20.06C122.664 20.3067 122.974 20.6333 123.194 21.04C123.414 21.4467 123.524 21.8833 123.524 22.35C123.524 22.43 123.521 22.5067 123.514 22.58C123.508 22.6467 123.501 22.7033 123.494 22.75H119.304C119.324 23.0567 119.408 23.3267 119.554 23.56C119.708 23.7867 119.901 23.9667 120.134 24.1C120.368 24.2267 120.618 24.29 120.884 24.29C121.178 24.29 121.454 24.2167 121.714 24.07C121.981 23.9233 122.161 23.73 122.254 23.49L123.194 23.76C123.081 24.0133 122.908 24.2433 122.674 24.45C122.448 24.65 122.178 24.81 121.864 24.93C121.551 25.0433 121.211 25.1 120.844 25.1ZM119.274 22.02H122.434C122.414 21.72 122.328 21.4567 122.174 21.23C122.028 20.9967 121.838 20.8167 121.604 20.69C121.378 20.5567 121.124 20.49 120.844 20.49C120.571 20.49 120.318 20.5567 120.084 20.69C119.858 20.8167 119.671 20.9967 119.524 21.23C119.378 21.4567 119.294 21.72 119.274 22.02ZM129.112 25H128.012V22.07C128.012 21.5833 127.932 21.2267 127.772 21C127.618 20.7733 127.388 20.66 127.082 20.66C126.868 20.66 126.655 20.7133 126.442 20.82C126.235 20.9267 126.048 21.0733 125.882 21.26C125.715 21.44 125.595 21.65 125.522 21.89V25H124.422V19.77H125.422V20.82C125.555 20.5867 125.728 20.3867 125.942 20.22C126.162 20.0467 126.408 19.9133 126.682 19.82C126.955 19.7267 127.245 19.68 127.552 19.68C127.865 19.68 128.122 19.7367 128.322 19.85C128.528 19.9633 128.688 20.12 128.802 20.32C128.922 20.5133 129.002 20.74 129.042 21C129.088 21.2533 129.112 21.5233 129.112 21.81V25ZM133.259 24.73C133.166 24.7767 133.049 24.8267 132.909 24.88C132.769 24.9333 132.609 24.98 132.429 25.02C132.256 25.06 132.076 25.08 131.889 25.08C131.663 25.08 131.453 25.04 131.259 24.96C131.066 24.88 130.909 24.7533 130.789 24.58C130.676 24.4 130.619 24.17 130.619 23.89V20.62H129.929V19.77H130.619V18.05H131.719V19.77H132.859V20.62H131.719V23.54C131.733 23.72 131.789 23.8533 131.889 23.94C131.996 24.0267 132.126 24.07 132.279 24.07C132.433 24.07 132.579 24.0433 132.719 23.99C132.859 23.9367 132.963 23.8933 133.029 23.86L133.259 24.73Z" fill="#00625B"/>
<rect x="152.5" y="12" width="80" height="18" rx="8" fill="#17B26A"/>
<path d="M182.773 21.0909C182.773 21.7178 182.655 22.2547 182.42 22.7017C182.188 23.1468 181.869 23.4877 181.466 23.7244C181.064 23.9612 180.609 24.0795 180.099 24.0795C179.59 24.0795 179.134 23.9612 178.73 23.7244C178.329 23.4858 178.01 23.1439 177.776 22.6989C177.543 22.2519 177.426 21.7159 177.426 21.0909C177.426 20.464 177.543 19.928 177.776 19.483C178.01 19.036 178.329 18.6941 178.73 18.4574C179.134 18.2206 179.59 18.1023 180.099 18.1023C180.609 18.1023 181.064 18.2206 181.466 18.4574C181.869 18.6941 182.188 19.036 182.42 19.483C182.655 19.928 182.773 20.464 182.773 21.0909ZM181.713 21.0909C181.713 20.6496 181.644 20.2775 181.506 19.9744C181.369 19.6695 181.18 19.4394 180.938 19.2841C180.695 19.1269 180.416 19.0483 180.099 19.0483C179.783 19.0483 179.504 19.1269 179.261 19.2841C179.019 19.4394 178.829 19.6695 178.69 19.9744C178.554 20.2775 178.486 20.6496 178.486 21.0909C178.486 21.5322 178.554 21.9053 178.69 22.2102C178.829 22.5133 179.019 22.7434 179.261 22.9006C179.504 23.0559 179.783 23.1335 180.099 23.1335C180.416 23.1335 180.695 23.0559 180.938 22.9006C181.18 22.7434 181.369 22.5133 181.506 22.2102C181.644 21.9053 181.713 21.5322 181.713 21.0909ZM183.724 25.6364V19.6364H184.735V20.358H184.795C184.848 20.2519 184.923 20.1392 185.019 20.0199C185.116 19.8987 185.246 19.7955 185.411 19.7102C185.576 19.6231 185.786 19.5795 186.042 19.5795C186.379 19.5795 186.683 19.6657 186.954 19.8381C187.227 20.0085 187.442 20.2614 187.602 20.5966C187.763 20.9299 187.843 21.339 187.843 21.8239C187.843 22.303 187.764 22.7102 187.607 23.0455C187.45 23.3807 187.236 23.6364 186.965 23.8125C186.694 23.9886 186.388 24.0767 186.045 24.0767C185.795 24.0767 185.587 24.035 185.423 23.9517C185.258 23.8684 185.125 23.768 185.025 23.6506C184.926 23.5312 184.85 23.4186 184.795 23.3125H184.752V25.6364H183.724ZM184.732 21.8182C184.732 22.1004 184.772 22.3475 184.852 22.5597C184.933 22.7718 185.049 22.9375 185.201 23.0568C185.354 23.1742 185.54 23.233 185.758 23.233C185.985 23.233 186.175 23.1723 186.329 23.0511C186.482 22.928 186.598 22.7604 186.675 22.5483C186.755 22.3343 186.795 22.0909 186.795 21.8182C186.795 21.5473 186.756 21.3068 186.678 21.0966C186.601 20.8864 186.485 20.7216 186.332 20.6023C186.178 20.483 185.987 20.4233 185.758 20.4233C185.538 20.4233 185.352 20.4811 185.198 20.5966C185.045 20.7121 184.928 20.8741 184.849 21.0824C184.771 21.2907 184.732 21.536 184.732 21.8182ZM190.903 19.6364V20.4318H188.394V19.6364H190.903ZM189.013 18.5909H190.042V22.6875C190.042 22.8258 190.063 22.9318 190.104 23.0057C190.148 23.0777 190.205 23.1269 190.275 23.1534C190.345 23.1799 190.423 23.1932 190.508 23.1932C190.572 23.1932 190.631 23.1884 190.684 23.179C190.739 23.1695 190.781 23.161 190.809 23.1534L190.982 23.9574C190.927 23.9763 190.849 23.9972 190.746 24.0199C190.646 24.0426 190.523 24.0559 190.377 24.0597C190.12 24.0672 189.888 24.0284 189.681 23.9432C189.475 23.8561 189.311 23.7216 189.19 23.5398C189.07 23.358 189.012 23.1307 189.013 22.858V18.5909ZM191.763 24V19.6364H192.791V24H191.763ZM192.28 19.017C192.117 19.017 191.977 18.9631 191.859 18.8551C191.742 18.7453 191.683 18.6136 191.683 18.4602C191.683 18.3049 191.742 18.1733 191.859 18.0653C191.977 17.9555 192.117 17.9006 192.28 17.9006C192.445 17.9006 192.585 17.9555 192.7 18.0653C192.818 18.1733 192.876 18.3049 192.876 18.4602C192.876 18.6136 192.818 18.7453 192.7 18.8551C192.585 18.9631 192.445 19.017 192.28 19.017ZM193.849 24V19.6364H194.832V20.3778H194.883C194.974 20.1278 195.124 19.9328 195.335 19.7926C195.545 19.6506 195.796 19.5795 196.087 19.5795C196.383 19.5795 196.632 19.6515 196.835 19.7955C197.039 19.9375 197.183 20.1316 197.266 20.3778H197.312C197.408 20.1354 197.571 19.9422 197.8 19.7983C198.031 19.6525 198.305 19.5795 198.621 19.5795C199.023 19.5795 199.351 19.7064 199.604 19.9602C199.858 20.214 199.985 20.5843 199.985 21.071V24H198.954V21.2301C198.954 20.9593 198.882 20.7614 198.738 20.6364C198.594 20.5095 198.418 20.446 198.21 20.446C197.961 20.446 197.767 20.5237 197.627 20.679C197.489 20.8324 197.42 21.0322 197.42 21.2784V24H196.411V21.1875C196.411 20.9621 196.343 20.7822 196.207 20.6477C196.072 20.5133 195.896 20.446 195.678 20.446C195.531 20.446 195.396 20.4839 195.275 20.5597C195.154 20.6335 195.057 20.7386 194.985 20.875C194.913 21.0095 194.877 21.1667 194.877 21.3466V24H193.849ZM202.284 24.0881C202.008 24.0881 201.759 24.0388 201.537 23.9403C201.317 23.84 201.143 23.6922 201.014 23.4972C200.887 23.3021 200.824 23.0616 200.824 22.7756C200.824 22.5294 200.869 22.3258 200.96 22.1648C201.051 22.0038 201.175 21.875 201.332 21.7784C201.49 21.6818 201.667 21.6089 201.864 21.5597C202.063 21.5085 202.268 21.4716 202.48 21.4489C202.736 21.4223 202.943 21.3987 203.102 21.3778C203.261 21.3551 203.377 21.321 203.449 21.2756C203.523 21.2282 203.56 21.1553 203.56 21.0568V21.0398C203.56 20.8258 203.496 20.66 203.369 20.5426C203.242 20.4252 203.06 20.3665 202.821 20.3665C202.569 20.3665 202.369 20.4214 202.222 20.5312C202.076 20.6411 201.977 20.7708 201.926 20.9205L200.966 20.7841C201.042 20.5189 201.167 20.2973 201.341 20.1193C201.515 19.9394 201.728 19.8049 201.98 19.7159C202.232 19.625 202.51 19.5795 202.815 19.5795C203.026 19.5795 203.235 19.6042 203.443 19.6534C203.652 19.7027 203.842 19.7841 204.014 19.8977C204.187 20.0095 204.325 20.1619 204.429 20.3551C204.535 20.5483 204.588 20.7898 204.588 21.0795V24H203.599V23.4006H203.565C203.503 23.5218 203.415 23.6354 203.301 23.7415C203.189 23.8456 203.048 23.9299 202.878 23.9943C202.709 24.0568 202.511 24.0881 202.284 24.0881ZM202.551 23.3324C202.758 23.3324 202.937 23.2917 203.088 23.2102C203.24 23.1269 203.356 23.017 203.438 22.8807C203.521 22.7443 203.562 22.5956 203.562 22.4347V21.9205C203.53 21.947 203.475 21.9716 203.398 21.9943C203.322 22.017 203.237 22.0369 203.142 22.054C203.047 22.071 202.954 22.0862 202.861 22.0994C202.768 22.1127 202.688 22.1241 202.619 22.1335C202.466 22.1544 202.329 22.1884 202.207 22.2358C202.086 22.2831 201.991 22.3494 201.92 22.4347C201.85 22.518 201.815 22.6259 201.815 22.7585C201.815 22.9479 201.884 23.0909 202.023 23.1875C202.161 23.2841 202.337 23.3324 202.551 23.3324ZM206.651 18.1818V24H205.622V18.1818H206.651Z" fill="#EFEFEF"/>
<path d="M44.5014 51.1662C43.7997 51.1662 43.1974 50.9886 42.6946 50.6335C42.1946 50.2756 41.8097 49.7599 41.5398 49.0866C41.2727 48.4105 41.1392 47.5966 41.1392 46.6449C41.142 45.6932 41.277 44.8835 41.544 44.2159C41.8139 43.5455 42.1989 43.0341 42.6989 42.6818C43.2017 42.3295 43.8026 42.1534 44.5014 42.1534C45.2003 42.1534 45.8011 42.3295 46.304 42.6818C46.8068 43.0341 47.1918 43.5455 47.4588 44.2159C47.7287 44.8864 47.8636 45.696 47.8636 46.6449C47.8636 47.5994 47.7287 48.4148 47.4588 49.0909C47.1918 49.7642 46.8068 50.2784 46.304 50.6335C45.804 50.9886 45.2031 51.1662 44.5014 51.1662ZM44.5014 49.8324C45.0469 49.8324 45.4773 49.5639 45.7926 49.027C46.1108 48.4872 46.2699 47.6932 46.2699 46.6449C46.2699 45.9517 46.1974 45.3693 46.0526 44.8977C45.9077 44.4261 45.7031 44.071 45.4389 43.8324C45.1747 43.5909 44.8622 43.4702 44.5014 43.4702C43.9588 43.4702 43.5298 43.7401 43.2145 44.2798C42.8991 44.8168 42.7401 45.6051 42.7372 46.6449C42.7344 47.3409 42.804 47.9261 42.946 48.4006C43.0909 48.875 43.2955 49.233 43.5597 49.4744C43.8239 49.7131 44.1378 49.8324 44.5014 49.8324ZM52.5053 51.1662C51.8036 51.1662 51.2013 50.9886 50.6985 50.6335C50.1985 50.2756 49.8136 49.7599 49.5437 49.0866C49.2766 48.4105 49.1431 47.5966 49.1431 46.6449C49.146 45.6932 49.2809 44.8835 49.5479 44.2159C49.8178 43.5455 50.2028 43.0341 50.7028 42.6818C51.2056 42.3295 51.8065 42.1534 52.5053 42.1534C53.2042 42.1534 53.805 42.3295 54.3079 42.6818C54.8107 43.0341 55.1957 43.5455 55.4627 44.2159C55.7326 44.8864 55.8675 45.696 55.8675 46.6449C55.8675 47.5994 55.7326 48.4148 55.4627 49.0909C55.1957 49.7642 54.8107 50.2784 54.3079 50.6335C53.8079 50.9886 53.207 51.1662 52.5053 51.1662ZM52.5053 49.8324C53.0508 49.8324 53.4812 49.5639 53.7965 49.027C54.1147 48.4872 54.2738 47.6932 54.2738 46.6449C54.2738 45.9517 54.2013 45.3693 54.0565 44.8977C53.9116 44.4261 53.707 44.071 53.4428 43.8324C53.1786 43.5909 52.8661 43.4702 52.5053 43.4702C51.9627 43.4702 51.5337 43.7401 51.2184 44.2798C50.9031 44.8168 50.744 45.6051 50.7411 46.6449C50.7383 47.3409 50.8079 47.9261 50.9499 48.4006C51.0948 48.875 51.2994 49.233 51.5636 49.4744C51.8278 49.7131 52.1417 49.8324 52.5053 49.8324ZM57.9109 51.0938C57.6523 51.0938 57.4308 51.0028 57.2461 50.821C57.0614 50.6392 56.9705 50.4176 56.9734 50.1562C56.9705 49.9006 57.0614 49.6818 57.2461 49.5C57.4308 49.3182 57.6523 49.2273 57.9109 49.2273C58.1609 49.2273 58.3782 49.3182 58.5629 49.5C58.7504 49.6818 58.8455 49.9006 58.8484 50.1562C58.8455 50.3295 58.8001 50.4872 58.712 50.6293C58.6268 50.7713 58.5131 50.8849 58.3711 50.9702C58.2319 51.0526 58.0785 51.0938 57.9109 51.0938ZM63.31 51.1662C62.6083 51.1662 62.006 50.9886 61.5032 50.6335C61.0032 50.2756 60.6183 49.7599 60.3484 49.0866C60.0813 48.4105 59.9478 47.5966 59.9478 46.6449C59.9506 45.6932 60.0856 44.8835 60.3526 44.2159C60.6225 43.5455 61.0075 43.0341 61.5075 42.6818C62.0103 42.3295 62.6112 42.1534 63.31 42.1534C64.0089 42.1534 64.6097 42.3295 65.1126 42.6818C65.6154 43.0341 66.0004 43.5455 66.2674 44.2159C66.5373 44.8864 66.6722 45.696 66.6722 46.6449C66.6722 47.5994 66.5373 48.4148 66.2674 49.0909C66.0004 49.7642 65.6154 50.2784 65.1126 50.6335C64.6126 50.9886 64.0117 51.1662 63.31 51.1662ZM63.31 49.8324C63.8555 49.8324 64.2859 49.5639 64.6012 49.027C64.9194 48.4872 65.0785 47.6932 65.0785 46.6449C65.0785 45.9517 65.006 45.3693 64.8612 44.8977C64.7163 44.4261 64.5117 44.071 64.2475 43.8324C63.9833 43.5909 63.6708 43.4702 63.31 43.4702C62.7674 43.4702 62.3384 43.7401 62.0231 44.2798C61.7077 44.8168 61.5487 45.6051 61.5458 46.6449C61.543 47.3409 61.6126 47.9261 61.7546 48.4006C61.8995 48.875 62.104 49.233 62.3683 49.4744C62.6325 49.7131 62.9464 49.8324 63.31 49.8324ZM72.7543 49.3636V48.9034C72.7543 48.5653 72.8253 48.2543 72.9673 47.9702C73.1122 47.6861 73.3224 47.4574 73.598 47.2841C73.8736 47.1108 74.2074 47.0241 74.5994 47.0241C75.0028 47.0241 75.3409 47.1108 75.6136 47.2841C75.8864 47.4545 76.0923 47.6818 76.2315 47.9659C76.3736 48.25 76.4446 48.5625 76.4446 48.9034V49.3636C76.4446 49.7017 76.3736 50.0128 76.2315 50.2969C76.0895 50.581 75.8807 50.8097 75.6051 50.983C75.3324 51.1563 74.9972 51.2429 74.5994 51.2429C74.2017 51.2429 73.8651 51.1563 73.5895 50.983C73.3139 50.8097 73.1051 50.581 72.9631 50.2969C72.8239 50.0128 72.7543 49.7017 72.7543 49.3636ZM73.8665 48.9034V49.3636C73.8665 49.5881 73.9205 49.794 74.0284 49.9815C74.1364 50.169 74.3267 50.2628 74.5994 50.2628C74.875 50.2628 75.0639 50.1705 75.1662 49.9858C75.2713 49.7983 75.3239 49.5909 75.3239 49.3636V48.9034C75.3239 48.6761 75.2741 48.4688 75.1747 48.2812C75.0753 48.0909 74.8835 47.9957 74.5994 47.9957C74.3324 47.9957 74.1435 48.0909 74.0327 48.2812C73.9219 48.4688 73.8665 48.6761 73.8665 48.9034ZM68.3182 44.3693V43.9091C68.3182 43.5682 68.3906 43.2557 68.5355 42.9716C68.6804 42.6875 68.8906 42.4602 69.1662 42.2898C69.4418 42.1165 69.7756 42.0298 70.1676 42.0298C70.5682 42.0298 70.9048 42.1165 71.1776 42.2898C71.4531 42.4602 71.6605 42.6875 71.7997 42.9716C71.9389 43.2557 72.0085 43.5682 72.0085 43.9091V44.3693C72.0085 44.7102 71.9375 45.0227 71.7955 45.3068C71.6563 45.5881 71.4489 45.8139 71.1733 45.9844C70.8977 46.1548 70.5625 46.2401 70.1676 46.2401C69.767 46.2401 69.429 46.1548 69.1534 45.9844C68.8807 45.8139 68.6733 45.5866 68.5312 45.3026C68.3892 45.0185 68.3182 44.7074 68.3182 44.3693ZM69.4389 43.9091V44.3693C69.4389 44.5966 69.4915 44.804 69.5966 44.9915C69.7045 45.1761 69.8949 45.2685 70.1676 45.2685C70.4403 45.2685 70.6278 45.1761 70.7301 44.9915C70.8352 44.804 70.8878 44.5966 70.8878 44.3693V43.9091C70.8878 43.6818 70.8381 43.4744 70.7386 43.2869C70.6392 43.0966 70.4489 43.0014 70.1676 43.0014C69.8977 43.0014 69.7088 43.0966 69.6009 43.2869C69.4929 43.4773 69.4389 43.6847 69.4389 43.9091ZM68.804 51L74.804 42.2727H75.8693L69.8693 51H68.804Z" fill="#003632"/>
<path d="M83 50.0795C82.572 50.0795 82.2074 49.9631 81.9062 49.7301C81.6051 49.4953 81.375 49.1553 81.2159 48.7102C81.0568 48.2633 80.9773 47.7235 80.9773 47.0909C80.9773 46.4621 81.0568 45.9252 81.2159 45.4801C81.3769 45.0331 81.608 44.6922 81.9091 44.4574C82.2121 44.2206 82.5758 44.1023 83 44.1023C83.4242 44.1023 83.7869 44.2206 84.0881 44.4574C84.3911 44.6922 84.6222 45.0331 84.7812 45.4801C84.9422 45.9252 85.0227 46.4621 85.0227 47.0909C85.0227 47.7235 84.9432 48.2633 84.7841 48.7102C84.625 49.1553 84.3949 49.4953 84.0938 49.7301C83.7926 49.9631 83.428 50.0795 83 50.0795ZM83 49.4545C83.4242 49.4545 83.7538 49.25 83.9886 48.8409C84.2235 48.4318 84.3409 47.8485 84.3409 47.0909C84.3409 46.5871 84.2869 46.1581 84.179 45.804C84.0729 45.4498 83.9195 45.1799 83.7188 44.9943C83.5199 44.8087 83.2803 44.7159 83 44.7159C82.5795 44.7159 82.2509 44.9233 82.0142 45.3381C81.7775 45.7509 81.6591 46.3352 81.6591 47.0909C81.6591 47.5947 81.7121 48.0227 81.8182 48.375C81.9242 48.7273 82.0767 48.9953 82.2756 49.179C82.4763 49.3627 82.7178 49.4545 83 49.4545ZM88 50.0795C87.572 50.0795 87.2074 49.9631 86.9062 49.7301C86.6051 49.4953 86.375 49.1553 86.2159 48.7102C86.0568 48.2633 85.9773 47.7235 85.9773 47.0909C85.9773 46.4621 86.0568 45.9252 86.2159 45.4801C86.3769 45.0331 86.608 44.6922 86.9091 44.4574C87.2121 44.2206 87.5758 44.1023 88 44.1023C88.4242 44.1023 88.7869 44.2206 89.0881 44.4574C89.3911 44.6922 89.6222 45.0331 89.7812 45.4801C89.9422 45.9252 90.0227 46.4621 90.0227 47.0909C90.0227 47.7235 89.9432 48.2633 89.7841 48.7102C89.625 49.1553 89.3949 49.4953 89.0938 49.7301C88.7926 49.9631 88.428 50.0795 88 50.0795ZM88 49.4545C88.4242 49.4545 88.7538 49.25 88.9886 48.8409C89.2235 48.4318 89.3409 47.8485 89.3409 47.0909C89.3409 46.5871 89.2869 46.1581 89.179 45.804C89.0729 45.4498 88.9195 45.1799 88.7188 44.9943C88.5199 44.8087 88.2803 44.7159 88 44.7159C87.5795 44.7159 87.2509 44.9233 87.0142 45.3381C86.7775 45.7509 86.6591 46.3352 86.6591 47.0909C86.6591 47.5947 86.7121 48.0227 86.8182 48.375C86.9242 48.7273 87.0767 48.9953 87.2756 49.179C87.4763 49.3627 87.7178 49.4545 88 49.4545Z" fill="#667085"/>
<path d="M206 50.0795C205.572 50.0795 205.207 49.9631 204.906 49.7301C204.605 49.4953 204.375 49.1553 204.216 48.7102C204.057 48.2633 203.977 47.7235 203.977 47.0909C203.977 46.4621 204.057 45.9252 204.216 45.4801C204.377 45.0331 204.608 44.6922 204.909 44.4574C205.212 44.2206 205.576 44.1023 206 44.1023C206.424 44.1023 206.787 44.2206 207.088 44.4574C207.391 44.6922 207.622 45.0331 207.781 45.4801C207.942 45.9252 208.023 46.4621 208.023 47.0909C208.023 47.7235 207.943 48.2633 207.784 48.7102C207.625 49.1553 207.395 49.4953 207.094 49.7301C206.793 49.9631 206.428 50.0795 206 50.0795ZM206 49.4545C206.424 49.4545 206.754 49.25 206.989 48.8409C207.223 48.4318 207.341 47.8485 207.341 47.0909C207.341 46.5871 207.287 46.1581 207.179 45.804C207.073 45.4498 206.92 45.1799 206.719 44.9943C206.52 44.8087 206.28 44.7159 206 44.7159C205.58 44.7159 205.251 44.9233 205.014 45.3381C204.777 45.7509 204.659 46.3352 204.659 47.0909C204.659 47.5947 204.712 48.0227 204.818 48.375C204.924 48.7273 205.077 48.9953 205.276 49.179C205.476 49.3627 205.718 49.4545 206 49.4545ZM211 50.0795C210.572 50.0795 210.207 49.9631 209.906 49.7301C209.605 49.4953 209.375 49.1553 209.216 48.7102C209.057 48.2633 208.977 47.7235 208.977 47.0909C208.977 46.4621 209.057 45.9252 209.216 45.4801C209.377 45.0331 209.608 44.6922 209.909 44.4574C210.212 44.2206 210.576 44.1023 211 44.1023C211.424 44.1023 211.787 44.2206 212.088 44.4574C212.391 44.6922 212.622 45.0331 212.781 45.4801C212.942 45.9252 213.023 46.4621 213.023 47.0909C213.023 47.7235 212.943 48.2633 212.784 48.7102C212.625 49.1553 212.395 49.4953 212.094 49.7301C211.793 49.9631 211.428 50.0795 211 50.0795ZM211 49.4545C211.424 49.4545 211.754 49.25 211.989 48.8409C212.223 48.4318 212.341 47.8485 212.341 47.0909C212.341 46.5871 212.287 46.1581 212.179 45.804C212.073 45.4498 211.92 45.1799 211.719 44.9943C211.52 44.8087 211.28 44.7159 211 44.7159C210.58 44.7159 210.251 44.9233 210.014 45.3381C209.777 45.7509 209.659 46.3352 209.659 47.0909C209.659 47.5947 209.712 48.0227 209.818 48.375C209.924 48.7273 210.077 48.9953 210.276 49.179C210.476 49.3627 210.718 49.4545 211 49.4545ZM218.864 46.7784V47.4034H216.318V46.7784H218.864ZM224.18 50.0795C223.752 50.0795 223.387 49.9631 223.086 49.7301C222.785 49.4953 222.555 49.1553 222.396 48.7102C222.237 48.2633 222.157 47.7235 222.157 47.0909C222.157 46.4621 222.237 45.9252 222.396 45.4801C222.557 45.0331 222.788 44.6922 223.089 44.4574C223.392 44.2206 223.755 44.1023 224.18 44.1023C224.604 44.1023 224.967 44.2206 225.268 44.4574C225.571 44.6922 225.802 45.0331 225.961 45.4801C226.122 45.9252 226.202 46.4621 226.202 47.0909C226.202 47.7235 226.123 48.2633 225.964 48.7102C225.805 49.1553 225.575 49.4953 225.273 49.7301C224.972 49.9631 224.608 50.0795 224.18 50.0795ZM224.18 49.4545C224.604 49.4545 224.933 49.25 225.168 48.8409C225.403 48.4318 225.521 47.8485 225.521 47.0909C225.521 46.5871 225.467 46.1581 225.359 45.804C225.253 45.4498 225.099 45.1799 224.898 44.9943C224.7 44.8087 224.46 44.7159 224.18 44.7159C223.759 44.7159 223.431 44.9233 223.194 45.3381C222.957 45.7509 222.839 46.3352 222.839 47.0909C222.839 47.5947 222.892 48.0227 222.998 48.375C223.104 48.7273 223.256 48.9953 223.455 49.179C223.656 49.3627 223.897 49.4545 224.18 49.4545ZM229.18 50.0795C228.752 50.0795 228.387 49.9631 228.086 49.7301C227.785 49.4953 227.555 49.1553 227.396 48.7102C227.237 48.2633 227.157 47.7235 227.157 47.0909C227.157 46.4621 227.237 45.9252 227.396 45.4801C227.557 45.0331 227.788 44.6922 228.089 44.4574C228.392 44.2206 228.755 44.1023 229.18 44.1023C229.604 44.1023 229.967 44.2206 230.268 44.4574C230.571 44.6922 230.802 45.0331 230.961 45.4801C231.122 45.9252 231.202 46.4621 231.202 47.0909C231.202 47.7235 231.123 48.2633 230.964 48.7102C230.805 49.1553 230.575 49.4953 230.273 49.7301C229.972 49.9631 229.608 50.0795 229.18 50.0795ZM229.18 49.4545C229.604 49.4545 229.933 49.25 230.168 48.8409C230.403 48.4318 230.521 47.8485 230.521 47.0909C230.521 46.5871 230.467 46.1581 230.359 45.804C230.253 45.4498 230.099 45.1799 229.898 44.9943C229.7 44.8087 229.46 44.7159 229.18 44.7159C228.759 44.7159 228.431 44.9233 228.194 45.3381C227.957 45.7509 227.839 46.3352 227.839 47.0909C227.839 47.5947 227.892 48.0227 227.998 48.375C228.104 48.7273 228.256 48.9953 228.455 49.179C228.656 49.3627 228.897 49.4545 229.18 49.4545Z" fill="#667085"/>
</svg>
