<svg width="241" height="68" viewBox="0 0 241 68" fill="none" xmlns="http://www.w3.org/2000/svg">
<rect x="0.55" y="0.05" width="239.9" height="67.9" rx="15.95" fill="white"/>
<rect x="0.55" y="0.05" width="239.9" height="67.9" rx="15.95" stroke="#00625B" stroke-width="0.1"/>
<path d="M20.9508 26.3767C20.0136 26.3767 19.2512 27.1391 19.2512 28.0789C19.2537 29.0152 20.0161 29.7759 20.9508 29.7759C21.888 29.7759 22.6504 29.0135 22.6504 28.0763C22.6504 27.1391 21.888 26.3767 20.9508 26.3767ZM20.9508 29.1036C20.3857 29.1036 19.9253 28.6432 19.9236 28.0773C19.9236 27.5113 20.3839 27.0509 20.9508 27.0509C21.5167 27.0509 21.9771 27.5113 21.9771 28.0773C21.9771 28.6432 21.5167 29.1036 20.9508 29.1036ZM27.3909 40.6531L26.0115 32.8941C25.9267 32.4294 25.4784 32.1179 25.0137 32.1992L24.7878 32.2399L24.0228 27.9363C23.9484 26.2869 22.6062 25 20.9508 25C19.3056 25 17.9323 26.3301 17.876 27.97L17.1162 32.239L16.8886 32.1984C16.4239 32.117 15.9765 32.4286 15.8917 32.8941L14.5304 40.551C14.4396 41.0633 14.5538 41.5799 14.8515 42.0065C15.1492 42.4332 15.5957 42.7179 16.108 42.8088L16.4378 42.8676C16.5537 42.8884 16.6697 42.8988 16.7848 42.8988C17.1794 42.8988 17.5636 42.7785 17.8942 42.5483C18.3208 42.2506 18.6055 41.8049 18.6956 41.2926L20.0568 33.6364C20.0975 33.4106 20.0481 33.1821 19.9166 32.9943C19.7851 32.8057 19.5869 32.6793 19.361 32.6404L19.1343 32.5997L19.4597 30.7685C19.9123 31.0195 20.4255 31.1545 20.949 31.1545C21.4735 31.1545 21.9884 31.0186 22.4418 30.7668L22.7681 32.5997L22.5422 32.6395C22.3155 32.6793 22.1182 32.8048 21.9858 32.9934C21.8543 33.1812 21.8032 33.4097 21.843 33.6364L23.2233 41.3938C23.3142 41.9061 23.5989 42.3518 24.0247 42.6495C24.3553 42.8806 24.7395 43 25.1341 43C25.2492 43 25.3652 42.9896 25.4803 42.9688L25.8108 42.91C26.324 42.8191 26.7705 42.5344 27.0682 42.1069C27.366 41.6803 27.4793 41.1637 27.3884 40.6522L27.3909 40.6531ZM19.3652 33.3786C19.3938 33.4193 19.4042 33.4678 19.3955 33.5162V33.5171L18.0343 41.174C17.9754 41.5089 17.7885 41.8005 17.5098 41.9952C17.2312 42.1899 16.8919 42.2643 16.557 42.2046L16.2265 42.1458C15.8916 42.0869 15.5999 41.9 15.4043 41.6213C15.2096 41.3427 15.1352 41.0035 15.1941 40.6686L16.5553 33.0133C16.5717 32.9215 16.6505 32.8584 16.7396 32.8584C16.7509 32.8584 16.7613 32.8592 16.7725 32.8609L17.3264 32.9596C17.3281 32.9596 17.329 32.9605 17.3307 32.9605L18.0966 33.0963L19.2449 33.3014C19.2943 33.3101 19.3367 33.3369 19.3652 33.3776L19.3652 33.3786ZM19.4336 29.9397C19.341 29.8635 19.2155 29.8428 19.103 29.8843C18.9905 29.9258 18.9092 30.0236 18.8884 30.1413L18.4721 32.4812L18.0299 32.4025L17.779 32.3575L18.5431 28.0643C18.5457 28.0478 18.5474 28.0305 18.5483 28.0141C18.5812 26.7238 19.6586 25.6742 20.9507 25.6742C22.2531 25.6742 23.3089 26.6936 23.353 27.9952V28.0022C23.3548 28.0273 23.3539 28.0532 23.3539 28.0783C23.3539 28.8009 23.032 29.4794 22.4695 29.9389C22.0428 30.2894 21.5028 30.4824 20.9498 30.4824C20.3969 30.4824 19.8586 30.2902 19.4337 29.9406L19.4336 29.9397ZM23.4308 32.4814L23.0466 30.3214C23.2811 30.1025 23.4767 29.8532 23.6299 29.5798L24.124 32.3585L23.8419 32.4087L23.4308 32.4814ZM26.5186 41.7229C26.3239 42.0024 26.0314 42.1894 25.6957 42.2482L25.3642 42.3071C25.0293 42.3668 24.6901 42.2924 24.4114 42.0976C24.1328 41.9029 23.9467 41.6113 23.887 41.2764L22.5067 33.519C22.498 33.4696 22.5093 33.4203 22.5378 33.3796C22.5664 33.339 22.6097 33.3113 22.6599 33.3026L23.8532 33.0897L24.5741 32.9617C24.5758 32.9617 24.5767 32.9608 24.5784 32.9608L25.1314 32.8621C25.1427 32.8604 25.153 32.8595 25.1643 32.8595C25.2534 32.8595 25.333 32.9236 25.3495 33.0136L26.7281 40.7719C26.7878 41.1068 26.7134 41.4443 26.5186 41.7238L26.5186 41.7229Z" fill="#00625B"/>
<path d="M44.2 25.05C43.7333 25.05 43.2967 24.9533 42.89 24.76C42.4833 24.5667 42.1267 24.3 41.82 23.96C41.52 23.62 41.2833 23.2333 41.11 22.8C40.9433 22.3667 40.86 21.9067 40.86 21.42C40.86 20.9333 40.9433 20.4767 41.11 20.05C41.2833 19.6233 41.52 19.2433 41.82 18.91C42.1267 18.5767 42.4833 18.3167 42.89 18.13C43.3033 17.9433 43.7533 17.85 44.24 17.85C44.9133 17.85 45.48 17.9933 45.94 18.28C46.4067 18.56 46.7567 18.9333 46.99 19.4L46.13 20.02C45.9433 19.6333 45.6767 19.3433 45.33 19.15C44.99 18.9567 44.6167 18.86 44.21 18.86C43.8767 18.86 43.5733 18.93 43.3 19.07C43.0267 19.21 42.79 19.4033 42.59 19.65C42.3967 19.89 42.25 20.1667 42.15 20.48C42.05 20.7867 42 21.11 42 21.45C42 21.81 42.0567 22.1467 42.17 22.46C42.2833 22.7733 42.4433 23.05 42.65 23.29C42.8567 23.5233 43.1 23.7067 43.38 23.84C43.66 23.9733 43.9633 24.04 44.29 24.04C44.6767 24.04 45.0433 23.9433 45.39 23.75C45.7433 23.55 46.0733 23.2533 46.38 22.86V24C45.76 24.7 45.0333 25.05 44.2 25.05ZM46.27 22.24H44.78V21.41H47.21V25H46.27V22.24ZM51.2875 20.72C50.8608 20.7267 50.4808 20.8233 50.1475 21.01C49.8208 21.1967 49.5875 21.46 49.4475 21.8V25H48.3475V19.77H49.3675V20.94C49.5475 20.58 49.7842 20.2933 50.0775 20.08C50.3708 19.86 50.6808 19.74 51.0075 19.72C51.0742 19.72 51.1275 19.72 51.1675 19.72C51.2142 19.72 51.2542 19.7233 51.2875 19.73V20.72ZM52.0877 25V19.77H53.1877V25H52.0877ZM52.0877 18.91V17.7H53.1877V18.91H52.0877ZM57.4796 25.1C57.0596 25.1 56.6896 25 56.3696 24.8C56.0496 24.6 55.7963 24.34 55.6096 24.02V27.13H54.5096V19.77H55.4796V20.71C55.6796 20.3967 55.9396 20.1467 56.2596 19.96C56.5796 19.7733 56.9363 19.68 57.3296 19.68C57.6896 19.68 58.0196 19.7533 58.3196 19.9C58.6196 20.04 58.8796 20.2367 59.0996 20.49C59.3196 20.7433 59.4896 21.0333 59.6096 21.36C59.7363 21.68 59.7996 22.02 59.7996 22.38C59.7996 22.88 59.6996 23.3367 59.4996 23.75C59.3063 24.1633 59.0329 24.4933 58.6796 24.74C58.3329 24.98 57.9329 25.1 57.4796 25.1ZM57.1196 24.16C57.3529 24.16 57.5629 24.11 57.7496 24.01C57.9429 23.91 58.1063 23.7767 58.2396 23.61C58.3796 23.4433 58.4863 23.2533 58.5596 23.04C58.6329 22.8267 58.6696 22.6067 58.6696 22.38C58.6696 22.14 58.6296 21.9133 58.5496 21.7C58.4696 21.4867 58.3529 21.3 58.1996 21.14C58.0529 20.98 57.8796 20.8533 57.6796 20.76C57.4863 20.6667 57.2729 20.62 57.0396 20.62C56.8996 20.62 56.7529 20.6467 56.5996 20.7C56.4463 20.7533 56.3029 20.8267 56.1696 20.92C56.0363 21.0133 55.9196 21.1233 55.8196 21.25C55.7196 21.3767 55.6496 21.51 55.6096 21.65V23.02C55.7029 23.2333 55.8263 23.4267 55.9796 23.6C56.1329 23.7667 56.3096 23.9033 56.5096 24.01C56.7096 24.11 56.9129 24.16 57.1196 24.16ZM67.5996 19.57C67.5329 19.4967 67.4363 19.42 67.3096 19.34C67.1829 19.2533 67.0329 19.1733 66.8596 19.1C66.6863 19.0267 66.4996 18.9667 66.2996 18.92C66.0996 18.8733 65.8929 18.85 65.6796 18.85C65.2129 18.85 64.8663 18.9367 64.6396 19.11C64.4129 19.2833 64.2996 19.5233 64.2996 19.83C64.2996 20.0567 64.3629 20.2367 64.4896 20.37C64.6163 20.4967 64.8096 20.6033 65.0696 20.69C65.3296 20.7767 65.6563 20.87 66.0496 20.97C66.5296 21.0833 66.9463 21.22 67.2996 21.38C67.6529 21.5333 67.9229 21.74 68.1096 22C68.2963 22.26 68.3896 22.6033 68.3896 23.03C68.3896 23.39 68.3229 23.7 68.1896 23.96C68.0563 24.22 67.8696 24.4333 67.6296 24.6C67.3896 24.76 67.1129 24.88 66.7996 24.96C66.4863 25.0333 66.1496 25.07 65.7896 25.07C65.4363 25.07 65.0829 25.0333 64.7296 24.96C64.3829 24.8867 64.0496 24.78 63.7296 24.64C63.4163 24.4933 63.1263 24.3167 62.8596 24.11L63.3696 23.15C63.4563 23.2367 63.5796 23.3333 63.7396 23.44C63.9063 23.54 64.0963 23.6367 64.3096 23.73C64.5296 23.8233 64.7663 23.9033 65.0196 23.97C65.2796 24.03 65.5429 24.06 65.8096 24.06C66.2563 24.06 66.5963 23.9833 66.8296 23.83C67.0696 23.67 67.1896 23.4433 67.1896 23.15C67.1896 22.91 67.1129 22.72 66.9596 22.58C66.8063 22.4333 66.5829 22.31 66.2896 22.21C65.9963 22.11 65.6463 22.01 65.2396 21.91C64.7729 21.7833 64.3829 21.6467 64.0696 21.5C63.7563 21.3467 63.5196 21.1533 63.3596 20.92C63.2063 20.68 63.1296 20.3767 63.1296 20.01C63.1296 19.5433 63.2429 19.15 63.4696 18.83C63.6963 18.5033 64.0029 18.26 64.3896 18.1C64.7829 17.9333 65.2229 17.85 65.7096 17.85C66.0296 17.85 66.3329 17.8867 66.6196 17.96C66.9063 18.0267 67.1729 18.12 67.4196 18.24C67.6729 18.36 67.9029 18.4967 68.1096 18.65L67.5996 19.57ZM72.1755 24.73C72.0821 24.7767 71.9655 24.8267 71.8255 24.88C71.6855 24.9333 71.5255 24.98 71.3455 25.02C71.1721 25.06 70.9921 25.08 70.8055 25.08C70.5788 25.08 70.3688 25.04 70.1755 24.96C69.9821 24.88 69.8255 24.7533 69.7055 24.58C69.5921 24.4 69.5355 24.17 69.5355 23.89V20.62H68.8455V19.77H69.5355V18.05H70.6355V19.77H71.7755V20.62H70.6355V23.54C70.6488 23.72 70.7055 23.8533 70.8055 23.94C70.9121 24.0267 71.0421 24.07 71.1955 24.07C71.3488 24.07 71.4955 24.0433 71.6355 23.99C71.7755 23.9367 71.8788 23.8933 71.9455 23.86L72.1755 24.73ZM75.8773 20.72C75.4507 20.7267 75.0707 20.8233 74.7373 21.01C74.4107 21.1967 74.1773 21.46 74.0373 21.8V25H72.9373V19.77H73.9573V20.94C74.1373 20.58 74.374 20.2933 74.6673 20.08C74.9607 19.86 75.2707 19.74 75.5973 19.72C75.664 19.72 75.7173 19.72 75.7573 19.72C75.804 19.72 75.844 19.7233 75.8773 19.73V20.72ZM78.9499 25.1C78.5433 25.1 78.1733 25.03 77.8399 24.89C77.5133 24.7433 77.2299 24.5467 76.9899 24.3C76.7499 24.0467 76.5633 23.76 76.4299 23.44C76.3033 23.1133 76.2399 22.7667 76.2399 22.4C76.2399 21.9067 76.3533 21.4567 76.5799 21.05C76.8066 20.6367 77.1233 20.3067 77.5299 20.06C77.9366 19.8067 78.4133 19.68 78.9599 19.68C79.5066 19.68 79.9766 19.8067 80.3699 20.06C80.7699 20.3067 81.0799 20.6333 81.2999 21.04C81.5199 21.4467 81.6299 21.8833 81.6299 22.35C81.6299 22.43 81.6266 22.5067 81.6199 22.58C81.6133 22.6467 81.6066 22.7033 81.5999 22.75H77.4099C77.4299 23.0567 77.5133 23.3267 77.6599 23.56C77.8133 23.7867 78.0066 23.9667 78.2399 24.1C78.4733 24.2267 78.7233 24.29 78.9899 24.29C79.2833 24.29 79.5599 24.2167 79.8199 24.07C80.0866 23.9233 80.2666 23.73 80.3599 23.49L81.2999 23.76C81.1866 24.0133 81.0133 24.2433 80.7799 24.45C80.5533 24.65 80.2833 24.81 79.9699 24.93C79.6566 25.0433 79.3166 25.1 78.9499 25.1ZM77.3799 22.02H80.5399C80.5199 21.72 80.4333 21.4567 80.2799 21.23C80.1333 20.9967 79.9433 20.8167 79.7099 20.69C79.4833 20.5567 79.2299 20.49 78.9499 20.49C78.6766 20.49 78.4233 20.5567 78.1899 20.69C77.9633 20.8167 77.7766 20.9967 77.6299 21.23C77.4833 21.4567 77.3999 21.72 77.3799 22.02ZM87.2172 25H86.1172V22.07C86.1172 21.5833 86.0372 21.2267 85.8772 21C85.7239 20.7733 85.4939 20.66 85.1872 20.66C84.9739 20.66 84.7605 20.7133 84.5472 20.82C84.3405 20.9267 84.1539 21.0733 83.9872 21.26C83.8205 21.44 83.7005 21.65 83.6272 21.89V25H82.5272V19.77H83.5272V20.82C83.6605 20.5867 83.8339 20.3867 84.0472 20.22C84.2672 20.0467 84.5139 19.9133 84.7872 19.82C85.0605 19.7267 85.3505 19.68 85.6572 19.68C85.9705 19.68 86.2272 19.7367 86.4272 19.85C86.6339 19.9633 86.7939 20.12 86.9072 20.32C87.0272 20.5133 87.1072 20.74 87.1472 21C87.1939 21.2533 87.2172 21.5233 87.2172 21.81V25ZM90.564 25.05C90.2107 25.05 89.8873 24.98 89.594 24.84C89.3007 24.6933 89.0473 24.4967 88.834 24.25C88.6273 24.0033 88.464 23.72 88.344 23.4C88.2307 23.08 88.174 22.7433 88.174 22.39C88.174 22.0167 88.234 21.6667 88.354 21.34C88.474 21.0133 88.6407 20.7267 88.854 20.48C89.074 20.2267 89.3307 20.03 89.624 19.89C89.9173 19.75 90.244 19.68 90.604 19.68C91.024 19.68 91.3907 19.78 91.704 19.98C92.024 20.18 92.2873 20.44 92.494 20.76V19.77H93.464V24.85C93.464 25.3567 93.3407 25.7867 93.094 26.14C92.854 26.4933 92.524 26.7633 92.104 26.95C91.684 27.1367 91.2107 27.23 90.684 27.23C90.104 27.23 89.624 27.13 89.244 26.93C88.864 26.73 88.5407 26.4567 88.274 26.11L88.894 25.53C89.094 25.81 89.3507 26.0233 89.664 26.17C89.984 26.3167 90.324 26.39 90.684 26.39C90.984 26.39 91.2607 26.3333 91.514 26.22C91.774 26.1133 91.9807 25.9433 92.134 25.71C92.2873 25.4833 92.364 25.1967 92.364 24.85V24.05C92.1773 24.3633 91.9207 24.61 91.594 24.79C91.2673 24.9633 90.924 25.05 90.564 25.05ZM90.924 24.16C91.0907 24.16 91.2507 24.1333 91.404 24.08C91.5573 24.02 91.6973 23.9433 91.824 23.85C91.9573 23.75 92.0707 23.64 92.164 23.52C92.2573 23.3933 92.324 23.26 92.364 23.12V21.75C92.2773 21.5233 92.154 21.3267 91.994 21.16C91.834 20.9867 91.654 20.8533 91.454 20.76C91.254 20.6667 91.0507 20.62 90.844 20.62C90.604 20.62 90.3873 20.6733 90.194 20.78C90.0073 20.88 89.8473 21.0167 89.714 21.19C89.5807 21.3567 89.4773 21.5467 89.404 21.76C89.3307 21.9733 89.294 22.1933 89.294 22.42C89.294 22.66 89.334 22.8833 89.414 23.09C89.5007 23.2967 89.6173 23.4833 89.764 23.65C89.9107 23.81 90.084 23.9367 90.284 24.03C90.484 24.1167 90.6973 24.16 90.924 24.16ZM97.693 24.73C97.5997 24.7767 97.483 24.8267 97.343 24.88C97.203 24.9333 97.043 24.98 96.863 25.02C96.6897 25.06 96.5097 25.08 96.323 25.08C96.0964 25.08 95.8864 25.04 95.693 24.96C95.4997 24.88 95.343 24.7533 95.223 24.58C95.1097 24.4 95.053 24.17 95.053 23.89V20.62H94.363V19.77H95.053V18.05H96.153V19.77H97.293V20.62H96.153V23.54C96.1664 23.72 96.223 23.8533 96.323 23.94C96.4297 24.0267 96.5597 24.07 96.713 24.07C96.8664 24.07 97.013 24.0433 97.153 23.99C97.293 23.9367 97.3964 23.8933 97.463 23.86L97.693 24.73ZM103.145 25H102.045V22.07C102.045 21.5967 101.958 21.2433 101.785 21.01C101.612 20.7767 101.368 20.66 101.055 20.66C100.862 20.66 100.662 20.7133 100.455 20.82C100.248 20.9267 100.065 21.0733 99.9049 21.26C99.7449 21.44 99.6283 21.65 99.5549 21.89V25H98.4549V17.7H99.5549V20.82C99.7549 20.4667 100.028 20.19 100.375 19.99C100.722 19.7833 101.095 19.68 101.495 19.68C101.822 19.68 102.092 19.7367 102.305 19.85C102.518 19.9633 102.685 20.12 102.805 20.32C102.932 20.5133 103.018 20.74 103.065 21C103.118 21.2533 103.145 21.5233 103.145 21.81V25ZM106.612 21.54C106.612 20.86 106.752 20.19 107.032 19.53C107.319 18.8633 107.662 18.1867 108.062 17.5L108.912 17.86C108.792 18.0333 108.659 18.26 108.512 18.54C108.372 18.82 108.236 19.1333 108.102 19.48C107.969 19.82 107.859 20.17 107.772 20.53C107.686 20.8833 107.642 21.23 107.642 21.57C107.642 22.0967 107.756 22.6567 107.982 23.25C108.209 23.8433 108.509 24.4467 108.882 25.06L108.082 25.47C107.802 25.05 107.549 24.6233 107.322 24.19C107.102 23.7567 106.929 23.3167 106.802 22.87C106.676 22.4167 106.612 21.9733 106.612 21.54ZM109.991 25V17.9H111.111V24.01H114.921V25H109.991ZM118.003 25.1C117.596 25.1 117.226 25.03 116.893 24.89C116.566 24.7433 116.283 24.5467 116.043 24.3C115.803 24.0467 115.616 23.76 115.483 23.44C115.356 23.1133 115.293 22.7667 115.293 22.4C115.293 21.9067 115.406 21.4567 115.633 21.05C115.859 20.6367 116.176 20.3067 116.583 20.06C116.989 19.8067 117.466 19.68 118.013 19.68C118.559 19.68 119.029 19.8067 119.423 20.06C119.823 20.3067 120.133 20.6333 120.353 21.04C120.573 21.4467 120.683 21.8833 120.683 22.35C120.683 22.43 120.679 22.5067 120.673 22.58C120.666 22.6467 120.659 22.7033 120.653 22.75H116.463C116.483 23.0567 116.566 23.3267 116.713 23.56C116.866 23.7867 117.059 23.9667 117.293 24.1C117.526 24.2267 117.776 24.29 118.043 24.29C118.336 24.29 118.613 24.2167 118.873 24.07C119.139 23.9233 119.319 23.73 119.413 23.49L120.353 23.76C120.239 24.0133 120.066 24.2433 119.833 24.45C119.606 24.65 119.336 24.81 119.023 24.93C118.709 25.0433 118.369 25.1 118.003 25.1ZM116.433 22.02H119.593C119.573 21.72 119.486 21.4567 119.333 21.23C119.186 20.9967 118.996 20.8167 118.763 20.69C118.536 20.5567 118.283 20.49 118.003 20.49C117.729 20.49 117.476 20.5567 117.243 20.69C117.016 20.8167 116.829 20.9967 116.683 21.23C116.536 21.4567 116.453 21.72 116.433 22.02ZM121.831 25V20.75H121.131V19.9H121.831V19.69C121.831 19.2633 121.898 18.8933 122.031 18.58C122.171 18.2667 122.364 18.0267 122.611 17.86C122.864 17.6867 123.161 17.6 123.501 17.6C123.714 17.6 123.924 17.63 124.131 17.69C124.338 17.7433 124.534 17.82 124.721 17.92L124.481 18.74C124.381 18.6733 124.261 18.6233 124.121 18.59C123.988 18.55 123.858 18.53 123.731 18.53C123.478 18.53 123.281 18.6267 123.141 18.82C123.001 19.0133 122.931 19.2933 122.931 19.66V19.9H124.271V20.75H122.931V25H121.831ZM128.006 24.73C127.912 24.7767 127.796 24.8267 127.656 24.88C127.516 24.9333 127.356 24.98 127.176 25.02C127.002 25.06 126.822 25.08 126.636 25.08C126.409 25.08 126.199 25.04 126.006 24.96C125.812 24.88 125.656 24.7533 125.536 24.58C125.422 24.4 125.366 24.17 125.366 23.89V20.62H124.676V19.77H125.366V18.05H126.466V19.77H127.606V20.62H126.466V23.54C126.479 23.72 126.536 23.8533 126.636 23.94C126.742 24.0267 126.872 24.07 127.026 24.07C127.179 24.07 127.326 24.0433 127.466 23.99C127.606 23.9367 127.709 23.8933 127.776 23.86L128.006 24.73ZM130.677 21.54C130.677 21.9733 130.614 22.4167 130.487 22.87C130.361 23.3167 130.187 23.7567 129.967 24.19C129.747 24.6233 129.497 25.05 129.217 25.47L128.407 25.06C128.781 24.4467 129.081 23.8433 129.307 23.25C129.541 22.6567 129.657 22.0967 129.657 21.57C129.657 21.23 129.614 20.8833 129.527 20.53C129.441 20.17 129.327 19.82 129.187 19.48C129.054 19.1333 128.914 18.82 128.767 18.54C128.627 18.26 128.501 18.0333 128.387 17.86L129.227 17.5C129.634 18.1867 129.977 18.8633 130.257 19.53C130.537 20.19 130.677 20.86 130.677 21.54Z" fill="#00625B"/>
<rect x="152.5" y="12" width="80" height="18" rx="8" fill="#17B26A"/>
<path d="M182.773 21.0909C182.773 21.7178 182.655 22.2547 182.42 22.7017C182.188 23.1468 181.869 23.4877 181.466 23.7244C181.064 23.9612 180.609 24.0795 180.099 24.0795C179.59 24.0795 179.134 23.9612 178.73 23.7244C178.329 23.4858 178.01 23.1439 177.776 22.6989C177.543 22.2519 177.426 21.7159 177.426 21.0909C177.426 20.464 177.543 19.928 177.776 19.483C178.01 19.036 178.329 18.6941 178.73 18.4574C179.134 18.2206 179.59 18.1023 180.099 18.1023C180.609 18.1023 181.064 18.2206 181.466 18.4574C181.869 18.6941 182.188 19.036 182.42 19.483C182.655 19.928 182.773 20.464 182.773 21.0909ZM181.713 21.0909C181.713 20.6496 181.644 20.2775 181.506 19.9744C181.369 19.6695 181.18 19.4394 180.938 19.2841C180.695 19.1269 180.416 19.0483 180.099 19.0483C179.783 19.0483 179.504 19.1269 179.261 19.2841C179.019 19.4394 178.829 19.6695 178.69 19.9744C178.554 20.2775 178.486 20.6496 178.486 21.0909C178.486 21.5322 178.554 21.9053 178.69 22.2102C178.829 22.5133 179.019 22.7434 179.261 22.9006C179.504 23.0559 179.783 23.1335 180.099 23.1335C180.416 23.1335 180.695 23.0559 180.938 22.9006C181.18 22.7434 181.369 22.5133 181.506 22.2102C181.644 21.9053 181.713 21.5322 181.713 21.0909ZM183.724 25.6364V19.6364H184.735V20.358H184.795C184.848 20.2519 184.923 20.1392 185.019 20.0199C185.116 19.8987 185.246 19.7955 185.411 19.7102C185.576 19.6231 185.786 19.5795 186.042 19.5795C186.379 19.5795 186.683 19.6657 186.954 19.8381C187.227 20.0085 187.442 20.2614 187.602 20.5966C187.763 20.9299 187.843 21.339 187.843 21.8239C187.843 22.303 187.764 22.7102 187.607 23.0455C187.45 23.3807 187.236 23.6364 186.965 23.8125C186.694 23.9886 186.388 24.0767 186.045 24.0767C185.795 24.0767 185.587 24.035 185.423 23.9517C185.258 23.8684 185.125 23.768 185.025 23.6506C184.926 23.5312 184.85 23.4186 184.795 23.3125H184.752V25.6364H183.724ZM184.732 21.8182C184.732 22.1004 184.772 22.3475 184.852 22.5597C184.933 22.7718 185.049 22.9375 185.201 23.0568C185.354 23.1742 185.54 23.233 185.758 23.233C185.985 23.233 186.175 23.1723 186.329 23.0511C186.482 22.928 186.598 22.7604 186.675 22.5483C186.755 22.3343 186.795 22.0909 186.795 21.8182C186.795 21.5473 186.756 21.3068 186.678 21.0966C186.601 20.8864 186.485 20.7216 186.332 20.6023C186.178 20.483 185.987 20.4233 185.758 20.4233C185.538 20.4233 185.352 20.4811 185.198 20.5966C185.045 20.7121 184.928 20.8741 184.849 21.0824C184.771 21.2907 184.732 21.536 184.732 21.8182ZM190.903 19.6364V20.4318H188.394V19.6364H190.903ZM189.013 18.5909H190.042V22.6875C190.042 22.8258 190.063 22.9318 190.104 23.0057C190.148 23.0777 190.205 23.1269 190.275 23.1534C190.345 23.1799 190.423 23.1932 190.508 23.1932C190.572 23.1932 190.631 23.1884 190.684 23.179C190.739 23.1695 190.781 23.161 190.809 23.1534L190.982 23.9574C190.927 23.9763 190.849 23.9972 190.746 24.0199C190.646 24.0426 190.523 24.0559 190.377 24.0597C190.12 24.0672 189.888 24.0284 189.681 23.9432C189.475 23.8561 189.311 23.7216 189.19 23.5398C189.07 23.358 189.012 23.1307 189.013 22.858V18.5909ZM191.763 24V19.6364H192.791V24H191.763ZM192.28 19.017C192.117 19.017 191.977 18.9631 191.859 18.8551C191.742 18.7453 191.683 18.6136 191.683 18.4602C191.683 18.3049 191.742 18.1733 191.859 18.0653C191.977 17.9555 192.117 17.9006 192.28 17.9006C192.445 17.9006 192.585 17.9555 192.7 18.0653C192.818 18.1733 192.876 18.3049 192.876 18.4602C192.876 18.6136 192.818 18.7453 192.7 18.8551C192.585 18.9631 192.445 19.017 192.28 19.017ZM193.849 24V19.6364H194.832V20.3778H194.883C194.974 20.1278 195.124 19.9328 195.335 19.7926C195.545 19.6506 195.796 19.5795 196.087 19.5795C196.383 19.5795 196.632 19.6515 196.835 19.7955C197.039 19.9375 197.183 20.1316 197.266 20.3778H197.312C197.408 20.1354 197.571 19.9422 197.8 19.7983C198.031 19.6525 198.305 19.5795 198.621 19.5795C199.023 19.5795 199.351 19.7064 199.604 19.9602C199.858 20.214 199.985 20.5843 199.985 21.071V24H198.954V21.2301C198.954 20.9593 198.882 20.7614 198.738 20.6364C198.594 20.5095 198.418 20.446 198.21 20.446C197.961 20.446 197.767 20.5237 197.627 20.679C197.489 20.8324 197.42 21.0322 197.42 21.2784V24H196.411V21.1875C196.411 20.9621 196.343 20.7822 196.207 20.6477C196.072 20.5133 195.896 20.446 195.678 20.446C195.531 20.446 195.396 20.4839 195.275 20.5597C195.154 20.6335 195.057 20.7386 194.985 20.875C194.913 21.0095 194.877 21.1667 194.877 21.3466V24H193.849ZM202.284 24.0881C202.008 24.0881 201.759 24.0388 201.537 23.9403C201.317 23.84 201.143 23.6922 201.014 23.4972C200.887 23.3021 200.824 23.0616 200.824 22.7756C200.824 22.5294 200.869 22.3258 200.96 22.1648C201.051 22.0038 201.175 21.875 201.332 21.7784C201.49 21.6818 201.667 21.6089 201.864 21.5597C202.063 21.5085 202.268 21.4716 202.48 21.4489C202.736 21.4223 202.943 21.3987 203.102 21.3778C203.261 21.3551 203.377 21.321 203.449 21.2756C203.523 21.2282 203.56 21.1553 203.56 21.0568V21.0398C203.56 20.8258 203.496 20.66 203.369 20.5426C203.242 20.4252 203.06 20.3665 202.821 20.3665C202.569 20.3665 202.369 20.4214 202.222 20.5312C202.076 20.6411 201.977 20.7708 201.926 20.9205L200.966 20.7841C201.042 20.5189 201.167 20.2973 201.341 20.1193C201.515 19.9394 201.728 19.8049 201.98 19.7159C202.232 19.625 202.51 19.5795 202.815 19.5795C203.026 19.5795 203.235 19.6042 203.443 19.6534C203.652 19.7027 203.842 19.7841 204.014 19.8977C204.187 20.0095 204.325 20.1619 204.429 20.3551C204.535 20.5483 204.588 20.7898 204.588 21.0795V24H203.599V23.4006H203.565C203.503 23.5218 203.415 23.6354 203.301 23.7415C203.189 23.8456 203.048 23.9299 202.878 23.9943C202.709 24.0568 202.511 24.0881 202.284 24.0881ZM202.551 23.3324C202.758 23.3324 202.937 23.2917 203.088 23.2102C203.24 23.1269 203.356 23.017 203.438 22.8807C203.521 22.7443 203.562 22.5956 203.562 22.4347V21.9205C203.53 21.947 203.475 21.9716 203.398 21.9943C203.322 22.017 203.237 22.0369 203.142 22.054C203.047 22.071 202.954 22.0862 202.861 22.0994C202.768 22.1127 202.688 22.1241 202.619 22.1335C202.466 22.1544 202.329 22.1884 202.207 22.2358C202.086 22.2831 201.991 22.3494 201.92 22.4347C201.85 22.518 201.815 22.6259 201.815 22.7585C201.815 22.9479 201.884 23.0909 202.023 23.1875C202.161 23.2841 202.337 23.3324 202.551 23.3324ZM206.651 18.1818V24H205.622V18.1818H206.651Z" fill="#EFEFEF"/>
<path d="M44.5014 51.1662C43.7997 51.1662 43.1974 50.9886 42.6946 50.6335C42.1946 50.2756 41.8097 49.7599 41.5398 49.0866C41.2727 48.4105 41.1392 47.5966 41.1392 46.6449C41.142 45.6932 41.277 44.8835 41.544 44.2159C41.8139 43.5455 42.1989 43.0341 42.6989 42.6818C43.2017 42.3295 43.8026 42.1534 44.5014 42.1534C45.2003 42.1534 45.8011 42.3295 46.304 42.6818C46.8068 43.0341 47.1918 43.5455 47.4588 44.2159C47.7287 44.8864 47.8636 45.696 47.8636 46.6449C47.8636 47.5994 47.7287 48.4148 47.4588 49.0909C47.1918 49.7642 46.8068 50.2784 46.304 50.6335C45.804 50.9886 45.2031 51.1662 44.5014 51.1662ZM44.5014 49.8324C45.0469 49.8324 45.4773 49.5639 45.7926 49.027C46.1108 48.4872 46.2699 47.6932 46.2699 46.6449C46.2699 45.9517 46.1974 45.3693 46.0526 44.8977C45.9077 44.4261 45.7031 44.071 45.4389 43.8324C45.1747 43.5909 44.8622 43.4702 44.5014 43.4702C43.9588 43.4702 43.5298 43.7401 43.2145 44.2798C42.8991 44.8168 42.7401 45.6051 42.7372 46.6449C42.7344 47.3409 42.804 47.9261 42.946 48.4006C43.0909 48.875 43.2955 49.233 43.5597 49.4744C43.8239 49.7131 44.1378 49.8324 44.5014 49.8324ZM52.5053 51.1662C51.8036 51.1662 51.2013 50.9886 50.6985 50.6335C50.1985 50.2756 49.8136 49.7599 49.5437 49.0866C49.2766 48.4105 49.1431 47.5966 49.1431 46.6449C49.146 45.6932 49.2809 44.8835 49.5479 44.2159C49.8178 43.5455 50.2028 43.0341 50.7028 42.6818C51.2056 42.3295 51.8065 42.1534 52.5053 42.1534C53.2042 42.1534 53.805 42.3295 54.3079 42.6818C54.8107 43.0341 55.1957 43.5455 55.4627 44.2159C55.7326 44.8864 55.8675 45.696 55.8675 46.6449C55.8675 47.5994 55.7326 48.4148 55.4627 49.0909C55.1957 49.7642 54.8107 50.2784 54.3079 50.6335C53.8079 50.9886 53.207 51.1662 52.5053 51.1662ZM52.5053 49.8324C53.0508 49.8324 53.4812 49.5639 53.7965 49.027C54.1147 48.4872 54.2738 47.6932 54.2738 46.6449C54.2738 45.9517 54.2013 45.3693 54.0565 44.8977C53.9116 44.4261 53.707 44.071 53.4428 43.8324C53.1786 43.5909 52.8661 43.4702 52.5053 43.4702C51.9627 43.4702 51.5337 43.7401 51.2184 44.2798C50.9031 44.8168 50.744 45.6051 50.7411 46.6449C50.7383 47.3409 50.8079 47.9261 50.9499 48.4006C51.0948 48.875 51.2994 49.233 51.5636 49.4744C51.8278 49.7131 52.1417 49.8324 52.5053 49.8324ZM57.9109 51.0938C57.6523 51.0938 57.4308 51.0028 57.2461 50.821C57.0614 50.6392 56.9705 50.4176 56.9734 50.1562C56.9705 49.9006 57.0614 49.6818 57.2461 49.5C57.4308 49.3182 57.6523 49.2273 57.9109 49.2273C58.1609 49.2273 58.3782 49.3182 58.5629 49.5C58.7504 49.6818 58.8455 49.9006 58.8484 50.1562C58.8455 50.3295 58.8001 50.4872 58.712 50.6293C58.6268 50.7713 58.5131 50.8849 58.3711 50.9702C58.2319 51.0526 58.0785 51.0938 57.9109 51.0938ZM63.31 51.1662C62.6083 51.1662 62.006 50.9886 61.5032 50.6335C61.0032 50.2756 60.6183 49.7599 60.3484 49.0866C60.0813 48.4105 59.9478 47.5966 59.9478 46.6449C59.9506 45.6932 60.0856 44.8835 60.3526 44.2159C60.6225 43.5455 61.0075 43.0341 61.5075 42.6818C62.0103 42.3295 62.6112 42.1534 63.31 42.1534C64.0089 42.1534 64.6097 42.3295 65.1126 42.6818C65.6154 43.0341 66.0004 43.5455 66.2674 44.2159C66.5373 44.8864 66.6722 45.696 66.6722 46.6449C66.6722 47.5994 66.5373 48.4148 66.2674 49.0909C66.0004 49.7642 65.6154 50.2784 65.1126 50.6335C64.6126 50.9886 64.0117 51.1662 63.31 51.1662ZM63.31 49.8324C63.8555 49.8324 64.2859 49.5639 64.6012 49.027C64.9194 48.4872 65.0785 47.6932 65.0785 46.6449C65.0785 45.9517 65.006 45.3693 64.8612 44.8977C64.7163 44.4261 64.5117 44.071 64.2475 43.8324C63.9833 43.5909 63.6708 43.4702 63.31 43.4702C62.7674 43.4702 62.3384 43.7401 62.0231 44.2798C61.7077 44.8168 61.5487 45.6051 61.5458 46.6449C61.543 47.3409 61.6126 47.9261 61.7546 48.4006C61.8995 48.875 62.104 49.233 62.3683 49.4744C62.6325 49.7131 62.9464 49.8324 63.31 49.8324Z" fill="#003632"/>
<path d="M71.2045 50V44.1818H71.9091V47.0682H71.9773L74.5909 44.1818H75.5114L73.0682 46.8068L75.5114 50H74.6591L72.6364 47.2955L71.9091 48.1136V50H71.2045ZM77.7734 51.7273C77.4496 51.7273 77.1712 51.6856 76.9382 51.6023C76.7053 51.5208 76.5111 51.4129 76.3558 51.2784C76.2024 51.1458 76.0803 51.0038 75.9893 50.8523L76.5234 50.4773C76.584 50.5568 76.6607 50.6477 76.7536 50.75C76.8464 50.8542 76.9732 50.9441 77.1342 51.0199C77.2971 51.0975 77.5102 51.1364 77.7734 51.1364C78.1257 51.1364 78.4164 51.0511 78.6456 50.8807C78.8748 50.7102 78.9893 50.4432 78.9893 50.0795V49.1932H78.9325C78.8833 49.2727 78.8132 49.3712 78.7223 49.4886C78.6333 49.6042 78.5045 49.7074 78.3359 49.7983C78.1693 49.8873 77.9439 49.9318 77.6598 49.9318C77.3075 49.9318 76.9912 49.8485 76.7109 49.6818C76.4325 49.5152 76.2119 49.2727 76.049 48.9545C75.888 48.6364 75.8075 48.25 75.8075 47.7955C75.8075 47.3485 75.8861 46.9593 76.0433 46.6278C76.2005 46.2945 76.4193 46.0369 76.6996 45.8551C76.9799 45.6714 77.3037 45.5795 77.6712 45.5795C77.9553 45.5795 78.1806 45.6269 78.3473 45.7216C78.5159 45.8144 78.6446 45.9205 78.7337 46.0398C78.8246 46.1572 78.8946 46.2538 78.9439 46.3295H79.0121V45.6364H79.6598V50.125C79.6598 50.5 79.5746 50.8049 79.4041 51.0398C79.2356 51.2765 79.0083 51.4498 78.7223 51.5597C78.4382 51.6714 78.1219 51.7273 77.7734 51.7273ZM77.7507 49.3295C78.0196 49.3295 78.2469 49.268 78.4325 49.1449C78.6181 49.0218 78.7592 48.8447 78.8558 48.6136C78.9524 48.3826 79.0007 48.1061 79.0007 47.7841C79.0007 47.4697 78.9534 47.1922 78.8587 46.9517C78.764 46.7112 78.6238 46.5227 78.4382 46.3864C78.2526 46.25 78.0234 46.1818 77.7507 46.1818C77.4666 46.1818 77.2299 46.2538 77.0405 46.3977C76.853 46.5417 76.7119 46.7348 76.6172 46.9773C76.5244 47.2197 76.478 47.4886 76.478 47.7841C76.478 48.0871 76.5253 48.3551 76.62 48.5881C76.7166 48.8191 76.8587 49.0009 77.0462 49.1335C77.2356 49.2642 77.4704 49.3295 77.7507 49.3295Z" fill="#667085"/>
<path d="M196.966 47.4091L193.307 49.2727V48.5455L196.114 47.1932L196.091 47.2386V47.125L196.114 47.1705L193.307 45.8182V45.0909L196.966 46.9545V47.4091ZM202.671 44.1818V50H201.967V44.9205H201.933L200.512 45.8636V45.1477L201.967 44.1818H202.671ZM204.344 50V49.4886L206.265 47.3864C206.49 47.1402 206.676 46.9261 206.822 46.7443C206.968 46.5606 207.076 46.3883 207.146 46.2273C207.218 46.0644 207.254 45.8939 207.254 45.7159C207.254 45.5114 207.204 45.3343 207.106 45.1847C207.009 45.035 206.877 44.9195 206.708 44.8381C206.54 44.7566 206.35 44.7159 206.14 44.7159C205.916 44.7159 205.721 44.7623 205.555 44.8551C205.39 44.946 205.262 45.0739 205.171 45.2386C205.082 45.4034 205.038 45.5966 205.038 45.8182H204.367C204.367 45.4773 204.446 45.178 204.603 44.9205C204.76 44.6629 204.974 44.4621 205.245 44.3182C205.518 44.1742 205.824 44.1023 206.163 44.1023C206.504 44.1023 206.806 44.1742 207.069 44.3182C207.332 44.4621 207.539 44.6562 207.688 44.9006C207.838 45.1449 207.913 45.4167 207.913 45.7159C207.913 45.9299 207.874 46.1392 207.796 46.3438C207.72 46.5464 207.588 46.7727 207.398 47.0227C207.211 47.2708 206.951 47.5739 206.617 47.9318L205.31 49.3295V49.375H208.015V50H204.344ZM211.12 50.0795C210.881 50.0758 210.643 50.0303 210.404 49.9432C210.165 49.8561 209.948 49.7093 209.751 49.5028C209.554 49.2945 209.396 49.0133 209.276 48.6591C209.157 48.303 209.097 47.8561 209.097 47.3182C209.097 46.803 209.146 46.3466 209.242 45.9489C209.339 45.5492 209.479 45.2131 209.663 44.9403C209.846 44.6657 210.068 44.4574 210.327 44.3153C210.589 44.1733 210.883 44.1023 211.211 44.1023C211.537 44.1023 211.826 44.1676 212.08 44.2983C212.336 44.4271 212.544 44.607 212.705 44.8381C212.866 45.0691 212.97 45.3352 213.018 45.6364H212.325C212.26 45.375 212.135 45.1581 211.95 44.9858C211.764 44.8134 211.518 44.7273 211.211 44.7273C210.76 44.7273 210.405 44.9233 210.146 45.3153C209.888 45.7074 209.758 46.2576 209.756 46.9659H209.802C209.908 46.8049 210.034 46.6676 210.18 46.554C210.327 46.4384 210.49 46.3494 210.668 46.2869C210.846 46.2244 211.035 46.1932 211.234 46.1932C211.567 46.1932 211.872 46.2765 212.148 46.4432C212.425 46.608 212.647 46.8362 212.813 47.1278C212.98 47.4176 213.063 47.75 213.063 48.125C213.063 48.4848 212.983 48.8144 212.822 49.1136C212.661 49.411 212.434 49.6477 212.143 49.8239C211.853 49.9981 211.512 50.0833 211.12 50.0795ZM211.12 49.4545C211.359 49.4545 211.573 49.3949 211.762 49.2756C211.953 49.1562 212.104 48.9962 212.214 48.7955C212.326 48.5947 212.381 48.3712 212.381 48.125C212.381 47.8845 212.327 47.6657 212.219 47.4688C212.113 47.2699 211.967 47.1117 211.779 46.9943C211.594 46.8769 211.381 46.8182 211.143 46.8182C210.963 46.8182 210.795 46.8542 210.64 46.9261C210.485 46.9962 210.348 47.0928 210.231 47.2159C210.115 47.339 210.024 47.4801 209.958 47.6392C209.892 47.7964 209.859 47.9621 209.859 48.1364C209.859 48.3674 209.913 48.5833 210.021 48.7841C210.13 48.9848 210.28 49.1468 210.469 49.2699C210.661 49.393 210.878 49.4545 211.12 49.4545ZM214.407 50.0455C214.267 50.0455 214.147 49.9953 214.046 49.8949C213.946 49.7945 213.896 49.6742 213.896 49.5341C213.896 49.3939 213.946 49.2737 214.046 49.1733C214.147 49.0729 214.267 49.0227 214.407 49.0227C214.547 49.0227 214.667 49.0729 214.768 49.1733C214.868 49.2737 214.918 49.3939 214.918 49.5341C214.918 49.6269 214.895 49.7121 214.847 49.7898C214.802 49.8674 214.74 49.9299 214.663 49.9773C214.587 50.0227 214.502 50.0455 214.407 50.0455ZM217.794 50.0795C217.404 50.0795 217.059 50.0104 216.76 49.8722C216.463 49.732 216.231 49.5398 216.064 49.2955C215.897 49.0492 215.815 48.7689 215.817 48.4545C215.815 48.2083 215.863 47.9811 215.962 47.7727C216.06 47.5625 216.195 47.3873 216.365 47.2472C216.537 47.1051 216.73 47.0152 216.942 46.9773V46.9432C216.663 46.8712 216.442 46.715 216.277 46.4744C216.112 46.232 216.031 45.9564 216.033 45.6477C216.031 45.3523 216.106 45.0881 216.257 44.8551C216.409 44.6222 216.617 44.4384 216.882 44.304C217.149 44.1695 217.453 44.1023 217.794 44.1023C218.131 44.1023 218.432 44.1695 218.697 44.304C218.963 44.4384 219.171 44.6222 219.322 44.8551C219.476 45.0881 219.554 45.3523 219.555 45.6477C219.554 45.9564 219.469 46.232 219.303 46.4744C219.138 46.715 218.919 46.8712 218.646 46.9432V46.9773C218.857 47.0152 219.046 47.1051 219.214 47.2472C219.383 47.3873 219.518 47.5625 219.618 47.7727C219.718 47.9811 219.769 48.2083 219.771 48.4545C219.769 48.7689 219.684 49.0492 219.516 49.2955C219.349 49.5398 219.117 49.732 218.82 49.8722C218.524 50.0104 218.182 50.0795 217.794 50.0795ZM217.794 49.4545C218.057 49.4545 218.285 49.4119 218.476 49.3267C218.667 49.2415 218.815 49.1212 218.919 48.9659C219.023 48.8106 219.076 48.6288 219.078 48.4205C219.076 48.2008 219.019 48.0066 218.908 47.8381C218.796 47.6695 218.643 47.5369 218.45 47.4403C218.259 47.3437 218.04 47.2955 217.794 47.2955C217.546 47.2955 217.324 47.3437 217.129 47.4403C216.936 47.5369 216.784 47.6695 216.672 47.8381C216.562 48.0066 216.508 48.2008 216.51 48.4205C216.508 48.6288 216.558 48.8106 216.661 48.9659C216.765 49.1212 216.913 49.2415 217.107 49.3267C217.3 49.4119 217.529 49.4545 217.794 49.4545ZM217.794 46.6932C218.002 46.6932 218.187 46.6515 218.348 46.5682C218.511 46.4848 218.639 46.3684 218.732 46.2188C218.824 46.0691 218.872 45.8939 218.874 45.6932C218.872 45.4962 218.825 45.3248 218.734 45.179C218.643 45.0312 218.518 44.9176 218.357 44.8381C218.196 44.7566 218.008 44.7159 217.794 44.7159C217.576 44.7159 217.386 44.7566 217.223 44.8381C217.06 44.9176 216.934 45.0312 216.845 45.179C216.756 45.3248 216.713 45.4962 216.714 45.6932C216.713 45.8939 216.757 46.0691 216.848 46.2188C216.941 46.3684 217.069 46.4848 217.232 46.5682C217.394 46.6515 217.582 46.6932 217.794 46.6932ZM223.212 50V44.1818H223.917V47.0682H223.985L226.599 44.1818H227.519L225.076 46.8068L227.519 50H226.667L224.644 47.2955L223.917 48.1136V50H223.212ZM229.781 51.7273C229.457 51.7273 229.179 51.6856 228.946 51.6023C228.713 51.5208 228.519 51.4129 228.364 51.2784C228.21 51.1458 228.088 51.0038 227.997 50.8523L228.531 50.4773C228.592 50.5568 228.669 50.6477 228.761 50.75C228.854 50.8542 228.981 50.9441 229.142 51.0199C229.305 51.0975 229.518 51.1364 229.781 51.1364C230.134 51.1364 230.424 51.0511 230.653 50.8807C230.883 50.7102 230.997 50.4432 230.997 50.0795V49.1932H230.94C230.891 49.2727 230.821 49.3712 230.73 49.4886C230.641 49.6042 230.512 49.7074 230.344 49.7983C230.177 49.8873 229.952 49.9318 229.668 49.9318C229.315 49.9318 228.999 49.8485 228.719 49.6818C228.44 49.5152 228.22 49.2727 228.057 48.9545C227.896 48.6364 227.815 48.25 227.815 47.7955C227.815 47.3485 227.894 46.9593 228.051 46.6278C228.208 46.2945 228.427 46.0369 228.707 45.8551C228.988 45.6714 229.312 45.5795 229.679 45.5795C229.963 45.5795 230.188 45.6269 230.355 45.7216C230.524 45.8144 230.652 45.9205 230.741 46.0398C230.832 46.1572 230.902 46.2538 230.952 46.3295H231.02V45.6364H231.668V50.125C231.668 50.5 231.582 50.8049 231.412 51.0398C231.243 51.2765 231.016 51.4498 230.73 51.5597C230.446 51.6714 230.13 51.7273 229.781 51.7273ZM229.759 49.3295C230.027 49.3295 230.255 49.268 230.44 49.1449C230.626 49.0218 230.767 48.8447 230.864 48.6136C230.96 48.3826 231.009 48.1061 231.009 47.7841C231.009 47.4697 230.961 47.1922 230.866 46.9517C230.772 46.7112 230.632 46.5227 230.446 46.3864C230.26 46.25 230.031 46.1818 229.759 46.1818C229.474 46.1818 229.238 46.2538 229.048 46.3977C228.861 46.5417 228.72 46.7348 228.625 46.9773C228.532 47.2197 228.486 47.4886 228.486 47.7841C228.486 48.0871 228.533 48.3551 228.628 48.5881C228.724 48.8191 228.866 49.0009 229.054 49.1335C229.243 49.2642 229.478 49.3295 229.759 49.3295Z" fill="#667085"/>
</svg>
