<svg width="241" height="68" viewBox="0 0 241 68" fill="none" xmlns="http://www.w3.org/2000/svg">
<rect x="0.55" y="0.05" width="239.9" height="67.9" rx="15.95" fill="white"/>
<rect x="0.55" y="0.05" width="239.9" height="67.9" rx="15.95" stroke="#00625B" stroke-width="0.1"/>
<path d="M29.5 34C29.5 35.2555 29.2458 36.4677 28.7477 37.6046C28.6935 37.7257 28.574 37.7994 28.4503 37.7994C28.4071 37.7994 28.3614 37.7909 28.3199 37.7714C28.1547 37.7003 28.081 37.5071 28.153 37.3419C28.6155 36.2898 28.8493 35.1648 28.8493 34C28.8493 29.3959 25.104 25.6506 20.5 25.6506C18.0864 25.6506 15.833 26.6723 14.2481 28.4699H16.1626C16.3422 28.4699 16.4879 28.6156 16.4879 28.7952C16.4879 28.9748 16.3422 29.1205 16.1626 29.1205H13.5602C13.3806 29.1205 13.2349 28.9748 13.2349 28.7952V26.1928C13.2349 26.0132 13.3806 25.8675 13.5602 25.8675C13.7398 25.8675 13.8855 26.0132 13.8855 26.1928V27.9015C15.5883 26.0522 17.9602 25 20.5 25C25.4617 25 29.5 29.0383 29.5 34ZM27.4397 38.8795H24.8373C24.6577 38.8795 24.512 39.0252 24.512 39.2048C24.512 39.3844 24.6577 39.5301 24.8373 39.5301H26.7518C25.1668 41.3278 22.9135 42.3494 20.5 42.3494C15.8959 42.3494 12.1506 38.6041 12.1506 34C12.1506 32.8335 12.3844 31.7101 12.8487 30.6555C12.9198 30.4903 12.8461 30.2997 12.6818 30.226C12.5166 30.1548 12.326 30.2285 12.2523 30.3929C11.7541 31.5297 11.5 32.742 11.5 34C11.5 38.9617 15.5383 43 20.5 43C23.0397 43 25.4116 41.9478 27.1144 40.0985V41.8072C27.1144 41.9868 27.2601 42.1325 27.4397 42.1325C27.6193 42.1325 27.765 41.9868 27.765 41.8072V39.2048C27.765 39.0252 27.6193 38.8795 27.4397 38.8795ZM19.2792 27.9971C19.2513 27.8667 19.3055 27.7328 19.4156 27.6591C19.5266 27.5854 19.6715 27.588 19.7824 27.6633C21.6868 28.9883 21.5174 31.0027 21.2488 32.0855C21.1819 32.3523 21.1234 32.8225 21.4631 32.9834C21.7063 33.0961 22.0595 33.0182 22.2069 32.8183C22.4018 32.5539 22.5712 32.2151 22.6729 31.8881C22.7101 31.7712 22.8075 31.6839 22.9287 31.6645C23.0498 31.645 23.1718 31.6924 23.243 31.7881C25.0643 34.2043 24.9542 36.5677 24.2426 37.9732C23.6089 39.2244 22.4424 39.9665 21.1149 39.9665H21.0734C20.9523 39.964 20.8439 39.897 20.7871 39.7911C20.7329 39.6853 20.7397 39.5548 20.8091 39.4574C21.3903 38.6204 21.1954 36.966 20.1323 36.0137C19.1259 36.9617 18.8311 38.3323 19.4054 39.4988C19.4596 39.6098 19.4469 39.7394 19.3732 39.8368C19.2995 39.9342 19.1758 39.9825 19.0564 39.9605C17.0046 39.5937 16.1159 38.4687 15.7323 37.5877C15.1926 36.3518 15.329 34.7921 16.0838 33.6171C16.4854 32.9928 17.0292 32.487 17.5544 31.9991C18.7108 30.9224 19.7104 29.9963 19.2792 27.9971ZM17.9975 32.4735C17.4774 32.9547 16.9869 33.4104 16.6311 33.9653C15.9915 34.9632 15.8746 36.2814 16.3295 37.3241C16.6133 37.9747 17.2359 38.7854 18.5955 39.1827C18.2202 37.8231 18.7167 36.3092 19.9188 35.3307C19.9798 35.2833 20.0509 35.257 20.1246 35.257C20.1915 35.257 20.261 35.2791 20.3178 35.3197C21.641 36.2956 22.0332 38.0585 21.6215 39.2648C22.4864 39.1047 23.226 38.5362 23.6623 37.6755C24.2392 36.5344 24.3502 34.6563 23.0591 32.657C22.9634 32.8502 22.8507 33.034 22.7296 33.1992C22.4001 33.6456 21.708 33.8125 21.1853 33.5677C20.9794 33.472 20.3305 33.067 20.6168 31.9242C20.8506 30.9831 20.9006 29.7361 20.0289 28.7406C20.0967 30.5256 19.0318 31.5141 17.9975 32.4731L17.9975 32.4735Z" fill="#00625B"/>
<path d="M47.13 17.9V25H46V21.87H42.42V25H41.3V17.9H42.42V20.87H46V17.9H47.13ZM50.8738 25.1C50.4671 25.1 50.0971 25.03 49.7638 24.89C49.4371 24.7433 49.1538 24.5467 48.9138 24.3C48.6738 24.0467 48.4871 23.76 48.3538 23.44C48.2271 23.1133 48.1638 22.7667 48.1638 22.4C48.1638 21.9067 48.2771 21.4567 48.5037 21.05C48.7304 20.6367 49.0471 20.3067 49.4538 20.06C49.8604 19.8067 50.3371 19.68 50.8838 19.68C51.4304 19.68 51.9004 19.8067 52.2938 20.06C52.6938 20.3067 53.0038 20.6333 53.2238 21.04C53.4438 21.4467 53.5538 21.8833 53.5538 22.35C53.5538 22.43 53.5504 22.5067 53.5438 22.58C53.5371 22.6467 53.5304 22.7033 53.5238 22.75H49.3338C49.3538 23.0567 49.4371 23.3267 49.5838 23.56C49.7371 23.7867 49.9304 23.9667 50.1638 24.1C50.3971 24.2267 50.6471 24.29 50.9138 24.29C51.2071 24.29 51.4838 24.2167 51.7438 24.07C52.0104 23.9233 52.1904 23.73 52.2838 23.49L53.2238 23.76C53.1104 24.0133 52.9371 24.2433 52.7038 24.45C52.4771 24.65 52.2071 24.81 51.8938 24.93C51.5804 25.0433 51.2404 25.1 50.8738 25.1ZM49.3038 22.02H52.4638C52.4438 21.72 52.3571 21.4567 52.2038 21.23C52.0571 20.9967 51.8671 20.8167 51.6338 20.69C51.4071 20.5567 51.1538 20.49 50.8738 20.49C50.6004 20.49 50.3471 20.5567 50.1138 20.69C49.8871 20.8167 49.7004 20.9967 49.5538 21.23C49.4071 21.4567 49.3238 21.72 49.3038 22.02ZM54.071 23.47C54.071 23.1367 54.1643 22.8467 54.351 22.6C54.5443 22.3467 54.8077 22.1533 55.141 22.02C55.4743 21.88 55.861 21.81 56.301 21.81C56.5343 21.81 56.771 21.8267 57.011 21.86C57.2577 21.8933 57.4743 21.9467 57.661 22.02V21.69C57.661 21.3233 57.551 21.0367 57.331 20.83C57.111 20.6233 56.7943 20.52 56.381 20.52C56.0877 20.52 55.811 20.5733 55.551 20.68C55.291 20.78 55.0143 20.9233 54.721 21.11L54.351 20.37C54.6977 20.1367 55.0443 19.9633 55.391 19.85C55.7443 19.7367 56.1143 19.68 56.501 19.68C57.201 19.68 57.751 19.8667 58.151 20.24C58.5577 20.6067 58.761 21.13 58.761 21.81V23.76C58.761 23.8867 58.781 23.9767 58.821 24.03C58.8677 24.0833 58.9443 24.1133 59.051 24.12V25C58.951 25.02 58.861 25.0333 58.781 25.04C58.701 25.0467 58.6343 25.05 58.581 25.05C58.3477 25.05 58.171 24.9933 58.051 24.88C57.931 24.7667 57.861 24.6333 57.841 24.48L57.811 24.18C57.5843 24.4733 57.2943 24.7 56.941 24.86C56.5877 25.02 56.231 25.1 55.871 25.1C55.5243 25.1 55.2143 25.03 54.941 24.89C54.6677 24.7433 54.4543 24.5467 54.301 24.3C54.1477 24.0533 54.071 23.7767 54.071 23.47ZM57.401 23.79C57.481 23.7033 57.5443 23.6167 57.591 23.53C57.6377 23.4433 57.661 23.3667 57.661 23.3V22.7C57.4743 22.6267 57.2777 22.5733 57.071 22.54C56.8643 22.5 56.661 22.48 56.461 22.48C56.061 22.48 55.7343 22.56 55.481 22.72C55.2343 22.88 55.111 23.1 55.111 23.38C55.111 23.5333 55.151 23.68 55.231 23.82C55.3177 23.96 55.4377 24.0733 55.591 24.16C55.751 24.2467 55.9477 24.29 56.181 24.29C56.421 24.29 56.651 24.2433 56.871 24.15C57.091 24.0567 57.2677 23.9367 57.401 23.79ZM63.0355 20.72C62.6089 20.7267 62.2289 20.8233 61.8955 21.01C61.5689 21.1967 61.3355 21.46 61.1955 21.8V25H60.0955V19.77H61.1155V20.94C61.2955 20.58 61.5322 20.2933 61.8255 20.08C62.1189 19.86 62.4289 19.74 62.7555 19.72C62.8222 19.72 62.8755 19.72 62.9155 19.72C62.9622 19.72 63.0022 19.7233 63.0355 19.73V20.72ZM66.7458 24.73C66.6524 24.7767 66.5358 24.8267 66.3958 24.88C66.2558 24.9333 66.0958 24.98 65.9158 25.02C65.7424 25.06 65.5624 25.08 65.3758 25.08C65.1491 25.08 64.9391 25.04 64.7458 24.96C64.5524 24.88 64.3958 24.7533 64.2758 24.58C64.1624 24.4 64.1058 24.17 64.1058 23.89V20.62H63.4158V19.77H64.1058V18.05H65.2058V19.77H66.3458V20.62H65.2058V23.54C65.2191 23.72 65.2758 23.8533 65.3758 23.94C65.4824 24.0267 65.6124 24.07 65.7658 24.07C65.9191 24.07 66.0658 24.0433 66.2058 23.99C66.3458 23.9367 66.4491 23.8933 66.5158 23.86L66.7458 24.73ZM70.1184 25V17.9H73.2084C73.5284 17.9 73.8217 17.9667 74.0884 18.1C74.355 18.2333 74.585 18.41 74.7784 18.63C74.9784 18.85 75.1317 19.0967 75.2384 19.37C75.3517 19.6433 75.4084 19.9233 75.4084 20.21C75.4084 20.5233 75.3517 20.8233 75.2384 21.11C75.125 21.3967 74.9617 21.6433 74.7484 21.85C74.5417 22.0567 74.2984 22.2067 74.0184 22.3L75.6884 25H74.4284L72.8884 22.53H71.2384V25H70.1184ZM71.2384 21.54H73.1984C73.405 21.54 73.5884 21.48 73.7484 21.36C73.9084 21.24 74.035 21.08 74.1284 20.88C74.2217 20.6733 74.2684 20.45 74.2684 20.21C74.2684 19.9633 74.215 19.7433 74.1084 19.55C74.0017 19.35 73.8617 19.19 73.6884 19.07C73.5217 18.95 73.3384 18.89 73.1384 18.89H71.2384V21.54ZM76.1218 23.47C76.1218 23.1367 76.2151 22.8467 76.4018 22.6C76.5951 22.3467 76.8585 22.1533 77.1918 22.02C77.5251 21.88 77.9118 21.81 78.3518 21.81C78.5851 21.81 78.8218 21.8267 79.0618 21.86C79.3085 21.8933 79.5251 21.9467 79.7118 22.02V21.69C79.7118 21.3233 79.6018 21.0367 79.3818 20.83C79.1618 20.6233 78.8451 20.52 78.4318 20.52C78.1385 20.52 77.8618 20.5733 77.6018 20.68C77.3418 20.78 77.0651 20.9233 76.7718 21.11L76.4018 20.37C76.7485 20.1367 77.0951 19.9633 77.4418 19.85C77.7951 19.7367 78.1651 19.68 78.5518 19.68C79.2518 19.68 79.8018 19.8667 80.2018 20.24C80.6085 20.6067 80.8118 21.13 80.8118 21.81V23.76C80.8118 23.8867 80.8318 23.9767 80.8718 24.03C80.9185 24.0833 80.9951 24.1133 81.1018 24.12V25C81.0018 25.02 80.9118 25.0333 80.8318 25.04C80.7518 25.0467 80.6851 25.05 80.6318 25.05C80.3985 25.05 80.2218 24.9933 80.1018 24.88C79.9818 24.7667 79.9118 24.6333 79.8918 24.48L79.8618 24.18C79.6351 24.4733 79.3451 24.7 78.9918 24.86C78.6385 25.02 78.2818 25.1 77.9218 25.1C77.5751 25.1 77.2651 25.03 76.9918 24.89C76.7185 24.7433 76.5051 24.5467 76.3518 24.3C76.1985 24.0533 76.1218 23.7767 76.1218 23.47ZM79.4518 23.79C79.5318 23.7033 79.5951 23.6167 79.6418 23.53C79.6885 23.4433 79.7118 23.3667 79.7118 23.3V22.7C79.5251 22.6267 79.3285 22.5733 79.1218 22.54C78.9151 22.5 78.7118 22.48 78.5118 22.48C78.1118 22.48 77.7851 22.56 77.5318 22.72C77.2851 22.88 77.1618 23.1 77.1618 23.38C77.1618 23.5333 77.2018 23.68 77.2818 23.82C77.3685 23.96 77.4885 24.0733 77.6418 24.16C77.8018 24.2467 77.9985 24.29 78.2318 24.29C78.4718 24.29 78.7018 24.2433 78.9218 24.15C79.1418 24.0567 79.3185 23.9367 79.4518 23.79ZM85.0173 24.73C84.9239 24.7767 84.8073 24.8267 84.6673 24.88C84.5273 24.9333 84.3673 24.98 84.1873 25.02C84.0139 25.06 83.8339 25.08 83.6473 25.08C83.4206 25.08 83.2106 25.04 83.0173 24.96C82.8239 24.88 82.6673 24.7533 82.5473 24.58C82.4339 24.4 82.3773 24.17 82.3773 23.89V20.62H81.6873V19.77H82.3773V18.05H83.4773V19.77H84.6173V20.62H83.4773V23.54C83.4906 23.72 83.5473 23.8533 83.6473 23.94C83.7539 24.0267 83.8839 24.07 84.0373 24.07C84.1906 24.07 84.3373 24.0433 84.4773 23.99C84.6173 23.9367 84.7206 23.8933 84.7873 23.86L85.0173 24.73ZM88.0808 25.1C87.6741 25.1 87.3041 25.03 86.9708 24.89C86.6441 24.7433 86.3608 24.5467 86.1208 24.3C85.8808 24.0467 85.6941 23.76 85.5608 23.44C85.4341 23.1133 85.3708 22.7667 85.3708 22.4C85.3708 21.9067 85.4841 21.4567 85.7108 21.05C85.9374 20.6367 86.2541 20.3067 86.6608 20.06C87.0674 19.8067 87.5441 19.68 88.0908 19.68C88.6374 19.68 89.1074 19.8067 89.5008 20.06C89.9008 20.3067 90.2108 20.6333 90.4308 21.04C90.6508 21.4467 90.7608 21.8833 90.7608 22.35C90.7608 22.43 90.7574 22.5067 90.7508 22.58C90.7441 22.6467 90.7374 22.7033 90.7308 22.75H86.5408C86.5608 23.0567 86.6441 23.3267 86.7908 23.56C86.9441 23.7867 87.1374 23.9667 87.3708 24.1C87.6041 24.2267 87.8541 24.29 88.1208 24.29C88.4141 24.29 88.6908 24.2167 88.9508 24.07C89.2174 23.9233 89.3974 23.73 89.4908 23.49L90.4308 23.76C90.3174 24.0133 90.1441 24.2433 89.9108 24.45C89.6841 24.65 89.4141 24.81 89.1008 24.93C88.7874 25.0433 88.4474 25.1 88.0808 25.1ZM86.5108 22.02H89.6708C89.6508 21.72 89.5641 21.4567 89.4108 21.23C89.2641 20.9967 89.0741 20.8167 88.8408 20.69C88.6141 20.5567 88.3608 20.49 88.0808 20.49C87.8074 20.49 87.5541 20.5567 87.3208 20.69C87.0941 20.8167 86.9074 20.9967 86.7608 21.23C86.6141 21.4567 86.5308 21.72 86.5108 22.02ZM94.377 17.9L96.517 23.63L98.647 17.9H99.837L97.047 25H95.987L93.187 17.9H94.377ZM99.6374 23.47C99.6374 23.1367 99.7308 22.8467 99.9174 22.6C100.111 22.3467 100.374 22.1533 100.707 22.02C101.041 21.88 101.427 21.81 101.867 21.81C102.101 21.81 102.337 21.8267 102.577 21.86C102.824 21.8933 103.041 21.9467 103.227 22.02V21.69C103.227 21.3233 103.117 21.0367 102.897 20.83C102.677 20.6233 102.361 20.52 101.947 20.52C101.654 20.52 101.377 20.5733 101.117 20.68C100.857 20.78 100.581 20.9233 100.287 21.11L99.9174 20.37C100.264 20.1367 100.611 19.9633 100.957 19.85C101.311 19.7367 101.681 19.68 102.067 19.68C102.767 19.68 103.317 19.8667 103.717 20.24C104.124 20.6067 104.327 21.13 104.327 21.81V23.76C104.327 23.8867 104.347 23.9767 104.387 24.03C104.434 24.0833 104.511 24.1133 104.617 24.12V25C104.517 25.02 104.427 25.0333 104.347 25.04C104.267 25.0467 104.201 25.05 104.147 25.05C103.914 25.05 103.737 24.9933 103.617 24.88C103.497 24.7667 103.427 24.6333 103.407 24.48L103.377 24.18C103.151 24.4733 102.861 24.7 102.507 24.86C102.154 25.02 101.797 25.1 101.437 25.1C101.091 25.1 100.781 25.03 100.507 24.89C100.234 24.7433 100.021 24.5467 99.8674 24.3C99.7141 24.0533 99.6374 23.7767 99.6374 23.47ZM102.967 23.79C103.047 23.7033 103.111 23.6167 103.157 23.53C103.204 23.4433 103.227 23.3667 103.227 23.3V22.7C103.041 22.6267 102.844 22.5733 102.637 22.54C102.431 22.5 102.227 22.48 102.027 22.48C101.627 22.48 101.301 22.56 101.047 22.72C100.801 22.88 100.677 23.1 100.677 23.38C100.677 23.5333 100.717 23.68 100.797 23.82C100.884 23.96 101.004 24.0733 101.157 24.16C101.317 24.2467 101.514 24.29 101.747 24.29C101.987 24.29 102.217 24.2433 102.437 24.15C102.657 24.0567 102.834 23.9367 102.967 23.79ZM108.602 20.72C108.175 20.7267 107.795 20.8233 107.462 21.01C107.135 21.1967 106.902 21.46 106.762 21.8V25H105.662V19.77H106.682V20.94C106.862 20.58 107.099 20.2933 107.392 20.08C107.685 19.86 107.995 19.74 108.322 19.72C108.389 19.72 108.442 19.72 108.482 19.72C108.529 19.72 108.569 19.7233 108.602 19.73V20.72ZM109.402 25V19.77H110.502V25H109.402ZM109.402 18.91V17.7H110.502V18.91H109.402ZM111.444 23.47C111.444 23.1367 111.537 22.8467 111.724 22.6C111.917 22.3467 112.181 22.1533 112.514 22.02C112.847 21.88 113.234 21.81 113.674 21.81C113.907 21.81 114.144 21.8267 114.384 21.86C114.631 21.8933 114.847 21.9467 115.034 22.02V21.69C115.034 21.3233 114.924 21.0367 114.704 20.83C114.484 20.6233 114.167 20.52 113.754 20.52C113.461 20.52 113.184 20.5733 112.924 20.68C112.664 20.78 112.387 20.9233 112.094 21.11L111.724 20.37C112.071 20.1367 112.417 19.9633 112.764 19.85C113.117 19.7367 113.487 19.68 113.874 19.68C114.574 19.68 115.124 19.8667 115.524 20.24C115.931 20.6067 116.134 21.13 116.134 21.81V23.76C116.134 23.8867 116.154 23.9767 116.194 24.03C116.241 24.0833 116.317 24.1133 116.424 24.12V25C116.324 25.02 116.234 25.0333 116.154 25.04C116.074 25.0467 116.007 25.05 115.954 25.05C115.721 25.05 115.544 24.9933 115.424 24.88C115.304 24.7667 115.234 24.6333 115.214 24.48L115.184 24.18C114.957 24.4733 114.667 24.7 114.314 24.86C113.961 25.02 113.604 25.1 113.244 25.1C112.897 25.1 112.587 25.03 112.314 24.89C112.041 24.7433 111.827 24.5467 111.674 24.3C111.521 24.0533 111.444 23.7767 111.444 23.47ZM114.774 23.79C114.854 23.7033 114.917 23.6167 114.964 23.53C115.011 23.4433 115.034 23.3667 115.034 23.3V22.7C114.847 22.6267 114.651 22.5733 114.444 22.54C114.237 22.5 114.034 22.48 113.834 22.48C113.434 22.48 113.107 22.56 112.854 22.72C112.607 22.88 112.484 23.1 112.484 23.38C112.484 23.5333 112.524 23.68 112.604 23.82C112.691 23.96 112.811 24.0733 112.964 24.16C113.124 24.2467 113.321 24.29 113.554 24.29C113.794 24.29 114.024 24.2433 114.244 24.15C114.464 24.0567 114.641 23.9367 114.774 23.79ZM120.289 25.1C119.889 25.1 119.525 25.0067 119.199 24.82C118.879 24.6267 118.625 24.37 118.439 24.05V25H117.469V17.7H118.569V20.76C118.775 20.4267 119.032 20.1633 119.339 19.97C119.652 19.7767 120.019 19.68 120.439 19.68C120.785 19.68 121.102 19.7533 121.389 19.9C121.675 20.0467 121.919 20.2467 122.119 20.5C122.325 20.7533 122.482 21.0433 122.589 21.37C122.702 21.6967 122.759 22.0433 122.759 22.41C122.759 22.7767 122.695 23.1233 122.569 23.45C122.449 23.7767 122.275 24.0633 122.049 24.31C121.822 24.5567 121.559 24.75 121.259 24.89C120.965 25.03 120.642 25.1 120.289 25.1ZM119.999 24.16C120.239 24.16 120.459 24.1133 120.659 24.02C120.859 23.92 121.032 23.79 121.179 23.63C121.325 23.47 121.435 23.2833 121.509 23.07C121.589 22.8567 121.629 22.6367 121.629 22.41C121.629 22.0967 121.562 21.8033 121.429 21.53C121.302 21.2567 121.122 21.0367 120.889 20.87C120.655 20.7033 120.385 20.62 120.079 20.62C119.859 20.62 119.652 20.6733 119.459 20.78C119.265 20.88 119.092 21.0167 118.939 21.19C118.792 21.3567 118.669 21.5433 118.569 21.75V23.13C118.609 23.2833 118.679 23.4233 118.779 23.55C118.879 23.67 118.995 23.7767 119.129 23.87C119.262 23.9567 119.405 24.0267 119.559 24.08C119.712 24.1333 119.859 24.16 119.999 24.16ZM123.748 25V19.77H124.848V25H123.748ZM123.748 18.91V17.7H124.848V18.91H123.748ZM126.18 17.7H127.28V23.49C127.28 23.7567 127.32 23.9267 127.4 24C127.48 24.0733 127.58 24.11 127.7 24.11C127.833 24.11 127.956 24.0967 128.07 24.07C128.19 24.0433 128.293 24.01 128.38 23.97L128.54 24.84C128.38 24.9067 128.19 24.9633 127.97 25.01C127.75 25.0567 127.553 25.08 127.38 25.08C127.006 25.08 126.713 24.9767 126.5 24.77C126.286 24.5567 126.18 24.2633 126.18 23.89V17.7ZM129.178 25V19.77H130.278V25H129.178ZM129.178 18.91V17.7H130.278V18.91H129.178ZM134.509 24.73C134.416 24.7767 134.299 24.8267 134.159 24.88C134.019 24.9333 133.859 24.98 133.679 25.02C133.506 25.06 133.326 25.08 133.139 25.08C132.913 25.08 132.703 25.04 132.509 24.96C132.316 24.88 132.159 24.7533 132.039 24.58C131.926 24.4 131.869 24.17 131.869 23.89V20.62H131.179V19.77H131.869V18.05H132.969V19.77H134.109V20.62H132.969V23.54C132.983 23.72 133.039 23.8533 133.139 23.94C133.246 24.0267 133.376 24.07 133.529 24.07C133.683 24.07 133.829 24.0433 133.969 23.99C134.109 23.9367 134.213 23.8933 134.279 23.86L134.509 24.73ZM135.442 26.23C135.542 26.2433 135.638 26.2567 135.732 26.27C135.832 26.29 135.912 26.3 135.972 26.3C136.085 26.3 136.182 26.2633 136.262 26.19C136.348 26.1233 136.435 25.9967 136.522 25.81C136.608 25.6233 136.715 25.3533 136.842 25L134.692 19.77H135.842L137.442 23.88L138.862 19.77H139.922L137.552 26.21C137.478 26.4033 137.372 26.58 137.232 26.74C137.092 26.9067 136.918 27.0367 136.712 27.13C136.505 27.2233 136.262 27.27 135.982 27.27C135.902 27.27 135.818 27.2633 135.732 27.25C135.645 27.2367 135.548 27.2167 135.442 27.19V26.23Z" fill="#00625B"/>
<rect x="152.5" y="12" width="80" height="18" rx="8" fill="#17B26A"/>
<path d="M182.773 21.0909C182.773 21.7178 182.655 22.2547 182.42 22.7017C182.188 23.1468 181.869 23.4877 181.466 23.7244C181.064 23.9612 180.609 24.0795 180.099 24.0795C179.59 24.0795 179.134 23.9612 178.73 23.7244C178.329 23.4858 178.01 23.1439 177.776 22.6989C177.543 22.2519 177.426 21.7159 177.426 21.0909C177.426 20.464 177.543 19.928 177.776 19.483C178.01 19.036 178.329 18.6941 178.73 18.4574C179.134 18.2206 179.59 18.1023 180.099 18.1023C180.609 18.1023 181.064 18.2206 181.466 18.4574C181.869 18.6941 182.188 19.036 182.42 19.483C182.655 19.928 182.773 20.464 182.773 21.0909ZM181.713 21.0909C181.713 20.6496 181.644 20.2775 181.506 19.9744C181.369 19.6695 181.18 19.4394 180.938 19.2841C180.695 19.1269 180.416 19.0483 180.099 19.0483C179.783 19.0483 179.504 19.1269 179.261 19.2841C179.019 19.4394 178.829 19.6695 178.69 19.9744C178.554 20.2775 178.486 20.6496 178.486 21.0909C178.486 21.5322 178.554 21.9053 178.69 22.2102C178.829 22.5133 179.019 22.7434 179.261 22.9006C179.504 23.0559 179.783 23.1335 180.099 23.1335C180.416 23.1335 180.695 23.0559 180.938 22.9006C181.18 22.7434 181.369 22.5133 181.506 22.2102C181.644 21.9053 181.713 21.5322 181.713 21.0909ZM183.724 25.6364V19.6364H184.735V20.358H184.795C184.848 20.2519 184.923 20.1392 185.019 20.0199C185.116 19.8987 185.246 19.7955 185.411 19.7102C185.576 19.6231 185.786 19.5795 186.042 19.5795C186.379 19.5795 186.683 19.6657 186.954 19.8381C187.227 20.0085 187.442 20.2614 187.602 20.5966C187.763 20.9299 187.843 21.339 187.843 21.8239C187.843 22.303 187.764 22.7102 187.607 23.0455C187.45 23.3807 187.236 23.6364 186.965 23.8125C186.694 23.9886 186.388 24.0767 186.045 24.0767C185.795 24.0767 185.587 24.035 185.423 23.9517C185.258 23.8684 185.125 23.768 185.025 23.6506C184.926 23.5312 184.85 23.4186 184.795 23.3125H184.752V25.6364H183.724ZM184.732 21.8182C184.732 22.1004 184.772 22.3475 184.852 22.5597C184.933 22.7718 185.049 22.9375 185.201 23.0568C185.354 23.1742 185.54 23.233 185.758 23.233C185.985 23.233 186.175 23.1723 186.329 23.0511C186.482 22.928 186.598 22.7604 186.675 22.5483C186.755 22.3343 186.795 22.0909 186.795 21.8182C186.795 21.5473 186.756 21.3068 186.678 21.0966C186.601 20.8864 186.485 20.7216 186.332 20.6023C186.178 20.483 185.987 20.4233 185.758 20.4233C185.538 20.4233 185.352 20.4811 185.198 20.5966C185.045 20.7121 184.928 20.8741 184.849 21.0824C184.771 21.2907 184.732 21.536 184.732 21.8182ZM190.903 19.6364V20.4318H188.394V19.6364H190.903ZM189.013 18.5909H190.042V22.6875C190.042 22.8258 190.063 22.9318 190.104 23.0057C190.148 23.0777 190.205 23.1269 190.275 23.1534C190.345 23.1799 190.423 23.1932 190.508 23.1932C190.572 23.1932 190.631 23.1884 190.684 23.179C190.739 23.1695 190.781 23.161 190.809 23.1534L190.982 23.9574C190.927 23.9763 190.849 23.9972 190.746 24.0199C190.646 24.0426 190.523 24.0559 190.377 24.0597C190.12 24.0672 189.888 24.0284 189.681 23.9432C189.475 23.8561 189.311 23.7216 189.19 23.5398C189.07 23.358 189.012 23.1307 189.013 22.858V18.5909ZM191.763 24V19.6364H192.791V24H191.763ZM192.28 19.017C192.117 19.017 191.977 18.9631 191.859 18.8551C191.742 18.7453 191.683 18.6136 191.683 18.4602C191.683 18.3049 191.742 18.1733 191.859 18.0653C191.977 17.9555 192.117 17.9006 192.28 17.9006C192.445 17.9006 192.585 17.9555 192.7 18.0653C192.818 18.1733 192.876 18.3049 192.876 18.4602C192.876 18.6136 192.818 18.7453 192.7 18.8551C192.585 18.9631 192.445 19.017 192.28 19.017ZM193.849 24V19.6364H194.832V20.3778H194.883C194.974 20.1278 195.124 19.9328 195.335 19.7926C195.545 19.6506 195.796 19.5795 196.087 19.5795C196.383 19.5795 196.632 19.6515 196.835 19.7955C197.039 19.9375 197.183 20.1316 197.266 20.3778H197.312C197.408 20.1354 197.571 19.9422 197.8 19.7983C198.031 19.6525 198.305 19.5795 198.621 19.5795C199.023 19.5795 199.351 19.7064 199.604 19.9602C199.858 20.214 199.985 20.5843 199.985 21.071V24H198.954V21.2301C198.954 20.9593 198.882 20.7614 198.738 20.6364C198.594 20.5095 198.418 20.446 198.21 20.446C197.961 20.446 197.767 20.5237 197.627 20.679C197.489 20.8324 197.42 21.0322 197.42 21.2784V24H196.411V21.1875C196.411 20.9621 196.343 20.7822 196.207 20.6477C196.072 20.5133 195.896 20.446 195.678 20.446C195.531 20.446 195.396 20.4839 195.275 20.5597C195.154 20.6335 195.057 20.7386 194.985 20.875C194.913 21.0095 194.877 21.1667 194.877 21.3466V24H193.849ZM202.284 24.0881C202.008 24.0881 201.759 24.0388 201.537 23.9403C201.317 23.84 201.143 23.6922 201.014 23.4972C200.887 23.3021 200.824 23.0616 200.824 22.7756C200.824 22.5294 200.869 22.3258 200.96 22.1648C201.051 22.0038 201.175 21.875 201.332 21.7784C201.49 21.6818 201.667 21.6089 201.864 21.5597C202.063 21.5085 202.268 21.4716 202.48 21.4489C202.736 21.4223 202.943 21.3987 203.102 21.3778C203.261 21.3551 203.377 21.321 203.449 21.2756C203.523 21.2282 203.56 21.1553 203.56 21.0568V21.0398C203.56 20.8258 203.496 20.66 203.369 20.5426C203.242 20.4252 203.06 20.3665 202.821 20.3665C202.569 20.3665 202.369 20.4214 202.222 20.5312C202.076 20.6411 201.977 20.7708 201.926 20.9205L200.966 20.7841C201.042 20.5189 201.167 20.2973 201.341 20.1193C201.515 19.9394 201.728 19.8049 201.98 19.7159C202.232 19.625 202.51 19.5795 202.815 19.5795C203.026 19.5795 203.235 19.6042 203.443 19.6534C203.652 19.7027 203.842 19.7841 204.014 19.8977C204.187 20.0095 204.325 20.1619 204.429 20.3551C204.535 20.5483 204.588 20.7898 204.588 21.0795V24H203.599V23.4006H203.565C203.503 23.5218 203.415 23.6354 203.301 23.7415C203.189 23.8456 203.048 23.9299 202.878 23.9943C202.709 24.0568 202.511 24.0881 202.284 24.0881ZM202.551 23.3324C202.758 23.3324 202.937 23.2917 203.088 23.2102C203.24 23.1269 203.356 23.017 203.438 22.8807C203.521 22.7443 203.562 22.5956 203.562 22.4347V21.9205C203.53 21.947 203.475 21.9716 203.398 21.9943C203.322 22.017 203.237 22.0369 203.142 22.054C203.047 22.071 202.954 22.0862 202.861 22.0994C202.768 22.1127 202.688 22.1241 202.619 22.1335C202.466 22.1544 202.329 22.1884 202.207 22.2358C202.086 22.2831 201.991 22.3494 201.92 22.4347C201.85 22.518 201.815 22.6259 201.815 22.7585C201.815 22.9479 201.884 23.0909 202.023 23.1875C202.161 23.2841 202.337 23.3324 202.551 23.3324ZM206.651 18.1818V24H205.622V18.1818H206.651Z" fill="#EFEFEF"/>
<path d="M44.5014 51.1662C43.7997 51.1662 43.1974 50.9886 42.6946 50.6335C42.1946 50.2756 41.8097 49.7599 41.5398 49.0866C41.2727 48.4105 41.1392 47.5966 41.1392 46.6449C41.142 45.6932 41.277 44.8835 41.544 44.2159C41.8139 43.5455 42.1989 43.0341 42.6989 42.6818C43.2017 42.3295 43.8026 42.1534 44.5014 42.1534C45.2003 42.1534 45.8011 42.3295 46.304 42.6818C46.8068 43.0341 47.1918 43.5455 47.4588 44.2159C47.7287 44.8864 47.8636 45.696 47.8636 46.6449C47.8636 47.5994 47.7287 48.4148 47.4588 49.0909C47.1918 49.7642 46.8068 50.2784 46.304 50.6335C45.804 50.9886 45.2031 51.1662 44.5014 51.1662ZM44.5014 49.8324C45.0469 49.8324 45.4773 49.5639 45.7926 49.027C46.1108 48.4872 46.2699 47.6932 46.2699 46.6449C46.2699 45.9517 46.1974 45.3693 46.0526 44.8977C45.9077 44.4261 45.7031 44.071 45.4389 43.8324C45.1747 43.5909 44.8622 43.4702 44.5014 43.4702C43.9588 43.4702 43.5298 43.7401 43.2145 44.2798C42.8991 44.8168 42.7401 45.6051 42.7372 46.6449C42.7344 47.3409 42.804 47.9261 42.946 48.4006C43.0909 48.875 43.2955 49.233 43.5597 49.4744C43.8239 49.7131 44.1378 49.8324 44.5014 49.8324ZM52.5053 51.1662C51.8036 51.1662 51.2013 50.9886 50.6985 50.6335C50.1985 50.2756 49.8136 49.7599 49.5437 49.0866C49.2766 48.4105 49.1431 47.5966 49.1431 46.6449C49.146 45.6932 49.2809 44.8835 49.5479 44.2159C49.8178 43.5455 50.2028 43.0341 50.7028 42.6818C51.2056 42.3295 51.8065 42.1534 52.5053 42.1534C53.2042 42.1534 53.805 42.3295 54.3079 42.6818C54.8107 43.0341 55.1957 43.5455 55.4627 44.2159C55.7326 44.8864 55.8675 45.696 55.8675 46.6449C55.8675 47.5994 55.7326 48.4148 55.4627 49.0909C55.1957 49.7642 54.8107 50.2784 54.3079 50.6335C53.8079 50.9886 53.207 51.1662 52.5053 51.1662ZM52.5053 49.8324C53.0508 49.8324 53.4812 49.5639 53.7965 49.027C54.1147 48.4872 54.2738 47.6932 54.2738 46.6449C54.2738 45.9517 54.2013 45.3693 54.0565 44.8977C53.9116 44.4261 53.707 44.071 53.4428 43.8324C53.1786 43.5909 52.8661 43.4702 52.5053 43.4702C51.9627 43.4702 51.5337 43.7401 51.2184 44.2798C50.9031 44.8168 50.744 45.6051 50.7411 46.6449C50.7383 47.3409 50.8079 47.9261 50.9499 48.4006C51.0948 48.875 51.2994 49.233 51.5636 49.4744C51.8278 49.7131 52.1417 49.8324 52.5053 49.8324ZM61.9496 49.3636V48.9034C61.9496 48.5653 62.0206 48.2543 62.1626 47.9702C62.3075 47.6861 62.5178 47.4574 62.7933 47.2841C63.0689 47.1108 63.4027 47.0241 63.7947 47.0241C64.1982 47.0241 64.5362 47.1108 64.8089 47.2841C65.0817 47.4545 65.2876 47.6818 65.4268 47.9659C65.5689 48.25 65.6399 48.5625 65.6399 48.9034V49.3636C65.6399 49.7017 65.5689 50.0128 65.4268 50.2969C65.2848 50.581 65.076 50.8097 64.8004 50.983C64.5277 51.1563 64.1925 51.2429 63.7947 51.2429C63.397 51.2429 63.0604 51.1563 62.7848 50.983C62.5092 50.8097 62.3004 50.581 62.1584 50.2969C62.0192 50.0128 61.9496 49.7017 61.9496 49.3636ZM63.0618 48.9034V49.3636C63.0618 49.5881 63.1158 49.794 63.2237 49.9815C63.3317 50.169 63.522 50.2628 63.7947 50.2628C64.0703 50.2628 64.2592 50.1705 64.3615 49.9858C64.4666 49.7983 64.5192 49.5909 64.5192 49.3636V48.9034C64.5192 48.6761 64.4695 48.4688 64.37 48.2812C64.2706 48.0909 64.0788 47.9957 63.7947 47.9957C63.5277 47.9957 63.3388 48.0909 63.228 48.2812C63.1172 48.4688 63.0618 48.6761 63.0618 48.9034ZM57.5135 44.3693V43.9091C57.5135 43.5682 57.5859 43.2557 57.7308 42.9716C57.8757 42.6875 58.0859 42.4602 58.3615 42.2898C58.6371 42.1165 58.9709 42.0298 59.3629 42.0298C59.7635 42.0298 60.1001 42.1165 60.3729 42.2898C60.6484 42.4602 60.8558 42.6875 60.995 42.9716C61.1342 43.2557 61.2038 43.5682 61.2038 43.9091V44.3693C61.2038 44.7102 61.1328 45.0227 60.9908 45.3068C60.8516 45.5881 60.6442 45.8139 60.3686 45.9844C60.093 46.1548 59.7578 46.2401 59.3629 46.2401C58.9624 46.2401 58.6243 46.1548 58.3487 45.9844C58.076 45.8139 57.8686 45.5866 57.7266 45.3026C57.5845 45.0185 57.5135 44.7074 57.5135 44.3693ZM58.6342 43.9091V44.3693C58.6342 44.5966 58.6868 44.804 58.7919 44.9915C58.8999 45.1761 59.0902 45.2685 59.3629 45.2685C59.6357 45.2685 59.8232 45.1761 59.9254 44.9915C60.0305 44.804 60.0831 44.5966 60.0831 44.3693V43.9091C60.0831 43.6818 60.0334 43.4744 59.9339 43.2869C59.8345 43.0966 59.6442 43.0014 59.3629 43.0014C59.093 43.0014 58.9041 43.0966 58.7962 43.2869C58.6882 43.4773 58.6342 43.6847 58.6342 43.9091ZM57.9993 51L63.9993 42.2727H65.0646L59.0646 51H57.9993Z" fill="#003632"/>
<path d="M71.1136 50V45.6364H71.7614V46.3182H71.8182C71.9091 46.0852 72.0559 45.9044 72.2585 45.7756C72.4612 45.6449 72.7045 45.5795 72.9886 45.5795C73.2765 45.5795 73.5161 45.6449 73.7074 45.7756C73.9006 45.9044 74.0511 46.0852 74.1591 46.3182H74.2045C74.3163 46.0928 74.4839 45.9138 74.7074 45.7812C74.9309 45.6468 75.1989 45.5795 75.5114 45.5795C75.9015 45.5795 76.2206 45.7017 76.4688 45.946C76.7169 46.1884 76.8409 46.5663 76.8409 47.0795V50H76.1705V47.0795C76.1705 46.7576 76.0824 46.5275 75.9062 46.3892C75.7301 46.2509 75.5227 46.1818 75.2841 46.1818C74.9773 46.1818 74.7396 46.2746 74.571 46.4602C74.4025 46.6439 74.3182 46.8769 74.3182 47.1591V50H73.6364V47.0114C73.6364 46.7633 73.5559 46.5634 73.3949 46.4119C73.2339 46.2585 73.0265 46.1818 72.7727 46.1818C72.5985 46.1818 72.4356 46.2282 72.2841 46.321C72.1345 46.4138 72.0133 46.5426 71.9205 46.7074C71.8295 46.8703 71.7841 47.0587 71.7841 47.2727V50H71.1136ZM80.1236 43.9091L78.2486 50.875H77.6349L79.5099 43.9091H80.1236ZM84.0092 46.6136L83.407 46.7841C83.3691 46.6837 83.3132 46.5862 83.2393 46.4915C83.1674 46.3949 83.0689 46.3153 82.9439 46.2528C82.8189 46.1903 82.6589 46.1591 82.4638 46.1591C82.1967 46.1591 81.9742 46.2206 81.7962 46.3438C81.62 46.465 81.532 46.6193 81.532 46.8068C81.532 46.9735 81.5926 47.1051 81.7138 47.2017C81.835 47.2983 82.0244 47.3788 82.282 47.4432L82.9297 47.6023C83.3198 47.697 83.6106 47.8419 83.8018 48.0369C83.9931 48.2301 84.0888 48.4792 84.0888 48.7841C84.0888 49.0341 84.0168 49.2576 83.8729 49.4545C83.7308 49.6515 83.532 49.8068 83.2763 49.9205C83.0206 50.0341 82.7232 50.0909 82.3842 50.0909C81.9392 50.0909 81.5708 49.9943 81.2791 49.8011C80.9875 49.608 80.8028 49.3258 80.7251 48.9545L81.3615 48.7955C81.4221 49.0303 81.5367 49.2064 81.7053 49.3239C81.8757 49.4413 82.0982 49.5 82.3729 49.5C82.6854 49.5 82.9335 49.4337 83.1172 49.3011C83.3028 49.1667 83.3956 49.0057 83.3956 48.8182C83.3956 48.6667 83.3426 48.5398 83.2365 48.4375C83.1304 48.3333 82.9676 48.2557 82.7479 48.2045L82.0206 48.0341C81.621 47.9394 81.3274 47.7926 81.1399 47.5938C80.9543 47.393 80.8615 47.142 80.8615 46.8409C80.8615 46.5947 80.9306 46.3769 81.0689 46.1875C81.209 45.9981 81.3994 45.8494 81.6399 45.7415C81.8823 45.6335 82.157 45.5795 82.4638 45.5795C82.8956 45.5795 83.2346 45.6742 83.4808 45.8636C83.7289 46.053 83.9051 46.303 84.0092 46.6136Z" fill="#667085"/>
<path d="M183.966 48.8068V48.2273L186.523 44.1818H186.943V45.0795H186.659L184.727 48.1364V48.1818H188.17V48.8068H183.966ZM186.705 50V48.6307V48.3608V44.1818H187.375V50H186.705ZM191.133 50.0795C190.705 50.0795 190.34 49.9631 190.039 49.7301C189.738 49.4953 189.508 49.1553 189.349 48.7102C189.19 48.2633 189.11 47.7235 189.11 47.0909C189.11 46.4621 189.19 45.9252 189.349 45.4801C189.51 45.0331 189.741 44.6922 190.042 44.4574C190.345 44.2206 190.709 44.1023 191.133 44.1023C191.557 44.1023 191.92 44.2206 192.221 44.4574C192.524 44.6922 192.755 45.0331 192.914 45.4801C193.075 45.9252 193.156 46.4621 193.156 47.0909C193.156 47.7235 193.076 48.2633 192.917 48.7102C192.758 49.1553 192.528 49.4953 192.227 49.7301C191.925 49.9631 191.561 50.0795 191.133 50.0795ZM191.133 49.4545C191.557 49.4545 191.887 49.25 192.121 48.8409C192.356 48.4318 192.474 47.8485 192.474 47.0909C192.474 46.5871 192.42 46.1581 192.312 45.804C192.206 45.4498 192.052 45.1799 191.852 44.9943C191.653 44.8087 191.413 44.7159 191.133 44.7159C190.712 44.7159 190.384 44.9233 190.147 45.3381C189.91 45.7509 189.792 46.3352 189.792 47.0909C189.792 47.5947 189.845 48.0227 189.951 48.375C190.057 48.7273 190.21 48.9953 190.408 49.179C190.609 49.3627 190.851 49.4545 191.133 49.4545ZM198.996 46.7784V47.4034H196.451V46.7784H198.996ZM204.46 44.1818V50H203.756V44.9205H203.722L202.301 45.8636V45.1477L203.756 44.1818H204.46ZM208.031 50.0795C207.603 50.0795 207.239 49.9631 206.938 49.7301C206.636 49.4953 206.406 49.1553 206.247 48.7102C206.088 48.2633 206.009 47.7235 206.009 47.0909C206.009 46.4621 206.088 45.9252 206.247 45.4801C206.408 45.0331 206.639 44.6922 206.94 44.4574C207.243 44.2206 207.607 44.1023 208.031 44.1023C208.455 44.1023 208.818 44.2206 209.119 44.4574C209.422 44.6922 209.653 45.0331 209.812 45.4801C209.973 45.9252 210.054 46.4621 210.054 47.0909C210.054 47.7235 209.974 48.2633 209.815 48.7102C209.656 49.1553 209.426 49.4953 209.125 49.7301C208.824 49.9631 208.459 50.0795 208.031 50.0795ZM208.031 49.4545C208.455 49.4545 208.785 49.25 209.02 48.8409C209.255 48.4318 209.372 47.8485 209.372 47.0909C209.372 46.5871 209.318 46.1581 209.21 45.804C209.104 45.4498 208.951 45.1799 208.75 44.9943C208.551 44.8087 208.312 44.7159 208.031 44.7159C207.611 44.7159 207.282 44.9233 207.045 45.3381C206.809 45.7509 206.69 46.3352 206.69 47.0909C206.69 47.5947 206.743 48.0227 206.849 48.375C206.955 48.7273 207.108 48.9953 207.307 49.179C207.508 49.3627 207.749 49.4545 208.031 49.4545ZM213.031 50.0795C212.603 50.0795 212.239 49.9631 211.938 49.7301C211.636 49.4953 211.406 49.1553 211.247 48.7102C211.088 48.2633 211.009 47.7235 211.009 47.0909C211.009 46.4621 211.088 45.9252 211.247 45.4801C211.408 45.0331 211.639 44.6922 211.94 44.4574C212.243 44.2206 212.607 44.1023 213.031 44.1023C213.455 44.1023 213.818 44.2206 214.119 44.4574C214.422 44.6922 214.653 45.0331 214.812 45.4801C214.973 45.9252 215.054 46.4621 215.054 47.0909C215.054 47.7235 214.974 48.2633 214.815 48.7102C214.656 49.1553 214.426 49.4953 214.125 49.7301C213.824 49.9631 213.459 50.0795 213.031 50.0795ZM213.031 49.4545C213.455 49.4545 213.785 49.25 214.02 48.8409C214.255 48.4318 214.372 47.8485 214.372 47.0909C214.372 46.5871 214.318 46.1581 214.21 45.804C214.104 45.4498 213.951 45.1799 213.75 44.9943C213.551 44.8087 213.312 44.7159 213.031 44.7159C212.611 44.7159 212.282 44.9233 212.045 45.3381C211.809 45.7509 211.69 46.3352 211.69 47.0909C211.69 47.5947 211.743 48.0227 211.849 48.375C211.955 48.7273 212.108 48.9953 212.307 49.179C212.508 49.3627 212.749 49.4545 213.031 49.4545ZM218.395 50V45.6364H219.043V46.3182H219.099C219.19 46.0852 219.337 45.9044 219.54 45.7756C219.742 45.6449 219.986 45.5795 220.27 45.5795C220.558 45.5795 220.797 45.6449 220.989 45.7756C221.182 45.9044 221.332 46.0852 221.44 46.3182H221.486C221.598 46.0928 221.765 45.9138 221.989 45.7812C222.212 45.6468 222.48 45.5795 222.793 45.5795C223.183 45.5795 223.502 45.7017 223.75 45.946C223.998 46.1884 224.122 46.5663 224.122 47.0795V50H223.452V47.0795C223.452 46.7576 223.364 46.5275 223.188 46.3892C223.011 46.2509 222.804 46.1818 222.565 46.1818C222.259 46.1818 222.021 46.2746 221.852 46.4602C221.684 46.6439 221.599 46.8769 221.599 47.1591V50H220.918V47.0114C220.918 46.7633 220.837 46.5634 220.676 46.4119C220.515 46.2585 220.308 46.1818 220.054 46.1818C219.88 46.1818 219.717 46.2282 219.565 46.321C219.416 46.4138 219.295 46.5426 219.202 46.7074C219.111 46.8703 219.065 47.0587 219.065 47.2727V50H218.395ZM227.405 43.9091L225.53 50.875H224.916L226.791 43.9091H227.405ZM231.29 46.6136L230.688 46.7841C230.65 46.6837 230.594 46.5862 230.521 46.4915C230.449 46.3949 230.35 46.3153 230.225 46.2528C230.1 46.1903 229.94 46.1591 229.745 46.1591C229.478 46.1591 229.255 46.2206 229.077 46.3438C228.901 46.465 228.813 46.6193 228.813 46.8068C228.813 46.9735 228.874 47.1051 228.995 47.2017C229.116 47.2983 229.306 47.3788 229.563 47.4432L230.211 47.6023C230.601 47.697 230.892 47.8419 231.083 48.0369C231.274 48.2301 231.37 48.4792 231.37 48.7841C231.37 49.0341 231.298 49.2576 231.154 49.4545C231.012 49.6515 230.813 49.8068 230.558 49.9205C230.302 50.0341 230.004 50.0909 229.665 50.0909C229.22 50.0909 228.852 49.9943 228.56 49.8011C228.269 49.608 228.084 49.3258 228.006 48.9545L228.643 48.7955C228.703 49.0303 228.818 49.2064 228.987 49.3239C229.157 49.4413 229.379 49.5 229.654 49.5C229.967 49.5 230.215 49.4337 230.398 49.3011C230.584 49.1667 230.677 49.0057 230.677 48.8182C230.677 48.6667 230.624 48.5398 230.518 48.4375C230.412 48.3333 230.249 48.2557 230.029 48.2045L229.302 48.0341C228.902 47.9394 228.609 47.7926 228.421 47.5938C228.236 47.393 228.143 47.142 228.143 46.8409C228.143 46.5947 228.212 46.3769 228.35 46.1875C228.49 45.9981 228.681 45.8494 228.921 45.7415C229.164 45.6335 229.438 45.5795 229.745 45.5795C230.177 45.5795 230.516 45.6742 230.762 45.8636C231.01 46.053 231.186 46.303 231.29 46.6136Z" fill="#667085"/>
</svg>
