<svg width="119" height="236" viewBox="0 0 119 236" fill="none" xmlns="http://www.w3.org/2000/svg">
<path d="M78.7475 115.536C78.7475 112.931 78.3416 108.796 78.3416 101.158C78.5227 95.2241 75.6434 83.4069 75.6434 80.8024C75.3748 72.9389 72.3643 64.3134 72.2706 62.3772C72.4955 59.323 71.8646 53.9765 71.4149 50.7412C69.6598 43.7334 64.4071 39.5549 58.3861 38.8304C52.3651 38.1121 46.2504 32.672 46.2504 31.504V27.0195L47.1124 26.4386C48.5864 25.4455 49.4983 23.8154 49.5795 22.0416L49.7044 19.2747C52.3651 18.1254 51.447 12.3418 50.0167 12.5416L50.0604 11.5423C50.0854 11.2363 50.1041 10.9302 50.1041 10.6179C50.1041 4.75308 45.351 0 39.4862 0C33.6214 0 28.8683 4.75308 28.8683 10.6179C28.8683 10.9302 28.887 11.2363 28.912 11.5423L28.9557 12.5416C27.5192 12.3418 26.6073 18.1254 29.268 19.2747L29.3929 22.0416C29.4741 23.8154 30.3923 25.4455 31.86 26.4386L32.722 27.0195V31.504C32.722 32.672 26.6135 38.1121 20.5863 38.8304C14.5653 39.5487 9.3063 43.7271 7.55746 50.7412C7.10776 53.9765 6.47693 59.323 6.70178 62.3772C6.61434 64.3072 3.60385 72.9389 3.32903 80.8024C3.32903 83.4069 0.455948 95.2241 0.630831 101.158C0.630831 108.796 0.224851 112.931 0.224851 115.536C0.224851 118.14 0 125.691 0 127.128C0 128.564 5.48385 136.565 6.92039 137.102C8.35693 137.64 6.42697 135.172 6.10843 133.823C5.78989 132.474 4.08478 126.947 4.44704 126.453C4.8093 125.96 5.12159 125.06 5.79614 126.541C6.47069 128.021 7.90723 130.988 8.80663 130.857C9.70603 130.719 8.35693 126.722 8.35693 126.091C8.35693 125.46 8.1758 119.483 7.05155 117.191C7.09527 116.291 7.05155 115.754 7.05155 114.492C7.05155 113.231 9.74976 104.83 11.0489 101.595C12.3543 98.3595 13.566 89.7777 13.8345 85.237C14.1031 80.6962 15.4522 76.6989 16.1268 74.6752C16.8013 72.6516 17.3384 70.9028 17.7881 70.7654C18.9124 71.0339 19.6244 87.7978 19.7806 94.512C19.9367 101.233 17.0137 117.122 16.9325 126.928C16.8513 136.734 18.9873 146.771 19.9367 152.386C20.8861 158.001 21.3608 166.139 21.3608 170.493C21.3608 174.846 19.462 178.637 20.0179 185.832C20.5738 193.028 24.8397 204.489 25.9452 209.948C27.0507 215.4 28.8683 222.677 28.556 224.413C28.2374 226.149 23.1034 229.947 23.0222 231.527C22.941 233.107 26.5823 233.188 28.2374 233.582C29.8988 233.975 35.1141 236.193 36.2196 234.138C37.3251 232.083 36.5382 229.079 36.2196 227.573C35.9011 226.074 34.8768 209.941 34.8768 205.675C34.8768 201.41 35.8261 190.417 35.8261 186.938C35.8261 183.459 33.6151 173.578 34.1647 169.862C34.7206 166.146 35.9823 165.671 36.3008 161.798C36.6194 157.926 38.5118 123.849 39.4612 122.587C40.4106 123.855 42.3093 157.926 42.6216 161.798C42.9401 165.671 44.2018 166.146 44.7577 169.862C45.3136 173.578 43.0963 183.459 43.0963 186.938C43.0963 190.417 44.0457 201.403 44.0457 205.675C44.0457 209.948 43.0151 226.074 42.7028 227.573C42.3843 229.079 41.5973 232.077 42.7028 234.138C43.8083 236.193 49.0298 233.982 50.685 233.582C52.3464 233.188 55.9815 233.107 55.9003 231.527C55.8191 229.947 50.685 226.149 50.3664 224.413C50.0479 222.677 51.8717 215.4 52.9772 209.948C54.0827 204.495 58.3549 193.028 58.9045 185.832C59.4604 178.637 57.5617 174.846 57.5617 170.493C57.5617 166.139 58.0363 158.001 58.9857 152.386C59.9351 146.771 62.0711 136.734 61.99 126.928C61.9088 117.122 58.9857 101.233 59.1418 94.512C59.298 87.7915 60.01 71.0339 61.1343 70.7654C61.584 70.9028 62.1211 72.6516 62.7957 74.6752C63.4702 76.6989 64.8193 80.6962 65.0879 85.237C65.3565 89.7777 66.5682 98.3595 67.8735 101.595C69.1789 104.83 71.8709 113.231 71.8709 114.492C71.8709 115.754 71.8271 116.291 71.8709 117.191C70.7466 119.483 70.5655 125.46 70.5655 126.091C70.5655 126.722 69.2164 130.719 70.1158 130.857C71.0152 130.994 72.4517 128.027 73.1263 126.541C73.8008 125.06 74.1131 125.954 74.4754 126.453C74.8376 126.947 73.1263 132.474 72.814 133.823C72.5017 135.172 70.5655 137.646 72.002 137.102C73.4386 136.565 78.9224 128.564 78.9224 127.128C78.9224 125.691 78.6976 118.14 78.6976 115.536H78.7475Z" fill="url(#paint0_linear_938_160092)"/>
<path d="M106.923 1L106.923 233" stroke="#80C6C0" stroke-linecap="round" stroke-dasharray="8 8"/>
<line x1="95.4229" y1="0.5" x2="118.423" y2="0.5" stroke="#80C6C0" stroke-linecap="round"/>
<line x1="95.4229" y1="233.5" x2="118.423" y2="233.5" stroke="#80C6C0" stroke-linecap="round"/>
<line x1="19.5" y1="235.5" x2="58.5" y2="235.5" stroke="#80C6C0" stroke-linecap="round"/>
<defs>
<linearGradient id="paint0_linear_938_160092" x1="55.2457" y1="16.45" x2="-222.339" y2="214.008" gradientUnits="userSpaceOnUse">
<stop stop-color="#003E39" stop-opacity="0.56"/>
<stop offset="0.435146" stop-color="#003E39" stop-opacity="0"/>
</linearGradient>
</defs>
</svg>
