<svg width="24" height="24" viewBox="0 0 24 24" fill="none" xmlns="http://www.w3.org/2000/svg">
<mask id="path-1-outside-1_938_160668" maskUnits="userSpaceOnUse" x="2" y="2" width="20" height="20" fill="black">
<rect fill="white" x="2" y="2" width="20" height="20"/>
<path d="M12.0001 10.1068C13.0976 10.1068 13.9904 9.21393 13.9904 8.11647C13.9904 7.01921 13.0976 6.12635 12.0001 6.12635C10.9026 6.12635 10.0098 7.01901 10.0098 8.11647C10.0098 9.21393 10.9026 10.1068 12.0001 10.1068ZM12.0001 6.63641C12.8162 6.63641 13.4804 7.30033 13.4804 8.11627C13.4804 8.93241 12.8162 9.59653 12.0001 9.59653C11.184 9.59653 10.5198 8.93241 10.5198 8.11627C10.5198 7.30033 11.1838 6.63641 12.0001 6.63641ZM12.0001 10.5968C9.78915 10.5968 7.99043 12.3955 7.99043 14.6062C7.99043 15.0223 8.22303 15.604 9.33064 16.012C10.039 16.2728 10.9871 16.4165 11.9999 16.4165C13.9957 16.4165 16.0096 15.8567 16.0096 14.6064C16.0096 12.3953 14.2109 10.5968 12.0001 10.5968ZM11.9999 15.9063C10.0049 15.9063 8.50049 15.3473 8.50049 14.6062C8.50049 12.6768 10.0705 11.1068 12.0001 11.1068C13.9295 11.1068 15.4995 12.6766 15.4995 14.6062C15.4993 15.3473 13.9949 15.9063 11.9999 15.9063ZM19.0391 15.0958C19.0391 14.5758 18.6161 14.1526 18.0959 14.1526C17.5759 14.1526 17.1527 14.5756 17.1527 15.0958V19.0426C16.9826 19.2555 16.8899 19.5187 16.8899 19.7942C16.8899 20.4591 17.4308 21 18.0957 21C18.7606 21 19.3015 20.4591 19.3015 19.7942C19.3015 19.5187 19.209 19.2555 19.0387 19.0426V15.0958H19.0391ZM18.0959 14.6629C18.3346 14.6629 18.5288 14.8571 18.5288 15.0958V15.573H17.6628V15.0958C17.663 14.8571 17.8572 14.6629 18.0959 14.6629ZM18.0959 20.4899C17.7123 20.4899 17.4001 20.1778 17.4001 19.7942C17.4001 19.6145 17.4683 19.4438 17.5923 19.3139C17.6376 19.2664 17.6628 19.2035 17.6628 19.138V18.7992H17.8781C18.019 18.7992 18.1333 18.6849 18.1333 18.5441C18.1333 18.4032 18.019 18.2889 17.8781 18.2889H17.6628V17.8314H17.8781C18.019 17.8314 18.1333 17.7172 18.1333 17.5763C18.1333 17.4354 18.019 17.3212 17.8781 17.3212H17.6628V16.8637H17.8781C18.019 16.8637 18.1333 16.7494 18.1333 16.6085C18.1333 16.4677 18.019 16.3534 17.8781 16.3534H17.6628V16.0828H18.5288V19.1377C18.5288 19.2033 18.554 19.2664 18.5993 19.3137C18.7233 19.4436 18.7915 19.6143 18.7915 19.794C18.7919 20.178 18.4797 20.4899 18.0959 20.4899ZM18.0959 3C16.4947 3 15.192 4.30266 15.192 5.90389C15.192 7.50512 16.4947 8.80779 18.0959 8.80779C19.6971 8.80779 20.9998 7.50512 20.9998 5.90389C21 4.30287 19.6971 3 18.0959 3ZM18.0959 8.29793C16.776 8.29793 15.7021 7.22401 15.7021 5.9041C15.7021 4.58418 16.776 3.51027 18.0959 3.51027C19.4158 3.51027 20.4897 4.58418 20.4897 5.9041C20.4897 7.22401 19.416 8.29793 18.0959 8.29793ZM20.0385 6.07337C20.0385 6.21423 19.9243 6.32851 19.7834 6.32851H19.1524C19.0728 6.32851 18.9977 6.29136 18.9494 6.22804L18.7759 6.0003L18.3614 6.98248C18.3214 7.07726 18.2286 7.13836 18.1263 7.13836C18.1237 7.13836 18.1211 7.13836 18.1184 7.13815C18.0131 7.13491 17.9205 7.06712 17.8856 6.96766L17.4162 5.62826L17.1827 6.17364C17.1426 6.26741 17.0504 6.3283 16.9483 6.3283H16.4082C16.2673 6.3283 16.1531 6.21403 16.1531 6.07317C16.1531 5.93231 16.2673 5.81804 16.4082 5.81804H16.78L17.2053 4.82409C17.2467 4.72728 17.3435 4.66618 17.4482 4.66943C17.5534 4.67288 17.6455 4.74067 17.6804 4.83992L18.1483 6.17466L18.4769 5.39586C18.5122 5.31203 18.5895 5.25337 18.6798 5.24201C18.7702 5.23064 18.8597 5.26819 18.9147 5.34045L19.2784 5.81804H19.783C19.9243 5.81844 20.0385 5.93251 20.0385 6.07337ZM5.90389 15.1922C4.30266 15.1922 3 16.4949 3 18.0961C3 19.6973 4.30266 21 5.90389 21C7.50512 21 8.80779 19.6973 8.80779 18.0961C8.80779 16.4949 7.50512 15.1922 5.90389 15.1922ZM5.90389 20.4899C4.58398 20.4899 3.51006 19.416 3.51006 18.0961C3.51006 16.7762 4.58398 15.7023 5.90389 15.7023C7.22381 15.7023 8.29772 16.7762 8.29772 18.0961C8.29772 19.4162 7.22381 20.4899 5.90389 20.4899ZM7.22624 17.8034C7.41683 18.1333 7.67785 18.5849 7.19499 19.4213C7.14769 19.5031 7.06204 19.549 6.97395 19.549C6.93072 19.549 6.88688 19.538 6.84669 19.5147C6.7247 19.4442 6.68289 19.2881 6.75332 19.1662C7.08883 18.5849 6.95467 18.3527 6.78478 18.0588C6.61206 17.76 6.39711 17.3879 6.75332 16.7711C6.82375 16.6491 6.97964 16.6073 7.10182 16.6778C7.22381 16.7482 7.26562 16.9043 7.19519 17.0263C6.98613 17.3879 7.07138 17.5355 7.22624 17.8034ZM5.00169 17.8034C5.19228 18.1333 5.4533 18.5849 4.97023 19.4213C4.92294 19.5031 4.83729 19.549 4.7492 19.549C4.70596 19.549 4.66212 19.538 4.62193 19.5147C4.49995 19.4442 4.45814 19.2881 4.52857 19.1662C4.86408 18.5849 4.72991 18.3527 4.56003 18.0588C4.3873 17.76 4.17236 17.3879 4.52857 16.7711C4.599 16.6491 4.75508 16.6073 4.87707 16.6778C4.99905 16.7482 5.04086 16.9043 4.97043 17.0263C4.76137 17.3879 4.84683 17.5355 5.00169 17.8034ZM6.11397 17.8034C6.30456 18.1333 6.56558 18.5849 6.08271 19.4213C6.03542 19.5031 5.94976 19.549 5.86168 19.549C5.81844 19.549 5.7746 19.538 5.73441 19.5147C5.61243 19.4442 5.57062 19.2881 5.64105 19.1662C5.97656 18.5849 5.84239 18.3527 5.67251 18.0588C5.49978 17.76 5.28483 17.3879 5.64105 16.7711C5.71148 16.6491 5.86756 16.6073 5.98955 16.6778C6.11153 16.7482 6.15334 16.9043 6.08291 17.0263C5.87365 17.3879 5.9591 17.5355 6.11397 17.8034ZM5.90389 8.80799C7.50512 8.80799 8.80779 7.50533 8.80779 5.9041C8.80779 4.30287 7.50512 3.0002 5.90389 3.0002C4.30266 3.0002 3 4.30287 3 5.9041C2.9998 7.50533 4.30266 8.80799 5.90389 8.80799ZM5.90389 3.51027C7.22381 3.51027 8.29772 4.58418 8.29772 5.9041C8.29772 7.22401 7.22381 8.29793 5.90389 8.29793C4.58398 8.29793 3.51006 7.22401 3.51006 5.9041C3.51006 4.58418 4.58378 3.51027 5.90389 3.51027ZM5.6857 7.22015C5.74781 7.27577 5.82575 7.30337 5.90369 7.30337C5.98163 7.30337 6.05957 7.27557 6.12168 7.22015C6.74663 6.66219 7.45499 6.02973 7.45499 5.33801C7.45499 4.87849 7.04986 4.50462 6.55177 4.50462C6.28345 4.50462 6.07622 4.58479 5.90369 4.75995C5.73117 4.58479 5.52393 4.50462 5.25561 4.50462C4.75752 4.50462 4.35239 4.87849 4.35239 5.33801C4.35259 6.02973 5.06096 6.66219 5.6857 7.22015ZM5.25581 5.01468C5.43422 5.01468 5.5215 5.06522 5.62948 5.23145C5.69017 5.32462 5.79267 5.38043 5.90389 5.38043C6.01512 5.38043 6.11782 5.32482 6.17831 5.23145C6.28609 5.06542 6.37336 5.01488 6.55198 5.01488C6.76875 5.01488 6.94493 5.15981 6.94493 5.33822C6.94493 5.76587 6.39569 6.28913 5.90369 6.731C5.41169 6.28913 4.86266 5.76587 4.86266 5.33822C4.86266 5.15981 5.03904 5.01468 5.25581 5.01468Z"/>
</mask>
<path d="M12.0001 10.1068C13.0976 10.1068 13.9904 9.21393 13.9904 8.11647C13.9904 7.01921 13.0976 6.12635 12.0001 6.12635C10.9026 6.12635 10.0098 7.01901 10.0098 8.11647C10.0098 9.21393 10.9026 10.1068 12.0001 10.1068ZM12.0001 6.63641C12.8162 6.63641 13.4804 7.30033 13.4804 8.11627C13.4804 8.93241 12.8162 9.59653 12.0001 9.59653C11.184 9.59653 10.5198 8.93241 10.5198 8.11627C10.5198 7.30033 11.1838 6.63641 12.0001 6.63641ZM12.0001 10.5968C9.78915 10.5968 7.99043 12.3955 7.99043 14.6062C7.99043 15.0223 8.22303 15.604 9.33064 16.012C10.039 16.2728 10.9871 16.4165 11.9999 16.4165C13.9957 16.4165 16.0096 15.8567 16.0096 14.6064C16.0096 12.3953 14.2109 10.5968 12.0001 10.5968ZM11.9999 15.9063C10.0049 15.9063 8.50049 15.3473 8.50049 14.6062C8.50049 12.6768 10.0705 11.1068 12.0001 11.1068C13.9295 11.1068 15.4995 12.6766 15.4995 14.6062C15.4993 15.3473 13.9949 15.9063 11.9999 15.9063ZM19.0391 15.0958C19.0391 14.5758 18.6161 14.1526 18.0959 14.1526C17.5759 14.1526 17.1527 14.5756 17.1527 15.0958V19.0426C16.9826 19.2555 16.8899 19.5187 16.8899 19.7942C16.8899 20.4591 17.4308 21 18.0957 21C18.7606 21 19.3015 20.4591 19.3015 19.7942C19.3015 19.5187 19.209 19.2555 19.0387 19.0426V15.0958H19.0391ZM18.0959 14.6629C18.3346 14.6629 18.5288 14.8571 18.5288 15.0958V15.573H17.6628V15.0958C17.663 14.8571 17.8572 14.6629 18.0959 14.6629ZM18.0959 20.4899C17.7123 20.4899 17.4001 20.1778 17.4001 19.7942C17.4001 19.6145 17.4683 19.4438 17.5923 19.3139C17.6376 19.2664 17.6628 19.2035 17.6628 19.138V18.7992H17.8781C18.019 18.7992 18.1333 18.6849 18.1333 18.5441C18.1333 18.4032 18.019 18.2889 17.8781 18.2889H17.6628V17.8314H17.8781C18.019 17.8314 18.1333 17.7172 18.1333 17.5763C18.1333 17.4354 18.019 17.3212 17.8781 17.3212H17.6628V16.8637H17.8781C18.019 16.8637 18.1333 16.7494 18.1333 16.6085C18.1333 16.4677 18.019 16.3534 17.8781 16.3534H17.6628V16.0828H18.5288V19.1377C18.5288 19.2033 18.554 19.2664 18.5993 19.3137C18.7233 19.4436 18.7915 19.6143 18.7915 19.794C18.7919 20.178 18.4797 20.4899 18.0959 20.4899ZM18.0959 3C16.4947 3 15.192 4.30266 15.192 5.90389C15.192 7.50512 16.4947 8.80779 18.0959 8.80779C19.6971 8.80779 20.9998 7.50512 20.9998 5.90389C21 4.30287 19.6971 3 18.0959 3ZM18.0959 8.29793C16.776 8.29793 15.7021 7.22401 15.7021 5.9041C15.7021 4.58418 16.776 3.51027 18.0959 3.51027C19.4158 3.51027 20.4897 4.58418 20.4897 5.9041C20.4897 7.22401 19.416 8.29793 18.0959 8.29793ZM20.0385 6.07337C20.0385 6.21423 19.9243 6.32851 19.7834 6.32851H19.1524C19.0728 6.32851 18.9977 6.29136 18.9494 6.22804L18.7759 6.0003L18.3614 6.98248C18.3214 7.07726 18.2286 7.13836 18.1263 7.13836C18.1237 7.13836 18.1211 7.13836 18.1184 7.13815C18.0131 7.13491 17.9205 7.06712 17.8856 6.96766L17.4162 5.62826L17.1827 6.17364C17.1426 6.26741 17.0504 6.3283 16.9483 6.3283H16.4082C16.2673 6.3283 16.1531 6.21403 16.1531 6.07317C16.1531 5.93231 16.2673 5.81804 16.4082 5.81804H16.78L17.2053 4.82409C17.2467 4.72728 17.3435 4.66618 17.4482 4.66943C17.5534 4.67288 17.6455 4.74067 17.6804 4.83992L18.1483 6.17466L18.4769 5.39586C18.5122 5.31203 18.5895 5.25337 18.6798 5.24201C18.7702 5.23064 18.8597 5.26819 18.9147 5.34045L19.2784 5.81804H19.783C19.9243 5.81844 20.0385 5.93251 20.0385 6.07337ZM5.90389 15.1922C4.30266 15.1922 3 16.4949 3 18.0961C3 19.6973 4.30266 21 5.90389 21C7.50512 21 8.80779 19.6973 8.80779 18.0961C8.80779 16.4949 7.50512 15.1922 5.90389 15.1922ZM5.90389 20.4899C4.58398 20.4899 3.51006 19.416 3.51006 18.0961C3.51006 16.7762 4.58398 15.7023 5.90389 15.7023C7.22381 15.7023 8.29772 16.7762 8.29772 18.0961C8.29772 19.4162 7.22381 20.4899 5.90389 20.4899ZM7.22624 17.8034C7.41683 18.1333 7.67785 18.5849 7.19499 19.4213C7.14769 19.5031 7.06204 19.549 6.97395 19.549C6.93072 19.549 6.88688 19.538 6.84669 19.5147C6.7247 19.4442 6.68289 19.2881 6.75332 19.1662C7.08883 18.5849 6.95467 18.3527 6.78478 18.0588C6.61206 17.76 6.39711 17.3879 6.75332 16.7711C6.82375 16.6491 6.97964 16.6073 7.10182 16.6778C7.22381 16.7482 7.26562 16.9043 7.19519 17.0263C6.98613 17.3879 7.07138 17.5355 7.22624 17.8034ZM5.00169 17.8034C5.19228 18.1333 5.4533 18.5849 4.97023 19.4213C4.92294 19.5031 4.83729 19.549 4.7492 19.549C4.70596 19.549 4.66212 19.538 4.62193 19.5147C4.49995 19.4442 4.45814 19.2881 4.52857 19.1662C4.86408 18.5849 4.72991 18.3527 4.56003 18.0588C4.3873 17.76 4.17236 17.3879 4.52857 16.7711C4.599 16.6491 4.75508 16.6073 4.87707 16.6778C4.99905 16.7482 5.04086 16.9043 4.97043 17.0263C4.76137 17.3879 4.84683 17.5355 5.00169 17.8034ZM6.11397 17.8034C6.30456 18.1333 6.56558 18.5849 6.08271 19.4213C6.03542 19.5031 5.94976 19.549 5.86168 19.549C5.81844 19.549 5.7746 19.538 5.73441 19.5147C5.61243 19.4442 5.57062 19.2881 5.64105 19.1662C5.97656 18.5849 5.84239 18.3527 5.67251 18.0588C5.49978 17.76 5.28483 17.3879 5.64105 16.7711C5.71148 16.6491 5.86756 16.6073 5.98955 16.6778C6.11153 16.7482 6.15334 16.9043 6.08291 17.0263C5.87365 17.3879 5.9591 17.5355 6.11397 17.8034ZM5.90389 8.80799C7.50512 8.80799 8.80779 7.50533 8.80779 5.9041C8.80779 4.30287 7.50512 3.0002 5.90389 3.0002C4.30266 3.0002 3 4.30287 3 5.9041C2.9998 7.50533 4.30266 8.80799 5.90389 8.80799ZM5.90389 3.51027C7.22381 3.51027 8.29772 4.58418 8.29772 5.9041C8.29772 7.22401 7.22381 8.29793 5.90389 8.29793C4.58398 8.29793 3.51006 7.22401 3.51006 5.9041C3.51006 4.58418 4.58378 3.51027 5.90389 3.51027ZM5.6857 7.22015C5.74781 7.27577 5.82575 7.30337 5.90369 7.30337C5.98163 7.30337 6.05957 7.27557 6.12168 7.22015C6.74663 6.66219 7.45499 6.02973 7.45499 5.33801C7.45499 4.87849 7.04986 4.50462 6.55177 4.50462C6.28345 4.50462 6.07622 4.58479 5.90369 4.75995C5.73117 4.58479 5.52393 4.50462 5.25561 4.50462C4.75752 4.50462 4.35239 4.87849 4.35239 5.33801C4.35259 6.02973 5.06096 6.66219 5.6857 7.22015ZM5.25581 5.01468C5.43422 5.01468 5.5215 5.06522 5.62948 5.23145C5.69017 5.32462 5.79267 5.38043 5.90389 5.38043C6.01512 5.38043 6.11782 5.32482 6.17831 5.23145C6.28609 5.06542 6.37336 5.01488 6.55198 5.01488C6.76875 5.01488 6.94493 5.15981 6.94493 5.33822C6.94493 5.76587 6.39569 6.28913 5.90369 6.731C5.41169 6.28913 4.86266 5.76587 4.86266 5.33822C4.86266 5.15981 5.03904 5.01468 5.25581 5.01468Z" fill="#00625B"/>
<path d="M12.0001 10.1068C13.0976 10.1068 13.9904 9.21393 13.9904 8.11647C13.9904 7.01921 13.0976 6.12635 12.0001 6.12635C10.9026 6.12635 10.0098 7.01901 10.0098 8.11647C10.0098 9.21393 10.9026 10.1068 12.0001 10.1068ZM12.0001 6.63641C12.8162 6.63641 13.4804 7.30033 13.4804 8.11627C13.4804 8.93241 12.8162 9.59653 12.0001 9.59653C11.184 9.59653 10.5198 8.93241 10.5198 8.11627C10.5198 7.30033 11.1838 6.63641 12.0001 6.63641ZM12.0001 10.5968C9.78915 10.5968 7.99043 12.3955 7.99043 14.6062C7.99043 15.0223 8.22303 15.604 9.33064 16.012C10.039 16.2728 10.9871 16.4165 11.9999 16.4165C13.9957 16.4165 16.0096 15.8567 16.0096 14.6064C16.0096 12.3953 14.2109 10.5968 12.0001 10.5968ZM11.9999 15.9063C10.0049 15.9063 8.50049 15.3473 8.50049 14.6062C8.50049 12.6768 10.0705 11.1068 12.0001 11.1068C13.9295 11.1068 15.4995 12.6766 15.4995 14.6062C15.4993 15.3473 13.9949 15.9063 11.9999 15.9063ZM19.0391 15.0958C19.0391 14.5758 18.6161 14.1526 18.0959 14.1526C17.5759 14.1526 17.1527 14.5756 17.1527 15.0958V19.0426C16.9826 19.2555 16.8899 19.5187 16.8899 19.7942C16.8899 20.4591 17.4308 21 18.0957 21C18.7606 21 19.3015 20.4591 19.3015 19.7942C19.3015 19.5187 19.209 19.2555 19.0387 19.0426V15.0958H19.0391ZM18.0959 14.6629C18.3346 14.6629 18.5288 14.8571 18.5288 15.0958V15.573H17.6628V15.0958C17.663 14.8571 17.8572 14.6629 18.0959 14.6629ZM18.0959 20.4899C17.7123 20.4899 17.4001 20.1778 17.4001 19.7942C17.4001 19.6145 17.4683 19.4438 17.5923 19.3139C17.6376 19.2664 17.6628 19.2035 17.6628 19.138V18.7992H17.8781C18.019 18.7992 18.1333 18.6849 18.1333 18.5441C18.1333 18.4032 18.019 18.2889 17.8781 18.2889H17.6628V17.8314H17.8781C18.019 17.8314 18.1333 17.7172 18.1333 17.5763C18.1333 17.4354 18.019 17.3212 17.8781 17.3212H17.6628V16.8637H17.8781C18.019 16.8637 18.1333 16.7494 18.1333 16.6085C18.1333 16.4677 18.019 16.3534 17.8781 16.3534H17.6628V16.0828H18.5288V19.1377C18.5288 19.2033 18.554 19.2664 18.5993 19.3137C18.7233 19.4436 18.7915 19.6143 18.7915 19.794C18.7919 20.178 18.4797 20.4899 18.0959 20.4899ZM18.0959 3C16.4947 3 15.192 4.30266 15.192 5.90389C15.192 7.50512 16.4947 8.80779 18.0959 8.80779C19.6971 8.80779 20.9998 7.50512 20.9998 5.90389C21 4.30287 19.6971 3 18.0959 3ZM18.0959 8.29793C16.776 8.29793 15.7021 7.22401 15.7021 5.9041C15.7021 4.58418 16.776 3.51027 18.0959 3.51027C19.4158 3.51027 20.4897 4.58418 20.4897 5.9041C20.4897 7.22401 19.416 8.29793 18.0959 8.29793ZM20.0385 6.07337C20.0385 6.21423 19.9243 6.32851 19.7834 6.32851H19.1524C19.0728 6.32851 18.9977 6.29136 18.9494 6.22804L18.7759 6.0003L18.3614 6.98248C18.3214 7.07726 18.2286 7.13836 18.1263 7.13836C18.1237 7.13836 18.1211 7.13836 18.1184 7.13815C18.0131 7.13491 17.9205 7.06712 17.8856 6.96766L17.4162 5.62826L17.1827 6.17364C17.1426 6.26741 17.0504 6.3283 16.9483 6.3283H16.4082C16.2673 6.3283 16.1531 6.21403 16.1531 6.07317C16.1531 5.93231 16.2673 5.81804 16.4082 5.81804H16.78L17.2053 4.82409C17.2467 4.72728 17.3435 4.66618 17.4482 4.66943C17.5534 4.67288 17.6455 4.74067 17.6804 4.83992L18.1483 6.17466L18.4769 5.39586C18.5122 5.31203 18.5895 5.25337 18.6798 5.24201C18.7702 5.23064 18.8597 5.26819 18.9147 5.34045L19.2784 5.81804H19.783C19.9243 5.81844 20.0385 5.93251 20.0385 6.07337ZM5.90389 15.1922C4.30266 15.1922 3 16.4949 3 18.0961C3 19.6973 4.30266 21 5.90389 21C7.50512 21 8.80779 19.6973 8.80779 18.0961C8.80779 16.4949 7.50512 15.1922 5.90389 15.1922ZM5.90389 20.4899C4.58398 20.4899 3.51006 19.416 3.51006 18.0961C3.51006 16.7762 4.58398 15.7023 5.90389 15.7023C7.22381 15.7023 8.29772 16.7762 8.29772 18.0961C8.29772 19.4162 7.22381 20.4899 5.90389 20.4899ZM7.22624 17.8034C7.41683 18.1333 7.67785 18.5849 7.19499 19.4213C7.14769 19.5031 7.06204 19.549 6.97395 19.549C6.93072 19.549 6.88688 19.538 6.84669 19.5147C6.7247 19.4442 6.68289 19.2881 6.75332 19.1662C7.08883 18.5849 6.95467 18.3527 6.78478 18.0588C6.61206 17.76 6.39711 17.3879 6.75332 16.7711C6.82375 16.6491 6.97964 16.6073 7.10182 16.6778C7.22381 16.7482 7.26562 16.9043 7.19519 17.0263C6.98613 17.3879 7.07138 17.5355 7.22624 17.8034ZM5.00169 17.8034C5.19228 18.1333 5.4533 18.5849 4.97023 19.4213C4.92294 19.5031 4.83729 19.549 4.7492 19.549C4.70596 19.549 4.66212 19.538 4.62193 19.5147C4.49995 19.4442 4.45814 19.2881 4.52857 19.1662C4.86408 18.5849 4.72991 18.3527 4.56003 18.0588C4.3873 17.76 4.17236 17.3879 4.52857 16.7711C4.599 16.6491 4.75508 16.6073 4.87707 16.6778C4.99905 16.7482 5.04086 16.9043 4.97043 17.0263C4.76137 17.3879 4.84683 17.5355 5.00169 17.8034ZM6.11397 17.8034C6.30456 18.1333 6.56558 18.5849 6.08271 19.4213C6.03542 19.5031 5.94976 19.549 5.86168 19.549C5.81844 19.549 5.7746 19.538 5.73441 19.5147C5.61243 19.4442 5.57062 19.2881 5.64105 19.1662C5.97656 18.5849 5.84239 18.3527 5.67251 18.0588C5.49978 17.76 5.28483 17.3879 5.64105 16.7711C5.71148 16.6491 5.86756 16.6073 5.98955 16.6778C6.11153 16.7482 6.15334 16.9043 6.08291 17.0263C5.87365 17.3879 5.9591 17.5355 6.11397 17.8034ZM5.90389 8.80799C7.50512 8.80799 8.80779 7.50533 8.80779 5.9041C8.80779 4.30287 7.50512 3.0002 5.90389 3.0002C4.30266 3.0002 3 4.30287 3 5.9041C2.9998 7.50533 4.30266 8.80799 5.90389 8.80799ZM5.90389 3.51027C7.22381 3.51027 8.29772 4.58418 8.29772 5.9041C8.29772 7.22401 7.22381 8.29793 5.90389 8.29793C4.58398 8.29793 3.51006 7.22401 3.51006 5.9041C3.51006 4.58418 4.58378 3.51027 5.90389 3.51027ZM5.6857 7.22015C5.74781 7.27577 5.82575 7.30337 5.90369 7.30337C5.98163 7.30337 6.05957 7.27557 6.12168 7.22015C6.74663 6.66219 7.45499 6.02973 7.45499 5.33801C7.45499 4.87849 7.04986 4.50462 6.55177 4.50462C6.28345 4.50462 6.07622 4.58479 5.90369 4.75995C5.73117 4.58479 5.52393 4.50462 5.25561 4.50462C4.75752 4.50462 4.35239 4.87849 4.35239 5.33801C4.35259 6.02973 5.06096 6.66219 5.6857 7.22015ZM5.25581 5.01468C5.43422 5.01468 5.5215 5.06522 5.62948 5.23145C5.69017 5.32462 5.79267 5.38043 5.90389 5.38043C6.01512 5.38043 6.11782 5.32482 6.17831 5.23145C6.28609 5.06542 6.37336 5.01488 6.55198 5.01488C6.76875 5.01488 6.94493 5.15981 6.94493 5.33822C6.94493 5.76587 6.39569 6.28913 5.90369 6.731C5.41169 6.28913 4.86266 5.76587 4.86266 5.33822C4.86266 5.15981 5.03904 5.01468 5.25581 5.01468Z" stroke="#00625B" stroke-width="0.2" mask="url(#path-1-outside-1_938_160668)"/>
</svg>
