<svg width="79" height="235" viewBox="0 0 79 235" fill="none" xmlns="http://www.w3.org/2000/svg">
<path d="M68.9858 114.61C68.7185 111.389 68.9336 99.9664 68.9336 95.7417C68.9336 91.5169 67.0299 77.8777 66.6061 74.3375C66.1823 70.7973 65.4456 56.102 64.7545 48.4413C64.0634 40.7807 59.6822 37.1818 52.9669 35.8648C46.8971 34.6717 44.8434 30.8773 44.5109 28.641C46.9949 26.6134 48.6248 23.7317 49.0681 20.5501L49.1594 19.8981C49.3941 19.7481 49.681 19.4482 50.0396 18.9462C52.7648 15.1452 51.5717 11.7811 50.3329 12.6352L50.2612 12.7395C50.359 12.1527 50.4112 11.5594 50.4112 10.9466C50.4112 4.90281 45.5149 0 39.4646 0C33.4143 0 28.5181 4.89629 28.5181 10.9466C28.5181 11.5594 28.5702 12.1527 28.668 12.7395L28.5963 12.6352C27.351 11.7811 26.1579 15.1452 28.8897 18.9462C29.2483 19.4417 29.5351 19.7416 29.7698 19.8981L29.8611 20.5501C30.3044 23.7252 31.9344 26.6134 34.4184 28.641C34.0859 30.8773 32.0322 34.6717 25.9623 35.8648C19.247 37.1883 14.8658 40.7807 14.1747 48.4413C13.4902 56.102 12.7469 70.7973 12.3231 74.3375C11.8994 77.8777 9.9956 91.5169 9.9956 95.7417C9.9956 99.9664 10.2042 111.389 9.94345 114.61C9.67614 117.837 8.93941 120.953 9.14804 124.174C9.35667 127.395 11.1561 132.897 13.6923 133.738C14.8006 134.006 13.6923 131.574 13.2685 130.883C12.8447 130.198 11.7885 128.399 11.8407 127.127C11.8928 125.856 11.8928 124.8 12.6882 124.539C13.4836 124.278 13.7966 125.543 13.7966 126.971C13.7966 128.399 13.8487 129.507 14.429 129.507C15.0092 129.507 15.3287 128.079 15.2766 126.971C15.2244 125.863 15.3287 123.587 15.2244 121.684C15.1201 119.78 14.0117 117.511 14.1161 115.555C14.1617 114.668 14.8854 108.651 16.1241 102.287C17.6106 94.6529 19.6708 86.3403 19.9316 83.3152C19.9316 78.3993 22.0962 64.4472 22.8916 64.4472C23.687 64.4472 25.3756 71.3385 25.3756 80.7464C25.3756 91.5821 17.1803 95.5526 17.1803 107.705C17.1803 137.018 25.2126 151.518 25.6168 158.82C25.6168 161.297 25.7993 164.577 25.9232 166.154C26.0471 169.734 23.9803 174.35 23.9803 178.724C23.9803 190.929 32.2995 209.928 32.2995 219.642C32.2995 222.009 32.6646 223.404 31.8105 225.105C30.9629 226.807 24.5867 231.416 25.3756 232.877C25.3756 233.666 35.3963 235.485 36.4851 234.878C37.5804 234.272 37.3327 230.08 37.5804 228.743C37.8216 227.407 38.428 224.434 38.428 222.25C38.428 220.066 37.8803 213.872 37.8803 211.87C37.8803 210.743 38.1346 198.238 38.0042 187.102C37.8999 178.444 37.4174 170.64 37.3392 169.499C37.1566 168.404 37.1566 163.546 37.3979 162.334C37.6391 161.121 38.428 153.773 38.428 150.377C38.428 146.98 39.093 125.119 38.1216 117.954C38.1216 117.954 38.1802 117.165 39.4581 117.165C40.736 117.165 40.7946 117.954 40.7946 117.954C39.8232 125.119 40.4882 146.973 40.4882 150.377C40.4882 153.78 41.2771 161.121 41.5183 162.334C41.7595 163.546 41.7595 168.404 41.577 169.499C41.4988 170.64 41.0098 178.451 40.912 187.102C40.7816 198.238 41.0359 210.743 41.0359 211.87C41.0359 213.872 40.4882 220.066 40.4882 222.25C40.4882 224.434 41.0945 227.413 41.3358 228.743C41.577 230.08 41.3358 234.266 42.4311 234.878C43.5264 235.485 53.5406 233.666 53.5406 232.877C54.3295 231.423 47.9533 226.807 47.1057 225.105C46.2581 223.404 46.6232 222.009 46.6232 219.642C46.6232 209.928 54.9424 190.923 54.9424 178.724C54.9424 174.356 52.8756 169.74 52.9995 166.154C53.1234 164.577 53.3059 161.297 53.3059 158.82C53.7101 151.518 61.7424 137.018 61.7424 107.705C61.7424 95.5461 53.5472 91.5821 53.5472 80.7464C53.5472 71.3385 55.2358 64.4472 56.0312 64.4472C56.8266 64.4472 58.9911 78.3993 58.9911 83.3152C59.2519 86.3403 61.3121 94.6594 62.7986 102.287C64.0373 108.651 64.761 114.662 64.8067 115.555C64.911 117.511 63.8026 119.786 63.6983 121.684C63.594 123.587 63.6983 125.856 63.6462 126.971C63.594 128.086 63.9135 129.507 64.4937 129.507C65.074 129.507 65.1261 128.399 65.1261 126.971C65.1261 125.543 65.4456 124.278 66.2345 124.539C67.0299 124.806 67.0299 125.863 67.082 127.127C67.1342 128.392 66.078 130.192 65.6542 130.883C65.2304 131.567 64.1221 133.999 65.2304 133.738C67.7666 132.891 69.566 127.395 69.7747 124.174C69.9833 120.947 69.2466 117.83 68.9793 114.61H68.9858Z" fill="url(#paint0_linear_938_160085)"/>
<defs>
<linearGradient id="paint0_linear_938_160085" x1="51.6014" y1="16.45" x2="-195.879" y2="151.916" gradientUnits="userSpaceOnUse">
<stop stop-color="#003E39" stop-opacity="0.56"/>
<stop offset="0.435146" stop-color="#003E39" stop-opacity="0"/>
</linearGradient>
</defs>
</svg>
