<svg width="25" height="24" viewBox="0 0 25 24" fill="none" xmlns="http://www.w3.org/2000/svg">
<path d="M19.6034 4.26222C17.8523 2.69174 15.0219 2.29088 12.5148 4.79302C10.0077 2.2952 7.18128 2.69595 5.4262 4.26222C3.24811 6.21584 2.50041 10.0455 5.41269 13.2995L12.1772 20.8515C12.2625 20.946 12.384 21 12.5148 21C12.6456 21 12.7621 20.946 12.8524 20.8515L19.6169 13.2995C22.5291 10.0496 21.7866 6.21498 19.6034 4.26222ZM6.02937 4.93312C6.6952 4.33481 7.60914 3.90273 8.63521 3.90273C9.7424 3.90273 10.9753 4.40653 12.1821 5.74834C12.3534 5.93737 12.6817 5.93737 12.853 5.74834C15.1711 3.16022 17.6151 3.69177 19.0057 4.93399C20.5003 6.27071 21.1795 8.6563 20.0817 11.0057H16.7061L15.4141 8.04859C15.3424 7.88656 15.1804 7.77854 15.0048 7.77854C14.8251 7.77854 14.6673 7.88234 14.5905 8.04859L12.6909 12.3516L10.9128 6.90597C10.8545 6.73044 10.6967 6.60892 10.5119 6.59542C10.3229 6.58614 10.1566 6.68572 10.0756 6.85196L8.70261 9.73713L4.53051 9.7346C4.13473 7.83078 4.80984 6.03065 6.02926 4.9321L6.02937 4.93312ZM12.5148 19.876L6.08338 12.6971C5.48507 12.0262 5.0665 11.3291 4.79137 10.6354H8.97709C9.15262 10.6354 9.31043 10.5367 9.38216 10.3789L10.3906 8.2548L12.1864 13.746C12.2447 13.9216 12.4067 14.0473 12.5915 14.0566H12.6143C12.7898 14.0566 12.9518 13.9528 13.0286 13.7865L14.9907 9.34848L15.9899 11.6346C16.0616 11.7966 16.2236 11.9046 16.4042 11.9046H19.5545C19.3747 12.1705 19.1764 12.4354 18.9426 12.6971L12.5112 19.876H12.5148Z" fill="#00625B"/>
</svg>
