<svg width="65" height="30" viewBox="0 0 65 30" fill="none" xmlns="http://www.w3.org/2000/svg">
<path d="M7.716 0C3.46135 0 0 3.47888 0 7.75509V18.3234H1.59409V7.75509C1.59409 4.36271 4.34072 1.60217 7.716 1.60217C11.0913 1.60217 13.8379 4.36271 13.8379 7.75509C13.8379 11.1475 11.0913 13.908 7.716 13.908V15.5102C11.9707 15.5102 15.432 12.0313 15.432 7.75509C15.432 3.47888 11.9707 0 7.716 0Z" fill="#00625B"/>
<path d="M38.8851 0C35.8541 0 33.2272 1.76389 31.9662 4.32886C30.7089 1.76389 28.0782 0 25.051 0C20.7963 0 17.335 3.47888 17.335 7.75509V18.3234H18.9291V7.75509C18.9291 4.36271 21.6757 1.60217 25.051 1.60217C28.4263 1.60217 31.1729 4.36271 31.1729 7.75509V18.3234H32.767V7.75509C32.767 4.36271 35.5136 1.60217 38.8889 1.60217C42.2642 1.60217 45.0108 4.36271 45.0108 7.75509V18.3234H46.6049V7.75509C46.6124 3.47888 43.151 0 38.8926 0H38.8851Z" fill="#00625B"/>
<path d="M57.424 18.3138H57.8445C57.8933 15.9494 57.4445 14.1166 56.8085 12.7132C56.7085 12.8875 56.6256 13.049 56.5589 13.195C57.1008 14.5065 57.4684 16.1864 57.424 18.3138Z" fill="#00625B"/>
<path d="M48.9314 0.00907338H48.5091C48.6629 3.52007 50.105 6.58533 52.5148 8.60535C52.6593 8.54695 52.8003 8.48082 52.9397 8.41039C50.5316 6.47282 49.0878 3.46682 48.9314 0.00907338Z" fill="#00625B"/>
<path d="M49.8098 0.00901862H49.3875C49.5346 3.36628 50.8596 6.31645 53.0821 8.3339C53.2112 8.26262 53.3377 8.18704 53.4617 8.10716C51.269 6.16701 49.9586 3.29242 49.8098 0.00901862Z" fill="#00625B"/>
<path d="M58.3029 18.3136H58.7235C58.7808 15.5034 58.1371 13.4439 57.3088 11.9649C57.2088 12.0955 57.1181 12.2226 57.0369 12.3454C57.7875 13.7556 58.3577 15.6949 58.3029 18.3136Z" fill="#00625B"/>
<path d="M59.6033 18.3138C59.6691 15.1008 58.8177 12.8687 57.8218 11.364C57.7184 11.4739 57.6218 11.5821 57.532 11.6895C58.4621 13.1341 59.246 15.2632 59.1818 18.3138H59.6033Z" fill="#00625B"/>
<path d="M50.6898 0.00901862H50.2675C50.4069 3.1885 51.6019 6.00211 53.6159 8.00496C53.733 7.92423 53.8484 7.84092 53.9604 7.75331C51.9968 5.82604 50.8291 3.09746 50.6898 0.00901862Z" fill="#00625B"/>
<path d="M58.0327 11.1473C59.1175 12.5816 60.1347 14.855 60.0612 18.3136H60.4818C60.5553 14.7176 59.4808 12.3497 58.3396 10.857C58.2319 10.9541 58.1293 11.0511 58.0327 11.1473Z" fill="#00625B"/>
<path d="M51.5693 0.00901862H51.147C51.2778 2.9901 52.3361 5.64912 54.127 7.62105C54.2364 7.53173 54.3424 7.43983 54.4467 7.34536C52.7208 5.44901 51.6993 2.88532 51.5693 0.00901862Z" fill="#00625B"/>
<path d="M54.9274 6.879C53.4434 5.03847 52.568 2.65601 52.4484 0.00901862H52.0261C52.1475 2.77196 53.0664 5.2592 54.6273 7.17788C54.7299 7.07997 54.8299 6.98035 54.9274 6.879Z" fill="#00625B"/>
<path d="M60.9411 18.314H61.3617C61.4429 14.3427 60.1247 11.87 58.863 10.4185C58.7493 10.5079 58.6407 10.5963 58.5373 10.6848C59.7486 12.0736 61.0223 14.4586 60.9411 18.314Z" fill="#00625B"/>
<path d="M59.0395 10.2818C60.3465 11.5907 61.9083 14.0556 61.8194 18.3138H62.24C62.3289 13.9749 60.7466 11.4232 59.3925 10.0413C59.2617 10.1246 59.1412 10.2062 59.0395 10.2818Z" fill="#00625B"/>
<path d="M53.3269 0.00901862H52.9046C53.0158 2.53577 53.7937 4.83149 55.1195 6.67373C55.2178 6.56638 55.3136 6.45816 55.4059 6.34909C54.1647 4.59101 53.4355 2.40866 53.3269 0.00901862Z" fill="#00625B"/>
<path d="M62.6985 18.3137H63.1191C63.2157 13.6063 61.3461 11.0031 59.9331 9.71399C59.8015 9.79043 59.6741 9.86601 59.5544 9.93987C60.9136 11.1388 62.7959 13.651 62.6976 18.3146L62.6985 18.3137Z" fill="#00625B"/>
<path d="M54.2064 0.00901862H53.7842C53.8842 2.27983 54.5227 4.36341 55.6126 6.09916C55.7084 5.98064 55.8007 5.86212 55.8887 5.74531C54.8895 4.10146 54.3022 2.14156 54.2064 0.00901862Z" fill="#00625B"/>
<path d="M63.5779 18.3139H63.9985C64.1028 13.2054 61.8922 10.5739 60.4629 9.41184C60.3295 9.48656 60.197 9.56214 60.0679 9.636C61.4229 10.6864 63.6847 13.2131 63.5779 18.3139Z" fill="#00625B"/>
<path d="M54.6627 0.00901862C54.7499 2.0007 55.2517 3.84896 56.11 5.44471C56.2057 5.31073 56.2963 5.17933 56.3818 5.05307C55.6176 3.56124 55.1688 1.84955 55.0859 0.00901862H54.6627Z" fill="#00625B"/>
<path d="M55.965 0.00901862H55.5427C55.6162 1.69409 55.9881 3.2761 56.6198 4.68978C56.7207 4.53089 56.8113 4.38317 56.8899 4.2509C56.3522 2.95833 56.0342 1.52747 55.965 0.00901862Z" fill="#00625B"/>
<path d="M60.9698 9.12679C60.8356 9.20323 60.6988 9.27967 60.5621 9.35697C61.811 10.1926 64.5764 12.6867 64.4576 18.314H64.8781C64.9927 12.7331 62.3435 10.1085 60.9698 9.12679Z" fill="#00625B"/>
<path d="M48.9316 18.3138C48.7957 12.6273 52.0038 10.1401 53.3929 9.33276C56.7755 7.36941 58.8237 3.97264 59.0195 0.00902656H58.5989C58.4031 3.81805 56.4336 7.08084 53.1827 8.96774C48.8469 11.485 48.4657 16.2981 48.511 18.3138H48.9316Z" fill="#00625B"/>
<path d="M50.3978 18.3138C50.2619 12.6273 53.4701 10.1401 54.8592 9.33276C58.2417 7.36941 60.2891 3.97264 60.4857 0.00902656H60.0651C59.8693 3.81805 57.8998 7.08084 54.6489 8.96774C50.3132 11.485 49.9311 16.2981 49.9764 18.3138H50.3978Z" fill="#00625B"/>
<path d="M51.8628 18.3138C51.7269 12.6273 54.9351 10.1401 56.3242 9.33276C59.7076 7.36941 61.7549 3.97264 61.9515 0.00902656H61.531C61.3352 3.81805 59.3657 7.08084 56.1147 8.96774C51.779 11.485 51.3969 16.2981 51.4422 18.3138H51.8628Z" fill="#00625B"/>
<path d="M53.3287 18.3138C53.1927 12.6273 56.4009 10.1401 57.79 9.33276C61.1735 7.36941 63.2208 3.97264 63.4174 0.00902656H62.9968C62.8011 3.81805 60.8315 7.08084 57.5806 8.96774C53.2449 11.485 52.8628 16.2981 52.9081 18.3138H53.3287Z" fill="#00625B"/>
<path d="M54.795 18.3138C54.6591 12.6273 57.8673 10.1401 59.2564 9.33276C62.6398 7.36941 64.6871 3.97264 64.8837 0.00902656H64.4631C64.2674 3.81805 62.2979 7.08084 59.0469 8.96774C54.7112 11.485 54.3291 16.2981 54.3744 18.3138H54.795Z" fill="#00625B"/>
<path d="M4.90576 29.8607V27.7132H1.38454V29.8607H0V24.7082H1.38454V26.5849H4.90576V24.7082H6.2903V29.8607H4.90576Z" fill="#00625B"/>
<path d="M13.6099 29.6051C13.1908 29.7443 12.7679 29.8458 12.3525 29.906C11.9334 29.9662 11.5069 30 11.069 30C10.5115 30 10.0138 29.9398 9.57598 29.8195C9.13817 29.6991 8.77145 29.5224 8.47209 29.2929C8.17273 29.0635 7.94447 28.7815 7.79105 28.4505C7.63763 28.1195 7.5553 27.7397 7.5553 27.3222C7.5553 26.9311 7.63388 26.57 7.79105 26.2353C7.94821 25.9006 8.17273 25.6147 8.46087 25.3665C8.749 25.1183 9.10075 24.9265 9.51237 24.7911C9.92025 24.6519 10.3805 24.5842 10.8857 24.5842C11.3497 24.5842 11.7763 24.6482 12.1654 24.7723C12.5546 24.8964 12.8839 25.0844 13.1608 25.3327C13.4377 25.5809 13.6548 25.8855 13.8044 26.2466C13.9541 26.6076 14.0364 27.0251 14.0364 27.499V27.845H8.98475C9.02965 28.0067 9.10449 28.1534 9.20553 28.2925C9.30656 28.4317 9.44875 28.5408 9.62463 28.6385C9.8005 28.7326 10.0175 28.8078 10.2757 28.8567C10.5339 28.9056 10.8408 28.9356 11.2 28.9356C11.4545 28.9356 11.7014 28.9206 11.9447 28.8905C12.1879 28.8604 12.4162 28.8191 12.6257 28.7664C12.8353 28.7138 13.0298 28.6611 13.1982 28.5972C13.3666 28.5332 13.5051 28.4731 13.6099 28.4091V29.6126V29.6051ZM12.6556 26.822C12.6444 26.6941 12.607 26.5625 12.5396 26.4271C12.476 26.2917 12.375 26.1676 12.2403 26.0548C12.1018 25.9457 11.9222 25.8554 11.7014 25.784C11.4807 25.7125 11.2038 25.6787 10.8707 25.6787C10.5601 25.6787 10.2907 25.7163 10.0662 25.7953C9.83792 25.8742 9.65082 25.9683 9.4974 26.0848C9.34398 26.2014 9.22798 26.3218 9.14191 26.4572C9.05959 26.5888 9.00346 26.7129 8.97726 26.8258H12.6556V26.822Z" fill="#00625B"/>
<path d="M19.6344 29.8607V29.353C19.4585 29.4508 19.2677 29.5335 19.0656 29.6087C18.8635 29.684 18.6502 29.7479 18.4332 29.8006C18.2162 29.8532 17.9879 29.8946 17.7559 29.9209C17.5239 29.9472 17.2881 29.9623 17.0524 29.9623C16.7755 29.9623 16.5098 29.9359 16.2516 29.8833C15.9971 29.8306 15.7651 29.7479 15.5668 29.6276C15.3685 29.5072 15.2076 29.3568 15.0878 29.1687C14.9681 28.9769 14.9082 28.7475 14.9082 28.4729C14.9082 28.1269 15.0018 27.8373 15.1889 27.6042C15.376 27.371 15.6679 27.1829 16.0533 27.0363C16.4424 26.8896 16.9326 26.7767 17.5239 26.694C18.1151 26.6113 18.8186 26.5511 19.6306 26.506V26.3969C19.6306 26.3142 19.6082 26.2276 19.5633 26.1449C19.5184 26.0622 19.436 25.9869 19.32 25.9268C19.204 25.8666 19.0394 25.8102 18.8373 25.7688C18.6353 25.7274 18.3696 25.7086 18.0515 25.7086C17.8008 25.7086 17.5538 25.7237 17.3068 25.75C17.0599 25.7763 16.8241 25.8102 16.5996 25.8553C16.3713 25.9004 16.1543 25.9531 15.9522 26.0133C15.7502 26.0734 15.5631 26.1336 15.3947 26.2013V24.964C15.5668 24.9188 15.7651 24.8737 15.9784 24.8323C16.1955 24.7872 16.42 24.7534 16.652 24.7233C16.884 24.6932 17.1197 24.6669 17.3592 24.648C17.5987 24.6292 17.827 24.618 18.044 24.618C18.4743 24.618 18.871 24.6518 19.234 24.7233C19.5969 24.7947 19.9113 24.9038 20.1732 25.0542C20.4352 25.2047 20.641 25.3927 20.7906 25.6259C20.9366 25.8553 21.0114 26.1299 21.0114 26.4495V29.8645H19.6269L19.6344 29.857V29.8607ZM19.6344 27.5101C19.103 27.5289 18.6502 27.559 18.2798 27.5966C17.9093 27.6342 17.5987 27.6794 17.3517 27.7283C17.1048 27.7772 16.9102 27.8336 16.7717 27.89C16.6295 27.9464 16.5285 28.0066 16.4574 28.0668C16.3901 28.1269 16.3451 28.1871 16.3264 28.2473C16.3077 28.3075 16.304 28.3639 16.304 28.4128C16.304 28.4729 16.3227 28.5331 16.3526 28.5858C16.3826 28.6384 16.4424 28.6911 16.521 28.7324C16.6033 28.7776 16.7081 28.8077 16.8428 28.834C16.9775 28.8603 17.1459 28.8716 17.348 28.8716C17.5763 28.8716 17.7933 28.8528 18.0141 28.8189C18.2311 28.7851 18.4332 28.7362 18.6315 28.676C18.8261 28.6159 19.0095 28.5444 19.1778 28.4579C19.3462 28.3714 19.4997 28.2849 19.6344 28.1871V27.5101Z" fill="#00625B"/>
<path d="M23.9824 27.6568C23.9824 27.8712 24.0011 28.048 24.0423 28.1833C24.0834 28.3187 24.147 28.4278 24.2369 28.5068C24.3267 28.5895 24.4427 28.6422 24.5849 28.6723C24.7271 28.7024 24.9029 28.7174 25.1125 28.7174H27.7394V29.8607H24.8318C24.4277 29.8607 24.0872 29.8306 23.8028 29.7629C23.5221 29.6952 23.2901 29.5937 23.1105 29.4545C22.9309 29.3154 22.8037 29.1386 22.7213 28.928C22.639 28.7174 22.6016 28.4617 22.6016 28.1683V24.7082H23.9861V27.653L23.9824 27.6568Z" fill="#00625B"/>
<path d="M31.7173 25.829V29.857H30.3327V25.829H28.1586V24.7082H33.8951V25.829H31.7173Z" fill="#00625B"/>
<path d="M39.7137 29.8607V27.7132H36.1925V29.8607H34.8079V24.7082H36.1925V26.5849H39.7137V24.7082H41.0982V29.8607H39.7137Z" fill="#00625B"/>
</svg>
