<svg width="595" height="842" viewBox="0 0 595 842" fill="none" xmlns="http://www.w3.org/2000/svg">
<g clip-path="url(#clip0_938_160027)">
<rect width="595" height="842" fill="white"/>
<g clip-path="url(#clip1_938_160027)">
<path d="M573.12 -78.5198C538.99 -82.7398 510.15 -49.0498 504.85 -15.0698C499.55 18.9102 510.49 52.9902 517.5 86.6602C524.51 120.33 526.83 158.21 507.04 186.33C481.74 222.28 428.5 230.6 404.74 267.59C386.22 296.42 391.76 333.95 405.54 363.48C413.33 380.18 426.44 394.38 435.57 410.34C476.98 482.73 561.6 487.61 574.22 549.12C587.88 615.71 555.42 651.85 532.9 664.42C504.06 680.52 429.21 707.36 377.2 641.59C356.07 614.87 333.55 588.49 305.73 568.83C264.08 539.4 200.4 539.6 165.98 577.23C142.39 603.02 133.77 642.64 103.52 660.16C83.1901 671.94 56.9802 670.33 35.7802 660.2C14.5802 650.08 -2.18985 632.44 -15.7798 613.28" stroke="#CCE9E6" stroke-width="0.25" stroke-miterlimit="10"/>
<path d="M574.819 -76.9899C539.709 -79.9099 509.379 -46.3999 503.339 -11.4099C497.449 22.7501 508.309 57.3901 516.049 91.0601C523.789 124.73 527.169 161.27 509.179 189.31C486.159 225.12 435.629 235.19 412.169 272.13C393.589 301.56 397.039 338.49 409.089 368.73C416.009 386.1 428.369 401.5 437.629 418.22C476.889 489.09 558.769 494.92 571.209 555.09C584.569 619.8 553.839 655.74 531.679 668.8C503.599 685.35 431.489 710.96 380.069 648.81C358.869 623.19 335.919 597.78 308.269 578.44C267.599 549.88 206.189 549.62 172.069 585.14C148.459 609.72 138.849 647.91 108.989 665.36C88.5793 677.34 62.7493 676.6 41.3893 667.75C19.8293 658.82 2.10935 642.54 -12.4807 624.13" stroke="#CCE9E6" stroke-width="0.25" stroke-miterlimit="10"/>
<path d="M576.529 -75.4598C540.439 -77.0698 508.619 -43.7498 501.839 -7.73981C495.379 26.5902 506.119 61.8002 514.599 95.4802C523.079 129.16 527.509 164.36 511.319 192.31C490.579 227.97 442.669 239.74 419.609 276.69C400.899 306.67 402.309 343.09 412.649 374C418.689 392.07 430.309 408.63 439.689 426.11C476.899 495.39 555.929 502.24 568.199 561.06C581.259 623.9 552.269 659.62 530.469 673.18C503.149 690.17 433.729 714.57 382.949 656.03C361.669 631.5 338.299 607.06 310.819 588.04C271.139 560.34 211.969 559.62 178.169 593.03C154.529 616.39 143.939 653.16 114.469 670.53C93.9793 682.71 68.4993 682.85 46.9993 675.27C25.4993 667.69 6.40928 652.61 -9.18073 634.94" stroke="#CCE9E6" stroke-width="0.25" stroke-miterlimit="10"/>
<path d="M578.229 -73.9399C541.159 -74.2399 507.869 -41.0999 500.329 -4.07987C493.309 30.4301 503.919 66.2001 513.149 99.8801C522.379 133.56 527.849 167.43 513.459 195.29C494.999 230.81 449.759 244.31 427.049 281.23C408.25 311.8 407.549 347.7 416.199 379.25C421.349 398.03 432.239 415.73 441.749 433.98C476.999 501.62 553.099 509.53 565.199 567.02C577.949 627.98 550.709 663.49 529.269 677.56C502.719 694.98 435.919 718.18 385.839 663.25C364.449 639.8 340.629 616.43 313.379 597.64C274.609 570.92 217.749 569.63 184.289 600.93C160.609 623.08 148.999 658.35 119.969 675.72C99.3695 688.05 74.2595 689.13 52.6395 682.81C30.3095 676.29 10.7395 662.69 -5.85046 645.78" stroke="#CCE9E6" stroke-width="0.25" stroke-miterlimit="10"/>
<path d="M579.93 -72.4098C541.88 -71.3998 507.13 -38.4498 498.83 -0.40979C491.26 34.2802 501.73 70.6002 511.71 104.29C521.22 136.38 528.2 170.51 515.61 198.28C499.43 233.65 456.87 248.89 434.5 285.78C415.61 316.93 412.77 352.35 419.77 384.5C424.02 404 434.2 422.82 443.83 441.85C477.2 507.79 550.28 516.83 562.21 572.98C574.66 632.06 549.15 667.35 528.08 681.93C502.28 699.77 438.07 721.79 388.74 670.47C367.23 648.09 343.02 625.74 315.95 607.25C278.15 581.43 223.5 579.64 190.41 608.83C166.67 629.77 154.1 663.59 125.47 680.9C104.78 693.41 79.9997 695.41 58.2697 690.34C35.5297 685.04 15.0697 672.77 -2.53027 656.61" stroke="#CCE9E6" stroke-width="0.25" stroke-miterlimit="10"/>
<path d="M581.64 -70.8898C542.61 -68.5698 506.4 -35.8098 497.33 3.25023C489.23 38.1202 499.52 75.0002 510.26 108.7C520.37 140.4 528.6 173.61 517.76 201.26C503.94 236.52 463.98 253.46 441.94 290.33C422.97 322.07 417.95 357.01 423.33 389.76C426.65 410 436.16 429.92 445.89 449.73C477.45 513.93 547.45 524.14 559.2 578.95C571.35 636.15 547.58 671.22 526.86 686.31C501.82 704.56 440.13 725.44 391.61 677.69C369.96 656.38 345.37 635.05 318.49 616.85C281.66 591.93 229.21 589.63 196.51 616.73C172.69 636.46 159.18 668.84 130.95 686.09C110.17 698.79 85.7096 701.72 63.8896 697.88C40.7296 693.81 19.3797 682.86 0.779663 667.44" stroke="#CCE9E6" stroke-width="0.25" stroke-miterlimit="10"/>
<path d="M583.34 -69.3599C543.33 -65.7399 505.68 -33.1499 495.82 6.91014C487.19 41.9601 497.29 79.3901 508.81 113.1C519.51 144.4 528.95 176.68 519.9 204.24C508.37 239.35 471.08 258.04 449.38 294.87C430.33 327.19 423.1 361.69 426.89 395.01C429.28 416 438.12 437 447.96 457.6C477.77 520.02 544.62 531.43 556.2 584.91C568.04 640.23 546.01 675.06 525.66 690.69C501.37 709.34 442.13 729.1 394.5 684.91C372.68 664.66 347.75 644.36 321.05 626.46C285.19 602.43 234.9 599.62 202.62 624.63C178.71 643.16 164.28 674.08 136.44 691.27C115.57 704.16 91.4198 708.03 69.5098 705.41C45.9098 702.58 23.6898 692.93 4.08984 678.27" stroke="#CCE9E6" stroke-width="0.25" stroke-miterlimit="10"/>
<path d="M585.04 -67.8298C544.05 -62.8998 504.97 -30.4998 494.31 10.5802C485.17 45.8102 495.06 83.8002 507.35 117.51C518.63 148.42 529.29 179.75 522.03 207.23C512.79 242.2 478.18 262.63 456.81 299.42C437.68 332.34 428.21 366.38 430.43 400.27C431.86 422.01 440.07 444.08 450.01 465.48C478.14 526.08 541.78 538.74 553.18 590.88C564.72 644.32 544.42 678.91 524.44 695.07C500.9 714.11 444.05 732.8 397.38 692.14C375.36 672.96 350.12 653.67 323.59 636.07C288.71 612.92 240.54 609.6 208.72 632.53C184.69 649.84 169.36 679.33 141.92 696.45C120.96 709.53 97.1 714.37 75.13 712.94C51.08 711.38 28 703.01 7.41003 689.09" stroke="#CCE9E6" stroke-width="0.25" stroke-miterlimit="10"/>
<path d="M586.75 -66.3098C544.78 -60.0698 504.28 -27.8498 492.81 14.2402C483.16 49.6602 492.82 88.2002 505.91 121.92C517.76 152.44 529.64 182.83 524.18 210.22C517.24 245.04 485.31 267.22 464.25 303.97C445.05 337.48 433.3 371.07 433.99 405.52C434.44 428.02 442.06 451.15 452.07 473.36C478.57 532.12 538.95 546.05 550.18 596.85C561.42 648.41 542.84 682.75 523.23 699.45C500.43 718.87 445.9 736.54 400.26 699.36C378.02 681.24 352.49 662.98 326.14 645.68C292.24 623.42 246.16 619.56 214.82 640.44C190.66 656.53 174.44 684.6 147.41 701.65C126.37 714.92 102.8 720.74 80.75 720.49C56.25 720.21 32.31 713.11 10.72 699.94" stroke="#CCE9E6" stroke-width="0.25" stroke-miterlimit="10"/>
<path d="M588.449 -64.7798C545.509 -57.2298 503.579 -25.1898 491.309 17.9102C481.169 53.5102 490.579 92.6102 504.469 126.33C516.879 156.47 529.999 185.9 526.329 213.21C521.669 247.88 492.439 271.82 471.699 308.52C452.429 342.62 438.369 375.77 437.559 410.78C437.019 434.03 444.069 458.22 454.149 481.24C479.069 538.13 536.129 553.35 547.189 602.82C558.119 652.5 541.269 686.59 522.039 703.84C499.979 723.63 447.689 740.33 403.159 706.59C380.659 689.54 354.879 672.29 328.709 655.29C295.789 633.91 251.779 629.5 220.939 648.34C196.619 663.2 179.549 689.85 152.909 706.83C131.779 720.3 108.499 727.11 86.3792 728.02C61.4292 729.05 36.6292 723.19 14.0392 710.77" stroke="#CCE9E6" stroke-width="0.25" stroke-miterlimit="10"/>
<path d="M590.149 -63.2598C546.229 -54.4098 502.899 -22.5298 489.799 21.5702C479.169 57.3602 488.319 97.0202 503.009 130.73C515.979 160.48 530.329 188.96 528.459 216.19C526.089 250.7 499.549 276.4 479.129 313.06C459.799 347.76 443.399 380.45 441.109 416.03C439.559 440.04 446.069 465.27 456.209 489.11C479.599 544.1 533.299 560.65 544.179 608.78C554.809 656.58 539.679 690.4 520.829 708.21C499.499 728.36 449.379 744.17 406.039 713.8C383.249 697.84 357.249 681.58 331.259 664.89C299.329 644.38 257.339 639.4 227.049 656.24C202.549 669.86 184.649 695.11 158.399 712.02C137.189 725.68 114.189 733.51 92.0094 735.56C66.5994 737.91 40.9494 733.27 17.3594 721.6" stroke="#CCE9E6" stroke-width="0.25" stroke-miterlimit="10"/>
<path d="M591.859 -61.7299C546.959 -51.5699 502.229 -19.8699 488.299 25.2401C477.179 61.2201 486.059 101.44 501.569 135.14C515.079 164.51 530.679 192.04 530.619 219.18C530.529 253.54 506.699 281 486.579 317.61C467.179 352.91 448.429 385.14 444.679 421.29C442.109 446.05 448.099 472.33 458.279 496.99C480.189 550.07 530.469 567.95 541.179 614.75C551.499 660.67 538.089 694.22 519.629 712.6C499.019 733.1 450.999 748.09 408.929 721.04C385.819 706.18 359.639 690.89 333.819 674.51C302.869 654.87 262.879 649.29 233.159 664.15C208.459 676.5 189.749 700.38 163.889 717.21C142.599 731.07 119.879 739.92 97.6294 743.1C71.7694 746.79 45.2594 743.36 20.6694 732.44" stroke="#CCE9E6" stroke-width="0.25" stroke-miterlimit="10"/>
<path d="M593.56 -60.2098C547.68 -48.7398 501.57 -17.2098 486.79 28.8902C475.19 65.0702 483.78 105.84 500.11 139.54C514.16 168.53 531.01 195.1 532.75 222.16C534.94 256.37 513.82 285.59 494.01 322.15C474.56 358.05 453.41 389.81 448.22 426.53C444.61 452.04 450.13 479.35 460.33 504.85C480.79 556 527.72 575.22 538.17 620.7C548.28 664.73 536.48 698.02 518.41 716.96C498.52 737.81 452.52 752.05 411.8 728.24C388.33 714.52 362.01 700.17 336.36 684.1C306.4 665.33 268.37 659.12 239.26 672.04C214.34 683.1 194.84 705.63 169.37 722.39C147.99 736.45 125.57 746.34 103.25 750.63C76.9496 755.68 49.5696 753.44 23.9796 743.26" stroke="#CCE9E6" stroke-width="0.25" stroke-miterlimit="10"/>
<path d="M595.26 -58.6798C548.4 -45.8998 500.91 -14.5298 485.28 32.5602C473.21 68.9302 481.49 110.27 498.66 143.95C513.25 172.57 531.35 198.17 534.89 225.15C539.36 259.21 520.95 290.2 501.45 326.7C481.95 363.2 458.4 394.48 451.78 431.79C447.13 458.04 452.2 486.39 462.4 512.73C481.45 561.93 524.9 582.53 535.17 626.66C544.98 668.81 534.88 701.82 517.21 721.33C498.03 742.52 453.99 756.12 414.69 735.45C390.83 722.9 364.4 709.44 338.92 693.69C309.96 675.78 273.86 668.9 245.37 679.92C220.2 689.65 199.94 710.88 174.86 727.55C153.4 741.81 131.28 752.75 108.87 758.14C82.1298 764.57 53.8797 763.49 27.2897 754.07" stroke="#CCE9E6" stroke-width="0.25" stroke-miterlimit="10"/>
<path d="M596.97 -57.1498C549.13 -43.0698 500.27 -11.8598 483.79 36.2302C471.26 72.8002 479.22 114.7 497.22 148.36C512.33 176.61 531.69 201.24 537.04 228.13C543.78 262.04 528.1 294.79 508.89 331.24C489.33 368.35 463.37 399.13 455.34 437.04C449.62 464.02 454.29 493.41 464.46 520.61C482.14 567.85 522.06 589.83 532.16 632.63C541.66 672.9 533.26 705.62 516 725.72C497.52 747.25 455.39 760.31 417.57 742.68C393.28 731.36 366.78 718.74 341.47 703.31C313.5 686.26 279.32 678.67 251.47 687.83C226.04 696.2 205.04 716.16 180.34 732.75C158.81 747.22 136.98 759.21 114.49 765.69C87.3197 773.51 58.1897 773.59 30.6097 764.92" stroke="#CCE9E6" stroke-width="0.25" stroke-miterlimit="10"/>
<path d="M598.67 -55.6298C549.85 -40.2398 499.62 -9.18977 482.28 39.8902C469.28 76.6602 476.91 119.13 495.77 152.77C511.4 180.66 532.02 204.32 539.18 231.12C548.19 264.88 535.24 299.4 516.33 335.8C496.73 373.52 468.33 403.8 458.9 442.31C452.11 470.02 456.4 500.44 466.53 528.5C482.87 573.78 519.23 597.15 529.16 638.61C538.35 677 531.64 709.42 514.79 730.11C497 751.97 456.74 764.6 420.45 749.92C395.69 739.9 369.16 728.04 344.02 712.93C317.05 696.73 284.77 688.39 257.58 695.75C231.89 702.71 210.14 721.44 185.83 737.95C164.22 752.62 142.7 765.68 120.11 773.24C92.5299 782.46 62.4999 783.69 33.9199 775.76" stroke="#CCE9E6" stroke-width="0.25" stroke-miterlimit="10"/>
<path d="M600.37 -54.0999C550.57 -37.3999 498.99 -6.50986 480.77 43.5601C467.32 80.5401 474.6 123.58 494.32 157.18C510.47 184.71 532.35 207.4 541.32 234.11C552.6 267.72 542.39 304.01 523.77 340.35C504.13 378.68 473.28 408.44 462.45 447.56C454.59 475.99 458.55 507.45 468.59 536.37C483.62 579.67 516.39 604.45 526.15 644.57C535.03 681.08 530 713.2 513.58 734.48C496.47 756.66 458.05 769 423.33 757.13C398.09 748.5 371.55 737.3 346.57 722.52C321.59 707.74 290.22 698.02 263.68 703.63C237.71 709.12 215.24 726.7 191.31 743.12C169.62 758 148.43 772.13 125.73 780.76C97.7401 791.39 66.8101 793.76 37.2301 786.58" stroke="#CCE9E6" stroke-width="0.25" stroke-miterlimit="10"/>
<path d="M602.08 -52.5798C551.3 -34.5698 498.37 -3.82983 479.27 47.2202C465.36 84.4002 472.3 128.02 492.87 161.58C509.53 188.75 532.63 210.48 543.46 237.09C556.95 270.58 549.54 308.61 531.21 344.89C511.53 383.83 478.22 413.06 466.01 452.81C457.06 481.95 460.74 514.44 470.65 544.24C484.4 585.57 513.48 611.76 523.15 650.53C531.65 685.18 528.36 716.98 512.38 738.86C496.4 760.74 459.38 773.52 426.22 764.35C400.47 757.23 373.96 746.57 349.13 732.13C324.17 717.62 295.68 707.63 269.8 711.54C243.92 715.45 220.36 731.98 196.81 748.31C175.05 763.4 154.18 778.6 131.36 788.29C102.98 800.35 71.13 803.83 40.55 797.4" stroke="#CCE9E6" stroke-width="0.25" stroke-miterlimit="10"/>
<path d="M603.779 -51.0498C552.019 -31.7398 497.739 -1.1398 477.759 50.8802C463.399 88.2702 469.969 132.47 491.419 165.99C508.589 192.82 532.969 213.56 545.609 240.08C561.379 273.43 556.699 313.22 538.649 349.44C518.939 388.99 483.159 417.69 469.569 458.07C459.529 487.92 462.969 521.43 472.719 552.12C485.219 591.47 510.649 619.07 520.149 656.5C528.349 689.27 526.709 720.77 511.179 743.24C495.649 765.71 460.719 778.17 429.109 771.58C402.859 766.1 376.359 755.84 351.689 741.74C327.739 728.06 301.169 717.18 275.909 719.44C249.419 721.81 225.469 737.25 202.299 753.49C180.469 768.79 159.929 785.07 136.979 795.82C108.209 809.3 75.4393 813.91 43.8593 808.23" stroke="#CCE9E6" stroke-width="0.25" stroke-miterlimit="10"/>
<path d="M605.479 -49.5198C552.739 -28.8998 497.129 1.55023 476.249 54.5502C461.439 92.1502 467.639 136.94 489.959 170.4C507.629 196.88 533.299 216.64 547.739 243.07C565.789 276.27 563.919 317.87 546.079 353.99C526.419 394.2 488.079 422.3 473.119 463.33C461.979 493.88 465.239 528.41 474.779 560C486.059 597.37 507.819 626.38 517.139 662.47C525.039 693.36 525.039 724.55 509.959 747.62C494.839 770.76 462.109 782.95 431.979 778.8C405.249 775.12 378.749 765.09 354.229 751.35C331.289 738.5 306.659 726.69 282.009 727.34C255.289 728.05 230.599 742.57 207.779 758.68C185.899 774.24 165.679 791.55 142.599 803.36C113.459 818.28 79.7495 824 47.1695 819.07" stroke="#CCE9E6" stroke-width="0.25" stroke-miterlimit="10"/>
<path d="M607.189 -47.9999C553.469 -26.0699 496.599 4.27013 474.759 58.2101C459.559 96.0401 465.319 141.4 488.529 174.8C506.699 200.94 533.659 219.71 549.899 246.05C570.229 279.11 571.059 322.45 553.539 358.53C533.819 399.34 493.029 426.9 476.699 468.57C464.459 499.81 467.609 535.35 476.859 567.87C486.939 603.27 504.999 633.67 514.149 668.43C521.739 697.44 523.379 728.32 508.769 752C494.159 775.68 463.629 787.83 434.889 786.02C407.729 784.31 381.189 774.33 356.809 760.95C334.889 748.92 312.239 736.15 288.139 735.24C261.219 734.23 235.719 747.83 213.289 763.86C191.329 779.62 171.459 798.02 148.239 810.89C118.739 827.24 84.0795 834.08 50.4995 829.89" stroke="#CCE9E6" stroke-width="0.25" stroke-miterlimit="10"/>
<path d="M608.89 -46.4698C554.19 -23.2298 495.92 6.94016 473.25 61.8802C457.56 99.9002 462.98 145.88 487.08 179.22C505.74 205.03 534 222.8 552.04 249.05C574.65 281.96 578.19 327.06 560.97 363.09C541.19 404.5 497.94 431.5 480.24 473.84C466.89 505.77 470.01 542.32 478.91 575.76C487.81 609.2 502.16 640.99 511.13 674.41C518.42 701.55 521.68 732.1 507.55 756.39C493.72 780.17 465.26 792.81 437.76 793.25C410.25 793.69 383.59 783.57 359.35 770.57C338.44 759.36 317.83 745.59 294.23 743.15C267.17 740.35 240.8 753.1 218.76 769.06C196.72 785.02 177.22 804.51 153.85 818.44C124 836.23 88.3896 844.17 53.8096 840.74" stroke="#CCE9E6" stroke-width="0.25" stroke-miterlimit="10"/>
</g>
</g>
<defs>
<clipPath id="clip0_938_160027">
<rect width="595" height="842" fill="white"/>
</clipPath>
<clipPath id="clip1_938_160027">
<rect width="624.83" height="920.64" fill="white" transform="translate(5.16992 -79)"/>
</clipPath>
</defs>
</svg>
