<svg width="241" height="68" viewBox="0 0 241 68" fill="none" xmlns="http://www.w3.org/2000/svg">
<rect x="0.55" y="0.05" width="239.9" height="67.9" rx="15.95" fill="white"/>
<rect x="0.55" y="0.05" width="239.9" height="67.9" rx="15.95" stroke="#00625B" stroke-width="0.1"/>
<path d="M27.6034 26.2622C25.8523 24.6917 23.0219 24.2909 20.5148 26.793C18.0077 24.2952 15.1813 24.696 13.4262 26.2622C11.2481 28.2158 10.5004 32.0455 13.4127 35.2995L20.1772 42.8515C20.2625 42.946 20.384 43 20.5148 43C20.6456 43 20.7621 42.946 20.8524 42.8515L27.6169 35.2995C30.5291 32.0496 29.7866 28.215 27.6034 26.2622ZM14.0294 26.9331C14.6952 26.3348 15.6091 25.9027 16.6352 25.9027C17.7424 25.9027 18.9753 26.4065 20.1821 27.7483C20.3534 27.9374 20.6817 27.9374 20.853 27.7483C23.1711 25.1602 25.6151 25.6918 27.0057 26.934C28.5003 28.2707 29.1795 30.6563 28.0817 33.0057H24.7061L23.4141 30.0486C23.3424 29.8866 23.1804 29.7785 23.0048 29.7785C22.8251 29.7785 22.6673 29.8823 22.5905 30.0486L20.6909 34.3516L18.9128 28.906C18.8545 28.7304 18.6967 28.6089 18.5119 28.5954C18.3229 28.5861 18.1566 28.6857 18.0756 28.852L16.7026 31.7371L12.5305 31.7346C12.1347 29.8308 12.8098 28.0307 14.0293 26.9321L14.0294 26.9331ZM20.5148 41.876L14.0834 34.6971C13.4851 34.0262 13.0665 33.3291 12.7914 32.6354H16.9771C17.1526 32.6354 17.3104 32.5367 17.3822 32.3789L18.3906 30.2548L20.1864 35.746C20.2447 35.9216 20.4067 36.0473 20.5915 36.0566H20.6143C20.7898 36.0566 20.9518 35.9528 21.0286 35.7865L22.9907 31.3485L23.9899 33.6346C24.0616 33.7966 24.2236 33.9046 24.4042 33.9046H27.5545C27.3747 34.1705 27.1764 34.4354 26.9426 34.6971L20.5112 41.876H20.5148Z" fill="#00625B"/>
<path d="M41.75 17.9L43.89 23.63L46.02 17.9H47.21L44.42 25H43.36L40.56 17.9H41.75ZM47.0105 23.47C47.0105 23.1367 47.1038 22.8467 47.2905 22.6C47.4838 22.3467 47.7471 22.1533 48.0805 22.02C48.4138 21.88 48.8005 21.81 49.2405 21.81C49.4738 21.81 49.7105 21.8267 49.9505 21.86C50.1971 21.8933 50.4138 21.9467 50.6005 22.02V21.69C50.6005 21.3233 50.4905 21.0367 50.2705 20.83C50.0505 20.6233 49.7338 20.52 49.3205 20.52C49.0271 20.52 48.7505 20.5733 48.4905 20.68C48.2305 20.78 47.9538 20.9233 47.6605 21.11L47.2905 20.37C47.6371 20.1367 47.9838 19.9633 48.3305 19.85C48.6838 19.7367 49.0538 19.68 49.4405 19.68C50.1405 19.68 50.6905 19.8667 51.0905 20.24C51.4971 20.6067 51.7005 21.13 51.7005 21.81V23.76C51.7005 23.8867 51.7205 23.9767 51.7605 24.03C51.8071 24.0833 51.8838 24.1133 51.9905 24.12V25C51.8905 25.02 51.8005 25.0333 51.7205 25.04C51.6405 25.0467 51.5738 25.05 51.5205 25.05C51.2871 25.05 51.1105 24.9933 50.9905 24.88C50.8705 24.7667 50.8005 24.6333 50.7805 24.48L50.7505 24.18C50.5238 24.4733 50.2338 24.7 49.8805 24.86C49.5271 25.02 49.1705 25.1 48.8105 25.1C48.4638 25.1 48.1538 25.03 47.8805 24.89C47.6071 24.7433 47.3938 24.5467 47.2405 24.3C47.0871 24.0533 47.0105 23.7767 47.0105 23.47ZM50.3405 23.79C50.4205 23.7033 50.4838 23.6167 50.5305 23.53C50.5771 23.4433 50.6005 23.3667 50.6005 23.3V22.7C50.4138 22.6267 50.2171 22.5733 50.0105 22.54C49.8038 22.5 49.6005 22.48 49.4005 22.48C49.0005 22.48 48.6738 22.56 48.4205 22.72C48.1738 22.88 48.0505 23.1 48.0505 23.38C48.0505 23.5333 48.0905 23.68 48.1705 23.82C48.2571 23.96 48.3771 24.0733 48.5305 24.16C48.6905 24.2467 48.8871 24.29 49.1205 24.29C49.3605 24.29 49.5905 24.2433 49.8105 24.15C50.0305 24.0567 50.2071 23.9367 50.3405 23.79ZM54.895 25.1C54.455 25.1 54.0383 25.03 53.645 24.89C53.2517 24.7433 52.915 24.5267 52.635 24.24L53.045 23.5C53.345 23.7667 53.645 23.96 53.945 24.08C54.2517 24.2 54.555 24.26 54.855 24.26C55.1617 24.26 55.4117 24.2033 55.605 24.09C55.7983 23.97 55.895 23.7967 55.895 23.57C55.895 23.4033 55.845 23.28 55.745 23.2C55.645 23.12 55.4983 23.05 55.305 22.99C55.1183 22.93 54.8917 22.8633 54.625 22.79C54.2517 22.6767 53.9383 22.56 53.685 22.44C53.4317 22.3133 53.2417 22.16 53.115 21.98C52.9883 21.8 52.925 21.57 52.925 21.29C52.925 20.95 53.0117 20.66 53.185 20.42C53.3583 20.18 53.5983 19.9967 53.905 19.87C54.2183 19.7433 54.5783 19.68 54.985 19.68C55.365 19.68 55.715 19.74 56.035 19.86C56.3617 19.9733 56.6483 20.1533 56.895 20.4L56.425 21.13C56.1917 20.9167 55.9517 20.76 55.705 20.66C55.465 20.56 55.205 20.51 54.925 20.51C54.765 20.51 54.6117 20.53 54.465 20.57C54.3183 20.6033 54.195 20.67 54.095 20.77C54.0017 20.8633 53.955 20.9967 53.955 21.17C53.955 21.31 53.995 21.4233 54.075 21.51C54.155 21.5967 54.275 21.67 54.435 21.73C54.595 21.79 54.7917 21.8567 55.025 21.93C55.4317 22.05 55.7783 22.17 56.065 22.29C56.3517 22.4033 56.5717 22.5533 56.725 22.74C56.885 22.92 56.965 23.17 56.965 23.49C56.965 23.9967 56.775 24.3933 56.395 24.68C56.0217 24.96 55.5217 25.1 54.895 25.1ZM60.3171 25.1C59.9104 25.1 59.5404 25.03 59.2071 24.89C58.8804 24.7433 58.5971 24.5433 58.3571 24.29C58.1171 24.0367 57.9304 23.7467 57.7971 23.42C57.6704 23.0933 57.6071 22.7467 57.6071 22.38C57.6071 21.8867 57.7171 21.4367 57.9371 21.03C58.1638 20.6233 58.4771 20.2967 58.8771 20.05C59.2838 19.8033 59.7638 19.68 60.3171 19.68C60.8504 19.68 61.3138 19.8 61.7071 20.04C62.1071 20.2733 62.4004 20.5867 62.5871 20.98L61.5171 21.32C61.3971 21.1 61.2271 20.93 61.0071 20.81C60.7938 20.6833 60.5571 20.62 60.2971 20.62C60.0038 20.62 59.7371 20.6967 59.4971 20.85C59.2638 20.9967 59.0771 21.2033 58.9371 21.47C58.8038 21.73 58.7371 22.0333 58.7371 22.38C58.7371 22.7133 58.8071 23.0167 58.9471 23.29C59.0871 23.5567 59.2738 23.77 59.5071 23.93C59.7471 24.0833 60.0138 24.16 60.3071 24.16C60.4871 24.16 60.6604 24.13 60.8271 24.07C61.0004 24.0033 61.1504 23.9167 61.2771 23.81C61.4038 23.6967 61.4938 23.5733 61.5471 23.44L62.6271 23.76C62.5138 24.02 62.3438 24.25 62.1171 24.45C61.8971 24.65 61.6338 24.81 61.3271 24.93C61.0271 25.0433 60.6904 25.1 60.3171 25.1ZM63.483 22.97V19.77H64.583V22.75C64.583 23.2167 64.6664 23.57 64.833 23.81C65.0064 24.0433 65.2564 24.16 65.583 24.16C65.7897 24.16 65.9897 24.1167 66.183 24.03C66.383 23.9433 66.563 23.8167 66.723 23.65C66.8897 23.4767 67.023 23.27 67.123 23.03V19.77H68.223V23.76C68.223 23.8867 68.2464 23.9767 68.293 24.03C68.3397 24.0833 68.4164 24.1133 68.523 24.12V25C68.4097 25.02 68.3164 25.0333 68.243 25.04C68.1697 25.0467 68.0997 25.05 68.033 25.05C67.833 25.05 67.6664 24.9967 67.533 24.89C67.3997 24.7767 67.323 24.6333 67.303 24.46L67.283 23.94C67.0497 24.32 66.7464 24.61 66.373 24.81C65.9997 25.0033 65.5897 25.1 65.143 25.1C64.5964 25.1 64.183 24.92 63.903 24.56C63.623 24.2 63.483 23.67 63.483 22.97ZM69.6368 17.7H70.7368V23.49C70.7368 23.7567 70.7768 23.9267 70.8568 24C70.9368 24.0733 71.0368 24.11 71.1568 24.11C71.2901 24.11 71.4135 24.0967 71.5268 24.07C71.6468 24.0433 71.7501 24.01 71.8368 23.97L71.9968 24.84C71.8368 24.9067 71.6468 24.9633 71.4268 25.01C71.2068 25.0567 71.0101 25.08 70.8368 25.08C70.4635 25.08 70.1701 24.9767 69.9568 24.77C69.7435 24.5567 69.6368 24.2633 69.6368 23.89V17.7ZM72.2546 23.47C72.2546 23.1367 72.3479 22.8467 72.5346 22.6C72.7279 22.3467 72.9913 22.1533 73.3246 22.02C73.6579 21.88 74.0446 21.81 74.4846 21.81C74.7179 21.81 74.9546 21.8267 75.1946 21.86C75.4413 21.8933 75.6579 21.9467 75.8446 22.02V21.69C75.8446 21.3233 75.7346 21.0367 75.5146 20.83C75.2946 20.6233 74.9779 20.52 74.5646 20.52C74.2713 20.52 73.9946 20.5733 73.7346 20.68C73.4746 20.78 73.1979 20.9233 72.9046 21.11L72.5346 20.37C72.8813 20.1367 73.2279 19.9633 73.5746 19.85C73.9279 19.7367 74.2979 19.68 74.6846 19.68C75.3846 19.68 75.9346 19.8667 76.3346 20.24C76.7413 20.6067 76.9446 21.13 76.9446 21.81V23.76C76.9446 23.8867 76.9646 23.9767 77.0046 24.03C77.0513 24.0833 77.1279 24.1133 77.2346 24.12V25C77.1346 25.02 77.0446 25.0333 76.9646 25.04C76.8846 25.0467 76.8179 25.05 76.7646 25.05C76.5313 25.05 76.3546 24.9933 76.2346 24.88C76.1146 24.7667 76.0446 24.6333 76.0246 24.48L75.9946 24.18C75.7679 24.4733 75.4779 24.7 75.1246 24.86C74.7713 25.02 74.4146 25.1 74.0546 25.1C73.7079 25.1 73.3979 25.03 73.1246 24.89C72.8513 24.7433 72.6379 24.5467 72.4846 24.3C72.3313 24.0533 72.2546 23.7767 72.2546 23.47ZM75.5846 23.79C75.6646 23.7033 75.7279 23.6167 75.7746 23.53C75.8213 23.4433 75.8446 23.3667 75.8446 23.3V22.7C75.6579 22.6267 75.4613 22.5733 75.2546 22.54C75.0479 22.5 74.8446 22.48 74.6446 22.48C74.2446 22.48 73.9179 22.56 73.6646 22.72C73.4179 22.88 73.2946 23.1 73.2946 23.38C73.2946 23.5333 73.3346 23.68 73.4146 23.82C73.5013 23.96 73.6213 24.0733 73.7746 24.16C73.9346 24.2467 74.1313 24.29 74.3646 24.29C74.6046 24.29 74.8346 24.2433 75.0546 24.15C75.2746 24.0567 75.4513 23.9367 75.5846 23.79ZM81.2191 20.72C80.7925 20.7267 80.4125 20.8233 80.0791 21.01C79.7525 21.1967 79.5191 21.46 79.3791 21.8V25H78.2791V19.77H79.2991V20.94C79.4791 20.58 79.7158 20.2933 80.0091 20.08C80.3025 19.86 80.6125 19.74 80.9391 19.72C81.0058 19.72 81.0591 19.72 81.0991 19.72C81.1458 19.72 81.1858 19.7233 81.2191 19.73V20.72ZM86.143 17.9H87.203L89.963 25H88.783L88.033 23.07H85.293L84.553 25H83.363L86.143 17.9ZM87.813 22.24L86.673 19.13L85.493 22.24H87.813ZM92.6245 25.05C92.2712 25.05 91.9479 24.98 91.6545 24.84C91.3612 24.6933 91.1079 24.4967 90.8945 24.25C90.6879 24.0033 90.5245 23.72 90.4045 23.4C90.2912 23.08 90.2345 22.7433 90.2345 22.39C90.2345 22.0167 90.2945 21.6667 90.4145 21.34C90.5345 21.0133 90.7012 20.7267 90.9145 20.48C91.1345 20.2267 91.3912 20.03 91.6845 19.89C91.9779 19.75 92.3045 19.68 92.6645 19.68C93.0845 19.68 93.4512 19.78 93.7645 19.98C94.0845 20.18 94.3479 20.44 94.5545 20.76V19.77H95.5245V24.85C95.5245 25.3567 95.4012 25.7867 95.1545 26.14C94.9145 26.4933 94.5845 26.7633 94.1645 26.95C93.7445 27.1367 93.2712 27.23 92.7445 27.23C92.1645 27.23 91.6845 27.13 91.3045 26.93C90.9245 26.73 90.6012 26.4567 90.3345 26.11L90.9545 25.53C91.1545 25.81 91.4112 26.0233 91.7245 26.17C92.0445 26.3167 92.3845 26.39 92.7445 26.39C93.0445 26.39 93.3212 26.3333 93.5745 26.22C93.8345 26.1133 94.0412 25.9433 94.1945 25.71C94.3479 25.4833 94.4245 25.1967 94.4245 24.85V24.05C94.2379 24.3633 93.9812 24.61 93.6545 24.79C93.3279 24.9633 92.9845 25.05 92.6245 25.05ZM92.9845 24.16C93.1512 24.16 93.3112 24.1333 93.4645 24.08C93.6179 24.02 93.7579 23.9433 93.8845 23.85C94.0179 23.75 94.1312 23.64 94.2245 23.52C94.3179 23.3933 94.3845 23.26 94.4245 23.12V21.75C94.3379 21.5233 94.2145 21.3267 94.0545 21.16C93.8945 20.9867 93.7145 20.8533 93.5145 20.76C93.3145 20.6667 93.1112 20.62 92.9045 20.62C92.6645 20.62 92.4479 20.6733 92.2545 20.78C92.0679 20.88 91.9079 21.0167 91.7745 21.19C91.6412 21.3567 91.5379 21.5467 91.4645 21.76C91.3912 21.9733 91.3545 22.1933 91.3545 22.42C91.3545 22.66 91.3945 22.8833 91.4745 23.09C91.5612 23.2967 91.6779 23.4833 91.8245 23.65C91.9712 23.81 92.1445 23.9367 92.3445 24.03C92.5445 24.1167 92.7579 24.16 92.9845 24.16ZM99.2136 25.1C98.8069 25.1 98.4369 25.03 98.1036 24.89C97.7769 24.7433 97.4936 24.5467 97.2536 24.3C97.0136 24.0467 96.8269 23.76 96.6936 23.44C96.5669 23.1133 96.5036 22.7667 96.5036 22.4C96.5036 21.9067 96.6169 21.4567 96.8436 21.05C97.0703 20.6367 97.3869 20.3067 97.7936 20.06C98.2003 19.8067 98.6769 19.68 99.2236 19.68C99.7703 19.68 100.24 19.8067 100.634 20.06C101.034 20.3067 101.344 20.6333 101.564 21.04C101.784 21.4467 101.894 21.8833 101.894 22.35C101.894 22.43 101.89 22.5067 101.884 22.58C101.877 22.6467 101.87 22.7033 101.864 22.75H97.6736C97.6936 23.0567 97.7769 23.3267 97.9236 23.56C98.0769 23.7867 98.2703 23.9667 98.5036 24.1C98.7369 24.2267 98.9869 24.29 99.2536 24.29C99.5469 24.29 99.8236 24.2167 100.084 24.07C100.35 23.9233 100.53 23.73 100.624 23.49L101.564 23.76C101.45 24.0133 101.277 24.2433 101.044 24.45C100.817 24.65 100.547 24.81 100.234 24.93C99.9203 25.0433 99.5803 25.1 99.2136 25.1ZM97.6436 22.02H100.804C100.784 21.72 100.697 21.4567 100.544 21.23C100.397 20.9967 100.207 20.8167 99.9736 20.69C99.7469 20.5567 99.4936 20.49 99.2136 20.49C98.9403 20.49 98.6869 20.5567 98.4536 20.69C98.2269 20.8167 98.0403 20.9967 97.8936 21.23C97.7469 21.4567 97.6636 21.72 97.6436 22.02Z" fill="#00625B"/>
<rect x="152.5" y="12" width="80" height="18" rx="8" fill="#17B26A"/>
<path d="M182.773 21.0909C182.773 21.7178 182.655 22.2547 182.42 22.7017C182.188 23.1468 181.869 23.4877 181.466 23.7244C181.064 23.9612 180.609 24.0795 180.099 24.0795C179.59 24.0795 179.134 23.9612 178.73 23.7244C178.329 23.4858 178.01 23.1439 177.776 22.6989C177.543 22.2519 177.426 21.7159 177.426 21.0909C177.426 20.464 177.543 19.928 177.776 19.483C178.01 19.036 178.329 18.6941 178.73 18.4574C179.134 18.2206 179.59 18.1023 180.099 18.1023C180.609 18.1023 181.064 18.2206 181.466 18.4574C181.869 18.6941 182.188 19.036 182.42 19.483C182.655 19.928 182.773 20.464 182.773 21.0909ZM181.713 21.0909C181.713 20.6496 181.644 20.2775 181.506 19.9744C181.369 19.6695 181.18 19.4394 180.938 19.2841C180.695 19.1269 180.416 19.0483 180.099 19.0483C179.783 19.0483 179.504 19.1269 179.261 19.2841C179.019 19.4394 178.829 19.6695 178.69 19.9744C178.554 20.2775 178.486 20.6496 178.486 21.0909C178.486 21.5322 178.554 21.9053 178.69 22.2102C178.829 22.5133 179.019 22.7434 179.261 22.9006C179.504 23.0559 179.783 23.1335 180.099 23.1335C180.416 23.1335 180.695 23.0559 180.938 22.9006C181.18 22.7434 181.369 22.5133 181.506 22.2102C181.644 21.9053 181.713 21.5322 181.713 21.0909ZM183.724 25.6364V19.6364H184.735V20.358H184.795C184.848 20.2519 184.923 20.1392 185.019 20.0199C185.116 19.8987 185.246 19.7955 185.411 19.7102C185.576 19.6231 185.786 19.5795 186.042 19.5795C186.379 19.5795 186.683 19.6657 186.954 19.8381C187.227 20.0085 187.442 20.2614 187.602 20.5966C187.763 20.9299 187.843 21.339 187.843 21.8239C187.843 22.303 187.764 22.7102 187.607 23.0455C187.45 23.3807 187.236 23.6364 186.965 23.8125C186.694 23.9886 186.388 24.0767 186.045 24.0767C185.795 24.0767 185.587 24.035 185.423 23.9517C185.258 23.8684 185.125 23.768 185.025 23.6506C184.926 23.5312 184.85 23.4186 184.795 23.3125H184.752V25.6364H183.724ZM184.732 21.8182C184.732 22.1004 184.772 22.3475 184.852 22.5597C184.933 22.7718 185.049 22.9375 185.201 23.0568C185.354 23.1742 185.54 23.233 185.758 23.233C185.985 23.233 186.175 23.1723 186.329 23.0511C186.482 22.928 186.598 22.7604 186.675 22.5483C186.755 22.3343 186.795 22.0909 186.795 21.8182C186.795 21.5473 186.756 21.3068 186.678 21.0966C186.601 20.8864 186.485 20.7216 186.332 20.6023C186.178 20.483 185.987 20.4233 185.758 20.4233C185.538 20.4233 185.352 20.4811 185.198 20.5966C185.045 20.7121 184.928 20.8741 184.849 21.0824C184.771 21.2907 184.732 21.536 184.732 21.8182ZM190.903 19.6364V20.4318H188.394V19.6364H190.903ZM189.013 18.5909H190.042V22.6875C190.042 22.8258 190.063 22.9318 190.104 23.0057C190.148 23.0777 190.205 23.1269 190.275 23.1534C190.345 23.1799 190.423 23.1932 190.508 23.1932C190.572 23.1932 190.631 23.1884 190.684 23.179C190.739 23.1695 190.781 23.161 190.809 23.1534L190.982 23.9574C190.927 23.9763 190.849 23.9972 190.746 24.0199C190.646 24.0426 190.523 24.0559 190.377 24.0597C190.12 24.0672 189.888 24.0284 189.681 23.9432C189.475 23.8561 189.311 23.7216 189.19 23.5398C189.07 23.358 189.012 23.1307 189.013 22.858V18.5909ZM191.763 24V19.6364H192.791V24H191.763ZM192.28 19.017C192.117 19.017 191.977 18.9631 191.859 18.8551C191.742 18.7453 191.683 18.6136 191.683 18.4602C191.683 18.3049 191.742 18.1733 191.859 18.0653C191.977 17.9555 192.117 17.9006 192.28 17.9006C192.445 17.9006 192.585 17.9555 192.7 18.0653C192.818 18.1733 192.876 18.3049 192.876 18.4602C192.876 18.6136 192.818 18.7453 192.7 18.8551C192.585 18.9631 192.445 19.017 192.28 19.017ZM193.849 24V19.6364H194.832V20.3778H194.883C194.974 20.1278 195.124 19.9328 195.335 19.7926C195.545 19.6506 195.796 19.5795 196.087 19.5795C196.383 19.5795 196.632 19.6515 196.835 19.7955C197.039 19.9375 197.183 20.1316 197.266 20.3778H197.312C197.408 20.1354 197.571 19.9422 197.8 19.7983C198.031 19.6525 198.305 19.5795 198.621 19.5795C199.023 19.5795 199.351 19.7064 199.604 19.9602C199.858 20.214 199.985 20.5843 199.985 21.071V24H198.954V21.2301C198.954 20.9593 198.882 20.7614 198.738 20.6364C198.594 20.5095 198.418 20.446 198.21 20.446C197.961 20.446 197.767 20.5237 197.627 20.679C197.489 20.8324 197.42 21.0322 197.42 21.2784V24H196.411V21.1875C196.411 20.9621 196.343 20.7822 196.207 20.6477C196.072 20.5133 195.896 20.446 195.678 20.446C195.531 20.446 195.396 20.4839 195.275 20.5597C195.154 20.6335 195.057 20.7386 194.985 20.875C194.913 21.0095 194.877 21.1667 194.877 21.3466V24H193.849ZM202.284 24.0881C202.008 24.0881 201.759 24.0388 201.537 23.9403C201.317 23.84 201.143 23.6922 201.014 23.4972C200.887 23.3021 200.824 23.0616 200.824 22.7756C200.824 22.5294 200.869 22.3258 200.96 22.1648C201.051 22.0038 201.175 21.875 201.332 21.7784C201.49 21.6818 201.667 21.6089 201.864 21.5597C202.063 21.5085 202.268 21.4716 202.48 21.4489C202.736 21.4223 202.943 21.3987 203.102 21.3778C203.261 21.3551 203.377 21.321 203.449 21.2756C203.523 21.2282 203.56 21.1553 203.56 21.0568V21.0398C203.56 20.8258 203.496 20.66 203.369 20.5426C203.242 20.4252 203.06 20.3665 202.821 20.3665C202.569 20.3665 202.369 20.4214 202.222 20.5312C202.076 20.6411 201.977 20.7708 201.926 20.9205L200.966 20.7841C201.042 20.5189 201.167 20.2973 201.341 20.1193C201.515 19.9394 201.728 19.8049 201.98 19.7159C202.232 19.625 202.51 19.5795 202.815 19.5795C203.026 19.5795 203.235 19.6042 203.443 19.6534C203.652 19.7027 203.842 19.7841 204.014 19.8977C204.187 20.0095 204.325 20.1619 204.429 20.3551C204.535 20.5483 204.588 20.7898 204.588 21.0795V24H203.599V23.4006H203.565C203.503 23.5218 203.415 23.6354 203.301 23.7415C203.189 23.8456 203.048 23.9299 202.878 23.9943C202.709 24.0568 202.511 24.0881 202.284 24.0881ZM202.551 23.3324C202.758 23.3324 202.937 23.2917 203.088 23.2102C203.24 23.1269 203.356 23.017 203.438 22.8807C203.521 22.7443 203.562 22.5956 203.562 22.4347V21.9205C203.53 21.947 203.475 21.9716 203.398 21.9943C203.322 22.017 203.237 22.0369 203.142 22.054C203.047 22.071 202.954 22.0862 202.861 22.0994C202.768 22.1127 202.688 22.1241 202.619 22.1335C202.466 22.1544 202.329 22.1884 202.207 22.2358C202.086 22.2831 201.991 22.3494 201.92 22.4347C201.85 22.518 201.815 22.6259 201.815 22.7585C201.815 22.9479 201.884 23.0909 202.023 23.1875C202.161 23.2841 202.337 23.3324 202.551 23.3324ZM206.651 18.1818V24H205.622V18.1818H206.651Z" fill="#EFEFEF"/>
<path d="M44.4077 51.1193C43.794 51.1193 43.2486 51.0142 42.7713 50.804C42.2969 50.5937 41.9219 50.3011 41.6463 49.9261C41.3707 49.5511 41.2244 49.1179 41.2074 48.6264H42.8097C42.8239 48.8622 42.902 49.0682 43.044 49.2443C43.1861 49.4176 43.375 49.5526 43.6108 49.6491C43.8466 49.7457 44.1108 49.794 44.4034 49.794C44.7159 49.794 44.9929 49.7401 45.2344 49.6321C45.4759 49.5213 45.6648 49.3679 45.8011 49.1719C45.9375 48.9759 46.0043 48.75 46.0014 48.4943C46.0043 48.2301 45.9361 47.9972 45.7969 47.7955C45.6577 47.5937 45.456 47.4361 45.1918 47.3224C44.9304 47.2088 44.6151 47.152 44.2457 47.152H43.4744V45.9332H44.2457C44.5497 45.9332 44.8153 45.8807 45.0426 45.7756C45.2727 45.6705 45.4531 45.5227 45.5838 45.3324C45.7145 45.1392 45.7784 44.9162 45.7756 44.6634C45.7784 44.4162 45.723 44.2017 45.6094 44.0199C45.4986 43.8352 45.3409 43.6918 45.1364 43.5895C44.9347 43.4872 44.6974 43.4361 44.4247 43.4361C44.1577 43.4361 43.9105 43.4844 43.6832 43.581C43.456 43.6776 43.2727 43.8153 43.1335 43.9943C42.9943 44.1705 42.9205 44.3807 42.9119 44.625H41.3906C41.402 44.1364 41.5426 43.7074 41.8125 43.3381C42.0852 42.9659 42.4489 42.6761 42.9034 42.4688C43.358 42.2585 43.8679 42.1534 44.4332 42.1534C45.0156 42.1534 45.5213 42.2628 45.9503 42.4815C46.3821 42.6974 46.7159 42.9886 46.9517 43.3551C47.1875 43.7216 47.3054 44.1264 47.3054 44.5696C47.3082 45.0611 47.1634 45.473 46.8707 45.8054C46.581 46.1378 46.2003 46.3551 45.7287 46.4574V46.5256C46.3423 46.6108 46.8125 46.8381 47.1392 47.2074C47.4688 47.5739 47.6321 48.0298 47.6293 48.5753C47.6293 49.0639 47.4901 49.5014 47.2116 49.8878C46.9361 50.2713 46.5554 50.5724 46.0696 50.7912C45.5866 51.0099 45.0327 51.1193 44.4077 51.1193ZM52.1261 51.1193C51.5579 51.1193 51.0494 51.0128 50.6005 50.7997C50.1516 50.5838 49.7951 50.2884 49.5309 49.9134C49.2695 49.5384 49.1303 49.1094 49.1133 48.6264H50.6474C50.6758 48.9844 50.8306 49.277 51.1119 49.5043C51.3931 49.7287 51.7312 49.8409 52.1261 49.8409C52.4357 49.8409 52.7113 49.7699 52.9528 49.6278C53.1942 49.4858 53.3846 49.2884 53.5238 49.0355C53.663 48.7827 53.7312 48.4943 53.7283 48.1705C53.7312 47.8409 53.6616 47.5483 53.5195 47.2926C53.3775 47.0369 53.1829 46.8366 52.9357 46.6918C52.6886 46.544 52.4045 46.4702 52.0835 46.4702C51.8221 46.4673 51.565 46.5156 51.3121 46.6151C51.0593 46.7145 50.859 46.8452 50.7113 47.0071L49.2837 46.7727L49.7397 42.2727H54.8022V43.5938H51.0479L50.7965 45.9077H50.8477C51.0096 45.7173 51.2383 45.5597 51.5337 45.4347C51.8292 45.3068 52.1531 45.2429 52.5053 45.2429C53.0337 45.2429 53.5053 45.3679 53.9201 45.6179C54.3349 45.8651 54.6616 46.206 54.9002 46.6406C55.1388 47.0753 55.2582 47.5724 55.2582 48.1321C55.2582 48.7088 55.1246 49.223 54.8576 49.6747C54.5934 50.1236 54.2255 50.4773 53.7539 50.7358C53.2852 50.9915 52.7425 51.1193 52.1261 51.1193Z" fill="#003632"/>
<path d="M59.7045 44.1818H60.5114L62.125 46.8977H62.1932L63.8068 44.1818H64.6136L62.5114 47.6023V50H61.8068V47.6023L59.7045 44.1818ZM66.6463 50.0909C66.2259 50.0909 65.8632 49.9981 65.5582 49.8125C65.2552 49.625 65.0213 49.3636 64.8565 49.0284C64.6937 48.6913 64.6122 48.2992 64.6122 47.8523C64.6122 47.4053 64.6937 47.0114 64.8565 46.6705C65.0213 46.3277 65.2505 46.0606 65.544 45.8693C65.8395 45.6761 66.1842 45.5795 66.5781 45.5795C66.8054 45.5795 67.0298 45.6174 67.2514 45.6932C67.473 45.7689 67.6747 45.892 67.8565 46.0625C68.0384 46.2311 68.1832 46.4545 68.2912 46.733C68.3991 47.0114 68.4531 47.3542 68.4531 47.7614V48.0455H65.0895V47.4659H67.7713C67.7713 47.2197 67.7221 47 67.6236 46.8068C67.527 46.6136 67.3887 46.4612 67.2088 46.3494C67.0308 46.2377 66.8205 46.1818 66.5781 46.1818C66.3111 46.1818 66.08 46.2481 65.8849 46.3807C65.6918 46.5114 65.5431 46.6818 65.4389 46.892C65.3348 47.1023 65.2827 47.3277 65.2827 47.5682V47.9545C65.2827 48.2841 65.3395 48.5634 65.4531 48.7926C65.5687 49.0199 65.7287 49.1932 65.9332 49.3125C66.1378 49.4299 66.3755 49.4886 66.6463 49.4886C66.8224 49.4886 66.9815 49.464 67.1236 49.4148C67.2675 49.3636 67.3916 49.2879 67.4957 49.1875C67.5999 49.0852 67.6804 48.9583 67.7372 48.8068L68.3849 48.9886C68.3168 49.2083 68.2022 49.4015 68.0412 49.5682C67.8802 49.733 67.6813 49.8617 67.4446 49.9545C67.2079 50.0455 66.9418 50.0909 66.6463 50.0909ZM70.7571 50.1023C70.4806 50.1023 70.2296 50.0502 70.0043 49.946C69.7789 49.84 69.5999 49.6875 69.4673 49.4886C69.3348 49.2879 69.2685 49.0455 69.2685 48.7614C69.2685 48.5114 69.3177 48.3087 69.4162 48.1534C69.5147 47.9962 69.6463 47.8731 69.8111 47.7841C69.9759 47.6951 70.1577 47.6288 70.3565 47.5852C70.5573 47.5398 70.759 47.5038 70.9616 47.4773C71.2268 47.4432 71.4418 47.4176 71.6065 47.4006C71.7732 47.3816 71.8944 47.3504 71.9702 47.3068C72.0478 47.2633 72.0866 47.1875 72.0866 47.0795V47.0568C72.0866 46.7765 72.0099 46.5587 71.8565 46.4034C71.705 46.2481 71.4749 46.1705 71.1662 46.1705C70.8461 46.1705 70.5952 46.2405 70.4134 46.3807C70.2315 46.5208 70.1037 46.6705 70.0298 46.8295L69.3935 46.6023C69.5071 46.3371 69.6586 46.1307 69.848 45.983C70.0393 45.8333 70.2476 45.7292 70.473 45.6705C70.7003 45.6098 70.9238 45.5795 71.1435 45.5795C71.2836 45.5795 71.4446 45.5966 71.6264 45.6307C71.8101 45.6629 71.9872 45.7301 72.1577 45.8324C72.33 45.9347 72.473 46.089 72.5866 46.2955C72.7003 46.5019 72.7571 46.7784 72.7571 47.125V50H72.0866V49.4091H72.0526C72.0071 49.5038 71.9313 49.6051 71.8253 49.7131C71.7192 49.821 71.5781 49.9129 71.402 49.9886C71.2259 50.0644 71.0109 50.1023 70.7571 50.1023ZM70.8594 49.5C71.1245 49.5 71.348 49.4479 71.5298 49.3438C71.7135 49.2396 71.8518 49.1051 71.9446 48.9403C72.0393 48.7756 72.0866 48.6023 72.0866 48.4205V47.8068C72.0582 47.8409 71.9957 47.8722 71.8991 47.9006C71.8045 47.9271 71.6946 47.9508 71.5696 47.9716C71.4465 47.9905 71.3262 48.0076 71.2088 48.0227C71.0933 48.036 70.9995 48.0473 70.9276 48.0568C70.7533 48.0795 70.5904 48.1165 70.4389 48.1676C70.2893 48.2169 70.1681 48.2917 70.0753 48.392C69.9844 48.4905 69.9389 48.625 69.9389 48.7955C69.9389 49.0284 70.0251 49.2045 70.1974 49.3239C70.3717 49.4413 70.5923 49.5 70.8594 49.5ZM73.9808 50V45.6364H74.6286V46.2955H74.674C74.7536 46.0795 74.8975 45.9044 75.1058 45.7699C75.3142 45.6354 75.549 45.5682 75.8104 45.5682C75.8596 45.5682 75.9212 45.5691 75.995 45.571C76.0689 45.5729 76.1248 45.5758 76.1626 45.5795V46.2614C76.1399 46.2557 76.0878 46.2472 76.0064 46.2358C75.9268 46.2225 75.8426 46.2159 75.7536 46.2159C75.5414 46.2159 75.352 46.2604 75.1854 46.3494C75.0206 46.4366 74.8899 46.5578 74.7933 46.7131C74.6986 46.8665 74.6513 47.0417 74.6513 47.2386V50H73.9808ZM80.0483 46.6136L79.446 46.7841C79.4081 46.6837 79.3523 46.5862 79.2784 46.4915C79.2064 46.3949 79.108 46.3153 78.983 46.2528C78.858 46.1903 78.6979 46.1591 78.5028 46.1591C78.2358 46.1591 78.0133 46.2206 77.8352 46.3438C77.6591 46.465 77.571 46.6193 77.571 46.8068C77.571 46.9735 77.6316 47.1051 77.7528 47.2017C77.8741 47.2983 78.0634 47.3788 78.321 47.4432L78.9688 47.6023C79.3589 47.697 79.6496 47.8419 79.8409 48.0369C80.0322 48.2301 80.1278 48.4792 80.1278 48.7841C80.1278 49.0341 80.0559 49.2576 79.9119 49.4545C79.7699 49.6515 79.571 49.8068 79.3153 49.9205C79.0597 50.0341 78.7623 50.0909 78.4233 50.0909C77.9782 50.0909 77.6098 49.9943 77.3182 49.8011C77.0265 49.608 76.8419 49.3258 76.7642 48.9545L77.4006 48.7955C77.4612 49.0303 77.5758 49.2064 77.7443 49.3239C77.9148 49.4413 78.1373 49.5 78.4119 49.5C78.7244 49.5 78.9725 49.4337 79.1562 49.3011C79.3419 49.1667 79.4347 49.0057 79.4347 48.8182C79.4347 48.6667 79.3816 48.5398 79.2756 48.4375C79.1695 48.3333 79.0066 48.2557 78.7869 48.2045L78.0597 48.0341C77.66 47.9394 77.3665 47.7926 77.179 47.5938C76.9934 47.393 76.9006 47.142 76.9006 46.8409C76.9006 46.5947 76.9697 46.3769 77.108 46.1875C77.2481 45.9981 77.4384 45.8494 77.679 45.7415C77.9214 45.6335 78.196 45.5795 78.5028 45.5795C78.9347 45.5795 79.2737 45.6742 79.5199 45.8636C79.768 46.053 79.9441 46.303 80.0483 46.6136Z" fill="#667085"/>
</svg>
